<?xml version="1.0" encoding="utf-8"?>
<!-- Generator: Adobe Illustrator 22.0.1, SVG Export Plug-In . SVG Version: 6.00 Build 0)  -->
<svg version="1.1" id="圖層_1" xmlns="http://www.w3.org/2000/svg" xmlns:xlink="http://www.w3.org/1999/xlink" x="0px" y="0px"
	 viewBox="0 0 37.4 372.6" style="enable-background:new 0 0 37.4 372.6;" xml:space="preserve">
<style type="text/css">
	.st0{fill:#0FAA69;}
	.st1{fill:#FFFFFF;}
</style>
<g>
	<g>
		<path class="st0" d="M23.1,82.1c1.9,1.7,4.6,3.2,7.2,4.1c-0.8,0.7-1.9,2.1-2.5,3c-2.7-1.2-5.3-3-7.3-5.2v5.4h-3.6v-5.3
			c-2,2.1-4.5,3.9-7.2,5c-0.5-0.9-1.6-2.2-2.4-2.9c2.6-0.9,5.2-2.4,7.1-4.1h-4.3v-9.5h6.8v-1H8.1v-3.2h8.8v-1.8h3.6v1.8h9v3.2h-9v1
			h7.2v9.5H23.1z M13.5,76.2h3.4v-1h-3.4V76.2z M13.5,79.6h3.4v-1h-3.4V79.6z M20.6,75.2v1h3.6v-1H20.6z M24.1,78.6h-3.6v1h3.6V78.6
			z"/>
		<path class="st0" d="M18.1,105.9H12v12.3H8.6V96.3h9.6v9.6H18.1z M12,99v0.8h2.8V99H12z M14.8,103.1v-0.9H12v0.9H14.8z
			 M29.2,114.1c0,1.9-0.4,2.9-1.6,3.4c-1.2,0.6-2.9,0.6-5.3,0.6c-0.1-1-0.7-2.6-1.2-3.6c1.4,0.1,3.3,0.1,3.8,0.1s0.7-0.2,0.7-0.6
			v-8.1h-6.3v-9.7h9.8v17.9H29.2z M22.7,99v0.8h3V99H22.7z M25.7,103.2v-0.9h-3v0.9H25.7z"/>
		<path class="st0" d="M20.5,130.7v2.4h7.8v8c0,1.6-0.3,2.6-1.4,3.1s-2.5,0.6-4.3,0.6c-0.1-1-0.7-2.5-1.2-3.4c1,0.1,2.4,0.1,2.7,0.1
			c0.4,0,0.5-0.1,0.5-0.4v-4.5h-4.1v10.3h-3.6v-10.3h-3.8v8.2H9.6v-11.6h7.3v-2.4H7.7v-3.4h9.4c-0.3-0.8-0.7-1.7-1-2.4l3.5-1.1
			c0.6,1.1,1.3,2.4,1.7,3.4H30v3.4L20.5,130.7L20.5,130.7z"/>
		<path class="st0" d="M20.8,165.5c-0.1,0.3-0.3,0.6-0.5,0.8h9.5c0,0,0,0.8-0.1,1.2c-0.3,4.5-0.7,6.5-1.3,7.2
			c-0.5,0.6-1.1,0.8-1.7,0.9c-0.6,0.1-1.5,0.1-2.5,0.1c0-0.7-0.2-1.6-0.6-2.3c-0.7,1-1.5,1.9-2.3,2.5c-0.6-0.6-1.6-1.4-2.5-1.9
			c1.7-1.1,3.3-3,4.3-4.9h-0.8c-1.3,2.2-3.5,4.5-5.5,5.8c-0.6-0.7-1.5-1.5-2.3-2c1.6-0.8,3.3-2.2,4.6-3.7h-0.8
			c-0.8,0.8-1.7,1.5-2.5,2.1c-0.4-0.4-1.2-1.2-1.8-1.7c-1.9,1-3.8,1.9-5.4,2.7l-1.3-3.5c0.8-0.3,1.7-0.6,2.8-1v-6.3H7.8V158H10v-4.6
			h3.2v4.6h2v3.3h-2v5l1.6-0.7l0.5,2.1c0.7-0.6,1.4-1.4,2-2.2H15v-2.9h15.2v2.9L20.8,165.5L20.8,165.5z M28.6,161.9H17v-8.4h11.6
			V161.9z M25.4,155.9H20v0.7h5.4V155.9z M25.4,158.8H20v0.7h5.4V158.8z M26,169c-0.5,1.3-1.3,2.8-2.2,4c0.5,0,0.9,0,1.1,0
			c0.3,0,0.5,0,0.7-0.3c0.3-0.3,0.6-1.4,0.8-3.8H26V169z"/>
	</g>
	<g>
		<path class="st0" d="M27,194.4v4.1c0,4.5-2.3,7.3-7.3,7.3s-7.5-2.8-7.5-7.2v-4.2L27,194.4L27,194.4z M14.6,198.3
			c0,2.8,1.5,4.5,5.1,4.5s5-1.7,5-4.5v-0.9H14.6V198.3z"/>
		<path class="st0" d="M17.8,208.3c3.7,0,5.9,2.6,5.9,5.4c0,2.8-2.2,5.4-5.9,5.4s-5.9-2.6-5.9-5.4C11.9,210.9,14.1,208.3,17.8,208.3
			z M17.8,216c2.1,0,3.5-0.9,3.5-2.4s-1.4-2.4-3.5-2.4s-3.5,0.9-3.5,2.4C14.3,215.2,15.7,216,17.8,216z"/>
		<path class="st0" d="M23.4,222v2.4l-1.5,0.2v0.1c1,1,1.8,2.1,1.8,3.6c0,2.4-1.7,3.5-4.5,3.5h-7v-2.9h6.6c1.7,0,2.3-0.5,2.3-1.6
			c0-0.9-0.4-1.5-1.3-2.3h-7.7v-3H23.4z"/>
		<path class="st0" d="M10.2,234.6c0.9,0,1.7,0.6,2.3,1.6h0.1c0.4-0.6,1-1,1.9-1c0.8,0,1.6,0.6,2.1,1.2h0.1c0.6-0.8,1.6-1.5,2.9-1.5
			c2.6,0,4.1,2.1,4.1,4.5c0,0.6-0.1,1.2-0.3,1.7v4h-2.2v-1.9c-0.4,0.3-1,0.5-1.7,0.5c-2.5,0-3.8-1.9-3.8-4.3c0-0.4,0.1-1,0.3-1.4
			c-0.3-0.3-0.5-0.5-1-0.5c-0.6,0-0.9,0.4-0.9,1.8v1.9c0,2.7-0.8,4.2-2.8,4.2c-2.3,0-4-2.3-4-6.1C7.4,236.6,8.3,234.6,10.2,234.6z
			 M10.8,242.5c0.8,0,1-0.7,1-1.9v-1.4c0-0.7,0.1-1.2,0.2-1.6c-0.4-0.5-0.8-0.7-1.3-0.7c-0.9,0-1.5,1-1.5,2.7
			C9.2,241.4,10,242.5,10.8,242.5z M19.6,241.2c1.3,0,2.1-0.7,2.1-1.7s-0.7-1.8-2.1-1.8s-2.1,0.8-2.1,1.8
			C17.6,240.4,18.3,241.2,19.6,241.2z"/>
		<path class="st0" d="M23.4,247.8v2.4l-1.5,0.2v0.1c1,0.9,1.8,2,1.8,3.4c0,1.6-0.7,2.5-2,3.1c1.1,1,2,2.1,2,3.6
			c0,2.4-1.7,3.5-4.5,3.5h-7v-2.9h6.6c1.7,0,2.3-0.5,2.3-1.6c0-0.6-0.4-1.4-1.3-2.2h-7.7v-2.9h6.6c1.7,0,2.3-0.5,2.3-1.6
			c0-0.6-0.4-1.4-1.3-2.2H12v-2.9H23.4z"/>
		<path class="st0" d="M17.8,266.8c3.6,0,5.9,2.5,5.9,5.2c0,3.1-2.3,4.7-5.4,4.7c-0.5,0-1.1-0.1-1.3-0.1v-6.9
			c-1.8,0.2-2.8,1.4-2.8,3.1c0,0.9,0.3,1.7,0.8,2.5l-1.8,1c-0.8-1.1-1.2-2.5-1.2-3.9C11.9,269.3,14.1,266.8,17.8,266.8z M18.9,274.2
			c1.5,0,2.5-0.7,2.5-2.1c0-1.2-0.8-2.2-2.5-2.4V274.2z"/>
		<path class="st0" d="M23.4,279.7v2.4l-1.5,0.2v0.1c1,1,1.8,2.1,1.8,3.6c0,2.4-1.7,3.5-4.5,3.5h-7v-2.9h6.6c1.7,0,2.3-0.5,2.3-1.6
			c0-0.9-0.4-1.5-1.3-2.3h-7.7v-2.9h11.3V279.7z"/>
		<path class="st0" d="M27,298.3v3.3l-6.9,2.5c-0.9,0.3-1.9,0.6-2.9,0.9v0.1c1,0.3,1.9,0.6,2.9,0.9l6.9,2.5v3.3H12.2V309h6.2
			c1.4,0,3.5,0.2,4.9,0.4v-0.1l-3.5-1.2l-6.2-2.3v-1.7l6.2-2.3l3.5-1.2v-0.1c-1.4,0.1-3.5,0.4-4.9,0.4h-6.2v-2.7H27V298.3z"/>
		<path class="st0" d="M15.3,315c2.4,0,3.7,1.9,4.1,6.4c1.1,0,1.9-0.5,1.9-1.9c0-1-0.5-2-1.1-3.1l1.9-1.1c0.8,1.3,1.5,2.9,1.5,4.7
			c0,2.8-1.7,4.3-4.9,4.3h-6.5V322l1.2-0.2v-0.1c-0.8-1-1.5-2.1-1.5-3.4C11.9,316.3,13.4,315,15.3,315z M15.3,321.5h2.3
			c-0.4-2.7-1.1-3.6-2.1-3.6c-0.9,0-1.3,0.6-1.3,1.5C14.2,320.2,14.6,320.8,15.3,321.5z"/>
		<path class="st0" d="M23.4,327.9v2.4l-2,0.2v0.1c1.5,0.8,2.3,2,2.3,3.2c0,0.6-0.1,1-0.2,1.3l-2.5-0.5c0.1-0.4,0.2-0.7,0.2-1.2
			c0-0.9-0.6-1.9-2.2-2.6h-6.7v-2.9H23.4z"/>
		<path class="st0" d="M28.2,337.1v2.9h-9.6v0.1l4.8,3.9v3.2l-4.6-3.9l-6.6,4.2v-3.2l4.6-2.7L15,340h-2.8v-2.9H28.2z"/>
		<path class="st0" d="M17.8,348.4c3.6,0,5.9,2.5,5.9,5.2c0,3.1-2.3,4.7-5.4,4.7c-0.5,0-1.1-0.1-1.3-0.1v-6.9
			c-1.8,0.2-2.8,1.4-2.8,3.1c0,0.9,0.3,1.7,0.8,2.5l-1.8,1c-0.8-1.1-1.2-2.5-1.2-3.9C11.9,350.9,14.1,348.4,17.8,348.4z M18.9,355.8
			c1.5,0,2.5-0.7,2.5-2.1c0-1.2-0.8-2.2-2.5-2.4V355.8z"/>
		<path class="st0" d="M16.1,361.4h5v-1.6h2.2l0.1,1.7l3,0.3v2.5h-3v2.8h-2.3v-2.8h-5c-1.3,0-1.9,0.5-1.9,1.5c0,0.4,0.1,0.8,0.2,1.1
			l-2.1,0.5c-0.2-0.6-0.4-1.4-0.4-2.4C11.9,362.5,13.6,361.4,16.1,361.4z"/>
	</g>
	<g>
		<g>
			<path class="st0" d="M12,38.3l-0.2-0.2C11.9,38.2,11.9,38.3,12,38.3z"/>
			<path class="st0" d="M13,39.5L13,39.5C13,39.5,13,39.4,13,39.5z"/>
			<path class="st0" d="M20.8,43.8c0.1-0.1,0.2-0.2,0.3-0.3L20.8,43.8z"/>
			<path class="st0" d="M6.1,32.1L5.9,32C6.2,32.3,6,32.1,6.1,32.1z"/>
			<path class="st0" d="M7.8,4.6C7.8,4.6,7.8,4.5,7.8,4.6C7.8,4.5,7.8,4.5,7.8,4.6z"/>
			<path class="st0" d="M36.5,22.3L36.5,22.3L36.5,22.3z"/>
			<path class="st0" d="M0.6,19.1C0.6,19.1,0.7,19.1,0.6,19.1C0.6,18.8,0.6,18.9,0.6,19.1z"/>
			<path class="st0" d="M28.3,35.2L28.3,35.2L28.3,35.2L28.3,35.2z"/>
			<path class="st0" d="M27.9,35.8c0.2-0.3,0.3-0.4,0.5-0.5l-0.2,0.1L27.9,35.8z"/>
			<path class="st0" d="M36.8,18.9c0-0.2,0-0.5-0.1-0.7c0,0.1,0,0.9,0,1.3c0,0,0-0.1-0.1-0.2c0-0.1,0-0.2,0-0.3
				c0-1.1-0.1-2.2-0.3-3.3c0-0.2-0.1-0.4-0.1-0.5s-0.1-0.2-0.1-0.3c0-0.2-0.1-0.4-0.2-0.6c0,0,0,0,0-0.1c0-0.2-0.1-0.3-0.1-0.5
				s-0.1-0.3-0.1-0.4c0-0.1-0.1-0.2-0.1-0.2c-0.5-1.4-1.1-2.6-1.9-3.8c0,0,0.1,0.1,0,0c0,0,0,0-0.1-0.1c-3.2-4.9-8.8-8.1-15.1-8.1
				c-0.4,0-0.8,0-1.2,0c-0.2,0-0.3,0-0.3-0.1c-0.3,0-0.6,0.1-1,0.1s-0.8,0.1-1.3,0.2c-0.2,0,0.2-0.1,0.1-0.1c-0.2,0.1-0.5,0.2-1,0.3
				h0.1c-0.3,0.1-0.6,0.1-0.9,0.3c-0.3,0.1-0.5,0.2-0.8,0.3c-0.2,0.1-0.5,0.2-0.8,0.3s-0.6,0.3-0.9,0.4h0.1C10.3,2.9,10.2,3,10.1,3
				c-0.1,0.1,0,0,0.2-0.1c-0.7,0.3-1.8,1-2,1.1C8,4.4,8.6,4,8.2,4.3L8.1,4.4L8,4.5C7.7,4.7,7.5,4.8,7.5,4.8c0.1,0,0.2-0.1,0.3-0.2
				C7.6,4.7,7.3,4.9,7.1,5.1C6.9,5.3,6.7,5.4,6.7,5.5l0.4-0.3C6.6,5.7,6,6.2,5.4,6.8C5.2,7.1,4.9,7.3,4.6,7.6C4.4,7.9,4.2,8.2,4,8.5
				l0.1-0.1C3.9,8.7,3.8,8.8,3.7,8.9c0,0.2-0.1,0.3-0.2,0.4C3.4,9.4,3.3,9.6,3,10.1l0,0c-0.1,0.1-0.1,0.2-0.2,0.4
				c-0.1,0.1-0.1,0.3-0.2,0.4c0.1-0.3-0.3,0.5-0.1,0.1c-0.2,0.5-0.3,0.7-0.3,0.7v0.1c0,0.1-0.1,0.2-0.1,0.4L2,12.4
				c-0.1,0.3-0.1,0.3-0.2,0.8c0.1-0.5-0.2,0.3,0-0.2c-0.1,0.3-0.2,0.5-0.3,0.8c-0.1,0.2-0.1,0.4-0.1,0.6C1.2,14.8,1.1,15,1,15.3
				c-0.1,0.6,0.3-1,0.2-0.7c0.1-0.2-0.1,0.5-0.2,0.8c0,0.4-0.1,0.7-0.3,1.6c0-0.1,0-0.1,0-0.2c-0.1,0.4,0,0.7-0.1,1.2
				c0,0.3,0,0.6,0,0.7v-0.9c0,0.3,0,0.5,0,0.8c0,0.1,0,0.3,0,0.5s0,0.4,0,0.6c0-0.1,0-0.3-0.1-0.5c0,0.2,0,0.5,0,0.7
				c0,0,0-0.3-0.1-0.6c0-0.3,0-0.7,0-1c0,0.3,0,1-0.1,0.8c0.1,0.4,0,1,0.1,1.6l0,0c0,0.1,0,0.3,0.1,0.5c0-0.1-0.1-0.2-0.1-0.3
				c0.1,0.5,0.1,1,0.2,1.5c-0.1-0.5-0.1-0.6-0.1-0.6s0,0.1,0-0.1c0.2,1.2,0,0.9,0.3,1.9c0-0.2-0.1-0.3,0-0.1
				c0.1,0.3,0.1,0.6,0.2,0.8c0.3,0.9,0-0.2,0.1,0.2c0.1,0.3,0.2,0.5,0.3,0.9l0,0c0.4,1.1,0.2,0.3,0.5,1.2L2,26.1l0.2,0.5l-0.1-0.1
				c0.1,0.3,0.2,0.4,0.3,0.6s0.2,0.3,0.3,0.6c0-0.1,0.1,0,0.3,0.5c0.2,0.3-0.1-0.1,0.2,0.5c-0.1-0.1-0.2-0.3-0.3-0.5l-0.1-0.1
				c0.1,0.3,0.5,0.8,0.6,1c-0.1-0.1-0.1-0.2-0.1-0.2c0.2,0.3,0.4,0.6,0.6,0.8c0.1,0.1,0,0-0.1-0.1c0.1,0.2,0.2,0.3,0.4,0.5
				c-0.1,0-0.1,0-0.4-0.3c0.2,0.3,0.4,0.5,0.6,0.8c0,0.1,0.3,0.4,0.2,0.3c0.3,0.4,0.9,1,1.4,1.5c0,0,0.1,0.1,0.2,0.2
				c0.5,0.5,0.9,0.9,1.4,1.5H8c0.4,0.4-0.4-0.5,0.4,0.2c0.5,0.5,0.2,0.2,0.3,0.4C9,35,9.4,35.5,9.9,36c-0.2-0.2-0.3-0.3-0.4-0.4
				L9.8,36c-0.5-0.4-0.7-0.8-0.5-0.4c0.1,0,1.4,1.4,1.5,1.4l0.2,0.3c-0.1-0.1-0.1-0.1-0.1-0.2c0.4,0.5,0.4,0.3,0.9,0.9
				c0.2,0.2,0.3,0.4,0.2,0.2l0.5,0.5c0.1,0.1,0.1,0.1,0,0l0.7,0.7l0,0c0.1,0.1,0.3,0.3,0.5,0.4c0.2,0.2-0.1-0.1-0.1,0l0.4,0.4
				c0.1,0.2-0.2-0.1-0.4-0.4c0.3,0.5,0.3,0.3,1,1.2L14,40.7c0.2,0.3,0.4,0.6,0.8,1.1c-0.1-0.1-0.7-1-0.3-0.5
				c0.1,0.1,0.2,0.3,0.5,0.5c0,0,0.2,0.3,0.4,0.6h-0.1c0.3,0.3,0.3,0.3,0.5,0.5c0.3,0.4,0.3,0.5,0.4,0.6c0.5,0.6-0.3-0.5,0.3,0.2
				c0.4,0.5,0.7,0.8,1.2,1.4c0.3,0.4-0.1,0,0,0.1l0.3,0.3c0.1,0.1,0,0.1,0,0.1c0.2,0.3,0.1,0,0.4,0.4c0,0,0.1,0.1,0.1,0.2
				c0.1,0.1,0.2,0.3,0.3,0.4c0.1-0.2,0.3-0.4,0.5-0.6c0.1-0.2,0.2-0.3,0.3-0.5c0.1-0.1,0,0.1,0,0.1c0.5-0.7,0.4-0.6,0.8-1.2l0.4-0.5
				c-0.3,0.3,0-0.2,0.3-0.6c0,0,0,0-0.1,0.1c0-0.1,0.1-0.1,0.1-0.2c0,0,0,0.1-0.1,0.1c0,0,0,0,0.1-0.1c0,0,0-0.1,0.1-0.1
				c0.1-0.1,0.2-0.2,0.3-0.3c0,0,0,0.1-0.1,0.2c-0.1,0.1-0.1,0.1-0.2,0.2c-0.1,0.2-0.2,0.3-0.1,0.3c0,0,0.1-0.1,0.2-0.2v0.1
				c0,0,0.1-0.1,0.1-0.2l0.2-0.1l0,0l0.7-0.8c0.4-0.6,0.8-1.2,1.6-2.1c-0.2,0.3,0,0.1,0,0.1c-0.3,0.2-0.6,0.7-1,1.2
				c0.2-0.2,0.2-0.2,0.1-0.1l0.7-0.9c0,0,0.2-0.2,0.4-0.4c-0.2,0.1,0.5-0.7,0.8-1c0,0,0,0.1-0.4,0.5c0.4-0.4,0.4-0.7,0.9-1.1
				c-0.1,0.1-0.1,0.2-0.2,0.2c0.2-0.3,0.7-0.8,0.6-0.7l-0.1,0.1c0.6-0.7,1.8-2,1.9-2.2c0,0,0,0.1,0,0.2c0.2-0.3,0.4-0.6,0.6-0.9
				c0.1-0.1,0.2-0.2,0.3-0.4c0.1,0,0.2,0-0.1,0.4c0.2-0.1,0.3-0.3,0.6-0.7c-0.1,0.1-0.3,0.2-0.2,0.1c0.4-0.3,0.3-0.3,0.8-0.7
				c-0.2,0.1-0.1-0.1,0.2-0.3c0,0,0.1,0,0,0.1l0.5-0.7c-0.1,0.2,0,0.1,0.2,0c-0.1,0.1,0.5-0.5,0.7-0.7l-0.3,0.2
				c0.4-0.3,0.5-0.5,0.7-0.7c0.1-0.2,0.3-0.4,0.6-0.7c-0.1,0.1-0.1,0.3,0.2-0.1c0.1-0.1,0.2-0.4,0.4-0.7c0.2-0.3,0.4-0.6,0.6-0.8
				c-0.2,0.4-0.5,0.9-0.7,1.1c0.2-0.3,0.1-0.1,0.4-0.5c0.1-0.1,0,0.1-0.2,0.3c0.1-0.1,0.2-0.3,0.3-0.4c0.1-0.2,0.3-0.3,0.4-0.5
				c-0.1,0,0.5-0.8,0.4-0.8c-0.1,0.2-0.2,0.4-0.4,0.6c-0.1,0.2-0.2,0.4-0.4,0.6c-0.1,0,0.4-0.7,0.8-1.5c0.1-0.2,0,0.2,0,0.2
				c0-0.1,0.1-0.2,0.2-0.4c0.1-0.2,0.2-0.4,0.2-0.4l0.2,0.2c0.1-0.2,0.2-0.4,0.3-0.6s0.2-0.4,0.3-0.7c0.1-0.2,0.3-0.5,0.3-0.6
				c-0.1,0.2-0.2,0.2-0.3,0.2c0.1-0.2,0.2-0.4,0.3-0.7l0,0v-0.1l0,0c0.1-0.2,0.2-0.4,0.3-0.7c0.1-0.1-0.1,0.6,0,0.3
				c0,0,0-0.2,0.1-0.3c0.1-0.2,0,0.1,0.2-0.4c0-0.1,0.3-0.9,0-0.2c0.1-0.4,0.1-0.5,0.3-1c0,0.1,0-0.2,0-0.5c0-0.2,0.1-0.4,0.1-0.6
				l0,0c0-0.2,0.1-0.4,0.1-0.6s0.1-0.4,0.1-0.6c0.1-0.4,0.1-0.7,0.1-1.1c0-0.1,0-0.5,0.1-0.3C36.9,19.4,36.9,19.3,36.8,18.9
				c0.2-0.4,0.1,0.7,0.2,0.3C36.8,19.3,36.9,19.2,36.8,18.9z M21.6,42.8c0.1-0.1,0.2-0.2,0.3-0.4C21.8,42.5,21.7,42.6,21.6,42.8z
				 M10.9,2.8c-0.1,0-0.2,0.1-0.4,0.1C10.7,2.8,11,2.7,10.9,2.8z M14.2,40.8c0.1,0.1,0.2,0.2,0.4,0.4C14.4,41.1,14.2,40.9,14.2,40.8
				z"/>
			<path class="st0" d="M1.1,23.5c0,0.1,0,0.2,0.1,0.3C1.1,23.6,1.1,23.5,1.1,23.5z"/>
			<path class="st0" d="M33,30.4l-0.1,0.1C33,30.5,33,30.4,33,30.4z"/>
			<path class="st0" d="M21.1,43.5L21.1,43.5C21,43.6,21,43.6,21.1,43.5z"/>
			<path class="st0" d="M6.1,32.2L6.1,32.2C6.1,32.1,6.1,32.1,6.1,32.2L6.1,32.2z"/>
			<path class="st0" d="M35.9,25c-0.1,0.1-0.1,0.2-0.1,0.3C35.8,25.3,35.8,25.2,35.9,25z"/>
			<path class="st0" d="M36.6,16.5L36.6,16.5v-0.2C36.6,16.4,36.6,16.4,36.6,16.5z"/>
			<path class="st0" d="M36.8,17.9C36.8,17.9,36.8,17.3,36.8,17.9C36.8,17.9,36.9,18.6,36.8,17.9z"/>
			<path class="st0" d="M32,31.5c-0.3,0.3-0.4,0.4-0.2,0.3c0.5-0.4,0.1-0.1,0.5-0.5C32.3,31.2,31.9,31.6,32,31.5z"/>
			<path class="st0" d="M32,31.5c0,0,0.1-0.1,0.1-0.2C32,31.4,32,31.5,32,31.5z"/>
			<path class="st0" d="M15.2,42.2L15.2,42.2c0,0-0.1-0.1-0.2-0.3L15.2,42.2z"/>
			<polygon class="st0" points="11.6,38 11.7,38 11.6,37.9 			"/>
			<path class="st0" d="M8.4,34.6c0.1,0.1,0.3,0.3,0.4,0.4C8.5,34.7,8.4,34.5,8.4,34.6z"/>
		</g>
		<g id="XMLID_5320_">
			<path id="XMLID_5327_" class="st1" d="M22.1,26.4c-0.2,0-0.4,0-0.5,0c0.1,0,0.2,0,0.2,0c-0.2,0-0.4,0-0.6,0l0,0
				c-0.1,0-0.1,0-0.2,0l0,0c-0.1,0-0.2,0-0.3,0c0-0.1,0-0.2,0-0.3c0-0.1,0-0.1,0-0.2s0-0.2,0-0.4l0.1,0.1c-0.1-0.6,0-0.8-0.1-1.5
				v0.2c-0.2-1.3,0.3-3.1-0.8-3.6c-0.1-0.2,0.3,0.1,0.4,0.3c-0.1-0.1,0.2,0.2,0.2,0.3l0.2,0.3c0,0-0.1-0.1-0.1-0.2
				c0.1,0.2,0.2,0.3,0.2,0.5l0,0c0,0.4-0.1,0.8,0,1.1v-0.1c0,0.3,0,0.7,0,1c0,0,0.1,0.2,0,0.3c0-0.2,0-0.1,0-0.2
				c0,0.5,0.1,1.4,0,1.6c0,0.1,0,0,0,0v-3.5c0-1-0.9-1.9-1.9-1.9h-0.5c-1.1,0-1.9,0.8-1.9,1.9v0.3c0,0.1,0,0.3,0.1,0.4
				c0,0.2,0,0.2-0.1,0.3v0.4l0,0v0.2v-0.1v0.2l0,0l0,0v0.4v0.1c0,0.1,0,0.2,0,0.3l0,0v0.7l0,0l0,0v0.9l-7.6-0.1l0.2-3.6
				c0-0.1,0-0.1,0-0.2l0,0v-0.5c0-0.1,0-0.1,0-0.2l0,0L9.2,21c0-0.2,0-0.3,0-0.5v0.1l0,0V20c0,0,0,0,0-0.1l0,0v-0.3
				c0-0.4,0-1,0.1-1.4c0,0,0,0,0,0.1v-0.1h0.1c0,0,0.1,0,0.3,0c0.3,0,0.7,0,0.9,0c-0.1,0-0.1,0-0.1,0h0.4c0,0,0,0,0.1,0l0,0h0.7l0,0
				c0.1,0,0.3,0,0.4,0h-0.4c0.9,0,1.9,0,2.6,0h-0.2l0,0h0.4c0.1,0,0.3,0,0-0.1c0.1,0,0.2,0,0.3,0s0.1,0.1-0.1,0.1h0.2
				c-0.1,0-0.1-0.1,0-0.1c0.4,0,0.6,0,1,0c0,0,0,0,0,0.1c-0.2,0-0.5,0-0.5,0c-0.1,0-0.1,0-0.2,0h0.6c0,0,0,0,0.1,0c0,0,0.1,0,0.2,0
				h0.2h0.1h-0.3c0.1,0,0.3,0,0.4,0c-0.1,0-0.1,0,0,0.1h1.4h-0.1c1.1,0,2.4,0,3.4,0l0.2,0.1l0,0c0.1,0-0.1-0.1,0.2-0.1
				c0,0,0.1,0,0.2,0.1H22c0,0-0.4,0,0-0.1c0,0,0.1,0,0.1,0.1l0,0c0.1,0,0.5,0,0.5,0c0.7,0,1.6,0,2.1,0c0.2,0,0.2,0,0.2,0.1h0.5l0,0
				c0.6-0.1,1.5,0,2.3,0l0,0H28c0,0,0,0,0.1,0c0,0,0.1,0.2,0.1,0.3l-0.1-0.1c0.1,0.2,0,0.7,0.1,0.9c0-0.1,0-0.2-0.1-0.2v0.9
				c0,0.1,0,0.2,0,0.3l0,0c0,0,0,0,0-0.1c0.1,0.4,0,1,0.1,1.2v-0.1c0,0.1,0,0.1,0,0.2v0.1c0,0.2,0.1,0.4,0.1,0.8c0,0.2,0-0.2,0,0.1
				c0.1,0.4,0.1,0.9,0.1,1.3c0-0.1,0-0.1-0.1-0.2v0.2l0,0c0,0.2,0,0.5,0.1,0.5c0,0.1,0,0.2-0.1,0.2v0.4c0,0,0.1-0.1,0.1,0.2
				c-0.1,0.2,0,0.3,0,0.5v-0.1c0,0.5,0,0.1,0,0.5l0.1,0.1c0,0.1,0,0.2,0,0.3c-0.2,0-0.3,0-0.5,0c-0.1,0-0.2,0-0.2,0
				c0.1-0.1-0.4,0-0.2-0.1c-0.3,0-0.7,0-0.9,0c-0.4-0.1-1.2,0.1-1.3-0.1c-0.2,0-0.3,0.1-0.6,0.1c0,0,0.1,0-0.1,0
				c-0.3,0-0.5,0.1-0.8,0.1s-0.2-0.1-0.5-0.1h-0.1c-0.2,0,0-0.1,0.2-0.1H23h0.1c-0.2,0,0,0-0.1,0C22.8,26.5,22.6,26.4,22.1,26.4
				C22.1,26.4,22.2,26.4,22.1,26.4z"/>
			<path id="XMLID_5326_" class="st1" d="M28.2,12.1C28.2,12.1,28.1,12.1,28.2,12.1C28.1,12.2,28.1,12.2,28.2,12.1
				C28.1,12.2,28.2,12.1,28.2,12.1C28.1,12.2,28.1,12.2,28.2,12.1c-0.1,0.1-0.1,0.1-0.1,0.1c0,0.1-0.1,0.1,0,0.2
				c-0.1,0.2-0.3,0.4-0.4,0.5c-0.1,0-0.1,0-0.1,0L27.5,13l0,0c-0.1,0.2-0.4,0.3-0.5,0.4l0,0h-0.1l0,0c0,0,0.1,0,0.1,0.1h-0.1
				c0.1,0,0.1,0.2,0.2,0.3L27,13.7l0.1,0.1H27l0,0c0,0,0,0-0.1,0l0,0l0,0c-0.1,0-0.3,0-0.4,0l0,0c0,0,0,0-0.1,0l0,0
				c-0.1,0-0.1,0.1-0.2,0c-0.1,0,0.1,0,0,0s-0.3,0-0.4,0c0,0,0,0,0.1,0h-0.1l0,0c-0.1,0-0.1,0-0.2,0.1c0,0,0-0.1-0.1-0.1h-0.1
				c0,0,0,0.1-0.1,0.1c-0.1-0.1-0.1,0-0.1,0l0,0c-0.2,0,0,0-0.2,0c0,0.1-0.3,0-0.3,0.1c0-0.1-0.1,0-0.1-0.1c-0.1,0-0.2,0-0.3,0
				c-0.1-0.1-0.4,0.1-0.4-0.1c-0.1,0-0.1,0.1-0.2,0.1l0,0c-0.1,0-0.1,0.1-0.2,0.1s-0.1-0.1-0.1-0.1l0,0c-0.1,0,0-0.1,0.1-0.1h-0.2
				l0,0c-0.1,0,0,0,0,0c-0.1,0.1-0.2,0-0.3,0.1l0,0c-0.1,0-0.1,0-0.1,0H23c-0.1,0-0.1,0-0.2,0l0,0c0,0,0,0-0.1,0l0,0
				c-0.1-0.1-0.2,0-0.3,0v-0.1c-0.2,0.1-0.2,0-0.4,0.1h0.1c-0.2,0-0.4,0-0.6,0c-0.1,0-0.2,0-0.3,0c-0.1,0-0.2,0-0.2,0
				c0-0.1,0-0.1,0-0.2c0-0.1,0,0,0.1,0v0.1c0,0,0,0.1,0.1,0c-0.1,0,0.1,0,0.1,0s0,0,0.1,0h0.1c0,0,0,0-0.1,0.1
				c0.1,0,0.1-0.1,0.2-0.1l0,0c0.1,0,0.2,0.1,0.3,0l0,0c0.1,0,0.2,0,0.3,0c0,0,0.1-0.1,0.1,0c-0.1,0,0,0-0.1,0c0.1,0,0.4-0.1,0.5,0
				l0,0h-1.4c0-0.6-0.4-1-0.6-1.2l0,0l0,0l0,0l0,0l0,0h-0.1h0.1c0,0,0.1,0,0.1-0.1c0.1,0,0.1,0,0.1,0.1H21l0,0h0.1l0,0h0.1l0,0l0,0
				H21l0,0h0.1l0,0h0.2l0,0l0,0h3.6c0,0,0,0,0.1,0l0,0h0.2l0,0l0,0h0.2c0.1,0,0.1,0,0.2,0l0,0l0,0h0.2l0,0l0,0h0.1
				c0.1,0,0.3,0,0.4,0l0,0h0.1c0,0,0,0,0.1,0s0.2,0,0.3,0l0,0l0,0h0.1l0,0l0,0c0.1,0,0.1,0,0.2,0l0,0c0,0,0.1,0,0.1-0.1h-0.1
				c0.2-0.1,0.5-0.2,0.6-0.4v0.1l0,0c0,0,0-0.1,0.1-0.1c0,0,0-0.1-0.1,0c0,0,0-0.1,0.1-0.1c0,0,0.1,0,0,0.1c0,0,0,0,0-0.1
				c0,0-0.1,0-0.1-0.1c0.1-0.1,0.1-0.1,0.2-0.3c0,0,0,0,0,0.1s0,0.2-0.1,0.2c0,0,0,0,0,0.1c0-0.1,0.1-0.1,0.1-0.1s0,0,0-0.1l0,0l0,0
				c0,0,0,0,0-0.1l0,0c0-0.1,0-0.1,0.1-0.2c0,0.1,0,0.1,0,0.1c0.1-0.2,0.1-0.3,0.2-0.4v-0.1c0.1,0.3,0.2,0.7,0.1,1
				C28.3,12,28.2,12,28.2,12.1C28.2,12,28.2,12,28.2,12.1C28.2,12.1,28.2,12,28.2,12.1z"/>
			<path id="XMLID_5325_" class="st1" d="M26.9,14.7C26.9,14.7,26.9,14.8,26.9,14.7c0.1,0,0-0.1,0-0.1l0,0c0-0.1,0-0.1,0-0.2
				c0-0.1,0-0.2,0-0.2v0.1v-0.1c-0.1,0-0.2,0-0.3,0c0,0-0.1,0.1-0.1,0c0.1,0,0,0,0.1,0c-0.1,0-0.5,0.1-0.5,0l0,0h0.8v2.5h-0.1
				c0,0-0.1,0-0.1,0.1c-0.1,0-0.1,0-0.1-0.1h-0.1l0,0h-0.1l0,0h-0.1l0,0l0,0h-0.1l0,0l0,0c0,0.1,0,0.1,0,0.1l0,0V17l0,0l0,0v0.2
				h-1.5v-0.6H23l0,0c0,0,0,0,0,0.1l0,0V17c0,0,0,0,0,0.1l0,0v0.2c0,0,0,0,0,0.1h-0.1l0,0l0,0h-0.2l0,0l0,0h-0.1c-0.1,0-0.3,0-0.5,0
				l0,0H22c0,0,0,0-0.1,0s-0.2,0-0.3,0l0,0h-0.1l0,0l0,0h-0.2l0,0l0,0v-0.1v0.1l0,0c0,0,0,0-0.1,0c0-0.1,0-0.2,0-0.3
				c0-0.1,0-0.2,0-0.2c-0.1,0-0.1,0-0.2,0h0.1l0,0H21c0,0-0.1,0,0,0.1h-0.1v-0.1h-0.1V17c-0.1,0-0.2,0-0.3,0c0,0,0,0,0-0.1
				c0.1,0,0.1,0,0.2,0c0,0,0,0,0.1,0h-0.2l0,0c0,0,0,0-0.1,0h-0.1l0,0h0.1h-0.1c0,0,0,0,0-0.1h-0.5l0,0c-0.1,0-0.3,0-0.5,0
				c0-0.1,0-0.3,0-0.4s0-0.1,0-0.2v-0.1l0,0l0,0l0,0c0,0,0.1,0,0.1,0.1l0,0c0,0-0.1,0,0-0.1c0,0,0,0,0.1,0c0,0,0,0,0.1,0
				c0,0-0.1,0,0-0.1l0,0l0,0c0-0.1,0.1,0,0.1-0.1c0.2-0.1,0.4-0.3,0.5-0.4c0.1,0,0.1,0,0.1,0l0.1-0.1l0,0c0.1-0.2,0.2-0.4,0.3-0.7
				l0,0v-0.1v-0.1l0,0c0-0.1,0-0.2,0-0.3c0,0.1,0,0.1,0,0.1c0-0.1,0-0.2,0-0.2h0.1H21l0,0l0,0c0.1,0,0.3,0,0.4,0l0,0c0,0,0,0,0.1,0
				l0,0c0.1,0,0.1-0.1,0.3,0c0.1,0-0.1,0,0,0s0.3,0,0.4,0h-0.1h0.1l0,0c0.1,0,0.2,0,0.2-0.1l0.1,0.1h0.1c0,0,0-0.1,0.1-0.1
				c0.1,0.1,0.1,0,0.2,0l0,0c0.2,0,0,0,0.2,0c0-0.1,0.3,0,0.3-0.1c0,0.1,0.1,0,0.1,0.1c0.1,0,0.2,0,0.3,0c0.1,0.1,0.4-0.1,0.4,0.1
				c0.1,0,0.1-0.1,0.2-0.1l0,0c0.1,0,0.2-0.1,0.3-0.1c0.1,0,0.1,0.1,0.2,0.1l0,0c0.1,0,0,0.1-0.1,0.1H25l0,0c0.1,0,0,0,0,0
				c0.1-0.1,0.2,0,0.4-0.1c0,0-0.1,0,0,0s0.1,0,0.1,0h-0.1c0.1,0,0.1,0,0.2,0l0,0c0,0,0,0,0.1,0l0,0c0.1,0.1,0.2,0,0.3,0v0.1
				c0.2-0.1,0.3,0,0.5-0.1h-0.1c0.1,0,0.1,0,0.2,0s0.2,0,0.3,0c0,0.1,0,0.3,0,0.4C27,14.6,27,14.6,26.9,14.7C27,14.9,27,15,27,15.2
				c-0.1,0.1,0-0.1-0.1-0.2v-0.1V14.7z"/>
			<path id="XMLID_5324_" class="st1" d="M18.9,15.8L18.9,15.8C19,15.8,19,15.8,18.9,15.8c0,0.1-0.1,0-0.2,0.1v-0.1
				c0,0.1-0.1,0-0.1,0l0,0l0,0l0,0c-0.1,0-0.1,0.1-0.2,0l-0.1,0.1c0-0.1-0.1-0.1-0.1-0.1l0,0c0,0,0,0-0.1,0l0,0H18c0.1,0,0,0,0.1,0
				c0,0,0-0.1-0.1,0v-0.1c0,0.1-0.1,0-0.1,0c0-0.1-0.1,0-0.1-0.1l0,0l0,0l0,0l0,0l0,0c0,0,0,0,0-0.1c0,0-0.1-0.1-0.1,0v-0.1h-0.1
				c0,0,0,0,0-0.1c0,0,0,0-0.1,0l0,0c-0.1,0,0-0.1-0.1-0.1l0,0l0,0h0.1l0,0l0,0h-0.1h0.1c0,0-0.1,0-0.1-0.1l0.1-0.1l0,0
				c0,0,0,0,0-0.1l0,0c0,0,0,0,0-0.1l-0.1-0.1c0.1,0,0,0,0.1-0.1l0,0c0,0,0,0,0.1,0c0-0.1-0.1-0.1,0-0.1c-0.1-0.1-0.1,0.1-0.1,0l0,0
				c0-0.1,0-0.2,0-0.2l0,0v-0.1h0.1c0,0-0.1-0.1,0-0.1l0,0c0.1,0,0-0.1,0.1-0.1l0,0h-0.1c0.1-0.1,0.1,0,0.1-0.1l0,0
				c0.1-0.1,0-0.1,0-0.1l0,0c0,0,0-0.1,0.1,0l0,0c0,0,0,0,0-0.1h-0.1c0-0.1,0.2,0,0.1-0.1h0.1c0,0,0,0,0.1-0.1c0,0,0,0,0-0.1l0,0
				l0,0c0-0.1,0-0.1,0-0.2h0.1l0,0c0,0,0.1,0,0-0.1c-0.1,0,0-0.1,0,0h0.1c0,0,0.1,0,0.1,0.1l0,0c0,0,0-0.1,0,0c0-0.1-0.1,0-0.1-0.1
				c0,0,0,0,0.1,0V13c0.1,0,0-0.1,0.1-0.1c0,0.1,0,0-0.1,0.1c0,0,0,0,0,0.1l0,0h0.1l0.1-0.1l0,0c0,0,0,0.1-0.1,0.1c0,0,0,0,0-0.1
				l0,0l0,0l0,0c0-0.1,0.1,0,0.1-0.1l0,0c0.1,0,0.1,0,0.1-0.1c0,0.1,0.1,0,0.1,0.1v-0.1c0,0,0,0.1-0.1,0.1l0,0c0.1-0.1,0.1,0,0.2,0
				l0,0V13c0-0.1,0,0,0-0.1l0,0h0.1l0,0l0,0l0,0c0,0,0,0,0.1-0.1v0.1c0,0,0,0,0,0.1c0,0,0,0-0.1,0H19v-0.1h0.1l0,0
				c0,0,0.1,0,0.1,0.1l0.1-0.1l0,0c0,0-0.1,0-0.1,0.1c0.1,0,0.1,0,0.1,0l0,0c0,0,0.1-0.1,0.1,0v0.1l0,0l0,0c0,0,0.1,0.1,0.1,0.2
				c0,0,0.1,0,0-0.1c0,0,0,0.1,0.1,0.1l0,0l0,0c0-0.1,0.1,0,0.1,0c0,0.1,0.1,0.1,0.2,0.2l0,0c0.1,0.1,0.3,0.1,0.4,0.2c0,0,0,0-0.1,0
				v0.1h-0.1c0.1-0.1,0-0.1,0-0.1s-0.1,0-0.1,0.1c0-0.8-0.1-0.8,0-0.8l0,0c0,0,0,0,0-0.1h-0.1c-0.1-0.2-0.3-0.2-0.5-0.3
				c-0.1,0-0.1,0-0.1,0l0,0l0,0c0,0-0.1,0-0.2,0c0.6,0,1.2,0.5,1.4,1.1l0.1-0.1l0,0l-0.1,0.1c-0.1,0,0-0.1-0.1-0.1v0.1
				c0,0,0.1,0,0.1,0.1l0,0c0,0,0,0,0-0.1c0,0,0,0-0.1,0l0,0l0,0l0,0l0,0c0,0,0,0,0,0.1l0,0l0,0l0,0l0,0h0.1l0,0l0,0c0,0,0,0,0,0.1
				c0,0,0,0,0.1,0l0,0h-0.1c0,0.1,0,0,0,0.1c0,0,0,0-0.1-0.1V14c0,0,0,0-0.1,0c0,0,0,0,0,0.1c0,0.5-0.3,1-0.7,1.3l0,0l0,0
				c0,0-0.1,0-0.1,0.1l0,0l0,0l0,0c-0.1-0.1-0.1,0.1-0.2,0h-0.1c0,0,0,0-0.1,0l0,0l0,0l0,0l0,0L19,15.6
				C19.2,15.7,19.1,15.9,18.9,15.8L18.9,15.8C19,15.8,19,15.8,18.9,15.8z"/>
			<path id="XMLID_5323_" class="st1" d="M17.9,16.8c-0.1,0-0.1,0-0.1,0H17.9c-0.1-0.1-0.2,0-0.2,0s0.1,0,0,0.1
				c-0.2,0-0.2-0.1-0.3-0.1l-0.1-0.1H17c0,0,0,0.1-0.1,0l0,0h-0.1c-0.1,0-0.3,0.1-0.2,0.1l0,0c0,0,0,0.1-0.1,0v-0.1l0,0v0.1v0.1
				c0-0.1,0,0.1,0.1,0V17h-0.1l0,0v0.1c0,0.1,0.1-0.1,0.1,0s0,0-0.1,0.1l0.1,0.1c0,0.1,0,0.1,0,0.1c-0.1,0-0.1,0.1-0.4,0
				c0.1,0,0.1,0,0.3,0c-0.1,0-0.1,0-0.1-0.1c0,0,0,0,0.1,0l0,0l0,0h-0.1h-0.2c0,0-0.1,0-0.1,0.1l0,0H16h0.1c-0.1,0.1-0.2,0-0.2,0
				l0,0c-0.1,0-0.2,0-0.3,0c0-0.1-0.1,0-0.2-0.1c0.1,0,0,0.1,0,0.1c0.1,0,0.1-0.1,0.2,0c0,0-0.1,0,0,0c-0.2,0-0.2,0-0.4-0.1l0,0
				l-0.1-0.1c0,0.1,0,0-0.1,0.1l0,0h-0.2c-0.1,0,0.1,0,0,0h-0.1c0,0,0.1,0,0,0l0,0c0-0.1,0-0.1,0-0.3h0.1c0,0.1,0,0,0.1,0v0.1V17
				c0,0,0-0.1-0.1,0v-0.1c0,0.1,0,0.1,0,0.1v-0.1c0,0,0,0,0.1,0h-0.1l0,0l0,0c0,0,0,0,0.1,0l0,0l0,0c-0.1,0-0.1,0-0.2,0l0,0
				c-0.1,0-0.1,0.1-0.2,0v-0.1c0,0,0,0.1-0.1,0l0,0c-0.1,0-0.2-0.1-0.3-0.1c0,0-0.1,0,0,0.1c-0.1,0-0.1,0-0.1,0l0,0
				c-0.1,0-0.1,0-0.1,0c0,0.1-0.2,0-0.2,0.1h-0.1h-0.1c0,0.1,0,0.1,0,0.1l0,0c0,0.1,0,0.3,0.1,0.5c-0.1,0-0.3,0-0.4,0
				c-0.1,0-0.1,0-0.2,0h0.1c0,0-0.1,0-0.1-0.1c0.1,0,0-0.1,0.1-0.1c0,0.1,0.2,0,0.2,0.1v-0.1c0.1,0,0.1,0,0.2,0c0-0.1,0-0.1,0-0.2
				v0.1v-0.1L13.4,17c0-0.1,0-0.2,0-0.3c0.1,0,0.3,0,0.4,0c0.2,0,0.3,0,0.5,0c0.1,0,0.2,0,0.3,0l0,0l0,0c0.1,0,0.2,0,0.3,0l0,0l0,0
				h-1.6v0.6h-1.5v-0.2l-0.1,0.1v-0.1l0.1-0.1c0.1,0,0,0.1,0,0.2V17h-0.1l0,0l0,0c0.1,0,0,0,0.1,0l0,0c0,0,0,0,0.1,0l0,0l0,0l0,0
				l0,0l0,0h-0.1l0,0l0,0l0,0h-0.1l0,0c0,0,0.1,0,0,0h-0.1c0,0,0,0,0,0.1h-0.1V17c-0.1,0-0.1,0-0.2,0c0,0,0.1,0,0.1-0.1
				c-0.1,0-0.1,0-0.2,0l0,0H11v-2.5h0.8l0,0l0,0H12c0,0,0,0-0.1,0H12l0,0c0.1,0.1,0.2,0,0.3,0h0.2h0.1h0.2l0,0l0,0l0,0
				c0.1,0,0.2,0,0.2-0.1c0.1,0.1,0.3-0.1,0.5,0v0.1h0.2h-0.1c0-0.1,0.3,0,0.5-0.1c0.1,0,0,0.1,0.1,0.1c0-0.1,0.1,0,0.2,0l0,0l0,0
				h0.1c0.1-0.1,0.2-0.1,0.4,0l0.1-0.1c0.1,0,0.2,0,0.3,0l0,0h0.1l0,0c0.1,0,0.2-0.1,0.3,0c-0.1,0.1,0,0-0.1,0.1c0.1,0,0.1,0,0.2,0
				c0.1,0,0.1,0,0.1,0.1c0-0.1,0.1-0.1,0.1-0.1c0.1,0.1,0.2,0,0.3,0h-0.1c0.1,0,0.1,0,0.1,0l0,0l0,0l0,0h0.1c0,0,0.2,0,0.2-0.1
				c0,0,0.1,0,0.2,0v0.1c0,0.1,0,0.1,0,0.1s0,0.1,0.1,0.1c0,0.1,0,0.1,0,0.1s0,0.1,0.1,0.1v-0.1c0.1,0.1,0,0.2,0.1,0.3l0,0l0.1,0.1
				h-0.1l0,0l0,0c0,0,0,0,0,0.1h0.1h-0.1c0.1,0.1,0.1,0.1,0.2,0.2v0.1l0.1,0.1c0,0,0,0,0-0.1l0.1,0.1l0.2,0.1c-0.1,0,0.1,0.1,0,0.1
				c0.1,0,0.1,0.1,0.1,0c0,0.1-0.1,0-0.1,0c0.1,0.1,0.2,0,0.2,0.1c0.2,0-0.2-0.2,0-0.1v0.1c0.1,0,0.1,0,0.2,0.1c0.1,0,0.1,0,0.3,0
				l0,0c0,0,0,0,0.1,0h0.1c0,0.1,0,0.1,0,0.2h-0.1c0,0.1,0.1,0.2,0,0.2c0,0,0,0,0-0.1c0,0.1,0,0.1,0,0.1v0.1v0.1h0.1
				c0,0.1,0,0.1,0,0.1c-0.1,0-0.1,0-0.2-0.1c0,0,0,0,0,0.1C18,16.8,18.1,16.8,17.9,16.8L17.9,16.8z"/>
			<path id="XMLID_5322_" class="st1" d="M10.9,13.4L10.9,13.4C10.8,13.4,10.9,13.4,10.9,13.4S10.9,13.3,10.9,13.4
				C10.8,13.3,10.8,13.3,10.9,13.4c-0.1-0.1-0.1-0.1-0.1-0.1s0.1,0,0.1-0.1l0,0l0,0c0,0,0,0-0.1,0h-0.1l0,0c-0.1,0-0.2,0-0.3-0.1V13
				l-0.1-0.1c0,0,0,0,0,0.1l-0.1-0.1h-0.1H10c0.1,0-0.1-0.1,0-0.1c0,0,0-0.1-0.1-0.1c0-0.1,0.1,0.1,0.1,0s-0.2-0.1-0.1-0.2
				c-0.1-0.1,0.1,0.2-0.1,0.1v-0.1c-0.1-0.1-0.2-0.3-0.2-0.4l0,0c0-0.1,0-0.2-0.1-0.3h0.1c0-0.1-0.1-0.2,0-0.2v0.1v-0.1v-0.1
				c0,0,0,0,0-0.1s-0.1-0.1-0.1-0.1c0.1-0.1,0,0,0.1-0.1c0-0.1,0-0.1,0-0.1c0-0.1,0-0.1,0.1-0.2v-0.1l0,0v-0.1c0,0.1,0,0,0,0
				s0,0,0,0.1c0,0,0,0,0,0.1s0,0,0,0l0,0c0,0,0-0.1,0-0.2v-0.1l0,0c0.1,0.1,0.1,0.4,0.1,0.5s0,0.2,0.1,0.3c0,0,0,0.1,0,0.2l0,0
				c0,0.1,0.1,0.1,0.1,0.2h0.1l0,0c0,0,0,0,0,0.1c0.1,0,0.2,0.1,0.3,0.1c0,0,0.1,0.1,0,0.1c0,0,0,0-0.1,0l0,0c0,0,0,0,0.1,0h0.1
				c-0.1-0.1,0.1,0,0-0.1l0.1,0.1v0.1l0,0h0.1c0.1,0,0-0.1,0-0.1s0,0,0,0.1l0.1-0.1c0.1,0.1,0.1,0,0.2,0c-0.1,0-0.1,0-0.1,0v0.1
				c0,0,0,0-0.1,0v0.1c0.1,0,0.1,0,0.2,0c0,0,0.1,0,0.1-0.1l0,0h0.1h-0.1c0.1-0.1,0.1,0,0.2,0l0,0c0.1,0,0.1,0,0.2,0
				c0,0.1,0.1,0,0.2,0.1c-0.1,0,0-0.1,0-0.1c-0.1,0-0.1,0.1-0.1,0c0,0,0.1,0,0,0c0.2,0,0.2,0,0.3,0.1l0,0l0.1,0.1c0-0.1,0,0,0.1-0.1
				l0,0c0.1,0,0.1,0,0.1,0c0.1,0,0,0,0,0h0.1l0,0c0,0,0.1,0,0.2,0v0.1c-0.1,0,0,0,0,0.1h-0.1h0.2c0,0,0.1,0,0-0.1h0.1
				c-0.1,0-0.1,0-0.1,0s0.2,0,0.1,0.1c0.1,0,0.1-0.1,0.2-0.1H13c0,0-0.2,0-0.1,0.1c0.1,0,0.2,0,0.3,0l0,0c0.1,0,0.1-0.1,0.2,0v0.1
				c0,0,0-0.1,0.1,0l0,0c0.1,0,0.2,0.1,0.3,0.1c0,0,0.1,0,0-0.1c0.1,0,0.1,0,0.1,0l0,0H14c0-0.1,0.2,0,0.2-0.1
				c0.1,0.1,0.3,0.1,0.5,0l0,0c0.3,0,0.6-0.1,0.7-0.1h-0.1c0,0,0.1,0,0.1,0.1c-0.1,0,0,0.1-0.1,0.1c0-0.1-0.2,0-0.2-0.1v0.1
				c-0.1,0-0.2,0-0.3,0c0,0,0,0,0.1,0h-0.1l-0.1,0.1c-0.4,0-0.8,0-1.1,0c-0.1,0-0.2,0-0.3,0s-0.2,0-0.3,0h3.6c0,0-0.1-0.1,0-0.1h0.1
				c0,0,0,0.1,0.1,0.1c0,0.1-0.1,0-0.1,0h0.2c0,0,0.1-0.1,0.2-0.1h0.1c0,0,0,0-0.1,0s-0.1,0-0.1,0.1l0,0l0,0l0,0l0,0h0.1l0,0l0,0
				l0,0h0.1l0,0l0,0h0.1l0,0c0,0,0,0,0-0.1h0.1v0.1l0,0l0.1-0.1v0.1l0,0l0,0l0,0c0,0,0,0-0.1,0h0.1l0,0h0.1l0,0l0,0h-0.1
				c-0.2,0.1-0.7,0.5-0.8,1.2h-1.4l0,0l0,0h-0.2l0,0H15l0,0c-0.1-0.1-0.2,0-0.3,0h-0.2c0,0,0,0-0.1,0h-0.2l0,0l0,0l0,0
				c-0.1,0-0.1,0-0.2,0.1c-0.1-0.1-0.3,0.1-0.5,0v-0.1h-0.1h0.1c0,0.1-0.3,0-0.4,0.1c0,0,0-0.1-0.1-0.1c0,0.1-0.1,0-0.2,0l0,0l0,0
				h-0.1c-0.1,0.1-0.2,0.1-0.3,0L12.3,14c-0.1,0-0.2,0-0.2,0l0,0H12l0,0c-0.1,0-0.2,0.1-0.2,0c0.1-0.1,0,0,0.1-0.1
				c-0.1,0-0.1,0-0.2,0c-0.1,0-0.1,0-0.1-0.1c0,0.1-0.1,0.1-0.1,0.1c-0.1-0.1-0.2,0-0.3,0l0,0c0,0,0,0-0.1,0l0,0H11l0,0h-0.1
				c0,0-0.2,0-0.3,0.1h-0.1l0.1-0.1C10.8,13.6,10.7,13.6,10.9,13.4C10.8,13.5,10.8,13.5,10.9,13.4L10.9,13.4L10.9,13.4L10.9,13.4z"
				/>
			<path id="XMLID_5321_" class="st1" d="M14.3,11.9L14.3,11.9c0.2-0.1,0.7-0.6,0.3-1.5c0,0-0.5-0.8-0.1-1.3c0,0,0,0.4,0.3,0.7l0,0
				l0,0C15,9.9,15,10,15.1,10l0,0c0,0,0,0,0.1,0l0,0l0,0l0,0c0.1,0.1,0.2,0,0.3,0.2c0.1,0,0.2,0,0.3,0.1h0.1c0.1,0,0.1,0,0.2,0l0,0
				l0,0l0,0c0.1,0,0.2,0,0.3,0c0.2,0.1,0.4,0,0.6,0.1v0.1c0.1,0,0.1,0,0.2,0c-0.1,0-0.1,0-0.1,0c0.1-0.1,0.4,0.1,0.5,0
				c0.1,0,0,0.1,0.1,0.1c0-0.1,0.1,0,0.2,0c0,0,0,0-0.1,0l0,0h0.1c0.1-0.1,0.3-0.1,0.4,0l0.1-0.1c0.1,0,0.2,0,0.3,0.1l0,0h0.1l0,0
				c0.1,0,0.2-0.1,0.3,0c-0.1,0.1,0,0-0.1,0.1c0.1,0,0.1,0,0.2,0s0.1,0,0.1,0.1c0-0.1,0.1-0.1,0.1-0.1c0.1,0.1,0.2-0.1,0.3,0h-0.1
				c0.1,0,0.1,0,0.1,0l0,0h0.1l0,0h0.1c0,0,0.2,0,0.2-0.1c0,0.1,0.2,0,0.2,0.1c0.1,0,0.1-0.1,0.2-0.1s0.1,0,0.2,0h0.1h-0.1
				c0.2,0,0.2,0,0.4,0c0,0,0.1,0,0,0h0.1c0,0,0,0.1-0.1,0.1l0,0l0,0h0.1l0.1-0.1v0.1c0.1,0,0.2-0.1,0.3-0.1l0.1,0.1
				c0.1,0,0.1,0,0.2,0c0,0,0,0-0.1,0c0,0,0.1,0,0.2,0c0,0,0.2-0.1,0.2-0.2c0,0.1,0.1,0,0.1,0c0.1,0,0.1,0,0.1-0.1
				c0.1,0-0.1,0.1,0,0.1s0.1-0.1,0.1-0.1l0,0c0,0,0-0.1,0.1,0c0-0.1-0.1,0-0.1,0l0,0c0,0-0.1,0,0,0l0,0l0,0h0.1l0.1-0.1l0.1-0.1
				c0,0,0-0.1,0-0.2c0-0.1,0-0.2,0.1-0.3v0.1l0,0l0,0v0.1c0,0.1,0,0,0,0l0,0l0,0c0,0,0,0,0,0.1v0.1c0,0.1,0.1,0.1,0,0.2
				c0-0.1,0-0.1,0-0.1c0,0.1,0,0.1,0,0.2v0.1v0.1l0.1-0.1c0,0.1,0,0.2,0,0.2s0,0.1-0.1,0.1c0,0,0,0,0.1,0.1c-0.1,0.2,0,0.2,0,0.3
				l0,0c-0.1,0.1,0,0.1-0.1,0.1v-0.1c0,0,0,0.1,0,0.2c0,0,0.1-0.1,0.1,0c0,0.2-0.2,0.2-0.1,0.3c0,0,0,0.1-0.1,0.2
				c0,0.1,0,0.1,0.1,0.2c0,0,0.1,0,0.1,0.1l0,0c0,0,0,0.1,0.1,0.1l0,0c0.1,0.1,0.2,0.2,0.3,0.3c0,0,0,0,0,0.1c-0.1,0-0.2,0-0.2-0.1
				h0.1l0,0h-0.1l0,0c0.2,0-0.1,0,0.1,0.1c-0.1,0-0.2,0-0.2,0v-0.1l0,0H23c-0.1,0,0.1,0.1,0,0.1s0,0-0.1-0.1l-0.1,0.1
				c-0.2-0.1-0.2,0.1-0.3,0c0.1,0,0.1,0,0.2,0c0,0-0.1,0,0-0.1c0,0,0,0,0.1,0l-0.1-0.1h-0.3c0,0-0.2,0-0.2,0.1l0,0h-0.1h0.1
				c-0.1,0.1-0.2,0-0.2,0l0,0c-0.1,0-0.2,0-0.3,0c0-0.1-0.1,0-0.2-0.1c0.1,0,0,0.1,0,0.1c0.1,0,0.1-0.1,0.2,0c0,0-0.1,0,0,0
				c-0.2,0-0.3,0-0.4-0.1l0,0L21.2,12c0,0.1-0.1,0-0.1,0.1l0,0c-0.1,0-0.1,0-0.2,0s0,0,0,0h-0.1c-0.1,0,0,0,0,0c-0.1,0-0.1,0-0.2,0
				V12c0.1,0,0,0,0-0.1h0.1h-0.3c0,0-0.1,0,0,0.1h-0.1c0.1,0,0.1,0,0.1,0s-0.2,0-0.2-0.1C20.1,11.9,20,12,20,12h-0.1
				c0.1,0,0.2,0,0.2-0.1c-0.1,0-0.2,0-0.4,0l0,0c-0.1,0-0.1,0.1-0.3,0c0,0,0-0.1-0.1-0.1c0,0,0,0.1-0.1,0c0,0,0,0,0.1,0
				c-0.1,0-0.2-0.1-0.3-0.1c0,0-0.1,0,0,0.1c-0.1,0-0.1,0-0.2,0l0,0c-0.1,0-0.1,0-0.1,0c0,0.1-0.3,0-0.2,0.1C18.4,12,18.2,12,18,12
				l0,0c-0.3,0-0.7,0.1-0.9,0.1h0.1c0,0-0.2,0-0.2-0.1c0.1,0,0-0.1,0.1-0.1c0,0.1,0.2,0,0.2,0.1v-0.1c0.1,0,0.3,0,0.4,0h-0.1h0.1
				l0.1-0.1c0.5,0,1,0,1.5,0c0.1,0,0.2,0,0.4,0c0.1,0,0.3,0,0.4,0h-4.6c0.1,0,0.1,0.1,0.1,0.1h-0.1c0,0-0.1-0.1-0.2-0.1
				c0-0.1,0.2,0,0.2,0h-0.2c0,0-0.1,0.1-0.2,0.1L15,12c0.1,0,0.1,0,0.1,0c0.1,0,0.1,0,0.1-0.1l0,0l0,0l0,0l0,0H15l0,0l0,0l0,0h-0.1
				h-0.1c0,0,0.1,0,0,0h-0.1c0,0,0,0,0,0.1h-0.1v-0.1h-0.1L14.4,12l0.1-0.1l0,0l0,0l0,0l0,0C14.4,12,14.4,12,14.3,11.9
				c0.1,0,0.1,0,0.1,0H14.3L14.3,11.9L14.3,11.9z"/>
		</g>
	</g>
</g>
</svg>
