<?xml version="1.0" encoding="utf-8"?>
<!-- Generator: Adobe Illustrator 22.0.1, SVG Export Plug-In . SVG Version: 6.00 Build 0)  -->
<svg version="1.1" id="圖層_1" xmlns="http://www.w3.org/2000/svg" xmlns:xlink="http://www.w3.org/1999/xlink" x="0px" y="0px"
	 viewBox="0 0 375 667" style="enable-background:new 0 0 375 667;" xml:space="preserve">
<style type="text/css">
	.st0{clip-path:url(#SVGID_2_);fill:url(#XMLID_209_);}
	.st1{fill:#0A418C;}
	.st2{fill:#FFFFFF;}
	.st3{fill:#113272;}
	.st4{clip-path:url(#SVGID_4_);}
	.st5{fill:#0FAA69;}
	.st6{clip-path:url(#SVGID_6_);fill:url(#XMLID_210_);}
</style>
<g>
	<defs>
		<rect id="SVGID_1_" y="855" width="768" height="925.1"/>
	</defs>
	<clipPath id="SVGID_2_">
		<use xlink:href="#SVGID_1_"  style="overflow:visible;"/>
	</clipPath>
	<linearGradient id="XMLID_209_" gradientUnits="userSpaceOnUse" x1="385.5705" y1="1906.9781" x2="388.9592" y2="805.6565">
		<stop  offset="5.036036e-02" style="stop-color:#FFFFFF"/>
		<stop  offset="8.220573e-02" style="stop-color:#E2F5ED"/>
		<stop  offset="0.1498" style="stop-color:#AAE2CA"/>
		<stop  offset="0.2178" style="stop-color:#7AD1AC"/>
		<stop  offset="0.2848" style="stop-color:#53C493"/>
		<stop  offset="0.3504" style="stop-color:#34B980"/>
		<stop  offset="0.4145" style="stop-color:#1FB272"/>
		<stop  offset="0.4761" style="stop-color:#11AE6A"/>
		<stop  offset="0.5326" style="stop-color:#0DAC67"/>
		<stop  offset="0.6266" style="stop-color:#10AD69"/>
		<stop  offset="0.689" style="stop-color:#19B06E"/>
		<stop  offset="0.7423" style="stop-color:#28B578"/>
		<stop  offset="0.7904" style="stop-color:#3DBC85"/>
		<stop  offset="0.835" style="stop-color:#59C696"/>
		<stop  offset="0.8771" style="stop-color:#7AD2AC"/>
		<stop  offset="0.9172" style="stop-color:#A3DFC5"/>
		<stop  offset="0.9547" style="stop-color:#D0EFE2"/>
		<stop  offset="0.9878" style="stop-color:#FFFFFF"/>
	</linearGradient>
	<path id="XMLID_302_" class="st0" d="M232,1017.2c-5.1-7.3-7.8-15.8-7.8-24.7l0-93.1l219.3-153.5l48.5,69.2
		c8.2,11.7,20.5,19.5,34.6,22c14.1,2.5,28.3-0.7,40-8.9l431.2-301.9c9.4-6.6,20.8-9.1,32.1-7.1c11.3,2,21.1,8.3,27.7,17.6l10.8,15.4
		l-77,53.9c-24.2,16.9-30.1,50.4-13.1,74.6l54.6,77.9c13.6,19.4,8.8,46.2-10.5,59.8L955.7,865c-24.2,16.9-30.1,50.4-13.1,74.6
		l80.7,115.1H258.1L232,1017.2z M535.5,1207.6v68.4h-65.3v-68.4H535.5z M470.2,1197v-90.7h22.3c23.7,0,42.9,19.2,42.9,42.9v47.8
		H470.2z M535.5,1286.7v74.8h-65.3v-74.8H535.5z M535.5,1372.1v38.4h-65.3v-38.4H535.5z M535.5,1421.1v92c0,7-5.7,12.8-12.8,12.8
		h-52.5v-104.8H535.5z M522.7,1536.5c12.9,0,23.4-10.5,23.4-23.4v-92H569v76.2l-75.3,108.5l-23.5-33.7v-35.5H522.7z M569,1286.7
		v74.8h-22.9v-74.8H569z M546.1,1276v-68.4h33.7c-7,9.2-10.9,20.5-10.9,32.3v36.1H546.1z M569,1372.1v38.4h-22.9v-38.4H569z
		 M602.2,1467.9l109.9,156.9l-102.7-33.3l-46.7-66.7L602.2,1467.9z M579.6,1481.9v-60.8h42.2L579.6,1481.9z M579.6,1410.4v-38.4
		h76.2l-26.6,38.4H579.6z M579.6,1361.4v-74.8h135.4l-51.9,74.8H579.6z M579.6,1276v-36.1c0-12.5,5.4-24.2,14.7-32.3h151v53
		l-16.1,11.4c-1.7,1.2-3.4,2.6-4.9,4H579.6z M609,1197l136.2-95.4v95.4H609z M591.8,1196.1c-0.4,0.3-0.8,0.6-1.2,0.9h-44.5v-47.8
		c0-29.5-24-53.5-53.5-53.5h-22.3v-26.6h303L591.8,1196.1z M100.2,1402.8c9,12.8,18.8,26.9,28.6,41l-178.2,124.8l-114.7-163.9
		c-5.1-7.3-7.8-15.8-7.8-24.6v-204.9H49l93.1,133.1l-28.7,20.1C89.3,1345.3,83.3,1378.7,100.2,1402.8z M108.9,1396.8
		c-13.5-19.4-8.8-46.1,10.6-59.7l72.1-50.5H279v31.9c0,29.5,24,53.5,53.5,53.5h11.9l18.3,26.2c10,14.3,26.4,22.8,43.9,22.8h36v92
		c0,10.7,7.2,19.7,17,22.5v21.1l-59.9-86c-10-14.4-25.1-24-42.4-27.1c-17.3-3.1-34.7,0.8-49.1,10.9l-71.4,50.2
		c-9.4,6.6-20.8,9.1-32.1,7.1c-11.3-2-21.2-8.3-27.7-17.7C157.2,1466,130.6,1427.7,108.9,1396.8z M206.7,1276l72.2-50.6v50.6H206.7z
		 M314.7,1135l-20.2-28.7h32.6V1276h-37.5v-58l12-8.4c11.7-8.2,19.5-20.5,22-34.6C326.1,1160.9,322.9,1146.7,314.7,1135z
		 M287.1,1095.6l-18.7-26.6h58.7v26.6H287.1z M442.6,1286.7v74.8H332.5c-23.7,0-42.9-19.2-42.9-42.9v-31.9H442.6z M393,1106.3v90.7
		h-55.3v-90.7H393z M337.7,1095.6v-26.6H393v26.6H337.7z M393,1207.6v68.4h-55.3v-68.4H393z M442.6,1106.3v90.7h-39v-90.7H442.6z
		 M403.7,1095.6v-26.6h39v26.6H403.7z M442.6,1207.6v68.4h-39v-68.4H442.6z M442.6,1372.1v38.4h-36c-14,0-27.1-6.8-35.1-18.3
		l-14-20.1H442.6z M453.3,1513.1v-92h6.3v103.1C455.8,1521.9,453.3,1517.8,453.3,1513.1z M453.3,1410.4v-38.4h6.3v38.4H453.3z
		 M453.3,1361.4v-74.8h6.3v74.8H453.3z M453.3,1276v-68.4h6.3v68.4H453.3z M453.3,1197v-90.7h6.3v90.7H453.3z M453.3,1095.6v-26.6
		h6.3v26.6H453.3z M255.4,1069.1l50.6,72c6.6,9.4,9.1,20.8,7.1,32.1s-8.3,21.1-17.6,27.7l-144.6,101.3l-163.1-233.1H255.4z
		 M-310.5,1164.6l-64.7-95.5h349.9l66.8,95.5H-310.5z M-201.2,1674.9c-0.6-1-1.2-2-1.9-3l-97.1-138.7c-5.1-7.3-7.8-15.8-7.8-24.6
		v-333.4h125.5v204.9c0,11,3.3,21.7,9.7,30.7l114.7,163.9L-201.2,1674.9z M265.7,1844.2H107.5c-23.7,0-42.9-19.2-42.9-42.9v-65.4
		l198.9-139.3c9.4-6.6,20.8-9.1,32.1-7.1c11.3,2,21.1,8.3,27.7,17.7l67.6,97c13.5,19.4,8.7,46.1-10.6,59.7L265.7,1844.2z
		 M437.4,1844.2H284.2l102.2-71.7c24.1-16.9,30-50.3,13.2-74.4l-67.6-97c-8.2-11.8-20.5-19.6-34.6-22.1c-14.1-2.5-28.3,0.6-40.1,8.9
		L60.6,1725.7l-103.9-148.4l178.2-124.8c11.8,17,23.5,33.6,33.3,47.7c8.2,11.8,20.5,19.6,34.6,22.1c14.1,2.5,28.3-0.7,40.1-8.9
		l71.4-50.2c12-8.5,26.7-11.7,41.2-9.1c14.5,2.6,27.1,10.6,35.5,22.7l150.7,216.3c17.3,24.8,11.2,59-13.5,76.4l-71.8,50.4
		C447.5,1826.2,441.1,1834.7,437.4,1844.2z M603.5,1844.2H449c3.1-6,7.6-11.4,13.5-15.5l71.8-50.4c18-12.6,27.6-32.7,27.8-53.2h41.4
		V1844.2z M667.5,1910.8l-53.3,37.9v-96.4l53.3-37.5V1910.8z M667.5,1801.8l-53.3,37.5V1725h53.3V1801.8z M667.5,1714.4H561.4
		c-1.5-9.6-5.1-18.9-11-27.4l-50.2-72.1l56.1-80.8L659.7,1682c5.1,7.2,7.8,15.8,7.8,24.6V1714.4z M768.9,1816.6
		c0,13.9-6.7,26.9-18.1,35l-72.7,51.7v-95.9l90.7-63.7V1816.6z M768.9,1730.6l-90.7,63.7v-87.7c0-11-3.3-21.7-9.7-30.7l-48.9-69.9
		l102.7,33.3l38.9,55.5c5.1,7.2,7.8,15.8,7.8,24.6V1730.6z M779.5,1723.1v-3.7c0-11-3.3-21.7-9.7-30.7l-30.8-44l104.1,33.7
		L779.5,1723.1z M853.9,1670.8l-125-40.5l-120.2-171.7l26-37.5h71.5c14,0,27.1,6.8,35.1,18.3l121.3,172.9
		C875.9,1631.1,871.9,1656.8,853.9,1670.8z M1003.3,1543.7v175.4l-137.7-44.6c17.9-18,20.9-46.9,5.8-68.4l-121.3-172.9
		c-10-14.3-26.4-22.8-43.9-22.8h-64.1l82.5-119c2.9-4.2,6.5-7.8,10.7-10.7l143.5-102.1c7.2-5.1,15.8-7.8,24.6-7.8h221.8v119.2
		c0,11,3.3,21.7,9.7,30.7l48.4,69.1l-157.2,110.1C1011.9,1509.9,1003.3,1526.3,1003.3,1543.7z M1185.4,1401.3v285.3l-37.4,26.2
		c-11,7.7-25.1,9.8-37.8,5.7l-96.2-31.2v-143.6c0-14,6.8-27.1,18.3-35.1L1185.4,1401.3z M1356.2,1636.8L1181.7,1759
		c-11,7.7-25.1,9.8-37.8,5.7l-129.9-42.1v-24l92.9,30.1c5.3,1.7,10.9,2.6,16.4,2.6c10.9,0,21.7-3.3,30.8-9.7l175.5-122.9
		L1356.2,1636.8z M1323.5,1590l-127.4,89.2V1408L1323.5,1590z M1190.1,1381l-46.4-66.3c-5.1-7.3-7.8-15.8-7.8-24.6v-119
		c12.3,1.3,23.5,7.8,30.7,18l71.5,102.1L1190.1,1381z M1261.9,1246.6l-1.5,2.7l-16.7,31.3l-68.4-97.6c-10-14.3-26.4-22.8-43.9-22.8
		h-228c-11,0-21.7,3.3-30.7,9.7L755.9,1253v-158.9l35.8-25.1h565L1261.9,1246.6z M1406.8,975.4l-42.3,79.2H1036l-84.8-121.2
		c-13.6-19.4-8.8-46.2,10.5-59.8l66.5-46.5c24.2-16.9,30.1-50.4,13.1-74.6l-54.6-77.9c-13.6-19.4-8.8-46.2,10.5-59.8l77-53.9
		l16.4,23.4c7.4,10.6,22,13.1,32.6,5.7l40-28c5.8-4,13.7-2.6,17.8,3.1l225.7,321.2l0-18.5l-217-308.8c-7.4-10.5-22-13.1-32.6-5.7
		l-40,28c-5.8,4-13.7,2.6-17.8-3.1l-33.3-47.5c-8.2-11.7-20.5-19.5-34.6-22c-14.1-2.5-28.3,0.7-40,8.9L560.4,819.6
		c-9.4,6.6-20.8,9.1-32.1,7.1c-11.3-2-21.1-8.3-27.7-17.6l-48.5-69.2l116.5-81.5c14.3-10,22.8-26.4,22.8-43.9V68.6l113.4,35.2
		c5.1,1.6,10.5,2.4,15.8,2.4c10.9,0,21.8-3.3,30.9-9.7L978.9-63.1h-18.6L745.4,87.8c-10.8,7.6-24.8,9.8-37.4,5.9L203.7-63.1h-36.1
		L580.8,65.3v549.1c0,14-6.8,27.1-18.3,35.1L224.2,886.5l0-241.8c0-29.5-24-53.5-53.5-53.5l-218,0c-14,0-27.1-6.8-35.1-18.3
		l-357.1-510l-8.7,6.1l357.1,510c10,14.3,26.4,22.8,43.9,22.8l218,0c23.7,0,42.9,19.2,42.9,42.9l0,249.3L81.1,986.7
		c-19.4,13.6-46.2,8.8-59.8-10.5l-488.5-698c-8.2-11.7-20.5-19.5-34.6-22c-14.1-2.5-28.3,0.7-40,8.9l-88.4,61.9l6.1,8.7l88.4-61.9
		c9.4-6.6,20.8-9.1,32.1-7.1c11.3,2,21.1,8.3,27.7,17.7l283.9,405.7l-134.8,94.4c-32.6,22.9-77.8,14.9-100.7-17.7l-199.7-285.4
		l0,18.7l191,272.8c16.1,23,41.9,35.3,68,35.3c16.4,0,33-4.9,47.4-15l134.8-94.4L12.6,982.3c10.4,14.9,27,22.8,43.9,22.8
		c10.6,0,21.3-3.1,30.6-9.7l126.4-88.5l0,85.6c0,11.1,3.4,21.7,9.7,30.8l22.2,31.3h-674c-12.1,0-23.8,3.7-33.8,10.6l-164.8,115.4
		v19.5l177-124.4c6.3-4.4,13.8-6.8,21.6-6.8h40.5l69.4,102.5v337.1c0,11,3.3,21.7,9.7,30.7l97.1,138.7c13.6,19.4,8.8,46.2-10.5,59.8
		l-332.8,233.1h18.5l320.4-224.3c20.2-14.1,27.6-39.7,19.7-61.8L-52,1583.4l106,151.4v66.5c0,29.5,24,53.5,53.5,53.5h143l-165.4,116
		h18.4l165.5-116h165.4c-2.3,13.4,0.5,27.7,8.9,39.6l53.5,76.3h13l-57.7-82.4c-7.1-10.1-9.1-22.3-6.7-33.5h158.3v101.4l-20.5,14.6
		l18.4,0L757,1860.3c14.1-10,22.5-26.3,22.5-43.6v-80.5l76.3-53.6l147.5,47.8v78.2c0,14-6.8,27.1-18.3,35.1l-181.6,127.1l18.6,0
		l169.1-118.4c14.3-10,22.8-26.4,22.8-43.9v-74.7l126.6,41c5.3,1.7,10.9,2.6,16.4,2.6c10.9,0,21.7-3.3,30.8-9.7l174.5-122.2
		l44.4,63.3v-18.4l-32.9-47h32.9v-10.6h-40.4l-169.5-242l70.3-131.6l139.5-96v-18l-125.6,88l87.7-164.1h38l0-14.4h-30.3l30.3-56.7
		L1406.8,975.4z"/>
</g>
<g>
	<defs>
		<rect id="SVGID_5_" width="375" height="667"/>
	</defs>
	<clipPath id="SVGID_4_">
		<use xlink:href="#SVGID_5_"  style="overflow:visible;"/>
	</clipPath>
	<linearGradient id="XMLID_210_" gradientUnits="userSpaceOnUse" x1="188.4999" y1="678.4515" x2="190.6573" y2="-22.7075">
		<stop  offset="5.036036e-02" style="stop-color:#FFFFFF"/>
		<stop  offset="8.220573e-02" style="stop-color:#E2F5ED"/>
		<stop  offset="0.1498" style="stop-color:#AAE2CA"/>
		<stop  offset="0.2178" style="stop-color:#7AD1AC"/>
		<stop  offset="0.2848" style="stop-color:#53C493"/>
		<stop  offset="0.3504" style="stop-color:#34B980"/>
		<stop  offset="0.4145" style="stop-color:#1FB272"/>
		<stop  offset="0.4761" style="stop-color:#11AE6A"/>
		<stop  offset="0.5326" style="stop-color:#0DAC67"/>
		<stop  offset="0.6266" style="stop-color:#10AD69"/>
		<stop  offset="0.689" style="stop-color:#19B06E"/>
		<stop  offset="0.7423" style="stop-color:#28B578"/>
		<stop  offset="0.7904" style="stop-color:#3DBC85"/>
		<stop  offset="0.835" style="stop-color:#59C696"/>
		<stop  offset="0.8771" style="stop-color:#7AD2AC"/>
		<stop  offset="0.9172" style="stop-color:#A3DFC5"/>
		<stop  offset="0.9547" style="stop-color:#D0EFE2"/>
		<stop  offset="0.9878" style="stop-color:#FFFFFF"/>
	</linearGradient>
	<path id="XMLID_107_" style="clip-path:url(#SVGID_4_);fill:url(#XMLID_210_);" d="M90.7,112c-3.2-4.6-5-10.1-5-15.7l0-59.3
		l139.6-97.8l30.9,44.1c5.2,7.5,13,12.4,22,14s18-0.4,25.5-5.6l274.5-192.2c6-4.2,13.2-5.8,20.4-4.5c7.2,1.3,13.4,5.3,17.6,11.2
		l6.9,9.8l-49,34.3c-15.4,10.8-19.1,32.1-8.4,47.5l34.7,49.6c8.6,12.3,5.6,29.4-6.7,38l-42.3,29.6c-15.4,10.8-19.1,32.1-8.4,47.5
		l51.4,73.3H107.3L90.7,112z M283.9,233.2v43.5h-41.5v-43.5H283.9z M242.4,226.4v-57.8h14.2c15.1,0,27.3,12.3,27.3,27.3v30.4H242.4z
		 M283.9,283.5v47.6h-41.5v-47.6H283.9z M283.9,337.9v24.4h-41.5v-24.4H283.9z M283.9,369.1v58.6c0,4.5-3.6,8.1-8.1,8.1h-33.4v-66.7
		H283.9z M275.8,442.6c8.2,0,14.9-6.7,14.9-14.9v-58.6h14.6v48.5l-47.9,69.1l-15-21.5v-22.6H275.8z M305.3,283.5v47.6h-14.6v-47.6
		H305.3z M290.7,276.8v-43.5h21.5c-4.4,5.9-6.9,13.1-6.9,20.6v23H290.7z M305.3,337.9v24.4h-14.6v-24.4H305.3z M326.4,398.9l70,99.9
		L331,477.7l-29.7-42.5L326.4,398.9z M312,407.8v-38.7h26.9L312,407.8z M312,362.3v-24.4h48.5l-16.9,24.4H312z M312,331.1v-47.6
		h86.2l-33,47.6H312z M312,276.8v-23c0-7.9,3.5-15.4,9.4-20.6h96.1v33.7l-10.2,7.3c-1.1,0.8-2.1,1.6-3.1,2.5H312z M330.8,226.4
		l86.7-60.7v60.7H330.8z M319.8,225.9c-0.3,0.2-0.5,0.4-0.8,0.6h-28.3V196c0-18.8-15.3-34.1-34.1-34.1h-14.2V145h192.9L319.8,225.9z
		 M6.8,357.5c5.7,8.2,12,17.1,18.2,26.1L-88.4,463l-73-104.3c-3.2-4.6-4.9-10-4.9-15.7V212.6h140.6l59.3,84.7l-18.3,12.8
		C-0.2,320.9-3.9,342.1,6.8,357.5z M12.4,353.6c-8.6-12.3-5.6-29.4,6.7-38L65,283.5h55.7v20.3c0,18.8,15.3,34.1,34.1,34.1h7.6
		l11.7,16.7c6.4,9.1,16.8,14.5,27.9,14.5h22.9v58.6c0,6.8,4.6,12.5,10.8,14.3v13.5l-38.1-54.7c-6.4-9.2-16-15.3-27-17.2
		c-11-1.9-22.1,0.5-31.3,6.9l-45.5,31.9c-6,4.2-13.2,5.8-20.4,4.5c-7.2-1.3-13.5-5.3-17.6-11.3C43.1,397.7,26.1,373.3,12.4,353.6z
		 M74.6,276.8l46-32.2v32.2H74.6z M143.4,187l-12.8-18.3h20.7v108.1h-23.9v-36.9l7.6-5.3c7.5-5.2,12.4-13,14-22
		C150.6,203.5,148.6,194.4,143.4,187z M125.8,161.9L113.9,145h37.4v16.9H125.8z M224.8,283.5v47.6h-70.1
		c-15.1,0-27.3-12.3-27.3-27.3v-20.3H224.8z M193.2,168.7v57.8H158v-57.8H193.2z M158,161.9V145h35.2v16.9H158z M193.2,233.2v43.5
		H158v-43.5H193.2z M224.8,168.7v57.8H200v-57.8H224.8z M200,161.9V145h24.8v16.9H200z M224.8,233.2v43.5H200v-43.5H224.8z
		 M224.8,337.9v24.4h-22.9c-8.9,0-17.3-4.4-22.4-11.6l-8.9-12.8H224.8z M231.6,427.7v-58.6h4v65.6
		C233.2,433.3,231.6,430.7,231.6,427.7z M231.6,362.3v-24.4h4v24.4H231.6z M231.6,331.1v-47.6h4v47.6H231.6z M231.6,276.8v-43.5h4
		v43.5H231.6z M231.6,226.4v-57.8h4v57.8H231.6z M231.6,161.9V145h4v16.9H231.6z M105.6,145l32.2,45.9c4.2,6,5.8,13.2,4.6,20.4
		s-5.3,13.5-11.2,17.7l-92.1,64.5L-64.8,145H105.6z M-254.6,205.8l-41.2-60.8h222.8l42.6,60.8H-254.6z M-185,530.7
		c-0.4-0.6-0.8-1.3-1.2-1.9l-61.8-88.3c-3.2-4.6-4.9-10-4.9-15.7V212.6h79.9V343c0,7,2.1,13.8,6.2,19.5l73,104.3L-185,530.7z
		 M112.2,638.5H11.5c-15.1,0-27.3-12.3-27.3-27.3v-41.7l126.6-88.7c6-4.2,13.2-5.8,20.4-4.5c7.2,1.3,13.5,5.3,17.6,11.3l43,61.7
		c8.6,12.3,5.6,29.4-6.7,38L112.2,638.5z M221.5,638.5H124l65.1-45.6c15.3-10.8,19.1-32,8.4-47.4l-43-61.7c-5.2-7.5-13-12.5-22-14.1
		c-9-1.6-18,0.4-25.5,5.6L-18.4,563l-66.1-94.5l113.4-79.4c7.5,10.8,14.9,21.4,21.2,30.4c5.2,7.5,13,12.5,22,14.1
		c9,1.6,18-0.4,25.5-5.7l45.5-31.9c7.7-5.4,17-7.5,26.2-5.8c9.2,1.6,17.3,6.8,22.6,14.5l95.9,137.7c11,15.8,7.1,37.6-8.6,48.6
		L233.6,623C227.9,627,223.8,632.5,221.5,638.5z M327.3,638.5h-98.4c2-3.8,4.8-7.3,8.6-9.9l45.7-32.1c11.4-8,17.6-20.8,17.7-33.9
		h26.4V638.5z M368,680.9L334,705v-61.4l34-23.9V680.9z M368,611.5l-34,23.9v-72.7h34V611.5z M368,555.8h-67.6
		c-0.9-6.1-3.2-12-7-17.4l-32-45.9l35.7-51.4l65.9,94.1c3.2,4.6,4.9,10,4.9,15.7V555.8z M432.5,620.9c0,8.8-4.3,17.2-11.5,22.3
		l-46.3,32.9V615l57.8-40.6V620.9z M432.5,566.2l-57.8,40.6v-55.9c0-7-2.1-13.8-6.2-19.5l-31.1-44.5l65.4,21.2l24.7,35.3
		c3.2,4.6,4.9,10,4.9,15.7V566.2z M439.3,561.4V559c0-7-2.1-13.8-6.2-19.5l-19.6-28l66.3,21.5L439.3,561.4z M486.7,528.1l-79.6-25.8
		L330.6,393l16.6-23.9h45.5c8.9,0,17.3,4.4,22.4,11.6l77.2,110.1C500.7,502.8,498.1,519.2,486.7,528.1z M581.8,447.2v111.7
		l-87.6-28.4c11.4-11.5,13.3-29.9,3.7-43.5l-77.2-110.1c-6.4-9.1-16.8-14.5-27.9-14.5h-40.8l52.6-75.7c1.8-2.7,4.1-4.9,6.8-6.8
		l91.4-65c4.6-3.2,10-4.9,15.7-4.9h141.2v75.9c0,7,2.1,13.8,6.2,19.5l30.8,44l-100.1,70.1C587.2,425.6,581.8,436.1,581.8,447.2z
		 M697.7,356.5v181.6l-23.8,16.7c-7,4.9-16,6.2-24.1,3.6l-61.2-19.8v-91.4c0-8.9,4.4-17.3,11.6-22.4L697.7,356.5z M806.5,506.4
		l-111.1,77.8c-7,4.9-16,6.2-24.1,3.6l-82.7-26.8v-15.3l59.2,19.2c3.4,1.1,6.9,1.6,10.4,1.6c6.9,0,13.8-2.1,19.6-6.1l111.7-78.2
		L806.5,506.4z M785.6,476.6l-81.1,56.8V360.8L785.6,476.6z M700.7,343.6l-29.6-42.2c-3.2-4.6-4.9-10-4.9-15.7v-75.7
		c7.8,0.8,15,5,19.6,11.5l45.5,65L700.7,343.6z M746.4,258l-0.9,1.7l-10.6,19.9l-43.5-62.2c-6.4-9.1-16.8-14.5-27.9-14.5H518.2
		c-7,0-13.8,2.1-19.6,6.2l-74.4,52.9V161l22.8-16h359.7L746.4,258z M838.7,85.4l-26.9,50.4H602.6l-54-77.2
		c-8.6-12.3-5.6-29.4,6.7-38L597.6-9c15.4-10.8,19.1-32.1,8.4-47.5l-34.7-49.6c-8.6-12.3-5.6-29.4,6.7-38l49-34.3l10.5,14.9
		c4.7,6.7,14,8.4,20.7,3.7l25.5-17.8c3.7-2.6,8.7-1.7,11.3,2L838.7,28.8l0-11.8L700.5-179.6c-4.7-6.7-14-8.3-20.7-3.6l-25.5,17.8
		c-3.7,2.6-8.7,1.7-11.3-2l-21.2-30.3c-5.2-7.5-13-12.4-22-14c-9-1.6-18,0.4-25.5,5.6L299.8-13.8c-6,4.2-13.2,5.8-20.4,4.5
		c-7.2-1.3-13.4-5.3-17.6-11.2l-30.9-44.1l74.1-51.9c9.1-6.4,14.5-16.8,14.5-27.9V-492l72.2,22.4c3.3,1,6.7,1.5,10.1,1.5
		c7,0,13.9-2.1,19.7-6.2l144.8-101.6h-11.9l-136.8,96.1c-6.9,4.8-15.8,6.2-23.8,3.7L72.7-575.8h-23l263.1,81.7v349.6
		c0,8.9-4.4,17.3-11.6,22.4L85.7,28.8l0-153.9c0-18.8-15.3-34.1-34.1-34.1l-138.8,0c-8.9,0-17.3-4.4-22.4-11.6l-227.3-324.7
		l-5.5,3.9L-115.1-167c6.4,9.1,16.8,14.5,27.9,14.5l138.8,0c15.1,0,27.3,12.3,27.3,27.3l0,158.7L-5.4,92.5
		c-12.3,8.6-29.4,5.6-38-6.7l-311-444.4c-5.2-7.5-13-12.4-22-14c-9-1.6-18,0.4-25.5,5.6l-56.3,39.4l3.9,5.5l56.3-39.4
		c6-4.2,13.2-5.8,20.4-4.5c7.2,1.3,13.4,5.3,17.6,11.2l180.8,258.3L-265-36.3c-20.8,14.6-49.5,9.5-64.1-11.3l-127.1-181.7l0,11.9
		l121.6,173.7c10.3,14.6,26.7,22.5,43.3,22.5c10.5,0,21-3.1,30.2-9.5l85.8-60.1L-48.9,89.7c6.6,9.5,17.2,14.5,28,14.5
		c6.8,0,13.6-2,19.5-6.2L79,41.8l0,54.5c0,7,2.1,13.8,6.2,19.6l14.1,19.9h-429.1c-7.7,0-15.2,2.3-21.5,6.8l-105,73.5v12.4
		l112.7-79.2c4-2.8,8.8-4.3,13.7-4.3h25.8l44.2,65.2v214.6c0,7,2.1,13.8,6.2,19.5l61.8,88.3c8.6,12.3,5.6,29.4-6.7,38l-211.9,148.4
		h11.8l204-142.8c12.8-9,17.6-25.3,12.5-39.4l92-64.4l67.5,96.4v42.3c0,18.8,15.3,34.1,34.1,34.1h91L-2.8,719.1H8.9l105.4-73.8
		h105.3c-1.4,8.5,0.3,17.6,5.7,25.2l34,48.6h8.3l-36.7-52.5c-4.5-6.5-5.8-14.2-4.3-21.4h100.8v64.6l-13,9.3l11.7,0l99-70.4
		c9-6.4,14.3-16.8,14.3-27.8v-51.2l48.6-34.1l93.9,30.4v49.8c0,8.9-4.4,17.3-11.6,22.4l-115.6,80.9l11.8,0L574,643.7
		c9.1-6.4,14.5-16.8,14.5-27.9v-47.6l80.6,26.1c3.4,1.1,6.9,1.6,10.4,1.6c6.9,0,13.8-2.1,19.6-6.1L810.4,512l28.3,40.3v-11.7
		l-21-29.9h21v-6.8H813L705.1,349.8l44.8-83.8l88.8-61.1v-11.5l-80,56L814.5,145h24.2l0-9.2h-19.3l19.3-36.1L838.7,85.4z"/>
</g>
</svg>
