<?xml version="1.0" encoding="utf-8"?>
<!-- Generator: Adobe Illustrator 22.0.1, SVG Export Plug-In . SVG Version: 6.00 Build 0)  -->
<svg version="1.1" xmlns="http://www.w3.org/2000/svg" xmlns:xlink="http://www.w3.org/1999/xlink" x="0px" y="0px"
	 viewBox="0 0 266.559 376.727" style="enable-background:new 0 0 266.559 376.727;" xml:space="preserve">
<style type="text/css">
	.st0{fill:#BABECC;}
	.st1{clip-path:url(#SVGID_2_);}
	.st2{fill:#FFFFFF;}
	.st3{fill:none;stroke:#FFFFFF;stroke-miterlimit:10;}
	.st4{opacity:0.8;}
	.st5{display:none;}
	.st6{display:inline;}
	.st7{fill:#EEEEEF;}
	.st8{fill:#113272;}
	.st9{opacity:0.2;}
	.st10{fill:#171C61;}
	.st11{fill:#EFEFEF;}
	.st12{opacity:0.4;}
	.st13{fill:#15AF83;}
	.st14{fill:#005E9E;}
	.st15{fill:#17AD7B;}
	.st16{fill:#D67327;}
	.st17{opacity:0.6;}
	.st18{fill:#165987;}
	.st19{opacity:0.2;fill:#171C61;}
	.st20{fill:#D65677;}
	.st21{fill:#D64B3C;}
	.st22{fill:#DD722A;}
</style>
<g id="圖層_3">
</g>
<g id="圖層_2">
</g>
<g id="圖層_5" class="st5">
</g>
<g id="圖層_1">
	<g>
		<g id="XMLID_3676_" class="st17">
			<path id="XMLID_3712_" class="st13" d="M134.415,102.436l0.156-33.681L79.37,69.308l-3.391,8.595
				c-2.322,5.886-7.865,9.878-14.184,10.214l-15.667,0.834l4.717,53.817L134.415,102.436z"/>
			<polygon id="XMLID_3711_" class="st13" points="181.725,309.855 141.752,309.68 141.891,335.122 182.249,333.59 			"/>
			<polygon id="XMLID_3710_" class="st13" points="141.099,174.333 141.212,206.05 218.68,206.167 218.891,175.044 			"/>
			<polygon id="XMLID_3709_" class="st13" points="56.413,206.295 51.241,147.284 134.393,107.154 133.934,205.938 			"/>
			<polygon id="XMLID_3707_" class="st13" points="58.899,267.757 58.157,213.219 134.166,213.703 134.013,266.556 			"/>
			<polygon id="XMLID_3706_" class="st13" points="59.805,334.4 58.955,271.919 96.036,271.326 95.836,334.946 			"/>
			<polygon id="XMLID_3703_" class="st13" points="99.918,335.008 100.119,271.261 134.001,270.719 133.814,335.521 			"/>
			<polygon id="XMLID_3702_" class="st13" points="141.086,170.613 140.726,68.62 219.608,68.734 218.916,171.325 			"/>
			<polygon id="XMLID_3677_" class="st13" points="141.224,213.119 141.733,306.156 185.753,306.349 186.352,333.434 
				218.772,332.204 218.957,214.285 			"/>
		</g>
	</g>
</g>
<g id="圖層_4">
</g>
<g id="圖層_6">
</g>
</svg>
