<?xml version="1.0" encoding="utf-8"?>
<!-- Generator: Adobe Illustrator 22.0.1, SVG Export Plug-In . SVG Version: 6.00 Build 0)  -->
<svg version="1.1" xmlns="http://www.w3.org/2000/svg" xmlns:xlink="http://www.w3.org/1999/xlink" x="0px" y="0px"
	 viewBox="0 0 48.306 59.156" style="enable-background:new 0 0 48.306 59.156;" xml:space="preserve">
<style type="text/css">
	.st0{fill:#EFEFEF;}
	.st1{fill:#15AF83;}
	.st2{fill:#171C61;}
	.st3{fill:#17AD7B;}
	.st4{opacity:0.6;}
	.st5{fill:#FFFFFF;}
	.st6{fill:#165987;}
	.st7{fill:#D64B3C;}
	.st8{fill:#D65677;}
	.st9{fill:#DD722A;}
	.st10{fill:#005E9E;}
	.st11{fill:#D67327;}
	.st12{clip-path:url(#SVGID_6_);fill:none;}
	.st13{clip-path:url(#SVGID_6_);}
	.st14{fill:none;stroke:#FFFFFF;stroke-width:0.6;stroke-miterlimit:10;}
	.st15{fill:#113272;}
	.st16{opacity:0.2;}
	.st17{opacity:0.2;fill:#171C61;}
	.st18{opacity:0.4;}
	.st19{opacity:0.8;}
	.st20{display:none;}
	.st21{display:inline;fill:#C30D23;}
</style>
<g id="圖層_3">
</g>
<g id="圖層_2">
</g>
<g id="圖層_1">
	<g>
		<g>
			<g>
				<path class="st2" d="M15.58,48.055l-0.191-0.198C15.479,47.95,15.537,48.01,15.58,48.055z"/>
				<path class="st2" d="M16.887,49.553l0.047,0.024C16.866,49.515,16.835,49.491,16.887,49.553z"/>
				<path class="st2" d="M26.846,55.066c0.082-0.086,0.195-0.213,0.352-0.395L26.846,55.066z"/>
				<path class="st2" d="M8.077,40.206l-0.263-0.195C8.175,40.367,8.032,40.194,8.077,40.206z"/>
				<path class="st2" d="M10.239,5.136c0.025-0.016,0.053-0.035,0.076-0.05C10.318,5.077,10.285,5.1,10.239,5.136z"/>
				<path class="st2" d="M46.721,27.725c-0.001,0.007-0.002,0.013-0.004,0.022C46.739,27.673,46.735,27.686,46.721,27.725z"/>
				<path class="st2" d="M1.171,23.596c0-0.017,0.002-0.037,0.005-0.056C1.172,23.278,1.167,23.393,1.171,23.596z"/>
				<path class="st2" d="M36.389,44.096c0.007-0.009,0.012-0.015,0.018-0.023c-0.009,0.008-0.019,0.019-0.027,0.027L36.389,44.096z"
					/>
				<path class="st2" d="M35.782,44.796c0.228-0.327,0.386-0.486,0.598-0.696l-0.304,0.135L35.782,44.796z"/>
				<path class="st2" d="M47.2,23.415c-0.026-0.283-0.056-0.619-0.079-0.869c-0.059,0.156,0.063,1.146,0.05,1.646
					c-0.03,0-0.058-0.11-0.083-0.294c0.002-0.109,0.008-0.217,0.008-0.326c0-1.414-0.135-2.797-0.381-4.14
					c-0.035-0.217-0.076-0.45-0.126-0.694c-0.036-0.143-0.074-0.292-0.111-0.439c-0.061-0.257-0.124-0.512-0.194-0.766
					c-0.006-0.022-0.012-0.046-0.017-0.068c-0.051-0.21-0.101-0.415-0.149-0.609c-0.046-0.194-0.12-0.368-0.169-0.531
					c-0.04-0.087-0.089-0.199-0.131-0.291c-0.602-1.726-1.405-3.357-2.38-4.867c0.036,0.041,0.076,0.086,0.019-0.021
					c-0.016-0.004-0.055-0.049-0.108-0.119c-4.091-6.232-11.137-10.35-19.148-10.35c-0.522,0-1.039,0.024-1.553,0.058
					c-0.217-0.025-0.409-0.052-0.379-0.091c-0.341,0.043-0.79,0.088-1.297,0.138c-0.504,0.058-1.075,0.092-1.611,0.279
					c-0.246,0.042,0.199-0.084,0.065-0.074c-0.269,0.113-0.6,0.207-1.226,0.348l0.067-0.028c-0.432,0.125-0.816,0.188-1.149,0.319
					c-0.337,0.118-0.647,0.226-0.964,0.337c-0.316,0.112-0.644,0.214-1.005,0.352c-0.351,0.161-0.74,0.341-1.2,0.553l0.157-0.021
					c-0.395,0.183-0.484,0.209-0.674,0.286c-0.183,0.125,0.01,0.037,0.251-0.077c-0.846,0.403-2.266,1.335-2.572,1.443
					c-0.537,0.401,0.19-0.071-0.347,0.329l-0.16,0.081l-0.112,0.133c-0.355,0.257-0.556,0.36-0.585,0.349
					c0.087-0.061,0.238-0.187,0.329-0.258C10.002,5.296,9.673,5.53,9.403,5.761c-0.259,0.244-0.482,0.458-0.558,0.52l0.49-0.419
					C8.679,6.5,7.877,7.132,7.231,7.91C6.899,8.288,6.542,8.644,6.249,9.031c-0.287,0.393-0.562,0.775-0.813,1.138l0.099-0.094
					c-0.193,0.276-0.331,0.466-0.442,0.616c-0.1,0.158-0.174,0.275-0.251,0.396c-0.156,0.239-0.324,0.492-0.699,1.128l0.023-0.049
					c-0.071,0.134-0.152,0.285-0.238,0.447c-0.076,0.17-0.161,0.351-0.25,0.533c0.138-0.349-0.352,0.609-0.167,0.154
					c-0.297,0.669-0.367,0.835-0.405,0.948c-0.017,0.055-0.032,0.1-0.058,0.184c-0.031,0.084-0.074,0.212-0.131,0.448l-0.112,0.194
					c-0.08,0.321-0.073,0.353-0.316,1.047c0.176-0.578-0.217,0.423-0.026-0.228c-0.147,0.359-0.289,0.668-0.36,0.96
					c-0.073,0.291-0.129,0.547-0.18,0.777c-0.101,0.46-0.181,0.815-0.33,1.148c-0.072,0.711,0.391-1.285,0.315-0.894
					c0.117-0.313-0.068,0.586-0.199,1.052c-0.078,0.485-0.262,0.804-0.448,2.038c0.015-0.122,0.016-0.132,0.032-0.254
					C1.175,21.178,1.235,21.632,1.16,22.2c0.048,0.324-0.041,0.742,0.037,0.837l0.038-1.14C1.229,22.22,1.243,22.535,1.245,22.9
					c0.001,0.182,0,0.378-0.008,0.593c0,0.215,0,0.45,0,0.719c-0.019-0.082-0.048-0.398-0.066-0.616
					c-0.017,0.312,0.031,0.599,0.014,0.922c-0.042-0.044-0.055-0.391-0.067-0.814c0-0.422,0.039-0.919,0.021-1.267
					c-0.052,0.334-0.006,1.314-0.078,0.964c0.107,0.5-0.012,1.232,0.147,2.069l-0.053-0.052c0.018,0.133,0.056,0.412,0.089,0.651
					c-0.041-0.145-0.078-0.29-0.107-0.437c0.12,0.675,0.092,1.32,0.242,1.964c-0.121-0.678-0.111-0.758-0.088-0.739
					c0.022,0.019,0.061,0.136,0.043-0.155c0.31,1.526,0.044,1.086,0.366,2.448c-0.045-0.23-0.064-0.411,0.005-0.17
					c0.071,0.355,0.188,0.818,0.219,1.04c0.381,1.201-0.016-0.197,0.175,0.305c0.079,0.424,0.204,0.584,0.412,1.092l-0.046,0.021
					c0.481,1.35,0.218,0.322,0.686,1.52l-0.28-0.472l0.283,0.61l-0.107-0.104c0.159,0.33,0.285,0.536,0.386,0.751
					C3.54,33.957,3.63,34.176,3.8,34.492c-0.049-0.163,0.125,0.039,0.431,0.593c0.198,0.384-0.168-0.182,0.306,0.581
					c-0.129-0.158-0.29-0.323-0.439-0.688c-0.033-0.027-0.124-0.16-0.158-0.189c0.183,0.433,0.594,1.013,0.759,1.293
					c-0.064-0.108-0.14-0.238-0.174-0.307c0.238,0.365,0.518,0.701,0.775,1.051c0.099,0.181-0.004,0.055-0.107-0.07
					c0.149,0.219,0.283,0.347,0.517,0.657c-0.092-0.056-0.113-0.011-0.456-0.443c0.261,0.324,0.515,0.653,0.785,0.968
					c0.039,0.075,0.367,0.525,0.253,0.41c0.413,0.56,1.178,1.228,1.812,1.875c0.039,0.028,0.112,0.089,0.254,0.22
					c0.605,0.607,1.086,1.175,1.834,1.847l0.345,0.46c0.557,0.556-0.469-0.621,0.459,0.305c0.66,0.653,0.195,0.293,0.406,0.542
					c0.349,0.304,0.953,0.839,1.49,1.505c-0.203-0.197-0.346-0.366-0.53-0.555l0.414,0.503c-0.584-0.528-0.954-0.958-0.579-0.473
					c0.168-0.032,1.731,1.837,1.889,1.815l0.266,0.337c-0.084-0.089-0.098-0.104-0.181-0.192c0.507,0.664,0.497,0.385,1.193,1.204
					c0.24,0.287,0.398,0.497,0.216,0.317l0.579,0.601c0.159,0.183,0.101,0.155-0.057-0.027l0.842,0.953l-0.009-0.004
					c0.135,0.123,0.43,0.412,0.573,0.554c0.196,0.258-0.117-0.113-0.077-0.039l0.482,0.514c0.156,0.244-0.244-0.182-0.559-0.553
					c0.322,0.59,0.406,0.422,1.26,1.558l-0.443-0.496c0.217,0.378,0.572,0.756,1.011,1.368c-0.093-0.154-0.863-1.239-0.348-0.673
					c0.129,0.173,0.306,0.395,0.591,0.694c-0.037,0.036,0.232,0.335,0.55,0.726l-0.073,0.015c0.358,0.411,0.357,0.356,0.582,0.586
					c0.378,0.475,0.413,0.608,0.469,0.746c0.597,0.766-0.353-0.576,0.373,0.315c0.482,0.649,0.854,1.079,1.474,1.821
					c0.327,0.462-0.092-0.054,0.016,0.119l0.346,0.367c0.073,0.099,0.036,0.077,0.017,0.066c0.271,0.325,0.076-0.014,0.488,0.508
					c0.043,0.031,0.077,0.069,0.18,0.213c0.094,0.139,0.216,0.319,0.355,0.524c0.181-0.227,0.388-0.486,0.591-0.741
					c0.159-0.203,0.313-0.411,0.434-0.609c0.137-0.15-0.027,0.103,0.031,0.069c0.641-0.929,0.554-0.793,1.066-1.569l0.522-0.594
					c-0.399,0.424,0.013-0.194,0.382-0.732c-0.027,0.027-0.049,0.049-0.074,0.075c0.051-0.064,0.104-0.13,0.156-0.195
					c-0.028,0.041-0.053,0.077-0.082,0.121c0.027-0.027,0.056-0.055,0.084-0.083c0.028-0.049,0.051-0.091,0.077-0.135
					c0.104-0.13,0.212-0.263,0.321-0.398c0.018,0.01-0.048,0.128-0.132,0.267c-0.089,0.089-0.178,0.179-0.265,0.266
					c-0.128,0.226-0.242,0.441-0.178,0.423c0.036-0.057,0.112-0.163,0.198-0.277c-0.033,0.059-0.052,0.099-0.028,0.079
					c0.027-0.023,0.083-0.117,0.176-0.26l0.205-0.138l0.013-0.063l0.89-1.023c0.559-0.795,1.011-1.517,1.985-2.711
					c-0.205,0.327,0.015,0.12,0.05,0.178c-0.321,0.278-0.751,0.926-1.269,1.533c0.271-0.316,0.236-0.226,0.177-0.137l0.869-1.128
					c0.02,0.059,0.225-0.205,0.482-0.475c-0.263,0.145,0.641-0.848,0.995-1.307c0.05-0.004-0.014,0.124-0.482,0.653
					c0.569-0.538,0.564-0.844,1.123-1.372c-0.114,0.13-0.179,0.196-0.211,0.259c0.244-0.322,0.915-1.044,0.784-0.85l-0.113,0.129
					c0.765-0.852,2.338-2.584,2.395-2.765c0.016-0.001-0.024,0.182-0.058,0.245c0.275-0.394,0.548-0.79,0.824-1.185
					c0.142-0.15,0.285-0.301,0.428-0.451c0.116-0.002,0.281-0.034-0.156,0.465c0.196-0.19,0.439-0.424,0.818-0.856
					c-0.137,0.127-0.4,0.258-0.229,0.07c0.544-0.444,0.368-0.318,1.016-0.888c-0.205,0.189-0.077-0.118,0.238-0.427
					c-0.036,0.061,0.109,0.057,0.005,0.18l0.688-0.86c-0.178,0.209,0.035,0.105,0.231-0.045c-0.096,0.064,0.665-0.67,0.872-0.884
					l-0.352,0.308c0.45-0.43,0.64-0.676,0.828-0.92c0.188-0.244,0.379-0.482,0.786-0.944c-0.081,0.126-0.138,0.376,0.295-0.084
					c0.08-0.137,0.248-0.457,0.475-0.861c0.279-0.349,0.552-0.703,0.81-1.067c-0.273,0.518-0.6,1.09-0.868,1.455
					c0.314-0.347,0.122-0.069,0.548-0.626c0.14-0.142-0.063,0.155-0.22,0.361c0.139-0.166,0.275-0.334,0.405-0.507
					c0.163-0.219,0.339-0.429,0.491-0.656c-0.096,0.021,0.642-1.076,0.546-1.062c-0.139,0.261-0.299,0.509-0.454,0.761
					c-0.153,0.253-0.311,0.504-0.482,0.745c-0.098,0.015,0.46-0.931,1.051-1.913c0.177-0.236-0.007,0.251,0.025,0.243
					c0.028-0.071,0.165-0.309,0.293-0.544c0.124-0.239,0.249-0.47,0.282-0.512l-0.203,0.448c0.166-0.276,0.273-0.518,0.391-0.77
					c0.11-0.257,0.225-0.528,0.426-0.86c0.123-0.236,0.403-0.694,0.386-0.751c-0.148,0.221-0.298,0.298-0.383,0.265
					c0.122-0.274,0.241-0.55,0.353-0.83l0.012,0.046l0.061-0.163l-0.027-0.004c0.111-0.284,0.22-0.57,0.32-0.859
					c0.094-0.09-0.117,0.707,0.04,0.413c-0.014-0.022,0.054-0.255,0.076-0.354c0.102-0.261,0.02,0.13,0.2-0.452
					c-0.028-0.116,0.373-1.178,0.032-0.291c0.158-0.572,0.186-0.603,0.371-1.275c-0.063,0.135-0.047-0.193-0.001-0.599
					c0.054-0.246,0.106-0.493,0.152-0.741c0.005-0.013,0.009-0.026,0.013-0.036c0.054-0.298,0.102-0.561,0.147-0.806
					c0.035-0.246,0.067-0.474,0.099-0.7c0.074-0.45,0.097-0.895,0.144-1.459c0.025-0.103,0.055-0.649,0.081-0.415
					c-0.009-0.164-0.029-0.314-0.022-0.663c0.067-0.676-0.003,0.779,0.077,0.265C47.221,23.925,47.229,23.698,47.2,23.415z
					 M27.815,53.74c0.109-0.14,0.237-0.295,0.387-0.46C28.127,53.4,27.984,53.562,27.815,53.74z M14.165,2.879
					c-0.111,0.018-0.273,0.081-0.465,0.172C14.003,2.908,14.37,2.73,14.165,2.879z M18.362,51.268
					c0.182,0.127,0.27,0.27,0.461,0.528C18.696,51.657,18.427,51.392,18.362,51.268z"/>
				<path class="st2" d="M1.7,29.15c0.027,0.139,0.063,0.296,0.095,0.389C1.758,29.393,1.728,29.267,1.7,29.15z"/>
				<path class="st2" d="M42.347,37.985c-0.036,0.043-0.069,0.09-0.106,0.132C42.269,38.086,42.307,38.038,42.347,37.985z"/>
				<path class="st2" d="M27.205,54.628c-0.04,0.036-0.056,0.042-0.072,0.046C27.094,54.737,27.1,54.745,27.205,54.628z"/>
				<path class="st2" d="M8.125,40.242l-0.021-0.021c-0.014-0.009-0.022-0.013-0.028-0.015L8.125,40.242z"/>
				<path class="st2" d="M46.023,31.155c-0.065,0.169-0.114,0.259-0.145,0.319C45.885,31.487,45.928,31.415,46.023,31.155z"/>
				<path class="st2" d="M46.891,20.306l0.067,0.012l-0.074-0.316C46.902,20.186,46.892,20.2,46.891,20.306z"/>
				<path class="st2" d="M47.178,22.109c-0.021-0.069-0.071-0.754-0.054-0.123C47.146,22.052,47.227,22.979,47.178,22.109z"/>
				<path class="st2" d="M41.028,39.382c-0.33,0.364-0.526,0.534-0.315,0.425c0.596-0.558,0.101-0.17,0.622-0.695
					C41.445,38.951,40.911,39.543,41.028,39.382z"/>
				<path class="st2" d="M41.028,39.382c0.049-0.062,0.101-0.127,0.157-0.198C41.094,39.294,41.052,39.347,41.028,39.382z"/>
				<path class="st2" d="M19.638,52.995l0.038,0.02c-0.037-0.073-0.114-0.168-0.267-0.357L19.638,52.995z"/>
				<polygon class="st2" points="15.097,47.608 15.176,47.7 15.071,47.49 				"/>
				<path class="st2" d="M11.022,43.324c0.169,0.172,0.368,0.374,0.538,0.547C11.187,43.499,11.032,43.224,11.022,43.324z"/>
			</g>
			<g id="XMLID_740_">
				<path id="XMLID_783_" class="st5" d="M29.147,32.786c-0.183,0.052-0.266-0.407-0.477-0.525
					c-0.032-0.075,0.051-0.093-0.027-0.171c-0.101-0.007-0.119-0.146-0.169-0.237c-0.02-0.015-0.04-0.031-0.057-0.05l-0.036,0.035
					l-0.01-0.137c0.002,0.038,0.02,0.072,0.045,0.101l0.009-0.009c0.019,0.015,0.035,0.035,0.048,0.059
					c0.027,0.018,0.056,0.037,0.071,0.047c0.008-0.005,0.004-0.027-0.004-0.054c-0.028-0.048-0.056-0.096-0.083-0.144
					c-0.146-0.094-0.325-0.269-0.31-0.476l-0.153-0.091c0.005-0.139-0.07-0.283-0.087-0.401l-0.046,0.025
					c0.039-0.08-0.04-0.13-0.085-0.184c0.011-0.022,0.032-0.028,0.043-0.05c-0.043-0.164-0.163-0.288-0.158-0.393
					c0.1,0.111,0.014-0.02,0.121,0.106c-0.07-0.096,0.009-0.197-0.078-0.257c-0.041-0.113,0.016-0.122,0.029-0.176
					c-0.001-0.002-0.001-0.003-0.002-0.005c-0.061,0.057-0.141-0.087-0.19-0.077c-0.012-0.141-0.216-0.123-0.327-0.247
					c0.032,0.018,0.065,0.048,0.08,0.033c-0.033-0.085-0.074-0.041-0.119-0.085c0.007,0.004,0.01-0.003,0.021-0.005l-0.05-0.05
					c0.019,0.012,0.04,0.02,0.049,0.025c0.03-0.031-0.037-0.105-0.099-0.138c-0.036,0.02-0.176-0.13-0.234-0.056
					c0.011-0.081-0.208-0.088-0.177-0.161c-0.12-0.009-0.189,0.072-0.291,0.097c-0.117-0.036-0.155-0.033-0.209-0.102
					c-0.056,0.006-0.127-0.012-0.136,0.031l0.125,0.034c-0.24,0.006-0.295-0.14-0.536-0.112c0.044-0.017-0.062-0.048-0.016-0.065
					l-0.127-0.004c0.023-0.058,0.101-0.043,0.137-0.109c-0.009-0.003-0.017-0.005-0.026-0.008c-0.022-0.004-0.042-0.009-0.053-0.017
					c-0.035-0.013-0.069-0.03-0.104-0.044c-0.011,0.027-0.12,0.009-0.162,0.034l0.034-0.066c-0.142-0.033-0.275-0.025-0.458-0.112
					c0.009-0.03-0.056-0.188-0.017-0.21c-0.002-0.002-0.005-0.003-0.007-0.005c-0.063-0.052-0.109-0.117-0.146-0.186
					c-0.028,0.006-0.05,0.013-0.009,0.084c0.044,0.048,0.083,0.07,0.052,0.061c-0.024-0.024-0.04-0.043-0.052-0.061
					c-0.05-0.052-0.096-0.146-0.07-0.208c0,0-0.054-0.069-0.088-0.157c-0.036-0.086-0.049-0.186-0.049-0.186
					c0.061,0.073,0.058-0.162,0.121-0.116c0.005-0.091,0.07-0.126,0.01-0.182c0.088-0.065-0.009,0.164,0.068,0.105
					c0.094-0.136-0.03-0.33,0.118-0.295c0.008-0.123-0.063-0.058-0.115,0.022c-0.048,0.078-0.083,0.161-0.05-0.011
					c-0.001-0.003,0.103-0.097,0.104-0.094c0.12-0.23,0.355-0.377,0.486-0.607l0.008,0.047c0.127-0.046,0.21-0.201,0.27-0.279
					l0.048,0.062c0.087-0.062,0.107-0.234,0.188-0.186c-0.042,0.03-0.049,0.06-0.061,0.077c0.164-0.077,0.127-0.149,0.318-0.268
					l0.051-0.051c-0.049-0.034-0.126-0.04-0.15-0.054c0.19-0.108,0.127-0.046,0.297-0.123c-0.042-0.032-0.011-0.062,0.006-0.109
					c0.25-0.187,0.118-0.172,0.299-0.327c0.007-0.031-0.027-0.016-0.039-0.016c0.105-0.03,0.085-0.139,0.165-0.108
					c-0.044,0.031-0.072,0.078-0.055,0.109c0.068-0.031,0.101-0.124,0.164-0.186c-0.017-0.032-0.158,0.077-0.073-0.063
					c0.146-0.218,0.317-0.05,0.421-0.325c0.052,0.005,0.214-0.097,0.243-0.061c0.074-0.064,0.157-0.112,0.246-0.145
					c0.021-0.049,0.029-0.097,0.109-0.106c-0.012,0.026,0.007,0.046,0.027,0.067c0.017-0.003,0.032-0.013,0.049-0.014l0.054-0.006
					c0.117-0.067,0.394-0.114,0.551-0.095c0.008,0.061,0.162,0.122,0.09,0.157c-0.038-0.026-0.088-0.057-0.107-0.028
					c0.007,0.008,0.018,0.016,0.028,0.024c0.036,0.019,0.071,0.038,0.102,0.064c0.041,0.019,0.08,0.031,0.099,0.024
					c-0.081-0.171,0.153,0.119,0.055-0.068c0.063,0.071,0.076,0.175,0.119,0.197c-0.003,0.023-0.045,0.074-0.094,0.073
					c0.01,0.016,0.02,0.029,0.03,0.046c0.04,0.033,0.086,0.075,0.086,0.126c0.109,0.065,0.031-0.168,0.123-0.091
					c0.027,0.105-0.076,0-0.034,0.104l0.152,0.006c0.058,0.281,0.176,0.191,0.187,0.453c-0.098-0.087-0.069-0.122-0.143-0.251
					c-0.014,0.052-0.026,0.089-0.09,0.043c0.034-0.01,0-0.052-0.017-0.105l-0.05,0.123c0.045,0.102,0.086,0.213,0.122,0.33
					c0.027,0.026,0.085,0.197,0.145,0.203c-0.012,0.024-0.012,0.023-0.026,0.02c0.019,0.06,0.028,0.104,0.063,0.102l0.001-0.096
					c0.113,0.115,0.004,0.248,0.093,0.269l-0.02-0.003c-0.015,0.182,0.054,0.247,0.038,0.428c-0.13,0.062-0.073,0.162-0.099,0.302
					c0.004-0.12,0.1,0.025,0.147-0.009c-0.027-0.074-0.105-0.089-0.074-0.185c0.011,0.029,0.041,0.072,0.054,0.021
					c0.084,0.186-0.005,0.273,0.085,0.436l0.032-0.042c-0.004-0.004-0.006,0.109-0.004,0.111c0.033-0.078,0.086,0.017,0.149,0.062
					l-0.031-0.011c0.065,0.084,0.144,0.128,0.168,0.11c0.066,0.07-0.053,0.014-0.012,0.064l0.095,0.016
					c0.028,0.071-0.043-0.009-0.014,0.062c0.084-0.006,0.119,0.039,0.251,0.029c-0.013,0.033-0.043,0.067,0.008,0.086
					c-0.13-0.027-0.058,0.046-0.07,0.079c-0.031-0.007-0.076-0.017-0.125-0.029c0.037,0.014,0.071,0.035,0.111,0.044
					c0.056,0.013,0.122,0.029,0.193,0.048c-0.003-0.044,0.104-0.041-0.005-0.101c0.064-0.011,0.184,0.031,0.209-0.012
					c-0.097-0.019-0.138-0.048-0.14-0.087c-0.015-0.006-0.021-0.009-0.002-0.009c-0.001,0.003,0.002,0.006,0.002,0.009
					c0.062,0.021,0.293,0.084,0.177,0.142c0.099-0.008,0.241-0.019,0.339-0.027c-0.005-0.009-0.006-0.017-0.001-0.026
					c0.025,0.012,0.043,0.013,0.062,0.015c-0.014,0.004-0.036,0.008-0.061,0.011c0.016,0.032,0.092,0.062,0.123,0.09
					c-0.085,0.005-0.313-0.082-0.251,0.019c0.184,0.04,0.295,0.148,0.457,0.194l-0.021-0.067c0.098,0.084,0.215-0.008,0.36,0.075
					c-0.018,0.031-0.053,0.09,0.028,0.124c0.03-0.006,0.036-0.06,0.113-0.004c-0.033-0.041-0.036-0.064-0.039-0.084
					c-0.043-0.043-0.081-0.082-0.108-0.113c0.1,0.058,0.103,0.084,0.108,0.113c0.106,0.101,0.245,0.224,0.352,0.348
					c0.054-0.022,0.149,0.008,0.096-0.08c0.122,0.057,0.076,0.103,0.177,0.16l0.039-0.024c0.066,0.05,0.084,0.054,0.12,0.107
					c0.035-0.129,0.317,0.142,0.309,0.073c0.108,0.174,0.411,0.376,0.618,0.48l-0.072,0.018c0.38,0.227,0.871,0.495,1.064,0.721
					c-0.039,0.053-0.069-0.072-0.145-0.075c-0.008,0.056,0.156,0.165,0.099,0.196c-0.121-0.135-0.083,0.066-0.188-0.073
					c0.045-0.123-0.187-0.193-0.108-0.262c-0.049-0.024-0.081,0.056-0.078,0.082c-0.113-0.134-0.349-0.219-0.412-0.371
					c0.036,0.025,0.07,0.039,0.09,0.073c0.054-0.036-0.075-0.08-0.073-0.135l-0.134,0.017c-0.508-0.444-1.095-0.744-1.648-1.031
					c-0.182-0.061-0.307-0.092-0.46-0.173l0.02,0.014l-0.047-0.027c0.011,0.005,0.017,0.009,0.027,0.014
					c-0.128-0.093-0.369-0.151-0.552-0.182c1.024,0.337,2.749,1.132,4.228,2.938c0.186,0.227,0.324,0.488,0.411,0.769
					c0.022-0.078,0.065-0.151,0.112-0.117l0.075,0.141c-0.059-0.014-0.095,0.11-0.068,0.241c-0.068-0.011-0.035-0.21-0.11-0.236
					c0.03,0.103,0.047,0.21,0.063,0.318c0.001-0.001,0-0.003,0-0.004c0.035,0.052,0.151,0.128,0.165,0.287l-0.057,0.118
					c-0.044-0.085,0.024-0.076,0.006-0.175c0.012-0.096-0.063-0.143-0.087-0.083c-0.002,0.002-0.003,0.003-0.004,0.004
					c0,0.003,0,0.007,0,0.01c0.004,0.013,0.007,0.026,0.01,0.038c0.01,0.013,0.019,0.029,0.008,0.053
					c0-0.019-0.004-0.036-0.008-0.053c-0.004-0.005-0.007-0.01-0.01-0.014c0.008,0.111,0.008,0.224,0,0.339
					c0.027,0.035,0.062,0.082,0.061,0.082c-0.008,0.008-0.043-0.076-0.062-0.009c-0.006,0.06-0.017,0.125-0.027,0.188
					c0.028-0.017,0.048,0.001,0.145-0.037l-0.008,0.162l-0.067-0.02c-0.052,0.158,0.042,0.121-0.033,0.26
					c-0.048-0.06-0.024-0.156-0.06-0.202c-0.036,0.085,0.005,0.187-0.001,0.25c-0.021,0.003-0.035-0.02-0.047-0.051
					c-0.013,0.053-0.022,0.104-0.038,0.159c-0.191,0.663-0.621,1.261-1.212,1.648c-0.036,0.024-0.073,0.047-0.112,0.07
					c-0.879,0.534-1.921,0.523-2.682,0.022c0,0.009-0.005,0.014-0.037,0.009c-0.007-0.016-0.009-0.031-0.011-0.047
					c-0.088-0.061-0.174-0.125-0.254-0.2c-0.01-0.01-0.022-0.022-0.033-0.032c0.016,0.028,0.035,0.057,0.036,0.076
					c-0.05-0.026-0.111-0.052-0.128-0.086l0.015,0.009c-0.018-0.2-0.212-0.149-0.306-0.374c-0.082-0.083-0.167-0.172-0.255-0.264
					c-0.031-0.027-0.06-0.058-0.087-0.093c-0.057-0.061-0.115-0.124-0.173-0.189c-0.019-0.012-0.038-0.025-0.05-0.033l0.014-0.007
					c-0.009-0.01-0.019-0.021-0.028-0.031c-0.098-0.048-0.207-0.146-0.296-0.222c-0.022-0.275-0.396-0.311-0.482-0.615l0.063-0.032
					c-0.049-0.065-0.097-0.131-0.146-0.198C29.091,32.694,29.121,32.751,29.147,32.786z"/>
				<path id="XMLID_782_" class="st5" d="M21.893,28.443c-0.057-0.036,0.158-0.137,0.212-0.254c-0.082,0.012-0.36,0.311-0.372,0.238
					c0.293-0.246-0.049-0.097,0.241-0.323c0.161,0.016,0.429-0.376,0.479-0.279c0.072-0.085-0.028-0.105-0.07-0.089
					c0.29-0.226,0.601-0.635,0.882-0.781c-0.068,0.064-0.116,0.122-0.181,0.166c0.011,0.072,0.179-0.146,0.261-0.158l0.085-0.207
					c1.082-0.936,2.064-1.914,3.053-2.804c0.28-0.292,0.464-0.494,0.745-0.732l-0.041,0.032l0.089-0.073
					c-0.018,0.015-0.031,0.027-0.049,0.042c0.261-0.196,0.62-0.572,0.886-0.86c-4.285,4.037-9.442,8.721-9.442,8.721
					c0.032,0.047,0.053,0.095,0.08,0.142c-0.012-0.063-0.012-0.111,0.006-0.128c0.058-0.015,0.083-0.005,0.093,0.017
					c0,0,0.027,0.033,0.054,0.066c0.017,0.012,0.083,0.118,0.078,0.109c-0.077-0.036-0.029,0.208,0.021,0.491
					c-0.051-0.043-0.112-0.472-0.229-0.512c0.125,0.236,0.193,0.472,0.203,0.702c0.04,0.12,0.124,0.31,0.055,0.618l-0.135,0.22
					c0.009-0.188,0.088-0.143,0.115-0.356c0.066-0.197-0.011-0.32-0.043-0.201c-0.001,0.001-0.001,0.002-0.002,0.003
					c-0.002,0.02-0.008,0.039-0.011,0.058c-0.002,0.016-0.003,0.033-0.005,0.05c0.003,0.03,0.004,0.066-0.018,0.113
					c0.006-0.04,0.012-0.076,0.018-0.113c-0.001-0.006-0.001-0.011-0.002-0.016c-0.026,0.152-0.067,0.301-0.124,0.443
					c0.003,0.019,0.007,0.085,0.007,0.085l-0.039,0.012c0,0,0.016-0.048,0.025-0.079c-0.031,0.074-0.065,0.147-0.102,0.218
					c-0.006,0.074-0.016,0.163-0.019,0.162c-0.016,0.012,0.037-0.168-0.049-0.041c-0.073,0.127-0.152,0.249-0.235,0.36
					c0.069-0.042,0.045,0.01,0.199-0.032c0,0-0.045,0.074-0.091,0.147c-0.049,0.071-0.098,0.142-0.098,0.142l-0.043-0.058
					c-0.243,0.254-0.102,0.224-0.36,0.422c0.032-0.111,0.179-0.261,0.199-0.355c-0.14,0.135-0.235,0.311-0.328,0.408
					c-0.029-0.003-0.012-0.048,0.026-0.112c-0.158,0.153-0.271,0.243-0.271,0.243c-1.973,1.614-3.184,0.433-3.184,0.433l1.704-1.704
					l-1.272-1.272l-1.629,1.629c-0.161-0.234-0.269-0.468-0.336-0.696c-0.004,0.011-0.014,0.005-0.041-0.052
					c0.003-0.03,0.008-0.053,0.013-0.073c-0.062-0.269-0.072-0.531-0.04-0.778c-0.015,0.062-0.027,0.126-0.043,0.152
					c-0.007-0.116-0.016-0.256,0.018-0.328l-0.004,0.038c0.191-0.289,0.094-0.559,0.417-0.952c0.164-0.282,0.342-0.507,0.478-0.66
					c0.035-0.043,0.072-0.084,0.113-0.124c0.06-0.062,0.098-0.098,0.098-0.098c0.126-0.106,0.25-0.193,0.373-0.271
					c0.04-0.034,0.078-0.064,0.107-0.082l0,0.017c0.031-0.018,0.062-0.04,0.093-0.056c0.173-0.136,0.453-0.267,0.694-0.323
					c0.257,0.032,0.51-0.007,0.798,0.003c0.275,0.002,0.62,0.075,0.839,0.258c0.003,0.001-0.019,0.032-0.039,0.058
					c0.099,0.052,0.154,0.091,0.154,0.091c0.06-0.076,0.124-0.155,0.185-0.232c-0.079,0.087-0.15,0.162-0.196,0.205
					c-0.011-0.007-0.018-0.012-0.025-0.017c0.005-0.008,0.012-0.015,0.02-0.018c0.025-0.058,0.052-0.13,0.1-0.188
					c0.069-0.09,0.159-0.192,0.255-0.299c0.191-0.213,0.4-0.447,0.496-0.65c0.121-0.12,0.144-0.021,0.273-0.209
					c0.019-0.149,0.238-0.317,0.385-0.482c0.024-0.042,0.051-0.087,0.082-0.13l-0.055-0.011l0.214-0.161
					c-0.059,0.043-0.112,0.106-0.159,0.172l0.014,0.002c-0.024,0.042-0.058,0.085-0.096,0.128c-0.031,0.059-0.062,0.116-0.079,0.147
					c0.006,0.005,0.032-0.015,0.065-0.043c0.084-0.098,0.17-0.196,0.256-0.295c0.152-0.305,0.429-0.715,0.752-0.932l0.131-0.295
					c0.216-0.158,0.436-0.419,0.622-0.579l-0.049-0.023c0.133-0.054,0.194-0.207,0.266-0.322c0.038-0.015,0.053,0,0.091-0.015
					c0.255-0.252,0.389-0.547,0.556-0.674c-0.131,0.244,0.038-0.015-0.116,0.26c0.123-0.201,0.311-0.249,0.378-0.425
					c0.201-0.227,0.221-0.148,0.32-0.208c-0.125,0.004,0.16-0.298,0.173-0.368c0.26-0.165,0.348-0.455,0.61-0.702
					c-0.048,0.061-0.115,0.129-0.1,0.145c0.151-0.097,0.11-0.139,0.205-0.234c-0.011,0.014-0.002,0.015-0.006,0.032l0.108-0.106
					c-0.027,0.035-0.056,0.074-0.07,0.091c0.03,0.031,0.182-0.111,0.276-0.231c-0.006-0.062,0.373-0.373,0.357-0.474
					c0.085,0.01,0.435-0.391,0.45-0.291c0.201-0.2,0.228-0.338,0.352-0.51c0.191-0.153,0.24-0.214,0.374-0.262
					c0.072-0.09,0.182-0.193,0.153-0.225l-0.196,0.176c0.307-0.365,0.528-0.397,0.788-0.786c-0.033,0.075,0.126-0.087,0.091-0.01
					l0.15-0.201c0.042,0.047-0.062,0.165-0.034,0.238c0.011-0.011,0.022-0.022,0.033-0.032c0.038-0.045,0.069-0.074,0.095-0.093
					c0.054-0.053,0.11-0.108,0.164-0.161c-0.009-0.031,0.131-0.206,0.142-0.27l0.049,0.056c0.194-0.236,0.311-0.445,0.573-0.746
					c0.032,0.009,0.311-0.143,0.321-0.094c0.129-0.125,0.256-0.246,0.381-0.367c-0.006-0.029-0.02-0.044-0.134,0.065
					c-0.086,0.095-0.141,0.163-0.113,0.113c0.048-0.048,0.083-0.083,0.113-0.113c0.096-0.106,0.231-0.244,0.336-0.29l0.392-0.554
					c-0.031,0.137,0.245-0.207,0.263-0.129c0.122-0.146,0.239-0.184,0.246-0.291c0.18-0.081-0.222,0.263-0.061,0.189
					c0.298-0.203,0.351-0.516,0.5-0.459c0.252-0.399-0.63,0.481-0.217,0.008l0.211-0.133c0.31-0.331,0.782-0.738,1.132-1.144
					l-0.017,0.069c0.231-0.137,0.459-0.419,0.604-0.569l0.036,0.072c0.178-0.14,0.317-0.414,0.418-0.382
					c-0.087,0.068-0.116,0.116-0.147,0.15c0.293-0.189,0.296-0.284,0.617-0.52c0.057-0.053,0.115-0.108,0.17-0.159
					c-0.062-0.016-0.17,0.01-0.197,0.001c0.371-0.25,0.242-0.136,0.547-0.319c0.004-0.004,0.008-0.007,0.012-0.011
					c-0.04-0.029,0.027-0.089,0.084-0.166c0.526-0.402,0.305-0.317,0.699-0.638c0.032-0.051-0.032-0.012-0.051-0.007
					c0.188-0.095,0.231-0.253,0.337-0.242c-0.092,0.068-0.168,0.152-0.162,0.193c0.13-0.078,0.245-0.237,0.388-0.361
					c-0.006-0.041-0.305,0.191-0.072-0.064c0.025-0.025,0.047-0.047,0.068-0.067c0.161-0.126,0.33-0.099,0.418-0.071
					c0.091,0.036,0.155,0.08,0.214,0.126c0.118,0.093,0.231,0.182,0.488,0.301c0.037,0.069,0.287,0.336,0.282,0.389
					c0.063,0.058,0.102,0.095,0.102,0.095c0.108,0.132,0.23,0.25,0.345,0.361c0.074,0.022,0.134,0.028,0.229,0.14
					c-0.038-0.011-0.039,0.019-0.035,0.056c0.053,0.059,0.096,0.116,0.129,0.172c0.049,0.053,0.105,0.14,0.091,0.266
					c-0.084,0.301-0.311,0.602-0.387,0.774c-0.08,0.005-0.264,0.263-0.263,0.161c0.062-0.072,0.142-0.156,0.122-0.186
					c-0.008,0.006-0.019,0.018-0.028,0.026c-0.062,0.074-0.127,0.147-0.192,0.219c-0.056,0.078-0.097,0.151-0.089,0.174
					c0.271-0.21-0.214,0.281,0.079,0.042c-0.106,0.111-0.274,0.228-0.319,0.307c-0.036,0.016-0.112,0.004-0.101-0.065
					c-0.027,0.028-0.052,0.054-0.079,0.082c-0.061,0.087-0.137,0.192-0.218,0.243c-0.11,0.209,0.266-0.122,0.137,0.076
					c-0.166,0.136,0.004-0.101-0.163,0.055l-0.007,0.206c-0.431,0.372-0.266,0.419-0.663,0.727c0.115-0.209,0.169-0.223,0.356-0.455
					c-0.08,0.04-0.142,0.071-0.078-0.062c0.019,0.031,0.082-0.061,0.163-0.141l-0.197,0.077c-0.098,0.111-0.198,0.224-0.297,0.331
					c-0.073,0.078-0.155,0.165-0.238,0.252c-0.07,0.094-0.27,0.324-0.255,0.386c-0.042,0.019-0.042,0.019-0.041-0.001
					c-0.086,0.1-0.153,0.165-0.134,0.197l0.15-0.125c-0.129,0.255-0.381,0.331-0.368,0.439l-0.006-0.021
					c-0.281,0.237-0.331,0.382-0.596,0.628c-0.181-0.002-0.324,0.233-0.581,0.398c0.217-0.169-0.013,0.143,0.046,0.156
					c0.156-0.162,0.143-0.254,0.338-0.395c-0.045,0.058-0.115,0.165-0.006,0.081c-0.363,0.444-0.567,0.473-0.899,0.763l0.06,0.014
					l-0.189,0.077c0.109,0.001-0.071,0.142-0.174,0.267l0.033-0.053c-0.156,0.142-0.293,0.314-0.297,0.354
					c-0.2,0.18,0.028-0.089-0.104,0.023l-0.14,0.193c-0.15,0.079,0.07-0.086-0.08-0.007c-0.096,0.155-0.228,0.247-0.413,0.476
					c-0.017-0.033-0.011-0.093-0.098-0.019c0.202-0.197,0.031-0.11,0.014-0.141c0.074-0.067,0.176-0.175,0.285-0.294
					c-0.192,0.183-0.387,0.368-0.585,0.556c0.05,0.01-0.098,0.183,0.108,0.029c-0.071,0.106-0.271,0.283-0.256,0.335
					c0.145-0.147,0.228-0.202,0.271-0.192c0.026-0.022,0.037-0.03,0.012,0.001c-0.003-0.002-0.009,0.001-0.012-0.001
					c-0.102,0.089-0.461,0.436-0.377,0.235c-0.127,0.17-0.295,0.401-0.392,0.545c0.016-0.006,0.027-0.006,0.03,0.005
					c-0.044,0.037-0.067,0.065-0.091,0.094c0.012-0.022,0.035-0.058,0.061-0.099c-0.056,0.018-0.182,0.131-0.251,0.174
					c0.096-0.135,0.476-0.479,0.286-0.404c-0.274,0.283-0.533,0.443-0.783,0.697l0.105-0.023c-0.218,0.145-0.241,0.347-0.508,0.568
					c-0.017-0.032-0.051-0.096-0.186,0.034c-0.026,0.049,0.035,0.063-0.121,0.183c0.088-0.05,0.121-0.054,0.149-0.057
					c0.101-0.066,0.191-0.123,0.26-0.161c-0.185,0.152-0.218,0.157-0.26,0.161c-0.245,0.164-0.548,0.366-0.831,0.555
					c-0.03,0.088-0.169,0.239,0.003,0.154c-0.203,0.194-0.216,0.123-0.397,0.289l-0.007,0.061c-0.134,0.11-0.158,0.138-0.266,0.2
					c0.138,0.043-0.504,0.524-0.401,0.503c-0.346,0.191-0.914,0.719-1.238,1.076l0.033-0.11
					C23.116,27.186,22.366,28.051,21.893,28.443z"/>
				<path id="XMLID_781_" class="st5" d="M20.851,29.36c0.159-0.138,0.177-0.126,0.291-0.226c-0.212,0.08,0.199-0.307-0.227,0.028
					c-0.14,0.149-0.275,0.432-0.464,0.484c-0.025-0.003,0.025-0.101-0.002-0.107c0.032-0.005,0.063-0.005,0.099-0.027l0.24-0.303
					c0.366-0.351,0.522-0.468,0.737-0.57l-0.142,0.17c0.081-0.085,0.111-0.075,0.162-0.11c0.034-0.04,0.062-0.068,0.083-0.08
					c-0.035,0.042-0.061,0.065-0.083,0.08C21.407,28.862,21.163,29.211,20.851,29.36z"/>
				<path id="XMLID_780_" class="st5" d="M20.287,29.67c0.07-0.104,0.117-0.123,0.161-0.13C20.43,29.539,20.387,29.57,20.287,29.67z
					"/>
				<polygon id="XMLID_779_" class="st5" points="20.347,29.84 20.287,29.843 20.287,29.824 				"/>
				<path id="XMLID_778_" class="st5" d="M21.398,28.69c-0.019-0.012,0.074-0.105,0.098-0.134l0.105-0.04L21.398,28.69z"/>
				<path id="XMLID_777_" class="st5" d="M19.263,30.75c-0.101,0-0.122,0.161-0.23,0.221l-0.142-0.004l0.262-0.156
					c0.061-0.158,0.266-0.351,0.404-0.48c0.168-0.045-0.296,0.266-0.176,0.278c0.204-0.173,0.193-0.247,0.441-0.455
					c-0.116,0.121-0.075,0.124-0.105,0.193l0.474-0.564c-0.168,0.217,0.008,0.267-0.29,0.553c-0.281,0.274-0.593,0.427-0.722,0.572
					C19.235,30.844,19.32,30.756,19.263,30.75z"/>
				<path id="XMLID_776_" class="st5" d="M18.567,33.438c-0.021-0.008-0.024-0.049-0.029-0.09
					C18.63,33.244,18.564,33.396,18.567,33.438z"/>
				<path id="XMLID_775_" class="st5" d="M13.764,14.204c0.021,0.004,0.037,0.033,0.052,0.067c0.004-0.022,0.019-0.04,0.029-0.06
					l-0.006-0.006c-0.001-0.001,0.009-0.009,0.016-0.014c0.01-0.015,0.01-0.034,0.023-0.047l1.09-1.079
					c0.085-0.084,0.219-0.095,0.316-0.025l1.771,1.263c0.001-0.008,0.006-0.013,0.034-0.011c0.004,0.013,0.005,0.025,0.005,0.038
					l0.243,0.173c-0.015-0.022-0.032-0.045-0.033-0.062c0.042,0.015,0.098,0.023,0.113,0.05l-0.014-0.005
					c0.023,0.179,0.19,0.086,0.284,0.266l0.24,0.171c0.029,0.015,0.056,0.035,0.081,0.058l0.039,0.028
					c0.04,0.029,0.066,0.07,0.083,0.116c0.016,0.019,0.029,0.039,0.034,0.054l-0.016-0.001c0,0.002,0.002,0.004,0.002,0.007
					l0.004,0.039c0.046,0.075,0.078,0.182,0.105,0.269c-0.143,0.196,0.144,0.38,0.053,0.621l-0.07-0.003l0.018,0.186
					c0,0.002,0.001,0.004,0.001,0.007c0.001-0.058,0.006-0.109,0.003-0.143c0.177,0.034,0.014,0.39,0.202,0.505
					c0.011,0.059-0.072,0.075-0.012,0.138c0.093,0,0.092,0.109,0.14,0.175c0.018,0.008,0.036,0.016,0.052,0.028l0.031-0.038
					l0.018,0.106c-0.006-0.029-0.024-0.051-0.049-0.067l-0.008,0.01c-0.018-0.007-0.032-0.021-0.044-0.038
					c-0.024-0.01-0.051-0.021-0.064-0.026c-0.007,0.005-0.001,0.024,0.005,0.043c0.027,0.037,0.057,0.071,0.088,0.105
					c0.143,0.035,0.324,0.111,0.354,0.279l0.151,0.012c0.029,0.11,0.131,0.189,0.176,0.273l0.033-0.041
					c-0.009,0.078,0.074,0.076,0.128,0.093c-0.003,0.022-0.018,0.037-0.021,0.059c0.085,0.105,0.236,0.117,0.269,0.194
					c-0.123-0.019-0.003,0.022-0.138-0.005c0.094,0.028,0.067,0.143,0.165,0.137c0.089,0.072,0.028,0.109,0.036,0.161
					c0.038-0.085,0.15,0.023,0.193,0.011c0.026,0.132,0.196,0.106,0.281,0.212c-0.026-0.015-0.051-0.04-0.067-0.025
					c0.017,0.075,0.06,0.033,0.094,0.071c-0.006-0.004-0.009,0.003-0.02,0.006l0.038,0.042c-0.015-0.01-0.033-0.016-0.04-0.02
					c-0.031,0.03,0.017,0.092,0.069,0.12c0.044-0.023,0.136,0.144,0.21,0.103c-0.035,0.063,0.132,0.178,0.058,0.22
					c0.075,0.076,0.161,0.052,0.24,0.084c0.046,0.084,0.072,0.098,0.063,0.175c0.039,0.022,0.076,0.065,0.107,0.035l-0.06-0.08
					c0.155,0.097,0.111,0.237,0.299,0.292c-0.042,0.001,0.021,0.059-0.021,0.059l0.093,0.039c-0.046,0.044-0.095,0.009-0.155,0.052
					l0.02,0.02c0.012,0.009,0.023,0.018,0.027,0.027l0.062,0.063c0.024-0.016,0.101,0.024,0.143,0.01l-0.054,0.051
					c0.105,0.057,0.214,0.069,0.343,0.151c-0.016,0.025,0.004,0.167-0.033,0.188l0.14,0.141c0.022-0.014,0.038-0.027-0.004-0.069
					c-0.04-0.028-0.071-0.043-0.045-0.04c0.02,0.016,0.034,0.028,0.045,0.04c0.045,0.031,0.101,0.078,0.101,0.134l0.268,0.087
					c-0.086,0.024,0.072,0.098,0.012,0.136c0.065,0.035,0.057,0.102,0.13,0.071c0.003,0.096-0.118-0.064-0.114,0.021
					c0.054,0.135,0.256,0.069,0.173,0.188c0.203,0.04-0.149-0.269,0.058-0.145l0.03,0.099c0.068,0.049,0.126,0.106,0.208,0.183
					c0.119,0.106,0.16,0.287,0.112,0.446l-0.023-0.044c-0.116,0.11-0.191,0.209-0.23,0.28l-0.049-0.061
					c-0.073,0.047-0.073,0.2-0.151,0.149c0.035-0.023,0.038-0.049,0.048-0.064c-0.135,0.051-0.112,0.117-0.25,0.2l-0.051,0.051
					c0.048,0.035,0.118,0.048,0.141,0.064c-0.16,0.079-0.109,0.028-0.256,0.082c0.04,0.032,0.012,0.064-0.015,0.11
					c-0.15,0.064-0.204,0.043-0.249,0.056c-0.042,0.002-0.096,0.019-0.193-0.076c-0.033-0.008-0.013,0.03-0.009,0.043
					c-0.052-0.12-0.127-0.07-0.1-0.152c0.024,0.036,0.064,0.057,0.093,0.038c-0.022-0.058-0.103-0.077-0.153-0.127
					c-0.03,0.019,0.056,0.134-0.063,0.072c-0.183-0.108-0.017-0.281-0.256-0.344c0.01-0.046-0.06-0.165-0.04-0.204L20.8,21.369
					c-0.043,0.007-0.081,0.021-0.114-0.022c0.024-0.006,0.032-0.027,0.039-0.051l-0.064-0.062c-0.106-0.033-0.276-0.173-0.383-0.192
					c0.028-0.057-0.078-0.117-0.011-0.145c0.027,0.024,0.053,0.059,0.08,0.037c-0.001-0.005-0.006-0.01-0.008-0.014l-0.077-0.075
					c-0.034-0.017-0.068-0.026-0.087-0.013c0.051,0.128-0.119-0.066-0.054,0.068c-0.039-0.042-0.064-0.123-0.104-0.13
					c0-0.02,0.035-0.074,0.079-0.087l-0.034-0.033c-0.04-0.016-0.088-0.036-0.096-0.078c-0.106-0.014-0.002,0.15-0.095,0.119
					c-0.039-0.076,0.067-0.027,0.015-0.098l-0.134,0.054c-0.103-0.199-0.185-0.074-0.262-0.26c0.106,0.014,0.093,0.055,0.185,0.12
					c0.001-0.046,0.001-0.081,0.067-0.074c-0.027,0.022,0.013,0.041,0.039,0.076l0.015-0.119l-0.208-0.202
					c-0.037-0.014-0.138-0.094-0.187-0.063c0-0.023,0-0.023,0.014-0.029c-0.04-0.03-0.066-0.054-0.092-0.031l0.039,0.064
					c-0.134-0.009-0.11-0.158-0.187-0.114l0.016-0.011c-0.077-0.118-0.158-0.108-0.25-0.209c0.055-0.125-0.065-0.146-0.102-0.268
					c0.052,0.094-0.094,0.038-0.121,0.083c0.065,0.054,0.132,0.015,0.171,0.103c-0.027-0.012-0.08-0.025-0.054,0.022
					c-0.198-0.103-0.156-0.235-0.261-0.365l-0.027,0.046l0.002-0.104c-0.032,0.075-0.077-0.001-0.133-0.03l0.027,0.005
					c-0.053-0.059-0.131-0.096-0.158-0.085c-0.066-0.077,0.053-0.011,0.014-0.064l-0.093-0.031c-0.012-0.075,0.04,0.018,0.028-0.057
					c-0.08-0.013-0.106-0.072-0.211-0.121c0.027-0.023,0.067-0.039,0.042-0.074c0.079,0.071,0.067-0.016,0.094-0.039
					c0.025,0.028,0.072,0.061,0.124,0.097L18.06,18.7c-0.021,0.038-0.098-0.003-0.05,0.085c-0.053-0.013-0.118-0.09-0.159-0.061
					c0.061,0.049,0.074,0.087,0.055,0.12c-0.032-0.04-0.17-0.167-0.055-0.178c-0.082-0.029-0.194-0.064-0.267-0.081
					c0,0.009-0.003,0.016-0.012,0.022c-0.013-0.018-0.026-0.023-0.039-0.03c0.012,0,0.03,0.004,0.051,0.008
					c0.003-0.032-0.039-0.079-0.05-0.112c0.067,0.019,0.197,0.161,0.199,0.057c-0.119-0.09-0.156-0.212-0.262-0.295l-0.014,0.064
					c-0.036-0.096-0.179-0.053-0.245-0.143c0.025-0.024,0.078-0.072,0.025-0.113c-0.026,0.003-0.048,0.05-0.089-0.004
					c0.013,0.039,0.007,0.059,0.003,0.077c0.017,0.04,0.029,0.076,0.033,0.106c-0.044-0.06-0.041-0.079-0.033-0.106
					c-0.041-0.093-0.12-0.203-0.203-0.301c-0.003-0.002-0.007-0.004-0.01-0.005c-0.045,0.026-0.109,0.021-0.071,0.09
					c-0.089-0.028-0.058-0.082-0.141-0.105l-0.025,0.035c-0.053-0.023-0.072-0.021-0.11-0.058c0.002,0.128-0.275-0.013-0.253,0.048
					c-0.104-0.101-0.315-0.154-0.498-0.167c-0.052-0.005-0.101-0.019-0.143-0.038l0.075-0.026c-0.119-0.035-0.196-0.16-0.251-0.216
					c-0.063-0.069-0.129-0.14-0.19-0.207c-0.123-0.135-0.231-0.261-0.28-0.367c0.051-0.04,0.037,0.07,0.103,0.081
					c0.026-0.047-0.083-0.159-0.022-0.179c0.062,0.13,0.094-0.046,0.142,0.086c-0.08,0.098,0.102,0.189,0.008,0.235
					c0.034,0.027,0.092-0.035,0.097-0.057c0.048,0.133,0.225,0.246,0.216,0.387c-0.02-0.029-0.043-0.048-0.048-0.079
					c-0.06,0.019,0.034,0.081,0.008,0.128l0.121,0.015c0.035,0.072,0.106,0.127,0.186,0.143c0.227,0.055,0.448,0.095,0.669,0.135
					c0.146,0.021,0.281,0.062,0.409,0.116c0.002-0.001,0.003-0.001,0.005-0.002c0.002,0.002,0.004,0.005,0.005,0.007
					c0.063,0.027,0.127,0.051,0.183,0.091c0.136,0.059,0.227,0.113,0.313,0.223l-0.01-0.017l0.026,0.035
					c-0.006-0.008-0.01-0.011-0.016-0.019c0.063,0.111,0.224,0.229,0.348,0.311l-0.397-0.387c-0.195-0.19-0.442-0.32-0.709-0.372
					l-0.825-0.162c-0.067-0.013-0.125-0.053-0.161-0.111l-1.321-2.103c-0.01,0.07-0.041,0.137-0.089,0.125l-0.088-0.084
					c0.057-0.009,0.072-0.118,0.012-0.206c0.069-0.02,0.079,0.144,0.151,0.143l-0.142-0.225c-0.054-0.021-0.165-0.03-0.232-0.121
					l0-0.107c0.074,0.031,0.011,0.063,0.066,0.119c0.023,0.072,0.106,0.07,0.106,0.017c0-0.001,0-0.001,0.001-0.002l-0.012-0.018
					c-0.005-0.005-0.01-0.009-0.014-0.014c0.003,0.001,0.005,0.002,0.007,0.003l-0.092-0.147l-0.05-0.002l0.02-0.024l0.026,0.02
					l-0.048-0.076l-0.084-0.015c0.003-0.011,0.079,0.024,0.053-0.035l-0.086-0.136c-0.01,0.038-0.032,0.036-0.093,0.125
					l-0.085-0.094l0.063-0.032c-0.05-0.146-0.127-0.096-0.073-0.266c0.042,0.062,0.054,0.157,0.113,0.171
					C13.796,14.352,13.744,14.271,13.764,14.204z"/>
				<polygon id="XMLID_774_" class="st5" points="18.119,15.053 18.104,15.055 18.082,15.005 				"/>
				<path id="XMLID_773_" class="st5" d="M18.112,14.986c0.048,0.027,0.068,0.08,0.072,0.105
					C18.161,15.073,18.13,15.018,18.112,14.986z"/>
				<path id="XMLID_772_" class="st5" d="M34.555,13.703c0,0,0.109,0.102,0.118,0.115c-0.007-0.011-0.118-0.074-0.118-0.074
					L34.555,13.703z"/>
				<polygon id="XMLID_771_" class="st5" points="20.909,21.59 20.895,21.618 20.855,21.577 				"/>
				<path id="XMLID_770_" class="st5" d="M20.449,21.191l-0.092-0.066c0.013,0.006,0.039,0.018,0.053,0.001L20.449,21.191z"/>
				<polygon id="XMLID_769_" class="st5" points="19.557,20.349 19.557,20.314 19.623,20.345 				"/>
				<polygon id="XMLID_768_" class="st5" points="17.824,18.793 17.784,18.774 17.692,18.708 				"/>
				<path id="XMLID_767_" class="st5" d="M16.481,17.895c0.023-0.014,0.01-0.033,0.039-0.037
					C16.559,17.894,16.537,17.908,16.481,17.895z"/>
				<path id="XMLID_766_" class="st5" d="M15.003,16.639c-0.063-0.054-0.225-0.137-0.205-0.296c0.037,0.07,0.02,0.083,0.048,0.133
					c0.029-0.112,0.149,0.064,0.075-0.13c-0.054-0.057-0.211-0.087-0.171-0.189c0.013-0.015,0.066-0.003,0.082-0.02
					c-0.01,0.018-0.023,0.036-0.022,0.054l0.128,0.089c0.111,0.155,0.133,0.227,0.119,0.337l-0.069-0.054
					C15.019,16.595,14.998,16.614,15.003,16.639z"/>
				<path id="XMLID_765_" class="st5" d="M14.458,15.953c-0.089-0.118-0.074-0.276-0.129-0.326c0.026,0.022,0.057,0.056,0.085,0.022
					c0.043-0.06-0.071-0.043-0.071-0.097l0.063-0.085l0.008,0.127c0.095,0.008,0.154,0.095,0.194,0.154
					c-0.037,0.092-0.077-0.128-0.137-0.055c0.045,0.09,0.106,0.071,0.16,0.18c-0.043-0.047-0.063-0.022-0.103-0.028l0.228,0.181
					C14.662,15.966,14.55,16.079,14.458,15.953z"/>
				<polygon id="XMLID_764_" class="st5" points="14.684,16.091 14.647,16.129 14.67,16.094 				"/>
				<path id="XMLID_763_" class="st5" d="M14.801,16.063c0.049,0.023,0.044,0.048,0.031,0.072
					C14.84,16.125,14.835,16.104,14.801,16.063z"/>
				<path id="XMLID_762_" class="st5" d="M15.074,16.549c0.017-0.013,0.049,0.025,0.06,0.034l-0.015,0.056L15.074,16.549z"/>
				<path id="XMLID_761_" class="st5" d="M14.002,29.704c0.085-0.078,0.179-0.146,0.233-0.17
					C14.192,29.576,14.072,29.67,14.002,29.704z"/>
				<polygon id="XMLID_760_" class="st5" points="14.13,29.656 14.123,29.678 14.008,29.743 				"/>
				<path id="XMLID_759_" class="st5" d="M13.917,14.594c0.014,0.052-0.046,0.017-0.075,0.022
					C13.859,14.602,13.888,14.598,13.917,14.594z"/>
				<path id="XMLID_758_" class="st5" d="M35.327,31.284l-0.072,0.084l-0.003-0.158c-0.101-0.035-0.166-0.15-0.219-0.223
					c0.03-0.107,0.097,0.164,0.154,0.088c-0.057-0.121-0.121-0.105-0.2-0.24c0.056,0.06,0.073,0.032,0.118,0.042
					c0.003-0.009-0.295-0.227-0.296-0.219c0.12,0.069,0.209-0.076,0.349,0.093c0.133,0.163,0.127,0.364,0.186,0.443
					c-0.028-0.035-0.063-0.086-0.092-0.05C35.207,31.206,35.329,31.216,35.327,31.284z"/>
				<polygon id="XMLID_757_" class="st5" points="34.868,30.581 34.897,30.536 34.883,30.578 				"/>
				<path id="XMLID_756_" class="st5" d="M35.152,15.408c0.019-0.033,0.053-0.1,0.032-0.108l0.125-0.158
					c0,0-0.038,0.068-0.076,0.135C35.193,15.343,35.152,15.408,35.152,15.408z"/>
				<path id="XMLID_755_" class="st5" d="M34.696,30.535c0.005-0.021,0.014-0.043,0.007-0.063l-0.164-0.095
					c-0.173-0.165-0.223-0.242-0.248-0.37l0.093,0.054c-0.044-0.035-0.03-0.059-0.044-0.086c0.086,0.055,0.296,0.134,0.328,0.318
					c-0.062-0.079-0.051-0.093-0.098-0.148c0.008,0.13-0.184-0.058-0.035,0.154c0.077,0.059,0.254,0.088,0.242,0.209
					C34.769,30.526,34.708,30.515,34.696,30.535z"/>
				<path id="XMLID_754_" class="st5" d="M34.749,30.618c-0.06-0.024-0.061-0.053-0.054-0.081
					C34.689,30.549,34.701,30.572,34.749,30.618z"/>
				<path id="XMLID_753_" class="st5" d="M34.298,30.086c-0.013,0.017-0.061-0.023-0.076-0.032l-0.005-0.065L34.298,30.086z"/>
				<polygon id="XMLID_752_" class="st5" points="33.159,17.626 33.096,17.655 33.204,17.506 				"/>
				<path id="XMLID_751_" class="st5" d="M32.473,28.436c-0.03,0.002-0.021,0.027-0.057,0.018
					C32.38,28.402,32.411,28.397,32.473,28.436z"/>
				<polygon id="XMLID_750_" class="st5" points="30.561,27.569 30.362,27.543 30.417,27.544 				"/>
				<polygon id="XMLID_749_" class="st5" points="28.794,22.035 28.725,22.121 28.519,22.339 				"/>
				<path id="XMLID_748_" class="st5" d="M28.192,24.337c-0.021,0.001-0.062,0.007-0.061,0.028l-0.104-0.021
					C28.026,24.34,28.191,24.332,28.192,24.337z"/>
				<polygon id="XMLID_747_" class="st5" points="27.303,24.55 27.269,24.613 27.239,24.599 				"/>
				<path id="XMLID_746_" class="st5" d="M25.348,25.225c0.108-0.061,0.082-0.013-0.031,0.089
					C25.343,25.266,25.3,25.283,25.348,25.225z"/>
				<polygon id="XMLID_745_" class="st5" points="29.113,25.473 29.099,25.511 29.047,25.435 				"/>
				<polygon id="XMLID_744_" class="st5" points="35.403,32.357 35.373,32.368 35.36,32.317 				"/>
				<path id="XMLID_743_" class="st5" d="M35.415,32.65c-0.022,0-0.045-0.019-0.069-0.036C35.373,32.553,35.391,32.632,35.415,32.65
					z"/>
				<polygon id="XMLID_742_" class="st5" points="30.032,33.856 30.047,33.854 30.075,33.911 				"/>
				<path id="XMLID_741_" class="st5" d="M30.043,33.928c-0.045-0.031-0.074-0.076-0.088-0.1
					C29.986,33.837,30.03,33.893,30.043,33.928z"/>
			</g>
		</g>
	</g>
</g>
<g id="圖層_4" class="st20">
</g>
</svg>
