<?xml version="1.0" encoding="utf-8"?>
<!-- Generator: Adobe Illustrator 22.0.1, SVG Export Plug-In . SVG Version: 6.00 Build 0)  -->
<svg version="1.1" xmlns="http://www.w3.org/2000/svg" xmlns:xlink="http://www.w3.org/1999/xlink" x="0px" y="0px"
	 viewBox="0 0 374.856 478.876" style="enable-background:new 0 0 374.856 478.876;" xml:space="preserve">
<style type="text/css">
	.st0{fill:#EFEFEF;}
	.st1{fill:#15AF83;}
	.st2{fill:#171C61;}
	.st3{fill:#17AD7B;}
	.st4{opacity:0.6;}
	.st5{fill:#FFFFFF;}
	.st6{fill:#165987;}
	.st7{fill:#D64B3C;}
	.st8{fill:#D65677;}
	.st9{fill:#DD722A;}
	.st10{fill:#005E9E;}
	.st11{fill:#D67327;}
	.st12{clip-path:url(#SVGID_6_);fill:none;}
	.st13{clip-path:url(#SVGID_6_);}
	.st14{fill:none;stroke:#FFFFFF;stroke-width:0.6;stroke-miterlimit:10;}
	.st15{fill:#113272;}
	.st16{opacity:0.2;}
	.st17{opacity:0.2;fill:#171C61;}
	.st18{opacity:0.4;}
	.st19{opacity:0.8;}
	.st20{display:none;}
	.st21{display:inline;fill:#C30D23;}
</style>
<g id="圖層_3">
</g>
<g id="圖層_2">
</g>
<g id="圖層_1">
	<rect class="st5" width="374.856" height="478.876"/>
	<g>
		<path class="st2" d="M22.796,26.072h4.53l1.77,10.83c0.33,2.34,0.69,4.71,1.021,7.079h0.119c0.45-2.369,0.931-4.77,1.41-7.079
			l2.58-10.83h3.78l2.579,10.83c0.48,2.279,0.931,4.68,1.41,7.079h0.15c0.33-2.399,0.66-4.77,0.99-7.079l1.739-10.83h4.23
			l-4.11,22.199h-5.52l-2.49-10.979c-0.359-1.74-0.689-3.449-0.96-5.13h-0.12c-0.3,1.681-0.6,3.39-0.96,5.13l-2.43,10.979h-5.43
			L22.796,26.072z"/>
		<path class="st2" d="M55.076,24.333h4.379v6.029l-0.18,3.15c1.351-1.261,3-2.46,5.28-2.46c3.63,0,5.189,2.52,5.189,6.749v10.47
			h-4.41v-9.93c0-2.579-0.72-3.51-2.369-3.51c-1.38,0-2.25,0.66-3.511,1.891v11.549h-4.379V24.333z"/>
		<path class="st2" d="M76.436,54.691l0.811-3.39c0.3,0.09,0.78,0.21,1.17,0.21c1.71,0,2.67-1.08,3.149-2.55l0.301-0.99
			l-6.54-16.499h4.439l2.67,7.8c0.51,1.5,0.93,3.119,1.41,4.739h0.15c0.39-1.56,0.81-3.18,1.199-4.739l2.311-7.8h4.229l-5.97,17.309
			c-1.47,3.96-3.27,6.24-7.02,6.24C77.756,55.021,77.096,54.901,76.436,54.691z"/>
		<path class="st2" d="M108.865,31.862c0-1.8-1.44-2.819-3.78-2.819c-1.859,0-3.42,0.81-4.8,2.369l-2.46-2.279
			c1.891-2.221,4.53-3.66,7.74-3.66c4.35,0,7.529,2.01,7.529,6c0,4.409-6.54,4.92-6.09,9.09h-3.869
			C102.505,35.852,108.865,34.772,108.865,31.862z M105.085,42.632c1.8,0,3.12,1.2,3.12,2.94c0,1.739-1.32,2.97-3.12,2.97
			s-3.12-1.23-3.12-2.97C101.965,43.832,103.285,42.632,105.085,42.632z"/>
	</g>
	<g class="st16">
		<g>
			<g>
				<path class="st2" d="M167.142,247.048l-0.452-0.469C166.902,246.799,167.039,246.941,167.142,247.048z"/>
				<path class="st2" d="M170.235,250.594l0.112,0.056C170.185,250.502,170.112,250.448,170.235,250.594z"/>
				<path class="st2" d="M193.801,263.638c0.194-0.205,0.462-0.504,0.832-0.934L193.801,263.638z"/>
				<path class="st2" d="M149.387,228.476l-0.623-0.46C149.62,228.856,149.282,228.447,149.387,228.476z"/>
				<path class="st2" d="M154.503,145.493c0.058-0.038,0.125-0.082,0.179-0.118C154.69,145.351,154.614,145.407,154.503,145.493z"/>
				<path class="st2" d="M240.829,198.943c-0.003,0.018-0.006,0.032-0.009,0.052C240.871,198.819,240.862,198.85,240.829,198.943z"
					/>
				<path class="st2" d="M133.048,189.172c0.001-0.041,0.005-0.087,0.013-0.132C133.049,188.421,133.037,188.693,133.048,189.172z"
					/>
				<path class="st2" d="M216.381,237.681c0.017-0.022,0.028-0.035,0.044-0.055c-0.02,0.02-0.046,0.045-0.064,0.063L216.381,237.681
					z"/>
				<path class="st2" d="M214.945,239.336c0.539-0.773,0.913-1.15,1.415-1.647l-0.718,0.319L214.945,239.336z"/>
				<path class="st2" d="M241.962,188.745c-0.061-0.669-0.134-1.464-0.188-2.056c-0.14,0.368,0.149,2.712,0.119,3.896
					c-0.072,0-0.138-0.26-0.197-0.696c0.004-0.258,0.019-0.513,0.019-0.771c0-3.347-0.319-6.617-0.9-9.796
					c-0.083-0.514-0.18-1.066-0.297-1.641c-0.086-0.339-0.175-0.69-0.263-1.039c-0.143-0.608-0.294-1.212-0.458-1.812
					c-0.013-0.053-0.027-0.108-0.041-0.161c-0.121-0.497-0.24-0.981-0.352-1.44c-0.108-0.46-0.284-0.87-0.399-1.255
					c-0.094-0.206-0.21-0.47-0.309-0.689c-1.424-4.085-3.324-7.944-5.632-11.517c0.085,0.096,0.179,0.204,0.044-0.05
					c-0.037-0.01-0.131-0.116-0.256-0.281c-9.68-14.746-26.352-24.49-45.309-24.49c-1.236,0-2.458,0.056-3.674,0.138
					c-0.513-0.059-0.967-0.124-0.897-0.216c-0.807,0.103-1.869,0.209-3.068,0.327c-1.193,0.137-2.543,0.217-3.812,0.66
					c-0.581,0.1,0.471-0.199,0.155-0.174c-0.636,0.268-1.421,0.491-2.9,0.825l0.16-0.067c-1.023,0.295-1.931,0.445-2.718,0.754
					c-0.797,0.279-1.531,0.536-2.281,0.798c-0.749,0.265-1.525,0.507-2.377,0.832c-0.83,0.382-1.75,0.806-2.838,1.307l0.371-0.049
					c-0.934,0.433-1.146,0.494-1.594,0.678c-0.433,0.295,0.024,0.087,0.594-0.182c-2.002,0.952-5.361,3.158-6.086,3.415
					c-1.272,0.948,0.449-0.167-0.82,0.78l-0.379,0.192l-0.265,0.315c-0.84,0.609-1.316,0.851-1.385,0.826
					c0.207-0.145,0.564-0.444,0.778-0.61c-0.561,0.377-1.338,0.932-1.977,1.478c-0.614,0.577-1.139,1.084-1.32,1.229l1.158-0.992
					c-1.551,1.511-3.449,3.006-4.978,4.847c-0.786,0.896-1.631,1.737-2.326,2.654c-0.679,0.929-1.329,1.835-1.924,2.692l0.234-0.222
					c-0.456,0.653-0.783,1.103-1.047,1.459c-0.236,0.373-0.411,0.65-0.593,0.937c-0.37,0.566-0.766,1.163-1.654,2.67l0.055-0.115
					c-0.169,0.317-0.359,0.674-0.563,1.058c-0.18,0.403-0.38,0.831-0.59,1.26c0.326-0.826-0.834,1.442-0.394,0.365
					c-0.702,1.584-0.868,1.977-0.959,2.243c-0.041,0.129-0.075,0.236-0.138,0.436c-0.072,0.198-0.174,0.501-0.31,1.06l-0.265,0.459
					c-0.19,0.759-0.172,0.835-0.747,2.477c0.417-1.368-0.514,1.001-0.061-0.539c-0.347,0.849-0.683,1.582-0.853,2.271
					c-0.172,0.689-0.305,1.294-0.425,1.839c-0.24,1.089-0.428,1.93-0.78,2.715c-0.171,1.681,0.926-3.041,0.744-2.116
					c0.276-0.741-0.162,1.387-0.471,2.489c-0.185,1.148-0.619,1.902-1.06,4.823c0.036-0.289,0.039-0.313,0.075-0.601
					c-0.277,1.081-0.134,2.157-0.313,3.5c0.114,0.766-0.097,1.756,0.087,1.98l0.091-2.698c-0.013,0.766,0.019,1.51,0.025,2.374
					c0.003,0.432,0,0.894-0.02,1.404c0,0.51,0,1.065,0,1.7c-0.044-0.195-0.114-0.942-0.155-1.457
					c-0.04,0.738,0.072,1.417,0.032,2.183c-0.1-0.105-0.131-0.926-0.16-1.925c-0.001-0.999,0.092-2.174,0.049-2.999
					c-0.123,0.791-0.015,3.109-0.185,2.282c0.252,1.184-0.029,2.915,0.347,4.895l-0.126-0.122c0.043,0.316,0.133,0.974,0.21,1.54
					c-0.097-0.343-0.184-0.687-0.254-1.034c0.285,1.597,0.219,3.124,0.574,4.647c-0.286-1.605-0.262-1.793-0.207-1.748
					c0.052,0.045,0.144,0.321,0.102-0.366c0.732,3.611,0.105,2.57,0.867,5.792c-0.106-0.544-0.151-0.973,0.012-0.402
					c0.167,0.839,0.446,1.935,0.518,2.462c0.902,2.842-0.037-0.466,0.413,0.722c0.188,1.002,0.482,1.381,0.975,2.585l-0.108,0.049
					c1.138,3.194,0.515,0.763,1.623,3.597l-0.663-1.117l0.671,1.443l-0.254-0.246c0.377,0.781,0.675,1.268,0.914,1.778
					c0.253,0.503,0.466,1.022,0.869,1.769c-0.116-0.385,0.297,0.093,1.02,1.402c0.468,0.909-0.397-0.431,0.725,1.374
					c-0.306-0.374-0.686-0.764-1.04-1.629c-0.079-0.064-0.293-0.379-0.374-0.446c0.434,1.025,1.405,2.396,1.796,3.061
					c-0.152-0.255-0.331-0.563-0.412-0.727c0.564,0.863,1.225,1.659,1.834,2.486c0.235,0.428-0.009,0.13-0.252-0.167
					c0.352,0.517,0.671,0.821,1.223,1.554c-0.219-0.134-0.267-0.026-1.08-1.049c0.619,0.766,1.218,1.545,1.858,2.29
					c0.091,0.178,0.869,1.243,0.599,0.969c0.977,1.325,2.789,2.905,4.288,4.436c0.093,0.065,0.266,0.21,0.602,0.521
					c1.431,1.437,2.569,2.78,4.341,4.37l0.816,1.087c1.319,1.316-1.11-1.47,1.087,0.722c1.562,1.546,0.462,0.694,0.961,1.282
					c0.826,0.72,2.254,1.986,3.525,3.56c-0.48-0.466-0.818-0.867-1.253-1.314l0.979,1.19c-1.381-1.249-2.256-2.267-1.371-1.12
					c0.398-0.075,4.096,4.347,4.47,4.295l0.629,0.798c-0.199-0.21-0.232-0.245-0.429-0.453c1.201,1.571,1.176,0.911,2.822,2.849
					c0.568,0.68,0.941,1.175,0.511,0.749l1.37,1.423c0.376,0.434,0.239,0.367-0.135-0.065l1.993,2.255l-0.022-0.01
					c0.32,0.29,1.018,0.974,1.355,1.311c0.464,0.61-0.278-0.267-0.182-0.092l1.142,1.217c0.37,0.577-0.578-0.431-1.322-1.308
					c0.761,1.396,0.96,0.999,2.981,3.688l-1.048-1.174c0.512,0.894,1.354,1.79,2.392,3.237c-0.22-0.364-2.041-2.932-0.824-1.593
					c0.306,0.409,0.724,0.934,1.398,1.642c-0.088,0.085,0.55,0.793,1.302,1.717l-0.173,0.036c0.847,0.971,0.845,0.842,1.378,1.386
					c0.895,1.124,0.976,1.439,1.109,1.766c1.413,1.814-0.836-1.364,0.883,0.746c1.141,1.536,2.02,2.552,3.488,4.309
					c0.773,1.094-0.219-0.127,0.038,0.281l0.818,0.868c0.173,0.233,0.086,0.182,0.041,0.156c0.641,0.768,0.179-0.032,1.154,1.201
					c0.101,0.073,0.182,0.163,0.425,0.504c0.222,0.328,0.511,0.756,0.839,1.24c0.429-0.538,0.917-1.15,1.399-1.754
					c0.376-0.48,0.742-0.972,1.028-1.441c0.325-0.355-0.063,0.243,0.074,0.163c1.517-2.199,1.31-1.877,2.523-3.712l1.234-1.406
					c-0.944,1.004,0.032-0.46,0.903-1.732c-0.064,0.064-0.115,0.116-0.176,0.177c0.121-0.151,0.246-0.308,0.37-0.462
					c-0.066,0.098-0.125,0.183-0.194,0.285c0.064-0.064,0.132-0.131,0.198-0.197c0.065-0.115,0.121-0.214,0.181-0.32
					c0.247-0.308,0.501-0.623,0.759-0.943c0.042,0.024-0.113,0.302-0.313,0.633c-0.21,0.211-0.421,0.423-0.627,0.63
					c-0.303,0.534-0.573,1.043-0.422,1.002c0.085-0.136,0.264-0.386,0.467-0.655c-0.078,0.14-0.123,0.234-0.065,0.186
					c0.065-0.055,0.197-0.276,0.415-0.615l0.484-0.326l0.031-0.149l2.106-2.42c1.322-1.882,2.392-3.59,4.697-6.416
					c-0.486,0.774,0.035,0.285,0.119,0.421c-0.761,0.658-1.778,2.191-3.003,3.627c0.641-0.748,0.559-0.535,0.418-0.325l2.055-2.67
					c0.046,0.139,0.532-0.486,1.14-1.123c-0.622,0.343,1.516-2.005,2.355-3.092c0.118-0.01-0.033,0.294-1.141,1.545
					c1.346-1.272,1.334-1.997,2.657-3.246c-0.269,0.307-0.424,0.463-0.5,0.612c0.577-0.763,2.165-2.469,1.855-2.011l-0.269,0.306
					c1.81-2.016,5.533-6.114,5.666-6.543c0.038-0.001-0.057,0.431-0.138,0.58c0.651-0.931,1.297-1.87,1.949-2.804
					c0.335-0.355,0.674-0.711,1.013-1.068c0.274-0.006,0.664-0.08-0.37,1.1c0.464-0.449,1.039-1.002,1.935-2.027
					c-0.323,0.299-0.948,0.611-0.543,0.166c1.288-1.052,0.871-0.753,2.403-2.101c-0.485,0.448-0.181-0.279,0.562-1.01
					c-0.084,0.145,0.259,0.134,0.012,0.425l1.629-2.036c-0.421,0.495,0.084,0.248,0.546-0.106c-0.227,0.152,1.574-1.586,2.063-2.092
					l-0.833,0.73c1.065-1.018,1.515-1.599,1.959-2.177c0.444-0.578,0.897-1.139,1.859-2.233c-0.192,0.299-0.326,0.889,0.699-0.199
					c0.188-0.323,0.586-1.082,1.123-2.037c0.661-0.825,1.305-1.663,1.918-2.526c-0.646,1.226-1.42,2.578-2.054,3.444
					c0.743-0.822,0.288-0.164,1.297-1.482c0.331-0.336-0.149,0.367-0.521,0.854c0.328-0.393,0.651-0.79,0.959-1.2
					c0.385-0.518,0.802-1.014,1.161-1.552c-0.227,0.05,1.52-2.545,1.291-2.513c-0.328,0.618-0.707,1.205-1.073,1.801
					c-0.363,0.599-0.735,1.192-1.141,1.764c-0.233,0.035,1.088-2.202,2.487-4.527c0.418-0.558-0.018,0.594,0.058,0.575
					c0.065-0.168,0.39-0.73,0.694-1.288c0.293-0.565,0.59-1.111,0.668-1.212l-0.481,1.06c0.394-0.653,0.645-1.225,0.924-1.823
					c0.26-0.608,0.533-1.249,1.008-2.036c0.291-0.559,0.953-1.642,0.914-1.778c-0.35,0.524-0.705,0.705-0.907,0.626
					c0.289-0.649,0.571-1.301,0.835-1.963l0.028,0.109l0.144-0.386l-0.064-0.009c0.264-0.672,0.52-1.348,0.757-2.032
					c0.222-0.213-0.277,1.673,0.094,0.977c-0.032-0.053,0.129-0.604,0.181-0.838c0.241-0.617,0.048,0.307,0.473-1.069
					c-0.067-0.274,0.883-2.788,0.075-0.689c0.374-1.353,0.44-1.426,0.878-3.017c-0.149,0.32-0.111-0.457-0.002-1.418
					c0.128-0.582,0.251-1.165,0.36-1.754c0.011-0.03,0.022-0.062,0.031-0.086c0.128-0.704,0.242-1.327,0.348-1.907
					c0.082-0.583,0.158-1.123,0.233-1.656c0.176-1.065,0.23-2.119,0.34-3.452c0.059-0.243,0.131-1.535,0.192-0.982
					c-0.02-0.387-0.068-0.742-0.053-1.568c0.16-1.6-0.008,1.844,0.182,0.626C242.011,189.95,242.031,189.413,241.962,188.745z
					 M196.093,260.501c0.257-0.332,0.56-0.698,0.916-1.089C196.83,259.695,196.492,260.08,196.093,260.501z M163.793,140.152
					c-0.262,0.043-0.646,0.193-1.101,0.407C163.41,140.221,164.28,139.799,163.793,140.152z M173.724,254.651
					c0.43,0.301,0.639,0.639,1.091,1.25C174.515,255.571,173.88,254.945,173.724,254.651z"/>
				<path class="st2" d="M134.298,202.315c0.064,0.329,0.15,0.701,0.225,0.92C134.436,202.889,134.364,202.592,134.298,202.315z"/>
				<path class="st2" d="M230.478,223.221c-0.086,0.103-0.162,0.212-0.25,0.313C230.294,223.459,230.384,223.345,230.478,223.221z"
					/>
				<path class="st2" d="M194.649,262.602c-0.094,0.086-0.133,0.1-0.169,0.109C194.386,262.86,194.402,262.877,194.649,262.602z"/>
				<path class="st2" d="M149.502,228.561l-0.049-0.05c-0.033-0.022-0.052-0.032-0.066-0.035L149.502,228.561z"/>
				<path class="st2" d="M239.178,207.058c-0.154,0.4-0.269,0.614-0.343,0.756C238.851,207.845,238.952,207.674,239.178,207.058z"/>
				<path class="st2" d="M241.232,181.387l0.159,0.027l-0.174-0.748C241.258,181.104,241.235,181.137,241.232,181.387z"/>
				<path class="st2" d="M241.912,185.653c-0.05-0.163-0.168-1.785-0.127-0.291C241.835,185.519,242.025,187.712,241.912,185.653z"
					/>
				<path class="st2" d="M227.357,226.525c-0.781,0.861-1.243,1.264-0.745,1.005c1.41-1.321,0.238-0.401,1.472-1.646
					C228.345,225.506,227.082,226.907,227.357,226.525z"/>
				<path class="st2" d="M227.357,226.525c0.115-0.146,0.238-0.301,0.371-0.469C227.514,226.318,227.416,226.444,227.357,226.525z"
					/>
				<path class="st2" d="M176.745,258.737l0.089,0.048c-0.089-0.173-0.27-0.397-0.633-0.845L176.745,258.737z"/>
				<polygon class="st2" points="165.998,245.991 166.186,246.208 165.938,245.71 				"/>
				<path class="st2" d="M156.357,235.853c0.4,0.407,0.87,0.886,1.272,1.295C156.748,236.269,156.38,235.617,156.357,235.853z"/>
			</g>
		</g>
	</g>
	<g>
		<path class="st2" d="M172.856,184.097c-0.414,0.091-0.882,0.162-1.368,0.198v0.99h0.936v1.314h-0.936v0.774l1.224-0.126
			l0.018,1.422c-1.477,0.181-2.935,0.343-4.177,0.469l-0.144-1.53c0.45-0.036,0.955-0.072,1.513-0.108v-0.9h-1.008v-1.314h1.008
			v-0.864c-0.378,0-0.738,0.019-1.044,0c-0.054-0.324-0.216-0.81-0.36-1.17c1.206-0.072,2.701-0.216,3.673-0.433L172.856,184.097z
			 M183.803,189.031c-0.072-0.414-0.252-0.918-0.486-1.44c-0.216,1.692-0.702,2.143-1.891,2.143h-1.819
			c-1.71,0-2.07-0.504-2.07-2.034v-1.585c-0.306,1.009-0.72,2.251-1.26,3.133l-1.279-0.864v1.603h-1.944v-7.688
			c-1.584,0.144-3.133,0.233-4.411,0.323l-0.162-1.674l0.9-0.036v-5.33h-0.864v-1.692h7.238v1.692h-0.756v12.532
			c0.486-0.774,0.955-1.908,1.207-2.863l1.333,0.576v-0.576h1.566c-0.18-0.197-0.342-0.396-0.504-0.558l1.098-0.559h-4.124v-1.801
			h9.525v1.801h-5.005c0.774,0.721,1.53,1.711,1.873,2.377l-1.422,0.828c-0.252-0.504-0.72-1.188-1.225-1.818v2.143
			c0,0.432,0.054,0.486,0.541,0.486h1.35c0.414,0,0.504-0.181,0.559-1.44c0.288,0.233,0.918,0.486,1.368,0.612
			c-0.288-0.631-0.684-1.243-1.116-1.765l1.44-0.648c0.9,1.026,1.656,2.449,1.891,3.439L183.803,189.031z M171.289,175.581v0.829
			h1.765v-0.829H171.289z M171.289,178.534h1.765v-0.828h-1.765V178.534z M173.054,180.731v-0.9h-1.765v0.99L173.054,180.731z
			 M179.05,177.076c0.054-0.271,0.108-0.576,0.144-0.883h-3.349v-1.674h3.583c0.054-0.433,0.09-0.847,0.126-1.225l1.854,0.126
			l-0.144,1.099h3.601v1.674h-3.835c-0.054,0.307-0.09,0.612-0.144,0.883h3.709v4.537h-8.535v-4.537H179.05z M178.582,178.588
			h-0.955v1.495h0.955V178.588z M180.742,178.588h-0.973v1.495h0.973V178.588z M181.949,180.083h1.008v-1.495h-1.008V180.083z"/>
		<path class="st2" d="M204.179,188.167c0.576,0,0.702-0.18,0.774-1.404c0.414,0.271,1.224,0.54,1.764,0.648
			c-0.216,1.872-0.756,2.358-2.323,2.358h-2.646c-2.143,0-2.683-0.468-2.683-2.07v-0.811h-1.98c-0.54,1.801-1.944,2.683-6.266,3.115
			c-0.144-0.469-0.558-1.225-0.9-1.621c3.439-0.197,4.555-0.594,5.023-1.494h-1.854v-6.067h10.389v6.067h-2.323v0.792
			c0,0.45,0.144,0.486,0.864,0.486H204.179z M192.367,181.613h-1.873v-2.683h1.98l-0.288-4.268l-0.018-0.018
			c1.026-0.343,2.431-0.99,3.259-1.459l1.134,0.9c-0.756,0.396-1.639,0.738-2.467,1.044l0.018,0.433h1.854v1.116h-1.783l0.054,0.559
			h1.783v1.116h-1.711l0.036,0.576h2.503c-0.216-0.216-0.504-0.486-0.702-0.648c0.486-0.216,0.972-0.486,1.404-0.774
			c-0.306-0.198-0.612-0.396-0.9-0.558l0.811-0.721c0.324,0.162,0.63,0.36,0.972,0.576c0.27-0.252,0.504-0.522,0.684-0.774
			l0.072,0.019c-0.198-0.198-0.468-0.414-0.774-0.648c-0.45,0.342-0.9,0.63-1.369,0.847c-0.18-0.198-0.612-0.631-0.882-0.829
			c0.45-0.197,0.882-0.432,1.279-0.684c-0.27-0.162-0.541-0.324-0.792-0.45l0.811-0.721c0.288,0.145,0.576,0.324,0.882,0.505
			c0.271-0.234,0.504-0.486,0.685-0.738l1.134,0.324c-0.252,0.359-0.522,0.702-0.864,1.008c0.288,0.216,0.54,0.433,0.738,0.612
			l-0.792,0.792l1.044,0.271c-0.252,0.378-0.558,0.756-0.9,1.116c0.342,0.252,0.648,0.504,0.882,0.738l-0.774,0.738h2.953
			l0.036-0.576h-1.801v-1.116h1.891l0.036-0.559h-1.873v-1.116h1.926l0.018-0.559h-2.179v-1.242h4.124
			c-0.054,1.675-0.144,3.709-0.288,5.168h1.854v2.683h-1.98v-1.351h-11.848V181.613z M195.104,182.513h6.248v-0.595h-6.248V182.513z
			 M195.104,184.133h6.248v-0.594h-6.248V184.133z M195.104,185.808h6.248v-0.63h-6.248V185.808z M199.371,178.93
			c-0.234-0.234-0.504-0.486-0.846-0.738c-0.36,0.27-0.72,0.522-1.08,0.738H199.371z"/>
		<path class="st2" d="M184.379,202.507c-0.648,1.711-1.584,3.241-2.719,4.537c0.432,3.386,1.081,5.798,1.639,5.798
			c0.252,0,0.414-0.918,0.468-2.881c0.396,0.486,1.062,0.955,1.584,1.171c-0.306,2.971-0.882,3.745-2.323,3.745
			c-1.566,0-2.575-2.593-3.169-6.158c-0.342,0.271-0.702,0.504-1.062,0.738c-0.162-0.216-0.45-0.504-0.738-0.811h-2.125
			c0.504,0.811,1.116,1.873,1.386,2.485l-1.404,0.756c-0.198-0.54-0.612-1.332-1.008-2.07v3.024c0,0.469,0.072,0.522,0.522,0.522
			h1.296c0.415,0,0.504-0.271,0.541-1.908c0.27,0.197,0.738,0.396,1.152,0.521c-0.252-0.612-0.504-1.224-0.738-1.765l1.404-0.54
			c0.576,1.225,1.278,2.863,1.621,3.836l-1.513,0.647c-0.108-0.396-0.288-0.918-0.504-1.477c-0.198,1.657-0.666,2.125-1.783,2.125
			h-1.747c-1.584,0-1.944-0.468-1.944-1.944v-3.062h1.674l-0.342-0.611l1.116-0.541h-3.457v-4.159h5.87v3.079
			c0.522-0.324,1.008-0.702,1.458-1.116c-0.18-1.566-0.288-3.241-0.378-4.897h-7.4v0.774h6.896v1.422h-6.896
			c-0.036,3.205-0.36,8.066-1.909,11.29c-0.36-0.343-1.242-0.954-1.71-1.116c1.513-3.115,1.657-7.635,1.657-10.605v-3.457h9.309
			c-0.018-0.559-0.036-1.116-0.036-1.675h2.071v0.576l1.134-0.792c0.576,0.414,1.386,1.008,1.801,1.387l-0.667,0.504h1.44v1.692
			h-3.655c0.036,0.918,0.09,1.837,0.162,2.719c0.45-0.702,0.811-1.44,1.099-2.251L184.379,202.507z M170.911,213.798
			c0.306-1.117,0.648-2.791,0.81-3.998l1.369,0.522c-0.18,1.135-0.468,2.917-0.702,4.033L170.911,213.798z M176.403,205.928h-2.449
			v1.297h2.449V205.928z M182.255,199.861c-0.342-0.307-0.756-0.63-1.116-0.918c0,0.306,0,0.611,0,0.918H182.255z"/>
		<path class="st2" d="M206.159,199.663v3.511h-2.269v-1.494h-11.271v1.494h-2.179v-3.511h7.04c-0.126-0.396-0.288-0.792-0.45-1.116
			l2.179-0.486c0.271,0.486,0.522,1.08,0.685,1.603H206.159z M194.888,208.971h9.615v5.942h-2.215v-0.648h-7.4v0.72h-2.196v-12.243
			h11.163v5.041h-8.967V208.971z M194.888,204.579v1.386h6.806v-1.386H194.888z M194.888,210.826v1.566h7.4v-1.566H194.888z"/>
	</g>
	<g>
		<path class="st2" d="M86.612,303.931c-0.014,0.588-0.042,1.345-0.098,2.186c0.196,1.891,1.051,7.172,5.939,9.329
			c-0.518,0.405-0.995,0.966-1.219,1.442c-3.109-1.485-4.665-4.217-5.477-6.626c-0.77,2.466-2.241,5.001-5.155,6.71
			c-0.294-0.448-0.826-0.98-1.387-1.358c5.687-3.04,5.421-9.315,5.477-11.683H86.612z"/>
		<path class="st2" d="M97.809,308.848c-0.351,0.896-0.995,1.891-1.681,2.423c-0.224-0.336-0.644-0.826-0.953-1.036
			c0.645-0.379,1.303-1.093,1.639-1.751L97.809,308.848z M100.555,316.44c-0.448-0.393-1.26-0.952-2.017-1.429
			c-0.448,0.714-1.232,1.387-2.493,1.891c-0.154-0.336-0.546-0.91-0.84-1.19c1.611-0.603,2.227-1.457,2.465-2.283h-2.157v-1.373
			h2.283v-1.12h1.429v1.12h1.079c-0.224-0.266-0.476-0.56-0.729-0.784l0.896-0.603c0.378,0.295,0.812,0.757,1.009,1.051
			l-0.462,0.336h0.658v1.373H99.14c-0.014,0.126-0.042,0.238-0.07,0.364c0.812,0.448,1.849,1.078,2.381,1.499L100.555,316.44z
			 M97.907,308.204h-2.423v-1.317h2.423v-2.871h1.443v2.871h2.27v1.317h-2.27v0.84l0.701-0.518c0.378,0.224,1.541,1.064,1.835,1.288
			l-0.883,1.051c-0.35-0.42-1.163-1.204-1.653-1.639v1.429h-1.443V308.204z M96.381,306.565c-0.084-0.477-0.393-1.191-0.701-1.737
			l1.121-0.406c0.336,0.519,0.658,1.205,0.756,1.681L96.381,306.565z M101.563,304.828c-0.336,0.658-0.672,1.345-0.938,1.807
			l-1.064-0.35c0.224-0.519,0.49-1.275,0.63-1.808L101.563,304.828z M104.827,315.137c-0.63,0.7-1.709,1.513-2.605,1.933
			c-0.266-0.294-0.729-0.756-1.064-1.05c0.84-0.393,1.821-1.163,2.311-1.751L104.827,315.137z M103.819,306.817
			c0.07-0.309,0.14-0.616,0.196-0.925h-2.311v-1.429h6.611v1.429h-2.549c-0.112,0.322-0.224,0.631-0.336,0.925h2.465v7.382h-5.771
			v-7.382H103.819z M106.326,308.063h-2.704v0.854h2.704V308.063z M106.326,310.067h-2.704v0.868h2.704V310.067z M106.326,312.084
			h-2.704v0.868h2.704V312.084z M106.326,314.297c0.771,0.519,1.807,1.289,2.325,1.821l-1.261,0.896
			c-0.462-0.519-1.485-1.345-2.241-1.905L106.326,314.297z"/>
		<path class="st2" d="M115.912,314.521c0.882-0.099,1.793-0.196,2.689-0.294l0.028,1.442c-2.409,0.309-5.015,0.588-6.863,0.784
			l-0.21-1.513c0.785-0.07,1.765-0.154,2.815-0.266v-1.051h-2.101v-1.345h2.101v-0.938h-2.367v-1.345h1.513
			c-0.21-0.421-0.574-0.938-0.896-1.331l0.714-0.392h-1.75v-1.373h1.905v-0.658l-0.714,0.504c-0.196-0.477-0.7-1.177-1.148-1.681
			l1.008-0.658c0.28,0.294,0.603,0.672,0.854,1.022v-1.499h1.303v2.97h0.645v-2.97h1.331v1.625c0.294-0.378,0.588-0.771,0.756-1.093
			l1.303,0.715c-0.561,0.602-1.148,1.204-1.597,1.61l-0.462-0.294v0.406h1.821v1.373h-1.821l0.953,0.336
			c-0.238,0.476-0.504,0.952-0.756,1.387h1.232v1.345h-2.283v0.938h2.101v1.345h-2.101V314.521z M113.979,308.274
			c0.336,0.405,0.672,0.882,0.812,1.246l-0.827,0.477h1.499c0.266-0.49,0.588-1.177,0.771-1.723H113.979z M124.331,309.002h-1.064
			v6.107c0,0.854-0.168,1.275-0.687,1.541c-0.49,0.28-1.232,0.336-2.325,0.322c-0.084-0.435-0.336-1.148-0.56-1.583
			c0.714,0.028,1.415,0.028,1.639,0.028c0.238,0,0.322-0.07,0.322-0.309v-6.107h-3.012v-1.555h3.012v-3.502h1.611v3.502h1.064
			V309.002z M119.806,313.415c-0.084-0.827-0.518-2.144-1.008-3.166l1.373-0.462c0.518,0.98,0.995,2.255,1.106,3.109
			L119.806,313.415z"/>
		<path class="st2" d="M133.567,305.892l1.191,0.336c-0.645,5.674-2.689,9.119-5.799,10.744c-0.28-0.406-0.98-1.106-1.401-1.4
			c1.597-0.743,2.886-1.905,3.782-3.559c-0.462-0.588-1.148-1.316-1.807-1.989c-0.224,0.393-0.462,0.757-0.7,1.065
			c-0.294-0.28-1.022-0.812-1.401-1.065c1.219-1.4,2.045-3.712,2.479-6.121l1.681,0.294c-0.126,0.603-0.266,1.177-0.42,1.751h2.073
			L133.567,305.892z M130.653,307.531c-0.126,0.364-0.252,0.7-0.392,1.037c0.561,0.546,1.261,1.19,1.807,1.778
			c0.308-0.84,0.532-1.778,0.7-2.815H130.653z M139.338,312.434c-0.462-0.687-1.401-1.709-2.255-2.62v7.187h-1.765v-13.083h1.765
			v4.65l0.616-0.448c0.967,0.952,2.381,2.325,3.054,3.18L139.338,312.434z"/>
		<path class="st2" d="M152.93,310.346c1.009,0.841,2.396,1.527,3.838,1.892c-0.35,0.336-0.854,0.98-1.106,1.429
			c-0.841-0.28-1.639-0.658-2.368-1.135v4.427h-1.737v-4.931h1.051c-0.63-0.505-1.191-1.051-1.639-1.682h-1.443
			c-0.462,0.617-1.05,1.163-1.681,1.667h1.19v0.967c0,1.331-0.406,3.096-3.193,4.118c-0.224-0.406-0.785-1.036-1.149-1.345
			c2.339-0.771,2.62-1.947,2.62-2.844v-0.504c-0.798,0.546-1.653,0.98-2.549,1.303c-0.238-0.406-0.729-1.022-1.093-1.373
			c1.401-0.406,2.788-1.135,3.782-1.989h-2.228v-5.953h9.988v5.953H152.93z M146.893,306.747h2.451v-1.009h-2.451V306.747z
			 M146.893,309.002h2.451v-1.008h-2.451V309.002z M153.477,305.738h-2.451v1.009h2.451V305.738z M153.477,307.994h-2.451v1.008
			h2.451V307.994z"/>
		<path class="st2" d="M172.477,306.075c0,0,0,0.56-0.014,0.756c-0.182,6.262-0.336,8.488-0.911,9.231
			c-0.392,0.518-0.784,0.672-1.345,0.771c-0.532,0.069-1.373,0.056-2.199,0.027c-0.028-0.462-0.252-1.162-0.546-1.625
			c0.896,0.084,1.723,0.084,2.087,0.084c0.28,0,0.434-0.056,0.616-0.237c0.406-0.448,0.588-2.55,0.743-7.494h-2.998
			c-0.364,0.84-0.798,1.61-1.232,2.213c-0.224-0.21-0.7-0.532-1.079-0.784v6.541h-3.74v1.022h-1.513v-10.407h1.583
			c0.182-0.7,0.35-1.597,0.406-2.255l1.821,0.252c-0.238,0.7-0.49,1.4-0.729,2.003h2.171v2.27c0.812-1.177,1.485-2.872,1.891-4.511
			l1.583,0.364c-0.14,0.603-0.336,1.19-0.546,1.779H172.477z M164.086,307.63h-2.227v2.269h2.227V307.63z M164.086,314.087v-2.745
			h-2.227v2.745H164.086z M168.737,313.331c-0.392-0.841-1.261-2.214-1.947-3.236l1.302-0.742c0.701,0.967,1.625,2.297,2.059,3.109
			L168.737,313.331z"/>
		<path class="st2" d="M180.046,312.742c-0.182-0.434-0.49-1.093-0.798-1.723v5.967h-1.513v-5.238
			c-0.364,1.078-0.799,2.059-1.275,2.759c-0.154-0.462-0.49-1.092-0.729-1.471c0.785-1.092,1.527-3.039,1.877-4.692h-1.555v-1.541
			h1.681v-2.885h1.513v2.885h1.4v1.541h-1.4v0.658c0.392,0.547,1.429,2.157,1.653,2.55L180.046,312.742z M189.025,314.801h-0.757
			v0.602c0,0.701-0.14,1.051-0.602,1.275c-0.462,0.21-1.121,0.224-2.003,0.224c-0.07-0.392-0.252-0.938-0.435-1.316
			c0.519,0.028,1.093,0.014,1.261,0.014c0.182,0,0.238-0.042,0.238-0.21v-0.588h-3.936v2.087h-1.499v-2.087h-0.854v-1.219h0.854
			v-3.502h2.689v-0.532h-3.292v-1.177h1.737v-0.589h-1.149v-1.12h1.149v-0.574h-1.443v-1.148h1.443v-1.022h1.541v1.022h1.541v-1.022
			h1.555v1.022h1.569v1.148h-1.569v0.574h1.345v1.12h-1.345v0.589h1.821v1.177h-3.404v0.532h2.787v3.502h0.757V314.801z
			 M182.792,311.229v0.603h1.19v-0.603H182.792z M182.792,313.583h1.19v-0.673h-1.19V313.583z M183.968,306.663h1.541v-0.574h-1.541
			V306.663z M183.968,308.372h1.541v-0.589h-1.541V308.372z M185.481,311.229v0.603h1.247v-0.603H185.481z M186.728,313.583v-0.673
			h-1.247v0.673H186.728z"/>
		<path class="st2" d="M204.915,305.921h-2.423c0.28,0.28,0.561,0.588,0.729,0.812l-1.163,0.812h0.953v2.647
			c0,0.237-0.014,0.364,0.028,0.42c0.028,0.056,0.084,0.07,0.14,0.07h0.21c0.07,0,0.126-0.015,0.168-0.042
			c0.042-0.028,0.084-0.099,0.112-0.267s0.042-0.532,0.056-0.98c0.252,0.225,0.714,0.448,1.079,0.574
			c-0.028,0.532-0.098,1.106-0.182,1.358c-0.112,0.225-0.266,0.406-0.462,0.519c-0.196,0.099-0.49,0.154-0.742,0.154h-0.687
			c-0.35,0-0.714-0.112-0.953-0.336c-0.21-0.225-0.322-0.477-0.336-1.177l-0.546,1.022c-0.252-0.154-0.603-0.322-0.98-0.532
			c-0.182,0.28-0.448,0.519-0.798,0.742h0.182v0.812h5.533v1.303h-3.698c1.148,0.477,2.759,1.219,3.572,1.793l-1.205,1.135
			c-0.756-0.574-2.354-1.401-3.53-1.934l1.121-0.994h-1.793v3.166h-1.625v-3.166h-5.519v-1.303h5.519v-0.812h0.196
			c-0.182-0.168-0.378-0.336-0.546-0.435v0.07c-1.723,0.238-3.516,0.462-4.875,0.645l-0.182-1.316
			c0.532-0.057,1.19-0.126,1.877-0.211v-1.708h-1.737v-1.149h3.502c-0.266-0.392-0.729-0.896-1.079-1.274l0.532-0.42h-0.938
			c-0.448,0.574-0.91,1.064-1.387,1.457c-0.238-0.309-0.784-0.869-1.121-1.149c0.854-0.602,1.653-1.513,2.101-2.437l1.471,0.448
			c-0.07,0.14-0.154,0.294-0.238,0.434h3.067v1.247h-2.045c0.336,0.336,0.658,0.687,0.84,0.938l-0.924,0.756h1.106v1.149h-1.653
			v1.54c0.532-0.069,1.079-0.14,1.611-0.21l0.042,1.064c0.659-0.252,1.079-0.532,1.345-0.826c-0.392-0.196-0.798-0.393-1.148-0.546
			l0.588-0.925c0.308,0.126,0.644,0.28,0.995,0.435c0.014-0.07,0.014-0.154,0.014-0.225v-0.435h-1.316v-1.092h4.23
			c-0.238-0.364-0.714-0.896-1.092-1.275l0.518-0.35h-1.092c-0.393,0.574-0.799,1.064-1.233,1.457
			c-0.28-0.267-0.896-0.757-1.261-0.995c0.812-0.63,1.527-1.597,1.905-2.591l1.499,0.392c-0.07,0.168-0.14,0.322-0.21,0.49h3.894
			L204.915,305.921z M197.085,314.437c-0.854,1.093-2.339,2.003-3.852,2.438c-0.252-0.406-0.743-1.037-1.106-1.373
			c1.4-0.28,2.843-0.868,3.6-1.569L197.085,314.437z M200.474,309.114c0,0.267-0.028,0.519-0.07,0.771
			c0.406,0.196,0.756,0.393,1.037,0.546v-0.182v-1.611h-0.967V309.114z"/>
		<path class="st2" d="M219.67,312.168c-0.392-0.435-1.106-1.051-1.807-1.625c-0.28,0.463-0.588,0.869-0.938,1.205
			c-0.238-0.196-0.701-0.505-1.093-0.715c1.247,1.653,3.25,3.138,5.351,3.908c-0.406,0.351-0.953,1.064-1.233,1.527
			c-1.695-0.785-3.278-2.046-4.539-3.544v4.076h-1.751v-3.992c-1.26,1.471-2.83,2.689-4.496,3.46
			c-0.266-0.406-0.812-1.079-1.177-1.429c2.269-0.883,4.455-2.62,5.673-4.511v-3.236h-5.099v-1.639h5.099v-1.723h1.751v1.723h5.281
			v1.639h-5.281v3.138c0.07,0.112,0.14,0.211,0.21,0.322c0.896-0.798,1.484-2.045,1.765-3.375l1.625,0.294
			c-0.126,0.518-0.28,1.022-0.462,1.499c0.798,0.616,1.765,1.358,2.283,1.835L219.67,312.168z M212.456,307.685
			c-0.14,0.519-0.308,1.022-0.504,1.513c0.504,0.435,1.036,0.896,1.358,1.232l-1.121,1.163c-0.21-0.267-0.56-0.616-0.938-0.98
			c-0.462,0.756-0.995,1.415-1.611,1.919c-0.266-0.294-0.924-0.841-1.289-1.093c1.232-0.882,2.087-2.354,2.479-4.062
			L212.456,307.685z"/>
		<path class="st2" d="M235.84,305.724v11.248h-1.779v-0.687h-6.653v0.7h-1.695v-11.262h3.586c0.154-0.603,0.308-1.274,0.378-1.835
			l2.017,0.224c-0.21,0.561-0.434,1.107-0.658,1.611H235.84z M227.408,307.321v1.443h6.653v-1.443H227.408z M227.408,310.304v1.443
			h6.653v-1.443H227.408z M234.061,314.745v-1.456h-6.653v1.456H234.061z"/>
		<path class="st2" d="M253.075,314.689v1.653H240.58v-1.653h3.236c0.238-1.135,0.49-2.451,0.729-3.824h-2.381v-1.639h2.633
			c0.126-0.799,0.238-1.611,0.336-2.382h-3.754v-1.652h10.786v1.652h-5.183c-0.112,0.771-0.238,1.583-0.364,2.382h2.592l0.294-0.056
			l1.331,0.098c-0.084,1.639-0.266,3.614-0.462,5.421H253.075z M246.365,310.865c-0.238,1.387-0.476,2.703-0.7,3.824h2.927
			c0.14-1.274,0.266-2.676,0.351-3.824H246.365z"/>
		<path class="st2" d="M268.839,307.279c-0.504,1.331-1.233,2.521-2.115,3.53c0.336,2.633,0.84,4.51,1.275,4.51
			c0.196,0,0.322-0.714,0.364-2.241c0.308,0.379,0.826,0.743,1.232,0.911c-0.238,2.311-0.687,2.913-1.807,2.913
			c-1.218,0-2.003-2.017-2.465-4.79c-0.266,0.21-0.546,0.392-0.826,0.574c-0.126-0.168-0.35-0.393-0.574-0.631h-1.653
			c0.392,0.631,0.868,1.457,1.078,1.934l-1.092,0.588c-0.154-0.42-0.477-1.036-0.785-1.61v2.353c0,0.364,0.056,0.406,0.406,0.406
			h1.009c0.322,0,0.392-0.21,0.42-1.484c0.21,0.154,0.575,0.309,0.896,0.406c-0.196-0.477-0.392-0.952-0.574-1.373l1.093-0.42
			c0.448,0.952,0.995,2.228,1.261,2.983l-1.177,0.505c-0.084-0.309-0.224-0.715-0.392-1.149c-0.154,1.289-0.519,1.653-1.387,1.653
			h-1.359c-1.233,0-1.513-0.364-1.513-1.513v-2.382h1.303l-0.266-0.476l0.868-0.421h-2.689v-3.235h4.566v2.396
			c0.406-0.252,0.785-0.547,1.135-0.869c-0.14-1.219-0.224-2.521-0.294-3.81h-5.757v0.603h5.365v1.106h-5.365
			c-0.028,2.493-0.28,6.275-1.485,8.782c-0.28-0.266-0.966-0.742-1.331-0.868c1.177-2.423,1.289-5.939,1.289-8.25v-2.689h7.242
			c-0.014-0.435-0.028-0.869-0.028-1.303h1.611v0.448l0.883-0.617c0.448,0.322,1.078,0.785,1.4,1.079l-0.518,0.393h1.121v1.316
			h-2.844c0.028,0.714,0.07,1.429,0.126,2.115c0.351-0.547,0.63-1.121,0.854-1.751L268.839,307.279z M258.361,316.062
			c0.238-0.869,0.504-2.172,0.63-3.11l1.064,0.406c-0.14,0.883-0.364,2.27-0.546,3.138L258.361,316.062z M262.633,309.94h-1.905
			v1.009h1.905V309.94z M267.186,305.22c-0.266-0.238-0.588-0.49-0.869-0.715c0,0.238,0,0.477,0,0.715H267.186z"/>
		<path class="st2" d="M91.949,355.822v3.18h-1.653v-1.765h-8.965v1.765h-1.569v-3.18h1.849c-0.224-0.406-0.504-0.84-0.771-1.204
			l1.485-0.589c0.434,0.519,0.882,1.205,1.106,1.682l-0.252,0.111h1.737v-1.904h1.667v1.904h1.653l-0.084-0.027
			c0.35-0.49,0.771-1.247,0.995-1.793l1.765,0.518c-0.336,0.477-0.672,0.925-0.98,1.303H91.949z M80.784,361.706h10.198v5.309
			h-1.667v-0.322h-6.948v0.336h-1.583V361.706z M89.525,357.91v3.207h-7.41v-3.207H89.525z M82.367,362.91v0.729h2.605v-0.729
			H82.367z M84.973,365.488v-0.729h-2.605v0.729H84.973z M87.872,359.1H83.67v0.826h4.202V359.1z M89.315,362.91h-2.731v0.729h2.731
			V362.91z M89.315,365.488v-0.729h-2.731v0.729H89.315z"/>
		<path class="st2" d="M100.022,362.896c-0.238-0.351-0.63-0.868-1.022-1.345v5.435h-1.639v-5.141
			c-0.532,0.477-1.051,0.911-1.597,1.232c-0.112-0.462-0.434-1.387-0.63-1.694c1.401-0.771,2.76-2.144,3.6-3.628H95.54v-1.499h2.381
			c-0.266-0.49-0.658-1.078-1.022-1.513l1.275-0.784c0.476,0.532,1.008,1.246,1.247,1.765l-0.785,0.532h0.995l0.294-0.07
			l0.882,0.645c-0.406,1.022-0.967,2.018-1.611,2.928c0.56,0.49,1.583,1.484,1.849,1.765L100.022,362.896z M106.886,365.488
			c0.238,0,0.28-0.183,0.322-1.583c0.28,0.252,0.938,0.504,1.359,0.616c-0.14,1.905-0.532,2.409-1.485,2.409h-0.925
			c-1.232,0-1.499-0.477-1.499-1.863v-2.745h-0.785c-0.196,2.283-0.742,3.824-3.432,4.692c-0.14-0.378-0.546-0.938-0.827-1.219
			c2.241-0.645,2.62-1.751,2.773-3.474h-0.924v-7.845h6.206v7.845H106.2v2.745c0,0.379,0.028,0.421,0.224,0.421H106.886z
			 M102.978,356.705h3.096v-0.91h-3.096V356.705z M102.978,358.834h3.096v-0.896h-3.096V358.834z M102.978,360.991h3.096v-0.91
			h-3.096V360.991z"/>
		<path class="st2" d="M122.538,365.572c0.448,0,0.546-0.141,0.603-1.093c0.322,0.21,0.952,0.42,1.373,0.504
			c-0.168,1.457-0.588,1.835-1.807,1.835h-2.059c-1.667,0-2.087-0.364-2.087-1.61v-0.631h-1.541
			c-0.42,1.401-1.513,2.087-4.875,2.424c-0.112-0.364-0.434-0.953-0.7-1.261c2.675-0.154,3.544-0.463,3.908-1.163h-1.443v-4.721
			h8.082v4.721h-1.807v0.616c0,0.351,0.112,0.379,0.672,0.379H122.538z M113.349,360.472h-1.457v-2.087h1.541l-0.224-3.319
			l-0.014-0.015c0.798-0.266,1.891-0.77,2.535-1.134l0.882,0.7c-0.588,0.308-1.274,0.574-1.919,0.812l0.014,0.336h1.443v0.868
			h-1.387l0.042,0.435h1.387v0.868h-1.331l0.028,0.448h1.947c-0.168-0.168-0.392-0.378-0.546-0.504
			c0.378-0.168,0.756-0.378,1.092-0.603c-0.238-0.154-0.476-0.308-0.7-0.435l0.63-0.56c0.252,0.126,0.49,0.28,0.756,0.448
			c0.21-0.196,0.392-0.406,0.532-0.603l0.056,0.014c-0.154-0.154-0.364-0.322-0.603-0.504c-0.35,0.266-0.7,0.49-1.064,0.658
			c-0.14-0.154-0.476-0.49-0.687-0.645c0.35-0.154,0.687-0.336,0.995-0.532c-0.21-0.126-0.42-0.252-0.616-0.35l0.63-0.561
			c0.224,0.112,0.448,0.252,0.686,0.392c0.21-0.182,0.393-0.378,0.533-0.574l0.882,0.253c-0.196,0.279-0.406,0.546-0.672,0.784
			c0.224,0.168,0.42,0.336,0.574,0.476l-0.616,0.617l0.812,0.21c-0.196,0.294-0.435,0.588-0.701,0.868
			c0.266,0.196,0.504,0.393,0.687,0.574l-0.603,0.574h2.297l0.028-0.448h-1.401v-0.868h1.471l0.028-0.435h-1.457v-0.868h1.499
			l0.014-0.435h-1.695v-0.966h3.208c-0.042,1.303-0.112,2.885-0.224,4.02h1.443v2.087h-1.541v-1.05h-9.217V360.472z
			 M115.478,361.174h4.86v-0.463h-4.86V361.174z M115.478,362.434h4.86v-0.463h-4.86V362.434z M115.478,363.737h4.86v-0.49h-4.86
			V363.737z M118.798,358.385c-0.182-0.182-0.393-0.378-0.659-0.574c-0.28,0.21-0.56,0.406-0.84,0.574H118.798z"/>
		<path class="st2" d="M137.349,363.05v3.95h-1.625v-3.95h-3.194v-1.401h3.194v-0.854h-2.059v-4.034h-0.98v1.331l-0.574,0.042
			c-0.042,1.485-0.21,3.292-0.925,5.028c0.575,0.589,1.093,1.149,1.443,1.598l-0.98,1.274c-0.28-0.42-0.7-0.925-1.163-1.457
			c-0.504,0.812-1.163,1.597-2.017,2.312c-0.224-0.309-0.714-0.812-1.05-1.022c0.896-0.742,1.568-1.541,2.059-2.409
			c-0.603-0.616-1.233-1.247-1.765-1.779c0.238-0.896,0.476-2.059,0.672-3.292l-0.729,0.042l-0.154-1.498l1.106-0.057
			c0.14-0.98,0.238-1.975,0.294-2.857l1.415,0.056c-0.07,0.854-0.182,1.808-0.308,2.746l0.728-0.042v-0.883h1.373v0.799l0.574-0.028
			v-1.303h0.98v-1.442h1.513v1.442h2.494v-1.442h1.583v1.442h1.079v1.4h-1.079v4.034h-1.905v0.854h3.04v1.401H137.349z
			 M129.785,358.301c-0.182,1.037-0.364,2.031-0.561,2.928c0.28,0.252,0.574,0.546,0.869,0.826c0.476-1.33,0.602-2.675,0.63-3.824
			L129.785,358.301z M135.444,363.737c-0.448,1.12-1.247,2.353-2.059,3.025c-0.238-0.351-0.728-0.868-1.079-1.135
			c0.757-0.504,1.555-1.442,1.961-2.312L135.444,363.737z M135.178,356.76v0.729h2.494v-0.729H135.178z M135.178,359.465h2.494
			v-0.757h-2.494V359.465z M138.862,363.331c0.603,0.854,1.415,2.017,1.779,2.745l-1.274,0.574
			c-0.336-0.729-1.093-1.919-1.709-2.829L138.862,363.331z"/>
		<path class="st2" d="M151.46,354.688c-0.084,0.126-0.168,0.252-0.266,0.378c1.247,1.471,3.432,2.717,5.813,3.277
			c-0.406,0.364-0.953,1.093-1.191,1.569c-2.241-0.673-4.216-1.976-5.645-3.628c-1.541,1.61-3.656,3.025-5.715,3.824
			c-0.224-0.463-0.645-1.163-1.023-1.611c2.676-0.799,5.379-2.731,6.668-4.763L151.46,354.688z M146.767,359.688h1.765v1.583
			c0,1.863-0.308,4.175-3.082,5.743c-0.294-0.393-0.952-0.967-1.4-1.247c2.451-1.303,2.717-3.081,2.717-4.538V359.688z
			 M152.034,359.661h1.779v7.34h-1.779V359.661z"/>
		<path class="st2" d="M172.841,365.319v1.345h-10.295v-1.345h4.245v-0.812h-2.97v-1.008c-0.252,0.322-0.532,0.603-0.798,0.854
			c-0.098-0.295-0.42-0.995-0.659-1.387c-0.168,1.456-0.574,3.067-1.499,4.202c-0.252-0.309-0.938-0.896-1.289-1.079
			c1.135-1.4,1.247-3.39,1.247-4.832v-2.493h1.891c-0.224-0.238-0.504-0.49-0.7-0.645c1.009-0.154,2.115-0.351,3.194-0.603
			c-0.883-0.225-1.793-0.42-2.62-0.574l0.785-0.603h-2.409v-1.303h4.875c-0.168-0.266-0.364-0.519-0.532-0.729l1.121-0.546
			c0.322,0.364,0.7,0.854,0.938,1.274h4.847v1.303h-2.031l0.672,0.42c-0.504,0.238-1.093,0.477-1.723,0.701
			c0.827,0.224,1.583,0.448,2.213,0.658l-0.785,0.645h2.06v1.33h-10.17v1.177c0,0.448-0.014,0.938-0.07,1.471
			c0.672-0.658,1.247-1.555,1.597-2.521l1.415,0.421c-0.07,0.182-0.14,0.364-0.224,0.56h1.625v-0.854h1.639v0.854h3.46v1.303h-3.46
			v0.729h3.054v1.274h-3.054v0.812H172.841z M166.79,363.232v-0.729h-2.284c-0.154,0.253-0.308,0.49-0.476,0.729H166.79z
			 M169.647,358.764c-0.687-0.238-1.527-0.477-2.409-0.715c-1.009,0.267-2.031,0.504-3.012,0.715H169.647z M164.604,356.341
			c0.883,0.196,1.807,0.406,2.731,0.631c0.672-0.183,1.317-0.406,1.835-0.631H164.604z"/>
		<path class="st2" d="M181.335,361.565c-0.504,0.141-0.995,0.309-1.513,0.463v4.986h-1.527v-4.524
			c-0.756,0.224-1.457,0.448-2.101,0.616l-0.406-1.583c0.7-0.154,1.555-0.378,2.507-0.645v-2.675h-0.938
			c-0.154,0.687-0.322,1.288-0.518,1.793c-0.252-0.21-0.869-0.589-1.177-0.771c0.434-1.106,0.672-2.857,0.798-4.511l1.387,0.238
			c-0.056,0.561-0.126,1.106-0.21,1.667h0.658v-2.689h1.527v2.689h1.163v1.583h-1.163v2.255l1.289-0.364L181.335,361.565z
			 M188.871,356.089c0,0-0.014,0.561-0.028,0.756c-0.266,6.248-0.519,8.531-1.051,9.231c-0.322,0.477-0.63,0.63-1.092,0.729
			c-0.393,0.07-0.981,0.07-1.583,0.042c-0.042-0.477-0.21-1.163-0.462-1.625c0.519,0.056,0.98,0.056,1.247,0.056
			c0.21,0,0.351-0.056,0.519-0.266c0.35-0.448,0.602-2.354,0.826-7.382h-0.07c-0.687,3.529-2.129,7.172-4.384,9.034
			c-0.322-0.321-0.896-0.728-1.359-0.966c2.241-1.611,3.642-4.791,4.342-8.068h-0.658c-0.616,2.283-1.793,4.79-3.208,6.135
			c-0.308-0.322-0.84-0.7-1.274-0.938c1.387-1.093,2.479-3.165,3.096-5.196h-0.714c-0.406,0.966-0.896,1.835-1.443,2.507
			c-0.266-0.266-0.925-0.729-1.261-0.938c1.106-1.219,1.877-3.222,2.297-5.28l1.513,0.279c-0.14,0.645-0.322,1.275-0.518,1.892
			H188.871z"/>
		<path class="st2" d="M204.775,356.243c-0.532,0.476-1.134,0.924-1.653,1.288c0.617,0.322,1.289,0.589,2.003,0.785
			c-0.351,0.321-0.771,0.91-0.995,1.316c-0.574-0.183-1.093-0.406-1.597-0.673v1.205c0,0.336,0.028,0.448,0.21,0.448h0.686
			c0.196,0,0.533-0.014,0.714-0.07c0.028,0.336,0.056,0.812,0.112,1.135c-0.196,0.07-0.518,0.084-0.812,0.084h-0.868
			c-1.177,0-1.401-0.477-1.401-1.61v-0.812h-1.289c-0.042,0.98-0.378,2.03-1.541,2.773c-0.154-0.238-0.561-0.645-0.84-0.896v0.42
			h-2.774c-0.056,0.322-0.098,0.658-0.14,0.967h2.914c0,0-0.014,0.378-0.028,0.574c-0.154,1.891-0.322,2.802-0.686,3.166
			c-0.294,0.321-0.63,0.434-1.121,0.462c-0.378,0.042-1.107,0.042-1.849,0.014c-0.028-0.434-0.224-1.009-0.477-1.387
			c0.701,0.057,1.387,0.07,1.695,0.07c0.224,0,0.378-0.014,0.504-0.141c0.168-0.153,0.294-0.602,0.393-1.555h-2.942
			c0.196-0.91,0.42-2.297,0.546-3.403h2.479v-0.98h-2.031v-0.225c-0.42,0.21-0.84,0.393-1.274,0.547
			c-0.196-0.364-0.603-0.925-0.896-1.219c0.826-0.238,1.625-0.616,2.353-1.079c-0.378-0.28-0.882-0.603-1.303-0.84l0.953-0.883
			c0.476,0.238,1.064,0.574,1.471,0.883c0.294-0.28,0.574-0.574,0.812-0.896h-2.76v-1.303h3.656l0.28-0.07l1.022,0.504
			c-0.561,1.373-1.499,2.466-2.633,3.32h1.835v2.787c0.868-0.574,0.994-1.246,0.994-1.877v-0.994h2.676
			c-1.219-0.967-2.157-2.214-2.83-3.712l1.331-0.393c0.21,0.477,0.477,0.925,0.798,1.316c0.462-0.392,0.98-0.896,1.317-1.288
			l1.19,0.854c-0.574,0.476-1.176,0.98-1.708,1.358c0.238,0.224,0.49,0.435,0.742,0.63c0.532-0.42,1.177-1.008,1.555-1.456
			L204.775,356.243z M203.752,362.434c-0.35,1.022-0.868,1.835-1.541,2.493c0.63,0.35,1.205,0.7,1.625,0.98l-0.84,1.106
			c-0.476-0.336-1.148-0.771-1.905-1.219c-0.883,0.547-1.961,0.938-3.124,1.205c-0.14-0.364-0.434-0.896-0.7-1.205
			c0.911-0.154,1.765-0.42,2.493-0.784c-0.686-0.378-1.345-0.757-1.947-1.079l0.56-0.672h-0.336v-1.106h4.552l0.252-0.042
			L203.752,362.434z M199.102,363.26c0.588,0.308,1.233,0.63,1.863,0.98c0.336-0.294,0.63-0.616,0.883-0.98H199.102z"/>
		<path class="st2" d="M220.469,363.667c-0.561,0.378-1.205,0.771-1.807,1.078c0.7,0.393,1.513,0.687,2.451,0.854
			c-0.322,0.337-0.756,0.953-0.966,1.387c-2.438-0.602-3.964-1.946-4.903-4.006h-1.429v2.186l2.353-0.448
			c-0.084,0.406-0.14,1.036-0.14,1.372c-3.082,0.673-3.572,0.785-3.866,0.98v0.015c-0.084-0.393-0.406-1.051-0.603-1.345
			c0.294-0.196,0.714-0.589,0.714-1.303v-1.457h-1.163v-1.4h2.045v-0.967h-1.751v-1.387h1.751v-0.967h-2.045v0.406
			c0,2.438-0.224,6.079-1.695,8.377c-0.336-0.267-1.064-0.7-1.485-0.854c1.387-2.157,1.499-5.295,1.499-7.522v-4.146h10.771v3.74
			h-1.891v0.967h2.017v1.387h-2.017v0.967h2.619v1.4h-1.471L220.469,363.667z M211.111,356.844h7.41v-0.924h-7.41V356.844z
			 M214.683,359.226h2.087v-0.967h-2.087V359.226z M214.683,361.58h2.087v-0.967h-2.087V361.58z M216.812,362.98
			c0.21,0.351,0.476,0.658,0.771,0.938c0.476-0.28,0.995-0.63,1.401-0.938H216.812z"/>
		<path class="st2" d="M237.045,365.011v1.555h-12.677v-1.555h5.407v-1.961h-4.118v-1.541h4.118v-1.373h1.737v1.373h4.23v1.541
			h-4.23v1.961H237.045z M235.308,360.515c-0.196-0.28-0.448-0.575-0.756-0.925c-7.13,0.294-8.068,0.308-8.727,0.519
			c-0.084-0.337-0.364-1.149-0.546-1.583c0.322-0.07,0.617-0.28,0.98-0.631c0.28-0.252,0.953-0.924,1.583-1.778h-3.109v-1.541
			h11.836v1.541h-6.569c-0.63,0.812-1.303,1.568-1.975,2.227l5.113-0.126c-0.448-0.406-0.896-0.812-1.317-1.135l1.331-0.896
			c1.232,0.953,2.843,2.325,3.614,3.306L235.308,360.515z"/>
		<path class="st2" d="M253.243,359.423v1.807h-12.887v-1.807H253.243z"/>
		<path class="st2" d="M263.754,365.04c0.519,0.069,1.065,0.098,1.653,0.098c0.742,0,3.053,0,4.006-0.028
			c-0.252,0.393-0.518,1.19-0.602,1.695h-3.488c-2.619,0-4.538-0.435-5.813-2.466c-0.462,1.093-1.079,2.004-1.877,2.689
			c-0.266-0.294-0.98-0.882-1.359-1.106c1.513-1.135,2.213-3.081,2.465-5.463l1.695,0.154c-0.07,0.588-0.182,1.162-0.294,1.695
			c0.42,1.148,1.064,1.82,1.877,2.241V359.8h-2.983v-1.597h7.704v1.597h-2.984v1.653h3.838v1.568h-3.838V365.04z M258.543,358.904
			h-1.639v-3.502h5.197c-0.14-0.393-0.308-0.799-0.49-1.162l1.681-0.463c0.28,0.49,0.574,1.121,0.728,1.625h4.861v3.502h-1.723
			v-1.933h-8.614V358.904z"/>
		<path class="st2" d="M276.843,363.218c-0.182-0.462-0.533-1.148-0.869-1.779v5.575h-1.583v-5.211
			c-0.406,1.163-0.868,2.255-1.387,3.025c-0.14-0.504-0.49-1.232-0.714-1.652c0.658-0.925,1.317-2.409,1.723-3.754h-1.541v-1.555
			h1.919v-1.682c-0.448,0.084-0.896,0.168-1.316,0.225c-0.07-0.378-0.266-0.938-0.448-1.289c1.429-0.252,3.011-0.672,4.048-1.162
			l0.883,1.372c-0.49,0.196-1.023,0.364-1.583,0.505v2.031h1.569v1.555h-1.569v0.224c0.364,0.406,1.499,1.863,1.751,2.214
			L276.843,363.218z M285.415,365.25v1.484h-8.096v-1.484h3.376v-1.275h-2.662v-1.429h2.662v-1.134
			c-0.743,0.056-1.499,0.098-2.199,0.126c-0.056-0.364-0.238-0.925-0.406-1.261c2.017-0.126,4.3-0.393,5.715-0.757l1.022,1.261
			c-0.742,0.183-1.597,0.322-2.479,0.448v1.316h2.507v1.429h-2.507v1.275H285.415z M284.742,359.339h-6.64v-4.819h6.64V359.339z
			 M283.132,355.921h-3.488v2.017h3.488V355.921z"/>
		<path class="st2" d="M291.331,358.834c0,2.354-0.182,5.855-1.345,8.139c-0.336-0.238-1.092-0.588-1.526-0.715
			c1.121-2.156,1.218-5.28,1.218-7.409v-3.727h5.225c-0.098-0.322-0.21-0.658-0.336-0.925l1.695-0.378
			c0.196,0.393,0.393,0.869,0.533,1.303h4.623v1.555h-10.086V358.834z M300.59,362.448c-0.588,1.093-1.429,1.933-2.465,2.592
			c1.064,0.252,2.241,0.406,3.516,0.504c-0.322,0.351-0.742,1.022-0.952,1.442c-1.709-0.168-3.222-0.49-4.539-1.022
			c-1.331,0.477-2.844,0.771-4.426,0.938c-0.126-0.392-0.435-1.022-0.687-1.387c1.163-0.098,2.283-0.238,3.306-0.49
			c-0.644-0.434-1.219-0.952-1.695-1.526l0.561-0.225h-1.485v-1.303h7.536l0.294-0.056L300.59,362.448z M293.502,361.412v-2.186
			h-1.891v-1.303h1.891v-0.925h1.569v0.925h2.549v-0.925h1.653v0.925h2.017v1.303h-2.017v2.186H293.502z M294.385,363.274
			c0.49,0.448,1.121,0.827,1.849,1.135c0.714-0.308,1.331-0.672,1.849-1.135H294.385z M295.071,359.226v0.925h2.549v-0.925H295.071z
			"/>
		<path class="st2" d="M82.774,412.406c-0.322,0.07-0.687,0.126-1.064,0.154v0.771h0.728v1.022h-0.728v0.602l0.952-0.098
			l0.014,1.106c-1.148,0.141-2.283,0.267-3.25,0.364l-0.112-1.19c0.35-0.028,0.743-0.056,1.177-0.084v-0.7h-0.785v-1.022h0.785
			v-0.673c-0.294,0-0.574,0.014-0.812,0c-0.042-0.252-0.168-0.63-0.28-0.91c0.938-0.057,2.101-0.168,2.858-0.336L82.774,412.406z
			 M91.29,416.244c-0.056-0.322-0.196-0.714-0.378-1.12c-0.168,1.316-0.546,1.667-1.471,1.667h-1.415
			c-1.331,0-1.611-0.393-1.611-1.583v-1.233c-0.238,0.785-0.561,1.751-0.98,2.438l-0.995-0.672v1.246h-1.513v-5.98
			c-1.232,0.111-2.437,0.182-3.432,0.252l-0.126-1.303l0.7-0.028v-4.146h-0.672v-1.316h5.631v1.316h-0.588v9.75
			c0.378-0.603,0.742-1.485,0.938-2.228l1.037,0.448v-0.448h1.219c-0.14-0.154-0.267-0.309-0.393-0.435l0.854-0.434h-3.208v-1.401
			h7.41v1.401h-3.894c0.603,0.56,1.191,1.33,1.457,1.849l-1.107,0.645c-0.196-0.393-0.56-0.925-0.952-1.415v1.667
			c0,0.336,0.042,0.378,0.42,0.378h1.051c0.322,0,0.392-0.14,0.434-1.12c0.224,0.182,0.714,0.378,1.065,0.476
			c-0.225-0.49-0.533-0.966-0.869-1.372l1.121-0.505c0.7,0.799,1.289,1.905,1.471,2.676L91.29,416.244z M81.555,405.78v0.645h1.373
			v-0.645H81.555z M81.555,408.078h1.373v-0.645h-1.373V408.078z M82.928,409.787v-0.701h-1.373v0.771L82.928,409.787z
			 M87.592,406.943c0.042-0.21,0.084-0.448,0.112-0.687h-2.605v-1.303h2.788c0.042-0.336,0.07-0.658,0.098-0.952l1.443,0.098
			l-0.112,0.854h2.802v1.303h-2.984c-0.042,0.238-0.07,0.477-0.112,0.687h2.885v3.529h-6.64v-3.529H87.592z M87.228,408.12h-0.743
			v1.162h0.743V408.12z M88.909,408.12h-0.756v1.162h0.756V408.12z M89.847,409.282h0.785v-1.162h-0.785V409.282z"/>
		<path class="st2" d="M106.438,415.572c0.448,0,0.546-0.141,0.603-1.093c0.322,0.21,0.953,0.42,1.373,0.504
			c-0.168,1.457-0.588,1.835-1.807,1.835h-2.059c-1.667,0-2.087-0.364-2.087-1.61v-0.631h-1.541
			c-0.42,1.401-1.513,2.087-4.875,2.424c-0.112-0.364-0.434-0.953-0.7-1.261c2.675-0.154,3.544-0.463,3.908-1.163h-1.442v-4.721
			h8.082v4.721h-1.807v0.616c0,0.351,0.112,0.379,0.672,0.379H106.438z M97.249,410.472h-1.457v-2.087h1.541l-0.224-3.319
			l-0.014-0.015c0.798-0.266,1.891-0.77,2.535-1.134l0.882,0.7c-0.588,0.308-1.274,0.574-1.919,0.812l0.014,0.336h1.443v0.868
			h-1.387l0.042,0.435h1.387v0.868h-1.331l0.028,0.448h1.947c-0.168-0.168-0.392-0.378-0.546-0.504
			c0.378-0.168,0.756-0.378,1.092-0.603c-0.238-0.154-0.476-0.308-0.7-0.435l0.63-0.56c0.252,0.126,0.49,0.28,0.756,0.448
			c0.21-0.196,0.392-0.406,0.532-0.603l0.056,0.014c-0.154-0.154-0.364-0.322-0.603-0.504c-0.35,0.266-0.7,0.49-1.064,0.658
			c-0.14-0.154-0.476-0.49-0.687-0.645c0.35-0.154,0.687-0.336,0.995-0.532c-0.21-0.126-0.42-0.252-0.616-0.35l0.63-0.561
			c0.224,0.112,0.448,0.252,0.686,0.392c0.21-0.182,0.393-0.378,0.533-0.574l0.882,0.253c-0.196,0.279-0.406,0.546-0.672,0.784
			c0.224,0.168,0.42,0.336,0.574,0.476l-0.616,0.617l0.812,0.21c-0.196,0.294-0.435,0.588-0.701,0.868
			c0.266,0.196,0.504,0.393,0.687,0.574l-0.603,0.574h2.297l0.028-0.448h-1.401v-0.868h1.471l0.028-0.435h-1.457v-0.868h1.499
			l0.014-0.435h-1.695v-0.966h3.208c-0.042,1.303-0.112,2.885-0.224,4.02h1.443v2.087h-1.541v-1.05h-9.217V410.472z M99.378,411.174
			h4.86v-0.463h-4.86V411.174z M99.378,412.434h4.86v-0.463h-4.86V412.434z M99.378,413.737h4.86v-0.49h-4.86V413.737z
			 M102.698,408.385c-0.182-0.182-0.393-0.378-0.659-0.574c-0.28,0.21-0.56,0.406-0.84,0.574H102.698z"/>
		<path class="st2" d="M124.177,406.075c0,0,0,0.56-0.014,0.756c-0.182,6.262-0.336,8.488-0.911,9.231
			c-0.392,0.518-0.784,0.672-1.345,0.771c-0.532,0.069-1.373,0.056-2.199,0.027c-0.028-0.462-0.252-1.162-0.546-1.625
			c0.896,0.084,1.723,0.084,2.087,0.084c0.28,0,0.434-0.056,0.616-0.237c0.406-0.448,0.588-2.55,0.743-7.494h-2.998
			c-0.364,0.84-0.798,1.61-1.232,2.213c-0.224-0.21-0.7-0.532-1.079-0.784v6.541h-3.74v1.022h-1.513v-10.407h1.583
			c0.182-0.7,0.35-1.597,0.406-2.255l1.821,0.252c-0.238,0.7-0.49,1.4-0.729,2.003h2.171v2.27c0.812-1.177,1.485-2.872,1.891-4.511
			l1.583,0.364c-0.14,0.603-0.336,1.19-0.546,1.779H124.177z M115.786,407.63h-2.227v2.269h2.227V407.63z M115.786,414.087v-2.745
			h-2.227v2.745H115.786z M120.437,413.331c-0.392-0.841-1.261-2.214-1.947-3.236l1.302-0.742c0.701,0.967,1.625,2.297,2.059,3.109
			L120.437,413.331z"/>
		<path class="st2" d="M130.471,407.853v-0.546c-0.49,0.364-0.98,0.714-1.499,1.009h5.911v4.397h-4.861
			c-0.028,0.141-0.042,0.295-0.07,0.435h5.267v3.74h-1.457v-0.378h-2.591v0.434h-1.387v-2.899c-0.196,0.883-0.49,1.737-0.896,2.451
			c-0.322-0.21-1.051-0.518-1.457-0.645c1.106-1.778,1.219-4.286,1.219-5.925v-1.415l-0.322,0.168
			c-0.154-0.392-0.588-1.232-0.868-1.597c1.625-0.687,3.264-1.835,4.16-3.18l1.527,0.603c-0.084,0.126-0.168,0.238-0.252,0.351
			c1.037,0.602,2.199,1.288,2.844,1.751l-0.854,1.4c-0.378-0.309-0.924-0.673-1.527-1.064v0.91H130.471z M133.371,411.565v-0.574
			h-3.208c0,0.183-0.014,0.378-0.028,0.574H133.371z M130.191,409.465v0.462v0.084h3.18v-0.546H130.191z M133.259,406.873
			c-0.448-0.28-0.91-0.574-1.331-0.84c-0.294,0.279-0.603,0.574-0.911,0.84H133.259z M131.172,414.283v0.994h2.591v-0.994H131.172z
			 M137.573,413.176h-1.569v-7.816h1.569V413.176z M140.137,403.96v11.038c0,0.896-0.168,1.345-0.687,1.61
			c-0.49,0.28-1.289,0.336-2.409,0.336c-0.07-0.462-0.266-1.204-0.49-1.667c0.714,0.015,1.443,0.015,1.667,0.015
			s0.322-0.07,0.322-0.309V403.96H140.137z"/>
		<path class="st2" d="M148.336,404.477c-0.364,0.98-0.827,1.976-1.345,2.914v9.595h-1.681v-7.004
			c-0.294,0.351-0.588,0.701-0.868,1.009c-0.154-0.406-0.63-1.358-0.925-1.778c1.275-1.261,2.494-3.25,3.194-5.239L148.336,404.477z
			 M152.777,407.783v1.472h3.628v1.513h-3.628v1.583h3.81v1.54h-3.81v3.11h-1.709v-9.218h-0.532
			c-0.561,1.037-1.205,1.989-1.835,2.718c-0.266-0.308-0.924-0.896-1.275-1.162c1.233-1.261,2.339-3.278,2.97-5.281l1.611,0.406
			c-0.196,0.588-0.42,1.163-0.687,1.737h5.435v1.582H152.777z"/>
		<path class="st2" d="M167.28,415.193c0.364,0.028,0.742,0.042,1.121,0.042c0.784,0,3.474,0,4.468-0.042
			c-0.224,0.379-0.477,1.106-0.561,1.598h-3.992c-2.563,0-4.3-0.364-5.477-1.989c-0.504,0.924-1.149,1.667-1.961,2.227
			c-0.238-0.308-0.882-0.924-1.26-1.162c1.429-0.883,2.283-2.367,2.605-4.244l1.667,0.252c-0.098,0.448-0.21,0.868-0.322,1.274
			c0.435,0.953,1.121,1.471,2.017,1.751v-3.558h-5.463v-1.471h12.355v1.471h-5.197v1.051h4.314v1.442h-4.314V415.193z
			 M171.146,409.255h-9.735v-4.861h9.735V409.255z M169.451,405.556h-6.416v0.714h6.416V405.556z M169.451,407.363h-6.416v0.729
			h6.416V407.363z"/>
		<path class="st2" d="M181.517,408.511c-1.429,1.009-3.054,1.835-4.636,2.409c-0.252-0.378-0.827-1.148-1.191-1.484
			c2.283-0.672,4.524-1.807,6.065-3.264h-5.505v-1.555h12.271v1.555h-4.426c-0.28,0.336-0.561,0.658-0.883,0.952v3.95h-1.695
			V408.511z M177.707,411.467h9.483v5.519h-1.821v-0.504h-5.939v0.519h-1.723V411.467z M179.43,412.924v2.115h5.939v-2.115H179.43z
			 M184.711,407.167c1.485,0.616,3.264,1.625,4.286,2.354l-1.205,1.247c-0.995-0.785-2.815-1.85-4.272-2.508L184.711,407.167z"/>
		<path class="st2" d="M198.121,415.46c0,0.687-0.126,1.036-0.588,1.261c-0.448,0.21-1.079,0.238-1.933,0.238
			c-0.07-0.393-0.294-0.938-0.504-1.303c0.504,0.027,1.051,0.027,1.219,0.027c0.182,0,0.238-0.056,0.238-0.237v-1.43
			c-0.7,0.505-1.401,0.981-2.031,1.387l-0.35-0.98c-0.154,0.953-0.462,1.905-0.995,2.634c-0.238-0.322-0.868-0.925-1.163-1.12
			c0.743-1.093,0.798-2.634,0.798-3.853v-3.151h5.309V415.46z M197.337,404.954c0.588,1.009,1.331,2.381,1.667,3.222l-1.457,0.589
			c-0.084-0.253-0.21-0.547-0.35-0.883c-3.544,0.35-4.119,0.435-4.525,0.603c-0.084-0.322-0.35-1.079-0.518-1.499
			c0.252-0.056,0.49-0.252,0.771-0.561c0.28-0.308,1.135-1.387,1.653-2.493l1.681,0.477c-0.476,0.812-1.106,1.625-1.723,2.325
			l2.045-0.154c-0.21-0.406-0.406-0.799-0.588-1.135L197.337,404.954z M194.353,412.097c0,0.532-0.028,1.163-0.098,1.793
			c0.63-0.28,1.457-0.7,2.297-1.148v-0.462l-0.672,0.658c-0.35-0.364-0.995-0.91-1.527-1.345V412.097z M194.353,410.333v0.994
			l0.7-0.602c0.477,0.336,1.079,0.826,1.499,1.19v-1.583H194.353z M201.273,410.094c-1.681,0-2.129-0.616-2.129-2.171v-3.979h1.653
			v1.653h3.446v1.429h-3.446v0.925c0,0.518,0.084,0.714,0.532,0.714h2.045c0.392,0,0.98-0.042,1.289-0.112
			c0.028,0.435,0.098,1.037,0.154,1.415c-0.294,0.099-0.883,0.126-1.415,0.126H201.273z M203.038,415.446
			c0.477,0,0.574-0.238,0.645-1.527c0.336,0.252,1.008,0.504,1.443,0.603c-0.168,1.835-0.603,2.381-1.933,2.381h-1.989
			c-1.653,0-2.059-0.49-2.059-2.017v-4.398h1.653v1.4h3.544v1.471h-3.544v1.527c0,0.49,0.098,0.561,0.645,0.561H203.038z"/>
		<path class="st2" d="M211.727,406.747c-0.182,0.994-0.784,1.976-2.297,2.647c-0.196-0.336-0.645-0.826-0.967-1.078
			c1.107-0.379,1.541-0.981,1.723-1.569h-1.821v-1.289h1.919v-1.372h1.513v1.372h0.784v-1.4h1.443v1.4h1.149v-1.4h1.513v1.4h0.798
			v-1.414h1.485v1.414h1.877v1.289h-1.877v0.504c0,0.393,0.028,0.547,0.266,0.547h0.827c0.224,0,0.588-0.042,0.798-0.099
			c0.014,0.379,0.056,0.911,0.112,1.261c-0.21,0.07-0.56,0.084-0.882,0.084h-1.009c-1.316,0-1.597-0.532-1.597-1.835v-0.462h-0.798
			v2.157h-4.104v-2.157H211.727z M208.548,409.45h12.187v3.04h-1.331v2.186c0,0.728-0.154,1.12-0.686,1.345
			c-0.533,0.237-1.275,0.237-2.255,0.237c-0.07-0.434-0.308-1.036-0.504-1.429c0.616,0.028,1.345,0.028,1.541,0.015
			c0.196,0,0.266-0.042,0.266-0.196v-1.485h-2.409v3.811h-1.653v-3.811h-2.171v3.012h-1.625v-3.684h-1.359V409.45z M210.089,410.795
			v1.051h3.614v-0.812h1.653v0.812h3.754v-1.051H210.089z M214.025,406.747v0.925h1.149v-0.925H214.025z"/>
		<path class="st2" d="M228.43,412.658c-0.028-0.196-0.07-0.42-0.126-0.672c-2.83,0.42-3.334,0.546-3.656,0.7
			c-0.084-0.309-0.35-1.079-0.546-1.499c0.378-0.098,0.686-0.406,1.134-0.925c0.168-0.182,0.49-0.588,0.883-1.12
			c-1.065,0.126-1.373,0.21-1.583,0.308c-0.084-0.308-0.322-1.036-0.504-1.429c0.28-0.084,0.532-0.35,0.812-0.771
			c0.308-0.392,1.219-1.946,1.751-3.432l1.499,0.616c-0.533,1.177-1.247,2.382-1.989,3.376l0.953-0.07
			c0.35-0.574,0.7-1.19,0.966-1.807l1.401,0.883c-0.798,1.429-1.835,2.871-2.914,4.09l1.471-0.182
			c-0.112-0.379-0.238-0.743-0.35-1.079l1.205-0.392c0.378,0.952,0.742,2.199,0.896,2.941L228.43,412.658z M226.077,413.344
			c-0.098,1.303-0.336,2.689-0.645,3.586c-0.308-0.168-0.98-0.378-1.345-0.49c0.322-0.841,0.504-2.144,0.588-3.306L226.077,413.344z
			 M227.617,413.078c0.196,0.995,0.35,2.256,0.406,3.11l-1.317,0.28c-0.014-0.854-0.168-2.172-0.336-3.166L227.617,413.078z
			 M229.075,412.658c0.308,0.826,0.616,1.905,0.77,2.619l-1.232,0.421c-0.112-0.715-0.42-1.821-0.7-2.662L229.075,412.658z
			 M234.145,404.338c-0.07,0.168-0.126,0.336-0.21,0.49c0.883,1.387,2.297,2.844,3.6,3.656c-0.406,0.308-0.953,0.91-1.233,1.345
			c-0.308-0.238-0.602-0.505-0.91-0.785v0.883h-4.623v-0.687c-0.294,0.267-0.616,0.519-0.938,0.742
			c-0.238-0.35-0.785-0.924-1.135-1.204c1.765-1.121,3.208-3.012,3.936-4.889L234.145,404.338z M230.111,411.075h6.303v5.939h-1.695
			v-0.672h-2.984v0.686h-1.625V411.075z M234.831,408.427c-0.588-0.658-1.134-1.387-1.625-2.129
			c-0.477,0.771-0.995,1.471-1.597,2.129H234.831z M231.736,412.546v2.325h2.984v-2.325H231.736z"/>
		<path class="st2" d="M252.64,410.557c-0.63,1.134-1.415,2.156-2.325,3.067c0.378,1.078,0.812,1.723,1.232,1.723
			c0.294,0,0.462-0.672,0.533-2.325c0.364,0.393,0.924,0.771,1.373,0.952c-0.266,2.452-0.784,3.068-2.059,3.068
			c-1.022,0-1.807-0.841-2.409-2.214c-0.812,0.673-1.695,1.247-2.591,1.709c-0.238-0.392-0.701-0.966-1.107-1.345
			c1.079-0.49,2.157-1.177,3.124-1.975c-0.308-1.106-0.546-2.382-0.714-3.754h-2.843v1.597c0.714-0.126,1.443-0.267,2.157-0.393
			l0.126,1.513l-2.283,0.463v2.396c0,0.91-0.196,1.358-0.756,1.624c-0.546,0.267-1.387,0.337-2.521,0.322
			c-0.07-0.462-0.35-1.219-0.588-1.681c0.785,0.042,1.597,0.028,1.849,0.014c0.252,0,0.336-0.069,0.336-0.294v-2.031
			c-0.896,0.183-1.765,0.364-2.507,0.505l-0.406-1.682c0.799-0.126,1.807-0.279,2.914-0.476v-1.877h-2.647v-1.583h2.647v-1.597
			c-0.756,0.126-1.527,0.224-2.241,0.308c-0.07-0.406-0.294-1.022-0.476-1.4c1.961-0.267,4.132-0.715,5.561-1.177l1.121,1.415
			c-0.7,0.21-1.471,0.392-2.283,0.56v1.892h2.689c-0.112-1.261-0.154-2.563-0.168-3.838h1.751c-0.028,1.303,0.028,2.605,0.14,3.838
			h3.81v1.583h-3.642c0.112,0.84,0.252,1.652,0.406,2.367c0.504-0.603,0.966-1.232,1.331-1.905L252.64,410.557z M251.618,407.475
			c-0.364-0.645-1.233-1.639-1.989-2.312l1.261-0.854c0.743,0.645,1.667,1.569,2.073,2.228L251.618,407.475z"/>
		<path class="st2" d="M264.244,409.997h-2.409v6.962h-1.541v-12.271c-0.28,0.798-0.603,1.624-0.967,2.423v9.875h-1.583v-7.004
			c-0.28,0.421-0.574,0.812-0.868,1.149c-0.126-0.393-0.532-1.359-0.798-1.793c1.134-1.303,2.157-3.349,2.773-5.407l1.541,0.462
			l-0.084,0.267h3.936V409.997z M261.835,405.921v0.798h1.149v-0.798H261.835z M262.984,408.736v-0.826h-1.149v0.826H262.984z
			 M269.035,415.053c0,0.925-0.196,1.373-0.757,1.61c-0.574,0.267-1.457,0.309-2.773,0.309c-0.056-0.462-0.322-1.19-0.532-1.611
			c0.854,0.057,1.821,0.042,2.101,0.028c0.266,0,0.364-0.084,0.364-0.35v-5.043h-2.563v-5.337h4.161V415.053z M266.191,405.921
			v0.798h1.247v-0.798H266.191z M267.438,408.736v-0.826h-1.247v0.826H267.438z"/>
		<path class="st2" d="M279.756,412.616c-0.182,0.7-0.504,1.373-1.023,1.947c1.821,0.603,4.118,0.658,6.962,0.645
			c-0.308,0.378-0.616,1.078-0.714,1.652c-3.04-0.069-5.617-0.28-7.62-1.162c-0.938,0.532-2.171,0.994-3.796,1.316
			c-0.196-0.393-0.645-1.093-1.009-1.484c1.345-0.211,2.367-0.49,3.166-0.827c-0.546-0.42-1.023-0.952-1.443-1.568l1.274-0.519
			h-1.485v-5.757h4.146v-0.826h-5.365v-1.485h12.271v1.485h-5.155v0.826h4.286v5.757H279.756z M275.638,409.1h2.578v-0.896h-2.578
			V409.1z M275.638,411.258h2.563c0.014-0.154,0.014-0.309,0.014-0.463v-0.448h-2.578V411.258z M275.778,412.616
			c0.406,0.504,0.841,0.896,1.359,1.219c0.406-0.378,0.645-0.771,0.812-1.219H275.778z M282.599,410.346h-2.633v0.463
			c0,0.14,0,0.294-0.014,0.448h2.647V410.346z M279.966,408.204v0.896h2.633v-0.896H279.966z"/>
		<path class="st2" d="M92.005,440.53v1.204H79.566v-1.204h3.39c-0.126-0.364-0.322-0.799-0.519-1.135l0.168-0.042h-1.373v-2.746
			h9.357v2.746h-1.345l0.154,0.042c-0.224,0.42-0.448,0.812-0.658,1.135H92.005z M91.865,436.145h-12.13v-1.121h12.13V436.145z
			 M91.276,434.562H80.294v-5.267h1.401v4.146h1.163v-0.463h-0.84v-0.771h0.84v-0.448h-0.771v-0.756h0.771v-0.448h-0.812v-0.757
			h0.812v-0.7h0.966v0.7h0.869v0.757h-0.869v0.448h0.812v0.756h-0.812v0.448h0.896v0.771h-0.896v0.463h1.205v-4.524h1.457v4.524
			h1.177v-0.463H86.78v-0.771h0.882v-0.448H86.85v-0.756h0.812v-0.448h-0.854v-0.757h0.854v-0.7h0.98v0.7h0.827v0.757h-0.827v0.448
			h0.771v0.756h-0.771v0.448h0.854v0.771h-0.854v0.463h1.177v-4.146h1.457V434.562z M82.788,438.386h6.149v-0.799h-6.149V438.386z
			 M84.104,439.353c0.21,0.392,0.406,0.826,0.49,1.148l-0.098,0.028h2.619c0.182-0.337,0.42-0.785,0.588-1.177H84.104z"/>
		<path class="st2" d="M107.881,429.898v3.054h-1.667v-1.653h-8.699v1.653h-1.583v-3.054h5.042c-0.112-0.28-0.238-0.574-0.336-0.812
			l1.807-0.351c0.182,0.364,0.406,0.799,0.546,1.163H107.881z M96.66,436.817h10.506v5.184h-1.653v-0.364h-7.27v0.392H96.66V436.817
			z M97.683,433.456h8.334v2.844h-8.334V433.456z M105.696,431.844v1.121h-7.662v-1.121H105.696z M98.243,438.022v0.687h2.773
			v-0.687H98.243z M101.017,440.431v-0.687h-2.773v0.687H101.017z M99.21,435.235h5.183v-0.687H99.21V435.235z M105.513,438.022
			h-2.872v0.687h2.872V438.022z M105.513,440.431v-0.687h-2.872v0.687H105.513z"/>
		<path class="st2" d="M124.177,431.075c0,0,0,0.56-0.014,0.756c-0.182,6.262-0.336,8.488-0.911,9.231
			c-0.392,0.518-0.784,0.672-1.345,0.771c-0.532,0.069-1.373,0.056-2.199,0.027c-0.028-0.462-0.252-1.162-0.546-1.625
			c0.896,0.084,1.723,0.084,2.087,0.084c0.28,0,0.434-0.056,0.616-0.237c0.406-0.448,0.588-2.55,0.743-7.494h-2.998
			c-0.364,0.84-0.798,1.61-1.232,2.213c-0.224-0.21-0.7-0.532-1.079-0.784v6.541h-3.74v1.022h-1.513v-10.407h1.583
			c0.182-0.7,0.35-1.597,0.406-2.255l1.821,0.252c-0.238,0.7-0.49,1.4-0.729,2.003h2.171v2.27c0.812-1.177,1.485-2.872,1.891-4.511
			l1.583,0.364c-0.14,0.603-0.336,1.19-0.546,1.779H124.177z M115.786,432.63h-2.227v2.269h2.227V432.63z M115.786,439.087v-2.745
			h-2.227v2.745H115.786z M120.437,438.331c-0.392-0.841-1.261-2.214-1.947-3.236l1.302-0.742c0.701,0.967,1.625,2.297,2.059,3.109
			L120.437,438.331z"/>
		<path class="st2" d="M140.038,432.279c-0.504,1.331-1.233,2.521-2.115,3.53c0.336,2.633,0.84,4.51,1.275,4.51
			c0.196,0,0.322-0.714,0.364-2.241c0.308,0.379,0.826,0.743,1.232,0.911c-0.238,2.311-0.687,2.913-1.807,2.913
			c-1.218,0-2.003-2.017-2.465-4.79c-0.266,0.21-0.546,0.392-0.826,0.574c-0.126-0.168-0.35-0.393-0.574-0.631h-1.653
			c0.393,0.631,0.869,1.457,1.079,1.934l-1.092,0.588c-0.154-0.42-0.477-1.036-0.785-1.61v2.353c0,0.364,0.056,0.406,0.406,0.406
			h1.009c0.322,0,0.392-0.21,0.42-1.484c0.21,0.154,0.575,0.309,0.896,0.406c-0.196-0.477-0.392-0.952-0.574-1.373l1.093-0.42
			c0.448,0.952,0.995,2.228,1.261,2.983l-1.177,0.505c-0.084-0.309-0.224-0.715-0.392-1.149c-0.154,1.289-0.519,1.653-1.387,1.653
			h-1.359c-1.233,0-1.513-0.364-1.513-1.513v-2.382h1.303l-0.266-0.476l0.868-0.421h-2.689v-3.235h4.566v2.396
			c0.406-0.252,0.785-0.547,1.135-0.869c-0.14-1.219-0.224-2.521-0.294-3.81h-5.757v0.603h5.365v1.106h-5.365
			c-0.028,2.493-0.28,6.275-1.485,8.782c-0.28-0.266-0.966-0.742-1.331-0.868c1.177-2.423,1.289-5.939,1.289-8.25v-2.689h7.242
			c-0.014-0.435-0.028-0.869-0.028-1.303h1.611v0.448l0.882-0.617c0.448,0.322,1.079,0.785,1.401,1.079l-0.518,0.393h1.121v1.316
			h-2.844c0.028,0.714,0.07,1.429,0.126,2.115c0.351-0.547,0.63-1.121,0.854-1.751L140.038,432.279z M129.561,441.062
			c0.238-0.869,0.504-2.172,0.63-3.11l1.064,0.406c-0.14,0.883-0.364,2.27-0.546,3.138L129.561,441.062z M133.833,434.94h-1.905
			v1.009h1.905V434.94z M138.386,430.22c-0.266-0.238-0.588-0.49-0.869-0.715c0,0.238,0,0.477,0,0.715H138.386z"/>
		<path class="st2" d="M147.902,436.019c-0.028,0.196-0.056,0.393-0.098,0.574c0.729,0.715,2.241,2.465,2.633,2.928l-1.121,1.4
			c-0.462-0.729-1.261-1.778-1.947-2.633c-0.477,1.372-1.303,2.689-2.647,3.67c-0.224-0.351-0.841-1.009-1.191-1.261
			c1.821-1.303,2.465-3.054,2.689-4.679h-2.479v-1.569h2.591v-0.35v-1.877h-0.561c-0.28,0.714-0.602,1.358-0.953,1.877
			c-0.308-0.28-0.966-0.757-1.345-0.967c0.757-1.009,1.289-2.619,1.569-4.216l1.597,0.322c-0.098,0.49-0.21,0.966-0.35,1.442h3.698
			v1.541h-1.975v1.891v0.336h2.297v1.569H147.902z M156.026,430.122v11.263h-1.695v-0.799h-2.031v1.009h-1.611v-11.473H156.026z
			 M154.331,439.016v-7.325h-2.031v7.325H154.331z"/>
		<path class="st2" d="M165.921,440.46c0,0.687-0.126,1.036-0.588,1.261c-0.448,0.21-1.079,0.238-1.933,0.238
			c-0.07-0.393-0.294-0.938-0.504-1.303c0.504,0.027,1.051,0.027,1.219,0.027c0.182,0,0.238-0.056,0.238-0.237v-1.43
			c-0.7,0.505-1.401,0.981-2.031,1.387l-0.35-0.98c-0.154,0.953-0.462,1.905-0.995,2.634c-0.238-0.322-0.868-0.925-1.163-1.12
			c0.743-1.093,0.798-2.634,0.798-3.853v-3.151h5.309V440.46z M165.137,429.954c0.588,1.009,1.331,2.381,1.667,3.222l-1.457,0.589
			c-0.084-0.253-0.21-0.547-0.35-0.883c-3.544,0.35-4.119,0.435-4.525,0.603c-0.084-0.322-0.35-1.079-0.518-1.499
			c0.252-0.056,0.49-0.252,0.771-0.561c0.28-0.308,1.135-1.387,1.653-2.493l1.681,0.477c-0.476,0.812-1.106,1.625-1.723,2.325
			l2.045-0.154c-0.21-0.406-0.406-0.799-0.588-1.135L165.137,429.954z M162.153,437.097c0,0.532-0.028,1.163-0.098,1.793
			c0.63-0.28,1.457-0.7,2.297-1.148v-0.462l-0.672,0.658c-0.35-0.364-0.995-0.91-1.527-1.345V437.097z M162.153,435.333v0.994
			l0.7-0.602c0.477,0.336,1.079,0.826,1.499,1.19v-1.583H162.153z M169.073,435.094c-1.681,0-2.129-0.616-2.129-2.171v-3.979h1.653
			v1.653h3.446v1.429h-3.446v0.925c0,0.518,0.084,0.714,0.532,0.714h2.045c0.392,0,0.98-0.042,1.289-0.112
			c0.028,0.435,0.098,1.037,0.154,1.415c-0.294,0.099-0.883,0.126-1.415,0.126H169.073z M170.838,440.446
			c0.477,0,0.574-0.238,0.645-1.527c0.336,0.252,1.008,0.504,1.443,0.603c-0.168,1.835-0.603,2.381-1.933,2.381h-1.989
			c-1.653,0-2.059-0.49-2.059-2.017v-4.398h1.653v1.4h3.544v1.471h-3.544v1.527c0,0.49,0.098,0.561,0.645,0.561H170.838z"/>
		<path class="st2" d="M188.199,431.831c0,0-0.014,0.574-0.042,0.799c-0.28,5.575-0.56,7.676-1.177,8.404
			c-0.42,0.546-0.826,0.7-1.429,0.784c-0.518,0.07-1.387,0.07-2.241,0.028c-0.028-0.504-0.252-1.247-0.574-1.723
			c0.882,0.069,1.709,0.069,2.073,0.069c0.294,0,0.462-0.042,0.658-0.224c0.42-0.435,0.7-2.27,0.924-6.43h-3.922
			c-0.224,2.899-1.205,6.304-5.141,8.53c-0.267-0.42-0.896-1.05-1.303-1.358c3.474-1.891,4.412-4.721,4.65-7.172h-4.216v-1.709
			h4.286v-2.886h1.779v2.886H188.199z"/>
		<path class="st2" d="M196.006,432.756c0-0.7-0.462-1.148-1.19-1.148c-0.617,0-1.107,0.322-1.555,0.784l-1.134-1.037
			c0.728-0.826,1.723-1.4,2.941-1.4c1.681,0,2.914,0.868,2.914,2.661c0,1.989-2.438,2.662-2.227,4.637h-1.793
			C193.625,434.997,196.006,434.1,196.006,432.756z M193.583,439.633c0-0.757,0.546-1.345,1.275-1.345
			c0.742,0,1.289,0.588,1.289,1.345c0,0.756-0.546,1.345-1.289,1.345C194.129,440.978,193.583,440.389,193.583,439.633z"/>
	</g>
	<path class="st17" d="M186.333,327.24L186.333,327.24l0,9.555l-2.201-2.201c-0.293-0.293-0.768-0.293-1.061,0l-0.487,0.487
		c-0.293,0.293-0.293,0.768,0,1.061l4.313,4.314c0.293,0.293,0.767,0.293,1.06,0.001l4.315-4.315c0.141-0.141,0.22-0.331,0.22-0.53
		s-0.079-0.391-0.22-0.531l-0.488-0.487c-0.294-0.292-0.768-0.292-1.061,0.001l-2.2,2.201v-9.555h0c0-0.414-0.336-0.75-0.75-0.75
		h-0.689C186.669,326.49,186.333,326.826,186.333,327.24z"/>
	<path class="st17" d="M186.333,378.915L186.333,378.915l0,9.555l-2.201-2.201c-0.293-0.293-0.768-0.293-1.061,0l-0.487,0.487
		c-0.293,0.293-0.293,0.768,0,1.061l4.313,4.314c0.293,0.293,0.767,0.293,1.06,0.001l4.315-4.315c0.141-0.141,0.22-0.331,0.22-0.53
		s-0.079-0.391-0.22-0.531l-0.488-0.487c-0.294-0.292-0.768-0.292-1.061,0.001l-2.2,2.201v-9.555h0c0-0.414-0.336-0.75-0.75-0.75
		h-0.689C186.669,378.165,186.333,378.501,186.333,378.915z"/>
	<g>
		<path class="st2" d="M38.857,81.207c-0.81,1.458-1.818,2.772-2.989,3.942c0.486,1.387,1.044,2.215,1.584,2.215
			c0.378,0,0.594-0.864,0.684-2.988c0.468,0.504,1.188,0.99,1.765,1.224c-0.342,3.151-1.008,3.943-2.647,3.943
			c-1.314,0-2.322-1.08-3.097-2.845c-1.044,0.864-2.179,1.603-3.331,2.196c-0.306-0.504-0.9-1.242-1.422-1.729
			c1.386-0.63,2.773-1.512,4.015-2.538c-0.396-1.423-0.702-3.062-0.918-4.826h-3.655v2.053c0.918-0.162,1.854-0.342,2.772-0.504
			l0.162,1.944l-2.935,0.595v3.079c0,1.17-0.252,1.746-0.973,2.088c-0.702,0.343-1.782,0.433-3.241,0.414
			c-0.09-0.594-0.45-1.566-0.756-2.16c1.008,0.054,2.053,0.036,2.377,0.018c0.324,0,0.432-0.09,0.432-0.378v-2.61
			c-1.152,0.233-2.269,0.468-3.223,0.647l-0.522-2.16c1.026-0.162,2.323-0.36,3.745-0.612v-2.413h-3.403v-2.034h3.403v-2.053
			c-0.972,0.162-1.963,0.288-2.881,0.396c-0.09-0.522-0.378-1.314-0.612-1.801c2.521-0.342,5.312-0.918,7.148-1.513l1.44,1.818
			c-0.9,0.271-1.891,0.505-2.935,0.721v2.431h3.457c-0.144-1.62-0.198-3.295-0.216-4.934h2.251c-0.036,1.675,0.036,3.35,0.18,4.934
			h4.897v2.034h-4.681c0.144,1.081,0.324,2.125,0.522,3.043c0.648-0.773,1.243-1.584,1.71-2.448L38.857,81.207z M37.542,77.245
			c-0.468-0.828-1.584-2.106-2.557-2.971l1.621-1.099c0.954,0.829,2.143,2.017,2.665,2.863L37.542,77.245z"/>
		<path class="st2" d="M54.677,80.486h-3.097v8.949H49.6V73.662c-0.36,1.026-0.774,2.089-1.243,3.115v12.693h-2.035v-9.002
			c-0.36,0.54-0.738,1.044-1.116,1.477c-0.162-0.505-0.684-1.747-1.026-2.305c1.458-1.675,2.773-4.304,3.565-6.95l1.98,0.594
			l-0.108,0.342h5.06V80.486z M51.581,75.247v1.026h1.477v-1.026H51.581z M53.057,78.866v-1.062h-1.477v1.062H53.057z
			 M60.835,86.986c0,1.188-0.252,1.765-0.973,2.07c-0.738,0.343-1.873,0.396-3.565,0.396c-0.072-0.594-0.414-1.53-0.684-2.07
			c1.098,0.071,2.341,0.054,2.701,0.036c0.342,0,0.468-0.108,0.468-0.45v-6.482h-3.295v-6.86h5.348V86.986z M57.18,75.247v1.026
			h1.603v-1.026H57.18z M58.783,78.866v-1.062H57.18v1.062H58.783z"/>
		<path class="st2" d="M71.758,77.228c-0.396,0.72-0.864,1.458-1.369,2.179v10.119h-1.999v-7.707
			c-0.468,0.505-0.936,0.937-1.404,1.333c-0.198-0.469-0.774-1.549-1.116-1.999c1.512-1.134,3.079-2.881,4.015-4.627L71.758,77.228z
			 M71.452,73.429c-1.134,1.548-2.809,3.295-4.303,4.393c-0.27-0.432-0.792-1.188-1.116-1.566c1.278-0.9,2.772-2.395,3.529-3.564
			L71.452,73.429z M78.402,87.257c0.432,0.071,0.9,0.09,1.368,0.09c0.504,0.018,2.485,0,3.169-0.019
			c-0.27,0.45-0.522,1.387-0.594,1.927H79.59c-2.449,0-4.357-0.594-5.671-2.809c-0.45,1.188-1.062,2.196-1.909,3.007
			c-0.306-0.36-1.152-1.08-1.621-1.368c1.693-1.44,2.305-3.907,2.467-6.914l2.071,0.162c-0.072,0.9-0.162,1.729-0.306,2.521
			c0.432,1.278,1.044,2.106,1.783,2.646v-6.536h0.648c-0.396-0.306-0.846-0.63-1.152-0.81c1.747-1.351,2.701-3.674,3.061-6.464
			l1.999,0.233c-0.162,1.081-0.378,2.089-0.684,3.007c1.026,0.937,2.214,2.089,2.791,2.881l-1.422,1.423
			c-0.45-0.666-1.278-1.603-2.125-2.449c-0.414,0.829-0.918,1.549-1.495,2.179h0.378v2.539h3.475v1.801h-3.475V87.257z
			 M76.259,78.632c-0.324-0.36-0.882-0.828-1.44-1.278c-0.594,1.225-1.314,2.287-2.178,3.097c-0.306-0.396-1.062-1.134-1.513-1.458
			c1.603-1.387,2.575-3.709,3.025-6.302l2.035,0.306c-0.18,0.918-0.396,1.801-0.684,2.629c0.648,0.45,1.332,0.973,1.71,1.332
			L76.259,78.632z"/>
		<path class="st2" d="M93.628,73.303c-0.414,1.098-0.9,2.196-1.477,3.295v12.838h-2.143v-9.417
			c-0.414,0.558-0.846,1.062-1.26,1.512c-0.198-0.521-0.774-1.692-1.152-2.232c1.584-1.584,3.133-4.105,4.015-6.644L93.628,73.303z
			 M104.557,76.273h-1.08V86.95c0,1.242-0.271,1.818-1.044,2.161c-0.756,0.324-1.981,0.396-3.655,0.396
			c-0.072-0.63-0.414-1.566-0.72-2.196c1.17,0.054,2.431,0.054,2.791,0.054c0.36,0,0.468-0.107,0.468-0.45V76.273h-7.85v-2.053
			h11.091V76.273z M95.681,84.735v1.171h-1.999v-7.688h5.996v6.518H95.681z M95.681,80.072v2.809h1.999v-2.809H95.681z"/>
		<path class="st2" d="M112.275,79.73v9.759h-2.088V73.356h6.932v6.374H112.275z M112.275,74.887v0.918h2.827v-0.918H112.275z
			 M115.102,78.182v-0.99h-2.827v0.99H115.102z M120.377,85.437v3.71h-1.873v-3.71h-1.729c-0.18,1.243-0.774,2.989-2.305,4.033
			c-0.306-0.378-0.954-0.936-1.368-1.224c1.152-0.721,1.656-1.891,1.836-2.81h-1.818v-1.746h1.89v-1.351h-1.638v-1.692h8.696v1.692
			h-1.692v1.351h1.98v1.746H120.377z M118.505,83.691v-1.351h-1.674v1.351H118.505z M125.365,86.986
			c0,1.099-0.198,1.692-0.846,2.034c-0.648,0.36-1.584,0.415-2.953,0.415c-0.072-0.595-0.36-1.567-0.648-2.125
			c0.811,0.036,1.693,0.036,1.963,0.018c0.288,0,0.378-0.107,0.378-0.359v-7.202h-4.951v-6.41h7.058V86.986z M120.341,74.887v0.918
			h2.917v-0.918H120.341z M123.258,78.218v-1.026h-2.917v1.026H123.258z"/>
		<path class="st2" d="M137.404,78.056c-0.036,1.854-0.27,4.051-1.134,6.212c0.792,0.738,1.512,1.404,1.98,1.963l-1.314,1.674
			c-0.414-0.485-0.972-1.098-1.639-1.746c-0.738,1.188-1.729,2.305-3.079,3.312c-0.288-0.45-0.99-1.134-1.44-1.458
			c1.368-0.973,2.341-2.106,3.043-3.259c-0.9-0.828-1.801-1.639-2.593-2.323c0.342-1.08,0.684-2.502,0.99-4.015l-1.17,0.072
			l-0.198-1.909c0.522-0.018,1.099-0.036,1.711-0.072c0.216-1.278,0.396-2.574,0.486-3.727l1.98,0.126
			c-0.126,1.099-0.288,2.305-0.504,3.511l0.972-0.054v-1.152h1.909v1.044l0.792-0.036l-0.018,1.783L137.404,78.056z M134.181,78.29
			c-0.252,1.242-0.54,2.448-0.81,3.511c0.432,0.342,0.864,0.721,1.296,1.099c0.594-1.639,0.774-3.295,0.81-4.699L134.181,78.29z
			 M146.173,81.278c-0.108-0.359-0.27-0.773-0.45-1.188c-5.87,0.505-6.77,0.595-7.436,0.864c-0.126-0.414-0.45-1.44-0.685-1.998
			c0.378-0.108,0.703-0.468,1.135-1.116c0.45-0.612,1.71-2.917,2.484-5.149l2.233,0.594c-0.774,1.837-1.801,3.709-2.791,5.222
			l4.069-0.288c-0.45-0.756-0.936-1.513-1.404-2.161l1.71-0.846c1.242,1.566,2.467,3.637,2.971,5.077L146.173,81.278z
			 M138.395,81.963h8.426v7.508h-2.052v-0.702h-4.412v0.721h-1.962V81.963z M140.357,83.835v3.043h4.412v-3.043H140.357z"/>
		<path class="st2" d="M157.798,81.297c-0.288,1.603-0.792,3.187-1.512,4.52c0.27,0.162,0.594,0.359,1.008,0.594
			c1.242,0.702,2.953,0.811,5.005,0.811c2.017,0,5.275-0.181,7.31-0.486c-0.252,0.594-0.612,1.656-0.648,2.269
			c-1.458,0.108-4.646,0.216-6.752,0.216c-2.359,0-3.889-0.198-5.204-0.918c-0.756-0.396-1.369-0.937-1.747-0.937
			c-0.414,0-1.081,1.171-1.566,2.143l-1.404-2.07c0.54-0.648,1.134-1.17,1.71-1.513c0.648-0.9,1.17-2.089,1.494-3.241h-2.521
			c0.468-1.062,1.008-2.502,1.476-3.906h-1.8v-1.909h4.52c-0.432,1.278-0.955,2.719-1.422,3.961h0.468l0.324-0.054L157.798,81.297z
			 M154.719,76.381c-0.306-0.828-0.918-2.143-1.333-3.114l1.854-0.685c0.45,0.99,1.044,2.196,1.386,2.971L154.719,76.381z
			 M169.069,76.327h-11.452v-1.656h4.771c-0.216-0.504-0.504-1.08-0.774-1.53l2.07-0.648c0.378,0.594,0.846,1.422,1.062,1.944
			l-0.72,0.234h5.042V76.327z M158.716,81.692h9.002v4.556h-9.002V81.692z M167.557,78.542h-8.643v-1.513h8.643V78.542z
			 M158.915,79.353h8.643v1.512h-8.643V79.353z M160.715,84.718h4.897v-1.513h-4.897V84.718z"/>
		<path class="st2" d="M179.506,83.817c-0.216-0.522-0.594-1.332-0.991-2.106v7.76h-1.944v-6.733
			c-0.468,1.386-1.026,2.646-1.639,3.547c-0.198-0.594-0.63-1.404-0.936-1.891c1.008-1.404,1.962-3.907,2.413-6.032h-1.999v-1.98
			h2.161v-3.709h1.944v3.709h1.801v1.98h-1.801v0.793c0.486,0.666,1.783,2.646,2.089,3.133L179.506,83.817z M184.404,84.556
			c-0.648,2.215-2.035,3.781-3.728,4.646c-0.234-0.396-0.756-1.026-1.098-1.368c0.99-0.45,1.909-1.261,2.503-2.251h-1.963v-1.44
			h2.809l0.306-0.054L184.404,84.556z M190.832,83.691c-0.882,0.648-1.836,1.314-2.647,1.818c0.829,0.847,1.854,1.53,2.989,1.944
			c-0.414,0.36-0.972,1.099-1.26,1.566c-1.296-0.63-2.431-1.638-3.313-2.881v1.405c0,0.899-0.162,1.368-0.774,1.656
			c-0.594,0.288-1.387,0.306-2.485,0.306c-0.054-0.54-0.306-1.278-0.54-1.746c0.63,0.018,1.314,0.018,1.512,0
			c0.216,0,0.288-0.054,0.288-0.252v-3.979h-2.953v-1.458h4.321c-0.829-0.343-1.747-0.685-2.539-0.919l0.522-0.576h-3.673V79.01
			h4.285v-0.702h-3.133V76.85h3.133v-0.666h-3.781v-1.513h1.908c-0.216-0.469-0.522-0.99-0.81-1.423l1.566-0.576
			c0.414,0.54,0.882,1.314,1.098,1.801l-0.468,0.198h2.899l-0.36-0.126c0.324-0.54,0.72-1.351,0.937-1.873l1.89,0.54
			c-0.396,0.54-0.756,1.026-1.08,1.459h2.215v1.513h-3.961v0.666h3.529v1.458h-3.529v0.702h4.267v1.566h-4.483
			c0.846,0.307,1.692,0.648,2.25,0.973l-1.134,1.278c-0.252-0.145-0.558-0.306-0.918-0.468v0.899
			c0.18,0.396,0.396,0.757,0.648,1.117c0.72-0.576,1.512-1.297,2.017-1.854L190.832,83.691z"/>
		<path class="st2" d="M212.089,75.445c0,0,0,0.72-0.018,0.972c-0.234,8.049-0.432,10.911-1.17,11.866
			c-0.504,0.666-1.009,0.864-1.729,0.99c-0.685,0.09-1.765,0.071-2.827,0.035c-0.036-0.594-0.324-1.494-0.702-2.088
			c1.152,0.107,2.215,0.107,2.683,0.107c0.36,0,0.559-0.071,0.792-0.306c0.522-0.576,0.756-3.277,0.954-9.633h-3.853
			c-0.468,1.08-1.026,2.07-1.584,2.845c-0.288-0.271-0.9-0.685-1.386-1.009v8.409h-4.808v1.314h-1.944V75.571h2.034
			c0.234-0.9,0.45-2.053,0.522-2.899l2.341,0.324c-0.306,0.9-0.63,1.801-0.937,2.575h2.791v2.917
			c1.044-1.513,1.908-3.691,2.431-5.798l2.035,0.468c-0.18,0.774-0.432,1.53-0.703,2.287H212.089z M201.304,77.443h-2.863v2.917
			h2.863V77.443z M201.304,85.744v-3.529h-2.863v3.529H201.304z M207.282,84.771c-0.504-1.08-1.621-2.845-2.503-4.159l1.674-0.954
			c0.9,1.242,2.089,2.953,2.647,3.997L207.282,84.771z"/>
		<path class="st2" d="M233.833,86.824v2.106h-16.115v-2.106h6.842V83.35h-5.132v-2.071h5.132v-3.114h-6.086v-2.089h7.202
			c-0.756-0.738-1.836-1.566-2.701-2.196l1.764-1.225c1.152,0.738,2.701,1.891,3.457,2.719l-0.954,0.702h5.708v2.089h-6.032v3.114
			h5.167v2.071h-5.167v3.475H233.833z"/>
		<path class="st2" d="M244.288,87.04c1.08,0.324,2.395,0.396,3.997,0.396c1.224,0,6.14,0,7.616-0.072
			c-0.288,0.414-0.576,1.242-0.684,1.765h-6.932c-3.385,0-5.618-0.342-7.058-2.305c-0.252,1.08-0.648,2.035-1.26,2.772
			c-0.27-0.449-0.811-1.134-1.243-1.458c1.008-1.242,1.188-3.367,1.243-5.527h1.71c-0.018,0.666-0.054,1.314-0.108,1.962
			c0.252,0.576,0.559,1.045,0.918,1.423v-4.105h-3.331v-1.548h8.066v1.548h-2.935v1.477h2.593v1.549h-2.593V87.04z M246.431,79.316
			h-6.464v-5.942h6.464V79.316z M244.45,74.797h-2.575v0.846h2.575V74.797z M244.45,76.993h-2.575v0.883h2.575V76.993z
			 M250.914,84.754c-0.774,1.008-2.035,2.034-3.151,2.629c-0.306-0.343-0.991-0.955-1.369-1.243
			c1.062-0.485,2.143-1.188,2.773-1.944L250.914,84.754z M250.014,75.895c0.108-0.307,0.198-0.648,0.306-0.973h-3.169v-1.494h8.246
			v1.494h-3.151l-0.432,0.973h3.061v8.174h-7.166v-8.174H250.014z M252.895,77.336h-3.277v0.828h3.277V77.336z M252.895,79.55
			h-3.277v0.828h3.277V79.55z M252.895,81.747h-3.277v0.864h3.277V81.747z M253.165,84.088c0.954,0.63,2.071,1.584,2.629,2.269
			l-1.531,0.9c-0.558-0.702-1.674-1.765-2.575-2.396L253.165,84.088z"/>
		<path class="st2" d="M268.175,78.073c0-1.08-0.864-1.692-2.269-1.692c-1.116,0-2.053,0.486-2.881,1.423l-1.477-1.368
			c1.134-1.333,2.719-2.197,4.646-2.197c2.611,0,4.52,1.207,4.52,3.602c0,2.646-3.925,2.953-3.655,5.455h-2.323
			C264.358,80.469,268.175,79.82,268.175,78.073z M265.907,84.538c1.08,0,1.873,0.72,1.873,1.764c0,1.045-0.792,1.783-1.873,1.783
			c-1.081,0-1.873-0.738-1.873-1.783C264.034,85.258,264.826,84.538,265.907,84.538z"/>
	</g>
</g>
<g id="圖層_4" class="st20">
</g>
</svg>
