<?xml version="1.0" encoding="utf-8"?>
<!-- Generator: Adobe Illustrator 22.0.1, SVG Export Plug-In . SVG Version: 6.00 Build 0)  -->
<svg version="1.1" xmlns="http://www.w3.org/2000/svg" xmlns:xlink="http://www.w3.org/1999/xlink" x="0px" y="0px"
	 viewBox="0 0 375 478.894" style="enable-background:new 0 0 375 478.894;" xml:space="preserve">
<style type="text/css">
	.st0{fill:#EFEFEF;}
	.st1{fill:#15AF83;}
	.st2{fill:#171C61;}
	.st3{fill:#17AD7B;}
	.st4{opacity:0.6;}
	.st5{fill:#FFFFFF;}
	.st6{fill:#165987;}
	.st7{fill:#D64B3C;}
	.st8{fill:#D65677;}
	.st9{fill:#DD722A;}
	.st10{fill:#005E9E;}
	.st11{fill:#D67327;}
	.st12{clip-path:url(#SVGID_6_);fill:none;}
	.st13{clip-path:url(#SVGID_6_);}
	.st14{fill:none;stroke:#FFFFFF;stroke-width:0.6;stroke-miterlimit:10;}
	.st15{fill:#113272;}
	.st16{opacity:0.2;}
	.st17{opacity:0.2;fill:#171C61;}
	.st18{opacity:0.4;}
	.st19{opacity:0.8;}
	.st20{display:none;}
	.st21{display:inline;fill:#C30D23;}
</style>
<g id="圖層_3">
</g>
<g id="圖層_2">
</g>
<g id="圖層_1">
	<rect x="0.072" y="0.018" class="st5" width="374.856" height="478.876"/>
	<g>
		<path class="st2" d="M25.058,26.091h4.44v8.729h8.399v-8.729h4.41v22.199h-4.41v-9.6h-8.399v9.6h-4.44V26.091z"/>
		<path class="st2" d="M49.357,39.92c0-5.61,3.87-8.85,8.07-8.85s8.07,3.239,8.07,8.85c0,5.55-3.87,8.79-8.07,8.79
			S49.357,45.47,49.357,39.92z M60.997,39.92c0-3.18-1.29-5.25-3.57-5.25s-3.57,2.07-3.57,5.25c0,3.149,1.29,5.19,3.57,5.19
			S60.997,43.07,60.997,39.92z"/>
		<path class="st2" d="M70.388,31.491h4.41l1.83,8.31c0.33,1.62,0.54,3.24,0.84,4.891h0.12c0.33-1.65,0.63-3.301,1.05-4.891
			l2.01-8.31h3.93l2.1,8.31c0.39,1.62,0.69,3.24,1.05,4.891h0.15c0.3-1.65,0.51-3.271,0.84-4.891l1.83-8.31h4.08l-4.14,16.8h-5.19
			l-1.77-7.32c-0.36-1.59-0.63-3.119-0.96-4.89h-0.15c-0.33,1.771-0.57,3.329-0.93,4.89l-1.71,7.32h-5.04L70.388,31.491z"/>
		<path class="st2" d="M112.207,31.88c0-1.8-1.44-2.819-3.78-2.819c-1.86,0-3.42,0.81-4.8,2.37l-2.46-2.28
			c1.89-2.22,4.53-3.659,7.74-3.659c4.35,0,7.53,2.01,7.53,5.999c0,4.409-6.54,4.92-6.09,9.09h-3.87
			C105.847,35.871,112.207,34.791,112.207,31.88z M108.427,42.65c1.8,0,3.12,1.2,3.12,2.94c0,1.739-1.32,2.97-3.12,2.97
			s-3.12-1.23-3.12-2.97C105.307,43.85,106.627,42.65,108.427,42.65z"/>
	</g>
	<g>
		<path class="st2" d="M38.857,81.146c-0.81,1.457-1.818,2.771-2.989,3.942c0.486,1.387,1.044,2.215,1.584,2.215
			c0.378,0,0.594-0.864,0.684-2.989c0.468,0.504,1.188,0.99,1.765,1.225c-0.342,3.15-1.008,3.943-2.647,3.943
			c-1.314,0-2.322-1.08-3.097-2.846c-1.044,0.865-2.179,1.604-3.331,2.197c-0.306-0.504-0.9-1.242-1.422-1.729
			c1.386-0.63,2.773-1.512,4.015-2.539c-0.396-1.422-0.702-3.061-0.918-4.825h-3.655v2.053c0.918-0.162,1.854-0.343,2.772-0.504
			l0.162,1.944l-2.935,0.594v3.08c0,1.17-0.252,1.746-0.973,2.088c-0.702,0.342-1.782,0.432-3.241,0.414
			c-0.09-0.594-0.45-1.566-0.756-2.16c1.008,0.054,2.053,0.035,2.377,0.018c0.324,0,0.432-0.09,0.432-0.378v-2.61
			c-1.152,0.233-2.269,0.468-3.223,0.647l-0.522-2.161c1.026-0.162,2.323-0.359,3.745-0.611v-2.413h-3.403v-2.034h3.403v-2.053
			c-0.972,0.162-1.963,0.288-2.881,0.396c-0.09-0.522-0.378-1.314-0.612-1.801c2.521-0.342,5.312-0.918,7.148-1.513l1.44,1.818
			c-0.9,0.271-1.891,0.505-2.935,0.72v2.432h3.457c-0.144-1.621-0.198-3.295-0.216-4.934h2.251c-0.036,1.674,0.036,3.35,0.18,4.934
			h4.897v2.034h-4.681c0.144,1.081,0.324,2.125,0.522,3.043c0.648-0.774,1.243-1.585,1.71-2.448L38.857,81.146z M37.542,77.184
			c-0.468-0.828-1.584-2.106-2.557-2.971l1.621-1.099c0.954,0.828,2.143,2.017,2.665,2.863L37.542,77.184z"/>
		<path class="st2" d="M54.677,80.425h-3.097v8.949H49.6V73.601c-0.36,1.026-0.774,2.088-1.243,3.115V89.41h-2.035v-9.002
			c-0.36,0.539-0.738,1.043-1.116,1.477c-0.162-0.505-0.684-1.747-1.026-2.305c1.458-1.676,2.773-4.305,3.565-6.951l1.98,0.595
			l-0.108,0.342h5.06V80.425z M51.581,75.185v1.027h1.477v-1.027H51.581z M53.057,78.804v-1.062h-1.477v1.062H53.057z
			 M60.835,86.925c0,1.188-0.252,1.764-0.973,2.07c-0.738,0.342-1.873,0.396-3.565,0.396c-0.072-0.594-0.414-1.531-0.684-2.07
			c1.098,0.071,2.341,0.053,2.701,0.035c0.342,0,0.468-0.107,0.468-0.449v-6.482h-3.295v-6.86h5.348V86.925z M57.18,75.185v1.027
			h1.603v-1.027H57.18z M58.783,78.804v-1.062H57.18v1.062H58.783z"/>
		<path class="st2" d="M73.973,75.564l0.63-0.036l-0.018,1.999l-0.612,0.053c-0.054,2.071-0.342,4.664-1.71,7.113
			c0.9,0.81,1.71,1.584,2.269,2.196l-1.602,1.62c-0.468-0.576-1.134-1.278-1.909-2.016c-0.864,1.043-1.999,2.016-3.493,2.881
			c-0.306-0.486-1.026-1.262-1.512-1.621c1.476-0.811,2.593-1.765,3.403-2.791c-0.99-0.9-2.017-1.801-2.899-2.593
			c0.36-1.188,0.72-2.737,1.026-4.376l-1.314,0.091l-0.216-2.124c0.576-0.019,1.206-0.055,1.89-0.091
			c0.162-1.08,0.288-2.161,0.36-3.151l2.287,0.127c-0.108,0.918-0.252,1.926-0.414,2.916l1.729-0.09v-0.846h2.106V75.564z
			 M69.778,77.869c-0.271,1.387-0.576,2.754-0.864,3.943c0.522,0.449,1.098,0.936,1.656,1.422c0.972-1.908,1.242-3.889,1.278-5.51
			L69.778,77.869z M82.039,74.465v14.188h-2.125v-1.045H77.07v1.332h-2.035V74.465H82.039z M79.915,85.575v-9.093H77.07v9.093
			H79.915z"/>
		<path class="st2" d="M93.628,73.242c-0.414,1.098-0.9,2.195-1.477,3.295v12.838h-2.143v-9.418
			c-0.414,0.559-0.846,1.062-1.26,1.513c-0.198-0.522-0.774-1.692-1.152-2.232c1.584-1.585,3.133-4.105,4.015-6.644L93.628,73.242z
			 M104.557,76.212h-1.08v10.677c0,1.242-0.271,1.818-1.044,2.161c-0.756,0.324-1.981,0.396-3.655,0.396
			c-0.072-0.63-0.414-1.566-0.72-2.196c1.17,0.054,2.431,0.054,2.791,0.054c0.36,0,0.468-0.108,0.468-0.45V76.212h-7.85V74.16
			h11.091V76.212z M95.681,84.674v1.171h-1.999v-7.689h5.996v6.519H95.681z M95.681,80.011v2.809h1.999v-2.809H95.681z"/>
		<path class="st2" d="M114.4,81.019c-0.324,1.639-0.811,3.331-1.423,4.682c0.288,0.18,0.63,0.432,1.117,0.721
			c1.224,0.738,2.917,0.846,5.023,0.846c2.071,0,5.293-0.18,7.274-0.469c-0.234,0.576-0.594,1.621-0.612,2.197
			c-1.495,0.09-4.664,0.217-6.77,0.217c-2.395,0-3.907-0.199-5.204-0.955c-0.756-0.414-1.387-1.008-1.765-1.008
			c-0.414,0-1.044,1.225-1.495,2.25l-1.422-2.034c0.612-0.757,1.278-1.351,1.891-1.71c0.396-0.9,0.756-2.035,1.026-3.134h-2.269
			c0.414-1.062,0.9-2.503,1.296-3.907h-1.621v-1.908h4.213c-0.378,1.26-0.811,2.701-1.225,3.961h0.72l0.324-0.072L114.4,81.019z
			 M111.357,76.284c-0.198-0.81-0.667-2.124-0.973-3.097l1.891-0.576c0.342,0.973,0.792,2.179,1.044,2.988L111.357,76.284z
			 M115.48,79.093c-0.306,0.359-0.612,0.666-0.918,0.972c-0.198-0.433-0.792-1.495-1.152-1.962c1.44-1.297,2.736-3.35,3.457-5.456
			l1.944,0.54c-0.27,0.773-0.612,1.53-0.972,2.287h2.683c-0.234-0.648-0.54-1.352-0.846-1.945l2.017-0.576
			c0.45,0.774,0.918,1.765,1.152,2.521h2.845v1.801h-3.637V78.3h2.898v1.729h-2.898v1.117h2.827v1.729h-2.827v1.134h3.835v1.8
			h-8.336v0.757h-2.071V79.093z M120.018,77.275h-2.467V78.3h2.467V77.275z M120.018,80.029h-2.467v1.117h2.467V80.029z
			 M120.018,82.875h-2.467v1.134h2.467V82.875z"/>
		<path class="st2" d="M137.656,77.292c-0.54,0.918-1.207,1.854-1.926,2.754v9.399h-2.143v-7.04
			c-0.504,0.486-0.99,0.936-1.476,1.332c-0.306-0.432-1.026-1.404-1.458-1.854c1.836-1.262,3.799-3.35,4.951-5.385L137.656,77.292z
			 M136.99,73.457c-1.296,1.693-3.241,3.547-4.952,4.736c-0.27-0.469-0.81-1.333-1.188-1.747c1.495-0.954,3.205-2.575,4.069-3.835
			L136.99,73.457z M147.577,80.623h-2.467v6.32c0,1.152-0.216,1.746-1.008,2.07c-0.756,0.324-1.908,0.361-3.511,0.361
			c-0.09-0.631-0.36-1.567-0.648-2.18c1.026,0.055,2.215,0.055,2.539,0.036c0.324,0,0.45-0.071,0.45-0.342v-6.267h-5.312v-2.034
			h9.957V80.623z M147.127,75.671h-8.75v-2.034h8.75V75.671z"/>
		<path class="st2" d="M160.175,78.012c0-1.08-0.864-1.692-2.269-1.692c-1.116,0-2.053,0.486-2.881,1.422l-1.477-1.367
			c1.134-1.333,2.719-2.197,4.646-2.197c2.611,0,4.52,1.207,4.52,3.602c0,2.646-3.925,2.953-3.655,5.455h-2.323
			C156.358,80.408,160.175,79.759,160.175,78.012z M157.907,84.476c1.08,0,1.873,0.721,1.873,1.765s-0.792,1.782-1.873,1.782
			c-1.081,0-1.873-0.738-1.873-1.782S156.826,84.476,157.907,84.476z"/>
	</g>
	<g class="st4">
		<g>
			<g>
				<path class="st2" d="M167.214,262.065l-0.452-0.469C166.974,261.817,167.111,261.959,167.214,262.065z"/>
				<path class="st2" d="M170.307,265.612l0.112,0.056C170.257,265.52,170.183,265.465,170.307,265.612z"/>
				<path class="st2" d="M193.873,278.656c0.194-0.205,0.462-0.504,0.832-0.934L193.873,278.656z"/>
				<path class="st2" d="M149.459,243.494l-0.623-0.46C149.692,243.874,149.354,243.465,149.459,243.494z"/>
				<path class="st2" d="M154.575,160.511c0.058-0.038,0.125-0.082,0.179-0.118C154.762,160.369,154.686,160.425,154.575,160.511z"
					/>
				<path class="st2" d="M240.901,213.961c-0.003,0.018-0.006,0.032-0.009,0.052C240.943,213.837,240.934,213.867,240.901,213.961z"
					/>
				<path class="st2" d="M133.12,204.19c0.001-0.041,0.005-0.087,0.013-0.132C133.121,203.439,133.109,203.711,133.12,204.19z"/>
				<path class="st2" d="M216.453,252.698c0.017-0.022,0.028-0.035,0.044-0.055c-0.02,0.02-0.046,0.045-0.064,0.063L216.453,252.698
					z"/>
				<path class="st2" d="M215.017,254.354c0.539-0.773,0.913-1.15,1.416-1.647l-0.718,0.319L215.017,254.354z"/>
				<path class="st2" d="M242.034,203.763c-0.061-0.669-0.134-1.464-0.188-2.056c-0.14,0.368,0.149,2.712,0.119,3.896
					c-0.072,0-0.138-0.26-0.197-0.696c0.004-0.258,0.019-0.513,0.019-0.771c0-3.347-0.319-6.617-0.9-9.796
					c-0.083-0.514-0.18-1.066-0.297-1.641c-0.086-0.339-0.175-0.69-0.263-1.039c-0.143-0.608-0.294-1.212-0.458-1.812
					c-0.013-0.053-0.027-0.108-0.041-0.161c-0.121-0.497-0.24-0.981-0.352-1.44c-0.108-0.46-0.284-0.87-0.399-1.255
					c-0.094-0.206-0.21-0.47-0.309-0.689c-1.424-4.085-3.324-7.944-5.632-11.517c0.085,0.096,0.179,0.204,0.044-0.05
					c-0.037-0.01-0.131-0.116-0.256-0.281c-9.68-14.746-26.352-24.49-45.309-24.49c-1.236,0-2.458,0.056-3.674,0.138
					c-0.513-0.059-0.967-0.124-0.897-0.216c-0.807,0.103-1.869,0.209-3.068,0.327c-1.193,0.137-2.543,0.217-3.812,0.66
					c-0.581,0.1,0.471-0.199,0.155-0.174c-0.636,0.268-1.421,0.491-2.9,0.825l0.16-0.067c-1.023,0.295-1.931,0.444-2.718,0.754
					c-0.797,0.279-1.531,0.536-2.281,0.798c-0.749,0.265-1.525,0.507-2.377,0.832c-0.83,0.382-1.75,0.806-2.838,1.307l0.371-0.049
					c-0.934,0.433-1.146,0.494-1.594,0.678c-0.433,0.295,0.024,0.087,0.594-0.182c-2.002,0.952-5.361,3.158-6.086,3.415
					c-1.272,0.948,0.449-0.167-0.82,0.78l-0.379,0.192l-0.265,0.315c-0.84,0.609-1.316,0.851-1.385,0.826
					c0.207-0.145,0.564-0.444,0.778-0.61c-0.561,0.377-1.338,0.932-1.977,1.478c-0.614,0.577-1.139,1.084-1.32,1.229l1.158-0.992
					c-1.551,1.511-3.449,3.006-4.978,4.847c-0.786,0.896-1.631,1.737-2.326,2.654c-0.679,0.929-1.329,1.835-1.924,2.692l0.234-0.222
					c-0.456,0.653-0.783,1.103-1.047,1.459c-0.236,0.373-0.411,0.65-0.593,0.937c-0.37,0.566-0.766,1.163-1.654,2.67l0.055-0.115
					c-0.169,0.317-0.359,0.674-0.563,1.058c-0.18,0.403-0.38,0.831-0.59,1.26c0.326-0.826-0.834,1.442-0.394,0.365
					c-0.702,1.584-0.868,1.977-0.959,2.243c-0.041,0.129-0.075,0.236-0.138,0.436c-0.072,0.198-0.174,0.501-0.31,1.06l-0.265,0.459
					c-0.19,0.759-0.172,0.835-0.747,2.477c0.417-1.368-0.514,1.001-0.061-0.539c-0.347,0.849-0.683,1.582-0.853,2.271
					c-0.172,0.689-0.305,1.294-0.425,1.839c-0.24,1.089-0.428,1.93-0.78,2.715c-0.171,1.681,0.926-3.041,0.744-2.116
					c0.276-0.741-0.162,1.387-0.471,2.489c-0.185,1.148-0.619,1.902-1.06,4.823c0.036-0.289,0.039-0.313,0.075-0.601
					c-0.277,1.081-0.134,2.157-0.313,3.5c0.114,0.766-0.097,1.756,0.087,1.98l0.091-2.698c-0.013,0.766,0.019,1.51,0.025,2.374
					c0.003,0.432,0,0.894-0.02,1.404c0,0.51,0,1.065,0,1.7c-0.044-0.195-0.114-0.942-0.155-1.457
					c-0.04,0.738,0.072,1.417,0.032,2.183c-0.1-0.105-0.131-0.926-0.16-1.925c-0.001-0.999,0.092-2.174,0.049-2.999
					c-0.123,0.791-0.015,3.109-0.185,2.282c0.252,1.184-0.029,2.915,0.347,4.895l-0.126-0.122c0.043,0.316,0.133,0.974,0.21,1.54
					c-0.097-0.343-0.184-0.687-0.254-1.034c0.285,1.597,0.219,3.124,0.574,4.647c-0.286-1.605-0.262-1.793-0.207-1.748
					c0.052,0.045,0.144,0.321,0.102-0.366c0.732,3.611,0.105,2.57,0.867,5.792c-0.106-0.544-0.151-0.973,0.012-0.402
					c0.167,0.839,0.446,1.935,0.518,2.462c0.902,2.842-0.037-0.466,0.413,0.722c0.188,1.002,0.482,1.381,0.975,2.585l-0.108,0.049
					c1.138,3.194,0.515,0.763,1.623,3.597l-0.663-1.117l0.671,1.443l-0.254-0.246c0.377,0.781,0.675,1.268,0.914,1.778
					c0.253,0.503,0.466,1.022,0.869,1.769c-0.116-0.385,0.297,0.093,1.02,1.402c0.468,0.909-0.397-0.431,0.725,1.374
					c-0.306-0.374-0.686-0.764-1.04-1.629c-0.079-0.064-0.293-0.379-0.374-0.446c0.434,1.025,1.405,2.396,1.796,3.061
					c-0.152-0.255-0.331-0.563-0.412-0.727c0.564,0.863,1.225,1.659,1.834,2.486c0.235,0.428-0.009,0.13-0.252-0.167
					c0.352,0.517,0.671,0.821,1.223,1.554c-0.219-0.134-0.267-0.026-1.08-1.049c0.619,0.766,1.218,1.545,1.858,2.29
					c0.091,0.178,0.869,1.243,0.599,0.969c0.977,1.325,2.789,2.905,4.288,4.436c0.093,0.065,0.266,0.21,0.602,0.521
					c1.431,1.437,2.569,2.78,4.341,4.37l0.816,1.087c1.319,1.316-1.11-1.47,1.087,0.722c1.562,1.546,0.462,0.694,0.961,1.282
					c0.826,0.72,2.254,1.986,3.525,3.56c-0.48-0.466-0.818-0.867-1.253-1.314l0.979,1.19c-1.381-1.249-2.256-2.267-1.371-1.12
					c0.398-0.075,4.096,4.347,4.47,4.295l0.629,0.798c-0.199-0.21-0.232-0.245-0.429-0.453c1.201,1.571,1.176,0.911,2.822,2.849
					c0.568,0.68,0.941,1.175,0.511,0.749l1.37,1.423c0.376,0.434,0.239,0.367-0.135-0.065l1.993,2.255l-0.022-0.01
					c0.32,0.29,1.018,0.974,1.355,1.311c0.464,0.61-0.278-0.267-0.182-0.092l1.142,1.217c0.37,0.577-0.578-0.431-1.322-1.308
					c0.761,1.396,0.96,0.999,2.981,3.688l-1.048-1.174c0.512,0.894,1.354,1.79,2.392,3.237c-0.22-0.364-2.041-2.932-0.824-1.593
					c0.306,0.409,0.724,0.934,1.398,1.642c-0.088,0.085,0.55,0.793,1.302,1.717l-0.173,0.036c0.847,0.971,0.845,0.842,1.378,1.386
					c0.895,1.124,0.976,1.439,1.109,1.766c1.413,1.814-0.836-1.364,0.883,0.746c1.141,1.536,2.02,2.552,3.488,4.309
					c0.773,1.094-0.219-0.127,0.038,0.281l0.818,0.868c0.173,0.233,0.086,0.182,0.041,0.156c0.641,0.768,0.179-0.032,1.154,1.201
					c0.101,0.073,0.182,0.163,0.425,0.504c0.222,0.328,0.511,0.756,0.839,1.24c0.429-0.538,0.917-1.15,1.399-1.754
					c0.376-0.48,0.742-0.972,1.028-1.441c0.325-0.355-0.063,0.243,0.074,0.163c1.517-2.199,1.31-1.877,2.523-3.712l1.234-1.406
					c-0.944,1.004,0.032-0.46,0.903-1.732c-0.064,0.064-0.115,0.116-0.176,0.177c0.121-0.151,0.246-0.308,0.37-0.462
					c-0.066,0.098-0.125,0.183-0.194,0.285c0.064-0.064,0.132-0.131,0.198-0.197c0.065-0.115,0.121-0.214,0.181-0.32
					c0.247-0.308,0.501-0.623,0.759-0.943c0.042,0.024-0.113,0.302-0.313,0.633c-0.21,0.211-0.421,0.423-0.627,0.63
					c-0.303,0.534-0.573,1.043-0.422,1.002c0.085-0.136,0.264-0.386,0.468-0.655c-0.078,0.14-0.123,0.234-0.065,0.186
					c0.065-0.055,0.197-0.277,0.415-0.615l0.484-0.326l0.031-0.149l2.106-2.42c1.322-1.882,2.392-3.59,4.697-6.416
					c-0.486,0.774,0.035,0.285,0.119,0.421c-0.761,0.658-1.778,2.191-3.003,3.627c0.641-0.748,0.559-0.534,0.418-0.325l2.055-2.67
					c0.046,0.139,0.532-0.486,1.14-1.123c-0.622,0.343,1.516-2.005,2.355-3.092c0.118-0.01-0.033,0.294-1.141,1.545
					c1.346-1.272,1.334-1.997,2.657-3.246c-0.269,0.307-0.424,0.463-0.5,0.612c0.577-0.763,2.165-2.469,1.855-2.011l-0.269,0.306
					c1.81-2.016,5.533-6.114,5.666-6.543c0.038-0.001-0.057,0.431-0.138,0.58c0.651-0.931,1.297-1.87,1.949-2.804
					c0.335-0.355,0.674-0.711,1.013-1.068c0.274-0.006,0.664-0.08-0.37,1.1c0.464-0.449,1.039-1.002,1.935-2.027
					c-0.323,0.299-0.948,0.611-0.543,0.166c1.288-1.052,0.871-0.753,2.403-2.101c-0.485,0.448-0.181-0.279,0.562-1.01
					c-0.084,0.145,0.259,0.134,0.012,0.425l1.629-2.036c-0.421,0.495,0.084,0.248,0.546-0.106c-0.227,0.152,1.574-1.586,2.063-2.092
					l-0.833,0.73c1.065-1.018,1.515-1.599,1.959-2.177c0.444-0.578,0.897-1.139,1.859-2.233c-0.192,0.299-0.326,0.889,0.699-0.199
					c0.188-0.323,0.586-1.082,1.123-2.037c0.661-0.825,1.305-1.663,1.918-2.526c-0.646,1.226-1.42,2.578-2.054,3.444
					c0.743-0.822,0.288-0.164,1.297-1.482c0.331-0.336-0.149,0.367-0.521,0.854c0.328-0.393,0.651-0.79,0.959-1.2
					c0.385-0.518,0.802-1.014,1.161-1.552c-0.227,0.05,1.52-2.545,1.291-2.513c-0.328,0.618-0.707,1.205-1.073,1.801
					c-0.363,0.599-0.735,1.192-1.141,1.764c-0.233,0.035,1.088-2.202,2.487-4.527c0.418-0.558-0.018,0.594,0.058,0.575
					c0.065-0.168,0.39-0.73,0.694-1.288c0.293-0.565,0.59-1.111,0.668-1.212l-0.481,1.06c0.394-0.653,0.645-1.225,0.924-1.823
					c0.26-0.608,0.533-1.249,1.008-2.036c0.291-0.559,0.953-1.642,0.914-1.778c-0.35,0.524-0.705,0.705-0.907,0.626
					c0.289-0.649,0.571-1.301,0.835-1.963l0.028,0.109l0.144-0.386l-0.064-0.009c0.264-0.672,0.52-1.348,0.757-2.032
					c0.222-0.213-0.277,1.673,0.094,0.977c-0.032-0.053,0.129-0.604,0.181-0.838c0.241-0.617,0.048,0.307,0.473-1.069
					c-0.067-0.274,0.883-2.788,0.075-0.689c0.374-1.353,0.44-1.426,0.878-3.017c-0.149,0.32-0.111-0.457-0.002-1.418
					c0.128-0.582,0.251-1.165,0.36-1.754c0.011-0.03,0.022-0.062,0.031-0.086c0.128-0.704,0.242-1.327,0.348-1.907
					c0.082-0.583,0.158-1.123,0.233-1.656c0.176-1.065,0.23-2.119,0.34-3.452c0.059-0.243,0.131-1.535,0.192-0.982
					c-0.02-0.387-0.068-0.742-0.053-1.568c0.16-1.6-0.008,1.844,0.182,0.626C242.083,204.968,242.103,204.431,242.034,203.763z
					 M196.165,275.519c0.257-0.332,0.56-0.698,0.916-1.089C196.902,274.713,196.564,275.098,196.165,275.519z M163.865,155.17
					c-0.262,0.043-0.646,0.193-1.101,0.407C163.481,155.239,164.352,154.816,163.865,155.17z M173.796,269.669
					c0.43,0.301,0.639,0.638,1.091,1.25C174.587,270.589,173.952,269.963,173.796,269.669z"/>
				<path class="st2" d="M134.37,217.333c0.064,0.329,0.15,0.701,0.225,0.92C134.508,217.907,134.436,217.61,134.37,217.333z"/>
				<path class="st2" d="M230.55,238.238c-0.086,0.103-0.162,0.212-0.25,0.313C230.366,238.477,230.456,238.363,230.55,238.238z"/>
				<path class="st2" d="M194.721,277.62c-0.094,0.086-0.133,0.099-0.169,0.109C194.458,277.878,194.474,277.895,194.721,277.62z"/>
				<path class="st2" d="M149.574,243.579l-0.049-0.05c-0.033-0.022-0.052-0.032-0.066-0.035L149.574,243.579z"/>
				<path class="st2" d="M239.25,222.076c-0.154,0.4-0.269,0.614-0.343,0.756C238.923,222.863,239.024,222.692,239.25,222.076z"/>
				<path class="st2" d="M241.304,196.405l0.159,0.027l-0.174-0.748C241.33,196.122,241.307,196.155,241.304,196.405z"/>
				<path class="st2" d="M241.984,200.671c-0.05-0.163-0.168-1.785-0.127-0.291C241.907,200.537,242.097,202.73,241.984,200.671z"/>
				<path class="st2" d="M227.429,241.543c-0.781,0.861-1.243,1.264-0.745,1.005c1.41-1.321,0.238-0.401,1.472-1.646
					C228.417,240.524,227.154,241.925,227.429,241.543z"/>
				<path class="st2" d="M227.429,241.543c0.115-0.146,0.238-0.301,0.371-0.469C227.586,241.335,227.488,241.462,227.429,241.543z"
					/>
				<path class="st2" d="M176.817,273.755l0.089,0.048c-0.089-0.173-0.27-0.397-0.633-0.845L176.817,273.755z"/>
				<polygon class="st2" points="166.07,261.009 166.258,261.226 166.01,260.728 				"/>
				<path class="st2" d="M156.429,250.871c0.4,0.407,0.87,0.886,1.272,1.295C156.82,251.287,156.452,250.635,156.429,250.871z"/>
			</g>
		</g>
	</g>
	<g>
		<path class="st5" d="M184.694,190.78c-0.378,3.926-1.242,7.022-2.593,9.435c0.882,1.207,1.962,2.215,3.259,2.917
			c-0.486,0.396-1.152,1.207-1.477,1.765c-1.224-0.738-2.232-1.656-3.097-2.755c-0.918,1.116-1.98,2.017-3.205,2.755
			c-0.27-0.468-0.756-1.134-1.188-1.566v1.692h-2.07v-2.881c-2.071,0.36-4.177,0.685-5.834,0.937l-0.414-2.143
			c0.486-0.054,1.044-0.108,1.657-0.18v-9.562h-1.225v-1.98h9.039v1.278h5.384l0.36-0.054L184.694,190.78z M171.767,191.194v1.711
			h2.557v-1.711H171.767z M171.767,196.631h2.557v-1.8h-2.557V196.631z M171.767,200.502c0.828-0.107,1.692-0.233,2.557-0.342v-1.62
			h-2.557V200.502z M176.394,203.042c1.188-0.666,2.233-1.639,3.115-2.862c-1.099-1.999-1.873-4.412-2.431-7.131l2.053-0.414
			c0.36,1.927,0.9,3.745,1.656,5.33c0.702-1.549,1.242-3.35,1.548-5.366h-5.312v-1.404h-0.63V203.042z"/>
		<path class="st5" d="M195.257,199.35c-0.216-0.521-0.594-1.332-0.99-2.106v7.761h-1.944v-6.734
			c-0.468,1.387-1.026,2.647-1.639,3.547c-0.198-0.594-0.63-1.404-0.936-1.891c1.008-1.404,1.962-3.906,2.413-6.031h-1.999v-1.98
			h2.161v-3.709h1.944v3.709h1.801v1.98h-1.801v0.792c0.486,0.666,1.783,2.646,2.089,3.133L195.257,199.35z M200.154,200.088
			c-0.648,2.215-2.034,3.781-3.727,4.646c-0.234-0.396-0.756-1.026-1.098-1.368c0.99-0.45,1.909-1.261,2.503-2.251h-1.963v-1.44
			h2.809l0.306-0.054L200.154,200.088z M206.583,199.224c-0.882,0.648-1.836,1.314-2.647,1.819c0.828,0.846,1.854,1.53,2.989,1.944
			c-0.415,0.36-0.973,1.099-1.261,1.566c-1.296-0.63-2.431-1.639-3.313-2.881v1.404c0,0.9-0.162,1.368-0.774,1.656
			c-0.594,0.288-1.387,0.307-2.485,0.307c-0.054-0.54-0.306-1.278-0.54-1.747c0.63,0.019,1.314,0.019,1.512,0
			c0.216,0,0.288-0.054,0.288-0.252v-3.979H197.4v-1.458h4.321c-0.829-0.342-1.747-0.685-2.539-0.918l0.522-0.576h-3.673v-1.566
			h4.285v-0.702h-3.133v-1.459h3.133v-0.666h-3.781v-1.513h1.908c-0.216-0.468-0.522-0.99-0.81-1.422l1.566-0.576
			c0.414,0.54,0.882,1.314,1.099,1.8l-0.468,0.198h2.899l-0.36-0.126c0.324-0.54,0.72-1.351,0.937-1.872l1.891,0.54
			c-0.396,0.54-0.756,1.026-1.081,1.458h2.215v1.513h-3.961v0.666h3.529v1.459h-3.529v0.702h4.268v1.566h-4.483
			c0.846,0.306,1.692,0.647,2.25,0.972l-1.134,1.278c-0.252-0.144-0.558-0.306-0.918-0.468v0.9c0.18,0.396,0.396,0.756,0.648,1.116
			c0.72-0.576,1.512-1.296,2.017-1.854L206.583,199.224z"/>
		<path class="st5" d="M170.38,225.287c-0.126,1.585-0.414,3.295-0.774,4.376c-0.342-0.198-1.099-0.433-1.531-0.522
			c0.396-1.062,0.612-2.665,0.72-4.105L170.38,225.287z M168.742,220.317c-0.09-0.359-0.378-1.242-0.594-1.71
			c0.342-0.09,0.63-0.433,0.972-0.973c0.36-0.486,1.458-2.484,2.088-4.375l1.729,0.702c-0.63,1.494-1.458,3.061-2.322,4.339
			l1.26-0.09c0.45-0.792,0.9-1.639,1.278-2.484l1.566,1.008c-1.008,1.945-2.341,3.962-3.709,5.6l1.999-0.27
			c-0.18-0.522-0.378-1.044-0.594-1.494l1.404-0.522c0.522,1.062,1.026,2.484,1.17,3.367l-1.477,0.612
			c-0.018-0.145-0.054-0.307-0.09-0.486c-3.565,0.576-4.159,0.738-4.555,0.918c-0.09-0.342-0.396-1.242-0.594-1.729
			c0.432-0.108,0.828-0.522,1.351-1.206c0.252-0.271,0.702-0.864,1.224-1.639c-1.422,0.162-1.836,0.271-2.106,0.396V220.317z
			 M172.163,224.909c0.216,1.17,0.414,2.683,0.468,3.709l-1.531,0.396c-0.018-1.045-0.198-2.575-0.378-3.745L172.163,224.909z
			 M184.532,228.348c0,0.684-0.09,1.044-0.486,1.296c-0.36,0.252-0.828,0.271-1.458,0.271c-0.036-0.433-0.198-1.009-0.396-1.423
			c0.252,0.019,0.468,0.019,0.576,0.019c0.108,0,0.144-0.036,0.144-0.181v-1.836h-0.792v3.204h-1.152v-3.204h-0.738v3.295h-1.152
			v-3.295h-0.774v3.528h-1.53v-5.312c-0.216,1.854-0.576,3.709-1.134,5.204c-0.36-0.324-1.243-0.811-1.692-0.973
			c0.18-0.468,0.324-0.954,0.432-1.477l-0.972,0.36c-0.144-0.792-0.504-2.053-0.81-2.989l1.368-0.45
			c0.252,0.631,0.468,1.369,0.648,2.053c0.558-2.772,0.612-5.905,0.612-8.103v-3.925c2.665-0.216,5.653-0.63,7.4-1.188l1.548,1.423
			c-1.999,0.594-4.609,0.954-7.058,1.188v0.63h7.004v4.447h-7.058l-0.036,0.846h7.508V228.348z M177.114,218.103v0.216
			c0,0.306,0,0.63,0,0.973h5.113v-1.188H177.114z M179.077,224.836v-1.368h-0.774v1.368H179.077z M180.967,224.836v-1.368h-0.738
			v1.368H180.967z M182.912,224.836v-1.368h-0.792v1.368H182.912z"/>
		<path class="st5" d="M205.79,216.752v13.198h-2.106v-0.973H192.88v0.99h-2.035v-13.216h4.195v-3.367h2.106v3.367h2.161v-3.367
			h2.107v3.367H205.79z M192.88,218.841v3.007h2.161v-3.007H192.88z M192.88,226.872h2.161v-2.989h-2.161V226.872z M197.147,218.841
			v3.007h2.161v-3.007H197.147z M197.147,223.882v2.989h2.161v-2.989H197.147z M201.415,218.841v3.007h2.269v-3.007H201.415z
			 M203.684,226.872v-2.989h-2.269v2.989H203.684z"/>
	</g>
	<g>
		<path class="st2" d="M39.068,340.78c-0.555,0.149-1.11,0.314-1.68,0.465v3.614c0,0.841-0.15,1.261-0.615,1.545
			c-0.465,0.271-1.11,0.33-2.04,0.33c-0.06-0.449-0.27-1.17-0.495-1.635c0.48,0.03,0.975,0.03,1.14,0.015
			c0.18,0,0.255-0.06,0.255-0.239v-3.18c-0.51,0.135-0.975,0.255-1.425,0.375l-0.435-1.71c0.54-0.105,1.17-0.256,1.86-0.405v-2.73
			h-1.605v-1.649h1.605v-2.82h1.755v2.82h1.38v1.649h-1.38v2.28l1.455-0.375L39.068,340.78z M45.202,344.724
			c0.84,0,0.99-0.39,1.14-2.069c0.42,0.3,1.2,0.6,1.725,0.72c-0.24,2.25-0.825,3.074-2.7,3.074h-3.255
			c-2.07,0-2.73-0.555-2.73-2.789v-10.2h7.964v8.37h-1.875v-0.945h-4.23v2.79c0,0.915,0.135,1.05,1.065,1.05H45.202z
			 M41.242,335.214v3.976h1.275v-3.976H41.242z M45.472,335.214h-1.29v3.976h1.29V335.214z"/>
		<path class="st2" d="M64.882,343.405c-0.585,0.3-1.17,0.6-1.725,0.854c0.585,0.42,1.275,0.765,2.085,0.975
			c-0.345,0.33-0.825,0.931-1.05,1.365c-1.995-0.675-3.3-2.085-4.065-4.005c-0.435,0.375-0.915,0.72-1.455,1.035v1.29l2.115-0.405
			c-0.045,0.39-0.045,0.975-0.015,1.305c-2.775,0.601-3.27,0.735-3.555,0.915c-0.09-0.345-0.36-0.915-0.57-1.199
			c0.27-0.12,0.6-0.421,0.6-1.021v-0.135c-0.42,0.18-0.825,0.314-1.23,0.45c-0.165-0.255-0.435-0.585-0.69-0.87l0.015,0.104
			c-1.38,0.405-2.85,0.78-4.065,1.11l-0.3-1.62c0.435-0.09,0.915-0.21,1.47-0.345v-3.69h-1.17v-1.545h1.17v-2.789h-1.275v-1.561
			h4.065v1.561h-1.23v2.789h1.095v1.545h-1.095v3.315l1.125-0.3l0.135,1.02c1.065-0.285,2.175-0.705,3.075-1.215h-1.725v-3.285h7.47
			v3.285h-2.505c0.165,0.375,0.39,0.72,0.645,1.02c0.555-0.314,1.11-0.704,1.485-1.005L64.882,343.405z M64.927,338.53h-9.18v-1.41
			h9.18V338.53z M64.447,336.639h-8.174v-3.404h8.174V336.639z M58.657,334.435h-0.945v1.005h0.945V334.435z M58.193,341.11h4.214
			v-0.841h-4.214V341.11z M60.787,334.435h-0.96v1.005h0.96V334.435z M62.917,334.435h-0.99v1.005h0.99V334.435z"/>
		<path class="st2" d="M73.463,343.149c-1.545,0.646-3.255,1.335-4.605,1.86l-0.585-1.83c0.495-0.149,1.08-0.33,1.725-0.555v-4.62
			h-1.455v-1.694h1.455v-3.36h1.74v3.36h1.275v1.694h-1.275v4.02c0.465-0.164,0.915-0.329,1.38-0.494L73.463,343.149z
			 M80.392,345.174c0.105,0,0.225,0,0.3-0.03s0.135-0.12,0.18-0.3c0.03-0.18,0.045-0.585,0.06-1.125
			c0.3,0.285,0.945,0.585,1.365,0.735c-0.045,0.555-0.105,1.154-0.225,1.409c-0.135,0.256-0.345,0.436-0.63,0.556
			c-0.225,0.09-0.645,0.135-0.93,0.135h-0.96c-0.39,0-0.87-0.12-1.14-0.36c-0.285-0.255-0.42-0.569-0.42-1.484v-1.815h-1.08
			c-0.255,1.98-1.005,3.21-3.81,3.915c-0.15-0.405-0.57-1.064-0.915-1.365c2.31-0.449,2.85-1.215,3.06-2.55h-1.245v-4.529h7.185
			v4.529h-1.545v1.86c0,0.195,0,0.3,0.06,0.359c0.06,0.046,0.15,0.061,0.27,0.061H80.392z M81.922,337.855h-8.504v-1.471h1.814
			c-0.075-0.33-0.21-0.689-0.33-0.989l1.44-0.285c0.18,0.375,0.375,0.899,0.465,1.274h1.695c0.165-0.42,0.33-0.899,0.435-1.274
			l1.62,0.3c-0.18,0.345-0.33,0.675-0.495,0.975h1.86V337.855z M81.532,335.094h-7.694v-1.439h2.97
			c-0.09-0.24-0.18-0.495-0.255-0.705l1.68-0.315c0.135,0.301,0.285,0.69,0.405,1.021h2.895V335.094z M75.637,340.104h3.84v-0.63
			h-3.84V340.104z M75.637,341.769h3.84v-0.63h-3.84V341.769z"/>
		<path class="st2" d="M98.827,335.35v7.484h-1.875v-0.75h-3.39v4.68h-1.89v-4.68h-3.375v0.825h-1.8v-7.56h5.175v-2.596h1.89v2.596
			H98.827z M91.673,340.33v-3.225h-3.375v3.225H91.673z M96.952,340.33v-3.225h-3.39v3.225H96.952z"/>
		<path class="st2" d="M111.982,337.599c1.605,1.155,3.915,2.88,4.995,4.065l-1.515,1.365c-0.93-1.11-2.97-2.82-4.59-4.065v7.77
			h-1.95v-7.319c-1.365,1.455-2.97,2.76-4.77,3.689c-0.285-0.479-0.84-1.215-1.23-1.619c2.73-1.275,5.07-3.601,6.465-5.896h-5.985
			v-1.83h13.004v1.83h-4.665c-0.255,0.465-0.555,0.931-0.87,1.38v1.561L111.982,337.599z"/>
		<path class="st2" d="M133.522,344.709c0,0.93-0.195,1.439-0.765,1.725c-0.57,0.3-1.41,0.345-2.655,0.345
			c-0.075-0.494-0.345-1.305-0.615-1.77c0.795,0.045,1.665,0.045,1.92,0.03c0.255-0.016,0.36-0.105,0.36-0.346v-9.539h-9.225v11.609
			h-1.74v-13.305h12.72V344.709z M130.882,337.705h-7.484v-1.5h7.484V337.705z M125.753,343.87v0.989h-1.65v-5.999h6.105v5.01
			H125.753z M125.753,340.33v2.069h2.805v-2.069H125.753z"/>
		<path class="st2" d="M151.027,335.065c0,0,0,0.6-0.015,0.81c-0.195,6.705-0.36,9.09-0.975,9.885c-0.42,0.555-0.84,0.72-1.44,0.825
			c-0.57,0.075-1.47,0.06-2.355,0.029c-0.03-0.494-0.27-1.244-0.585-1.739c0.96,0.09,1.845,0.09,2.235,0.09
			c0.3,0,0.465-0.061,0.66-0.255c0.435-0.48,0.63-2.73,0.795-8.024h-3.21c-0.39,0.899-0.855,1.725-1.32,2.369
			c-0.24-0.225-0.75-0.569-1.155-0.84v7.005h-4.005v1.095h-1.62v-11.145h1.695c0.195-0.75,0.375-1.71,0.435-2.415l1.95,0.271
			c-0.255,0.75-0.525,1.5-0.78,2.145h2.325v2.43c0.87-1.26,1.59-3.074,2.025-4.829l1.695,0.39c-0.15,0.646-0.36,1.275-0.585,1.905
			H151.027z M142.043,336.73h-2.385v2.43h2.385V336.73z M142.043,343.644v-2.939h-2.385v2.939H142.043z M147.022,342.834
			c-0.42-0.9-1.35-2.37-2.085-3.465l1.395-0.795c0.75,1.035,1.74,2.46,2.205,3.33L147.022,342.834z"/>
		<path class="st2" d="M166.237,344.424h2.04v1.229h-2.04v1.125h-1.77v-1.125h-9.495v-1.229h2.13v-3.645h-1.68v-1.23h0.075
			c-0.27-0.165-0.585-0.345-0.765-0.435c0.765-0.69,0.87-1.545,0.87-2.205v-0.915h5.655v2.475h-4.5
			c-0.12,0.391-0.285,0.75-0.54,1.08h5.775c-0.135-0.359-0.405-0.84-0.645-1.125c0.72-0.075,1.425-0.21,2.055-0.39
			c-0.42-0.33-0.78-0.705-1.065-1.14l0.48-0.136h-0.855v-0.944c-0.21-0.24-0.465-0.511-0.63-0.615
			c1.14-0.39,1.305-0.855,1.305-1.365V333.1h4.095v1.229c0,0.271,0.015,0.405,0.24,0.405h0.51c0.18,0,0.585-0.03,0.765-0.09
			c0.03,0.359,0.045,0.705,0.09,1.064c-0.18,0.075-0.54,0.09-0.825,0.09h-0.615l0.825,0.301c-0.33,0.81-0.855,1.454-1.515,1.949
			c0.645,0.181,1.38,0.3,2.175,0.36c-0.285,0.285-0.63,0.78-0.81,1.14h0.345v1.23h-1.68V344.424z M157.568,334.285h-2.55v-0.9h2.55
			v-0.645h1.605v0.645h2.46v0.9h-2.46v0.435h2.07v0.886h-5.79v-0.886h2.115V334.285z M156.952,336.849v0.091
			c0,0.21-0.015,0.435-0.03,0.675h0.84v-0.766H156.952z M158.827,340.78v0.51h5.64v-0.51H158.827z M158.827,342.865h5.64v-0.525
			h-5.64V342.865z M164.468,344.424v-0.51h-5.64v0.51H164.468z M159.892,336.849h-0.885v0.766h0.885V336.849z M167.242,339.549
			c-0.915-0.149-1.725-0.375-2.43-0.689c-0.72,0.3-1.5,0.524-2.37,0.689H167.242z M163.972,334.254
			c-0.075,0.57-0.315,1.11-0.915,1.561h3.48l0.09-0.016h-0.045c-1.095,0-1.275-0.495-1.275-1.47v-0.075H163.972z M163.762,336.759
			c0.24,0.285,0.57,0.525,0.96,0.721c0.375-0.195,0.69-0.436,0.96-0.721H163.762z"/>
		<path class="st2" d="M185.632,337.389v1.591h-13.455v-1.591h3.285c-0.135-0.51-0.36-1.095-0.6-1.56l1.455-0.285h-3.3v-1.575h5.055
			c-0.12-0.375-0.3-0.765-0.465-1.079l1.86-0.301c0.255,0.42,0.48,0.931,0.63,1.38h4.83v1.575h-3.104l1.38,0.3
			c-0.255,0.556-0.51,1.08-0.75,1.545H185.632z M174.038,339.894h9.884v6.885h-1.875v-0.51h-6.225v0.525h-1.785V339.894z
			 M175.823,341.379v0.99h6.225v-0.99H175.823z M182.047,344.799v-1.08h-6.225v1.08H182.047z M176.648,335.544
			c0.36,0.57,0.66,1.305,0.765,1.845h3.09c0.24-0.555,0.51-1.26,0.675-1.845H176.648z"/>
		<path class="st2" d="M202.822,334.9c-0.315,3.27-1.035,5.85-2.16,7.859c0.735,1.005,1.635,1.845,2.715,2.43
			c-0.405,0.33-0.96,1.005-1.23,1.471c-1.02-0.615-1.86-1.381-2.58-2.295c-0.765,0.93-1.65,1.68-2.67,2.295
			c-0.225-0.391-0.63-0.945-0.99-1.306v1.41h-1.725v-2.399c-1.725,0.3-3.48,0.569-4.86,0.779l-0.345-1.785
			c0.405-0.045,0.87-0.09,1.38-0.149v-7.965h-1.02v-1.65h7.53v1.065h4.485l0.3-0.045L202.822,334.9z M192.052,335.245v1.425h2.13
			v-1.425H192.052z M192.052,339.775h2.13v-1.5h-2.13V339.775z M192.052,343c0.69-0.09,1.41-0.195,2.13-0.285v-1.35h-2.13V343z
			 M195.907,345.114c0.99-0.555,1.86-1.364,2.595-2.385c-0.915-1.665-1.56-3.675-2.025-5.939l1.71-0.345
			c0.3,1.604,0.75,3.12,1.38,4.439c0.585-1.29,1.035-2.79,1.29-4.47h-4.425v-1.17h-0.525V345.114z"/>
		<path class="st2" d="M219.517,340.24v6.51h-2.01v-0.811h-10.304v-5.685h2.01v3.915h3.15v-4.71h-4.365v-5.444h1.89v3.72h2.475
			v-4.98h1.98v4.98h2.58v-3.72h1.98v5.444h-4.56v4.71h3.165v-3.93H219.517z"/>
		<path class="st2" d="M228.668,333.355c-0.39,1.05-0.885,2.114-1.44,3.119v10.275h-1.8v-7.5c-0.315,0.375-0.63,0.75-0.93,1.08
			c-0.165-0.436-0.675-1.455-0.99-1.905c1.365-1.35,2.67-3.479,3.42-5.609L228.668,333.355z M233.422,336.895v1.574h3.885v1.62
			h-3.885v1.695h4.08v1.649h-4.08v3.33h-1.83v-9.869h-0.57c-0.6,1.109-1.29,2.13-1.965,2.909c-0.285-0.33-0.99-0.96-1.365-1.245
			c1.32-1.35,2.505-3.51,3.18-5.654l1.725,0.435c-0.21,0.63-0.45,1.245-0.735,1.86h5.819v1.695H233.422z"/>
		<path class="st2" d="M254.497,341.5c-0.255,2.91-0.51,4.17-0.975,4.649c-0.33,0.375-0.66,0.495-1.125,0.556
			c-0.39,0.045-1.065,0.06-1.785,0.029c-0.03-0.479-0.21-1.14-0.48-1.59c0.6,0.075,1.17,0.075,1.455,0.075
			c0.21,0,0.345-0.03,0.495-0.165c0.24-0.24,0.435-0.99,0.615-2.7h-8.924c-0.24,0.181-0.495,0.346-0.765,0.511l1.365,0.435
			c-0.3,1.29-0.81,2.58-1.755,3.39l-1.395-0.885c0.795-0.675,1.35-1.725,1.62-2.835c-0.36,0.225-0.735,0.42-1.11,0.615
			c-0.21-0.45-0.63-1.155-0.93-1.561c2.475-1.14,4.365-2.999,5.745-5.145h-4.815v-1.56h2.52c-0.225-0.585-0.585-1.32-0.945-1.905
			l1.545-0.6c0.465,0.675,0.945,1.575,1.155,2.189l-0.75,0.315h2.175c0.42-0.84,0.765-1.695,1.035-2.565l1.785,0.495
			c-0.255,0.705-0.54,1.396-0.855,2.07h2.94c-0.15,0.899-0.375,1.92-0.57,2.745h1.71c-0.165,0.899-0.36,1.949-0.54,2.76h1.605
			L254.497,341.5z M246.338,343.285c0.255,0.869,0.42,2.01,0.405,2.76l-1.545,0.194c0.045-0.734-0.075-1.89-0.3-2.774
			L246.338,343.285z M246.713,339.61c-0.345,0.42-0.72,0.824-1.125,1.215h5.729c0.09-0.36,0.18-0.78,0.27-1.215H246.713z
			 M248.557,343.014c0.315,0.75,0.615,1.755,0.72,2.43l-1.425,0.36c-0.09-0.675-0.39-1.695-0.69-2.49L248.557,343.014z
			 M248.587,336.879c-0.225,0.405-0.465,0.795-0.72,1.186h2.295c0.09-0.36,0.18-0.766,0.255-1.186H248.587z M250.252,345.024
			c-0.12-0.524-0.51-1.395-0.885-2.024l1.23-0.42c0.405,0.6,0.825,1.425,0.975,1.979L250.252,345.024z"/>
		<path class="st2" d="M259.898,342.82c-0.105,1.319-0.345,2.744-0.645,3.645c-0.285-0.165-0.915-0.36-1.275-0.436
			c0.33-0.885,0.51-2.22,0.6-3.42L259.898,342.82z M258.532,338.679c-0.075-0.3-0.315-1.034-0.495-1.425
			c0.285-0.075,0.525-0.359,0.81-0.81c0.3-0.405,1.215-2.07,1.74-3.646l1.44,0.585c-0.525,1.245-1.215,2.551-1.935,3.615l1.05-0.075
			c0.375-0.66,0.75-1.364,1.065-2.069l1.305,0.84c-0.84,1.62-1.95,3.3-3.09,4.665l1.665-0.226c-0.15-0.435-0.315-0.87-0.495-1.245
			l1.17-0.435c0.435,0.885,0.855,2.07,0.975,2.805l-1.23,0.51c-0.015-0.12-0.045-0.255-0.075-0.404
			c-2.97,0.479-3.465,0.614-3.795,0.765c-0.075-0.285-0.33-1.035-0.495-1.44c0.36-0.09,0.69-0.435,1.125-1.005
			c0.21-0.225,0.585-0.72,1.02-1.364c-1.185,0.135-1.53,0.225-1.755,0.33V338.679z M261.383,342.504
			c0.18,0.975,0.345,2.235,0.39,3.09l-1.275,0.33c-0.015-0.87-0.165-2.145-0.315-3.12L261.383,342.504z M271.687,345.37
			c0,0.569-0.075,0.869-0.405,1.079c-0.3,0.211-0.69,0.226-1.215,0.226c-0.03-0.36-0.165-0.84-0.33-1.186
			c0.21,0.016,0.39,0.016,0.48,0.016c0.09,0,0.12-0.03,0.12-0.15v-1.529h-0.66v2.67h-0.96v-2.67h-0.615v2.744h-0.96v-2.744h-0.645
			v2.939h-1.275v-4.425c-0.18,1.545-0.48,3.09-0.945,4.335c-0.3-0.271-1.035-0.675-1.41-0.811c0.15-0.39,0.27-0.795,0.36-1.229
			l-0.81,0.3c-0.12-0.66-0.42-1.71-0.675-2.489l1.14-0.375c0.21,0.524,0.39,1.14,0.54,1.71c0.465-2.311,0.51-4.92,0.51-6.75v-3.271
			c2.22-0.18,4.71-0.524,6.165-0.989l1.29,1.185c-1.665,0.495-3.84,0.795-5.879,0.99v0.524h5.834v3.705h-5.88l-0.03,0.705h6.255
			V345.37z M265.508,336.834v0.18c0,0.256,0,0.525,0,0.811h4.26v-0.99H265.508z M267.142,342.445v-1.141h-0.645v1.141H267.142z
			 M268.717,342.445v-1.141h-0.615v1.141H268.717z M270.337,342.445v-1.141h-0.66v1.141H270.337z"/>
		<path class="st2" d="M288.652,335.709v10.995h-1.755v-0.811h-9v0.825h-1.695v-11.01h3.495v-2.805h1.755v2.805h1.8v-2.805h1.755
			v2.805H288.652z M277.898,337.45v2.505h1.8v-2.505H277.898z M277.898,344.139h1.8v-2.49h-1.8V344.139z M281.452,337.45v2.505h1.8
			v-2.505H281.452z M281.452,341.649v2.49h1.8v-2.49H281.452z M285.007,337.45v2.505h1.89v-2.505H285.007z M286.897,344.139v-2.49
			h-1.89v2.49H286.897z"/>
		<path class="st2" d="M306.277,335.065c0,0,0,0.6-0.015,0.81c-0.195,6.705-0.36,9.09-0.975,9.885c-0.42,0.555-0.84,0.72-1.44,0.825
			c-0.57,0.075-1.47,0.06-2.355,0.029c-0.03-0.494-0.27-1.244-0.585-1.739c0.96,0.09,1.845,0.09,2.235,0.09
			c0.3,0,0.465-0.061,0.66-0.255c0.435-0.48,0.63-2.73,0.795-8.024h-3.21c-0.39,0.899-0.855,1.725-1.32,2.369
			c-0.24-0.225-0.75-0.569-1.155-0.84v7.005h-4.005v1.095h-1.62v-11.145h1.695c0.195-0.75,0.375-1.71,0.435-2.415l1.95,0.271
			c-0.255,0.75-0.525,1.5-0.78,2.145h2.325v2.43c0.87-1.26,1.59-3.074,2.025-4.829l1.695,0.39c-0.15,0.646-0.36,1.275-0.585,1.905
			H306.277z M297.293,336.73h-2.385v2.43h2.385V336.73z M297.293,343.644v-2.939h-2.385v2.939H297.293z M302.272,342.834
			c-0.42-0.9-1.35-2.37-2.085-3.465l1.395-0.795c0.75,1.035,1.74,2.46,2.205,3.33L302.272,342.834z"/>
		<path class="st2" d="M315.068,344.169c-1.005,0.944-2.58,1.859-3.87,2.43c-0.3-0.33-0.945-0.945-1.335-1.215
			c1.305-0.45,2.745-1.125,3.555-1.845L315.068,344.169z M323.797,338.634h-7.05l0.345,0.285c-0.57,0.285-1.17,0.57-1.785,0.825
			l3.03-0.12c0.63-0.3,1.245-0.6,1.8-0.915l1.23,1.065c-1.755,0.885-3.645,1.649-5.535,2.279l4.32-0.18
			c-0.21-0.165-0.435-0.33-0.63-0.48l1.335-0.81c0.945,0.689,2.25,1.695,2.865,2.385l-1.425,0.885c-0.21-0.255-0.51-0.54-0.84-0.87
			l-3.405,0.181v1.8c0,0.81-0.165,1.26-0.81,1.515c-0.63,0.24-1.455,0.255-2.55,0.255c-0.075-0.495-0.375-1.185-0.615-1.635
			c0.765,0.03,1.68,0.045,1.935,0.03c0.255,0,0.315-0.061,0.315-0.226v-1.635c-4.05,0.226-4.71,0.3-5.205,0.465
			c-0.045-0.284-0.255-1.034-0.375-1.439c0.6-0.061,1.23-0.225,2.205-0.54c0.45-0.15,1.365-0.465,2.475-0.9
			c-2.52,0.15-2.985,0.226-3.3,0.346c-0.075-0.3-0.285-1.005-0.435-1.41c0.345-0.045,0.675-0.15,1.125-0.315
			c0.33-0.12,1.11-0.42,1.935-0.84h-4.695v-1.35h5.91V336.7h-4.395v-1.275h4.395v-0.569h-5.19v-1.29h5.19v-0.825h1.8v0.825h5.295
			v1.29h-5.295v0.569h4.53v1.275h-4.53v0.585h6.03V338.634z M320.077,343.509c1.14,0.555,2.76,1.44,3.615,2.085l-1.38,1.035
			c-0.75-0.63-2.34-1.575-3.525-2.205L320.077,343.509z"/>
		<path class="st2" d="M332.753,341.785c-0.3-0.48-0.78-1.17-1.275-1.815v6.78h-1.8v-5.805c-0.525,1.305-1.14,2.52-1.83,3.359
			c-0.18-0.555-0.6-1.305-0.915-1.785c1.065-1.199,2.01-3.18,2.52-4.979h-2.084v-1.695h2.31v-3.09h1.8v3.09h1.89v1.695h-1.89v0.405
			c0.6,0.495,1.98,1.935,2.31,2.31L332.753,341.785z M341.107,337.54h-1.425v7.02c0,1.035-0.225,1.5-0.84,1.785
			c-0.6,0.3-1.56,0.345-2.85,0.345c-0.075-0.51-0.345-1.305-0.6-1.8c0.825,0.03,1.755,0.03,2.01,0.03
			c0.27-0.016,0.375-0.09,0.375-0.36V340c-1.11,1.785-2.55,3.45-3.99,4.545c-0.3-0.465-0.825-1.095-1.29-1.47
			c1.86-1.17,3.66-3.36,4.74-5.535h-3.45v-1.695h3.99v-3.06h1.905v3.06h1.425V337.54z"/>
		<path class="st2" d="M45.652,391.589c-0.045,0.63-0.075,1.155-0.12,1.635h1.68v1.561h-1.86c-0.105,0.63-0.225,1.005-0.39,1.229
			c-0.33,0.48-0.735,0.63-1.245,0.705c-0.48,0.075-1.245,0.075-1.995,0.03c-0.015-0.391-0.21-0.976-0.435-1.365
			c0.675,0.06,1.26,0.075,1.575,0.06c0.255,0,0.39-0.029,0.525-0.239c0.06-0.091,0.12-0.21,0.18-0.42h-8.069
			c0.18-0.886,0.36-2.011,0.54-3.195h-2.07V390h2.295c0.12-0.9,0.225-1.83,0.315-2.655c-0.375,0.45-0.735,0.886-1.11,1.261
			c-0.375-0.285-1.155-0.811-1.605-1.035c1.38-1.155,2.685-3.045,3.45-4.89l1.77,0.51c-0.135,0.3-0.285,0.615-0.435,0.93h8.654v1.59
			h-9.584c-0.255,0.405-0.51,0.78-0.78,1.155h8.879c0,0-0.015,0.569-0.015,0.78c-0.03,0.869-0.06,1.635-0.09,2.354h2.16v1.59H45.652
			z M37.823,391.53c-0.09,0.6-0.165,1.154-0.255,1.694h3.285c-0.525-0.404-1.185-0.825-1.785-1.109l0.6-0.585H37.823z
			 M38.227,388.424c-0.06,0.54-0.135,1.08-0.21,1.635h2.985c-0.525-0.39-1.155-0.779-1.74-1.034l0.615-0.601H38.227z
			 M43.792,393.224c0.03-0.479,0.075-1.02,0.105-1.694h-3.12c0.69,0.375,1.35,0.824,1.755,1.185l-0.51,0.51H43.792z M43.957,390.059
			c0.03-0.51,0.045-1.034,0.06-1.635h-3.045c0.66,0.345,1.305,0.78,1.71,1.125l-0.51,0.51H43.957z"/>
		<path class="st2" d="M55.552,383.294c-0.33,0.945-0.72,1.905-1.17,2.851v10.634h-1.695v-7.68c-0.33,0.466-0.66,0.9-1.005,1.29
			c-0.135-0.435-0.57-1.484-0.84-1.935c1.245-1.365,2.385-3.51,3.06-5.67L55.552,383.294z M64.717,383.52v13.094h-1.695v-0.734
			h-5.64v0.87h-1.62V383.52H64.717z M63.022,394.334v-9.27h-5.64v9.27H63.022z M60.862,388.2v1.29h1.44v4.02h-4.155v-4.02h1.335
			v-1.29h-1.725v-1.29h1.725v-1.53h1.38v1.53h1.815v1.29H60.862z M60.968,390.719h-1.53v1.575h1.53V390.719z"/>
		<path class="st2" d="M73.582,394.365c-1.005,0.854-2.61,1.694-3.915,2.204c-0.285-0.345-0.915-0.96-1.305-1.244
			c1.32-0.375,2.775-0.976,3.585-1.62L73.582,394.365z M81.967,389.745H68.738v-1.41h5.685c-0.075-0.15-0.165-0.285-0.255-0.405
			l0.69-0.21h-4.575v-4.499h10.185v4.499h-4.515c0.135,0.195,0.27,0.405,0.375,0.615h5.64V389.745z M76.312,393.554v1.68
			c0,0.766-0.18,1.11-0.765,1.306c-0.585,0.194-1.365,0.194-2.415,0.194c-0.09-0.435-0.285-0.975-0.495-1.364
			c0.615,0.029,1.41,0.029,1.605,0.015c0.21-0.015,0.285-0.06,0.285-0.225v-1.605h-3.885v-3.27h9.6v3.27H76.312z M71.992,384.929
			h6.69v-0.614h-6.69V384.929z M71.992,386.61h6.69v-0.646h-6.69V386.61z M72.352,392.339h6.09v-0.84h-6.09V392.339z M78.112,393.75
			c1.26,0.42,3,1.17,3.93,1.739l-1.245,1.096c-0.84-0.556-2.55-1.365-3.84-1.875L78.112,393.75z"/>
		<path class="st2" d="M85.508,396.165c0.54-0.63,0.885-1.665,1.02-2.655l1.2,0.36c-0.18,1.064-0.435,2.204-1.065,2.895
			L85.508,396.165z M85.838,391.665c0.75-0.016,1.665-0.045,2.67-0.075v-0.72h-2.31v-1.351h2.31v-0.659h-2.34v-5.655h6.345v5.655
			h-2.43v0.659h2.4v1.351h-2.4v0.66c0.87-0.03,1.77-0.075,2.64-0.105l-0.03,1.38c-2.43,0.15-4.995,0.285-6.81,0.36L85.838,391.665z
			 M87.503,387.66h1.26v-3.255h-1.26v0.63l0.705-0.21c0.24,0.689,0.435,1.575,0.48,2.16l-0.795,0.239
			c-0.03-0.569-0.18-1.409-0.39-2.084V387.66z M88.927,393.464c0.18,0.84,0.3,1.905,0.315,2.625l-1.155,0.135
			c0.03-0.705-0.09-1.785-0.255-2.625L88.927,393.464z M90.398,393.33c0.285,0.795,0.555,1.8,0.645,2.489l-1.095,0.226
			c-0.075-0.675-0.33-1.71-0.615-2.505L90.398,393.33z M91.133,384.405h-1.29v2.475c0.21-0.6,0.465-1.47,0.57-2.069l0.72,0.255
			V384.405z M91.133,387.66v-2.13c-0.24,0.63-0.48,1.274-0.675,1.71l-0.615-0.226v0.646H91.133z M91.852,393.014
			c0.48,0.705,0.96,1.665,1.155,2.325l-1.125,0.465c-0.18-0.66-0.63-1.65-1.095-2.399L91.852,393.014z M96.742,387.495v2.31h2.4
			v6.885h-1.71v-0.524h-2.775v0.585h-1.62v-6.945h1.965v-7.034h1.74v3.074h2.895v1.65H96.742z M97.432,391.424h-2.775v3.135h2.775
			V391.424z"/>
		<path class="st2" d="M113.587,394.799c1.23,0,1.455-0.255,1.62-1.68c0.435,0.27,1.215,0.54,1.71,0.614
			c-0.3,2.115-0.9,2.73-3.21,2.73h-4.89c-2.76,0-3.57-0.54-3.57-2.64v-5.641c-0.33,0.315-0.66,0.631-0.975,0.9
			c-0.315-0.36-1.05-1.035-1.455-1.35c1.605-1.17,3.105-3.075,3.915-5.07l1.845,0.556c-0.225,0.51-0.48,0.989-0.765,1.484h7.92
			c0,0-0.015,0.525-0.03,0.75c-0.135,4.71-0.27,6.465-0.69,7.05c-0.3,0.45-0.645,0.6-1.095,0.675
			c-0.405,0.075-1.035,0.09-1.725,0.061c-0.015-0.511-0.195-1.245-0.465-1.695c0.51,0.045,0.96,0.06,1.215,0.045
			c0.21,0.015,0.345-0.045,0.465-0.21c0.24-0.315,0.36-1.59,0.465-4.995h-7.14c-0.285,0.391-0.57,0.75-0.855,1.096h5.729v4.8h-4.59
			v1.515c0,0.87,0.24,1.005,1.8,1.005H113.587z M107.017,389.04v1.649h2.85v-1.649H107.017z"/>
		<path class="st2" d="M128.587,383.549c-0.105,0.12-0.21,0.226-0.315,0.315c1.44,1.185,3.885,2.28,6.06,2.82
			c-0.39,0.359-0.945,1.079-1.215,1.545c-1.17-0.375-2.415-0.945-3.57-1.636v0.886h-5.205v-0.705c-1.02,0.569-2.085,1.05-3.12,1.455
			c-0.27-0.466-0.765-1.125-1.229-1.561c2.535-0.825,5.43-2.265,6.989-4.02L128.587,383.549z M131.857,388.514
			c-0.495,0.945-1.065,1.936-1.65,2.835h1.86v5.445h-1.83v-0.51h-5.984v0.51h-1.755v-5.445h5.595
			c0.345-0.54,0.705-1.125,1.035-1.694h-7.02v-1.561h8.04l0.315-0.074L131.857,388.514z M130.237,392.879h-5.984v1.875h5.984
			V392.879z M128.647,386.009c-0.54-0.359-1.02-0.75-1.47-1.14c-0.495,0.39-1.02,0.78-1.56,1.14H128.647z"/>
		<path class="st2" d="M151.312,388.65v1.935h-13.8v-1.935H151.312z"/>
		<path class="st2" d="M162.742,386.4c-0.135,0.33-0.285,0.645-0.42,0.944h4.53v9.435h-1.86v-0.705h-6.84v0.705h-1.77v-9.435h3.96
			c0.105-0.314,0.18-0.63,0.255-0.944h-5.7v-1.65h3.435c-0.3-0.465-0.72-0.975-1.08-1.395l1.59-0.721
			c0.555,0.54,1.155,1.275,1.455,1.771l-0.66,0.345h3.435c0.435-0.615,0.9-1.425,1.155-2.04l2.055,0.45
			c-0.39,0.57-0.81,1.125-1.2,1.59h3.36v1.65H162.742z M164.992,388.889h-6.84v0.915h6.84V388.889z M164.992,391.155h-6.84v0.975
			h6.84V391.155z M164.992,394.514v-1.02h-6.84v1.02H164.992z"/>
		<path class="st2" d="M185.812,388.65v1.935h-13.8v-1.935H185.812z"/>
		<path class="st2" d="M199.027,382.98c0.69,2.189,2.22,4.319,4.305,5.399c-0.36,0.375-0.975,1.14-1.26,1.65
			c-0.39-0.255-0.78-0.556-1.14-0.87c-0.165,4.425-0.345,6.149-0.87,6.765c-0.375,0.495-0.78,0.645-1.365,0.72
			c-0.51,0.075-1.38,0.075-2.265,0.045c-0.03-0.54-0.27-1.29-0.585-1.8c0.825,0.061,1.605,0.075,1.98,0.075
			c0.27,0,0.435-0.03,0.6-0.21c0.3-0.33,0.465-1.665,0.6-4.785h-2.955c-0.375,2.88-1.35,5.445-5.235,6.9
			c-0.225-0.511-0.75-1.245-1.185-1.65c3.39-1.095,4.17-3.075,4.47-5.25h-2.535v-0.989c-0.36,0.39-0.735,0.749-1.125,1.079
			c-0.315-0.359-1.08-1.02-1.5-1.319c1.695-1.215,3.03-3.226,3.72-5.475l1.875,0.449c-0.555,1.681-1.38,3.24-2.355,4.516h7.77
			c-0.975-1.065-1.74-2.325-2.265-3.585h-2.385v-1.665H199.027z"/>
		<path class="st2" d="M211.613,393.78l0.09,1.409c-1.71,0.42-3.51,0.811-4.86,1.141l-0.315-1.605c0.57-0.09,1.275-0.225,2.04-0.375
			v-3.734h-1.845v-1.516h1.845v-1.095h-1.05v-0.66c-0.225,0.226-0.435,0.436-0.66,0.63c-0.09-0.39-0.405-1.395-0.585-1.829
			c1.02-0.811,2.13-2.115,2.76-3.48l1.2,0.601c-0.075,0.18-0.165,0.359-0.255,0.54c0.84,0.539,1.68,1.17,2.175,1.68l-0.675,1.47
			c-0.105-0.105-0.21-0.225-0.33-0.345v1.395h-1.23v1.095h1.68v1.516h-1.68v3.494L211.613,393.78z M207.833,391.155
			c0.225,0.824,0.435,1.89,0.51,2.564l-1.05,0.345c-0.06-0.705-0.27-1.784-0.465-2.595L207.833,391.155z M211.043,386.52
			c-0.51-0.48-1.155-0.99-1.8-1.426c-0.315,0.511-0.66,0.976-1.02,1.426H211.043z M210.037,393.54c0.18-0.675,0.39-1.755,0.48-2.521
			l1.17,0.346c-0.27,0.885-0.525,1.875-0.72,2.505L210.037,393.54z M216.997,395.144h3.45v1.26h-8.564v-1.26h3.435v-0.66h-2.88
			v-1.229h2.88v-0.57h-2.685v-4.38h7.155v4.38h-2.79v0.57h2.955v1.229h-2.955V395.144z M220.507,386.49v1.35h-8.58v-1.35h1.83
			c-0.09-0.33-0.21-0.675-0.345-0.976l0.945-0.18h-2.085V384h3.075c-0.105-0.314-0.255-0.66-0.42-0.915l1.65-0.39
			c0.285,0.39,0.525,0.899,0.63,1.305h2.895v1.335h-2.13l1.11,0.195c-0.165,0.345-0.33,0.66-0.48,0.96H220.507z M214.133,390h1.275
			v-0.646h-1.275V390z M214.133,391.634h1.275v-0.66h-1.275V391.634z M214.942,385.334c0.18,0.375,0.345,0.84,0.405,1.155h1.635
			c0.15-0.39,0.3-0.795,0.375-1.155H214.942z M218.212,389.354h-1.32V390h1.32V389.354z M218.212,390.974h-1.32v0.66h1.32V390.974z"
			/>
		<path class="st2" d="M235.372,394.919c0.48,0,0.555-0.255,0.63-1.8c0.36,0.27,1.11,0.555,1.605,0.675
			c-0.195,2.175-0.66,2.76-2.07,2.76h-1.875c-1.74,0-2.16-0.54-2.16-2.16v-2.88h-2.01c-0.195,2.865-0.9,4.47-4.86,5.25
			c-0.135-0.45-0.6-1.155-0.945-1.515c3.39-0.556,3.84-1.575,3.975-3.735h-3.705v-1.68h13.364v1.68h-4.005v2.865
			c0,0.479,0.09,0.54,0.615,0.54H235.372z M226.012,388.02h-1.77v-3.721h5.475c-0.15-0.404-0.33-0.81-0.51-1.17l1.83-0.54
			c0.3,0.525,0.615,1.155,0.81,1.71h5.175v3.721h-1.875v-2.011h-9.135V388.02z M226.702,388.74v-1.65h7.755v1.65H226.702z"/>
		<path class="st2" d="M253.687,385.709c-0.285,0.96-0.705,1.771-1.23,2.445c0.675,0.495,1.53,0.899,2.505,1.154
			c-0.33,0.315-0.78,0.976-0.975,1.38c-1.02-0.345-1.89-0.84-2.595-1.454c-0.75,0.6-1.62,1.064-2.655,1.425
			c-0.15-0.33-0.675-0.976-0.99-1.275c1.02-0.285,1.89-0.675,2.565-1.215c-0.33-0.42-0.63-0.854-0.885-1.305
			c-0.21,0.255-0.42,0.495-0.645,0.689c-0.18-0.239-0.585-0.689-0.915-1.02v1.53h-1.425c0.525,0.3,1.08,0.659,1.395,0.93
			l-0.735,0.99c-0.345-0.346-1.02-0.825-1.605-1.17v1.529h-1.56v-1.185c-0.615,0.615-1.35,1.14-2.04,1.484
			c-0.225-0.345-0.675-0.869-1.005-1.125c0.855-0.314,1.755-0.854,2.415-1.454h-1.755v-2.851h2.385v-0.51h-2.73v-1.245h2.73v-0.72
			h1.56v0.72h2.595v1.245h-2.595v0.51h2.37v0.886c0.855-0.825,1.515-2.04,1.86-3.33l1.59,0.375c-0.12,0.39-0.255,0.765-0.39,1.14
			h3.75v1.425H253.687z M248.738,394.934h6v1.47h-13.665v-1.47h2.22v-2.265h1.71v2.265h1.98v-2.819h-5.01v-1.44h11.835v1.44h-5.07
			v0.75h3.87v1.305h-3.87V394.934z M242.932,387.03h1.005v-0.766h-1.005V387.03z M245.497,386.264v0.766h0.915v-0.766H245.497z
			 M245.903,388.065h-0.405v0.494L245.903,388.065z M250.343,385.709c0.24,0.495,0.555,0.96,0.975,1.425
			c0.3-0.42,0.525-0.885,0.705-1.425H250.343z"/>
		<path class="st2" d="M269.347,388.365c0,0.345-0.015,0.689-0.03,1.08c0.6,2.819,1.47,4.529,3.24,5.97
			c-0.435,0.314-0.915,0.84-1.125,1.319c-1.275-1.154-2.115-2.399-2.73-4.005c-0.48,1.425-1.335,2.865-2.76,4.08
			c-0.165-0.314-0.51-0.75-0.84-1.05c-0.075,0.3-0.24,0.479-0.57,0.615c-0.48,0.194-1.155,0.21-2.1,0.21
			c-0.075-0.391-0.3-0.9-0.48-1.26c0.555,0.029,1.2,0.029,1.38,0.029c0.195-0.015,0.255-0.06,0.255-0.225v-4.32h-5.46v-1.529h5.37
			v-4.47h-5.205v-1.5h7.649v1.5h-0.87v3.404c0.855-1.335,1.425-3.404,1.71-5.475l1.695,0.285c-0.105,0.645-0.225,1.274-0.375,1.904
			h2.745l0.24-0.074l1.2,0.33c-0.24,1.484-0.615,3.194-0.945,4.274l-1.395-0.405c0.15-0.66,0.33-1.62,0.465-2.564h-2.745
			c-0.345,1.08-0.75,2.055-1.23,2.79h0.12v1.529h-1.395v4.351v0.06c2.34-2.16,2.595-5.055,2.595-6.885v-1.14h1.59V388.365z
			 M260.213,394.859v0.525h-1.44v-3.96h4.035v3.435H260.213z M262.597,385.395v3.284h-3.75v-3.284H262.597z M261.248,386.549h-1.14
			v0.99h1.14V386.549z M260.213,392.639v0.99h1.215v-0.99H260.213z M265.073,389.28h1.335c-0.3-0.24-0.915-0.601-1.335-0.825V389.28
			z"/>
		<path class="st2" d="M288.652,385.709v10.995h-1.755v-0.811h-9v0.825h-1.695v-11.01h3.495v-2.805h1.755v2.805h1.8v-2.805h1.755
			v2.805H288.652z M277.898,387.45v2.505h1.8v-2.505H277.898z M277.898,394.139h1.8v-2.49h-1.8V394.139z M281.452,387.45v2.505h1.8
			v-2.505H281.452z M281.452,391.649v2.49h1.8v-2.49H281.452z M285.007,387.45v2.505h1.89v-2.505H285.007z M286.897,394.139v-2.49
			h-1.89v2.49H286.897z"/>
		<path class="st2" d="M297.323,389.115c0.6,0.6,1.95,2.175,2.28,2.58l-1.02,1.484c-0.285-0.51-0.765-1.26-1.26-1.965v5.535h-1.8
			v-5.34c-0.6,1.41-1.305,2.699-2.1,3.585c-0.165-0.525-0.6-1.23-0.9-1.681c1.02-1.08,1.98-2.805,2.565-4.454h-2.235v-1.65h2.67
			v-1.95c-0.735,0.12-1.455,0.226-2.145,0.315c-0.075-0.405-0.285-1.005-0.48-1.395c1.95-0.271,4.14-0.75,5.505-1.29l1.155,1.395
			c-0.66,0.24-1.44,0.45-2.235,0.63v2.295h2.175v1.65h-2.175V389.115z M305.887,384.165v11.774h-1.845v-1.08h-2.4v1.186h-1.755
			v-11.88H305.887z M304.042,393.149v-7.274h-2.4v7.274H304.042z"/>
		<path class="st2" d="M323.392,394.035v1.829h-13.02v-1.829H323.392z M322.582,384.195v1.8h-11.37v-1.8H322.582z M321.397,388.98
			v1.814h-9.149v-1.814H321.397z"/>
		<path class="st2" d="M333.247,393.464c-1.095,0.195-2.235,0.375-3.3,0.555v2.43h-1.71v-2.159l-0.93,0.149l-0.27-1.68
			c0.36-0.045,0.765-0.09,1.2-0.15v-8.414l0.06,0.015l-0.015-0.015c1.41-0.42,2.985-1.08,3.96-1.62l1.41,1.365
			c-1.125,0.479-2.445,0.93-3.705,1.305v1.005h3.03v1.545h-3.03v1.5h2.985v1.545h-2.985v1.545c1.02-0.135,2.13-0.3,3.21-0.45
			L333.247,393.464z M340.372,389.775c-0.405,1.814-1.14,3.225-2.115,4.305c0.825,0.54,1.815,0.915,2.97,1.154
			c-0.375,0.36-0.87,1.065-1.11,1.53c-1.229-0.345-2.28-0.84-3.18-1.53c-0.99,0.721-2.16,1.215-3.495,1.59
			c-0.18-0.449-0.555-1.154-0.9-1.529c1.185-0.255,2.25-0.675,3.15-1.26c-0.675-0.825-1.215-1.771-1.65-2.851l0.915-0.225h-1.455
			v-1.5h0.525c-0.285-0.33-0.87-0.854-1.17-1.065c1.455-0.899,1.62-2.159,1.62-3.225v-1.845h1.65v0.015h1.47v-0.015h1.635v3.524
			c0,0.421,0.03,0.57,0.225,0.57h0.675c0.21,0,0.555-0.03,0.75-0.09c0.03,0.42,0.075,0.99,0.135,1.365
			c-0.225,0.09-0.555,0.104-0.87,0.104h-0.855c-1.41,0-1.695-0.585-1.695-1.979v-1.98h-1.47v0.375c0,1.396-0.33,3.15-1.89,4.245
			h4.74l0.3-0.045L340.372,389.775z M335.542,390.959c0.33,0.765,0.795,1.455,1.365,2.055c0.57-0.585,1.02-1.274,1.35-2.055H335.542
			z"/>
		<path class="st2" d="M42.982,412.599c1.605,1.155,3.915,2.88,4.995,4.065l-1.515,1.365c-0.93-1.11-2.97-2.82-4.59-4.065v7.77
			h-1.95v-7.319c-1.365,1.455-2.97,2.76-4.77,3.689c-0.285-0.479-0.84-1.215-1.23-1.619c2.73-1.275,5.07-3.601,6.465-5.896h-5.985
			v-1.83h13.004v1.83h-4.665c-0.255,0.465-0.555,0.931-0.87,1.38v1.561L42.982,412.599z"/>
		<path class="st2" d="M64.522,419.709c0,0.93-0.195,1.439-0.765,1.725c-0.57,0.3-1.41,0.345-2.655,0.345
			c-0.075-0.494-0.345-1.305-0.615-1.77c0.795,0.045,1.665,0.045,1.92,0.03c0.255-0.016,0.36-0.105,0.36-0.346v-9.539h-9.225v11.609
			h-1.74v-13.305h12.72V419.709z M61.882,412.705h-7.484v-1.5h7.484V412.705z M56.753,418.87v0.989h-1.65v-5.999h6.105v5.01H56.753z
			 M56.753,415.33v2.069h2.805v-2.069H56.753z"/>
		<path class="st2" d="M82.027,410.065c0,0,0,0.6-0.015,0.81c-0.195,6.705-0.36,9.09-0.975,9.885c-0.42,0.555-0.84,0.72-1.44,0.825
			c-0.57,0.075-1.47,0.06-2.355,0.029c-0.03-0.494-0.27-1.244-0.585-1.739c0.96,0.09,1.845,0.09,2.235,0.09
			c0.3,0,0.465-0.061,0.66-0.255c0.435-0.48,0.63-2.73,0.795-8.024h-3.21c-0.39,0.899-0.855,1.725-1.32,2.369
			c-0.24-0.225-0.75-0.569-1.155-0.84v7.005h-4.005v1.095h-1.62v-11.145h1.695c0.195-0.75,0.375-1.71,0.435-2.415l1.95,0.271
			c-0.255,0.75-0.525,1.5-0.78,2.145h2.325v2.43c0.87-1.26,1.59-3.074,2.025-4.829l1.695,0.39c-0.15,0.646-0.36,1.275-0.585,1.905
			H82.027z M73.043,411.73h-2.385v2.43h2.385V411.73z M73.043,418.644v-2.939h-2.385v2.939H73.043z M78.022,417.834
			c-0.42-0.9-1.35-2.37-2.085-3.465l1.395-0.795c0.75,1.035,1.74,2.46,2.205,3.33L78.022,417.834z"/>
		<path class="st2" d="M91.028,417.399c0.735,1.035,1.605,2.355,2.025,3.24l-1.455,0.75c-0.135-0.315-0.345-0.689-0.57-1.095
			c-3.3,0.81-3.87,0.975-4.215,1.185c-0.12-0.39-0.525-1.08-0.795-1.38c0.285-0.21,0.63-0.645,0.63-1.319v-6.57
			c-0.285-0.42-0.75-1.02-1.02-1.305c0.915-0.795,1.785-2.04,2.265-3.271l1.755,0.525c-0.06,0.165-0.135,0.315-0.21,0.48h3.135v1.5
			h-2.28c0.405,0.345,0.825,0.765,1.065,1.064l-0.93,0.78h2.1v5.354h-4.245v2.01l1.92-0.42c-0.195-0.314-0.405-0.615-0.585-0.899
			L91.028,417.399z M88.628,410.14c-0.435,0.689-0.915,1.305-1.395,1.845h2.58c-0.315-0.375-0.735-0.811-1.08-1.125l0.87-0.72
			H88.628z M90.863,413.32h-2.58v0.779h2.58V413.32z M90.863,416.004v-0.63h-2.58v0.63H90.863z M99.517,410.14h-2.505
			c0.36,0.329,0.735,0.689,0.93,0.944l-1.065,0.9h2.145v6.209c0,0.825-0.135,1.275-0.72,1.546c-0.54,0.27-1.305,0.284-2.4,0.284
			c-0.06-0.479-0.3-1.185-0.51-1.635c0.675,0.03,1.425,0.03,1.635,0.016c0.225,0,0.3-0.061,0.3-0.256v-4.544h-2.34v8.114h-1.68
			v-9.225c-0.33-0.36-0.93-0.945-1.305-1.215c0.855-0.87,1.59-2.25,1.965-3.646l1.815,0.45c-0.06,0.181-0.12,0.375-0.18,0.556h3.915
			V410.14z M96.517,411.985c-0.3-0.375-0.765-0.87-1.17-1.23l0.75-0.614h-1.125c-0.33,0.689-0.705,1.305-1.08,1.845H96.517z"/>
		<path class="st2" d="M113.407,414.384c0.96,0.915,2.25,1.65,3.645,2.055c-0.375,0.33-0.9,0.99-1.14,1.426
			c-1.185-0.436-2.265-1.11-3.18-1.965v0.675h-1.995v0.045c0,0.24-0.015,0.495-0.045,0.75h4.08v1.38h-2.97
			c1.38,0.495,3.135,1.215,4.095,1.8l-1.305,1.245c-0.915-0.63-2.865-1.516-4.334-2.055l1.08-0.99h-1.05
			c-0.6,1.17-2.01,2.31-5.1,3.06c-0.21-0.375-0.735-0.96-1.08-1.274c2.145-0.48,3.405-1.11,4.095-1.785h-3.15v-1.275
			c-0.33,0.181-0.69,0.36-1.05,0.525c-0.225-0.436-0.78-1.08-1.185-1.351c1.485-0.6,2.655-1.35,3.54-2.265h-3.225v-1.41h4.365
			c0.15-0.239,0.285-0.465,0.405-0.704h-3.135v-1.396h3.705c0.075-0.225,0.135-0.45,0.195-0.689h-4.439v-1.396h4.695
			c0.045-0.345,0.075-0.705,0.09-1.035l1.83,0.12c-0.03,0.3-0.06,0.601-0.105,0.915h4.95v1.396h-5.235
			c-0.06,0.225-0.12,0.465-0.18,0.689h4.845v1.396h-5.325c-0.105,0.239-0.225,0.465-0.345,0.704h7.215v1.41H113.407z
			 M109.012,417.37c0.075-0.285,0.09-0.54,0.09-0.795h-1.89v-0.646c-0.57,0.525-1.23,1.021-1.98,1.44H109.012z M108.577,414.384
			c-0.195,0.285-0.42,0.57-0.66,0.84h4.155c-0.24-0.27-0.465-0.555-0.66-0.84H108.577z"/>
	</g>
	<path class="st17" d="M186.405,356.744L186.405,356.744l0,9.555l-2.201-2.201c-0.293-0.293-0.768-0.293-1.061,0l-0.487,0.487
		c-0.293,0.293-0.293,0.768,0,1.061l4.313,4.314c0.293,0.293,0.767,0.293,1.06,0.001l4.315-4.315c0.141-0.141,0.22-0.331,0.22-0.53
		s-0.079-0.391-0.22-0.531l-0.488-0.487c-0.294-0.292-0.768-0.292-1.061,0.001l-2.2,2.201v-9.555h0c0-0.414-0.336-0.75-0.75-0.75
		h-0.689C186.741,355.994,186.405,356.329,186.405,356.744z"/>
</g>
<g id="圖層_4" class="st20">
</g>
</svg>
