<?xml version="1.0" encoding="utf-8"?>
<!-- Generator: Adobe Illustrator 22.0.1, SVG Export Plug-In . SVG Version: 6.00 Build 0)  -->
<svg version="1.1" xmlns="http://www.w3.org/2000/svg" xmlns:xlink="http://www.w3.org/1999/xlink" x="0px" y="0px"
	 viewBox="0 0 375 478.879" style="enable-background:new 0 0 375 478.879;" xml:space="preserve">
<style type="text/css">
	.st0{fill:#EFEFEF;}
	.st1{fill:#15AF83;}
	.st2{fill:#171C61;}
	.st3{fill:#17AD7B;}
	.st4{opacity:0.6;}
	.st5{fill:#FFFFFF;}
	.st6{fill:#165987;}
	.st7{fill:#D64B3C;}
	.st8{fill:#D65677;}
	.st9{fill:#DD722A;}
	.st10{fill:#005E9E;}
	.st11{fill:#D67327;}
	.st12{clip-path:url(#SVGID_6_);fill:none;}
	.st13{clip-path:url(#SVGID_6_);}
	.st14{fill:none;stroke:#FFFFFF;stroke-width:0.6;stroke-miterlimit:10;}
	.st15{fill:#113272;}
	.st16{opacity:0.2;}
	.st17{opacity:0.2;fill:#171C61;}
	.st18{opacity:0.4;}
	.st19{opacity:0.8;}
	.st20{display:none;}
	.st21{display:inline;fill:#C30D23;}
</style>
<g id="圖層_3">
</g>
<g id="圖層_2">
</g>
<g id="圖層_1">
	<rect x="0.072" y="0.003" class="st5" width="374.856" height="478.876"/>
	<g>
		<path class="st2" d="M25.058,26.076h4.44v8.73h8.399v-8.73h4.41v22.199h-4.41v-9.6h-8.399v9.6h-4.44V26.076z"/>
		<path class="st2" d="M49.357,39.906c0-5.61,3.87-8.85,8.07-8.85s8.07,3.239,8.07,8.85c0,5.55-3.87,8.789-8.07,8.789
			S49.357,45.456,49.357,39.906z M60.997,39.906c0-3.18-1.29-5.25-3.57-5.25s-3.57,2.07-3.57,5.25c0,3.149,1.29,5.189,3.57,5.189
			S60.997,43.055,60.997,39.906z"/>
		<path class="st2" d="M70.388,31.476h4.41l1.83,8.31c0.33,1.62,0.54,3.239,0.84,4.89h0.12c0.33-1.65,0.63-3.3,1.05-4.89l2.01-8.31
			h3.93l2.1,8.31c0.39,1.62,0.69,3.239,1.05,4.89h0.15c0.3-1.65,0.51-3.27,0.84-4.89l1.83-8.31h4.08l-4.14,16.799h-5.19l-1.77-7.319
			c-0.36-1.59-0.63-3.12-0.96-4.89h-0.15c-0.33,1.77-0.57,3.329-0.93,4.89l-1.71,7.319h-5.04L70.388,31.476z"/>
		<path class="st2" d="M112.207,31.866c0-1.8-1.44-2.819-3.78-2.819c-1.86,0-3.42,0.81-4.8,2.369l-2.46-2.279
			c1.89-2.221,4.53-3.66,7.74-3.66c4.35,0,7.53,2.01,7.53,6c0,4.409-6.54,4.92-6.09,9.09h-3.87
			C105.847,35.856,112.207,34.776,112.207,31.866z M108.427,42.635c1.8,0,3.12,1.2,3.12,2.94c0,1.739-1.32,2.97-3.12,2.97
			s-3.12-1.23-3.12-2.97C105.307,43.836,106.627,42.635,108.427,42.635z"/>
	</g>
	<g>
		<path class="st2" d="M38.857,81.131c-0.81,1.458-1.818,2.772-2.989,3.943c0.486,1.387,1.044,2.215,1.584,2.215
			c0.378,0,0.594-0.864,0.684-2.989c0.468,0.504,1.188,0.99,1.765,1.225c-0.342,3.15-1.008,3.943-2.647,3.943
			c-1.314,0-2.322-1.081-3.097-2.846c-1.044,0.864-2.179,1.603-3.331,2.197c-0.306-0.504-0.9-1.242-1.422-1.729
			c1.386-0.63,2.773-1.513,4.015-2.539c-0.396-1.422-0.702-3.061-0.918-4.825h-3.655v2.053c0.918-0.162,1.854-0.343,2.772-0.504
			l0.162,1.944l-2.935,0.594v3.079c0,1.17-0.252,1.746-0.973,2.089c-0.702,0.342-1.782,0.432-3.241,0.414
			c-0.09-0.595-0.45-1.566-0.756-2.161c1.008,0.055,2.053,0.036,2.377,0.019c0.324,0,0.432-0.09,0.432-0.378v-2.611
			c-1.152,0.234-2.269,0.469-3.223,0.648l-0.522-2.161c1.026-0.162,2.323-0.359,3.745-0.611v-2.413h-3.403v-2.035h3.403v-2.052
			c-0.972,0.162-1.963,0.288-2.881,0.396c-0.09-0.521-0.378-1.314-0.612-1.801c2.521-0.342,5.312-0.918,7.148-1.512l1.44,1.818
			c-0.9,0.27-1.891,0.504-2.935,0.72v2.431h3.457c-0.144-1.62-0.198-3.295-0.216-4.933h2.251c-0.036,1.674,0.036,3.349,0.18,4.933
			h4.897v2.035h-4.681c0.144,1.08,0.324,2.125,0.522,3.043c0.648-0.774,1.243-1.585,1.71-2.449L38.857,81.131z M37.542,77.17
			c-0.468-0.828-1.584-2.106-2.557-2.971l1.621-1.099c0.954,0.828,2.143,2.017,2.665,2.862L37.542,77.17z"/>
		<path class="st2" d="M54.677,80.411h-3.097v8.948H49.6V73.587c-0.36,1.026-0.774,2.088-1.243,3.114v12.694h-2.035v-9.003
			c-0.36,0.54-0.738,1.044-1.116,1.477c-0.162-0.504-0.684-1.746-1.026-2.305c1.458-1.675,2.773-4.304,3.565-6.95l1.98,0.595
			l-0.108,0.342h5.06V80.411z M51.581,75.171v1.026h1.477v-1.026H51.581z M53.057,78.79v-1.062h-1.477v1.062H53.057z M60.835,86.91
			c0,1.188-0.252,1.765-0.973,2.071c-0.738,0.342-1.873,0.396-3.565,0.396c-0.072-0.594-0.414-1.53-0.684-2.07
			c1.098,0.072,2.341,0.054,2.701,0.036c0.342,0,0.468-0.108,0.468-0.45v-6.481h-3.295v-6.86h5.348V86.91z M57.18,75.171v1.026
			h1.603v-1.026H57.18z M58.783,78.79v-1.062H57.18v1.062H58.783z"/>
		<path class="st2" d="M73.973,75.549l0.63-0.035l-0.018,1.998l-0.612,0.054c-0.054,2.071-0.342,4.664-1.71,7.112
			c0.9,0.811,1.71,1.585,2.269,2.197l-1.602,1.62c-0.468-0.576-1.134-1.278-1.909-2.017c-0.864,1.044-1.999,2.017-3.493,2.881
			c-0.306-0.486-1.026-1.261-1.512-1.62c1.476-0.811,2.593-1.765,3.403-2.791c-0.99-0.9-2.017-1.801-2.899-2.593
			c0.36-1.188,0.72-2.737,1.026-4.376L66.23,78.07l-0.216-2.125c0.576-0.018,1.206-0.054,1.89-0.09
			c0.162-1.08,0.288-2.161,0.36-3.151l2.287,0.126c-0.108,0.919-0.252,1.927-0.414,2.917l1.729-0.09V74.81h2.106V75.549z
			 M69.778,77.853c-0.271,1.387-0.576,2.755-0.864,3.943c0.522,0.45,1.098,0.937,1.656,1.423c0.972-1.909,1.242-3.89,1.278-5.51
			L69.778,77.853z M82.039,74.451v14.188h-2.125v-1.044H77.07v1.332h-2.035V74.451H82.039z M79.915,85.56v-9.093H77.07v9.093H79.915
			z"/>
		<path class="st2" d="M93.628,73.226c-0.414,1.099-0.9,2.196-1.477,3.295v12.838h-2.143v-9.417
			c-0.414,0.559-0.846,1.062-1.26,1.513c-0.198-0.522-0.774-1.692-1.152-2.232c1.584-1.585,3.133-4.105,4.015-6.645L93.628,73.226z
			 M104.557,76.197h-1.08v10.678c0,1.242-0.271,1.818-1.044,2.16c-0.756,0.324-1.981,0.396-3.655,0.396
			c-0.072-0.631-0.414-1.566-0.72-2.197c1.17,0.055,2.431,0.055,2.791,0.055c0.36,0,0.468-0.108,0.468-0.45V76.197h-7.85v-2.053
			h11.091V76.197z M95.681,84.66v1.17h-1.999v-7.688h5.996v6.519H95.681z M95.681,79.996v2.81h1.999v-2.81H95.681z"/>
		<path class="st2" d="M114.4,81.005c-0.324,1.639-0.811,3.331-1.423,4.682c0.288,0.18,0.63,0.432,1.117,0.72
			c1.224,0.738,2.917,0.847,5.023,0.847c2.071,0,5.293-0.181,7.274-0.469c-0.234,0.576-0.594,1.621-0.612,2.197
			c-1.495,0.09-4.664,0.216-6.77,0.216c-2.395,0-3.907-0.198-5.204-0.954c-0.756-0.414-1.387-1.009-1.765-1.009
			c-0.414,0-1.044,1.225-1.495,2.251l-1.422-2.034c0.612-0.757,1.278-1.351,1.891-1.711c0.396-0.9,0.756-2.034,1.026-3.133h-2.269
			c0.414-1.062,0.9-2.503,1.296-3.907h-1.621v-1.908h4.213c-0.378,1.26-0.811,2.7-1.225,3.961h0.72l0.324-0.072L114.4,81.005z
			 M111.357,76.269c-0.198-0.811-0.667-2.125-0.973-3.097l1.891-0.576c0.342,0.972,0.792,2.179,1.044,2.988L111.357,76.269z
			 M115.48,79.078c-0.306,0.36-0.612,0.666-0.918,0.973c-0.198-0.433-0.792-1.495-1.152-1.963c1.44-1.296,2.736-3.349,3.457-5.455
			l1.944,0.54c-0.27,0.773-0.612,1.53-0.972,2.286h2.683c-0.234-0.648-0.54-1.351-0.846-1.944l2.017-0.576
			c0.45,0.774,0.918,1.765,1.152,2.521h2.845v1.801h-3.637v1.026h2.898v1.729h-2.898v1.116h2.827v1.729h-2.827v1.135h3.835v1.8
			h-8.336v0.757h-2.071V79.078z M120.018,77.259h-2.467v1.026h2.467V77.259z M120.018,80.014h-2.467v1.116h2.467V80.014z
			 M120.018,82.859h-2.467v1.135h2.467V82.859z"/>
		<path class="st2" d="M137.656,77.277c-0.54,0.919-1.207,1.854-1.926,2.755v9.399h-2.143v-7.04
			c-0.504,0.485-0.99,0.936-1.476,1.332c-0.306-0.432-1.026-1.404-1.458-1.854c1.836-1.261,3.799-3.349,4.951-5.384L137.656,77.277z
			 M136.99,73.442c-1.296,1.692-3.241,3.547-4.952,4.735c-0.27-0.468-0.81-1.332-1.188-1.746c1.495-0.954,3.205-2.575,4.069-3.835
			L136.99,73.442z M147.577,80.608h-2.467v6.32c0,1.152-0.216,1.746-1.008,2.07c-0.756,0.324-1.908,0.36-3.511,0.36
			c-0.09-0.63-0.36-1.566-0.648-2.179c1.026,0.054,2.215,0.054,2.539,0.036c0.324,0,0.45-0.072,0.45-0.342v-6.267h-5.312v-2.034
			h9.957V80.608z M147.127,75.657h-8.75v-2.034h8.75V75.657z"/>
		<path class="st2" d="M160.175,77.998c0-1.08-0.864-1.692-2.269-1.692c-1.116,0-2.053,0.486-2.881,1.422l-1.477-1.368
			c1.134-1.332,2.719-2.196,4.646-2.196c2.611,0,4.52,1.206,4.52,3.601c0,2.647-3.925,2.953-3.655,5.456h-2.323
			C156.358,80.392,160.175,79.744,160.175,77.998z M157.907,84.462c1.08,0,1.873,0.72,1.873,1.765c0,1.044-0.792,1.782-1.873,1.782
			c-1.081,0-1.873-0.738-1.873-1.782C156.034,85.181,156.826,84.462,157.907,84.462z"/>
	</g>
	<g class="st19">
		<g>
			<g>
				<path class="st2" d="M167.214,262.051l-0.452-0.469C166.974,261.802,167.111,261.944,167.214,262.051z"/>
				<path class="st2" d="M170.307,265.597l0.112,0.056C170.257,265.506,170.183,265.451,170.307,265.597z"/>
				<path class="st2" d="M193.873,278.641c0.194-0.205,0.462-0.504,0.832-0.934L193.873,278.641z"/>
				<path class="st2" d="M149.459,243.479l-0.623-0.46C149.692,243.86,149.354,243.45,149.459,243.479z"/>
				<path class="st2" d="M154.575,160.496c0.058-0.038,0.125-0.082,0.179-0.118C154.762,160.354,154.686,160.411,154.575,160.496z"
					/>
				<path class="st2" d="M240.901,213.946c-0.003,0.018-0.006,0.032-0.009,0.052C240.943,213.823,240.934,213.853,240.901,213.946z"
					/>
				<path class="st2" d="M133.12,204.175c0.001-0.041,0.005-0.087,0.013-0.132C133.121,203.425,133.109,203.696,133.12,204.175z"/>
				<path class="st2" d="M216.453,252.684c0.017-0.022,0.028-0.035,0.044-0.055c-0.02,0.02-0.046,0.045-0.064,0.063L216.453,252.684
					z"/>
				<path class="st2" d="M215.017,254.34c0.539-0.773,0.913-1.15,1.416-1.647l-0.718,0.319L215.017,254.34z"/>
				<path class="st2" d="M242.034,203.748c-0.061-0.669-0.134-1.464-0.188-2.056c-0.14,0.368,0.149,2.712,0.119,3.896
					c-0.072,0-0.138-0.26-0.197-0.696c0.004-0.258,0.019-0.513,0.019-0.771c0-3.347-0.319-6.617-0.9-9.796
					c-0.083-0.514-0.18-1.066-0.297-1.641c-0.086-0.339-0.175-0.69-0.263-1.039c-0.143-0.608-0.294-1.212-0.458-1.812
					c-0.013-0.053-0.027-0.108-0.041-0.161c-0.121-0.497-0.24-0.981-0.352-1.44c-0.108-0.46-0.284-0.87-0.399-1.255
					c-0.094-0.206-0.21-0.47-0.309-0.689c-1.424-4.085-3.324-7.944-5.632-11.517c0.085,0.096,0.179,0.204,0.044-0.05
					c-0.037-0.01-0.131-0.116-0.256-0.281c-9.68-14.746-26.352-24.49-45.309-24.49c-1.236,0-2.458,0.056-3.674,0.138
					c-0.513-0.059-0.967-0.124-0.897-0.216c-0.807,0.103-1.869,0.209-3.068,0.327c-1.193,0.137-2.543,0.217-3.812,0.66
					c-0.581,0.1,0.471-0.199,0.155-0.174c-0.636,0.268-1.421,0.491-2.9,0.825l0.16-0.067c-1.023,0.295-1.931,0.444-2.718,0.754
					c-0.797,0.279-1.531,0.536-2.281,0.798c-0.749,0.265-1.525,0.507-2.377,0.832c-0.83,0.382-1.75,0.806-2.838,1.307l0.371-0.049
					c-0.934,0.433-1.146,0.494-1.594,0.678c-0.433,0.295,0.024,0.087,0.594-0.182c-2.002,0.952-5.361,3.158-6.086,3.415
					c-1.272,0.948,0.449-0.167-0.82,0.78l-0.379,0.192l-0.265,0.315c-0.84,0.609-1.316,0.851-1.385,0.826
					c0.207-0.145,0.564-0.444,0.778-0.61c-0.561,0.377-1.338,0.932-1.977,1.478c-0.614,0.577-1.139,1.084-1.32,1.229l1.158-0.992
					c-1.551,1.511-3.449,3.006-4.978,4.847c-0.786,0.896-1.631,1.737-2.326,2.654c-0.679,0.929-1.329,1.835-1.924,2.692l0.234-0.222
					c-0.456,0.653-0.783,1.103-1.047,1.459c-0.236,0.373-0.411,0.65-0.593,0.937c-0.37,0.566-0.766,1.163-1.654,2.67l0.055-0.115
					c-0.169,0.317-0.359,0.674-0.563,1.058c-0.18,0.403-0.38,0.831-0.59,1.26c0.326-0.826-0.834,1.442-0.394,0.365
					c-0.702,1.584-0.868,1.977-0.959,2.243c-0.041,0.129-0.075,0.236-0.138,0.436c-0.072,0.198-0.174,0.501-0.31,1.06l-0.265,0.459
					c-0.19,0.759-0.172,0.835-0.747,2.477c0.417-1.368-0.514,1.001-0.061-0.539c-0.347,0.849-0.683,1.582-0.853,2.271
					c-0.172,0.689-0.305,1.294-0.425,1.839c-0.24,1.089-0.428,1.93-0.78,2.715c-0.171,1.681,0.926-3.041,0.744-2.116
					c0.276-0.741-0.162,1.387-0.471,2.489c-0.185,1.148-0.619,1.902-1.06,4.823c0.036-0.289,0.039-0.313,0.075-0.601
					c-0.277,1.081-0.134,2.157-0.313,3.5c0.114,0.766-0.097,1.756,0.087,1.98l0.091-2.698c-0.013,0.766,0.019,1.51,0.025,2.374
					c0.003,0.432,0,0.894-0.02,1.404c0,0.51,0,1.065,0,1.7c-0.044-0.195-0.114-0.942-0.155-1.457
					c-0.04,0.738,0.072,1.417,0.032,2.183c-0.1-0.105-0.131-0.926-0.16-1.925c-0.001-0.999,0.092-2.174,0.049-2.999
					c-0.123,0.791-0.015,3.109-0.185,2.282c0.252,1.184-0.029,2.915,0.347,4.895l-0.126-0.122c0.043,0.316,0.133,0.974,0.21,1.54
					c-0.097-0.343-0.184-0.687-0.254-1.034c0.285,1.597,0.219,3.124,0.574,4.647c-0.286-1.605-0.262-1.793-0.207-1.748
					c0.052,0.045,0.144,0.321,0.102-0.366c0.732,3.611,0.105,2.57,0.867,5.792c-0.106-0.544-0.151-0.973,0.012-0.402
					c0.167,0.839,0.446,1.935,0.518,2.462c0.902,2.842-0.037-0.466,0.413,0.722c0.188,1.002,0.482,1.381,0.975,2.585l-0.108,0.049
					c1.138,3.194,0.515,0.763,1.623,3.597l-0.663-1.117l0.671,1.443l-0.254-0.246c0.377,0.781,0.675,1.268,0.914,1.778
					c0.253,0.503,0.466,1.022,0.869,1.769c-0.116-0.385,0.297,0.093,1.02,1.402c0.468,0.909-0.397-0.431,0.725,1.374
					c-0.306-0.374-0.686-0.764-1.04-1.629c-0.079-0.064-0.293-0.379-0.374-0.446c0.434,1.025,1.405,2.396,1.796,3.061
					c-0.152-0.255-0.331-0.563-0.412-0.727c0.564,0.862,1.225,1.659,1.834,2.486c0.235,0.428-0.009,0.13-0.252-0.167
					c0.352,0.517,0.671,0.821,1.223,1.554c-0.219-0.134-0.267-0.026-1.08-1.049c0.619,0.766,1.218,1.545,1.858,2.29
					c0.091,0.178,0.869,1.243,0.599,0.969c0.977,1.325,2.789,2.905,4.288,4.436c0.093,0.065,0.266,0.21,0.602,0.521
					c1.431,1.437,2.569,2.78,4.341,4.37l0.816,1.087c1.319,1.316-1.11-1.47,1.087,0.722c1.562,1.546,0.462,0.694,0.961,1.282
					c0.826,0.72,2.254,1.986,3.525,3.56c-0.48-0.466-0.818-0.867-1.253-1.314l0.979,1.19c-1.381-1.249-2.256-2.267-1.371-1.12
					c0.398-0.075,4.096,4.347,4.47,4.295l0.629,0.798c-0.199-0.21-0.232-0.245-0.429-0.453c1.201,1.571,1.176,0.911,2.822,2.849
					c0.568,0.68,0.941,1.175,0.511,0.749l1.37,1.423c0.376,0.434,0.239,0.367-0.135-0.065l1.993,2.255l-0.022-0.01
					c0.32,0.29,1.018,0.974,1.355,1.311c0.464,0.61-0.278-0.267-0.182-0.092l1.142,1.217c0.37,0.577-0.578-0.431-1.322-1.308
					c0.761,1.396,0.96,0.999,2.981,3.688l-1.048-1.174c0.512,0.894,1.354,1.79,2.392,3.237c-0.22-0.364-2.041-2.932-0.824-1.593
					c0.306,0.409,0.724,0.934,1.398,1.642c-0.088,0.085,0.55,0.793,1.302,1.717l-0.173,0.036c0.847,0.971,0.845,0.842,1.378,1.386
					c0.895,1.124,0.976,1.439,1.109,1.766c1.413,1.814-0.836-1.364,0.883,0.746c1.141,1.536,2.02,2.552,3.488,4.309
					c0.773,1.094-0.219-0.127,0.038,0.281l0.818,0.868c0.173,0.233,0.086,0.182,0.041,0.156c0.641,0.768,0.179-0.032,1.154,1.201
					c0.101,0.073,0.182,0.163,0.425,0.504c0.222,0.328,0.511,0.756,0.839,1.24c0.429-0.538,0.917-1.15,1.399-1.754
					c0.376-0.48,0.742-0.972,1.028-1.441c0.325-0.355-0.063,0.243,0.074,0.163c1.517-2.199,1.31-1.877,2.523-3.712l1.234-1.406
					c-0.944,1.004,0.032-0.46,0.903-1.732c-0.064,0.064-0.115,0.116-0.176,0.177c0.121-0.151,0.246-0.308,0.37-0.462
					c-0.066,0.098-0.125,0.183-0.194,0.285c0.064-0.064,0.132-0.131,0.198-0.197c0.065-0.115,0.121-0.214,0.181-0.32
					c0.247-0.308,0.501-0.623,0.759-0.943c0.042,0.024-0.113,0.302-0.313,0.633c-0.21,0.211-0.421,0.423-0.627,0.63
					c-0.303,0.534-0.573,1.043-0.422,1.002c0.085-0.136,0.264-0.386,0.468-0.655c-0.078,0.14-0.123,0.234-0.065,0.186
					c0.065-0.055,0.197-0.277,0.415-0.615l0.484-0.326l0.031-0.149l2.106-2.42c1.322-1.882,2.392-3.59,4.697-6.416
					c-0.486,0.774,0.035,0.285,0.119,0.421c-0.761,0.658-1.778,2.191-3.003,3.627c0.641-0.748,0.559-0.534,0.418-0.325l2.055-2.67
					c0.046,0.139,0.532-0.486,1.14-1.123c-0.622,0.343,1.516-2.005,2.355-3.092c0.118-0.01-0.033,0.294-1.141,1.545
					c1.346-1.272,1.334-1.997,2.657-3.246c-0.269,0.307-0.424,0.463-0.5,0.612c0.577-0.763,2.165-2.469,1.855-2.011l-0.269,0.306
					c1.81-2.016,5.533-6.114,5.666-6.543c0.038-0.001-0.057,0.431-0.138,0.58c0.651-0.931,1.297-1.87,1.949-2.804
					c0.335-0.355,0.674-0.711,1.013-1.068c0.274-0.006,0.664-0.08-0.37,1.1c0.464-0.449,1.039-1.002,1.935-2.027
					c-0.323,0.299-0.948,0.611-0.543,0.166c1.288-1.052,0.871-0.753,2.403-2.101c-0.485,0.448-0.181-0.279,0.562-1.01
					c-0.084,0.145,0.259,0.134,0.012,0.425l1.629-2.036c-0.421,0.495,0.084,0.248,0.546-0.106c-0.227,0.152,1.574-1.586,2.063-2.092
					l-0.833,0.73c1.065-1.018,1.515-1.599,1.959-2.177c0.444-0.578,0.897-1.139,1.859-2.233c-0.192,0.299-0.326,0.889,0.699-0.199
					c0.188-0.323,0.586-1.082,1.123-2.037c0.661-0.825,1.305-1.663,1.918-2.526c-0.646,1.226-1.42,2.578-2.054,3.444
					c0.743-0.822,0.288-0.164,1.297-1.482c0.331-0.336-0.149,0.367-0.521,0.854c0.328-0.393,0.651-0.79,0.959-1.2
					c0.385-0.518,0.802-1.014,1.161-1.552c-0.227,0.05,1.52-2.545,1.291-2.513c-0.328,0.618-0.707,1.205-1.073,1.801
					c-0.363,0.599-0.735,1.192-1.141,1.764c-0.233,0.035,1.088-2.202,2.487-4.527c0.418-0.558-0.018,0.594,0.058,0.575
					c0.065-0.168,0.39-0.73,0.694-1.288c0.293-0.565,0.59-1.111,0.668-1.212l-0.481,1.06c0.394-0.653,0.645-1.225,0.924-1.823
					c0.26-0.608,0.533-1.249,1.008-2.036c0.291-0.559,0.953-1.642,0.914-1.778c-0.35,0.524-0.705,0.705-0.907,0.626
					c0.289-0.649,0.571-1.301,0.835-1.963l0.028,0.109l0.144-0.386l-0.064-0.009c0.264-0.672,0.52-1.348,0.757-2.032
					c0.222-0.213-0.277,1.673,0.094,0.977c-0.032-0.053,0.129-0.604,0.181-0.838c0.241-0.617,0.048,0.307,0.473-1.069
					c-0.067-0.274,0.883-2.788,0.075-0.689c0.374-1.353,0.44-1.426,0.878-3.017c-0.149,0.32-0.111-0.457-0.002-1.418
					c0.128-0.582,0.251-1.165,0.36-1.754c0.011-0.03,0.022-0.062,0.031-0.086c0.128-0.704,0.242-1.327,0.348-1.907
					c0.082-0.583,0.158-1.123,0.233-1.656c0.176-1.065,0.23-2.119,0.34-3.452c0.059-0.243,0.131-1.535,0.192-0.982
					c-0.02-0.387-0.068-0.742-0.053-1.568c0.16-1.6-0.008,1.844,0.182,0.626C242.083,204.953,242.103,204.417,242.034,203.748z
					 M196.165,275.505c0.257-0.332,0.56-0.698,0.916-1.089C196.902,274.698,196.564,275.084,196.165,275.505z M163.865,155.155
					c-0.262,0.043-0.646,0.193-1.101,0.407C163.481,155.224,164.352,154.802,163.865,155.155z M173.796,269.654
					c0.43,0.301,0.639,0.638,1.091,1.25C174.587,270.574,173.952,269.948,173.796,269.654z"/>
				<path class="st2" d="M134.37,217.318c0.064,0.329,0.15,0.701,0.225,0.92C134.508,217.892,134.436,217.595,134.37,217.318z"/>
				<path class="st2" d="M230.55,238.224c-0.086,0.103-0.162,0.212-0.25,0.313C230.366,238.462,230.456,238.348,230.55,238.224z"/>
				<path class="st2" d="M194.721,277.605c-0.094,0.086-0.133,0.099-0.169,0.109C194.458,277.864,194.474,277.881,194.721,277.605z"
					/>
				<path class="st2" d="M149.574,243.564l-0.049-0.05c-0.033-0.022-0.052-0.032-0.066-0.035L149.574,243.564z"/>
				<path class="st2" d="M239.25,222.062c-0.154,0.4-0.269,0.614-0.343,0.756C238.923,222.848,239.024,222.677,239.25,222.062z"/>
				<path class="st2" d="M241.304,196.391l0.159,0.027l-0.174-0.748C241.33,196.107,241.307,196.141,241.304,196.391z"/>
				<path class="st2" d="M241.984,200.656c-0.05-0.163-0.168-1.785-0.127-0.291C241.907,200.523,242.097,202.716,241.984,200.656z"
					/>
				<path class="st2" d="M227.429,241.528c-0.781,0.861-1.243,1.264-0.745,1.005c1.41-1.321,0.238-0.401,1.472-1.646
					C228.417,240.509,227.154,241.911,227.429,241.528z"/>
				<path class="st2" d="M227.429,241.528c0.115-0.146,0.238-0.301,0.371-0.469C227.586,241.321,227.488,241.448,227.429,241.528z"
					/>
				<path class="st2" d="M176.817,273.74l0.089,0.048c-0.089-0.173-0.27-0.397-0.633-0.845L176.817,273.74z"/>
				<polygon class="st2" points="166.07,260.994 166.258,261.212 166.01,260.714 				"/>
				<path class="st2" d="M156.429,250.856c0.4,0.407,0.87,0.886,1.272,1.295C156.82,251.272,156.452,250.62,156.429,250.856z"/>
			</g>
		</g>
	</g>
	<g>
		<path class="st5" d="M184.523,192.804c-0.648,1.71-1.584,3.24-2.719,4.537c0.432,3.385,1.081,5.798,1.639,5.798
			c0.252,0,0.414-0.919,0.468-2.881c0.396,0.486,1.062,0.954,1.584,1.17c-0.306,2.971-0.882,3.745-2.323,3.745
			c-1.566,0-2.575-2.593-3.169-6.157c-0.342,0.27-0.702,0.504-1.062,0.738c-0.162-0.217-0.45-0.505-0.738-0.811h-2.125
			c0.504,0.811,1.116,1.872,1.386,2.484l-1.404,0.757c-0.198-0.541-0.612-1.333-1.008-2.071v3.025c0,0.468,0.072,0.521,0.522,0.521
			h1.296c0.415,0,0.504-0.27,0.541-1.908c0.27,0.198,0.738,0.396,1.152,0.522c-0.252-0.612-0.504-1.225-0.738-1.765l1.404-0.54
			c0.576,1.225,1.278,2.862,1.621,3.835l-1.513,0.648c-0.108-0.396-0.288-0.919-0.504-1.477c-0.198,1.656-0.666,2.124-1.783,2.124
			h-1.747c-1.584,0-1.944-0.468-1.944-1.944v-3.061h1.674l-0.342-0.612l1.116-0.54h-3.457v-4.159h5.87v3.079
			c0.522-0.324,1.008-0.702,1.458-1.117c-0.18-1.566-0.288-3.24-0.378-4.897h-7.4v0.774h6.896v1.423h-6.896
			c-0.036,3.205-0.36,8.066-1.909,11.289c-0.36-0.342-1.242-0.954-1.71-1.116c1.513-3.115,1.657-7.634,1.657-10.605v-3.457h9.309
			c-0.018-0.558-0.036-1.116-0.036-1.674h2.071v0.576l1.134-0.793c0.576,0.414,1.386,1.009,1.801,1.387l-0.667,0.504h1.44v1.692
			h-3.655c0.036,0.919,0.09,1.837,0.162,2.72c0.45-0.703,0.811-1.44,1.099-2.251L184.523,192.804z M171.055,204.093
			c0.306-1.116,0.648-2.791,0.81-3.997l1.369,0.522c-0.18,1.134-0.468,2.916-0.702,4.033L171.055,204.093z M176.547,196.225h-2.449
			v1.296h2.449V196.225z M182.399,190.156c-0.342-0.306-0.756-0.63-1.116-0.918c0,0.306,0,0.612,0,0.918H182.399z"/>
		<path class="st5" d="M204.161,197.665c-0.81,1.765-1.999,3.133-3.457,4.195c1.729,0.612,3.745,1.026,5.96,1.224
			c-0.45,0.486-1.026,1.423-1.314,1.999c-2.611-0.324-4.934-0.937-6.878-1.891c-2.071,0.99-4.466,1.585-7.004,1.927
			c-0.216-0.504-0.81-1.459-1.26-1.891c2.25-0.234,4.339-0.648,6.122-1.314c-1.098-0.774-2.052-1.729-2.845-2.827l0.594-0.252
			h-0.846v-1.962h9.093l0.396-0.091L204.161,197.665z M192.637,197.539h-1.999v-3.907h2.575c-0.18-0.559-0.522-1.278-0.846-1.854
			l1.603-0.45c-0.9,0.054-1.819,0.09-2.683,0.107c-0.036-0.54-0.288-1.35-0.486-1.818c4.735-0.162,10.155-0.594,13.432-1.225
			l1.44,1.729c-1.945,0.36-4.268,0.648-6.662,0.864c0.36,0.721,0.702,1.675,0.81,2.323l-1.333,0.324h3.133
			c0.432-0.828,0.9-1.891,1.17-2.701l2.287,0.54c-0.415,0.757-0.882,1.495-1.296,2.161h2.557v3.907h-2.089v-2.053h-11.613V197.539z
			 M198.885,190.984c-1.513,0.145-3.079,0.253-4.609,0.324c0.414,0.667,0.828,1.477,1.008,2.053l-0.937,0.271h3.439
			c-0.108-0.631-0.378-1.53-0.684-2.232L198.885,190.984z M195.752,198.835c0.738,0.811,1.657,1.495,2.737,2.089
			c0.955-0.576,1.801-1.261,2.449-2.089H195.752z"/>
		<path class="st5" d="M180.022,215.139c1.656,1.549,3.799,3.763,4.735,5.275l-1.819,1.314c-0.234-0.396-0.558-0.864-0.936-1.368
			c-9.561,0.468-10.839,0.504-11.793,0.828c-0.108-0.433-0.45-1.494-0.702-2.053c0.468-0.126,0.9-0.468,1.494-1.044
			c0.63-0.559,2.593-2.737,3.817-4.897l2.161,0.918c-1.134,1.675-2.557,3.277-3.925,4.592l7.382-0.234
			c-0.702-0.792-1.422-1.549-2.089-2.215L180.022,215.139z M170.803,222.377h12.135v7.886h-2.305v-0.899H173v0.918h-2.196V222.377z
			 M173,224.43v2.881h7.634v-2.881H173z"/>
		<path class="st5" d="M197.913,225.113l0.378,1.909c-2.539,1.098-5.312,2.196-7.437,3.043l-0.954-2.197h-0.018
			c1.225-0.378,2.953-0.972,4.79-1.603v-6.392h-4.159v-2.143h4.159v-3.961h2.232v11.703L197.913,225.113z M203.783,227.67
			c0.666,0,0.774-0.846,0.882-4.068c0.522,0.414,1.458,0.864,2.053,1.008c-0.198,3.728-0.702,5.149-2.737,5.149h-2.143
			c-1.98,0-2.575-0.756-2.575-3.241v-12.729h2.232v3.925h4.7v2.125h-4.7v6.698c0,0.972,0.09,1.134,0.685,1.134H203.783z"/>
	</g>
	<g>
		<g>
			<path class="st2" d="M100.36,341.24c-0.255,2.91-0.51,4.17-0.975,4.65c-0.33,0.375-0.66,0.494-1.125,0.555
				c-0.39,0.045-1.065,0.061-1.785,0.029c-0.03-0.479-0.21-1.14-0.48-1.59c0.6,0.076,1.17,0.076,1.455,0.076
				c0.21,0,0.345-0.031,0.495-0.166c0.24-0.24,0.435-0.99,0.615-2.699h-8.924c-0.24,0.18-0.495,0.345-0.765,0.51l1.365,0.436
				c-0.3,1.289-0.81,2.579-1.755,3.389l-1.395-0.885c0.795-0.675,1.35-1.725,1.62-2.834c-0.36,0.225-0.735,0.42-1.11,0.614
				c-0.21-0.45-0.63-1.155-0.93-1.56c2.475-1.141,4.365-3,5.745-5.145h-4.815v-1.561h2.52c-0.225-0.585-0.585-1.32-0.945-1.904
				l1.545-0.601c0.465,0.675,0.945,1.575,1.155,2.19l-0.75,0.314h2.175c0.42-0.84,0.765-1.695,1.035-2.564l1.785,0.494
				c-0.255,0.705-0.54,1.396-0.855,2.07h2.94c-0.15,0.9-0.375,1.92-0.57,2.745h1.71c-0.165,0.899-0.36,1.95-0.54,2.76h1.605
				L100.36,341.24z M92.2,343.025c0.255,0.869,0.42,2.01,0.405,2.76l-1.545,0.195c0.045-0.735-0.075-1.891-0.3-2.775L92.2,343.025z
				 M92.575,339.35c-0.345,0.42-0.72,0.825-1.125,1.215h5.729c0.09-0.36,0.18-0.78,0.27-1.215H92.575z M94.42,342.756
				c0.315,0.75,0.615,1.754,0.72,2.43l-1.425,0.359c-0.09-0.675-0.39-1.695-0.69-2.49L94.42,342.756z M94.45,336.621
				c-0.225,0.404-0.465,0.795-0.72,1.185h2.295c0.09-0.36,0.18-0.765,0.255-1.185H94.45z M96.115,344.765
				c-0.12-0.525-0.51-1.396-0.885-2.025l1.23-0.42c0.405,0.6,0.825,1.425,0.975,1.98L96.115,344.765z"/>
			<path class="st2" d="M113.635,333.875c1.38,1.291,3.165,3.136,3.945,4.396l-1.515,1.095c-0.195-0.33-0.465-0.72-0.78-1.14
				c-7.964,0.39-9.029,0.42-9.825,0.69c-0.09-0.36-0.375-1.246-0.585-1.711c0.39-0.104,0.75-0.39,1.245-0.869
				c0.525-0.465,2.16-2.28,3.18-4.08l1.8,0.765c-0.945,1.396-2.13,2.729-3.27,3.825l6.15-0.195c-0.585-0.66-1.185-1.289-1.74-1.845
				L113.635,333.875z M105.955,339.905h10.11v6.569h-1.92v-0.75h-6.36v0.766h-1.83V339.905z M107.785,341.615v2.4h6.36v-2.4H107.785
				z"/>
			<path class="st2" d="M127.795,342.185l0.315,1.59c-2.115,0.915-4.425,1.83-6.195,2.535l-0.795-1.83h-0.015
				c1.02-0.315,2.459-0.811,3.99-1.335v-5.325h-3.465v-1.785h3.465v-3.299h1.86v9.749L127.795,342.185z M132.685,344.315
				c0.555,0,0.645-0.705,0.735-3.39c0.435,0.345,1.215,0.72,1.71,0.84c-0.165,3.104-0.585,4.289-2.28,4.289h-1.785
				c-1.65,0-2.145-0.629-2.145-2.699V332.75h1.86v3.271h3.915v1.771h-3.915v5.579c0,0.81,0.075,0.945,0.57,0.945H132.685z"/>
			<path class="st2" d="M146.395,336.26v1.68h4.83v5.055c0,0.886-0.18,1.38-0.81,1.649c-0.615,0.285-1.485,0.301-2.64,0.301
				c-0.075-0.525-0.345-1.275-0.6-1.755c0.75,0.045,1.635,0.045,1.86,0.03c0.255,0,0.33-0.061,0.33-0.256v-3.285h-2.97v6.75h-1.86
				v-6.75h-2.775v5.266h-1.8v-7.005h4.575v-1.68H138.7v-1.74h6.015c-0.225-0.54-0.51-1.155-0.765-1.649l1.77-0.555
				c0.375,0.689,0.87,1.59,1.125,2.204h5.535v1.74H146.395z"/>
			<path class="st2" d="M160.945,344.105c-1.005,0.855-2.61,1.695-3.915,2.205c-0.285-0.346-0.915-0.961-1.305-1.245
				c1.32-0.375,2.775-0.976,3.585-1.62L160.945,344.105z M169.33,339.485H156.1v-1.409h5.685c-0.075-0.15-0.165-0.285-0.255-0.406
				l0.69-0.209h-4.575v-4.5h10.185v4.5h-4.515c0.135,0.194,0.27,0.404,0.375,0.615h5.64V339.485z M163.675,343.295v1.68
				c0,0.766-0.18,1.11-0.765,1.306c-0.585,0.194-1.365,0.194-2.415,0.194c-0.09-0.435-0.285-0.975-0.495-1.364
				c0.615,0.03,1.41,0.03,1.605,0.015c0.21-0.015,0.285-0.06,0.285-0.225v-1.605h-3.885v-3.27h9.6v3.27H163.675z M159.355,334.67
				h6.69v-0.614h-6.69V334.67z M159.355,336.35h6.69v-0.646h-6.69V336.35z M159.715,342.08h6.09v-0.84h-6.09V342.08z
				 M165.475,343.49c1.26,0.42,3,1.17,3.93,1.74l-1.245,1.095c-0.84-0.556-2.55-1.364-3.84-1.875L165.475,343.49z"/>
			<path class="st2" d="M172.87,345.905c0.54-0.63,0.885-1.665,1.02-2.655l1.2,0.36c-0.18,1.065-0.435,2.204-1.065,2.896
				L172.87,345.905z M173.2,341.405c0.75-0.015,1.665-0.045,2.67-0.075v-0.72h-2.31v-1.351h2.31V338.6h-2.34v-5.655h6.345v5.655
				h-2.43v0.659h2.4v1.351h-2.4v0.66c0.87-0.03,1.77-0.075,2.64-0.104l-0.03,1.379c-2.43,0.15-4.995,0.285-6.81,0.36L173.2,341.405z
				 M174.865,337.4h1.26v-3.255h-1.26v0.63l0.705-0.21c0.24,0.69,0.435,1.575,0.48,2.16l-0.795,0.239
				c-0.03-0.569-0.18-1.409-0.39-2.084V337.4z M176.29,343.205c0.18,0.84,0.3,1.905,0.315,2.625l-1.155,0.135
				c0.03-0.705-0.09-1.785-0.255-2.625L176.29,343.205z M177.76,343.07c0.285,0.795,0.555,1.8,0.645,2.49l-1.095,0.225
				c-0.075-0.675-0.33-1.71-0.615-2.505L177.76,343.07z M178.495,334.145h-1.29v2.476c0.21-0.601,0.465-1.471,0.57-2.07l0.72,0.255
				V334.145z M178.495,337.4v-2.13c-0.24,0.63-0.48,1.274-0.675,1.71l-0.615-0.225v0.645H178.495z M179.215,342.756
				c0.48,0.705,0.96,1.664,1.155,2.324l-1.125,0.465c-0.18-0.66-0.63-1.65-1.095-2.399L179.215,342.756z M184.105,337.235v2.31h2.4
				v6.885h-1.71v-0.524h-2.775v0.585h-1.62v-6.945h1.965v-7.034h1.74v3.075H187v1.649H184.105z M184.795,341.166h-2.775v3.135h2.775
				V341.166z"/>
			<path class="st2" d="M194.59,333.02c-0.33,1.005-0.75,2.04-1.2,3.03v10.439h-1.635v-7.5c-0.3,0.45-0.615,0.87-0.915,1.23
				c-0.135-0.436-0.585-1.471-0.87-1.936c1.215-1.395,2.325-3.584,2.97-5.76L194.59,333.02z M203.56,336.756
				c-0.225,2.34-0.615,4.305-1.35,5.924c0.54,0.961,1.215,1.771,2.13,2.355c-0.315,0.314-0.84,0.975-1.065,1.41
				c-0.795-0.6-1.44-1.335-1.95-2.205c-0.585,0.87-1.335,1.59-2.25,2.205c-0.195-0.301-0.765-0.915-1.065-1.2
				c0.195-0.12,0.405-0.255,0.6-0.405h-2.865v1.065h-1.53v-6.646h1.5v-2.444h-1.725v-1.604h1.725v-2.52h1.68v2.52h1.56v1.604h-1.56
				v2.444h1.14c-0.135-0.194-0.27-0.375-0.36-0.494c1.035-1.484,1.605-3.84,1.92-6.255l1.59,0.271
				c-0.135,0.824-0.285,1.68-0.465,2.475h3.06v1.5H203.56z M197.29,340.775h-1.545v2.564h1.545V340.775z M198.85,344.66
				c0.705-0.57,1.26-1.245,1.71-2.025c-0.405-1.035-0.69-2.114-0.885-3.18c-0.165,0.301-0.33,0.57-0.525,0.825
				c-0.06-0.135-0.165-0.315-0.3-0.524V344.66z M200.8,336.756c-0.045,0.15-0.09,0.285-0.135,0.435
				c0.135,1.125,0.36,2.34,0.705,3.479c0.345-1.154,0.555-2.459,0.69-3.914H200.8z"/>
			<path class="st2" d="M209.26,342.56c-0.105,1.32-0.345,2.744-0.645,3.645c-0.285-0.165-0.915-0.359-1.275-0.436
				c0.33-0.885,0.51-2.219,0.6-3.42L209.26,342.56z M207.895,338.42c-0.075-0.299-0.315-1.034-0.495-1.424
				c0.285-0.076,0.525-0.36,0.81-0.811c0.3-0.404,1.215-2.07,1.74-3.645l1.44,0.584c-0.525,1.246-1.215,2.551-1.935,3.615
				l1.05-0.074c0.375-0.66,0.75-1.365,1.065-2.07l1.305,0.84c-0.84,1.62-1.95,3.3-3.09,4.665l1.665-0.226
				c-0.15-0.435-0.315-0.869-0.495-1.244l1.17-0.436c0.435,0.885,0.855,2.07,0.975,2.805l-1.23,0.51
				c-0.015-0.119-0.045-0.254-0.075-0.404c-2.97,0.48-3.465,0.615-3.795,0.765c-0.075-0.284-0.33-1.034-0.495-1.44
				c0.36-0.09,0.69-0.434,1.125-1.004c0.21-0.225,0.585-0.721,1.02-1.365c-1.185,0.135-1.53,0.225-1.755,0.33V338.42z
				 M210.745,342.245c0.18,0.976,0.345,2.235,0.39,3.09l-1.275,0.33c-0.015-0.87-0.165-2.146-0.315-3.12L210.745,342.245z
				 M221.05,345.11c0,0.569-0.075,0.87-0.405,1.079c-0.3,0.211-0.69,0.226-1.215,0.226c-0.03-0.36-0.165-0.84-0.33-1.185
				c0.21,0.015,0.39,0.015,0.48,0.015c0.09,0,0.12-0.03,0.12-0.149v-1.53h-0.66v2.67h-0.96v-2.67h-0.615v2.745h-0.96v-2.745h-0.645
				v2.94h-1.275v-4.426c-0.18,1.545-0.48,3.09-0.945,4.335c-0.3-0.271-1.035-0.675-1.41-0.81c0.15-0.391,0.27-0.795,0.36-1.23
				l-0.81,0.301c-0.12-0.66-0.42-1.711-0.675-2.49l1.14-0.375c0.21,0.525,0.39,1.14,0.54,1.709c0.465-2.309,0.51-4.919,0.51-6.749
				V333.5c2.22-0.18,4.71-0.524,6.165-0.989l1.29,1.185c-1.665,0.495-3.84,0.795-5.879,0.99v0.525h5.834v3.705h-5.88l-0.03,0.705
				h6.255V345.11z M214.87,336.576v0.18c0,0.255,0,0.525,0,0.81h4.26v-0.989H214.87z M216.505,342.185v-1.141h-0.645v1.141H216.505z
				 M218.08,342.185v-1.141h-0.615v1.141H218.08z M219.7,342.185v-1.141h-0.66v1.141H219.7z"/>
			<path class="st2" d="M238.015,335.451v10.994h-1.755v-0.811h-9v0.825h-1.695v-11.009h3.495v-2.806h1.755v2.806h1.8v-2.806h1.755
				v2.806H238.015z M227.26,337.19v2.505h1.8v-2.505H227.26z M227.26,343.881h1.8v-2.49h-1.8V343.881z M230.815,337.19v2.505h1.8
				v-2.505H230.815z M230.815,341.39v2.49h1.8v-2.49H230.815z M234.37,337.19v2.505h1.89v-2.505H234.37z M236.26,343.881v-2.49
				h-1.89v2.49H236.26z"/>
			<path class="st2" d="M252.7,342.275h3.06v1.335h-3.06v1.38c0,0.811-0.15,1.215-0.765,1.455c-0.585,0.225-1.395,0.24-2.505,0.24
				c-0.075-0.48-0.33-1.096-0.555-1.545c0.735,0.045,1.575,0.045,1.785,0.029c0.24,0,0.315-0.06,0.315-0.225v-1.335h-4.53
				c0.585,0.42,1.215,0.93,1.56,1.319l-1.305,1.096c-0.375-0.495-1.275-1.26-1.98-1.756l0.795-0.659h-3.285v-1.335h8.745v-0.525
				h-0.765c-1.74,0-3.015-0.119-4.035-0.645c-0.57-0.27-1.005-0.615-1.32-0.615c-0.435,0-1.155,0.735-1.755,1.484l-0.93-1.424
				c0.375-0.33,0.795-0.646,1.2-0.885c0.42-0.451,0.825-1.11,1.125-1.771h-2.085c0.345-0.601,0.75-1.364,1.095-2.13h-1.395v-1.26
				h1.335c-0.135-0.436-0.39-1.064-0.555-1.545l1.485-0.465c0.195,0.494,0.48,1.17,0.615,1.59l-1.2,0.42h1.965
				c-0.33,0.689-0.705,1.425-1.05,2.115h0.66l0.24-0.076l0.84,0.346c-0.255,0.824-0.63,1.65-1.095,2.369
				c0.285,0.121,0.585,0.315,1.05,0.541c0.93,0.465,2.295,0.524,3.855,0.524c1.635,0,4.245-0.12,5.835-0.345
				c-0.18,0.436-0.435,1.17-0.45,1.605c-0.69,0.045-1.83,0.09-2.94,0.119V342.275z M249.745,335.406
				c0.045-0.15,0.09-0.315,0.12-0.48h-3.645v-1.2h2.145c-0.135-0.33-0.315-0.675-0.48-0.96l1.41-0.359
				c0.27,0.404,0.57,0.914,0.72,1.319h1.83c0.24-0.405,0.48-0.899,0.615-1.274l1.68,0.285c-0.225,0.344-0.45,0.689-0.645,0.989
				h2.175v1.2h-4.155c-0.075,0.165-0.15,0.33-0.225,0.48h3.255v4.484h-7.32v-4.484H249.745z M252.835,336.201h-3.96v0.449h3.96
				V336.201z M252.835,337.4h-3.96v0.48h3.96V337.4z M252.835,338.631h-3.96v0.479h3.96V338.631z"/>
			<path class="st2" d="M271.15,345.006c0.465,0,0.57-0.166,0.63-1.125c0.345,0.225,1.035,0.449,1.47,0.51
				c-0.18,1.545-0.615,1.949-1.92,1.949h-2.22c-1.785,0-2.22-0.404-2.22-1.74V344h-1.65c-0.465,1.455-1.635,2.16-5.25,2.506
				c-0.105-0.406-0.465-1.021-0.765-1.365c2.865-0.135,3.795-0.436,4.2-1.141h-1.905v-5.024h9.495V344h-2.4v0.586
				c0,0.375,0.12,0.42,0.72,0.42H271.15z M266.23,338.525h-6.255v-5.58h6.135v1.021h-2.16v0.51h1.86v0.33
				c0.87-0.675,1.41-1.53,1.695-2.295l1.53,0.239c-0.06,0.166-0.135,0.346-0.21,0.511h4.14v1.11h-4.74
				c-0.09,0.149-0.195,0.285-0.3,0.42h4.365v0.975h-4.62v-0.66c-0.225,0.256-0.495,0.51-0.78,0.75c-0.255-0.3-0.72-0.72-1.08-0.945
				v2.01h-1.86v0.615h2.28V338.525z M261.49,333.966v0.51h1.065v-0.51H261.49z M264.31,335.42h-2.82v0.57h2.82V335.42z
				 M261.49,337.535h1.065v-0.615h-1.065V337.535z M263.215,340.371h6.03v-0.48h-6.03V340.371z M263.215,341.72h6.03v-0.48h-6.03
				V341.72z M263.215,343.086h6.03v-0.496h-6.03V343.086z M266.785,336.17h5.955v2.386h-5.955V336.17z M267.97,337.746h0.57v-0.766
				h-0.57V337.746z M269.41,337.746h0.615v-0.766h-0.615V337.746z M270.895,337.746h0.6v-0.766h-0.6V337.746z"/>
			<path class="st2" d="M92.29,389.545v5.416c0,0.645-0.105,1.004-0.525,1.229c-0.39,0.226-0.945,0.24-1.74,0.24
				c-0.045-0.375-0.225-0.944-0.405-1.305c0.42,0.016,0.87,0.016,1.005,0.016c0.15,0,0.195-0.061,0.195-0.195v-1.365
				c-0.495,0.33-0.975,0.645-1.455,0.93l-0.39-0.84c-0.12,1.021-0.375,2.1-0.9,2.881c-0.255-0.256-0.915-0.705-1.245-0.855
				c0.735-1.125,0.795-2.654,0.795-3.84v-2.295h-0.75v-2.325h0.585v-4.274h4.875v4.274h0.63v2.31H92.29z M91.615,388.435H88.18v0.6
				h3.435V388.435z M88.841,387.235h0.585v-2.399h1.455v-0.615h-2.04V387.235z M89.065,391.884c0,0.436-0.015,0.886-0.045,1.381
				c0.51-0.211,1.125-0.51,1.8-0.84v-0.66l-0.6,0.66c-0.255-0.256-0.72-0.66-1.155-0.99V391.884z M89.065,391.045l0.51-0.51
				c0.435,0.285,0.915,0.615,1.245,0.9v-1.245h-1.755V391.045z M90.88,387.235v-1.396h-0.555v1.396H90.88z M100.78,394.974v1.291
				h-7.92v-1.291h1.77c-0.12-0.375-0.27-0.764-0.405-1.094l0.945-0.285h-1.59v-2.926h6.465v2.926h-1.71l1.155,0.314
				c-0.24,0.375-0.45,0.734-0.66,1.064H100.78z M100.66,390.176h-7.65V388.9h7.65V390.176z M100.375,388.39h-7.14v-4.814h1.77
				v-1.065h1.38v1.065h0.66v-1.065h1.395v1.065h1.935V388.39z M94.555,385.435h0.765v-0.689h-0.765V385.435z M94.555,387.22h0.765
				v-0.705h-0.765V387.22z M95.14,392.53h3.254v-0.78H95.14V392.53z M95.635,393.595c0.18,0.449,0.375,0.959,0.51,1.379h1.215
				c0.18-0.449,0.375-0.959,0.495-1.379H95.635z M97.12,385.435v-0.689H96.4v0.689H97.12z M96.4,386.515v0.705h0.72v-0.705H96.4z
				 M98.995,384.746H98.2v0.689h0.795V384.746z M98.995,386.515H98.2v0.705h0.795V386.515z"/>
			<path class="st2" d="M103.915,395.155c0.285-0.87,0.51-2.25,0.615-3.239l0.885,0.314c-0.09,0.99-0.285,2.414-0.54,3.255
				L103.915,395.155z M112.885,392.14c-0.09,0.39-0.195,0.779-0.315,1.154c0.54,0.33,1.11,0.766,1.41,1.096l-0.87,1.154
				c-0.24-0.255-0.645-0.615-1.065-0.93c-0.36,0.75-0.795,1.395-1.29,1.904c-0.225-0.254-0.78-0.705-1.125-0.959
				c-0.045,0.149-0.09,0.254-0.15,0.33c-0.225,0.33-0.48,0.449-0.825,0.494c-0.3,0.061-0.765,0.075-1.245,0.061
				c-0.015-0.405-0.165-0.96-0.345-1.32c0.375,0.045,0.69,0.045,0.84,0.045c0.165,0,0.27-0.015,0.375-0.164
				c0.09-0.15,0.15-0.511,0.21-1.291l-0.525,0.195c-0.105-0.525-0.36-1.335-0.6-1.936l0.63-0.209c0.195,0.435,0.39,0.99,0.525,1.455
				c0.03-0.48,0.045-1.08,0.075-1.801h-3.915v-8.354h5.19v1.454h-1.53v0.99h1.29v0.345c1.59-0.885,3.045-2.25,3.84-3.555l1.59,0.555
				c-0.09,0.165-0.195,0.315-0.3,0.465c0.9,0.795,2.205,1.59,3.36,2.025c-0.255,0.404-0.555,1.186-0.66,1.635
				c-0.465-0.24-0.93-0.51-1.395-0.824v0.989h-4.41v-0.75c-0.345,0.226-0.69,0.435-1.035,0.646c-0.21-0.285-0.66-0.766-0.99-1.035
				v0.824h-1.29v0.885h1.335v1.306h-1.335v0.944h1.665c0,0,0,0.391-0.015,0.57c-0.075,2.79-0.15,4.23-0.33,4.92
				c0.885-0.84,1.455-2.145,1.725-3.57L112.885,392.14z M106.315,392.17c0.075,0.855,0.12,1.98,0.12,2.73l-0.78,0.09
				c0.03-0.75-0.015-1.891-0.075-2.76L106.315,392.17z M106.06,384.52v0.99h0.93v-0.99H106.06z M106.99,386.83h-0.93v0.885h0.93
				V386.83z M106.06,389.965h0.93v-0.944h-0.93V389.965z M107.185,392.006c0.18,0.779,0.375,1.77,0.435,2.414l-0.75,0.15
				c-0.045-0.66-0.225-1.68-0.405-2.445L107.185,392.006z M110.395,387.94h3.21v3.646h-3.21V387.94z M111.55,390.461h0.825v-1.41
				h-0.825V390.461z M115.54,385.795c-0.585-0.434-1.155-0.885-1.665-1.35c-0.42,0.48-0.915,0.93-1.44,1.35H115.54z M116.635,392.08
				c-0.105,0.6-0.24,1.186-0.42,1.74c0.63,0.42,1.35,0.945,1.74,1.32l-1.035,1.215c-0.285-0.315-0.795-0.735-1.305-1.125
				c-0.255,0.479-0.555,0.93-0.885,1.289c-0.255-0.27-0.915-0.764-1.29-0.989c0.87-0.854,1.38-2.22,1.605-3.72L116.635,392.08z
				 M114.085,387.94h3.33v3.646h-3.33V387.94z M115.24,390.461h0.945v-1.41h-0.945V390.461z"/>
			<path class="st2" d="M129.58,388.6c-0.585,0.42-1.155,0.81-1.77,1.2h5.445v6.659h-1.86v-0.39h-5.16v0.449h-1.785v-4.904
				c-0.75,0.33-1.53,0.66-2.295,0.945c-0.225-0.391-0.75-1.11-1.095-1.471c1.965-0.614,3.855-1.469,5.58-2.489h-5.1v-1.575h4.815
				v-1.365h-3.525v-1.545h3.525v-1.619h1.77v1.619h3.255v0.735c0.57-0.614,1.08-1.245,1.545-1.905l1.53,0.78
				c-0.855,1.185-1.86,2.295-2.955,3.3h3.479v1.575H129.58z M131.395,391.256h-5.16v0.959h5.16V391.256z M131.395,394.586v-1.021
				h-5.16v1.021H131.395z M128.125,387.025h0.825c0.57-0.436,1.11-0.885,1.62-1.365h-2.445V387.025z"/>
			<path class="st2" d="M142.9,389.679c-0.24,1.336-0.66,2.656-1.26,3.75c0.225,0.136,0.495,0.315,0.84,0.511
				c1.035,0.585,2.475,0.675,4.17,0.675c1.68,0,4.395-0.15,6.09-0.404c-0.21,0.494-0.51,1.379-0.54,1.889
				c-1.215,0.09-3.87,0.181-5.625,0.181c-1.95,0-3.24-0.165-4.334-0.765c-0.615-0.33-1.14-0.78-1.455-0.78
				c-0.345,0-0.9,0.975-1.305,1.784l-1.17-1.725c0.45-0.539,0.945-0.975,1.425-1.275c0.54-0.734,0.975-1.725,1.245-2.684h-2.1
				c0.39-0.886,0.84-2.086,1.245-3.256h-1.5v-1.59h3.75c-0.36,1.08-0.78,2.266-1.185,3.301h0.405l0.255-0.045L142.9,389.679z
				 M140.335,385.586c-0.24-0.69-0.765-1.785-1.11-2.61l1.545-0.555c0.375,0.81,0.87,1.815,1.155,2.475L140.335,385.586z
				 M143.86,389.291c-0.18,0.09-0.375,0.164-0.555,0.225c-0.225-0.391-0.69-0.96-1.035-1.26c1.245-0.346,2.58-1.006,3.495-1.74h-3
				v-1.335h3.93v-0.75c-1.05,0.075-2.115,0.104-3.12,0.12c-0.03-0.346-0.21-0.885-0.36-1.2c2.61-0.075,5.655-0.3,7.41-0.675
				l1.095,1.17c-0.975,0.18-2.115,0.345-3.33,0.449v0.886h3.945v1.335h-3.075c0.9,0.675,2.175,1.26,3.405,1.561
				c-0.345,0.299-0.795,0.899-1.035,1.305c-1.155-0.405-2.34-1.125-3.24-2.01v1.379h-1.695v-1.319
				c-0.645,0.614-1.44,1.155-2.235,1.575h5.325c-0.075,0.375-0.165,0.765-0.24,1.17h2.505c0,0-0.03,0.375-0.06,0.584
				c-0.12,1.65-0.315,2.461-0.66,2.791c-0.285,0.299-0.645,0.404-1.08,0.435c-0.39,0.045-1.095,0.06-1.814,0.015
				c-0.03-0.404-0.21-0.945-0.42-1.32c0.63,0.061,1.23,0.076,1.47,0.076c0.24,0,0.375-0.016,0.495-0.136
				c0.135-0.135,0.255-0.479,0.33-1.2h-2.595c0.105-0.314,0.195-0.689,0.285-1.095h-1.05c-0.27,1.875-1.005,3.149-3.42,3.915
				c-0.15-0.404-0.555-1.005-0.9-1.32c1.89-0.51,2.46-1.35,2.685-2.595h-1.455V389.291z"/>
			<path class="st2" d="M159.985,389.5c-0.27,1.365-0.66,2.775-1.17,3.9c0.24,0.15,0.525,0.359,0.915,0.6
				c1.035,0.615,2.445,0.705,4.2,0.705c1.71,0,4.41-0.15,6.075-0.39c-0.21,0.479-0.51,1.35-0.525,1.829
				c-1.23,0.076-3.885,0.181-5.64,0.181c-1.995,0-3.255-0.165-4.335-0.795c-0.63-0.345-1.17-0.84-1.47-0.84
				c-0.345,0-0.885,1.02-1.26,1.874l-1.185-1.694c0.525-0.63,1.065-1.125,1.575-1.44c0.345-0.734,0.645-1.68,0.87-2.594h-1.89
				c0.345-0.886,0.735-2.086,1.08-3.256h-1.35v-1.59h3.51c-0.315,1.051-0.675,2.25-1.035,3.301h0.615l0.27-0.061L159.985,389.5z
				 M157.466,385.555c-0.165-0.675-0.57-1.755-0.825-2.58l1.575-0.479c0.285,0.81,0.675,1.814,0.885,2.49L157.466,385.555z
				 M161.875,394.045h-1.545v-6.524h1.11v-4.59h6.465v4.59H169v5.01c0,0.705-0.12,1.08-0.585,1.319
				c-0.435,0.226-1.05,0.24-1.86,0.24c-0.045-0.39-0.21-0.899-0.39-1.289h-2.25v0.465h-1.275v-3.78h3.915v3.226
				c0.285,0,0.525,0,0.615,0c0.165,0,0.21-0.045,0.21-0.195v-3.645h-5.505V394.045z M162.985,387.52h0.84v-2.354h2.475v-0.916
				h-3.315V387.52z M165.265,390.625h-1.35v1.051h1.35V390.625z M166.3,386.275h-1.185v1.245h1.185V386.275z"/>
			<path class="st2" d="M182.095,387.34c1.605,1.156,3.915,2.881,4.995,4.065l-1.515,1.365c-0.93-1.11-2.97-2.82-4.59-4.065v7.77
				h-1.95v-7.319c-1.365,1.455-2.97,2.761-4.77,3.69c-0.285-0.48-0.84-1.215-1.23-1.62c2.73-1.275,5.07-3.601,6.465-5.896h-5.985
				v-1.83h13.004v1.83h-4.665c-0.255,0.465-0.555,0.931-0.87,1.381v1.56L182.095,387.34z"/>
			<path class="st2" d="M203.635,394.45c0,0.931-0.195,1.44-0.765,1.726c-0.57,0.299-1.41,0.344-2.655,0.344
				c-0.075-0.494-0.345-1.305-0.615-1.77c0.795,0.045,1.665,0.045,1.92,0.03c0.255-0.015,0.36-0.104,0.36-0.345v-9.54h-9.225v11.61
				h-1.74v-13.305h12.72V394.45z M200.995,387.445h-7.484v-1.5h7.484V387.445z M195.865,393.61v0.989h-1.65V388.6h6.105v5.01
				H195.865z M195.865,390.07v2.07h2.805v-2.07H195.865z"/>
			<path class="st2" d="M220.3,394.495c0,0.976-0.24,1.455-0.93,1.74c-0.69,0.271-1.725,0.3-3.21,0.3
				c-0.09-0.495-0.42-1.26-0.675-1.725c1.05,0.06,2.28,0.045,2.61,0.045c0.315-0.016,0.435-0.105,0.435-0.391v-1.185h-7.5
				c-0.39,1.245-1.11,2.43-2.34,3.3c-0.24-0.345-0.9-1.005-1.26-1.245c2.145-1.515,2.355-3.72,2.355-5.534v-2.235
				c-0.255,0.226-0.525,0.435-0.795,0.646c-0.27-0.42-0.87-1.051-1.26-1.305c1.905-1.291,3.195-3,3.9-4.471l1.905,0.33
				c-0.09,0.18-0.195,0.375-0.3,0.555h2.97l0.285-0.074l1.215,0.795c-0.33,0.584-0.765,1.244-1.215,1.859h3.81V394.495z
				 M211.495,390.325c-0.015,0.466-0.045,0.945-0.12,1.425h2.7v-1.425H211.495z M212.32,384.775c-0.27,0.375-0.555,0.766-0.87,1.125
				h3.09c0.24-0.345,0.495-0.75,0.705-1.125H212.32z M211.51,388.826h2.565v-1.365h-2.565V388.826z M218.53,387.461h-2.76v1.365
				h2.76V387.461z M218.53,391.75v-1.425h-2.76v1.425H218.53z"/>
			<path class="st2" d="M227.74,387.759c0,2.521-0.195,6.271-1.44,8.715c-0.36-0.254-1.17-0.629-1.635-0.765
				c1.2-2.31,1.305-5.655,1.305-7.935v-3.99h5.595c-0.105-0.344-0.225-0.705-0.36-0.989l1.815-0.405c0.21,0.42,0.42,0.93,0.57,1.395
				h4.95v1.666H227.74V387.759z M237.655,391.631c-0.63,1.17-1.53,2.069-2.64,2.774c1.14,0.271,2.4,0.435,3.765,0.54
				c-0.345,0.375-0.795,1.095-1.02,1.545c-1.83-0.18-3.45-0.525-4.86-1.096c-1.425,0.511-3.045,0.826-4.74,1.006
				c-0.135-0.42-0.465-1.096-0.735-1.485c1.245-0.104,2.445-0.255,3.54-0.524c-0.69-0.465-1.305-1.021-1.815-1.635l0.6-0.24h-1.59
				v-1.395h8.07l0.315-0.061L237.655,391.631z M230.065,390.52v-2.34h-2.025v-1.396h2.025v-0.99h1.68v0.99h2.729v-0.99h1.77v0.99
				h2.16v1.396h-2.16v2.34H230.065z M231.01,392.515c0.525,0.479,1.2,0.885,1.98,1.215c0.765-0.33,1.425-0.721,1.98-1.215H231.01z
				 M231.745,388.18v0.989h2.729v-0.989H231.745z"/>
			<path class="st2" d="M254.455,391.33c-0.42-0.465-1.185-1.125-1.935-1.74c-0.3,0.496-0.63,0.931-1.005,1.291
				c-0.255-0.211-0.75-0.541-1.17-0.766c1.335,1.77,3.48,3.359,5.73,4.186c-0.435,0.375-1.02,1.139-1.32,1.635
				c-1.815-0.84-3.51-2.19-4.86-3.795v4.365h-1.875v-4.275c-1.35,1.574-3.03,2.88-4.815,3.705c-0.285-0.436-0.87-1.155-1.26-1.53
				c2.43-0.944,4.77-2.806,6.075-4.83v-3.465h-5.46v-1.755h5.46v-1.845h1.875v1.845h5.655v1.755h-5.655v3.36
				c0.075,0.119,0.15,0.225,0.225,0.345c0.96-0.854,1.59-2.19,1.89-3.614l1.74,0.314c-0.135,0.555-0.3,1.095-0.495,1.605
				c0.855,0.659,1.89,1.454,2.445,1.965L254.455,391.33z M246.73,386.531c-0.15,0.555-0.33,1.094-0.54,1.619
				c0.54,0.465,1.11,0.96,1.455,1.32l-1.2,1.244c-0.225-0.285-0.6-0.66-1.005-1.049c-0.495,0.81-1.065,1.514-1.725,2.055
				c-0.285-0.315-0.99-0.9-1.38-1.17c1.32-0.945,2.235-2.521,2.655-4.35L246.73,386.531z"/>
			<path class="st2" d="M272.635,386.095c-0.54,1.425-1.32,2.699-2.265,3.779c0.36,2.82,0.9,4.83,1.365,4.83
				c0.21,0,0.345-0.765,0.39-2.4c0.33,0.406,0.885,0.795,1.32,0.976c-0.255,2.476-0.735,3.12-1.935,3.12
				c-1.305,0-2.145-2.16-2.64-5.13c-0.285,0.225-0.585,0.42-0.885,0.614c-0.135-0.18-0.375-0.42-0.615-0.674h-1.77
				c0.42,0.674,0.93,1.56,1.155,2.069l-1.17,0.63c-0.165-0.449-0.51-1.109-0.84-1.725v2.52c0,0.391,0.06,0.436,0.435,0.436h1.08
				c0.345,0,0.42-0.226,0.45-1.59c0.225,0.164,0.615,0.33,0.96,0.435c-0.21-0.511-0.42-1.021-0.615-1.47l1.17-0.45
				c0.48,1.021,1.065,2.385,1.35,3.194l-1.26,0.541c-0.09-0.33-0.24-0.766-0.42-1.23c-0.165,1.38-0.555,1.77-1.485,1.77h-1.455
				c-1.32,0-1.62-0.39-1.62-1.619v-2.551h1.395l-0.285-0.51l0.93-0.449h-2.88v-3.465h4.89v2.564c0.435-0.27,0.84-0.585,1.215-0.93
				c-0.15-1.305-0.24-2.7-0.315-4.08h-6.165v0.645h5.745v1.186h-5.745c-0.03,2.67-0.3,6.719-1.59,9.404
				c-0.3-0.285-1.035-0.795-1.425-0.93c1.26-2.596,1.38-6.359,1.38-8.835v-2.88h7.754c-0.015-0.465-0.03-0.93-0.03-1.395h1.725
				v0.479l0.945-0.659c0.48,0.344,1.155,0.84,1.5,1.154l-0.555,0.42h1.2v1.41h-3.045c0.03,0.765,0.075,1.529,0.135,2.265
				c0.375-0.585,0.675-1.2,0.915-1.875L272.635,386.095z M261.415,395.5c0.255-0.93,0.54-2.324,0.675-3.33l1.14,0.436
				c-0.15,0.945-0.39,2.43-0.585,3.359L261.415,395.5z M265.99,388.945h-2.04v1.08h2.04V388.945z M270.865,383.89
				c-0.285-0.255-0.63-0.525-0.93-0.766c0,0.256,0,0.511,0,0.766H270.865z"/>
			<path class="st2" d="M288.25,390.145c-0.675,1.47-1.665,2.61-2.88,3.495c1.44,0.51,3.12,0.854,4.965,1.02
				c-0.375,0.405-0.855,1.186-1.095,1.665c-2.175-0.271-4.11-0.78-5.73-1.575c-1.725,0.825-3.72,1.32-5.834,1.605
				c-0.18-0.42-0.675-1.215-1.05-1.575c1.875-0.194,3.615-0.54,5.1-1.095c-0.915-0.645-1.71-1.44-2.37-2.355l0.495-0.209h-0.705
				v-1.636h7.575l0.33-0.075L288.25,390.145z M278.65,390.041h-1.665v-3.256h2.145c-0.15-0.465-0.435-1.064-0.705-1.545l1.335-0.375
				c-0.75,0.045-1.515,0.075-2.235,0.09c-0.03-0.449-0.24-1.125-0.405-1.514c3.945-0.136,8.46-0.496,11.189-1.021l1.2,1.44
				c-1.62,0.299-3.555,0.539-5.55,0.719c0.3,0.601,0.585,1.396,0.675,1.936l-1.11,0.27h2.61c0.36-0.689,0.75-1.574,0.975-2.25
				l1.905,0.451c-0.345,0.629-0.735,1.244-1.08,1.799h2.13v3.256h-1.74v-1.711h-9.675V390.041z M283.855,384.58
				c-1.26,0.121-2.565,0.211-3.84,0.271c0.345,0.556,0.69,1.229,0.84,1.71l-0.78,0.225h2.865c-0.09-0.524-0.315-1.274-0.57-1.859
				L283.855,384.58z M281.245,391.121c0.615,0.674,1.38,1.244,2.28,1.739c0.795-0.479,1.5-1.05,2.04-1.739H281.245z"/>
			<path class="st2" d="M96.385,408.875c1.38,1.291,3.165,3.136,3.945,4.396l-1.515,1.095c-0.195-0.33-0.465-0.72-0.78-1.14
				c-7.964,0.39-9.029,0.42-9.825,0.69c-0.09-0.36-0.375-1.246-0.585-1.711c0.39-0.104,0.75-0.39,1.245-0.869
				c0.525-0.465,2.16-2.28,3.18-4.08l1.8,0.765c-0.945,1.396-2.13,2.729-3.27,3.825l6.15-0.195c-0.585-0.66-1.185-1.289-1.74-1.845
				L96.385,408.875z M88.705,414.905h10.11v6.569h-1.92v-0.75h-6.36v0.766h-1.83V414.905z M90.535,416.615v2.4h6.36v-2.4H90.535z"/>
			<path class="st2" d="M110.545,417.185l0.315,1.59c-2.115,0.915-4.425,1.83-6.195,2.535l-0.795-1.83h-0.015
				c1.02-0.315,2.459-0.811,3.99-1.335v-5.325h-3.465v-1.785h3.465v-3.299h1.86v9.749L110.545,417.185z M115.435,419.315
				c0.555,0,0.645-0.705,0.735-3.39c0.435,0.345,1.215,0.72,1.71,0.84c-0.165,3.104-0.585,4.289-2.28,4.289h-1.785
				c-1.65,0-2.145-0.629-2.145-2.699V407.75h1.86v3.271h3.915v1.771h-3.915v5.579c0,0.81,0.075,0.945,0.57,0.945H115.435z"/>
			<path class="st2" d="M134.89,409.805c0,0,0,0.601-0.015,0.81c-0.195,6.705-0.36,9.09-0.975,9.885
				c-0.42,0.555-0.84,0.721-1.44,0.825c-0.57,0.075-1.47,0.06-2.355,0.03c-0.03-0.495-0.27-1.245-0.585-1.74
				c0.96,0.09,1.845,0.09,2.235,0.09c0.3,0,0.465-0.061,0.66-0.255c0.435-0.479,0.63-2.729,0.795-8.024H130
				c-0.39,0.9-0.855,1.725-1.32,2.369c-0.24-0.225-0.75-0.569-1.155-0.84v7.006h-4.005v1.094h-1.62V409.91h1.695
				c0.195-0.75,0.375-1.709,0.435-2.414l1.95,0.27c-0.255,0.75-0.525,1.5-0.78,2.145h2.325v2.43c0.87-1.26,1.59-3.074,2.025-4.829
				l1.695,0.39c-0.15,0.646-0.36,1.275-0.585,1.905H134.89z M125.906,411.47h-2.385v2.43h2.385V411.47z M125.906,418.384v-2.939
				h-2.385v2.939H125.906z M130.885,417.575c-0.42-0.899-1.35-2.37-2.085-3.465l1.395-0.795c0.75,1.035,1.74,2.46,2.205,3.33
				L130.885,417.575z"/>
			<path class="st2" d="M146.395,407.51c-0.015,0.63-0.045,1.44-0.105,2.34c0.21,2.024,1.125,7.68,6.36,9.989
				c-0.555,0.436-1.065,1.035-1.305,1.545c-3.33-1.59-4.995-4.515-5.865-7.094c-0.825,2.639-2.4,5.354-5.52,7.184
				c-0.315-0.479-0.885-1.049-1.485-1.455c6.09-3.254,5.805-9.975,5.865-12.509H146.395z"/>
			<path class="st2" d="M167.32,411.756c-0.765,2.16-1.785,3.914-3.09,5.369c1.545,1.2,3.435,2.07,5.67,2.596
				c-0.405,0.39-0.93,1.17-1.2,1.664c-2.355-0.629-4.29-1.619-5.865-2.939c-1.65,1.35-3.66,2.34-6.075,3.029
				c-0.195-0.42-0.72-1.26-1.08-1.664c2.34-0.586,4.275-1.44,5.835-2.655c-1.35-1.485-2.385-3.284-3.195-5.399h-2.355v-1.74h6.33
				c-0.165-0.615-0.495-1.455-0.84-2.115l1.905-0.555c0.39,0.689,0.84,1.65,1.02,2.266l-1.29,0.404h6.525v1.74H167.32z
				 M160.165,411.756c0.645,1.574,1.545,2.97,2.7,4.154c1.035-1.14,1.86-2.505,2.445-4.154H160.165z"/>
			<path class="st2" d="M178.69,416.405l-1.44,0.375v4.726h-1.695V417.2l-1.98,0.511l-0.435-1.815c0.66-0.12,1.515-0.3,2.415-0.479
				v-3.301h-0.87c-0.15,0.75-0.33,1.455-0.54,1.995c-0.3-0.135-0.93-0.375-1.26-0.479c0.48-1.215,0.765-3.15,0.9-4.98l1.35,0.211
				c-0.045,0.524-0.105,1.034-0.18,1.559h0.6v-2.909h1.695v2.909h1.29v1.695h-1.29v2.926l1.245-0.285L178.69,416.405z
				 M186.88,416.375h-1.44v3.135c0,0.885-0.165,1.351-0.765,1.635c-0.57,0.271-1.41,0.315-2.505,0.315
				c-0.075-0.524-0.315-1.26-0.54-1.77c0.705,0.03,1.515,0.03,1.755,0.03c0.225,0,0.285-0.061,0.285-0.256v-3.09h-4.77v-1.635h4.77
				v-1.05h1.77v1.05h1.44V416.375z M181.78,410.451h-2.82v-1.621h2.82v-1.334h1.77v1.334h3v1.621h-3v1.274h2.49v1.649h-6.524v-1.649
				h2.265V410.451z M180.91,416.42c0.645,0.66,1.44,1.621,1.8,2.25l-1.41,0.916c-0.315-0.631-1.065-1.636-1.71-2.355L180.91,416.42z
				"/>
			<path class="st2" d="M200.71,419.615c1.44,0,1.665-0.33,1.86-2.189c0.45,0.254,1.185,0.539,1.68,0.629
				c-0.315,2.461-0.93,3.181-3.45,3.181h-5.13c-2.79,0-3.645-0.54-3.645-2.685v-5.461c-0.3,0.24-0.6,0.451-0.885,0.66
				c-0.165-0.42-0.645-1.305-0.96-1.709c1.77-1.065,3.585-2.791,4.59-4.65l1.62,0.615c-0.12,0.21-0.255,0.436-0.375,0.645h3.45
				l0.345-0.09l1.14,0.855c-0.51,0.72-1.155,1.529-1.845,2.234h3.66v5.641h-1.755v-0.511h-7.26v1.771
				c0,0.914,0.255,1.064,1.89,1.064H200.71z M194.875,410.24c-0.405,0.495-0.81,0.961-1.26,1.41h3.36
				c0.435-0.404,0.87-0.9,1.26-1.41H194.875z M193.75,415.086h2.79v-1.785h-2.79V415.086z M201.01,413.301h-2.73v1.785h2.73V413.301
				z"/>
		</g>
	</g>
	<path class="st17" d="M186.405,356.729L186.405,356.729l0,9.555l-2.201-2.201c-0.293-0.293-0.768-0.293-1.061,0l-0.487,0.487
		c-0.293,0.293-0.293,0.768,0,1.061l4.313,4.314c0.293,0.293,0.767,0.293,1.06,0.001l4.315-4.315c0.141-0.141,0.22-0.331,0.22-0.53
		s-0.079-0.391-0.22-0.531l-0.488-0.487c-0.294-0.292-0.768-0.292-1.061,0.001l-2.2,2.201v-9.555h0c0-0.414-0.336-0.75-0.75-0.75
		h-0.689C186.741,355.979,186.405,356.315,186.405,356.729z"/>
</g>
<g id="圖層_4" class="st20">
</g>
</svg>
