<?xml version="1.0" encoding="utf-8"?>
<!-- Generator: Adobe Illustrator 22.0.1, SVG Export Plug-In . SVG Version: 6.00 Build 0)  -->
<svg version="1.1" xmlns="http://www.w3.org/2000/svg" xmlns:xlink="http://www.w3.org/1999/xlink" x="0px" y="0px"
	 viewBox="0 0 375 478.955" style="enable-background:new 0 0 375 478.955;" xml:space="preserve">
<style type="text/css">
	.st0{fill:#EFEFEF;}
	.st1{fill:#15AF83;}
	.st2{fill:#171C61;}
	.st3{fill:#17AD7B;}
	.st4{opacity:0.6;}
	.st5{fill:#FFFFFF;}
	.st6{fill:#165987;}
	.st7{fill:#D64B3C;}
	.st8{fill:#D65677;}
	.st9{fill:#DD722A;}
	.st10{fill:#005E9E;}
	.st11{fill:#D67327;}
	.st12{clip-path:url(#SVGID_6_);fill:none;}
	.st13{clip-path:url(#SVGID_6_);}
	.st14{fill:none;stroke:#FFFFFF;stroke-width:0.6;stroke-miterlimit:10;}
	.st15{fill:#113272;}
	.st16{opacity:0.2;}
	.st17{opacity:0.2;fill:#171C61;}
	.st18{opacity:0.4;}
	.st19{opacity:0.8;}
	.st20{display:none;}
	.st21{display:inline;fill:#C30D23;}
</style>
<g id="圖層_3">
</g>
<g id="圖層_2">
</g>
<g id="圖層_1">
	<rect x="0.072" y="0.079" class="st5" width="374.856" height="478.876"/>
	<g>
		<path class="st2" d="M22.868,26.152h4.53l1.77,10.829c0.33,2.34,0.69,4.71,1.02,7.08h0.12c0.45-2.37,0.93-4.77,1.41-7.08
			l2.58-10.829h3.78l2.58,10.829c0.48,2.28,0.93,4.68,1.41,7.08h0.15c0.33-2.4,0.66-4.77,0.99-7.08l1.74-10.829h4.23l-4.11,22.199
			h-5.52l-2.49-10.979c-0.36-1.74-0.69-3.45-0.96-5.13h-0.12c-0.3,1.68-0.6,3.39-0.96,5.13l-2.43,10.979h-5.43L22.868,26.152z"/>
		<path class="st2" d="M55.148,24.412h4.379v6.03l-0.18,3.149c1.35-1.26,3-2.46,5.28-2.46c3.63,0,5.189,2.521,5.189,6.75v10.47
			h-4.41v-9.93c0-2.58-0.72-3.51-2.37-3.51c-1.38,0-2.25,0.66-3.51,1.89v11.55h-4.379V24.412z"/>
		<path class="st2" d="M76.508,54.771l0.81-3.391c0.3,0.091,0.78,0.21,1.17,0.21c1.71,0,2.67-1.079,3.15-2.55l0.3-0.989l-6.54-16.5
			h4.44l2.67,7.8c0.51,1.5,0.93,3.12,1.41,4.74h0.15c0.39-1.561,0.81-3.18,1.2-4.74l2.31-7.8h4.229l-5.97,17.31
			c-1.47,3.96-3.27,6.239-7.02,6.239C77.828,55.101,77.168,54.981,76.508,54.771z"/>
		<path class="st2" d="M108.937,31.942c0-1.801-1.44-2.82-3.78-2.82c-1.86,0-3.42,0.81-4.8,2.37l-2.46-2.28
			c1.89-2.22,4.53-3.659,7.74-3.659c4.35,0,7.53,2.01,7.53,5.999c0,4.41-6.54,4.92-6.09,9.09h-3.87
			C102.577,35.932,108.937,34.852,108.937,31.942z M105.157,42.712c1.8,0,3.12,1.199,3.12,2.939s-1.32,2.97-3.12,2.97
			s-3.12-1.229-3.12-2.97S103.357,42.712,105.157,42.712z"/>
	</g>
	<g>
		<path class="st2" d="M38.857,81.207c-0.81,1.458-1.818,2.772-2.989,3.942c0.486,1.387,1.044,2.215,1.584,2.215
			c0.378,0,0.594-0.864,0.684-2.988c0.468,0.504,1.188,0.99,1.765,1.224c-0.342,3.151-1.008,3.943-2.647,3.943
			c-1.314,0-2.322-1.08-3.097-2.845c-1.044,0.864-2.179,1.603-3.331,2.196c-0.306-0.504-0.9-1.242-1.422-1.729
			c1.386-0.63,2.773-1.512,4.015-2.538c-0.396-1.423-0.702-3.062-0.918-4.826h-3.655v2.053c0.918-0.162,1.854-0.342,2.772-0.504
			l0.162,1.944l-2.935,0.595v3.079c0,1.17-0.252,1.746-0.973,2.088c-0.702,0.343-1.782,0.433-3.241,0.414
			c-0.09-0.594-0.45-1.566-0.756-2.16c1.008,0.054,2.053,0.036,2.377,0.018c0.324,0,0.432-0.09,0.432-0.378v-2.61
			c-1.152,0.233-2.269,0.468-3.223,0.647l-0.522-2.16c1.026-0.162,2.323-0.36,3.745-0.612v-2.413h-3.403v-2.034h3.403v-2.053
			c-0.972,0.162-1.963,0.288-2.881,0.396c-0.09-0.522-0.378-1.314-0.612-1.801c2.521-0.342,5.312-0.918,7.148-1.513l1.44,1.818
			c-0.9,0.271-1.891,0.505-2.935,0.721v2.431h3.457c-0.144-1.62-0.198-3.295-0.216-4.934h2.251c-0.036,1.675,0.036,3.35,0.18,4.934
			h4.897v2.034h-4.681c0.144,1.081,0.324,2.125,0.522,3.043c0.648-0.773,1.243-1.584,1.71-2.448L38.857,81.207z M37.542,77.245
			c-0.468-0.828-1.584-2.106-2.557-2.971l1.621-1.099c0.954,0.829,2.143,2.017,2.665,2.863L37.542,77.245z"/>
		<path class="st2" d="M54.677,80.486h-3.097v8.949H49.6V73.662c-0.36,1.026-0.774,2.089-1.243,3.115v12.693h-2.035v-9.002
			c-0.36,0.54-0.738,1.044-1.116,1.477c-0.162-0.505-0.684-1.747-1.026-2.305c1.458-1.675,2.773-4.304,3.565-6.95l1.98,0.594
			l-0.108,0.342h5.06V80.486z M51.581,75.247v1.026h1.477v-1.026H51.581z M53.057,78.866v-1.062h-1.477v1.062H53.057z
			 M60.835,86.986c0,1.188-0.252,1.765-0.973,2.07c-0.738,0.343-1.873,0.396-3.565,0.396c-0.072-0.594-0.414-1.53-0.684-2.07
			c1.098,0.071,2.341,0.054,2.701,0.036c0.342,0,0.468-0.108,0.468-0.45v-6.482h-3.295v-6.86h5.348V86.986z M57.18,75.247v1.026
			h1.603v-1.026H57.18z M58.783,78.866v-1.062H57.18v1.062H58.783z"/>
		<path class="st2" d="M71.758,77.228c-0.396,0.72-0.864,1.458-1.369,2.179v10.119h-1.999v-7.707
			c-0.468,0.505-0.936,0.937-1.404,1.333c-0.198-0.469-0.774-1.549-1.116-1.999c1.512-1.134,3.079-2.881,4.015-4.627L71.758,77.228z
			 M71.452,73.429c-1.134,1.548-2.809,3.295-4.303,4.393c-0.27-0.432-0.792-1.188-1.116-1.566c1.278-0.9,2.772-2.395,3.529-3.564
			L71.452,73.429z M78.402,87.257c0.432,0.071,0.9,0.09,1.368,0.09c0.504,0.018,2.485,0,3.169-0.019
			c-0.27,0.45-0.522,1.387-0.594,1.927H79.59c-2.449,0-4.357-0.594-5.671-2.809c-0.45,1.188-1.062,2.196-1.909,3.007
			c-0.306-0.36-1.152-1.08-1.621-1.368c1.693-1.44,2.305-3.907,2.467-6.914l2.071,0.162c-0.072,0.9-0.162,1.729-0.306,2.521
			c0.432,1.278,1.044,2.106,1.783,2.646v-6.536h0.648c-0.396-0.306-0.846-0.63-1.152-0.81c1.747-1.351,2.701-3.674,3.061-6.464
			l1.999,0.233c-0.162,1.081-0.378,2.089-0.684,3.007c1.026,0.937,2.214,2.089,2.791,2.881l-1.422,1.423
			c-0.45-0.666-1.278-1.603-2.125-2.449c-0.414,0.829-0.918,1.549-1.495,2.179h0.378v2.539h3.475v1.801h-3.475V87.257z
			 M76.259,78.632c-0.324-0.36-0.882-0.828-1.44-1.278c-0.594,1.225-1.314,2.287-2.178,3.097c-0.306-0.396-1.062-1.134-1.513-1.458
			c1.603-1.387,2.575-3.709,3.025-6.302l2.035,0.306c-0.18,0.918-0.396,1.801-0.684,2.629c0.648,0.45,1.332,0.973,1.71,1.332
			L76.259,78.632z"/>
		<path class="st2" d="M93.628,73.303c-0.414,1.098-0.9,2.196-1.477,3.295v12.838h-2.143v-9.417
			c-0.414,0.558-0.846,1.062-1.26,1.512c-0.198-0.521-0.774-1.692-1.152-2.232c1.584-1.584,3.133-4.105,4.015-6.644L93.628,73.303z
			 M104.557,76.273h-1.08V86.95c0,1.242-0.271,1.818-1.044,2.161c-0.756,0.324-1.981,0.396-3.655,0.396
			c-0.072-0.63-0.414-1.566-0.72-2.196c1.17,0.054,2.431,0.054,2.791,0.054c0.36,0,0.468-0.107,0.468-0.45V76.273h-7.85v-2.053
			h11.091V76.273z M95.681,84.735v1.171h-1.999v-7.688h5.996v6.518H95.681z M95.681,80.072v2.809h1.999v-2.809H95.681z"/>
		<path class="st2" d="M112.275,79.73v9.759h-2.088V73.356h6.932v6.374H112.275z M112.275,74.887v0.918h2.827v-0.918H112.275z
			 M115.102,78.182v-0.99h-2.827v0.99H115.102z M120.377,85.437v3.71h-1.873v-3.71h-1.729c-0.18,1.243-0.774,2.989-2.305,4.033
			c-0.306-0.378-0.954-0.936-1.368-1.224c1.152-0.721,1.656-1.891,1.836-2.81h-1.818v-1.746h1.89v-1.351h-1.638v-1.692h8.696v1.692
			h-1.692v1.351h1.98v1.746H120.377z M118.505,83.691v-1.351h-1.674v1.351H118.505z M125.365,86.986
			c0,1.099-0.198,1.692-0.846,2.034c-0.648,0.36-1.584,0.415-2.953,0.415c-0.072-0.595-0.36-1.567-0.648-2.125
			c0.811,0.036,1.693,0.036,1.963,0.018c0.288,0,0.378-0.107,0.378-0.359v-7.202h-4.951v-6.41h7.058V86.986z M120.341,74.887v0.918
			h2.917v-0.918H120.341z M123.258,78.218v-1.026h-2.917v1.026H123.258z"/>
		<path class="st2" d="M137.404,78.056c-0.036,1.854-0.27,4.051-1.134,6.212c0.792,0.738,1.512,1.404,1.98,1.963l-1.314,1.674
			c-0.414-0.485-0.972-1.098-1.639-1.746c-0.738,1.188-1.729,2.305-3.079,3.312c-0.288-0.45-0.99-1.134-1.44-1.458
			c1.368-0.973,2.341-2.106,3.043-3.259c-0.9-0.828-1.801-1.639-2.593-2.323c0.342-1.08,0.684-2.502,0.99-4.015l-1.17,0.072
			l-0.198-1.909c0.522-0.018,1.099-0.036,1.711-0.072c0.216-1.278,0.396-2.574,0.486-3.727l1.98,0.126
			c-0.126,1.099-0.288,2.305-0.504,3.511l0.972-0.054v-1.152h1.909v1.044l0.792-0.036l-0.018,1.783L137.404,78.056z M134.181,78.29
			c-0.252,1.242-0.54,2.448-0.81,3.511c0.432,0.342,0.864,0.721,1.296,1.099c0.594-1.639,0.774-3.295,0.81-4.699L134.181,78.29z
			 M146.173,81.278c-0.108-0.359-0.27-0.773-0.45-1.188c-5.87,0.505-6.77,0.595-7.436,0.864c-0.126-0.414-0.45-1.44-0.685-1.998
			c0.378-0.108,0.703-0.468,1.135-1.116c0.45-0.612,1.71-2.917,2.484-5.149l2.233,0.594c-0.774,1.837-1.801,3.709-2.791,5.222
			l4.069-0.288c-0.45-0.756-0.936-1.513-1.404-2.161l1.71-0.846c1.242,1.566,2.467,3.637,2.971,5.077L146.173,81.278z
			 M138.395,81.963h8.426v7.508h-2.052v-0.702h-4.412v0.721h-1.962V81.963z M140.357,83.835v3.043h4.412v-3.043H140.357z"/>
		<path class="st2" d="M157.798,81.297c-0.288,1.603-0.792,3.187-1.512,4.52c0.27,0.162,0.594,0.359,1.008,0.594
			c1.242,0.702,2.953,0.811,5.005,0.811c2.017,0,5.275-0.181,7.31-0.486c-0.252,0.594-0.612,1.656-0.648,2.269
			c-1.458,0.108-4.646,0.216-6.752,0.216c-2.359,0-3.889-0.198-5.204-0.918c-0.756-0.396-1.369-0.937-1.747-0.937
			c-0.414,0-1.081,1.171-1.566,2.143l-1.404-2.07c0.54-0.648,1.134-1.17,1.71-1.513c0.648-0.9,1.17-2.089,1.494-3.241h-2.521
			c0.468-1.062,1.008-2.502,1.476-3.906h-1.8v-1.909h4.52c-0.432,1.278-0.955,2.719-1.422,3.961h0.468l0.324-0.054L157.798,81.297z
			 M154.719,76.381c-0.306-0.828-0.918-2.143-1.333-3.114l1.854-0.685c0.45,0.99,1.044,2.196,1.386,2.971L154.719,76.381z
			 M169.069,76.327h-11.452v-1.656h4.771c-0.216-0.504-0.504-1.08-0.774-1.53l2.07-0.648c0.378,0.594,0.846,1.422,1.062,1.944
			l-0.72,0.234h5.042V76.327z M158.716,81.692h9.002v4.556h-9.002V81.692z M167.557,78.542h-8.643v-1.513h8.643V78.542z
			 M158.915,79.353h8.643v1.512h-8.643V79.353z M160.715,84.718h4.897v-1.513h-4.897V84.718z"/>
		<path class="st2" d="M179.506,83.817c-0.216-0.522-0.594-1.332-0.991-2.106v7.76h-1.944v-6.733
			c-0.468,1.386-1.026,2.646-1.639,3.547c-0.198-0.594-0.63-1.404-0.936-1.891c1.008-1.404,1.962-3.907,2.413-6.032h-1.999v-1.98
			h2.161v-3.709h1.944v3.709h1.801v1.98h-1.801v0.793c0.486,0.666,1.783,2.646,2.089,3.133L179.506,83.817z M184.404,84.556
			c-0.648,2.215-2.035,3.781-3.728,4.646c-0.234-0.396-0.756-1.026-1.098-1.368c0.99-0.45,1.909-1.261,2.503-2.251h-1.963v-1.44
			h2.809l0.306-0.054L184.404,84.556z M190.832,83.691c-0.882,0.648-1.836,1.314-2.647,1.818c0.829,0.847,1.854,1.53,2.989,1.944
			c-0.414,0.36-0.972,1.099-1.26,1.566c-1.296-0.63-2.431-1.638-3.313-2.881v1.405c0,0.899-0.162,1.368-0.774,1.656
			c-0.594,0.288-1.387,0.306-2.485,0.306c-0.054-0.54-0.306-1.278-0.54-1.746c0.63,0.018,1.314,0.018,1.512,0
			c0.216,0,0.288-0.054,0.288-0.252v-3.979h-2.953v-1.458h4.321c-0.829-0.343-1.747-0.685-2.539-0.919l0.522-0.576h-3.673V79.01
			h4.285v-0.702h-3.133V76.85h3.133v-0.666h-3.781v-1.513h1.908c-0.216-0.469-0.522-0.99-0.81-1.423l1.566-0.576
			c0.414,0.54,0.882,1.314,1.098,1.801l-0.468,0.198h2.899l-0.36-0.126c0.324-0.54,0.72-1.351,0.937-1.873l1.89,0.54
			c-0.396,0.54-0.756,1.026-1.08,1.459h2.215v1.513h-3.961v0.666h3.529v1.458h-3.529v0.702h4.267v1.566h-4.483
			c0.846,0.307,1.692,0.648,2.25,0.973l-1.134,1.278c-0.252-0.145-0.558-0.306-0.918-0.468v0.899
			c0.18,0.396,0.396,0.757,0.648,1.117c0.72-0.576,1.512-1.297,2.017-1.854L190.832,83.691z"/>
		<path class="st2" d="M212.089,75.445c0,0,0,0.72-0.018,0.972c-0.234,8.049-0.432,10.911-1.17,11.866
			c-0.504,0.666-1.009,0.864-1.729,0.99c-0.685,0.09-1.765,0.071-2.827,0.035c-0.036-0.594-0.324-1.494-0.702-2.088
			c1.152,0.107,2.215,0.107,2.683,0.107c0.36,0,0.559-0.071,0.792-0.306c0.522-0.576,0.756-3.277,0.954-9.633h-3.853
			c-0.468,1.08-1.026,2.07-1.584,2.845c-0.288-0.271-0.9-0.685-1.386-1.009v8.409h-4.808v1.314h-1.944V75.571h2.034
			c0.234-0.9,0.45-2.053,0.522-2.899l2.341,0.324c-0.306,0.9-0.63,1.801-0.937,2.575h2.791v2.917
			c1.044-1.513,1.908-3.691,2.431-5.798l2.035,0.468c-0.18,0.774-0.432,1.53-0.703,2.287H212.089z M201.304,77.443h-2.863v2.917
			h2.863V77.443z M201.304,85.744v-3.529h-2.863v3.529H201.304z M207.282,84.771c-0.504-1.08-1.621-2.845-2.503-4.159l1.674-0.954
			c0.9,1.242,2.089,2.953,2.647,3.997L207.282,84.771z"/>
		<path class="st2" d="M233.833,86.824v2.106h-16.115v-2.106h6.842V83.35h-5.132v-2.071h5.132v-3.114h-6.086v-2.089h7.202
			c-0.756-0.738-1.836-1.566-2.701-2.196l1.764-1.225c1.152,0.738,2.701,1.891,3.457,2.719l-0.954,0.702h5.708v2.089h-6.032v3.114
			h5.167v2.071h-5.167v3.475H233.833z"/>
		<path class="st2" d="M244.288,87.04c1.08,0.324,2.395,0.396,3.997,0.396c1.224,0,6.14,0,7.616-0.072
			c-0.288,0.414-0.576,1.242-0.684,1.765h-6.932c-3.385,0-5.618-0.342-7.058-2.305c-0.252,1.08-0.648,2.035-1.26,2.772
			c-0.27-0.449-0.811-1.134-1.243-1.458c1.008-1.242,1.188-3.367,1.243-5.527h1.71c-0.018,0.666-0.054,1.314-0.108,1.962
			c0.252,0.576,0.559,1.045,0.918,1.423v-4.105h-3.331v-1.548h8.066v1.548h-2.935v1.477h2.593v1.549h-2.593V87.04z M246.431,79.316
			h-6.464v-5.942h6.464V79.316z M244.45,74.797h-2.575v0.846h2.575V74.797z M244.45,76.993h-2.575v0.883h2.575V76.993z
			 M250.914,84.754c-0.774,1.008-2.035,2.034-3.151,2.629c-0.306-0.343-0.991-0.955-1.369-1.243
			c1.062-0.485,2.143-1.188,2.773-1.944L250.914,84.754z M250.014,75.895c0.108-0.307,0.198-0.648,0.306-0.973h-3.169v-1.494h8.246
			v1.494h-3.151l-0.432,0.973h3.061v8.174h-7.166v-8.174H250.014z M252.895,77.336h-3.277v0.828h3.277V77.336z M252.895,79.55
			h-3.277v0.828h3.277V79.55z M252.895,81.747h-3.277v0.864h3.277V81.747z M253.165,84.088c0.954,0.63,2.071,1.584,2.629,2.269
			l-1.531,0.9c-0.558-0.702-1.674-1.765-2.575-2.396L253.165,84.088z"/>
		<path class="st2" d="M268.175,78.073c0-1.08-0.864-1.692-2.269-1.692c-1.116,0-2.053,0.486-2.881,1.423l-1.477-1.368
			c1.134-1.333,2.719-2.197,4.646-2.197c2.611,0,4.52,1.207,4.52,3.602c0,2.646-3.925,2.953-3.655,5.455h-2.323
			C264.358,80.469,268.175,79.82,268.175,78.073z M265.907,84.538c1.08,0,1.873,0.72,1.873,1.764c0,1.045-0.792,1.783-1.873,1.783
			c-1.081,0-1.873-0.738-1.873-1.783C264.034,85.258,264.826,84.538,265.907,84.538z"/>
	</g>
	<g class="st18">
		<g>
			<g>
				<path class="st2" d="M167.214,262.127l-0.452-0.469C166.974,261.878,167.111,262.02,167.214,262.127z"/>
				<path class="st2" d="M170.307,265.673l0.112,0.056C170.257,265.582,170.183,265.527,170.307,265.673z"/>
				<path class="st2" d="M193.873,278.717c0.194-0.205,0.462-0.504,0.832-0.934L193.873,278.717z"/>
				<path class="st2" d="M149.459,243.555l-0.623-0.46C149.692,243.936,149.354,243.526,149.459,243.555z"/>
				<path class="st2" d="M154.575,160.572c0.058-0.038,0.125-0.082,0.179-0.118C154.762,160.43,154.686,160.487,154.575,160.572z"/>
				<path class="st2" d="M240.901,214.022c-0.003,0.018-0.006,0.032-0.009,0.052C240.943,213.899,240.934,213.929,240.901,214.022z"
					/>
				<path class="st2" d="M133.12,204.251c0.001-0.041,0.005-0.087,0.013-0.132C133.121,203.501,133.109,203.772,133.12,204.251z"/>
				<path class="st2" d="M216.453,252.76c0.017-0.022,0.028-0.035,0.044-0.055c-0.02,0.02-0.046,0.045-0.064,0.063L216.453,252.76z"
					/>
				<path class="st2" d="M215.017,254.416c0.539-0.773,0.913-1.15,1.416-1.647l-0.718,0.319L215.017,254.416z"/>
				<path class="st2" d="M242.034,203.824c-0.061-0.669-0.134-1.464-0.188-2.056c-0.14,0.368,0.149,2.712,0.119,3.896
					c-0.072,0-0.138-0.26-0.197-0.696c0.004-0.258,0.019-0.513,0.019-0.771c0-3.347-0.319-6.617-0.9-9.796
					c-0.083-0.514-0.18-1.066-0.297-1.641c-0.086-0.339-0.175-0.69-0.263-1.039c-0.143-0.608-0.294-1.212-0.458-1.812
					c-0.013-0.053-0.027-0.108-0.041-0.161c-0.121-0.497-0.24-0.981-0.352-1.44c-0.108-0.46-0.284-0.87-0.399-1.255
					c-0.094-0.206-0.21-0.47-0.309-0.689c-1.424-4.085-3.324-7.944-5.632-11.517c0.085,0.096,0.179,0.204,0.044-0.05
					c-0.037-0.01-0.131-0.116-0.256-0.281c-9.68-14.746-26.352-24.49-45.309-24.49c-1.236,0-2.458,0.056-3.674,0.138
					c-0.513-0.059-0.967-0.124-0.897-0.216c-0.807,0.103-1.869,0.209-3.068,0.327c-1.193,0.137-2.543,0.217-3.812,0.66
					c-0.581,0.1,0.471-0.199,0.155-0.174c-0.636,0.268-1.421,0.491-2.9,0.825l0.16-0.067c-1.023,0.295-1.931,0.444-2.718,0.754
					c-0.797,0.279-1.531,0.536-2.281,0.798c-0.749,0.265-1.525,0.507-2.377,0.832c-0.83,0.382-1.75,0.806-2.838,1.307l0.371-0.049
					c-0.934,0.433-1.146,0.494-1.594,0.678c-0.433,0.295,0.024,0.087,0.594-0.182c-2.002,0.952-5.361,3.158-6.086,3.415
					c-1.272,0.948,0.449-0.167-0.82,0.78l-0.379,0.192l-0.265,0.315c-0.84,0.609-1.316,0.851-1.385,0.826
					c0.207-0.145,0.564-0.444,0.778-0.61c-0.561,0.377-1.338,0.932-1.977,1.478c-0.614,0.577-1.139,1.084-1.32,1.229l1.158-0.992
					c-1.551,1.511-3.449,3.006-4.978,4.847c-0.786,0.896-1.631,1.737-2.326,2.654c-0.679,0.929-1.329,1.835-1.924,2.692l0.234-0.222
					c-0.456,0.653-0.783,1.103-1.047,1.459c-0.236,0.373-0.411,0.65-0.593,0.937c-0.37,0.566-0.766,1.163-1.654,2.67l0.055-0.115
					c-0.169,0.317-0.359,0.674-0.563,1.058c-0.18,0.403-0.38,0.831-0.59,1.26c0.326-0.826-0.834,1.442-0.394,0.365
					c-0.702,1.584-0.868,1.977-0.959,2.243c-0.041,0.129-0.075,0.236-0.138,0.436c-0.072,0.198-0.174,0.501-0.31,1.06l-0.265,0.459
					c-0.19,0.759-0.172,0.835-0.747,2.477c0.417-1.368-0.514,1.001-0.061-0.539c-0.347,0.849-0.683,1.582-0.853,2.271
					c-0.172,0.689-0.305,1.294-0.425,1.839c-0.24,1.089-0.428,1.93-0.78,2.715c-0.171,1.681,0.926-3.041,0.744-2.116
					c0.276-0.741-0.162,1.387-0.471,2.489c-0.185,1.148-0.619,1.902-1.06,4.823c0.036-0.289,0.039-0.313,0.075-0.601
					c-0.277,1.081-0.134,2.157-0.313,3.5c0.114,0.766-0.097,1.756,0.087,1.98l0.091-2.698c-0.013,0.766,0.019,1.51,0.025,2.374
					c0.003,0.432,0,0.894-0.02,1.404c0,0.51,0,1.065,0,1.7c-0.044-0.195-0.114-0.942-0.155-1.457
					c-0.04,0.738,0.072,1.417,0.032,2.183c-0.1-0.105-0.131-0.926-0.16-1.925c-0.001-0.999,0.092-2.174,0.049-2.999
					c-0.123,0.791-0.015,3.109-0.185,2.282c0.252,1.184-0.029,2.915,0.347,4.895l-0.126-0.122c0.043,0.316,0.133,0.974,0.21,1.54
					c-0.097-0.343-0.184-0.687-0.254-1.034c0.285,1.597,0.219,3.124,0.574,4.647c-0.286-1.605-0.262-1.793-0.207-1.748
					c0.052,0.045,0.144,0.321,0.102-0.366c0.732,3.611,0.105,2.57,0.867,5.792c-0.106-0.544-0.151-0.973,0.012-0.402
					c0.167,0.839,0.446,1.935,0.518,2.462c0.902,2.842-0.037-0.466,0.413,0.722c0.188,1.002,0.482,1.381,0.975,2.585l-0.108,0.049
					c1.138,3.194,0.515,0.763,1.623,3.597l-0.663-1.117l0.671,1.443l-0.254-0.246c0.377,0.781,0.675,1.268,0.914,1.778
					c0.253,0.503,0.466,1.022,0.869,1.769c-0.116-0.385,0.297,0.093,1.02,1.402c0.468,0.909-0.397-0.431,0.725,1.374
					c-0.306-0.374-0.686-0.764-1.04-1.629c-0.079-0.064-0.293-0.379-0.374-0.446c0.434,1.025,1.405,2.396,1.796,3.061
					c-0.152-0.255-0.331-0.563-0.412-0.727c0.564,0.862,1.225,1.659,1.834,2.486c0.235,0.428-0.009,0.13-0.252-0.167
					c0.352,0.517,0.671,0.821,1.223,1.554c-0.219-0.134-0.267-0.026-1.08-1.049c0.619,0.766,1.218,1.545,1.858,2.29
					c0.091,0.178,0.869,1.243,0.599,0.969c0.977,1.325,2.789,2.905,4.288,4.436c0.093,0.065,0.266,0.21,0.602,0.521
					c1.431,1.437,2.569,2.78,4.341,4.37l0.816,1.087c1.319,1.316-1.11-1.47,1.087,0.722c1.562,1.546,0.462,0.694,0.961,1.282
					c0.826,0.72,2.254,1.986,3.525,3.56c-0.48-0.466-0.818-0.867-1.253-1.314l0.979,1.19c-1.381-1.249-2.256-2.267-1.371-1.12
					c0.398-0.075,4.096,4.347,4.47,4.295l0.629,0.798c-0.199-0.21-0.232-0.245-0.429-0.453c1.201,1.571,1.176,0.911,2.822,2.849
					c0.568,0.68,0.941,1.175,0.511,0.749l1.37,1.423c0.376,0.434,0.239,0.367-0.135-0.065l1.993,2.255l-0.022-0.01
					c0.32,0.29,1.018,0.974,1.355,1.311c0.464,0.61-0.278-0.267-0.182-0.092l1.142,1.217c0.37,0.577-0.578-0.431-1.322-1.308
					c0.761,1.396,0.96,0.999,2.981,3.688l-1.048-1.174c0.512,0.894,1.354,1.79,2.392,3.237c-0.22-0.364-2.041-2.932-0.824-1.593
					c0.306,0.409,0.724,0.934,1.398,1.642c-0.088,0.085,0.55,0.793,1.302,1.717l-0.173,0.036c0.847,0.971,0.845,0.842,1.378,1.386
					c0.895,1.124,0.976,1.439,1.109,1.766c1.413,1.814-0.836-1.364,0.883,0.746c1.141,1.536,2.02,2.552,3.488,4.309
					c0.773,1.094-0.219-0.127,0.038,0.281l0.818,0.868c0.173,0.233,0.086,0.182,0.041,0.156c0.641,0.768,0.179-0.032,1.154,1.201
					c0.101,0.073,0.182,0.163,0.425,0.504c0.222,0.328,0.511,0.756,0.839,1.24c0.429-0.538,0.917-1.15,1.399-1.754
					c0.376-0.48,0.742-0.972,1.028-1.441c0.325-0.355-0.063,0.243,0.074,0.163c1.517-2.199,1.31-1.877,2.523-3.712l1.234-1.406
					c-0.944,1.004,0.032-0.46,0.903-1.732c-0.064,0.064-0.115,0.116-0.176,0.177c0.121-0.151,0.246-0.308,0.37-0.462
					c-0.066,0.098-0.125,0.183-0.194,0.285c0.064-0.064,0.132-0.131,0.198-0.197c0.065-0.115,0.121-0.214,0.181-0.32
					c0.247-0.308,0.501-0.623,0.759-0.943c0.042,0.024-0.113,0.302-0.313,0.633c-0.21,0.211-0.421,0.423-0.627,0.63
					c-0.303,0.534-0.573,1.043-0.422,1.002c0.085-0.136,0.264-0.386,0.468-0.655c-0.078,0.14-0.123,0.234-0.065,0.186
					c0.065-0.055,0.197-0.276,0.415-0.615l0.484-0.326l0.031-0.149l2.106-2.42c1.322-1.882,2.392-3.59,4.697-6.416
					c-0.486,0.774,0.035,0.285,0.119,0.421c-0.761,0.658-1.778,2.191-3.003,3.627c0.641-0.748,0.559-0.535,0.418-0.325l2.055-2.67
					c0.046,0.139,0.532-0.486,1.14-1.123c-0.622,0.343,1.516-2.005,2.355-3.092c0.118-0.01-0.033,0.294-1.141,1.545
					c1.346-1.272,1.334-1.997,2.657-3.246c-0.269,0.307-0.424,0.463-0.5,0.612c0.577-0.763,2.165-2.469,1.855-2.011l-0.269,0.306
					c1.81-2.016,5.533-6.114,5.666-6.543c0.038-0.001-0.057,0.431-0.138,0.58c0.651-0.931,1.297-1.87,1.949-2.804
					c0.335-0.355,0.674-0.711,1.013-1.068c0.274-0.006,0.664-0.08-0.37,1.1c0.464-0.449,1.039-1.002,1.935-2.027
					c-0.323,0.299-0.948,0.611-0.543,0.166c1.288-1.052,0.871-0.753,2.403-2.101c-0.485,0.448-0.181-0.279,0.562-1.01
					c-0.084,0.145,0.259,0.134,0.012,0.425l1.629-2.036c-0.421,0.495,0.084,0.248,0.546-0.106c-0.227,0.152,1.574-1.586,2.063-2.092
					l-0.833,0.73c1.065-1.018,1.515-1.599,1.959-2.177c0.444-0.578,0.897-1.139,1.859-2.233c-0.192,0.299-0.326,0.889,0.699-0.199
					c0.188-0.323,0.586-1.082,1.123-2.037c0.661-0.825,1.305-1.663,1.918-2.526c-0.646,1.226-1.42,2.578-2.054,3.444
					c0.743-0.822,0.288-0.164,1.297-1.482c0.331-0.336-0.149,0.367-0.521,0.854c0.328-0.393,0.651-0.79,0.959-1.2
					c0.385-0.518,0.802-1.014,1.161-1.552c-0.227,0.05,1.52-2.545,1.291-2.513c-0.328,0.618-0.707,1.205-1.073,1.801
					c-0.363,0.599-0.735,1.192-1.141,1.764c-0.233,0.035,1.088-2.202,2.487-4.527c0.418-0.558-0.018,0.594,0.058,0.575
					c0.065-0.168,0.39-0.73,0.694-1.288c0.293-0.565,0.59-1.111,0.668-1.212l-0.481,1.06c0.394-0.653,0.645-1.225,0.924-1.823
					c0.26-0.608,0.533-1.249,1.008-2.036c0.291-0.559,0.953-1.642,0.914-1.778c-0.35,0.524-0.705,0.705-0.907,0.626
					c0.289-0.649,0.571-1.301,0.835-1.963l0.028,0.109l0.144-0.386l-0.064-0.009c0.264-0.672,0.52-1.348,0.757-2.032
					c0.222-0.213-0.277,1.673,0.094,0.977c-0.032-0.053,0.129-0.604,0.181-0.838c0.241-0.617,0.048,0.307,0.473-1.069
					c-0.067-0.274,0.883-2.788,0.075-0.689c0.374-1.353,0.44-1.426,0.878-3.017c-0.149,0.32-0.111-0.457-0.002-1.418
					c0.128-0.582,0.251-1.165,0.36-1.754c0.011-0.03,0.022-0.062,0.031-0.086c0.128-0.704,0.242-1.327,0.348-1.907
					c0.082-0.583,0.158-1.123,0.233-1.656c0.176-1.065,0.23-2.119,0.34-3.452c0.059-0.243,0.131-1.535,0.192-0.982
					c-0.02-0.387-0.068-0.742-0.053-1.568c0.16-1.6-0.008,1.844,0.182,0.626C242.083,205.029,242.103,204.493,242.034,203.824z
					 M196.165,275.581c0.257-0.332,0.56-0.698,0.916-1.089C196.902,274.774,196.564,275.16,196.165,275.581z M163.865,155.232
					c-0.262,0.043-0.646,0.193-1.101,0.407C163.481,155.3,164.352,154.878,163.865,155.232z M173.796,269.73
					c0.43,0.301,0.639,0.639,1.091,1.25C174.587,270.65,173.952,270.025,173.796,269.73z"/>
				<path class="st2" d="M134.37,217.394c0.064,0.329,0.15,0.701,0.225,0.92C134.508,217.968,134.436,217.671,134.37,217.394z"/>
				<path class="st2" d="M230.55,238.3c-0.086,0.103-0.162,0.212-0.25,0.313C230.366,238.538,230.456,238.424,230.55,238.3z"/>
				<path class="st2" d="M194.721,277.681c-0.094,0.086-0.133,0.1-0.169,0.109C194.458,277.94,194.474,277.957,194.721,277.681z"/>
				<path class="st2" d="M149.574,243.64l-0.049-0.05c-0.033-0.022-0.052-0.032-0.066-0.035L149.574,243.64z"/>
				<path class="st2" d="M239.25,222.138c-0.154,0.4-0.269,0.614-0.343,0.756C238.923,222.924,239.024,222.753,239.25,222.138z"/>
				<path class="st2" d="M241.304,196.467l0.159,0.027l-0.174-0.748C241.33,196.183,241.307,196.217,241.304,196.467z"/>
				<path class="st2" d="M241.984,200.732c-0.05-0.163-0.168-1.785-0.127-0.291C241.907,200.599,242.097,202.792,241.984,200.732z"
					/>
				<path class="st2" d="M227.429,241.604c-0.781,0.861-1.243,1.264-0.745,1.005c1.41-1.321,0.238-0.401,1.472-1.646
					C228.417,240.585,227.154,241.987,227.429,241.604z"/>
				<path class="st2" d="M227.429,241.604c0.115-0.146,0.238-0.301,0.371-0.469C227.586,241.397,227.488,241.524,227.429,241.604z"
					/>
				<path class="st2" d="M176.817,273.816l0.089,0.048c-0.089-0.173-0.27-0.397-0.633-0.845L176.817,273.816z"/>
				<polygon class="st2" points="166.07,261.07 166.258,261.288 166.01,260.79 				"/>
				<path class="st2" d="M156.429,250.932c0.4,0.407,0.87,0.886,1.272,1.295C156.82,251.348,156.452,250.696,156.429,250.932z"/>
			</g>
		</g>
	</g>
	<g>
		<path class="st2" d="M182.453,202.473h2.449v1.476h-2.449v1.351h-2.125v-1.351h-11.397v-1.476h2.557v-4.376h-2.017v-1.477h0.09
			c-0.324-0.197-0.702-0.414-0.918-0.521c0.918-0.828,1.044-1.854,1.044-2.647v-1.098h6.788v2.971h-5.402
			c-0.144,0.468-0.342,0.9-0.648,1.296h6.932c-0.162-0.432-0.486-1.008-0.774-1.35c0.864-0.091,1.71-0.253,2.467-0.469
			c-0.504-0.396-0.937-0.846-1.278-1.368l0.576-0.162h-1.026v-1.135c-0.252-0.288-0.558-0.611-0.756-0.737
			c1.369-0.469,1.566-1.026,1.566-1.639v-0.883h4.916v1.477c0,0.324,0.018,0.486,0.288,0.486h0.612c0.216,0,0.702-0.036,0.918-0.108
			c0.036,0.433,0.054,0.847,0.108,1.278c-0.216,0.091-0.648,0.108-0.99,0.108h-0.738l0.99,0.36
			c-0.396,0.972-1.026,1.746-1.819,2.341c0.774,0.216,1.657,0.359,2.611,0.432c-0.342,0.342-0.756,0.937-0.972,1.368h0.414v1.477
			h-2.017V202.473z M172.045,190.301h-3.061v-1.08h3.061v-0.774h1.927v0.774h2.953v1.08h-2.953v0.522h2.485v1.062h-6.95v-1.062
			h2.539V190.301z M171.308,193.38v0.107c0,0.252-0.018,0.522-0.036,0.811h1.008v-0.918H171.308z M173.558,198.097v0.612h6.77
			v-0.612H173.558z M173.558,200.6h6.77v-0.63h-6.77V200.6z M180.328,202.473v-0.612h-6.77v0.612H180.328z M174.836,193.38h-1.062
			v0.918h1.062V193.38z M183.659,196.62c-1.098-0.18-2.071-0.45-2.917-0.828c-0.864,0.36-1.8,0.631-2.845,0.828H183.659z
			 M179.734,190.265c-0.09,0.685-0.378,1.332-1.098,1.872h4.177l0.108-0.018h-0.054c-1.314,0-1.53-0.594-1.53-1.765v-0.09H179.734z
			 M179.482,193.271c0.288,0.342,0.684,0.63,1.152,0.864c0.45-0.234,0.828-0.522,1.152-0.864H179.482z"/>
		<path class="st2" d="M206.627,194.027v1.909h-16.15v-1.909h3.943c-0.162-0.611-0.432-1.314-0.72-1.872l1.747-0.342h-3.961v-1.891
			h6.068c-0.144-0.45-0.36-0.919-0.558-1.297l2.233-0.36c0.306,0.505,0.576,1.117,0.756,1.657h5.797v1.891h-3.727l1.657,0.359
			c-0.306,0.667-0.612,1.297-0.9,1.854H206.627z M192.709,197.034h11.866v8.265h-2.251v-0.612h-7.472v0.631h-2.143V197.034z
			 M194.852,198.817v1.188h7.472v-1.188H194.852z M202.324,202.923v-1.297h-7.472v1.297H202.324z M195.842,191.813
			c0.432,0.684,0.792,1.566,0.918,2.214h3.709c0.288-0.666,0.612-1.512,0.81-2.214H195.842z"/>
		<path class="st2" d="M174.278,222.917l0.486,1.908c-1.873,0.919-3.889,1.891-5.528,2.629l-0.864-2.16
			c0.666-0.234,1.458-0.522,2.341-0.883v-4.771h-1.945v-2.034h1.945v-3.907h1.98v3.907h1.674v2.034h-1.674v3.943L174.278,222.917z
			 M182.309,228.03c0.972,0,1.152-0.414,1.314-2.251c0.468,0.324,1.278,0.667,1.873,0.774c-0.288,2.521-0.9,3.386-3.007,3.386
			h-3.835c-2.431,0-3.133-0.667-3.133-3.134v-4.645l-0.972,0.414l-0.792-1.891l1.764-0.757v-4.735h2.053v3.854l1.495-0.63v-4.97
			h1.999v4.105l1.962-0.847l1.621,0.522l-0.072,0.324c-0.108,2.502-0.36,5.779-0.792,7.939l-1.747-0.485
			c0.198-1.459,0.342-3.745,0.414-5.87l-1.386,0.612v6.355h-1.999v-5.491l-1.495,0.648v5.563c0,1.044,0.162,1.206,1.26,1.206
			H182.309z"/>
		<path class="st2" d="M196.365,227.4c-1.207,1.026-3.133,2.034-4.7,2.646c-0.342-0.414-1.098-1.152-1.566-1.494
			c1.584-0.45,3.331-1.171,4.303-1.944L196.365,227.4z M206.43,221.854h-15.881v-1.692h6.824c-0.09-0.18-0.198-0.342-0.306-0.486
			l0.828-0.252h-5.492v-5.401h12.226v5.401h-5.419c0.162,0.234,0.324,0.486,0.45,0.738h6.77V221.854z M199.642,226.428v2.017
			c0,0.919-0.216,1.333-0.918,1.566c-0.702,0.234-1.638,0.234-2.899,0.234c-0.108-0.522-0.342-1.17-0.594-1.639
			c0.738,0.036,1.693,0.036,1.927,0.019c0.252-0.019,0.342-0.072,0.342-0.271v-1.927h-4.664v-3.925h11.523v3.925H199.642z
			 M194.456,216.075h8.03v-0.738h-8.03V216.075z M194.456,218.092h8.03v-0.774h-8.03V218.092z M194.888,224.97h7.31v-1.009h-7.31
			V224.97z M201.802,226.662c1.512,0.504,3.601,1.404,4.717,2.089l-1.495,1.314c-1.008-0.667-3.061-1.639-4.609-2.251
			L201.802,226.662z"/>
	</g>
	<g>
		<g>
			<path class="st2" d="M65.538,334.252c0,0-0.015,0.6-0.03,0.824c-0.225,6.345-0.45,8.685-0.975,9.39
				c-0.345,0.525-0.675,0.705-1.155,0.795c-0.42,0.091-1.05,0.091-1.71,0.075c-0.03-0.54-0.225-1.335-0.51-1.845
				c0.525,0.045,1.005,0.06,1.275,0.06c0.225,0,0.36-0.06,0.525-0.284c0.33-0.436,0.555-2.295,0.735-7.26h-1.47
				c-0.18,3.779-0.735,7.229-2.52,9.614c-0.315-0.435-0.915-1.02-1.41-1.275c1.59-2.039,2.04-5.039,2.16-8.339h-1.755v-1.74h1.8
				c0.015-0.855,0.015-1.74,0.015-2.61h1.8c0,0.87-0.015,1.755-0.03,2.61L65.538,334.252z M71.868,333.321v11.88h-1.86v-0.93h-2.01
				v1.034h-1.785v-11.984H71.868z M70.008,342.546v-7.515h-2.01v7.515H70.008z"/>
			<path class="st2" d="M84.003,332.017c-0.075,0.075-0.165,0.165-0.24,0.24c1.44,0.915,3.9,1.725,6,2.13
				c-0.33,0.314-0.795,0.915-1.005,1.319c-0.84-0.194-1.74-0.479-2.61-0.81v0.39h-6.839v-0.42c-0.855,0.33-1.785,0.63-2.7,0.87
				c-0.195-0.359-0.645-0.975-0.945-1.26c2.79-0.675,5.535-1.77,6.915-3.135L84.003,332.017z M83.568,342.336h5.76v1.215h-5.76
				v0.495c0,0.811-0.195,1.155-0.795,1.365c-0.585,0.21-1.41,0.225-2.55,0.21c-0.09-0.42-0.345-0.99-0.57-1.365
				c0.72,0.03,1.605,0.03,1.815,0.03c0.24-0.015,0.33-0.075,0.33-0.285v-0.45h-5.745v-1.215h5.745v-0.555h-4.83v-1.2h4.83v-0.524
				c-1.425,0.06-2.88,0.074-4.23,0.06c-0.03-0.314-0.165-0.795-0.3-1.08c3.315,0.03,7.275-0.12,9.39-0.495l1.155,0.976
				c-1.215,0.21-2.685,0.359-4.245,0.45v0.614h4.935v1.2h-4.935V342.336z M87.408,338.481h-9.45v-2.7h9.45V338.481z M85.638,336.816
				h-6.015v0.615h6.015V336.816z M84.618,334.252c-0.705-0.346-1.38-0.721-1.965-1.096c-0.585,0.391-1.23,0.766-1.92,1.096H84.618z"
				/>
			<path class="st2" d="M101.312,337.477c0.99,2.925,2.805,5.279,5.61,6.42c-0.45,0.375-1.035,1.17-1.32,1.68
				c-2.715-1.275-4.455-3.465-5.625-6.359c-0.81,2.505-2.43,4.845-5.61,6.374c-0.285-0.495-0.81-1.14-1.335-1.515
				c3.435-1.53,4.86-4.02,5.445-6.6h-5.16v-1.845h5.46c0.15-1.41,0.135-2.775,0.15-4.005h1.95c-0.015,1.229-0.03,2.609-0.18,4.005
				h5.895v1.845H101.312z"/>
			<path class="st2" d="M123.948,342.876h-5.73v1.08c0,0.795-0.18,1.186-0.795,1.425c-0.615,0.21-1.44,0.226-2.565,0.226
				c-0.075-0.48-0.33-1.08-0.54-1.5c0.705,0.029,1.605,0.029,1.83,0.015c0.24,0,0.315-0.045,0.315-0.225v-1.021h-6.075v-1.41h6.075
				v-0.435c0.54-0.21,1.11-0.54,1.65-0.87h-4.815v-1.245h6.525l0.375-0.09l1.005,0.915c-0.825,0.601-1.845,1.215-2.865,1.725h5.61
				V342.876z M112.353,340.057h-1.695v-3.075h1.125l-0.27-4.455c0.9-0.149,2.235-0.555,3.03-0.84l0.72,1.035
				c-0.585,0.225-1.335,0.42-2.04,0.57l0.03,0.435h1.905v1.11h-1.845l0.03,0.51h1.845v0.765c0.36-0.18,0.72-0.359,1.05-0.569
				c-0.285-0.181-0.57-0.346-0.84-0.495l0.825-0.705c0.3,0.149,0.615,0.33,0.93,0.51c0.225-0.21,0.435-0.42,0.6-0.63l1.17,0.345
				c-0.225,0.315-0.495,0.615-0.795,0.9c0.36,0.239,0.675,0.465,0.9,0.689l-0.885,0.78c-0.225-0.225-0.525-0.465-0.87-0.735
				c-0.405,0.301-0.81,0.556-1.215,0.78h4.86l0.06-0.525h-1.77v-1.109h1.875l0.03-0.51h-1.83v-1.11h1.905l0.03-0.495h-2.025v-1.125
				h3.765c-0.075,1.575-0.18,3.48-0.315,4.875h1.11v3.075h-1.77v-1.785h-9.629V340.057z M113.433,336.981h2.43
				c-0.165-0.195-0.45-0.479-0.675-0.69v0.165h-1.785L113.433,336.981z M118.083,334.222c-0.195-0.195-0.48-0.405-0.78-0.63
				c-0.405,0.3-0.81,0.555-1.215,0.75c-0.21-0.21-0.645-0.601-0.93-0.795c0.39-0.15,0.78-0.36,1.14-0.585
				c-0.285-0.165-0.54-0.315-0.81-0.45l0.795-0.69c0.285,0.136,0.6,0.301,0.915,0.48c0.195-0.195,0.39-0.39,0.54-0.6l1.17,0.345
				c-0.21,0.285-0.465,0.569-0.75,0.825c0.3,0.21,0.57,0.42,0.78,0.6L118.083,334.222z"/>
			<path class="st2" d="M135.753,337.717c-0.585,0.42-1.155,0.81-1.77,1.199h5.445v6.66h-1.86v-0.39h-5.16v0.449h-1.785v-4.904
				c-0.75,0.33-1.53,0.66-2.295,0.945c-0.225-0.391-0.75-1.11-1.095-1.471c1.965-0.614,3.855-1.47,5.58-2.489h-5.1v-1.575h4.815
				v-1.365h-3.525v-1.545h3.525v-1.62h1.77v1.62h3.255v0.735c0.57-0.615,1.08-1.245,1.545-1.905l1.53,0.78
				c-0.855,1.185-1.86,2.295-2.955,3.3h3.479v1.575H135.753z M137.568,340.371h-5.16v0.96h5.16V340.371z M137.568,343.701v-1.02
				h-5.16v1.02H137.568z M134.298,336.142h0.825c0.57-0.436,1.11-0.885,1.62-1.365h-2.445V336.142z"/>
			<path class="st2" d="M145.548,333.217h2.46l1.89,5.189c0.24,0.69,0.45,1.425,0.675,2.146h0.075
				c0.24-0.721,0.435-1.455,0.675-2.146l1.845-5.189h2.459v11.1h-2.025v-4.635c0-1.05,0.165-2.595,0.27-3.646h-0.06l-0.9,2.61
				l-1.71,4.665h-1.275l-1.725-4.665l-0.885-2.61h-0.06c0.105,1.051,0.285,2.596,0.285,3.646v4.635h-1.995V333.217z"/>
			<path class="st2" d="M160.338,341.166v-5.249h2.205v4.964c0,1.306,0.36,1.756,1.17,1.756c0.69,0,1.14-0.301,1.71-1.051v-5.669
				h2.205v8.399h-1.8l-0.165-1.2h-0.06c-0.72,0.854-1.53,1.41-2.685,1.41C161.118,344.526,160.338,343.267,160.338,341.166z"/>
			<path class="st2" d="M172.233,335.917h1.8l0.15,1.484h0.06c0.615-1.095,1.515-1.695,2.385-1.695c0.465,0,0.735,0.075,0.99,0.181
				l-0.39,1.904c-0.285-0.09-0.525-0.135-0.87-0.135c-0.66,0-1.455,0.436-1.935,1.65v5.01h-2.19V335.917z"/>
			<path class="st2" d="M181.023,335.917h1.8l0.15,1.484h0.06c0.615-1.095,1.515-1.695,2.385-1.695c0.465,0,0.735,0.075,0.99,0.181
				l-0.39,1.904c-0.285-0.09-0.525-0.135-0.87-0.135c-0.66,0-1.455,0.436-1.935,1.65v5.01h-2.19V335.917z"/>
			<path class="st2" d="M188.928,342.036c0-1.8,1.455-2.745,4.83-3.104c-0.03-0.825-0.39-1.455-1.425-1.455
				c-0.78,0-1.53,0.345-2.31,0.795l-0.795-1.455c0.99-0.615,2.19-1.11,3.51-1.11c2.13,0,3.225,1.275,3.225,3.705v4.905h-1.8
				l-0.165-0.9h-0.045c-0.735,0.63-1.575,1.11-2.535,1.11C189.918,344.526,188.928,343.461,188.928,342.036z M193.758,341.977
				v-1.695c-2.04,0.271-2.73,0.825-2.73,1.575c0,0.66,0.465,0.944,1.11,0.944C192.768,342.801,193.233,342.501,193.758,341.977z"/>
			<path class="st2" d="M200.043,347.526l0.405-1.695c0.15,0.045,0.39,0.105,0.585,0.105c0.855,0,1.335-0.54,1.575-1.275l0.15-0.495
				l-3.27-8.249h2.22l1.335,3.899c0.255,0.75,0.465,1.56,0.705,2.37h0.075c0.195-0.78,0.405-1.59,0.6-2.37l1.155-3.899h2.115
				l-2.985,8.654c-0.735,1.979-1.635,3.12-3.51,3.12C200.703,347.691,200.373,347.631,200.043,347.526z"/>
			<path class="st2" d="M216.422,342.906l1.275-1.53c0.795,0.735,1.845,1.23,2.82,1.23c1.155,0,1.77-0.495,1.77-1.275
				c0-0.825-0.675-1.08-1.665-1.5l-1.485-0.63c-1.125-0.465-2.25-1.364-2.25-2.984c0-1.815,1.59-3.21,3.84-3.21
				c1.29,0,2.58,0.51,3.48,1.425l-1.125,1.395c-0.705-0.585-1.44-0.915-2.355-0.915c-0.975,0-1.604,0.436-1.604,1.17
				c0,0.796,0.795,1.08,1.74,1.455l1.455,0.615c1.35,0.555,2.235,1.41,2.235,3.015c0,1.815-1.515,3.36-4.08,3.36
				C218.987,344.526,217.502,343.941,216.422,342.906z"/>
			<path class="st2" d="M228.062,340.131c0-2.805,2.01-4.425,4.29-4.425c1.035,0,1.83,0.405,2.445,0.931l-1.05,1.425
				c-0.42-0.36-0.81-0.555-1.29-0.555c-1.275,0-2.145,1.034-2.145,2.624c0,1.575,0.87,2.596,2.085,2.596
				c0.6,0,1.17-0.285,1.635-0.676l0.87,1.455c-0.795,0.705-1.815,1.021-2.745,1.021
				C229.832,344.526,228.062,342.906,228.062,340.131z"/>
			<path class="st2" d="M238.742,332.347h2.19v3.015l-0.09,1.575c0.675-0.63,1.5-1.23,2.64-1.23c1.815,0,2.595,1.261,2.595,3.375
				v5.235h-2.205v-4.965c0-1.29-0.36-1.755-1.185-1.755c-0.69,0-1.125,0.33-1.755,0.944v5.775h-2.19V332.347z"/>
			<path class="st2" d="M250.172,342.036c0-1.8,1.455-2.745,4.83-3.104c-0.03-0.825-0.39-1.455-1.425-1.455
				c-0.78,0-1.53,0.345-2.31,0.795l-0.795-1.455c0.99-0.615,2.19-1.11,3.51-1.11c2.13,0,3.225,1.275,3.225,3.705v4.905h-1.8
				l-0.165-0.9h-0.045c-0.735,0.63-1.575,1.11-2.535,1.11C251.162,344.526,250.172,343.461,250.172,342.036z M255.002,341.977
				v-1.695c-2.04,0.271-2.73,0.825-2.73,1.575c0,0.66,0.465,0.944,1.11,0.944C254.012,342.801,254.477,342.501,255.002,341.977z"/>
			<path class="st2" d="M266.192,334.057c-0.285-0.105-0.615-0.18-0.885-0.18c-0.66,0-1.02,0.39-1.02,1.319v0.721h1.575v1.739
				h-1.575v6.66h-2.205v-6.66h-1.125v-1.635l1.125-0.09v-0.69c0-1.755,0.81-3.104,2.925-3.104c0.645,0,1.215,0.15,1.59,0.3
				L266.192,334.057z"/>
			<path class="st2" d="M268.833,340.131c0-2.729,1.905-4.425,3.915-4.425c2.31,0,3.51,1.695,3.51,4.021
				c0,0.404-0.045,0.81-0.105,1.005h-5.175c0.18,1.38,1.08,2.1,2.325,2.1c0.69,0,1.29-0.21,1.89-0.585l0.75,1.351
				c-0.825,0.569-1.89,0.93-2.94,0.93C270.662,344.526,268.833,342.892,268.833,340.131z M274.367,339.276
				c0-1.14-0.51-1.86-1.59-1.86c-0.885,0-1.665,0.631-1.83,1.86H274.367z"/>
			<path class="st2" d="M280.322,335.917h1.8l0.15,1.484h0.06c0.615-1.095,1.515-1.695,2.385-1.695c0.465,0,0.735,0.075,0.99,0.181
				l-0.39,1.904c-0.285-0.09-0.525-0.135-0.87-0.135c-0.66,0-1.455,0.436-1.935,1.65v5.01h-2.19V335.917z"/>
			<path class="st2" d="M291.707,340.041v3.495c0,0.825-0.135,1.26-0.585,1.53c-0.45,0.3-1.11,0.359-2.07,0.345
				c-0.045-0.435-0.24-1.17-0.465-1.635c0.555,0.015,1.065,0.015,1.245,0c0.18,0,0.255-0.061,0.255-0.255v-3
				c-0.495,0.135-0.945,0.27-1.38,0.39l-0.405-1.725c0.51-0.105,1.11-0.271,1.785-0.436v-2.654h-1.62v-1.65h1.62v-2.835h1.62v2.835
				h1.5v1.65h-1.5v2.22l1.35-0.36l0.24,1.605L291.707,340.041z M298.532,343.821c0.345,0.03,0.675,0.045,1.05,0.045
				c0.51,0,2.37,0,3.015-0.015c-0.21,0.359-0.42,1.109-0.48,1.56h-2.61c-1.965,0-3.48-0.36-4.5-2.175
				c-0.39,0.945-0.915,1.74-1.575,2.354c-0.27-0.285-0.945-0.84-1.305-1.064c1.245-0.99,1.86-2.655,2.085-4.695l1.62,0.195
				c-0.075,0.54-0.165,1.05-0.285,1.515c0.33,0.87,0.765,1.41,1.305,1.755v-3.914h-3.525v-1.44h8.865v1.44h-3.66v1.319h2.865v1.396
				h-2.865V343.821z M301.442,337.251h-7.38v-5.174h7.38V337.251z M299.732,333.321h-4.035v0.75h4.035V333.321z M299.732,335.227
				h-4.035v0.765h4.035V335.227z"/>
			<path class="st2" d="M318.797,339.097v6.51h-2.01v-0.811h-10.304v-5.685h2.01v3.915h3.15v-4.71h-4.365v-5.444h1.89v3.72h2.475
				v-4.98h1.98v4.98h2.58v-3.72h1.98v5.444h-4.56v4.71h3.165v-3.93H318.797z"/>
			<path class="st2" d="M63.813,385.496h-5.4v-1.409h2.175c-0.18-0.57-0.495-1.32-0.78-1.905l1.5-0.525
				c0.345,0.646,0.735,1.485,0.915,2.04l-1.005,0.391h2.595V385.496z M63.453,393.371c0.375-0.825,0.615-1.935,0.735-2.939
				l1.245,0.359c-0.165,1.186-0.42,2.595-0.945,3.45l-1.035-0.435v1.02h-3.15v0.6h-1.47v-5.13h4.62V393.371z M63.498,387.536h-4.65
				v-1.35h4.65V387.536z M58.848,388.227h4.65v1.335h-4.65V388.227z M61.968,391.706h-1.665v1.726h1.665V391.706z M68.853,383.622
				c-0.3,2.609-1.065,4.8-3.9,6.119c-0.195-0.405-0.63-0.975-0.99-1.26c1.095-0.465,1.83-1.08,2.31-1.8
				c-0.57-0.555-1.44-1.305-2.07-1.86l0.945-0.944c0.525,0.42,1.215,0.96,1.77,1.439c0.165-0.524,0.27-1.095,0.345-1.694h-2.88v-1.5
				h7.65c0,0-0.015,0.479-0.045,0.675c-0.15,3.734-0.33,5.189-0.735,5.685c-0.285,0.39-0.63,0.525-1.095,0.6
				c-0.405,0.061-1.065,0.061-1.74,0.03c-0.045-0.465-0.225-1.11-0.465-1.53c0.57,0.045,1.125,0.061,1.395,0.061
				c0.195,0,0.33-0.03,0.48-0.18c0.21-0.271,0.36-1.306,0.48-3.84H68.853z M68.823,393.911c0.435,0,0.51-0.24,0.555-1.814
				c0.33,0.239,0.96,0.465,1.365,0.569c-0.15,2.085-0.555,2.625-1.755,2.625h-1.65c-1.47,0-1.83-0.45-1.83-1.859v-3.271h1.53v3.255
				c0,0.436,0.075,0.495,0.525,0.495H68.823z M67.833,388.901c0.66,0.675,1.365,1.59,1.665,2.22l-1.11,0.766
				c-0.3-0.615-0.975-1.591-1.59-2.295L67.833,388.901z M71.223,389.802c0.555,1.02,1.125,2.34,1.305,3.209l-1.305,0.48
				c-0.15-0.854-0.66-2.205-1.2-3.255L71.223,389.802z"/>
			<path class="st2" d="M89.283,390.356c-0.255,2.91-0.51,4.17-0.975,4.649c-0.33,0.375-0.66,0.495-1.125,0.556
				c-0.39,0.045-1.065,0.06-1.785,0.029c-0.03-0.479-0.21-1.14-0.48-1.59c0.6,0.075,1.17,0.075,1.455,0.075
				c0.21,0,0.345-0.03,0.495-0.165c0.24-0.24,0.435-0.99,0.615-2.7h-8.924c-0.24,0.181-0.495,0.346-0.765,0.511l1.365,0.435
				c-0.3,1.29-0.81,2.58-1.755,3.39l-1.395-0.885c0.795-0.675,1.35-1.725,1.62-2.835c-0.36,0.225-0.735,0.42-1.11,0.615
				c-0.21-0.45-0.63-1.155-0.93-1.561c2.475-1.14,4.365-2.999,5.745-5.145h-4.815v-1.56h2.52c-0.225-0.585-0.585-1.32-0.945-1.905
				l1.545-0.6c0.465,0.675,0.945,1.575,1.155,2.189l-0.75,0.315h2.175c0.42-0.84,0.765-1.695,1.035-2.565l1.785,0.495
				c-0.255,0.705-0.54,1.396-0.855,2.07h2.94c-0.15,0.899-0.375,1.92-0.57,2.745h1.71c-0.165,0.899-0.36,1.949-0.54,2.76h1.605
				L89.283,390.356z M81.123,392.142c0.255,0.869,0.42,2.01,0.405,2.76l-1.545,0.194c0.045-0.734-0.075-1.89-0.3-2.774
				L81.123,392.142z M81.498,388.467c-0.345,0.42-0.72,0.824-1.125,1.215h5.729c0.09-0.36,0.18-0.78,0.27-1.215H81.498z
				 M83.343,391.871c0.315,0.75,0.615,1.755,0.72,2.43l-1.425,0.36c-0.09-0.675-0.39-1.695-0.69-2.49L83.343,391.871z
				 M83.373,385.736c-0.225,0.405-0.465,0.795-0.72,1.186h2.295c0.09-0.36,0.18-0.766,0.255-1.186H83.373z M85.038,393.881
				c-0.12-0.524-0.51-1.395-0.885-2.024l1.23-0.42c0.405,0.6,0.825,1.425,0.975,1.979L85.038,393.881z"/>
			<path class="st2" d="M104.522,393.281h2.04v1.229h-2.04v1.125h-1.77v-1.125h-9.495v-1.229h2.13v-3.645h-1.68v-1.23h0.075
				c-0.27-0.165-0.585-0.345-0.765-0.435c0.765-0.69,0.87-1.545,0.87-2.205v-0.915h5.655v2.475h-4.5
				c-0.12,0.391-0.285,0.75-0.54,1.08h5.775c-0.135-0.359-0.405-0.84-0.645-1.125c0.72-0.075,1.425-0.21,2.055-0.39
				c-0.42-0.33-0.78-0.705-1.065-1.14l0.48-0.136h-0.855v-0.944c-0.21-0.24-0.465-0.511-0.63-0.615
				c1.14-0.39,1.305-0.855,1.305-1.365v-0.734h4.095v1.229c0,0.271,0.015,0.405,0.24,0.405h0.51c0.18,0,0.585-0.03,0.765-0.09
				c0.03,0.359,0.045,0.705,0.09,1.064c-0.18,0.075-0.54,0.09-0.825,0.09h-0.615l0.825,0.301c-0.33,0.81-0.855,1.454-1.515,1.949
				c0.645,0.181,1.38,0.3,2.175,0.36c-0.285,0.285-0.63,0.78-0.81,1.14h0.345v1.23h-1.68V393.281z M95.853,383.142h-2.55v-0.9h2.55
				v-0.645h1.605v0.645h2.46v0.9h-2.46v0.435h2.07v0.886h-5.79v-0.886h2.115V383.142z M95.238,385.706v0.091
				c0,0.21-0.015,0.435-0.03,0.675h0.84v-0.766H95.238z M97.113,389.637v0.51h5.64v-0.51H97.113z M97.113,391.722h5.64v-0.525h-5.64
				V391.722z M102.753,393.281v-0.51h-5.64v0.51H102.753z M98.178,385.706h-0.885v0.766h0.885V385.706z M105.527,388.406
				c-0.915-0.149-1.725-0.375-2.43-0.689c-0.72,0.3-1.5,0.524-2.37,0.689H105.527z M102.258,383.111
				c-0.075,0.57-0.315,1.11-0.915,1.561h3.48l0.09-0.016h-0.045c-1.095,0-1.275-0.495-1.275-1.47v-0.075H102.258z M102.048,385.616
				c0.24,0.285,0.57,0.525,0.96,0.721c0.375-0.195,0.69-0.436,0.96-0.721H102.048z"/>
			<path class="st2" d="M123.917,386.246v1.591h-13.455v-1.591h3.285c-0.135-0.51-0.36-1.095-0.6-1.56l1.455-0.285h-3.3v-1.575
				h5.055c-0.12-0.375-0.3-0.765-0.465-1.079l1.86-0.301c0.255,0.42,0.48,0.931,0.63,1.38h4.83v1.575h-3.104l1.38,0.3
				c-0.255,0.556-0.51,1.08-0.75,1.545H123.917z M112.323,388.751h9.884v6.885h-1.875v-0.51h-6.225v0.525h-1.785V388.751z
				 M114.108,390.236v0.99h6.225v-0.99H114.108z M120.333,393.656v-1.08h-6.225v1.08H120.333z M114.933,384.401
				c0.36,0.57,0.66,1.305,0.765,1.845h3.09c0.24-0.555,0.51-1.26,0.675-1.845H114.933z"/>
			<path class="st2" d="M141.212,384.417h-1.725v8.939c0,1.08-0.255,1.604-0.96,1.904c-0.75,0.301-1.86,0.33-3.39,0.33
				c-0.105-0.524-0.465-1.409-0.735-1.89c1.065,0.06,2.37,0.045,2.73,0.045c0.345,0,0.48-0.104,0.48-0.42v-8.909h-9.915v-1.801
				h13.514V384.417z M130.818,391.901v1.14h-1.74v-6.944h6.36v5.805H130.818z M130.818,387.791v2.4h2.85v-2.4H130.818z"/>
			<path class="st2" d="M151.113,391.392c-1.98,0.885-4.2,1.83-5.895,2.534l-0.6-1.904c0.57-0.195,1.245-0.436,1.995-0.735
				l-0.3-8.76l1.86-0.075l0.27,8.115c0.75-0.315,1.515-0.63,2.265-0.93L151.113,391.392z M157.323,395.606
				c-0.555-0.976-1.695-2.355-2.805-3.615c-1.095,1.56-2.58,2.76-4.56,3.645c-0.255-0.39-0.99-1.199-1.425-1.574
				c4.755-1.8,6.3-5.43,6.855-11.595l1.965,0.18c-0.315,3.075-0.855,5.58-1.83,7.62c1.245,1.29,2.64,2.805,3.33,3.854
				L157.323,395.606z M151.698,387.911c-0.375-1.034-1.335-2.609-2.235-3.72l1.62-0.81c0.975,1.095,1.92,2.564,2.37,3.6
				L151.698,387.911z"/>
			<path class="st2" d="M175.232,392.051c-0.6,0.405-1.29,0.825-1.935,1.155c0.75,0.42,1.62,0.735,2.625,0.915
				c-0.345,0.36-0.81,1.021-1.035,1.485c-2.61-0.646-4.245-2.085-5.25-4.29h-1.53v2.34l2.52-0.48c-0.09,0.436-0.15,1.11-0.15,1.471
				c-3.3,0.72-3.825,0.84-4.14,1.05v0.015c-0.09-0.42-0.435-1.125-0.645-1.439c0.315-0.21,0.765-0.63,0.765-1.396v-1.56h-1.245v-1.5
				h2.19v-1.035h-1.875v-1.484h1.875v-1.035h-2.19v0.435c0,2.61-0.24,6.51-1.815,8.97c-0.36-0.285-1.14-0.75-1.59-0.915
				c1.485-2.31,1.605-5.67,1.605-8.055v-4.439h11.535v4.005h-2.025v1.035h2.16v1.484h-2.16v1.035h2.805v1.5h-1.575L175.232,392.051z
				 M165.213,384.746h7.935v-0.989h-7.935V384.746z M169.038,387.297h2.235v-1.035h-2.235V387.297z M169.038,389.816h2.235v-1.035
				h-2.235V389.816z M171.318,391.316c0.225,0.375,0.51,0.705,0.825,1.005c0.51-0.3,1.065-0.675,1.5-1.005H171.318z"/>
			<path class="st2" d="M184.893,391.932c-1.89,0.555-3.9,1.14-5.445,1.59l-0.45-1.681c0.6-0.135,1.335-0.329,2.145-0.539v-3.016
				h-1.665v-1.635h1.665v-2.609h-1.8v-1.65h5.25v1.65h-1.725v2.609h1.56v1.635h-1.56v2.565c0.585-0.165,1.2-0.33,1.785-0.495
				L184.893,391.932z M191.553,394.017c0.27,0,0.33-0.24,0.36-1.74c0.345,0.27,1.035,0.555,1.485,0.66
				c-0.15,2.055-0.54,2.609-1.65,2.609h-1.125c-1.38,0-1.68-0.51-1.68-2.024v-2.94h-0.915c-0.27,2.445-0.96,4.186-4.155,5.13
				c-0.18-0.435-0.63-1.125-0.99-1.47c2.715-0.675,3.195-1.905,3.39-3.66h-1.095v-8.399h7.32v8.399h-1.845v2.94
				c0,0.435,0.03,0.495,0.285,0.495H191.553z M186.843,384.566h3.915v-0.93h-3.915V384.566z M186.843,386.847h3.915v-0.93h-3.915
				V386.847z M186.843,389.126h3.915v-0.93h-3.915V389.126z"/>
			<path class="st2" d="M210.348,387.507v1.935h-13.8v-1.935H210.348z"/>
			<path class="st2" d="M218.088,382.151c-0.33,0.945-0.72,1.905-1.17,2.851v10.634h-1.695v-7.68c-0.33,0.466-0.66,0.9-1.005,1.29
				c-0.135-0.435-0.57-1.484-0.84-1.935c1.245-1.365,2.385-3.51,3.06-5.67L218.088,382.151z M227.252,382.377v13.094h-1.695v-0.734
				h-5.64v0.87h-1.62v-13.229H227.252z M225.558,393.191v-9.27h-5.64v9.27H225.558z M223.397,387.057v1.29h1.44v4.02h-4.155v-4.02
				h1.335v-1.29h-1.725v-1.29h1.725v-1.53h1.38v1.53h1.815v1.29H223.397z M223.503,389.576h-1.53v1.575h1.53V389.576z"/>
			<path class="st2" d="M235.713,389.486l0.405,1.59c-1.56,0.765-3.24,1.575-4.604,2.19l-0.72-1.801
				c0.555-0.194,1.215-0.435,1.95-0.734v-3.975h-1.62v-1.695h1.62v-3.255h1.65v3.255h1.395v1.695h-1.395v3.284L235.713,389.486z
				 M242.403,393.746c0.81,0,0.96-0.345,1.095-1.875c0.39,0.271,1.065,0.555,1.56,0.646c-0.24,2.1-0.75,2.819-2.505,2.819h-3.195
				c-2.025,0-2.61-0.555-2.61-2.609v-3.87l-0.81,0.345l-0.66-1.575l1.47-0.63v-3.944h1.71v3.21l1.245-0.525v-4.14h1.665v3.42
				l1.635-0.705l1.35,0.435l-0.06,0.271c-0.09,2.085-0.3,4.814-0.66,6.614l-1.455-0.404c0.165-1.215,0.285-3.12,0.345-4.89
				l-1.155,0.51v5.295h-1.665v-4.575l-1.245,0.54v4.635c0,0.87,0.135,1.005,1.05,1.005H242.403z"/>
			<path class="st2" d="M248.043,395.021c0.54-0.63,0.885-1.665,1.02-2.655l1.2,0.36c-0.18,1.064-0.435,2.204-1.065,2.895
				L248.043,395.021z M248.373,390.521c0.75-0.016,1.665-0.045,2.67-0.075v-0.72h-2.31v-1.351h2.31v-0.659h-2.34v-5.655h6.345v5.655
				h-2.43v0.659h2.4v1.351h-2.4v0.66c0.87-0.03,1.77-0.075,2.64-0.105l-0.03,1.38c-2.43,0.15-4.995,0.285-6.81,0.36L248.373,390.521
				z M250.038,386.517h1.26v-3.255h-1.26v0.63l0.705-0.21c0.24,0.689,0.435,1.575,0.48,2.16l-0.795,0.239
				c-0.03-0.569-0.18-1.409-0.39-2.084V386.517z M251.463,392.321c0.18,0.84,0.3,1.905,0.315,2.625l-1.155,0.135
				c0.03-0.705-0.09-1.785-0.255-2.625L251.463,392.321z M252.933,392.186c0.285,0.795,0.555,1.8,0.645,2.489l-1.095,0.226
				c-0.075-0.675-0.33-1.71-0.615-2.505L252.933,392.186z M253.668,383.262h-1.29v2.475c0.21-0.6,0.465-1.47,0.57-2.069l0.72,0.255
				V383.262z M253.668,386.517v-2.13c-0.24,0.63-0.48,1.274-0.675,1.71l-0.615-0.226v0.646H253.668z M254.388,391.871
				c0.48,0.705,0.96,1.665,1.155,2.325l-1.125,0.465c-0.18-0.66-0.63-1.65-1.095-2.399L254.388,391.871z M259.278,386.352v2.31h2.4
				v6.885h-1.71v-0.524h-2.775v0.585h-1.62v-6.945h1.965v-7.034h1.74v3.074h2.895v1.65H259.278z M259.968,390.281h-2.775v3.135
				h2.775V390.281z"/>
			<path class="st2" d="M279.062,383.922c0,0,0,0.6-0.015,0.81c-0.195,6.705-0.36,9.09-0.975,9.885
				c-0.42,0.555-0.84,0.72-1.44,0.825c-0.57,0.075-1.47,0.06-2.355,0.029c-0.03-0.494-0.27-1.244-0.585-1.739
				c0.96,0.09,1.845,0.09,2.235,0.09c0.3,0,0.465-0.061,0.66-0.255c0.435-0.48,0.63-2.73,0.795-8.024h-3.21
				c-0.39,0.899-0.855,1.725-1.32,2.369c-0.24-0.225-0.75-0.569-1.155-0.84v7.005h-4.005v1.095h-1.62v-11.145h1.695
				c0.195-0.75,0.375-1.71,0.435-2.415l1.95,0.271c-0.255,0.75-0.525,1.5-0.78,2.145h2.325v2.43c0.87-1.26,1.59-3.074,2.025-4.829
				l1.695,0.39c-0.15,0.646-0.36,1.275-0.585,1.905H279.062z M270.078,385.587h-2.385v2.43h2.385V385.587z M270.078,392.501v-2.939
				h-2.385v2.939H270.078z M275.058,391.691c-0.42-0.9-1.35-2.37-2.085-3.465l1.395-0.795c0.75,1.035,1.74,2.46,2.205,3.33
				L275.058,391.691z"/>
			<path class="st2" d="M284.943,384.116h2.31v1.396h-4.335v-1.396h1.8c-0.165-0.54-0.54-1.364-0.854-1.994l1.245-0.466
				c0.375,0.615,0.795,1.471,0.975,1.98L284.943,384.116z M286.968,387.536h-3.615v-1.35h3.615V387.536z M283.353,388.227h3.615
				v1.335h-3.615V388.227z M286.998,394.796h-2.385v0.63h-1.245v-5.13h3.63V394.796z M284.613,391.661v1.771h1.11v-1.771H284.613z
				 M296.343,388.677c-0.42,1.35-1.02,2.579-1.725,3.645c0.165,0.75,0.33,1.185,0.51,1.185c0.18-0.015,0.315-0.645,0.375-1.784
				c0.255,0.359,0.885,0.824,1.14,0.989c-0.375,2.311-1.035,2.82-1.56,2.82c-0.675,0-1.2-0.63-1.605-1.725
				c-0.6,0.689-1.275,1.274-1.965,1.755c-0.21-0.285-0.66-0.735-1.005-0.976c0.315-0.21,0.615-0.435,0.9-0.689h-0.885v-0.36h-1.335
				v1.08h-1.425v-6.524h4.215v5.265c0.375-0.375,0.72-0.795,1.065-1.245c-0.255-1.245-0.435-2.79-0.57-4.56h-5.175v-1.5h0.885
				c-0.06-0.45-0.18-0.976-0.285-1.41l1.2-0.21c0.15,0.495,0.3,1.14,0.36,1.62h0.54c0.135-0.525,0.255-1.17,0.315-1.635l1.35,0.194
				c-0.15,0.51-0.3,1.021-0.435,1.44h1.155c-0.075-1.365-0.12-2.851-0.15-4.41h1.575c0,1.53,0.06,3.015,0.12,4.41h2.58v1.5h-2.475
				c0.06,0.885,0.135,1.694,0.225,2.444c0.285-0.63,0.525-1.305,0.735-2.01L296.343,388.677z M291.963,384.417h-4.455v-1.365h1.62
				c-0.135-0.36-0.315-0.75-0.48-1.08l1.38-0.375c0.24,0.435,0.51,1.005,0.66,1.455h1.275V384.417z M289.188,389.291v0.931h1.335
				v-0.931H289.188z M290.523,392.352v-0.96h-1.335v0.96H290.523z M294.948,385.661c-0.165-0.689-0.63-1.829-1.035-2.685l1.29-0.51
				c0.435,0.825,0.93,1.92,1.125,2.609L294.948,385.661z"/>
			<path class="st2" d="M307.023,388.751c0,0-0.015,0.436-0.015,0.646c-0.15,3.614-0.3,5.055-0.72,5.564
				c-0.3,0.36-0.645,0.495-1.125,0.556c-0.405,0.06-1.095,0.074-1.815,0.045c-0.015-0.466-0.195-1.11-0.45-1.545
				c0.6,0.074,1.2,0.074,1.47,0.074c0.225,0,0.36-0.029,0.495-0.194c0.225-0.255,0.36-1.215,0.465-3.585h-1.665
				c-0.345,2.055-1.05,3.975-2.64,5.324c-0.255-0.449-0.765-1.005-1.185-1.305c1.965-1.62,2.265-4.319,2.385-6.81h-1.5v-5.22h6.165
				v5.22h-2.925c-0.03,0.405-0.06,0.825-0.09,1.229H307.023z M302.343,385.932h2.82v-2.055h-2.82V385.932z M309.753,391.871h-1.74
				v-8.444h1.74V391.871z M313.308,381.912v11.549c0,1.05-0.21,1.545-0.825,1.83c-0.615,0.285-1.62,0.345-2.985,0.345
				c-0.075-0.524-0.345-1.35-0.615-1.845c0.975,0.03,1.935,0.03,2.25,0.03c0.285,0,0.405-0.09,0.405-0.36v-11.549H313.308z"/>
			<path class="st2" d="M72.362,418.446v1.695h-9.33v-1.695h4.005v-3h-2.895v-1.665h2.895v-2.46h-1.65
				c-0.225,0.78-0.525,1.5-0.84,2.07c-0.36-0.226-1.17-0.63-1.59-0.811c0.15-0.27,0.3-0.555,0.45-0.869l-0.855,0.39
				c-0.09-0.45-0.315-1.11-0.57-1.725v10.244h-1.785v-10.725c-0.09,1.26-0.33,2.91-0.675,3.975l-1.32-0.479
				c0.36-0.99,0.63-2.67,0.735-3.9l1.26,0.181v-3.061h1.785v2.835l0.87-0.359c0.3,0.585,0.615,1.305,0.825,1.89
				c0.375-1.095,0.645-2.385,0.795-3.66l1.74,0.24c-0.105,0.705-0.225,1.41-0.375,2.085h1.2v-2.939h1.785v2.939h3.06v1.68h-3.06
				v2.46h2.745v1.665h-2.745v3H72.362z"/>
			<path class="st2" d="M81.378,414.741l-1.605,1.38c-0.915-1.125-2.19-2.415-3.225-3.3l1.56-1.365
				C79.173,412.326,80.613,413.811,81.378,414.741z"/>
			<path class="st2" d="M93.318,406.627c-0.015,0.63-0.045,1.439-0.105,2.34c0.21,2.024,1.125,7.68,6.359,9.989
				c-0.555,0.436-1.065,1.035-1.305,1.545c-3.33-1.59-4.995-4.515-5.865-7.095c-0.825,2.64-2.4,5.354-5.52,7.185
				c-0.315-0.479-0.885-1.05-1.485-1.455c6.09-3.255,5.805-9.975,5.865-12.509H93.318z"/>
			<path class="st2" d="M109.368,414.847v5.055h-3.51v0.734h-1.62v-3.479c-0.195,0.225-0.39,0.465-0.615,0.69
				c-0.165-0.33-0.765-1.006-1.095-1.306c0.78-0.75,1.29-1.71,1.665-2.85h-0.735v-1.5h1.11c0.045-0.3,0.105-0.6,0.15-0.93h-2.01
				l-0.015-1.485h2.16c0.03-0.314,0.045-0.645,0.06-0.975h-1.38v-1.5h5.535v2.475h0.735v1.485h-0.735v2.43h-3.255
				c-0.09,0.405-0.21,0.78-0.345,1.155H109.368z M105.858,416.376v1.995h1.785v-1.995H105.858z M106.293,411.262
				c-0.045,0.314-0.075,0.615-0.135,0.93h1.26v-0.93H106.293z M106.533,408.802c-0.03,0.33-0.045,0.66-0.075,0.975h0.96v-0.975
				H106.533z M116.703,417.336h-2.715v3.285h-1.725v-3.285h-2.52v-1.665h2.52v-1.574h-2.01v-1.635h2.01v-1.365h-2.19v-1.605h0.885
				c-0.135-0.675-0.48-1.59-0.87-2.295l1.425-0.494c0.465,0.749,0.87,1.755,1.02,2.444l-0.96,0.345h3.27l-1.245-0.33
				c0.315-0.704,0.72-1.784,0.9-2.579l1.725,0.404c-0.375,0.915-0.78,1.846-1.125,2.505h1.305v1.605h-2.415v1.365h2.145v1.635
				h-2.145v1.574h2.715V417.336z"/>
			<path class="st2" d="M133.712,418.446v1.755h-13.484v-1.755h5.79v-3.015h-4.065v-1.726h4.065v-2.64h-3.105
				c-0.435,0.825-0.9,1.59-1.395,2.175c-0.36-0.285-1.155-0.825-1.605-1.064c1.17-1.26,2.145-3.33,2.655-5.37l1.845,0.405
				c-0.21,0.72-0.45,1.425-0.705,2.114h2.31v-2.699h1.875v2.699h5.055v1.74h-5.055v2.64h4.485v1.726h-4.485v3.015H133.712z"/>
			<path class="st2" d="M140.043,413.842c-0.615-0.436-1.905-1.141-2.79-1.62l0.96-1.32c0.825,0.405,2.16,1.05,2.82,1.455
				L140.043,413.842z M137.463,419.241c0.795-1.125,1.95-2.985,2.85-4.725l1.305,1.2c-0.795,1.574-1.74,3.284-2.655,4.739
				L137.463,419.241z M140.688,409.746c-0.585-0.449-1.86-1.154-2.73-1.649l1.005-1.29c0.84,0.42,2.145,1.08,2.79,1.5
				L140.688,409.746z M147.333,412.672v1.89h3.06v5.984h-1.695v-0.54h-4.515v0.615h-1.605v-6.06h3.06v-1.89h-3.99v-1.71h3.99v-1.755
				c-0.99,0.149-1.98,0.255-2.925,0.345c-0.06-0.436-0.3-1.125-0.495-1.53c2.55-0.255,5.355-0.75,7.005-1.41l1.38,1.41
				c-0.975,0.375-2.085,0.66-3.27,0.885v2.056h3.81v1.71H147.333z M148.698,416.182h-4.515v2.204h4.515V416.182z"/>
			<path class="st2" d="M160.113,415.521l-1.44,0.375v4.725h-1.695v-4.305l-1.98,0.51l-0.435-1.814
				c0.66-0.12,1.515-0.301,2.415-0.48v-3.3h-0.87c-0.15,0.75-0.33,1.455-0.54,1.995c-0.3-0.135-0.93-0.375-1.26-0.48
				c0.48-1.215,0.765-3.149,0.9-4.979l1.35,0.21c-0.045,0.525-0.105,1.035-0.18,1.56h0.6v-2.909h1.695v2.909h1.29v1.695h-1.29v2.925
				l1.245-0.285L160.113,415.521z M168.303,415.491h-1.44v3.135c0,0.885-0.165,1.351-0.765,1.635
				c-0.57,0.271-1.41,0.315-2.505,0.315c-0.075-0.525-0.315-1.26-0.54-1.77c0.705,0.029,1.515,0.029,1.755,0.029
				c0.225,0,0.285-0.06,0.285-0.255v-3.09h-4.77v-1.635h4.77v-1.05h1.77v1.05h1.44V415.491z M163.203,409.566h-2.82v-1.62h2.82
				v-1.335h1.77v1.335h3v1.62h-3v1.275h2.49v1.649h-6.524v-1.649h2.265V409.566z M162.333,415.536c0.645,0.66,1.439,1.62,1.8,2.25
				l-1.41,0.915c-0.315-0.63-1.065-1.635-1.71-2.354L162.333,415.536z"/>
			<path class="st2" d="M174.258,410.167c-0.255,0.765-0.675,1.499-1.425,2.1c-0.225-0.315-0.84-0.93-1.155-1.14
				c1.14-0.855,1.305-1.92,1.305-2.79v-1.005c1.56-0.091,3.36-0.315,4.41-0.676l0.99,1.035c-1.05,0.375-2.49,0.57-3.87,0.69
				c0,0.149,0,0.314-0.015,0.479h4.08v1.306h-1.44v1.529h-1.575v-1.529H174.258z M181.683,411.741v-1.574h-1.29
				c-0.18,0.659-0.48,1.289-0.99,1.814h4.14v6.18h-1.98c1.41,0.42,2.835,0.915,3.78,1.29l-0.825,1.245
				c-1.065-0.48-2.85-1.155-4.515-1.665l0.54-0.87h-3.885l0.975,0.57c-1.29,0.72-3.315,1.529-4.83,1.979
				c-0.15-0.314-0.585-1.14-0.855-1.5c1.245-0.24,2.76-0.614,3.87-1.05h-1.98v-6.18h5.37c-0.315-0.27-0.885-0.645-1.185-0.795
				c0.96-0.855,1.08-1.95,1.08-2.805v-1.095c1.68-0.075,3.585-0.301,4.635-0.66l1.11,0.989c-1.14,0.391-2.745,0.615-4.245,0.721
				v0.074c0,0.15,0,0.301-0.015,0.45h4.814v1.306h-2.115v1.574H181.683z M181.743,413.047h-6.195v0.675h6.195V413.047z
				 M181.743,414.711h-6.195v0.69h6.195V414.711z M181.743,416.406h-6.195v0.675h6.195V416.406z"/>
			<path class="st2" d="M194.628,414.741l-1.605,1.38c-0.915-1.125-2.19-2.415-3.225-3.3l1.56-1.365
				C192.423,412.326,193.863,413.811,194.628,414.741z"/>
			<path class="st2" d="M203.688,416.227c-0.255-0.391-0.675-0.945-1.095-1.455v5.85h-1.755v-5.52
				c-0.57,0.51-1.125,0.975-1.71,1.319c-0.12-0.494-0.465-1.484-0.675-1.814c1.5-0.825,2.955-2.295,3.855-3.885h-3.42v-1.605h2.625
				c-0.27-0.555-0.75-1.29-1.215-1.845l1.41-0.734c0.525,0.569,1.095,1.35,1.365,1.89l-1.185,0.689h1.395l0.3-0.074l0.945,0.689
				c-0.42,1.095-1.035,2.175-1.725,3.135c0.615,0.54,1.695,1.59,1.995,1.875L203.688,416.227z M212.672,418.386v1.771h-8.654v-1.771
				h3.615v-5.564h-2.955v-1.725h2.955v-4.395h1.845v4.395h2.835v1.725h-2.835v5.564H212.672z"/>
			<path class="st2" d="M224.208,407.047c-0.075,0.09-0.15,0.194-0.225,0.285c1.38,1.199,3.84,2.234,6.225,2.699
				c-0.375,0.315-0.885,0.945-1.125,1.365c-0.3-0.075-0.615-0.18-0.93-0.27v3.869h-10.424v-3.779c-0.315,0.104-0.63,0.21-0.93,0.285
				c-0.18-0.33-0.66-1.051-0.96-1.381c2.76-0.645,5.43-1.89,6.795-3.63L224.208,407.047z M227.613,410.932
				c-0.705-0.255-1.38-0.57-2.04-0.915v0.39h-5.265v-0.3c-0.585,0.3-1.185,0.585-1.815,0.825H227.613z M218.568,415.491h8.82v5.07
				h-1.83v-0.36h-5.235v0.405h-1.755V415.491z M220.263,413.916c-0.075-0.465-0.27-1.079-0.51-1.56l1.155-0.33h-1.695v1.89H220.263z
				 M220.323,416.661v0.601h5.235v-0.601H220.323z M225.558,419.031v-0.6h-5.235v0.6H225.558z M222.153,412.026h-1.17
				c0.27,0.51,0.51,1.155,0.6,1.59l-0.96,0.3h1.53V412.026z M224.312,409.252c-0.45-0.315-0.885-0.646-1.26-0.976
				c-0.39,0.33-0.825,0.66-1.275,0.976H224.312z M223.593,412.026v1.89h1.395l-0.9-0.255c0.21-0.45,0.45-1.14,0.585-1.635H223.593z
				 M226.562,412.026h-1.56l1.17,0.285c-0.3,0.6-0.585,1.185-0.825,1.604h1.215V412.026z"/>
			<path class="st2" d="M244.743,410.871c-0.765,2.16-1.785,3.915-3.09,5.37c1.545,1.2,3.435,2.07,5.669,2.595
				c-0.405,0.391-0.93,1.17-1.2,1.665c-2.355-0.63-4.29-1.62-5.865-2.939c-1.65,1.35-3.66,2.34-6.075,3.029
				c-0.195-0.42-0.72-1.26-1.08-1.665c2.34-0.585,4.275-1.439,5.835-2.654c-1.35-1.485-2.385-3.285-3.195-5.4h-2.355v-1.739h6.33
				c-0.165-0.615-0.495-1.455-0.84-2.115l1.905-0.555c0.39,0.689,0.84,1.649,1.02,2.265l-1.29,0.405h6.525v1.739H244.743z
				 M237.588,410.871c0.645,1.575,1.545,2.971,2.7,4.155c1.035-1.14,1.86-2.505,2.445-4.155H237.588z"/>
			<path class="st2" d="M255.828,407.227c-0.405,0.96-0.9,1.92-1.455,2.85v10.545h-1.695v-8.085c-0.48,0.601-0.945,1.125-1.44,1.59
				c-0.165-0.435-0.66-1.409-0.945-1.859c1.53-1.32,3.015-3.45,3.87-5.595L255.828,407.227z M261.738,418.701
				c0.765,0,0.885-0.63,1.02-3.104c0.405,0.314,1.11,0.659,1.575,0.75c-0.195,2.895-0.645,3.93-2.46,3.93h-2.505
				c-1.845,0-2.37-0.601-2.37-2.64v-10.74h1.725v3.81h5.22v1.71h-5.22v5.25c0,0.885,0.105,1.035,0.825,1.035H261.738z"/>
		</g>
	</g>
	<path class="st17" d="M186.405,355.845L186.405,355.845l0,9.555l-2.201-2.201c-0.293-0.293-0.768-0.293-1.061,0l-0.487,0.487
		c-0.293,0.293-0.293,0.768,0,1.061l4.313,4.314c0.293,0.293,0.767,0.293,1.06,0.001l4.315-4.315c0.141-0.141,0.22-0.331,0.22-0.53
		s-0.079-0.391-0.22-0.531l-0.488-0.487c-0.294-0.292-0.768-0.292-1.061,0.001l-2.2,2.201v-9.555h0c0-0.414-0.336-0.75-0.75-0.75
		h-0.689C186.741,355.095,186.405,355.431,186.405,355.845z"/>
</g>
<g id="圖層_4" class="st20">
</g>
</svg>
