<?xml version="1.0" encoding="utf-8"?>
<!-- Generator: Adobe Illustrator 22.0.1, SVG Export Plug-In . SVG Version: 6.00 Build 0)  -->
<svg version="1.1" xmlns="http://www.w3.org/2000/svg" xmlns:xlink="http://www.w3.org/1999/xlink" x="0px" y="0px"
	 viewBox="0 0 768 720.318" style="enable-background:new 0 0 768 720.318;" xml:space="preserve">
<style type="text/css">
	.st0{clip-path:url(#SVGID_2_);}
	.st1{fill:#FFFFFF;}
	.st2{fill:none;stroke:#FFFFFF;stroke-miterlimit:10;}
	.st3{display:none;}
	.st4{display:inline;}
	.st5{fill:#EEEEEF;}
	.st6{fill:#113272;}
	.st7{opacity:0.2;}
	.st8{fill:#171C61;}
	.st9{fill:#EFEFEF;}
	.st10{opacity:0.6;}
	.st11{fill:#DD722A;}
	.st12{opacity:0.4;}
	.st13{fill:#15AF83;}
	.st14{opacity:0.3;}
	.st15{opacity:0.25;}
	.st16{fill:#005E9E;}
	.st17{fill:#17AD7B;}
	.st18{fill:#165987;}
	.st19{fill:#D67327;}
	.st20{fill:#D65677;}
	.st21{fill:#D64B3C;}
	.st22{opacity:0.2;fill:#171C61;}
	.st23{opacity:0.8;}
</style>
<g id="圖層_3">
</g>
<g id="圖層_2">
	<rect y="-0.028" class="st1" width="768" height="719.709"/>
</g>
<g id="圖層_5" class="st3">
</g>
<g id="圖層_1">
	<g class="st10">
		<g>
			<g>
				<path class="st8" d="M99.34,351.283l-0.452-0.469C99.1,351.034,99.237,351.176,99.34,351.283z"/>
				<path class="st8" d="M102.434,354.829l0.112,0.056C102.383,354.738,102.31,354.683,102.434,354.829z"/>
				<path class="st8" d="M125.999,367.873c0.194-0.205,0.462-0.504,0.832-0.934L125.999,367.873z"/>
				<path class="st8" d="M81.585,332.711l-0.623-0.46C81.818,333.092,81.48,332.682,81.585,332.711z"/>
				<path class="st8" d="M86.702,249.728c0.058-0.038,0.125-0.082,0.179-0.118C86.888,249.586,86.812,249.643,86.702,249.728z"/>
				<path class="st8" d="M173.027,303.178c-0.003,0.018-0.006,0.032-0.009,0.052C173.069,303.055,173.06,303.085,173.027,303.178z"
					/>
				<path class="st8" d="M65.246,293.407c0.001-0.041,0.005-0.087,0.013-0.132C65.247,292.656,65.235,292.928,65.246,293.407z"/>
				<path class="st8" d="M148.579,341.916c0.017-0.022,0.028-0.035,0.044-0.055c-0.02,0.02-0.046,0.045-0.064,0.063L148.579,341.916
					z"/>
				<path class="st8" d="M147.143,343.572c0.539-0.773,0.913-1.15,1.415-1.647l-0.718,0.319L147.143,343.572z"/>
				<path class="st8" d="M174.16,292.98c-0.061-0.669-0.134-1.464-0.188-2.056c-0.14,0.368,0.149,2.712,0.119,3.896
					c-0.072,0-0.138-0.26-0.197-0.696c0.004-0.258,0.019-0.513,0.019-0.771c0-3.347-0.319-6.617-0.9-9.797
					c-0.083-0.514-0.18-1.066-0.297-1.641c-0.086-0.339-0.175-0.69-0.263-1.039c-0.143-0.608-0.294-1.212-0.458-1.812
					c-0.013-0.053-0.027-0.108-0.041-0.161c-0.121-0.497-0.24-0.981-0.352-1.44c-0.108-0.46-0.284-0.87-0.399-1.255
					c-0.094-0.206-0.21-0.47-0.309-0.689c-1.424-4.085-3.324-7.944-5.632-11.517c0.085,0.096,0.179,0.204,0.044-0.05
					c-0.037-0.01-0.131-0.116-0.256-0.281c-9.68-14.746-26.352-24.49-45.309-24.49c-1.236,0-2.458,0.056-3.674,0.138
					c-0.513-0.059-0.967-0.124-0.897-0.216c-0.807,0.103-1.869,0.209-3.068,0.327c-1.193,0.137-2.543,0.217-3.812,0.66
					c-0.581,0.1,0.471-0.199,0.155-0.174c-0.636,0.268-1.421,0.491-2.9,0.825l0.16-0.067c-1.023,0.295-1.931,0.445-2.718,0.754
					c-0.797,0.279-1.531,0.536-2.281,0.798c-0.749,0.265-1.525,0.507-2.377,0.832c-0.83,0.382-1.75,0.806-2.838,1.307l0.371-0.049
					c-0.934,0.433-1.146,0.494-1.594,0.678c-0.433,0.295,0.024,0.087,0.594-0.182c-2.002,0.952-5.361,3.158-6.086,3.415
					c-1.272,0.948,0.449-0.167-0.82,0.78l-0.379,0.192l-0.265,0.315c-0.84,0.609-1.316,0.851-1.385,0.826
					c0.207-0.145,0.564-0.444,0.778-0.61c-0.561,0.377-1.338,0.932-1.977,1.478c-0.614,0.577-1.139,1.084-1.32,1.229l1.158-0.992
					c-1.551,1.511-3.449,3.006-4.978,4.847c-0.786,0.896-1.631,1.737-2.326,2.654c-0.679,0.929-1.329,1.835-1.924,2.692l0.234-0.222
					c-0.456,0.653-0.783,1.103-1.047,1.459c-0.236,0.373-0.411,0.65-0.593,0.937c-0.37,0.566-0.766,1.163-1.654,2.67l0.055-0.115
					c-0.169,0.317-0.359,0.674-0.563,1.058c-0.18,0.403-0.38,0.831-0.59,1.26c0.326-0.826-0.834,1.442-0.394,0.365
					c-0.702,1.584-0.868,1.977-0.959,2.243c-0.041,0.129-0.075,0.236-0.138,0.436c-0.072,0.198-0.174,0.501-0.31,1.06l-0.265,0.459
					c-0.19,0.759-0.172,0.835-0.747,2.477c0.417-1.368-0.514,1.001-0.061-0.539c-0.347,0.849-0.683,1.582-0.853,2.271
					c-0.172,0.689-0.305,1.294-0.425,1.839c-0.24,1.089-0.428,1.93-0.78,2.715c-0.171,1.681,0.926-3.041,0.744-2.116
					c0.276-0.741-0.162,1.387-0.471,2.489c-0.185,1.148-0.619,1.902-1.06,4.823c0.036-0.289,0.039-0.313,0.075-0.601
					c-0.277,1.081-0.134,2.157-0.313,3.5c0.114,0.766-0.097,1.756,0.087,1.98l0.091-2.698c-0.013,0.766,0.019,1.51,0.025,2.374
					c0.003,0.432,0,0.894-0.02,1.404c0,0.51,0,1.065,0,1.7c-0.044-0.195-0.114-0.942-0.155-1.457
					c-0.04,0.738,0.072,1.417,0.032,2.183c-0.1-0.105-0.131-0.926-0.16-1.925c-0.001-0.999,0.092-2.174,0.049-2.999
					c-0.123,0.791-0.015,3.109-0.185,2.282c0.252,1.184-0.029,2.915,0.347,4.895l-0.126-0.122c0.043,0.316,0.133,0.974,0.21,1.54
					c-0.097-0.343-0.184-0.687-0.254-1.034c0.285,1.597,0.219,3.124,0.574,4.647c-0.286-1.605-0.262-1.793-0.207-1.748
					c0.052,0.046,0.144,0.321,0.103-0.366c0.732,3.611,0.105,2.57,0.867,5.792c-0.106-0.544-0.151-0.973,0.012-0.402
					c0.167,0.839,0.446,1.935,0.518,2.462c0.902,2.842-0.037-0.466,0.413,0.722c0.188,1.002,0.482,1.381,0.975,2.585l-0.108,0.049
					c1.138,3.194,0.515,0.763,1.623,3.597l-0.663-1.117l0.671,1.443l-0.254-0.246c0.377,0.781,0.675,1.268,0.914,1.778
					c0.253,0.503,0.466,1.022,0.869,1.769c-0.116-0.385,0.297,0.093,1.02,1.402c0.468,0.909-0.397-0.431,0.725,1.374
					c-0.306-0.374-0.686-0.764-1.04-1.629c-0.079-0.064-0.293-0.379-0.374-0.446c0.434,1.025,1.405,2.396,1.796,3.061
					c-0.152-0.255-0.331-0.563-0.412-0.727c0.564,0.862,1.225,1.659,1.834,2.486c0.235,0.428-0.009,0.13-0.252-0.167
					c0.352,0.517,0.671,0.821,1.223,1.554c-0.219-0.134-0.267-0.026-1.08-1.049c0.619,0.766,1.218,1.545,1.858,2.29
					c0.091,0.178,0.869,1.243,0.599,0.969c0.977,1.325,2.789,2.905,4.288,4.436c0.093,0.065,0.266,0.21,0.602,0.521
					c1.431,1.437,2.569,2.78,4.341,4.37l0.816,1.087c1.319,1.316-1.11-1.47,1.087,0.722c1.562,1.546,0.462,0.694,0.961,1.282
					c0.826,0.72,2.254,1.986,3.525,3.56c-0.48-0.466-0.818-0.867-1.253-1.314l0.979,1.19c-1.381-1.249-2.256-2.267-1.371-1.12
					c0.398-0.075,4.096,4.347,4.47,4.295l0.629,0.798c-0.199-0.21-0.232-0.245-0.429-0.453c1.201,1.571,1.176,0.911,2.822,2.849
					c0.568,0.68,0.941,1.175,0.511,0.749l1.37,1.423c0.376,0.434,0.239,0.367-0.135-0.065l1.993,2.255l-0.022-0.01
					c0.32,0.29,1.018,0.974,1.355,1.311c0.464,0.61-0.278-0.267-0.182-0.092l1.142,1.217c0.37,0.577-0.578-0.431-1.322-1.308
					c0.761,1.396,0.96,0.999,2.981,3.688l-1.048-1.174c0.512,0.894,1.354,1.79,2.392,3.237c-0.22-0.364-2.041-2.932-0.824-1.593
					c0.306,0.409,0.724,0.934,1.398,1.642c-0.088,0.085,0.55,0.793,1.302,1.717l-0.173,0.036c0.847,0.971,0.845,0.842,1.378,1.386
					c0.895,1.124,0.976,1.439,1.109,1.766c1.413,1.814-0.836-1.364,0.883,0.746c1.141,1.536,2.02,2.552,3.488,4.309
					c0.773,1.094-0.219-0.127,0.038,0.281l0.818,0.868c0.173,0.233,0.086,0.182,0.041,0.156c0.641,0.768,0.179-0.032,1.154,1.201
					c0.101,0.073,0.182,0.163,0.425,0.504c0.222,0.328,0.511,0.756,0.839,1.24c0.429-0.538,0.917-1.15,1.399-1.754
					c0.376-0.48,0.742-0.972,1.028-1.441c0.325-0.355-0.063,0.243,0.074,0.163c1.517-2.199,1.31-1.877,2.523-3.712l1.234-1.406
					c-0.944,1.004,0.032-0.46,0.903-1.732c-0.064,0.064-0.115,0.116-0.176,0.177c0.121-0.151,0.246-0.308,0.37-0.462
					c-0.066,0.098-0.125,0.183-0.194,0.285c0.064-0.064,0.132-0.131,0.198-0.197c0.065-0.115,0.121-0.214,0.181-0.32
					c0.247-0.308,0.501-0.623,0.759-0.943c0.042,0.024-0.113,0.302-0.313,0.633c-0.21,0.211-0.421,0.423-0.627,0.63
					c-0.303,0.534-0.573,1.043-0.422,1.002c0.085-0.136,0.264-0.386,0.468-0.655c-0.078,0.14-0.123,0.234-0.065,0.186
					c0.065-0.055,0.197-0.276,0.415-0.615l0.484-0.326l0.031-0.149l2.106-2.42c1.322-1.882,2.392-3.59,4.697-6.416
					c-0.486,0.774,0.035,0.285,0.119,0.421c-0.761,0.658-1.778,2.191-3.003,3.627c0.641-0.748,0.559-0.535,0.418-0.325l2.055-2.67
					c0.046,0.139,0.532-0.486,1.14-1.123c-0.622,0.343,1.516-2.005,2.355-3.092c0.118-0.01-0.033,0.294-1.141,1.545
					c1.346-1.272,1.334-1.997,2.657-3.246c-0.269,0.307-0.424,0.463-0.5,0.612c0.577-0.763,2.165-2.469,1.855-2.011l-0.269,0.306
					c1.81-2.016,5.533-6.114,5.666-6.543c0.038-0.001-0.057,0.431-0.138,0.58c0.651-0.931,1.297-1.87,1.949-2.804
					c0.335-0.355,0.674-0.711,1.013-1.068c0.274-0.006,0.664-0.08-0.37,1.1c0.464-0.449,1.039-1.002,1.935-2.027
					c-0.323,0.299-0.948,0.611-0.543,0.166c1.288-1.052,0.871-0.753,2.403-2.101c-0.485,0.448-0.181-0.279,0.562-1.01
					c-0.084,0.145,0.259,0.134,0.012,0.425l1.629-2.036c-0.421,0.495,0.084,0.248,0.546-0.106c-0.227,0.152,1.574-1.586,2.063-2.092
					l-0.833,0.73c1.065-1.018,1.515-1.599,1.959-2.177c0.444-0.578,0.897-1.139,1.859-2.233c-0.192,0.299-0.326,0.889,0.699-0.199
					c0.188-0.323,0.586-1.082,1.123-2.037c0.661-0.825,1.305-1.663,1.918-2.526c-0.646,1.226-1.42,2.578-2.054,3.444
					c0.743-0.822,0.288-0.164,1.297-1.482c0.331-0.336-0.149,0.367-0.521,0.854c0.328-0.393,0.651-0.79,0.959-1.2
					c0.385-0.518,0.802-1.014,1.161-1.552c-0.227,0.05,1.52-2.545,1.291-2.513c-0.328,0.618-0.707,1.205-1.073,1.801
					c-0.363,0.599-0.735,1.192-1.141,1.764c-0.233,0.035,1.088-2.202,2.487-4.527c0.418-0.558-0.018,0.594,0.058,0.575
					c0.065-0.168,0.39-0.73,0.694-1.288c0.293-0.565,0.59-1.111,0.668-1.212l-0.481,1.06c0.394-0.653,0.645-1.225,0.924-1.823
					c0.26-0.608,0.533-1.249,1.008-2.036c0.291-0.559,0.953-1.642,0.914-1.778c-0.35,0.524-0.705,0.705-0.907,0.626
					c0.289-0.649,0.571-1.301,0.835-1.963l0.028,0.109l0.144-0.386l-0.064-0.009c0.264-0.672,0.52-1.348,0.757-2.032
					c0.222-0.213-0.277,1.673,0.094,0.977c-0.032-0.053,0.129-0.604,0.181-0.838c0.241-0.617,0.048,0.307,0.473-1.069
					c-0.067-0.274,0.883-2.788,0.075-0.689c0.374-1.353,0.44-1.426,0.878-3.017c-0.149,0.32-0.111-0.457-0.002-1.418
					c0.128-0.582,0.251-1.165,0.36-1.754c0.011-0.03,0.022-0.062,0.031-0.086c0.128-0.704,0.242-1.327,0.348-1.907
					c0.082-0.583,0.158-1.123,0.233-1.656c0.176-1.065,0.23-2.119,0.34-3.452c0.059-0.243,0.131-1.535,0.192-0.982
					c-0.02-0.387-0.068-0.742-0.053-1.568c0.16-1.6-0.008,1.844,0.182,0.626C174.209,294.185,174.229,293.649,174.16,292.98z
					 M128.291,364.736c0.257-0.332,0.56-0.698,0.916-1.089C129.028,363.93,128.691,364.316,128.291,364.736z M95.992,244.387
					c-0.262,0.043-0.646,0.193-1.101,0.407C95.608,244.456,96.478,244.034,95.992,244.387z M105.922,358.886
					c0.43,0.301,0.639,0.639,1.091,1.25C106.713,359.806,106.078,359.18,105.922,358.886z"/>
				<path class="st8" d="M66.496,306.55c0.064,0.329,0.15,0.701,0.225,0.92C66.634,307.124,66.562,306.827,66.496,306.55z"/>
				<path class="st8" d="M162.677,327.456c-0.086,0.103-0.162,0.212-0.25,0.313C162.492,327.694,162.582,327.58,162.677,327.456z"/>
				<path class="st8" d="M126.847,366.837c-0.094,0.086-0.133,0.099-0.169,0.109C126.585,367.095,126.6,367.113,126.847,366.837z"/>
				<path class="st8" d="M81.7,332.796l-0.049-0.05c-0.033-0.022-0.052-0.032-0.066-0.035L81.7,332.796z"/>
				<path class="st8" d="M171.376,311.293c-0.154,0.4-0.269,0.614-0.343,0.756C171.049,312.08,171.15,311.909,171.376,311.293z"/>
				<path class="st8" d="M173.43,285.623l0.159,0.027l-0.174-0.748C173.456,285.339,173.433,285.372,173.43,285.623z"/>
				<path class="st8" d="M174.11,289.888c-0.05-0.163-0.168-1.785-0.127-0.291C174.033,289.754,174.223,291.948,174.11,289.888z"/>
				<path class="st8" d="M159.555,330.76c-0.781,0.861-1.243,1.264-0.745,1.005c1.41-1.321,0.238-0.401,1.472-1.646
					C160.543,329.741,159.281,331.142,159.555,330.76z"/>
				<path class="st8" d="M159.555,330.76c0.115-0.146,0.238-0.301,0.371-0.47C159.712,330.553,159.614,330.68,159.555,330.76z"/>
				<path class="st8" d="M108.944,362.972l0.089,0.048c-0.089-0.173-0.27-0.397-0.633-0.845L108.944,362.972z"/>
				<polygon class="st8" points="98.196,350.226 98.384,350.443 98.136,349.946 				"/>
				<path class="st8" d="M88.555,340.088c0.4,0.407,0.87,0.886,1.272,1.295C88.946,340.504,88.578,339.852,88.555,340.088z"/>
			</g>
		</g>
	</g>
	<g>
		<path class="st1" d="M116.821,277.295c-0.378,3.926-1.242,7.022-2.593,9.436c0.882,1.206,1.962,2.215,3.259,2.916
			c-0.486,0.396-1.152,1.207-1.477,1.766c-1.224-0.738-2.232-1.656-3.097-2.756c-0.918,1.117-1.98,2.018-3.205,2.756
			c-0.27-0.469-0.756-1.135-1.188-1.566v1.691h-2.07v-2.881c-2.071,0.361-4.177,0.685-5.834,0.938l-0.414-2.143
			c0.486-0.055,1.044-0.109,1.657-0.181v-9.562h-1.225v-1.98h9.039v1.279h5.384l0.36-0.055L116.821,277.295z M103.893,277.709v1.711
			h2.557v-1.711H103.893z M103.893,283.147h2.557v-1.8h-2.557V283.147z M103.893,287.018c0.828-0.107,1.692-0.233,2.557-0.342v-1.62
			h-2.557V287.018z M108.52,289.557c1.188-0.666,2.233-1.639,3.115-2.862c-1.099-1.999-1.873-4.411-2.431-7.13l2.053-0.414
			c0.36,1.926,0.9,3.744,1.656,5.329c0.702-1.548,1.242-3.349,1.548-5.366h-5.312v-1.404h-0.63V289.557z"/>
		<path class="st1" d="M127.383,285.866c-0.216-0.521-0.594-1.332-0.99-2.105v7.76h-1.944v-6.734
			c-0.468,1.387-1.026,2.647-1.639,3.547c-0.198-0.594-0.63-1.404-0.936-1.891c1.008-1.404,1.962-3.906,2.413-6.031h-1.999v-1.98
			h2.161v-3.709h1.944v3.709h1.801v1.98h-1.801v0.793c0.486,0.666,1.783,2.646,2.089,3.133L127.383,285.866z M132.28,286.604
			c-0.648,2.215-2.034,3.781-3.727,4.646c-0.234-0.396-0.756-1.027-1.098-1.369c0.99-0.449,1.909-1.26,2.503-2.25h-1.963v-1.441
			h2.809l0.306-0.053L132.28,286.604z M138.709,285.741c-0.882,0.648-1.836,1.314-2.647,1.818c0.828,0.846,1.854,1.53,2.989,1.944
			c-0.415,0.36-0.973,1.099-1.261,1.566c-1.296-0.63-2.431-1.638-3.313-2.881v1.405c0,0.899-0.162,1.367-0.774,1.656
			c-0.594,0.287-1.387,0.306-2.485,0.306c-0.054-0.54-0.306-1.278-0.54-1.747c0.63,0.019,1.314,0.019,1.512,0
			c0.216,0,0.288-0.053,0.288-0.252v-3.979h-2.953v-1.459h4.321c-0.829-0.342-1.747-0.684-2.539-0.918l0.522-0.576h-3.673v-1.566
			h4.285v-0.702h-3.133v-1.458h3.133v-0.666h-3.781v-1.514h1.908c-0.216-0.468-0.522-0.99-0.81-1.422l1.566-0.576
			c0.414,0.54,0.882,1.314,1.099,1.801l-0.468,0.197h2.899l-0.36-0.125c0.324-0.541,0.72-1.352,0.937-1.873l1.891,0.54
			c-0.396,0.54-0.756,1.026-1.081,1.458h2.215v1.514h-3.961v0.666h3.529v1.458h-3.529v0.702h4.268v1.566h-4.483
			c0.846,0.307,1.692,0.648,2.25,0.973l-1.134,1.277c-0.252-0.144-0.558-0.305-0.918-0.467v0.899
			c0.18,0.396,0.396,0.757,0.648,1.116c0.72-0.576,1.512-1.296,2.017-1.854L138.709,285.741z"/>
		<path class="st1" d="M102.506,311.803c-0.126,1.584-0.414,3.295-0.774,4.375c-0.342-0.198-1.099-0.432-1.531-0.522
			c0.396-1.062,0.612-2.665,0.72-4.104L102.506,311.803z M100.868,306.832c-0.09-0.359-0.378-1.242-0.594-1.71
			c0.342-0.09,0.63-0.433,0.972-0.972c0.36-0.486,1.458-2.485,2.088-4.375l1.729,0.701c-0.63,1.494-1.458,3.061-2.322,4.34
			l1.26-0.09c0.45-0.793,0.9-1.639,1.278-2.485l1.566,1.009c-1.008,1.944-2.341,3.961-3.709,5.6l1.999-0.271
			c-0.18-0.522-0.378-1.044-0.594-1.494l1.404-0.522c0.522,1.062,1.026,2.484,1.17,3.367l-1.477,0.612
			c-0.018-0.144-0.054-0.306-0.09-0.486c-3.565,0.576-4.159,0.738-4.555,0.919c-0.09-0.343-0.396-1.243-0.594-1.729
			c0.432-0.109,0.828-0.523,1.351-1.207c0.252-0.27,0.702-0.864,1.224-1.639c-1.422,0.162-1.836,0.271-2.106,0.396V306.832z
			 M104.289,311.424c0.216,1.17,0.414,2.684,0.468,3.709l-1.531,0.396c-0.018-1.045-0.198-2.574-0.378-3.745L104.289,311.424z
			 M116.658,314.864c0,0.684-0.09,1.045-0.486,1.297c-0.36,0.252-0.828,0.27-1.458,0.27c-0.036-0.432-0.198-1.008-0.396-1.422
			c0.252,0.018,0.468,0.018,0.576,0.018c0.108,0,0.144-0.036,0.144-0.18v-1.837h-0.792v3.204h-1.152v-3.204h-0.738v3.295h-1.152
			v-3.295h-0.774v3.528h-1.53v-5.311c-0.216,1.854-0.576,3.709-1.134,5.203c-0.36-0.324-1.243-0.811-1.692-0.973
			c0.18-0.468,0.324-0.954,0.432-1.477l-0.972,0.36c-0.144-0.792-0.504-2.052-0.81-2.989l1.368-0.449
			c0.252,0.63,0.468,1.368,0.648,2.053c0.558-2.773,0.612-5.906,0.612-8.104v-3.924c2.665-0.217,5.653-0.631,7.4-1.189l1.548,1.423
			c-1.999,0.595-4.609,0.954-7.058,1.188v0.63h7.004v4.447h-7.058l-0.036,0.847h7.508V314.864z M109.24,304.619v0.216
			c0,0.307,0,0.631,0,0.973h5.113v-1.188H109.24z M111.203,311.352v-1.367h-0.774v1.367H111.203z M113.093,311.352v-1.367h-0.738
			v1.367H113.093z M115.038,311.352v-1.367h-0.792v1.367H115.038z"/>
		<path class="st1" d="M137.916,303.268v13.198h-2.106v-0.973h-10.803v0.991h-2.035v-13.217h4.195v-3.367h2.106v3.367h2.161v-3.367
			h2.107v3.367H137.916z M125.007,305.357v3.007h2.161v-3.007H125.007z M125.007,313.387h2.161v-2.988h-2.161V313.387z
			 M129.274,305.357v3.007h2.161v-3.007H129.274z M129.274,310.399v2.988h2.161v-2.988H129.274z M133.541,305.357v3.007h2.269
			v-3.007H133.541z M135.81,313.387v-2.988h-2.269v2.988H135.81z"/>
	</g>
	<g class="st23">
		<g>
			<g>
				<path class="st8" d="M99.34,582.738l-0.452-0.469C99.1,582.49,99.237,582.632,99.34,582.738z"/>
				<path class="st8" d="M102.434,586.285l0.112,0.056C102.383,586.193,102.31,586.138,102.434,586.285z"/>
				<path class="st8" d="M125.999,599.329c0.194-0.205,0.462-0.504,0.832-0.934L125.999,599.329z"/>
				<path class="st8" d="M81.585,564.167l-0.623-0.46C81.818,564.547,81.48,564.138,81.585,564.167z"/>
				<path class="st8" d="M86.702,481.183c0.058-0.038,0.125-0.082,0.179-0.118C86.888,481.042,86.812,481.098,86.702,481.183z"/>
				<path class="st8" d="M173.027,534.633c-0.003,0.018-0.006,0.032-0.009,0.052C173.069,534.51,173.06,534.54,173.027,534.633z"/>
				<path class="st8" d="M65.246,524.862c0.001-0.041,0.005-0.087,0.013-0.132C65.247,524.112,65.235,524.383,65.246,524.862z"/>
				<path class="st8" d="M148.579,573.371c0.017-0.022,0.028-0.035,0.044-0.055c-0.02,0.02-0.046,0.045-0.064,0.063L148.579,573.371
					z"/>
				<path class="st8" d="M147.143,575.027c0.539-0.773,0.913-1.15,1.415-1.647l-0.718,0.319L147.143,575.027z"/>
				<path class="st8" d="M174.16,524.436c-0.061-0.669-0.134-1.464-0.188-2.056c-0.14,0.368,0.149,2.712,0.119,3.896
					c-0.072,0-0.138-0.26-0.197-0.696c0.004-0.258,0.019-0.513,0.019-0.771c0-3.347-0.319-6.617-0.9-9.797
					c-0.083-0.514-0.18-1.066-0.297-1.641c-0.086-0.339-0.175-0.69-0.263-1.039c-0.143-0.608-0.294-1.212-0.458-1.812
					c-0.013-0.053-0.027-0.108-0.041-0.161c-0.121-0.497-0.24-0.981-0.352-1.44c-0.108-0.46-0.284-0.87-0.399-1.255
					c-0.094-0.206-0.21-0.47-0.309-0.689c-1.424-4.085-3.324-7.944-5.632-11.517c0.085,0.096,0.179,0.204,0.044-0.05
					c-0.037-0.01-0.131-0.116-0.256-0.281c-9.68-14.746-26.352-24.49-45.309-24.49c-1.236,0-2.458,0.056-3.674,0.138
					c-0.513-0.059-0.967-0.124-0.897-0.216c-0.807,0.103-1.869,0.209-3.068,0.327c-1.193,0.137-2.543,0.217-3.812,0.66
					c-0.581,0.1,0.471-0.199,0.155-0.174c-0.636,0.268-1.421,0.491-2.9,0.825l0.16-0.067c-1.023,0.295-1.931,0.444-2.718,0.754
					c-0.797,0.279-1.531,0.536-2.281,0.798c-0.749,0.265-1.525,0.507-2.377,0.832c-0.83,0.382-1.75,0.806-2.838,1.307l0.371-0.049
					c-0.934,0.433-1.146,0.494-1.594,0.678c-0.433,0.295,0.024,0.087,0.594-0.182c-2.002,0.952-5.361,3.158-6.086,3.415
					c-1.272,0.948,0.449-0.167-0.82,0.78l-0.379,0.192l-0.265,0.315c-0.84,0.609-1.316,0.851-1.385,0.826
					c0.207-0.145,0.564-0.444,0.778-0.61c-0.561,0.377-1.338,0.932-1.977,1.478c-0.614,0.577-1.139,1.084-1.32,1.229l1.158-0.992
					c-1.551,1.511-3.449,3.006-4.978,4.847c-0.786,0.896-1.631,1.737-2.326,2.654c-0.679,0.929-1.329,1.835-1.924,2.692l0.234-0.222
					c-0.456,0.653-0.783,1.103-1.047,1.459c-0.236,0.373-0.411,0.65-0.593,0.937c-0.37,0.566-0.766,1.163-1.654,2.67l0.055-0.115
					c-0.169,0.317-0.359,0.674-0.563,1.058c-0.18,0.403-0.38,0.831-0.59,1.26c0.326-0.826-0.834,1.442-0.394,0.365
					c-0.702,1.584-0.868,1.977-0.959,2.243c-0.041,0.129-0.075,0.236-0.138,0.436c-0.072,0.198-0.174,0.501-0.31,1.06l-0.265,0.459
					c-0.19,0.759-0.172,0.835-0.747,2.477c0.417-1.368-0.514,1.001-0.061-0.539c-0.347,0.849-0.683,1.582-0.853,2.271
					c-0.172,0.689-0.305,1.294-0.425,1.839c-0.24,1.089-0.428,1.93-0.78,2.715c-0.171,1.681,0.926-3.041,0.744-2.116
					c0.276-0.741-0.162,1.387-0.471,2.489c-0.185,1.148-0.619,1.902-1.06,4.823c0.036-0.289,0.039-0.313,0.075-0.601
					c-0.277,1.081-0.134,2.156-0.313,3.5c0.114,0.766-0.097,1.756,0.087,1.98l0.091-2.698c-0.013,0.766,0.019,1.51,0.025,2.374
					c0.003,0.432,0,0.894-0.02,1.404c0,0.51,0,1.065,0,1.7c-0.044-0.195-0.114-0.942-0.155-1.457
					c-0.04,0.738,0.072,1.417,0.032,2.183c-0.1-0.105-0.131-0.926-0.16-1.925c-0.001-0.999,0.092-2.174,0.049-2.999
					c-0.123,0.791-0.015,3.109-0.185,2.282c0.252,1.184-0.029,2.915,0.347,4.895l-0.126-0.122c0.043,0.316,0.133,0.974,0.21,1.541
					c-0.097-0.343-0.184-0.687-0.254-1.034c0.285,1.597,0.219,3.124,0.574,4.647c-0.286-1.605-0.262-1.793-0.207-1.748
					c0.052,0.045,0.144,0.321,0.103-0.366c0.732,3.611,0.105,2.57,0.867,5.792c-0.106-0.544-0.151-0.973,0.012-0.402
					c0.167,0.839,0.446,1.935,0.518,2.462c0.902,2.842-0.037-0.466,0.413,0.722c0.188,1.002,0.482,1.381,0.975,2.585l-0.108,0.049
					c1.138,3.194,0.515,0.763,1.623,3.597l-0.663-1.117l0.671,1.443l-0.254-0.246c0.377,0.781,0.675,1.268,0.914,1.778
					c0.253,0.503,0.466,1.022,0.869,1.769c-0.116-0.385,0.297,0.093,1.02,1.402c0.468,0.909-0.397-0.431,0.725,1.374
					c-0.306-0.374-0.686-0.764-1.04-1.629c-0.079-0.064-0.293-0.379-0.374-0.446c0.434,1.025,1.405,2.396,1.796,3.061
					c-0.152-0.255-0.331-0.563-0.412-0.727c0.564,0.862,1.225,1.659,1.834,2.486c0.235,0.428-0.009,0.13-0.252-0.167
					c0.352,0.517,0.671,0.821,1.223,1.554c-0.219-0.134-0.267-0.026-1.08-1.049c0.619,0.766,1.218,1.545,1.858,2.29
					c0.091,0.178,0.869,1.243,0.599,0.969c0.977,1.325,2.789,2.905,4.288,4.436c0.093,0.065,0.266,0.21,0.602,0.521
					c1.431,1.437,2.569,2.779,4.341,4.37l0.816,1.087c1.319,1.316-1.11-1.47,1.087,0.722c1.562,1.546,0.462,0.694,0.961,1.282
					c0.826,0.72,2.254,1.986,3.525,3.56c-0.48-0.466-0.818-0.867-1.253-1.314l0.979,1.19c-1.381-1.249-2.256-2.267-1.371-1.12
					c0.398-0.075,4.096,4.347,4.47,4.295l0.629,0.798c-0.199-0.21-0.232-0.245-0.429-0.453c1.201,1.571,1.176,0.911,2.822,2.849
					c0.568,0.68,0.941,1.175,0.511,0.749l1.37,1.423c0.376,0.434,0.239,0.367-0.135-0.065l1.993,2.255l-0.022-0.01
					c0.32,0.29,1.018,0.974,1.355,1.311c0.464,0.61-0.278-0.267-0.182-0.092l1.142,1.217c0.37,0.577-0.578-0.431-1.322-1.308
					c0.761,1.396,0.96,0.999,2.981,3.688l-1.048-1.174c0.512,0.894,1.354,1.79,2.392,3.237c-0.22-0.364-2.041-2.932-0.824-1.593
					c0.306,0.409,0.724,0.934,1.398,1.642c-0.088,0.085,0.55,0.793,1.302,1.717l-0.173,0.036c0.847,0.971,0.845,0.842,1.378,1.386
					c0.895,1.123,0.976,1.439,1.109,1.766c1.413,1.813-0.836-1.364,0.883,0.746c1.141,1.536,2.02,2.552,3.488,4.309
					c0.773,1.094-0.219-0.127,0.038,0.281l0.818,0.868c0.173,0.233,0.086,0.182,0.041,0.156c0.641,0.768,0.179-0.032,1.154,1.201
					c0.101,0.073,0.182,0.163,0.425,0.504c0.222,0.328,0.511,0.756,0.839,1.24c0.429-0.538,0.917-1.15,1.399-1.754
					c0.376-0.48,0.742-0.972,1.028-1.441c0.325-0.355-0.063,0.243,0.074,0.163c1.517-2.199,1.31-1.877,2.523-3.712l1.234-1.406
					c-0.944,1.004,0.032-0.46,0.903-1.732c-0.064,0.064-0.115,0.116-0.176,0.177c0.121-0.151,0.246-0.308,0.37-0.462
					c-0.066,0.098-0.125,0.183-0.194,0.285c0.064-0.064,0.132-0.131,0.198-0.197c0.065-0.115,0.121-0.214,0.181-0.32
					c0.247-0.308,0.501-0.623,0.759-0.943c0.042,0.024-0.113,0.302-0.313,0.633c-0.21,0.211-0.421,0.423-0.627,0.63
					c-0.303,0.534-0.573,1.043-0.422,1.002c0.085-0.136,0.264-0.386,0.468-0.655c-0.078,0.14-0.123,0.234-0.065,0.186
					c0.065-0.055,0.197-0.276,0.415-0.615l0.484-0.326l0.031-0.149l2.106-2.42c1.322-1.882,2.392-3.59,4.697-6.416
					c-0.486,0.774,0.035,0.285,0.119,0.421c-0.761,0.658-1.778,2.191-3.003,3.627c0.641-0.748,0.559-0.535,0.418-0.325l2.055-2.67
					c0.046,0.139,0.532-0.486,1.14-1.123c-0.622,0.343,1.516-2.005,2.355-3.092c0.118-0.01-0.033,0.294-1.141,1.545
					c1.346-1.272,1.334-1.997,2.657-3.246c-0.269,0.307-0.424,0.463-0.5,0.612c0.577-0.763,2.165-2.469,1.855-2.011l-0.269,0.306
					c1.81-2.016,5.533-6.114,5.666-6.543c0.038-0.001-0.057,0.431-0.138,0.58c0.651-0.931,1.297-1.87,1.949-2.804
					c0.335-0.355,0.674-0.711,1.013-1.068c0.274-0.006,0.664-0.08-0.37,1.1c0.464-0.449,1.039-1.002,1.935-2.027
					c-0.323,0.299-0.948,0.611-0.543,0.166c1.288-1.052,0.871-0.753,2.403-2.101c-0.485,0.448-0.181-0.279,0.562-1.01
					c-0.084,0.145,0.259,0.134,0.012,0.425l1.629-2.036c-0.421,0.495,0.084,0.248,0.546-0.106c-0.227,0.152,1.574-1.586,2.063-2.092
					l-0.833,0.73c1.065-1.018,1.515-1.599,1.959-2.177c0.444-0.578,0.897-1.139,1.859-2.233c-0.192,0.299-0.326,0.889,0.699-0.2
					c0.188-0.323,0.586-1.082,1.123-2.037c0.661-0.825,1.305-1.662,1.918-2.526c-0.646,1.226-1.42,2.578-2.054,3.444
					c0.743-0.822,0.288-0.164,1.297-1.482c0.331-0.336-0.149,0.367-0.521,0.854c0.328-0.393,0.651-0.79,0.959-1.2
					c0.385-0.518,0.802-1.014,1.161-1.552c-0.227,0.05,1.52-2.545,1.291-2.513c-0.328,0.618-0.707,1.205-1.073,1.801
					c-0.363,0.599-0.735,1.192-1.141,1.764c-0.233,0.035,1.088-2.202,2.487-4.527c0.418-0.558-0.018,0.594,0.058,0.576
					c0.065-0.168,0.39-0.73,0.694-1.288c0.293-0.565,0.59-1.111,0.668-1.212l-0.481,1.06c0.394-0.653,0.645-1.225,0.924-1.823
					c0.26-0.608,0.533-1.249,1.008-2.036c0.291-0.559,0.953-1.642,0.914-1.778c-0.35,0.524-0.705,0.705-0.907,0.626
					c0.289-0.649,0.571-1.301,0.835-1.963l0.028,0.109l0.144-0.386l-0.064-0.009c0.264-0.672,0.52-1.348,0.757-2.032
					c0.222-0.213-0.277,1.673,0.094,0.977c-0.032-0.053,0.129-0.604,0.181-0.838c0.241-0.617,0.048,0.307,0.473-1.069
					c-0.067-0.274,0.883-2.788,0.075-0.689c0.374-1.353,0.44-1.426,0.878-3.017c-0.149,0.32-0.111-0.458-0.002-1.418
					c0.128-0.582,0.251-1.165,0.36-1.754c0.011-0.03,0.022-0.062,0.031-0.086c0.128-0.704,0.242-1.327,0.348-1.907
					c0.082-0.583,0.158-1.123,0.233-1.656c0.176-1.065,0.23-2.119,0.34-3.452c0.059-0.243,0.131-1.535,0.192-0.982
					c-0.02-0.387-0.068-0.742-0.053-1.568c0.16-1.6-0.008,1.844,0.182,0.626C174.209,525.641,174.229,525.104,174.16,524.436z
					 M128.291,596.192c0.257-0.332,0.56-0.698,0.916-1.089C129.028,595.385,128.691,595.771,128.291,596.192z M95.992,475.843
					c-0.262,0.043-0.646,0.193-1.101,0.407C95.608,475.911,96.478,475.489,95.992,475.843z M105.922,590.341
					c0.43,0.301,0.639,0.639,1.091,1.25C106.713,591.262,106.078,590.636,105.922,590.341z"/>
				<path class="st8" d="M66.496,538.006c0.064,0.329,0.15,0.701,0.225,0.92C66.634,538.58,66.562,538.282,66.496,538.006z"/>
				<path class="st8" d="M162.677,558.911c-0.086,0.103-0.162,0.212-0.25,0.313C162.492,559.149,162.582,559.035,162.677,558.911z"
					/>
				<path class="st8" d="M126.847,598.293c-0.094,0.086-0.133,0.099-0.169,0.109C126.585,598.551,126.6,598.568,126.847,598.293z"/>
				<path class="st8" d="M81.7,564.252l-0.049-0.05c-0.033-0.022-0.052-0.032-0.066-0.035L81.7,564.252z"/>
				<path class="st8" d="M171.376,542.749c-0.154,0.4-0.269,0.614-0.343,0.756C171.049,543.535,171.15,543.365,171.376,542.749z"/>
				<path class="st8" d="M173.43,517.078l0.159,0.027l-0.174-0.748C173.456,516.795,173.433,516.828,173.43,517.078z"/>
				<path class="st8" d="M174.11,521.343c-0.05-0.163-0.168-1.785-0.127-0.291C174.033,521.21,174.223,523.403,174.11,521.343z"/>
				<path class="st8" d="M159.555,562.215c-0.781,0.861-1.243,1.264-0.745,1.005c1.41-1.321,0.238-0.401,1.472-1.646
					C160.543,561.197,159.281,562.598,159.555,562.215z"/>
				<path class="st8" d="M159.555,562.215c0.115-0.146,0.238-0.301,0.371-0.469C159.712,562.008,159.614,562.135,159.555,562.215z"
					/>
				<path class="st8" d="M108.944,594.428l0.089,0.048c-0.089-0.173-0.27-0.397-0.633-0.845L108.944,594.428z"/>
				<polygon class="st8" points="98.196,581.682 98.384,581.899 98.136,581.401 				"/>
				<path class="st8" d="M88.555,571.543c0.4,0.407,0.87,0.886,1.272,1.295C88.946,571.959,88.578,571.307,88.555,571.543z"/>
			</g>
		</g>
	</g>
	<g>
		<path class="st1" d="M116.649,510.741c-0.648,1.711-1.584,3.241-2.719,4.537c0.432,3.386,1.081,5.799,1.639,5.799
			c0.252,0,0.414-0.919,0.468-2.881c0.396,0.486,1.062,0.954,1.584,1.17c-0.306,2.971-0.882,3.745-2.323,3.745
			c-1.566,0-2.575-2.593-3.169-6.157c-0.342,0.27-0.702,0.504-1.062,0.738c-0.162-0.217-0.45-0.505-0.738-0.811h-2.125
			c0.504,0.811,1.116,1.872,1.386,2.484l-1.404,0.756c-0.198-0.54-0.612-1.332-1.008-2.07v3.025c0,0.468,0.072,0.521,0.522,0.521
			h1.296c0.415,0,0.504-0.27,0.541-1.908c0.27,0.197,0.738,0.396,1.152,0.521c-0.252-0.611-0.504-1.224-0.738-1.764l1.404-0.541
			c0.576,1.225,1.278,2.863,1.621,3.836l-1.513,0.648c-0.108-0.396-0.288-0.919-0.504-1.477c-0.198,1.656-0.666,2.124-1.783,2.124
			h-1.747c-1.584,0-1.944-0.468-1.944-1.944v-3.061h1.674l-0.342-0.612l1.116-0.54h-3.457v-4.16h5.87v3.08
			c0.522-0.324,1.008-0.703,1.458-1.117c-0.18-1.566-0.288-3.24-0.378-4.897h-7.4v0.774h6.896v1.422h-6.896
			c-0.036,3.205-0.36,8.066-1.909,11.29c-0.36-0.343-1.242-0.954-1.71-1.116c1.513-3.115,1.657-7.635,1.657-10.605v-3.457h9.309
			c-0.018-0.559-0.036-1.116-0.036-1.674h2.071v0.576l1.134-0.793c0.576,0.414,1.386,1.008,1.801,1.387l-0.667,0.504h1.44v1.692
			h-3.655c0.036,0.919,0.09,1.837,0.162,2.72c0.45-0.703,0.811-1.441,1.099-2.252L116.649,510.741z M103.182,522.031
			c0.306-1.116,0.648-2.791,0.81-3.997l1.369,0.521c-0.18,1.135-0.468,2.917-0.702,4.033L103.182,522.031z M108.673,514.163h-2.449
			v1.296h2.449V514.163z M114.525,508.094c-0.342-0.307-0.756-0.63-1.116-0.918c0,0.306,0,0.611,0,0.918H114.525z"/>
		<path class="st1" d="M136.287,515.602c-0.81,1.766-1.999,3.133-3.457,4.195c1.729,0.613,3.745,1.027,5.96,1.225
			c-0.45,0.486-1.026,1.423-1.314,1.999c-2.611-0.324-4.934-0.937-6.878-1.891c-2.071,0.99-4.466,1.585-7.004,1.927
			c-0.216-0.504-0.81-1.459-1.26-1.891c2.25-0.234,4.339-0.648,6.122-1.314c-1.098-0.774-2.052-1.729-2.845-2.827l0.594-0.252
			h-0.846v-1.962h9.093l0.396-0.091L136.287,515.602z M124.764,515.477h-1.999v-3.908h2.575c-0.18-0.558-0.522-1.277-0.846-1.854
			l1.603-0.451c-0.9,0.055-1.819,0.091-2.683,0.108c-0.036-0.54-0.288-1.351-0.486-1.818c4.735-0.162,10.155-0.595,13.432-1.225
			l1.44,1.729c-1.945,0.36-4.268,0.648-6.662,0.864c0.36,0.721,0.702,1.675,0.81,2.322l-1.333,0.324h3.133
			c0.432-0.828,0.9-1.891,1.17-2.7l2.287,0.54c-0.415,0.756-0.882,1.494-1.296,2.16h2.557v3.908h-2.089v-2.053h-11.613V515.477z
			 M131.012,508.923c-1.513,0.145-3.079,0.252-4.609,0.324c0.414,0.666,0.828,1.477,1.008,2.053l-0.937,0.27h3.439
			c-0.108-0.63-0.378-1.529-0.684-2.232L131.012,508.923z M127.878,516.773c0.738,0.81,1.657,1.495,2.737,2.089
			c0.955-0.576,1.801-1.261,2.449-2.089H127.878z"/>
		<path class="st1" d="M112.148,533.077c1.656,1.549,3.799,3.763,4.735,5.275l-1.819,1.314c-0.234-0.396-0.558-0.864-0.936-1.369
			c-9.561,0.469-10.839,0.505-11.793,0.828c-0.108-0.432-0.45-1.494-0.702-2.052c0.468-0.126,0.9-0.468,1.494-1.044
			c0.63-0.559,2.593-2.737,3.817-4.898l2.161,0.919c-1.134,1.675-2.557,3.276-3.925,4.591l7.382-0.234
			c-0.702-0.791-1.422-1.548-2.089-2.214L112.148,533.077z M102.93,540.315h12.135v7.886h-2.305v-0.899h-7.634v0.918h-2.196V540.315
			z M105.126,542.368v2.881h7.634v-2.881H105.126z"/>
		<path class="st1" d="M130.039,543.052l0.378,1.908c-2.539,1.099-5.312,2.197-7.437,3.043l-0.954-2.196h-0.018
			c1.225-0.378,2.953-0.972,4.79-1.603v-6.392h-4.159v-2.144h4.159v-3.961h2.232v11.704L130.039,543.052z M135.909,545.608
			c0.666,0,0.774-0.846,0.882-4.068c0.522,0.414,1.458,0.863,2.053,1.008c-0.198,3.727-0.702,5.149-2.737,5.149h-2.143
			c-1.98,0-2.575-0.757-2.575-3.241v-12.729h2.232v3.925h4.7v2.125h-4.7v6.697c0,0.973,0.09,1.135,0.685,1.135H135.909z"/>
	</g>
	<g>
		<path class="st8" d="M226.934,276.698c-0.555,0.149-1.11,0.314-1.68,0.465v3.614c0,0.841-0.15,1.261-0.615,1.545
			c-0.465,0.271-1.11,0.33-2.04,0.33c-0.06-0.45-0.27-1.17-0.495-1.635c0.48,0.03,0.975,0.03,1.14,0.015
			c0.18,0,0.255-0.06,0.255-0.24v-3.18c-0.51,0.135-0.975,0.256-1.425,0.375l-0.435-1.709c0.54-0.105,1.17-0.256,1.86-0.406v-2.729
			h-1.605v-1.649h1.605v-2.82h1.755v2.82h1.38v1.649h-1.38v2.28l1.455-0.375L226.934,276.698z M233.068,280.642
			c0.84,0,0.99-0.39,1.14-2.069c0.42,0.299,1.2,0.6,1.725,0.719c-0.24,2.25-0.825,3.075-2.7,3.075h-3.255
			c-2.07,0-2.73-0.555-2.73-2.79v-10.199h7.964v8.369h-1.875v-0.944h-4.23v2.79c0,0.914,0.135,1.05,1.065,1.05H233.068z
			 M229.108,271.133v3.976h1.275v-3.976H229.108z M233.338,271.133h-1.29v3.976h1.29V271.133z"/>
		<path class="st8" d="M252.748,279.323c-0.585,0.299-1.17,0.6-1.725,0.854c0.585,0.421,1.275,0.766,2.085,0.976
			c-0.345,0.33-0.825,0.931-1.05,1.365c-1.995-0.675-3.3-2.085-4.065-4.005c-0.435,0.375-0.915,0.72-1.455,1.035v1.289l2.115-0.404
			c-0.045,0.39-0.045,0.975-0.015,1.305c-2.775,0.6-3.27,0.734-3.555,0.915c-0.09-0.345-0.36-0.915-0.57-1.2
			c0.27-0.119,0.6-0.42,0.6-1.02v-0.135c-0.42,0.18-0.825,0.314-1.23,0.449c-0.165-0.254-0.435-0.584-0.69-0.869l0.015,0.104
			c-1.38,0.405-2.85,0.78-4.065,1.11l-0.3-1.62c0.435-0.091,0.915-0.21,1.47-0.345v-3.69h-1.17v-1.545h1.17v-2.79h-1.275v-1.56
			h4.065v1.56h-1.23v2.79h1.095v1.545h-1.095v3.315l1.125-0.301l0.135,1.021c1.065-0.285,2.175-0.705,3.075-1.216h-1.725v-3.284
			h7.47v3.284h-2.505c0.165,0.375,0.39,0.721,0.645,1.021c0.555-0.315,1.11-0.704,1.485-1.005L252.748,279.323z M252.793,274.448
			h-9.18v-1.41h9.18V274.448z M252.313,272.557h-8.174v-3.404h8.174V272.557z M246.523,270.352h-0.945v1.006h0.945V270.352z
			 M246.059,277.028h4.214v-0.841h-4.214V277.028z M248.653,270.352h-0.96v1.006h0.96V270.352z M250.783,270.352h-0.99v1.006h0.99
			V270.352z"/>
		<path class="st8" d="M261.329,279.067c-1.545,0.645-3.255,1.335-4.605,1.859l-0.585-1.829c0.495-0.149,1.08-0.33,1.725-0.556
			v-4.619h-1.455v-1.695h1.455v-3.359h1.74v3.359h1.275v1.695h-1.275v4.02c0.465-0.164,0.915-0.33,1.38-0.494L261.329,279.067z
			 M268.258,281.093c0.105,0,0.225,0,0.3-0.03s0.135-0.12,0.18-0.3c0.03-0.18,0.045-0.586,0.06-1.125
			c0.3,0.285,0.945,0.585,1.365,0.734c-0.045,0.555-0.105,1.155-0.225,1.41c-0.135,0.256-0.345,0.436-0.63,0.555
			c-0.225,0.09-0.645,0.135-0.93,0.135h-0.96c-0.39,0-0.87-0.119-1.14-0.359c-0.285-0.255-0.42-0.57-0.42-1.484v-1.815h-1.08
			c-0.255,1.979-1.005,3.21-3.81,3.915c-0.15-0.405-0.57-1.064-0.915-1.365c2.31-0.449,2.85-1.215,3.06-2.55h-1.245v-4.53h7.185
			v4.53h-1.545v1.86c0,0.195,0,0.3,0.06,0.359c0.06,0.045,0.15,0.061,0.27,0.061H268.258z M269.788,273.772h-8.504v-1.47h1.814
			c-0.075-0.33-0.21-0.69-0.33-0.989l1.44-0.285c0.18,0.375,0.375,0.899,0.465,1.274h1.695c0.165-0.42,0.33-0.899,0.435-1.274
			l1.62,0.299c-0.18,0.346-0.33,0.676-0.495,0.976h1.86V273.772z M269.398,271.012h-7.694v-1.439h2.97
			c-0.09-0.24-0.18-0.495-0.255-0.705l1.68-0.315c0.135,0.3,0.285,0.69,0.405,1.021h2.895V271.012z M263.503,276.022h3.84v-0.63
			h-3.84V276.022z M263.503,277.687h3.84v-0.63h-3.84V277.687z"/>
		<path class="st8" d="M286.693,271.268v7.484h-1.875v-0.75h-3.39v4.68h-1.89v-4.68h-3.375v0.824h-1.8v-7.559h5.175v-2.596h1.89
			v2.596H286.693z M279.539,276.247v-3.225h-3.375v3.225H279.539z M284.818,276.247v-3.225h-3.39v3.225H284.818z"/>
		<path class="st8" d="M299.848,273.517c1.605,1.155,3.915,2.88,4.995,4.065l-1.515,1.365c-0.93-1.111-2.97-2.82-4.59-4.065v7.77
			h-1.95v-7.319c-1.365,1.455-2.97,2.76-4.77,3.689c-0.285-0.48-0.84-1.215-1.23-1.619c2.73-1.275,5.07-3.601,6.465-5.896h-5.985
			v-1.83h13.004v1.83h-4.665c-0.255,0.465-0.555,0.931-0.87,1.38v1.561L299.848,273.517z"/>
		<path class="st8" d="M321.388,280.628c0,0.93-0.195,1.439-0.765,1.725c-0.57,0.3-1.41,0.345-2.655,0.345
			c-0.075-0.495-0.345-1.305-0.615-1.771c0.795,0.046,1.665,0.046,1.92,0.031c0.255-0.016,0.36-0.105,0.36-0.346v-9.539h-9.225
			v11.609h-1.74v-13.305h12.72V280.628z M318.748,273.622h-7.484v-1.499h7.484V273.622z M313.619,279.788v0.989h-1.65v-5.999h6.105
			v5.01H313.619z M313.619,276.247v2.07h2.805v-2.07H313.619z"/>
		<path class="st8" d="M338.893,270.983c0,0,0,0.6-0.015,0.81c-0.195,6.704-0.36,9.089-0.975,9.884
			c-0.42,0.556-0.84,0.721-1.44,0.826c-0.57,0.074-1.47,0.06-2.355,0.029c-0.03-0.494-0.27-1.244-0.585-1.74
			c0.96,0.09,1.845,0.09,2.235,0.09c0.3,0,0.465-0.06,0.66-0.254c0.435-0.48,0.63-2.73,0.795-8.025h-3.21
			c-0.39,0.9-0.855,1.725-1.32,2.37c-0.24-0.226-0.75-0.569-1.155-0.84v7.005h-4.005v1.095h-1.62v-11.145h1.695
			c0.195-0.75,0.375-1.71,0.435-2.415l1.95,0.27c-0.255,0.75-0.525,1.5-0.78,2.146h2.325v2.43c0.87-1.26,1.59-3.075,2.025-4.829
			l1.695,0.39c-0.15,0.646-0.36,1.274-0.585,1.905H338.893z M329.909,272.647h-2.385v2.43h2.385V272.647z M329.909,279.562v-2.94
			h-2.385v2.94H329.909z M334.888,278.753c-0.42-0.9-1.35-2.37-2.085-3.465l1.395-0.795c0.75,1.035,1.74,2.459,2.205,3.33
			L334.888,278.753z"/>
		<path class="st8" d="M354.103,280.343h2.04v1.229h-2.04v1.125h-1.77v-1.125h-9.495v-1.229h2.13v-3.645h-1.68v-1.23h0.075
			c-0.27-0.165-0.585-0.346-0.765-0.436c0.765-0.689,0.87-1.545,0.87-2.205v-0.914h5.655v2.475h-4.5
			c-0.12,0.391-0.285,0.75-0.54,1.08h5.775c-0.135-0.359-0.405-0.84-0.645-1.125c0.72-0.075,1.425-0.21,2.055-0.391
			c-0.42-0.33-0.78-0.705-1.065-1.139l0.48-0.136h-0.855v-0.944c-0.21-0.24-0.465-0.511-0.63-0.615
			c1.14-0.391,1.305-0.855,1.305-1.365v-0.734h4.095v1.229c0,0.271,0.015,0.405,0.24,0.405h0.51c0.18,0,0.585-0.03,0.765-0.09
			c0.03,0.359,0.045,0.705,0.09,1.064c-0.18,0.074-0.54,0.09-0.825,0.09h-0.615l0.825,0.301c-0.33,0.809-0.855,1.454-1.515,1.949
			c0.645,0.18,1.38,0.3,2.175,0.359c-0.285,0.285-0.63,0.781-0.81,1.141h0.345v1.23h-1.68V280.343z M345.434,270.203h-2.55v-0.9
			h2.55v-0.646h1.605v0.646h2.46v0.9h-2.46v0.435h2.07v0.885h-5.79v-0.885h2.115V270.203z M344.818,272.767v0.091
			c0,0.209-0.015,0.435-0.03,0.674h0.84v-0.765H344.818z M346.693,276.698v0.51h5.64v-0.51H346.693z M346.693,278.782h5.64v-0.525
			h-5.64V278.782z M352.333,280.343v-0.51h-5.64v0.51H352.333z M347.758,272.767h-0.885v0.765h0.885V272.767z M355.108,275.468
			c-0.915-0.15-1.725-0.375-2.43-0.689c-0.72,0.299-1.5,0.524-2.37,0.689H355.108z M351.838,270.173
			c-0.075,0.57-0.315,1.109-0.915,1.561h3.48l0.09-0.016h-0.045c-1.095,0-1.275-0.495-1.275-1.47v-0.075H351.838z M351.628,272.677
			c0.24,0.285,0.57,0.524,0.96,0.72c0.375-0.195,0.69-0.435,0.96-0.72H351.628z"/>
		<path class="st8" d="M373.498,273.307v1.59h-13.455v-1.59h3.285c-0.135-0.51-0.36-1.095-0.6-1.56l1.455-0.285h-3.3v-1.575h5.055
			c-0.12-0.375-0.3-0.765-0.465-1.08l1.86-0.3c0.255,0.42,0.48,0.931,0.63,1.38h4.83v1.575h-3.104l1.38,0.3
			c-0.255,0.555-0.51,1.08-0.75,1.545H373.498z M361.904,275.812h9.884v6.885h-1.875v-0.51h-6.225v0.524h-1.785V275.812z
			 M363.688,277.298v0.99h6.225v-0.99H363.688z M369.913,280.718v-1.08h-6.225v1.08H369.913z M364.514,271.463
			c0.36,0.569,0.66,1.305,0.765,1.845h3.09c0.24-0.555,0.51-1.26,0.675-1.845H364.514z"/>
		<path class="st8" d="M390.688,270.817c-0.315,3.271-1.035,5.85-2.16,7.86c0.735,1.005,1.635,1.845,2.715,2.43
			c-0.405,0.33-0.96,1.005-1.23,1.47c-1.02-0.615-1.86-1.38-2.58-2.295c-0.765,0.93-1.65,1.68-2.67,2.295
			c-0.225-0.39-0.63-0.945-0.99-1.305v1.41h-1.725v-2.4c-1.725,0.301-3.48,0.57-4.86,0.78l-0.345-1.785
			c0.405-0.045,0.87-0.09,1.38-0.149v-7.965h-1.02v-1.65h7.53v1.064h4.485l0.3-0.045L390.688,270.817z M379.918,271.163v1.425h2.13
			v-1.425H379.918z M379.918,275.692h2.13v-1.5h-2.13V275.692z M379.918,278.917c0.69-0.09,1.41-0.194,2.13-0.285v-1.35h-2.13
			V278.917z M383.773,281.032c0.99-0.555,1.86-1.365,2.595-2.385c-0.915-1.665-1.56-3.675-2.025-5.939l1.71-0.346
			c0.3,1.605,0.75,3.121,1.38,4.44c0.585-1.29,1.035-2.79,1.29-4.47h-4.425v-1.17h-0.525V281.032z"/>
		<path class="st8" d="M407.383,276.157v6.51h-2.01v-0.81h-10.304v-5.685h2.01v3.914h3.15v-4.709h-4.365v-5.445h1.89v3.721h2.475
			v-4.98h1.98v4.98h2.58v-3.721h1.98v5.445h-4.56v4.709h3.165v-3.93H407.383z"/>
		<path class="st8" d="M416.534,269.272c-0.39,1.051-0.885,2.115-1.44,3.12v10.274h-1.8v-7.5c-0.315,0.375-0.63,0.75-0.93,1.08
			c-0.165-0.435-0.675-1.455-0.99-1.904c1.365-1.35,2.67-3.48,3.42-5.609L416.534,269.272z M421.288,272.813v1.574h3.885v1.62
			h-3.885v1.694h4.08v1.65h-4.08v3.33h-1.83v-9.869h-0.57c-0.6,1.109-1.29,2.129-1.965,2.909c-0.285-0.33-0.99-0.96-1.365-1.245
			c1.32-1.35,2.505-3.51,3.18-5.654l1.725,0.435c-0.21,0.63-0.45,1.245-0.735,1.86h5.819v1.695H421.288z"/>
		<path class="st8" d="M442.363,277.417c-0.255,2.91-0.51,4.17-0.975,4.65c-0.33,0.375-0.66,0.495-1.125,0.555
			c-0.39,0.045-1.065,0.061-1.785,0.03c-0.03-0.479-0.21-1.14-0.48-1.59c0.6,0.075,1.17,0.075,1.455,0.075
			c0.21,0,0.345-0.03,0.495-0.165c0.24-0.24,0.435-0.99,0.615-2.7h-8.924c-0.24,0.18-0.495,0.346-0.765,0.51l1.365,0.436
			c-0.3,1.289-0.81,2.58-1.755,3.39l-1.395-0.885c0.795-0.675,1.35-1.726,1.62-2.835c-0.36,0.225-0.735,0.42-1.11,0.615
			c-0.21-0.45-0.63-1.155-0.93-1.561c2.475-1.14,4.365-3,5.745-5.145h-4.815v-1.561h2.52c-0.225-0.584-0.585-1.319-0.945-1.904
			l1.545-0.6c0.465,0.674,0.945,1.574,1.155,2.189l-0.75,0.314h2.175c0.42-0.84,0.765-1.694,1.035-2.564l1.785,0.495
			c-0.255,0.705-0.54,1.396-0.855,2.069h2.94c-0.15,0.9-0.375,1.92-0.57,2.746h1.71c-0.165,0.899-0.36,1.949-0.54,2.76h1.605
			L442.363,277.417z M434.204,279.202c0.255,0.87,0.42,2.01,0.405,2.76l-1.545,0.195c0.045-0.734-0.075-1.89-0.3-2.775
			L434.204,279.202z M434.579,275.528c-0.345,0.42-0.72,0.824-1.125,1.215h5.729c0.09-0.36,0.18-0.78,0.27-1.215H434.579z
			 M436.423,278.932c0.315,0.75,0.615,1.755,0.72,2.43l-1.425,0.36c-0.09-0.675-0.39-1.695-0.69-2.49L436.423,278.932z
			 M436.453,272.798c-0.225,0.404-0.465,0.795-0.72,1.186h2.295c0.09-0.361,0.18-0.766,0.255-1.186H436.453z M438.118,280.942
			c-0.12-0.525-0.51-1.395-0.885-2.025l1.23-0.42c0.405,0.601,0.825,1.426,0.975,1.98L438.118,280.942z"/>
		<path class="st8" d="M447.764,278.737c-0.105,1.32-0.345,2.745-0.645,3.645c-0.285-0.164-0.915-0.359-1.275-0.435
			c0.33-0.885,0.51-2.22,0.6-3.42L447.764,278.737z M446.398,274.597c-0.075-0.3-0.315-1.034-0.495-1.425
			c0.285-0.075,0.525-0.359,0.81-0.811c0.3-0.404,1.215-2.069,1.74-3.645l1.44,0.585c-0.525,1.245-1.215,2.55-1.935,3.615
			l1.05-0.075c0.375-0.66,0.75-1.365,1.065-2.07l1.305,0.84c-0.84,1.621-1.95,3.301-3.09,4.666l1.665-0.226
			c-0.15-0.435-0.315-0.87-0.495-1.245l1.17-0.436c0.435,0.886,0.855,2.07,0.975,2.806l-1.23,0.51
			c-0.015-0.12-0.045-0.255-0.075-0.405c-2.97,0.48-3.465,0.615-3.795,0.766c-0.075-0.285-0.33-1.035-0.495-1.44
			c0.36-0.09,0.69-0.435,1.125-1.005c0.21-0.225,0.585-0.72,1.02-1.365c-1.185,0.135-1.53,0.226-1.755,0.33V274.597z
			 M449.249,278.423c0.18,0.975,0.345,2.234,0.39,3.09l-1.275,0.33c-0.015-0.87-0.165-2.145-0.315-3.12L449.249,278.423z
			 M459.553,281.288c0,0.569-0.075,0.869-0.405,1.079c-0.3,0.21-0.69,0.226-1.215,0.226c-0.03-0.36-0.165-0.84-0.33-1.186
			c0.21,0.016,0.39,0.016,0.48,0.016c0.09,0,0.12-0.03,0.12-0.15v-1.529h-0.66v2.67h-0.96v-2.67h-0.615v2.744h-0.96v-2.744h-0.645
			v2.939h-1.275v-4.426c-0.18,1.546-0.48,3.091-0.945,4.336c-0.3-0.271-1.035-0.676-1.41-0.811c0.15-0.39,0.27-0.795,0.36-1.23
			l-0.81,0.301c-0.12-0.66-0.42-1.71-0.675-2.49l1.14-0.375c0.21,0.525,0.39,1.141,0.54,1.711c0.465-2.311,0.51-4.92,0.51-6.75
			v-3.271c2.22-0.18,4.71-0.524,6.165-0.989l1.29,1.185c-1.665,0.495-3.84,0.795-5.879,0.989v0.525h5.834v3.705h-5.88l-0.03,0.705
			h6.255V281.288z M453.374,272.753v0.18c0,0.256,0,0.525,0,0.811h4.26v-0.99H453.374z M455.008,278.362v-1.14h-0.645v1.14H455.008z
			 M456.583,278.362v-1.14h-0.615v1.14H456.583z M458.203,278.362v-1.14h-0.66v1.14H458.203z"/>
		<path class="st8" d="M476.518,271.628v10.994h-1.755v-0.81h-9v0.825h-1.695v-11.01h3.495v-2.805h1.755v2.805h1.8v-2.805h1.755
			v2.805H476.518z M465.764,273.368v2.504h1.8v-2.504H465.764z M465.764,280.057h1.8v-2.49h-1.8V280.057z M469.318,273.368v2.504
			h1.8v-2.504H469.318z M469.318,277.567v2.49h1.8v-2.49H469.318z M472.873,273.368v2.504h1.89v-2.504H472.873z M474.763,280.057
			v-2.49h-1.89v2.49H474.763z"/>
		<path class="st8" d="M494.143,270.983c0,0,0,0.6-0.015,0.81c-0.195,6.704-0.36,9.089-0.975,9.884
			c-0.42,0.556-0.84,0.721-1.44,0.826c-0.57,0.074-1.47,0.06-2.355,0.029c-0.03-0.494-0.27-1.244-0.585-1.74
			c0.96,0.09,1.845,0.09,2.235,0.09c0.3,0,0.465-0.06,0.66-0.254c0.435-0.48,0.63-2.73,0.795-8.025h-3.21
			c-0.39,0.9-0.855,1.725-1.32,2.37c-0.24-0.226-0.75-0.569-1.155-0.84v7.005h-4.005v1.095h-1.62v-11.145h1.695
			c0.195-0.75,0.375-1.71,0.435-2.415l1.95,0.27c-0.255,0.75-0.525,1.5-0.78,2.146h2.325v2.43c0.87-1.26,1.59-3.075,2.025-4.829
			l1.695,0.39c-0.15,0.646-0.36,1.274-0.585,1.905H494.143z M485.159,272.647h-2.385v2.43h2.385V272.647z M485.159,279.562v-2.94
			h-2.385v2.94H485.159z M490.138,278.753c-0.42-0.9-1.35-2.37-2.085-3.465l1.395-0.795c0.75,1.035,1.74,2.459,2.205,3.33
			L490.138,278.753z"/>
		<path class="st8" d="M502.934,280.087c-1.005,0.945-2.58,1.86-3.87,2.431c-0.3-0.33-0.945-0.945-1.335-1.216
			c1.305-0.449,2.745-1.125,3.555-1.844L502.934,280.087z M511.663,274.552h-7.05l0.345,0.285c-0.57,0.284-1.17,0.569-1.785,0.825
			l3.03-0.121c0.63-0.299,1.245-0.6,1.8-0.914l1.23,1.064c-1.755,0.885-3.645,1.65-5.535,2.28l4.32-0.181
			c-0.21-0.164-0.435-0.33-0.63-0.479l1.335-0.81c0.945,0.689,2.25,1.695,2.865,2.385l-1.425,0.885c-0.21-0.255-0.51-0.54-0.84-0.87
			l-3.405,0.181v1.799c0,0.811-0.165,1.261-0.81,1.516c-0.63,0.24-1.455,0.255-2.55,0.255c-0.075-0.495-0.375-1.185-0.615-1.635
			c0.765,0.03,1.68,0.045,1.935,0.03c0.255,0,0.315-0.061,0.315-0.226v-1.635c-4.05,0.226-4.71,0.3-5.205,0.465
			c-0.045-0.284-0.255-1.034-0.375-1.44c0.6-0.06,1.23-0.225,2.205-0.539c0.45-0.15,1.365-0.465,2.475-0.9
			c-2.52,0.15-2.985,0.225-3.3,0.346c-0.075-0.301-0.285-1.006-0.435-1.41c0.345-0.045,0.675-0.15,1.125-0.315
			c0.33-0.12,1.11-0.42,1.935-0.84h-4.695v-1.351h5.91v-0.584h-4.395v-1.275h4.395v-0.57h-5.19v-1.289h5.19v-0.826h1.8v0.826h5.295
			v1.289h-5.295v0.57h4.53v1.275h-4.53v0.584h6.03V274.552z M507.943,279.427c1.14,0.555,2.76,1.44,3.615,2.085l-1.38,1.035
			c-0.75-0.631-2.34-1.575-3.525-2.205L507.943,279.427z"/>
		<path class="st8" d="M520.619,277.702c-0.3-0.479-0.78-1.17-1.275-1.814v6.779h-1.8v-5.805c-0.525,1.305-1.14,2.52-1.83,3.36
			c-0.18-0.556-0.6-1.306-0.915-1.785c1.065-1.2,2.01-3.18,2.52-4.979h-2.084v-1.695h2.31v-3.09h1.8v3.09h1.89v1.695h-1.89v0.404
			c0.6,0.496,1.98,1.936,2.31,2.311L520.619,277.702z M528.973,273.458h-1.425v7.02c0,1.035-0.225,1.5-0.84,1.785
			c-0.6,0.3-1.56,0.345-2.85,0.345c-0.075-0.511-0.345-1.306-0.6-1.8c0.825,0.029,1.755,0.029,2.01,0.029
			c0.27-0.015,0.375-0.09,0.375-0.359v-4.561c-1.11,1.785-2.55,3.451-3.99,4.545c-0.3-0.465-0.825-1.094-1.29-1.469
			c1.86-1.17,3.66-3.36,4.74-5.535h-3.45v-1.695h3.99v-3.06h1.905v3.06h1.425V273.458z"/>
		<path class="st8" d="M233.518,327.508c-0.045,0.63-0.075,1.155-0.12,1.635h1.68v1.56h-1.86c-0.105,0.631-0.225,1.006-0.39,1.23
			c-0.33,0.48-0.735,0.63-1.245,0.705c-0.48,0.074-1.245,0.074-1.995,0.029c-0.015-0.39-0.21-0.975-0.435-1.365
			c0.675,0.061,1.26,0.076,1.575,0.061c0.255,0,0.39-0.029,0.525-0.24c0.06-0.09,0.12-0.209,0.18-0.42h-8.069
			c0.18-0.885,0.36-2.01,0.54-3.194h-2.07v-1.591h2.295c0.12-0.899,0.225-1.829,0.315-2.654c-0.375,0.45-0.735,0.885-1.11,1.26
			c-0.375-0.285-1.155-0.81-1.605-1.035c1.38-1.154,2.685-3.045,3.45-4.889l1.77,0.51c-0.135,0.299-0.285,0.615-0.435,0.93h8.654
			v1.59h-9.584c-0.255,0.404-0.51,0.779-0.78,1.154h8.879c0,0-0.015,0.57-0.015,0.781c-0.03,0.869-0.06,1.635-0.09,2.354h2.16v1.591
			H233.518z M225.688,327.448c-0.09,0.6-0.165,1.154-0.255,1.694h3.285c-0.525-0.405-1.185-0.825-1.785-1.11l0.6-0.584H225.688z
			 M226.093,324.343c-0.06,0.54-0.135,1.08-0.21,1.635h2.985c-0.525-0.39-1.155-0.779-1.74-1.035l0.615-0.6H226.093z
			 M231.658,329.142c0.03-0.479,0.075-1.021,0.105-1.694h-3.12c0.69,0.375,1.35,0.824,1.755,1.184l-0.51,0.511H231.658z
			 M231.823,325.977c0.03-0.51,0.045-1.035,0.06-1.635h-3.045c0.66,0.345,1.305,0.779,1.71,1.125l-0.51,0.51H231.823z"/>
		<path class="st8" d="M243.418,319.213c-0.33,0.944-0.72,1.905-1.17,2.851v10.634h-1.695v-7.68c-0.33,0.466-0.66,0.899-1.005,1.29
			c-0.135-0.436-0.57-1.484-0.84-1.936c1.245-1.364,2.385-3.51,3.06-5.669L243.418,319.213z M252.583,319.438v13.094h-1.695v-0.734
			h-5.64v0.869h-1.62v-13.229H252.583z M250.888,330.253v-9.27h-5.64v9.27H250.888z M248.728,324.118v1.289h1.44v4.021h-4.155
			v-4.021h1.335v-1.289h-1.725v-1.291h1.725v-1.529h1.38v1.529h1.815v1.291H248.728z M248.833,326.637h-1.53v1.574h1.53V326.637z"/>
		<path class="st8" d="M261.448,330.282c-1.005,0.855-2.61,1.695-3.915,2.205c-0.285-0.345-0.915-0.96-1.305-1.244
			c1.32-0.375,2.775-0.976,3.585-1.621L261.448,330.282z M269.833,325.663h-13.229v-1.41h5.685c-0.075-0.15-0.165-0.285-0.255-0.405
			l0.69-0.21h-4.575v-4.5h10.185v4.5h-4.515c0.135,0.195,0.27,0.405,0.375,0.615h5.64V325.663z M264.178,329.472v1.68
			c0,0.765-0.18,1.11-0.765,1.306c-0.585,0.194-1.365,0.194-2.415,0.194c-0.09-0.435-0.285-0.976-0.495-1.364
			c0.615,0.029,1.41,0.029,1.605,0.014c0.21-0.014,0.285-0.059,0.285-0.225v-1.604h-3.885v-3.271h9.6v3.271H264.178z
			 M259.858,320.847h6.69v-0.614h-6.69V320.847z M259.858,322.528h6.69v-0.646h-6.69V322.528z M260.218,328.257h6.09v-0.84h-6.09
			V328.257z M265.978,329.667c1.26,0.42,3,1.17,3.93,1.74l-1.245,1.096c-0.84-0.556-2.55-1.365-3.84-1.875L265.978,329.667z"/>
		<path class="st8" d="M273.374,332.083c0.54-0.631,0.885-1.666,1.02-2.655l1.2,0.36c-0.18,1.064-0.435,2.204-1.065,2.895
			L273.374,332.083z M273.704,327.583c0.75-0.016,1.665-0.045,2.67-0.075v-0.72h-2.31v-1.351h2.31v-0.659h-2.34v-5.655h6.345v5.655
			h-2.43v0.659h2.4v1.351h-2.4v0.66c0.87-0.031,1.77-0.076,2.64-0.105l-0.03,1.38c-2.43,0.149-4.995,0.284-6.81,0.36
			L273.704,327.583z M275.369,323.577h1.26v-3.254h-1.26v0.629l0.705-0.209c0.24,0.689,0.435,1.574,0.48,2.16l-0.795,0.239
			c-0.03-0.569-0.18-1.409-0.39-2.085V323.577z M276.793,329.382c0.18,0.841,0.3,1.906,0.315,2.625l-1.155,0.136
			c0.03-0.705-0.09-1.785-0.255-2.625L276.793,329.382z M278.264,329.247c0.285,0.795,0.555,1.801,0.645,2.49l-1.095,0.225
			c-0.075-0.674-0.33-1.709-0.615-2.504L278.264,329.247z M278.999,320.323h-1.29v2.475c0.21-0.6,0.465-1.471,0.57-2.07l0.72,0.256
			V320.323z M278.999,323.577v-2.129c-0.24,0.629-0.48,1.274-0.675,1.709l-0.615-0.225v0.645H278.999z M279.718,328.932
			c0.48,0.705,0.96,1.665,1.155,2.324l-1.125,0.466c-0.18-0.66-0.63-1.65-1.095-2.399L279.718,328.932z M284.608,323.413v2.31h2.4
			v6.885h-1.71v-0.524h-2.775v0.584h-1.62v-6.944h1.965v-7.034h1.74v3.074h2.895v1.65H284.608z M285.298,327.343h-2.775v3.135h2.775
			V327.343z"/>
		<path class="st8" d="M301.453,330.718c1.23,0,1.455-0.256,1.62-1.68c0.435,0.27,1.215,0.539,1.71,0.614
			c-0.3,2.115-0.9,2.729-3.21,2.729h-4.89c-2.76,0-3.57-0.539-3.57-2.639v-5.641c-0.33,0.314-0.66,0.631-0.975,0.9
			c-0.315-0.36-1.05-1.035-1.455-1.35c1.605-1.17,3.105-3.076,3.915-5.07l1.845,0.555c-0.225,0.51-0.48,0.99-0.765,1.485h7.92
			c0,0-0.015,0.524-0.03,0.75c-0.135,4.71-0.27,6.464-0.69,7.05c-0.3,0.449-0.645,0.6-1.095,0.675
			c-0.405,0.075-1.035,0.09-1.725,0.06c-0.015-0.51-0.195-1.244-0.465-1.695c0.51,0.046,0.96,0.061,1.215,0.046
			c0.21,0.015,0.345-0.046,0.465-0.21c0.24-0.315,0.36-1.59,0.465-4.995h-7.14c-0.285,0.39-0.57,0.75-0.855,1.095h5.729v4.801h-4.59
			v1.514c0,0.871,0.24,1.006,1.8,1.006H301.453z M294.883,324.958v1.649h2.85v-1.649H294.883z"/>
		<path class="st8" d="M316.453,319.468c-0.105,0.12-0.21,0.225-0.315,0.314c1.44,1.186,3.885,2.281,6.06,2.82
			c-0.39,0.36-0.945,1.08-1.215,1.545c-1.17-0.375-2.415-0.945-3.57-1.635v0.885h-5.205v-0.705c-1.02,0.57-2.085,1.051-3.12,1.455
			c-0.27-0.465-0.765-1.125-1.229-1.56c2.535-0.825,5.43-2.265,6.989-4.021L316.453,319.468z M319.723,324.432
			c-0.495,0.945-1.065,1.936-1.65,2.835h1.86v5.444h-1.83v-0.51h-5.984v0.51h-1.755v-5.444h5.595
			c0.345-0.54,0.705-1.125,1.035-1.694h-7.02v-1.561h8.04l0.315-0.074L319.723,324.432z M318.103,328.798h-5.984v1.875h5.984
			V328.798z M316.513,321.927c-0.54-0.36-1.02-0.75-1.47-1.14c-0.495,0.39-1.02,0.779-1.56,1.14H316.513z"/>
		<path class="st8" d="M339.178,324.567v1.936h-13.8v-1.936H339.178z"/>
		<path class="st8" d="M350.608,322.317c-0.135,0.33-0.285,0.646-0.42,0.945h4.53v9.435h-1.86v-0.705h-6.84v0.705h-1.77v-9.435h3.96
			c0.105-0.314,0.18-0.63,0.255-0.945h-5.7v-1.649h3.435c-0.3-0.465-0.72-0.976-1.08-1.396l1.59-0.72
			c0.555,0.54,1.155,1.275,1.455,1.771l-0.66,0.345h3.435c0.435-0.615,0.9-1.425,1.155-2.04l2.055,0.45
			c-0.39,0.569-0.81,1.125-1.2,1.59h3.36v1.649H350.608z M352.858,324.807h-6.84v0.915h6.84V324.807z M352.858,327.073h-6.84v0.975
			h6.84V327.073z M352.858,330.432v-1.02h-6.84v1.02H352.858z"/>
		<path class="st8" d="M373.678,324.567v1.936h-13.8v-1.936H373.678z"/>
		<path class="st8" d="M386.893,318.897c0.69,2.19,2.22,4.32,4.305,5.4c-0.36,0.375-0.975,1.14-1.26,1.65
			c-0.39-0.256-0.78-0.556-1.14-0.871c-0.165,4.426-0.345,6.15-0.87,6.766c-0.375,0.494-0.78,0.645-1.365,0.72
			c-0.51,0.075-1.38,0.075-2.265,0.045c-0.03-0.54-0.27-1.29-0.585-1.8c0.825,0.061,1.605,0.074,1.98,0.074
			c0.27,0,0.435-0.029,0.6-0.209c0.3-0.33,0.465-1.666,0.6-4.785h-2.955c-0.375,2.88-1.35,5.445-5.235,6.9
			c-0.225-0.511-0.75-1.246-1.185-1.65c3.39-1.096,4.17-3.075,4.47-5.25h-2.535v-0.99c-0.36,0.391-0.735,0.75-1.125,1.08
			c-0.315-0.359-1.08-1.02-1.5-1.32c1.695-1.215,3.03-3.225,3.72-5.475l1.875,0.45c-0.555,1.681-1.38,3.239-2.355,4.515h7.77
			c-0.975-1.064-1.74-2.324-2.265-3.584h-2.385v-1.666H386.893z"/>
		<path class="st8" d="M399.479,329.698l0.09,1.409c-1.71,0.42-3.51,0.81-4.86,1.14l-0.315-1.604c0.57-0.091,1.275-0.226,2.04-0.375
			v-3.735h-1.845v-1.515h1.845v-1.095h-1.05v-0.66c-0.225,0.225-0.435,0.436-0.66,0.63c-0.09-0.39-0.405-1.396-0.585-1.829
			c1.02-0.811,2.13-2.115,2.76-3.48l1.2,0.6c-0.075,0.18-0.165,0.36-0.255,0.541c0.84,0.539,1.68,1.17,2.175,1.68l-0.675,1.469
			c-0.105-0.104-0.21-0.225-0.33-0.344v1.395h-1.23v1.095h1.68v1.515h-1.68v3.495L399.479,329.698z M395.699,327.073
			c0.225,0.824,0.435,1.889,0.51,2.564l-1.05,0.345c-0.06-0.705-0.27-1.784-0.465-2.595L395.699,327.073z M398.909,322.438
			c-0.51-0.48-1.155-0.99-1.8-1.426c-0.315,0.51-0.66,0.975-1.02,1.426H398.909z M397.903,329.458c0.18-0.676,0.39-1.756,0.48-2.521
			l1.17,0.345c-0.27,0.885-0.525,1.875-0.72,2.506L397.903,329.458z M404.863,331.062h3.45v1.26h-8.564v-1.26h3.435v-0.66h-2.88
			v-1.229h2.88v-0.57h-2.685v-4.38h7.155v4.38h-2.79v0.57h2.955v1.229h-2.955V331.062z M408.373,322.407v1.351h-8.58v-1.351h1.83
			c-0.09-0.33-0.21-0.674-0.345-0.975l0.945-0.18h-2.085v-1.335h3.075c-0.105-0.315-0.255-0.66-0.42-0.915l1.65-0.391
			c0.285,0.391,0.525,0.9,0.63,1.306h2.895v1.335h-2.13l1.11,0.195c-0.165,0.345-0.33,0.66-0.48,0.959H408.373z M401.999,325.917
			h1.275v-0.645h-1.275V325.917z M401.999,327.552h1.275v-0.66h-1.275V327.552z M402.808,321.253c0.18,0.375,0.345,0.84,0.405,1.154
			h1.635c0.15-0.389,0.3-0.795,0.375-1.154H402.808z M406.078,325.272h-1.32v0.645h1.32V325.272z M406.078,326.892h-1.32v0.66h1.32
			V326.892z"/>
		<path class="st8" d="M423.238,330.837c0.48,0,0.555-0.254,0.63-1.799c0.36,0.27,1.11,0.555,1.605,0.674
			c-0.195,2.176-0.66,2.76-2.07,2.76h-1.875c-1.74,0-2.16-0.539-2.16-2.159v-2.88h-2.01c-0.195,2.865-0.9,4.47-4.86,5.25
			c-0.135-0.45-0.6-1.155-0.945-1.516c3.39-0.555,3.84-1.574,3.975-3.734h-3.705v-1.68h13.364v1.68h-4.005v2.865
			c0,0.479,0.09,0.539,0.615,0.539H423.238z M413.878,323.938h-1.77v-3.721h5.475c-0.15-0.404-0.33-0.811-0.51-1.17l1.83-0.54
			c0.3,0.524,0.615,1.155,0.81,1.71h5.175v3.721h-1.875v-2.011h-9.135V323.938z M414.568,324.657v-1.649h7.755v1.649H414.568z"/>
		<path class="st8" d="M441.553,321.628c-0.285,0.96-0.705,1.77-1.23,2.445c0.675,0.494,1.53,0.899,2.505,1.154
			c-0.33,0.314-0.78,0.975-0.975,1.38c-1.02-0.345-1.89-0.84-2.595-1.454c-0.75,0.6-1.62,1.064-2.655,1.424
			c-0.15-0.33-0.675-0.975-0.99-1.274c1.02-0.285,1.89-0.675,2.565-1.215c-0.33-0.42-0.63-0.854-0.885-1.306
			c-0.21,0.256-0.42,0.496-0.645,0.69c-0.18-0.239-0.585-0.69-0.915-1.021v1.531h-1.425c0.525,0.299,1.08,0.659,1.395,0.93
			l-0.735,0.99c-0.345-0.346-1.02-0.826-1.605-1.17v1.529h-1.56v-1.186c-0.615,0.615-1.35,1.141-2.04,1.485
			c-0.225-0.345-0.675-0.87-1.005-1.125c0.855-0.315,1.755-0.854,2.415-1.454h-1.755v-2.851h2.385v-0.51h-2.73v-1.245h2.73v-0.721
			h1.56v0.721h2.595v1.245h-2.595v0.51h2.37v0.886c0.855-0.826,1.515-2.041,1.86-3.33l1.59,0.375c-0.12,0.39-0.255,0.765-0.39,1.14
			h3.75v1.425H441.553z M436.604,330.852h6v1.47h-13.665v-1.47h2.22v-2.266h1.71v2.266h1.98v-2.82h-5.01v-1.439h11.835v1.439h-5.07
			v0.75h3.87v1.305h-3.87V330.852z M430.798,322.948h1.005v-0.766h-1.005V322.948z M433.363,322.182v0.766h0.915v-0.766H433.363z
			 M433.769,323.983h-0.405v0.494L433.769,323.983z M438.208,321.628c0.24,0.495,0.555,0.96,0.975,1.425
			c0.3-0.42,0.525-0.885,0.705-1.425H438.208z"/>
		<path class="st8" d="M457.213,324.282c0,0.346-0.015,0.69-0.03,1.08c0.6,2.82,1.47,4.53,3.24,5.971
			c-0.435,0.314-0.915,0.84-1.125,1.319c-1.275-1.155-2.115-2.399-2.73-4.005c-0.48,1.425-1.335,2.865-2.76,4.08
			c-0.165-0.314-0.51-0.75-0.84-1.051c-0.075,0.301-0.24,0.48-0.57,0.615c-0.48,0.195-1.155,0.211-2.1,0.211
			c-0.075-0.391-0.3-0.9-0.48-1.26c0.555,0.029,1.2,0.029,1.38,0.029c0.195-0.016,0.255-0.061,0.255-0.225v-4.32h-5.46v-1.529h5.37
			v-4.471h-5.205v-1.5h7.649v1.5h-0.87v3.405c0.855-1.335,1.425-3.405,1.71-5.476l1.695,0.285c-0.105,0.646-0.225,1.275-0.375,1.905
			h2.745l0.24-0.075l1.2,0.33c-0.24,1.485-0.615,3.195-0.945,4.275l-1.395-0.405c0.15-0.66,0.33-1.62,0.465-2.565h-2.745
			c-0.345,1.08-0.75,2.056-1.23,2.791h0.12v1.529h-1.395v4.35v0.061c2.34-2.16,2.595-5.055,2.595-6.885v-1.141h1.59V324.282z
			 M448.079,330.777v0.524h-1.44v-3.959h4.035v3.435H448.079z M450.463,321.313v3.284h-3.75v-3.284H450.463z M449.114,322.468h-1.14
			v0.99h1.14V322.468z M448.079,328.557v0.99h1.215v-0.99H448.079z M452.938,325.198h1.335c-0.3-0.24-0.915-0.601-1.335-0.826
			V325.198z"/>
		<path class="st8" d="M476.518,321.628v10.994h-1.755v-0.81h-9v0.825h-1.695v-11.01h3.495v-2.805h1.755v2.805h1.8v-2.805h1.755
			v2.805H476.518z M465.764,323.368v2.504h1.8v-2.504H465.764z M465.764,330.057h1.8v-2.49h-1.8V330.057z M469.318,323.368v2.504
			h1.8v-2.504H469.318z M469.318,327.567v2.49h1.8v-2.49H469.318z M472.873,323.368v2.504h1.89v-2.504H472.873z M474.763,330.057
			v-2.49h-1.89v2.49H474.763z"/>
		<path class="st8" d="M485.188,325.032c0.6,0.601,1.95,2.176,2.28,2.58l-1.02,1.485c-0.285-0.511-0.765-1.261-1.26-1.965v5.534
			h-1.8v-5.34c-0.6,1.41-1.305,2.7-2.1,3.586c-0.165-0.525-0.6-1.23-0.9-1.681c1.02-1.08,1.98-2.805,2.565-4.454h-2.235v-1.65h2.67
			v-1.95c-0.735,0.12-1.455,0.226-2.145,0.315c-0.075-0.405-0.285-1.006-0.48-1.395c1.95-0.271,4.14-0.75,5.505-1.291l1.155,1.396
			c-0.66,0.239-1.44,0.45-2.235,0.63v2.295h2.175v1.65h-2.175V325.032z M493.753,320.083v11.774h-1.845v-1.08h-2.4v1.185h-1.755
			v-11.879H493.753z M491.908,329.067v-7.274h-2.4v7.274H491.908z"/>
		<path class="st8" d="M511.258,329.952v1.83h-13.02v-1.83H511.258z M510.448,320.112v1.801h-11.37v-1.801H510.448z
			 M509.263,324.897v1.814h-9.149v-1.814H509.263z"/>
		<path class="st8" d="M521.113,329.382c-1.095,0.195-2.235,0.375-3.3,0.556v2.43h-1.71v-2.159l-0.93,0.149l-0.27-1.68
			c0.36-0.046,0.765-0.091,1.2-0.15v-8.415l0.06,0.016l-0.015-0.016c1.41-0.42,2.985-1.08,3.96-1.619l1.41,1.365
			c-1.125,0.479-2.445,0.93-3.705,1.305v1.005h3.03v1.545h-3.03v1.5h2.985v1.545h-2.985v1.545c1.02-0.136,2.13-0.3,3.21-0.45
			L521.113,329.382z M528.238,325.692c-0.405,1.815-1.14,3.225-2.115,4.305c0.825,0.541,1.815,0.916,2.97,1.155
			c-0.375,0.36-0.87,1.065-1.11,1.53c-1.229-0.346-2.28-0.84-3.18-1.53c-0.99,0.72-2.16,1.215-3.495,1.59
			c-0.18-0.45-0.555-1.155-0.9-1.53c1.185-0.254,2.25-0.674,3.15-1.26c-0.675-0.824-1.215-1.77-1.65-2.85l0.915-0.225h-1.455v-1.5
			h0.525c-0.285-0.33-0.87-0.855-1.17-1.065c1.455-0.899,1.62-2.159,1.62-3.225v-1.845h1.65v0.015h1.47v-0.015h1.635v3.524
			c0,0.421,0.03,0.57,0.225,0.57h0.675c0.21,0,0.555-0.03,0.75-0.091c0.03,0.421,0.075,0.99,0.135,1.365
			c-0.225,0.09-0.555,0.105-0.87,0.105h-0.855c-1.41,0-1.695-0.585-1.695-1.98v-1.979h-1.47v0.375c0,1.396-0.33,3.149-1.89,4.245
			h4.74l0.3-0.045L528.238,325.692z M523.408,326.878c0.33,0.765,0.795,1.455,1.365,2.055c0.57-0.585,1.02-1.275,1.35-2.055H523.408
			z"/>
		<path class="st8" d="M541.348,323.517c1.605,1.155,3.915,2.88,4.995,4.065l-1.515,1.365c-0.93-1.111-2.97-2.82-4.59-4.065v7.77
			h-1.95v-7.319c-1.365,1.455-2.97,2.76-4.77,3.689c-0.285-0.48-0.84-1.215-1.23-1.619c2.73-1.275,5.07-3.601,6.465-5.896h-5.985
			v-1.83h13.004v1.83h-4.665c-0.255,0.465-0.555,0.931-0.87,1.38v1.561L541.348,323.517z"/>
		<path class="st8" d="M562.888,330.628c0,0.93-0.195,1.439-0.765,1.725c-0.57,0.3-1.41,0.345-2.655,0.345
			c-0.075-0.495-0.345-1.305-0.615-1.771c0.795,0.046,1.665,0.046,1.92,0.031c0.255-0.016,0.36-0.105,0.36-0.346v-9.539h-9.225
			v11.609h-1.74v-13.305h12.72V330.628z M560.248,323.622h-7.484v-1.499h7.484V323.622z M555.119,329.788v0.989h-1.65v-5.999h6.105
			v5.01H555.119z M555.119,326.247v2.07h2.805v-2.07H555.119z"/>
		<path class="st8" d="M580.393,320.983c0,0,0,0.6-0.015,0.81c-0.195,6.704-0.36,9.089-0.975,9.884
			c-0.42,0.556-0.84,0.721-1.44,0.826c-0.57,0.074-1.47,0.06-2.355,0.029c-0.03-0.494-0.27-1.244-0.585-1.74
			c0.96,0.09,1.845,0.09,2.235,0.09c0.3,0,0.465-0.06,0.66-0.254c0.435-0.48,0.63-2.73,0.795-8.025h-3.21
			c-0.39,0.9-0.855,1.725-1.32,2.37c-0.24-0.226-0.75-0.569-1.155-0.84v7.005h-4.005v1.095h-1.62v-11.145h1.695
			c0.195-0.75,0.375-1.71,0.435-2.415l1.95,0.27c-0.255,0.75-0.525,1.5-0.78,2.146h2.325v2.43c0.87-1.26,1.59-3.075,2.025-4.829
			l1.695,0.39c-0.15,0.646-0.36,1.274-0.585,1.905H580.393z M571.409,322.647h-2.385v2.43h2.385V322.647z M571.409,329.562v-2.94
			h-2.385v2.94H571.409z M576.388,328.753c-0.42-0.9-1.35-2.37-2.085-3.465l1.395-0.795c0.75,1.035,1.74,2.459,2.205,3.33
			L576.388,328.753z"/>
		<path class="st8" d="M589.394,328.317c0.735,1.035,1.605,2.355,2.025,3.24l-1.455,0.75c-0.135-0.315-0.345-0.689-0.57-1.096
			c-3.3,0.811-3.87,0.976-4.215,1.186c-0.12-0.391-0.525-1.08-0.795-1.38c0.285-0.21,0.63-0.646,0.63-1.319v-6.57
			c-0.285-0.42-0.75-1.02-1.02-1.305c0.915-0.795,1.785-2.041,2.265-3.271l1.755,0.525c-0.06,0.165-0.135,0.315-0.21,0.479h3.135
			v1.5h-2.28c0.405,0.346,0.825,0.766,1.065,1.065l-0.93,0.78h2.1v5.354h-4.245v2.011l1.92-0.42
			c-0.195-0.315-0.405-0.615-0.585-0.899L589.394,328.317z M586.994,321.057c-0.435,0.69-0.915,1.305-1.395,1.846h2.58
			c-0.315-0.375-0.735-0.811-1.08-1.125l0.87-0.721H586.994z M589.229,324.237h-2.58v0.78h2.58V324.237z M589.229,326.923v-0.631
			h-2.58v0.631H589.229z M597.883,321.057h-2.505c0.36,0.33,0.735,0.69,0.93,0.945l-1.065,0.9h2.145v6.209
			c0,0.825-0.135,1.275-0.72,1.545c-0.54,0.27-1.305,0.285-2.4,0.285c-0.06-0.48-0.3-1.186-0.51-1.635
			c0.675,0.029,1.425,0.029,1.635,0.016c0.225,0,0.3-0.061,0.3-0.256v-4.545h-2.34v8.115h-1.68v-9.225
			c-0.33-0.36-0.93-0.945-1.305-1.215c0.855-0.871,1.59-2.25,1.965-3.646l1.815,0.45c-0.06,0.18-0.12,0.375-0.18,0.555h3.915
			V321.057z M594.883,322.903c-0.3-0.375-0.765-0.871-1.17-1.23l0.75-0.615h-1.125c-0.33,0.69-0.705,1.305-1.08,1.846H594.883z"/>
		<path class="st8" d="M611.773,325.302c0.96,0.915,2.25,1.649,3.645,2.055c-0.375,0.33-0.9,0.99-1.14,1.425
			c-1.185-0.435-2.265-1.109-3.18-1.965v0.676h-1.995v0.045c0,0.24-0.015,0.494-0.045,0.75h4.08v1.379h-2.97
			c1.38,0.496,3.135,1.215,4.095,1.801l-1.305,1.244c-0.915-0.629-2.865-1.515-4.334-2.055l1.08-0.99h-1.05
			c-0.6,1.17-2.01,2.311-5.1,3.061c-0.21-0.375-0.735-0.96-1.08-1.275c2.145-0.479,3.405-1.109,4.095-1.785h-3.15v-1.274
			c-0.33,0.181-0.69,0.36-1.05,0.524c-0.225-0.435-0.78-1.08-1.185-1.35c1.485-0.6,2.655-1.35,3.54-2.265h-3.225v-1.41h4.365
			c0.15-0.239,0.285-0.465,0.405-0.704h-3.135v-1.396h3.705c0.075-0.226,0.135-0.45,0.195-0.69h-4.439v-1.395h4.695
			c0.045-0.346,0.075-0.705,0.09-1.035l1.83,0.12c-0.03,0.3-0.06,0.601-0.105,0.915h4.95v1.395h-5.235
			c-0.06,0.225-0.12,0.465-0.18,0.69h4.845v1.396h-5.325c-0.105,0.239-0.225,0.465-0.345,0.704h7.215v1.41H611.773z
			 M607.378,328.288c0.075-0.285,0.09-0.541,0.09-0.795h-1.89v-0.646c-0.57,0.524-1.23,1.021-1.98,1.44H607.378z M606.943,325.302
			c-0.195,0.285-0.42,0.569-0.66,0.84h4.155c-0.24-0.271-0.465-0.555-0.66-0.84H606.943z"/>
	</g>
	<g>
		<g>
			<path class="st8" d="M235.363,509.409c-0.255,2.91-0.51,4.17-0.975,4.649c-0.33,0.375-0.66,0.495-1.125,0.556
				c-0.39,0.045-1.065,0.06-1.785,0.029c-0.03-0.479-0.21-1.14-0.48-1.59c0.6,0.075,1.17,0.075,1.455,0.075
				c0.21,0,0.345-0.03,0.495-0.165c0.24-0.24,0.435-0.99,0.615-2.7h-8.924c-0.24,0.181-0.495,0.346-0.765,0.511l1.365,0.435
				c-0.3,1.29-0.81,2.58-1.755,3.39l-1.395-0.885c0.795-0.675,1.35-1.725,1.62-2.835c-0.36,0.225-0.735,0.42-1.11,0.615
				c-0.21-0.45-0.63-1.155-0.93-1.561c2.475-1.14,4.365-2.999,5.745-5.145h-4.815v-1.56h2.52c-0.225-0.585-0.585-1.32-0.945-1.905
				l1.545-0.6c0.465,0.675,0.945,1.575,1.155,2.189l-0.75,0.315h2.175c0.42-0.84,0.765-1.695,1.035-2.565l1.785,0.495
				c-0.255,0.705-0.54,1.396-0.855,2.07h2.94c-0.15,0.899-0.375,1.92-0.57,2.745h1.71c-0.165,0.899-0.36,1.949-0.54,2.76h1.605
				L235.363,509.409z M227.204,511.194c0.255,0.869,0.42,2.01,0.405,2.76l-1.545,0.194c0.045-0.734-0.075-1.89-0.3-2.774
				L227.204,511.194z M227.579,507.519c-0.345,0.42-0.72,0.824-1.125,1.215h5.729c0.09-0.36,0.18-0.78,0.27-1.215H227.579z
				 M229.423,510.924c0.315,0.75,0.615,1.755,0.72,2.43l-1.425,0.36c-0.09-0.675-0.39-1.695-0.69-2.49L229.423,510.924z
				 M229.453,504.789c-0.225,0.405-0.465,0.795-0.72,1.186h2.295c0.09-0.36,0.18-0.766,0.255-1.186H229.453z M231.118,512.933
				c-0.12-0.524-0.51-1.395-0.885-2.024l1.23-0.42c0.405,0.6,0.825,1.425,0.975,1.979L231.118,512.933z"/>
			<path class="st8" d="M248.638,502.044c1.38,1.29,3.165,3.136,3.945,4.396l-1.515,1.095c-0.195-0.33-0.465-0.72-0.78-1.14
				c-7.964,0.39-9.029,0.42-9.825,0.689c-0.09-0.359-0.375-1.245-0.585-1.71c0.39-0.104,0.75-0.39,1.245-0.87
				c0.525-0.465,2.16-2.279,3.18-4.079l1.8,0.765c-0.945,1.395-2.13,2.729-3.27,3.825l6.15-0.195c-0.585-0.66-1.185-1.29-1.74-1.845
				L248.638,502.044z M240.958,508.074h10.11v6.569h-1.92v-0.75h-6.36v0.766h-1.83V508.074z M242.789,509.784v2.399h6.36v-2.399
				H242.789z"/>
			<path class="st8" d="M262.798,510.354l0.315,1.59c-2.115,0.915-4.425,1.829-6.195,2.534l-0.795-1.83h-0.015
				c1.02-0.314,2.459-0.81,3.99-1.334v-5.325h-3.465v-1.785h3.465v-3.3h1.86v9.75L262.798,510.354z M267.688,512.484
				c0.555,0,0.645-0.705,0.735-3.391c0.435,0.346,1.215,0.721,1.71,0.84c-0.165,3.105-0.585,4.29-2.28,4.29h-1.785
				c-1.65,0-2.145-0.63-2.145-2.699v-10.605h1.86v3.271h3.915v1.77h-3.915v5.58c0,0.81,0.075,0.945,0.57,0.945H267.688z"/>
			<path class="st8" d="M281.398,504.429v1.68h4.83v5.055c0,0.885-0.18,1.38-0.81,1.649c-0.615,0.285-1.485,0.301-2.64,0.301
				c-0.075-0.525-0.345-1.275-0.6-1.755c0.75,0.045,1.635,0.045,1.86,0.029c0.255,0,0.33-0.06,0.33-0.255v-3.285h-2.97v6.75h-1.86
				v-6.75h-2.775v5.266h-1.8v-7.005h4.575v-1.68h-5.835v-1.74h6.015c-0.225-0.54-0.51-1.155-0.765-1.65l1.77-0.555
				c0.375,0.69,0.87,1.59,1.125,2.205h5.535v1.74H281.398z"/>
			<path class="st8" d="M295.948,512.274c-1.005,0.854-2.61,1.694-3.915,2.204c-0.285-0.345-0.915-0.96-1.305-1.244
				c1.32-0.375,2.775-0.976,3.585-1.62L295.948,512.274z M304.333,507.654h-13.229v-1.41h5.685c-0.075-0.15-0.165-0.285-0.255-0.405
				l0.69-0.21h-4.575v-4.5h10.185v4.5h-4.515c0.135,0.195,0.27,0.405,0.375,0.615h5.64V507.654z M298.678,511.464v1.68
				c0,0.766-0.18,1.11-0.765,1.306c-0.585,0.194-1.365,0.194-2.415,0.194c-0.09-0.435-0.285-0.975-0.495-1.364
				c0.615,0.029,1.41,0.029,1.605,0.015c0.21-0.015,0.285-0.06,0.285-0.225v-1.605h-3.885v-3.27h9.6v3.27H298.678z M294.358,502.839
				h6.69v-0.614h-6.69V502.839z M294.358,504.519h6.69v-0.646h-6.69V504.519z M294.718,510.249h6.09v-0.84h-6.09V510.249z
				 M300.478,511.659c1.26,0.42,3,1.17,3.93,1.739l-1.245,1.096c-0.84-0.556-2.55-1.365-3.84-1.875L300.478,511.659z"/>
			<path class="st8" d="M307.874,514.074c0.54-0.63,0.885-1.665,1.02-2.655l1.2,0.36c-0.18,1.064-0.435,2.204-1.065,2.895
				L307.874,514.074z M308.204,509.574c0.75-0.016,1.665-0.045,2.67-0.075v-0.72h-2.31v-1.351h2.31v-0.659h-2.34v-5.655h6.345v5.655
				h-2.43v0.659h2.4v1.351h-2.4v0.66c0.87-0.03,1.77-0.075,2.64-0.105l-0.03,1.38c-2.43,0.15-4.995,0.285-6.81,0.36L308.204,509.574
				z M309.869,505.569h1.26v-3.255h-1.26v0.63l0.705-0.21c0.24,0.689,0.435,1.575,0.48,2.16l-0.795,0.239
				c-0.03-0.569-0.18-1.409-0.39-2.085V505.569z M311.293,511.374c0.18,0.84,0.3,1.905,0.315,2.625l-1.155,0.135
				c0.03-0.705-0.09-1.785-0.255-2.625L311.293,511.374z M312.764,511.239c0.285,0.795,0.555,1.8,0.645,2.489l-1.095,0.226
				c-0.075-0.675-0.33-1.71-0.615-2.505L312.764,511.239z M313.499,502.314h-1.29v2.475c0.21-0.6,0.465-1.47,0.57-2.069l0.72,0.255
				V502.314z M313.499,505.569v-2.13c-0.24,0.63-0.48,1.274-0.675,1.71l-0.615-0.226v0.646H313.499z M314.218,510.924
				c0.48,0.705,0.96,1.665,1.155,2.325l-1.125,0.465c-0.18-0.66-0.63-1.65-1.095-2.399L314.218,510.924z M319.108,505.404v2.31h2.4
				v6.885h-1.71v-0.524h-2.775v0.585h-1.62v-6.945h1.965v-7.034h1.74v3.074h2.895v1.65H319.108z M319.798,509.334h-2.775v3.135
				h2.775V509.334z"/>
			<path class="st8" d="M329.593,501.189c-0.33,1.005-0.75,2.04-1.2,3.03v10.439h-1.635v-7.5c-0.3,0.45-0.615,0.87-0.915,1.229
				c-0.135-0.435-0.585-1.47-0.87-1.935c1.215-1.395,2.325-3.585,2.97-5.76L329.593,501.189z M338.563,504.924
				c-0.225,2.34-0.615,4.306-1.35,5.925c0.54,0.96,1.215,1.771,2.13,2.355c-0.315,0.314-0.84,0.975-1.065,1.41
				c-0.795-0.601-1.44-1.335-1.95-2.205c-0.585,0.87-1.335,1.59-2.25,2.205c-0.195-0.301-0.765-0.915-1.065-1.2
				c0.195-0.12,0.405-0.255,0.6-0.405h-2.865v1.065h-1.53v-6.646h1.5v-2.444h-1.725v-1.605h1.725v-2.52h1.68v2.52h1.56v1.605h-1.56
				v2.444h1.14c-0.135-0.194-0.27-0.375-0.36-0.494c1.035-1.485,1.605-3.84,1.92-6.255l1.59,0.27
				c-0.135,0.825-0.285,1.68-0.465,2.475h3.06v1.5H338.563z M332.293,508.944h-1.545v2.564h1.545V508.944z M333.854,512.829
				c0.705-0.57,1.26-1.245,1.709-2.025c-0.405-1.035-0.69-2.114-0.885-3.18c-0.165,0.3-0.33,0.57-0.525,0.825
				c-0.06-0.135-0.165-0.315-0.3-0.525V512.829z M335.803,504.924c-0.045,0.15-0.09,0.285-0.135,0.436
				c0.135,1.125,0.36,2.34,0.705,3.479c0.345-1.154,0.555-2.46,0.69-3.915H335.803z"/>
			<path class="st8" d="M344.264,510.728c-0.105,1.32-0.345,2.745-0.645,3.646c-0.285-0.165-0.915-0.36-1.275-0.436
				c0.33-0.885,0.51-2.22,0.6-3.42L344.264,510.728z M342.898,506.589c-0.075-0.3-0.315-1.034-0.495-1.425
				c0.285-0.075,0.525-0.359,0.81-0.81c0.3-0.405,1.215-2.07,1.74-3.646l1.44,0.585c-0.525,1.245-1.215,2.551-1.935,3.615
				l1.05-0.075c0.375-0.66,0.75-1.364,1.065-2.069l1.305,0.84c-0.84,1.62-1.95,3.3-3.09,4.665l1.665-0.226
				c-0.15-0.435-0.315-0.87-0.495-1.245l1.17-0.435c0.435,0.885,0.855,2.07,0.975,2.805l-1.23,0.51
				c-0.015-0.12-0.045-0.255-0.075-0.404c-2.97,0.479-3.465,0.614-3.795,0.765c-0.075-0.285-0.33-1.035-0.495-1.44
				c0.36-0.09,0.69-0.435,1.125-1.005c0.21-0.225,0.585-0.72,1.02-1.364c-1.185,0.135-1.53,0.225-1.755,0.33V506.589z
				 M345.749,510.414c0.18,0.975,0.345,2.234,0.39,3.09l-1.275,0.33c-0.015-0.87-0.165-2.146-0.315-3.12L345.749,510.414z
				 M356.053,513.279c0,0.569-0.075,0.869-0.405,1.079c-0.3,0.21-0.69,0.226-1.215,0.226c-0.03-0.36-0.165-0.84-0.33-1.186
				c0.21,0.016,0.39,0.016,0.48,0.016c0.09,0,0.12-0.03,0.12-0.15v-1.529h-0.66v2.67h-0.96v-2.67h-0.615v2.744h-0.96v-2.744h-0.645
				v2.939h-1.275v-4.425c-0.18,1.545-0.48,3.09-0.945,4.335c-0.3-0.271-1.035-0.675-1.41-0.811c0.15-0.39,0.27-0.795,0.36-1.229
				l-0.81,0.3c-0.12-0.66-0.42-1.71-0.675-2.489l1.14-0.375c0.21,0.524,0.39,1.14,0.54,1.709c0.465-2.31,0.51-4.919,0.51-6.749
				v-3.271c2.22-0.18,4.71-0.524,6.165-0.989l1.29,1.185c-1.665,0.495-3.84,0.795-5.879,0.99v0.524h5.834v3.705h-5.88l-0.03,0.705
				h6.255V513.279z M349.874,504.744v0.18c0,0.256,0,0.525,0,0.811h4.26v-0.99H349.874z M351.508,510.354v-1.141h-0.645v1.141
				H351.508z M353.083,510.354v-1.141h-0.615v1.141H353.083z M354.703,510.354v-1.141h-0.66v1.141H354.703z"/>
			<path class="st8" d="M373.018,503.619v10.995h-1.755v-0.811h-9v0.825h-1.695v-11.01h3.495v-2.805h1.755v2.805h1.8v-2.805h1.755
				v2.805H373.018z M362.264,505.359v2.505h1.8v-2.505H362.264z M362.264,512.049h1.8v-2.49h-1.8V512.049z M365.818,505.359v2.505
				h1.8v-2.505H365.818z M365.818,509.558v2.49h1.8v-2.49H365.818z M369.373,505.359v2.505h1.89v-2.505H369.373z M371.263,512.049
				v-2.49h-1.89v2.49H371.263z"/>
			<path class="st8" d="M387.703,510.444h3.06v1.335h-3.06v1.38c0,0.81-0.15,1.215-0.765,1.455
				c-0.585,0.225-1.395,0.239-2.505,0.239c-0.075-0.479-0.33-1.095-0.555-1.545c0.735,0.045,1.575,0.045,1.785,0.03
				c0.24,0,0.315-0.06,0.315-0.225v-1.335h-4.53c0.585,0.42,1.215,0.93,1.56,1.319l-1.305,1.096
				c-0.375-0.495-1.275-1.261-1.98-1.756l0.795-0.659h-3.285v-1.335h8.745v-0.525h-0.765c-1.74,0-3.015-0.12-4.035-0.645
				c-0.57-0.271-1.005-0.615-1.32-0.615c-0.435,0-1.155,0.735-1.755,1.484l-0.93-1.425c0.375-0.33,0.795-0.645,1.2-0.885
				c0.42-0.45,0.825-1.109,1.125-1.77h-2.085c0.345-0.601,0.75-1.365,1.095-2.13h-1.395v-1.26h1.335
				c-0.135-0.436-0.39-1.065-0.555-1.546l1.485-0.465c0.195,0.495,0.48,1.17,0.615,1.59l-1.2,0.421h1.965
				c-0.33,0.689-0.705,1.425-1.05,2.114h0.66l0.24-0.075l0.84,0.346c-0.255,0.824-0.63,1.649-1.095,2.369
				c0.285,0.12,0.585,0.315,1.05,0.54c0.93,0.466,2.295,0.525,3.855,0.525c1.635,0,4.245-0.12,5.835-0.345
				c-0.18,0.435-0.435,1.17-0.45,1.604c-0.69,0.045-1.83,0.09-2.94,0.12V510.444z M384.749,503.574
				c0.045-0.15,0.09-0.314,0.12-0.479h-3.645v-1.2h2.145c-0.135-0.33-0.315-0.675-0.48-0.96l1.41-0.36
				c0.27,0.405,0.57,0.915,0.72,1.32h1.83c0.24-0.405,0.48-0.9,0.615-1.275l1.68,0.285c-0.225,0.345-0.45,0.69-0.645,0.99h2.175v1.2
				h-4.155c-0.075,0.165-0.15,0.329-0.225,0.479h3.255v4.485h-7.32v-4.485H384.749z M387.838,504.369h-3.96v0.45h3.96V504.369z
				 M387.838,505.569h-3.96v0.479h3.96V505.569z M387.838,506.799h-3.96v0.48h3.96V506.799z"/>
			<path class="st8" d="M406.153,513.174c0.465,0,0.57-0.165,0.63-1.125c0.345,0.226,1.035,0.45,1.47,0.51
				c-0.18,1.545-0.615,1.95-1.92,1.95h-2.22c-1.785,0-2.22-0.405-2.22-1.74v-0.6h-1.65c-0.465,1.455-1.635,2.16-5.25,2.505
				c-0.105-0.405-0.465-1.02-0.765-1.365c2.865-0.135,3.795-0.435,4.2-1.14h-1.905v-5.024h9.495v5.024h-2.4v0.585
				c0,0.375,0.12,0.42,0.72,0.42H406.153z M401.233,506.694h-6.255v-5.58h6.135v1.021h-2.16v0.51h1.86v0.33
				c0.87-0.675,1.41-1.53,1.695-2.295l1.53,0.239c-0.06,0.165-0.135,0.346-0.21,0.511h4.14v1.109h-4.74
				c-0.09,0.15-0.195,0.285-0.3,0.42h4.365v0.976h-4.62v-0.66c-0.225,0.255-0.495,0.51-0.78,0.75c-0.255-0.3-0.72-0.72-1.08-0.945
				v2.01h-1.86v0.615h2.28V506.694z M396.494,502.135v0.51h1.065v-0.51H396.494z M399.313,503.589h-2.82v0.57h2.82V503.589z
				 M396.494,505.704h1.065v-0.615h-1.065V505.704z M398.218,508.539h6.03v-0.479h-6.03V508.539z M398.218,509.888h6.03v-0.479
				h-6.03V509.888z M398.218,511.254h6.03v-0.495h-6.03V511.254z M401.789,504.339h5.955v2.386h-5.955V504.339z M402.973,505.914
				h0.57v-0.765h-0.57V505.914z M404.413,505.914h0.615v-0.765h-0.615V505.914z M405.898,505.914h0.6v-0.765h-0.6V505.914z"/>
			<path class="st8" d="M227.293,557.714v5.415c0,0.645-0.105,1.005-0.525,1.229c-0.39,0.226-0.945,0.24-1.74,0.24
				c-0.045-0.375-0.225-0.944-0.405-1.305c0.42,0.015,0.87,0.015,1.005,0.015c0.15,0,0.195-0.06,0.195-0.194v-1.365
				c-0.495,0.33-0.975,0.645-1.455,0.93l-0.39-0.84c-0.12,1.021-0.375,2.1-0.9,2.88c-0.255-0.255-0.915-0.705-1.245-0.854
				c0.735-1.125,0.795-2.655,0.795-3.84v-2.295h-0.75v-2.325h0.585v-4.275h4.875v4.275h0.63v2.31H227.293z M226.619,556.604h-3.435
				v0.6h3.435V556.604z M223.844,555.404h0.585v-2.4h1.455v-0.614h-2.04V555.404z M224.068,560.053c0,0.436-0.015,0.886-0.045,1.38
				c0.51-0.21,1.125-0.51,1.8-0.84v-0.66l-0.6,0.66c-0.255-0.255-0.72-0.66-1.155-0.989V560.053z M224.068,559.214l0.51-0.51
				c0.435,0.285,0.915,0.615,1.245,0.9v-1.245h-1.755V559.214z M225.883,555.404v-1.396h-0.555v1.396H225.883z M235.783,563.143
				v1.29h-7.92v-1.29h1.77c-0.12-0.375-0.27-0.765-0.405-1.095l0.945-0.285h-1.59v-2.925h6.465v2.925h-1.71l1.155,0.315
				c-0.24,0.375-0.45,0.734-0.66,1.064H235.783z M235.663,558.344h-7.65v-1.274h7.65V558.344z M235.378,556.559h-7.14v-4.815h1.77
				v-1.064h1.38v1.064h0.66v-1.064h1.395v1.064h1.935V556.559z M229.558,553.604h0.765v-0.69h-0.765V553.604z M229.558,555.389
				h0.765v-0.705h-0.765V555.389z M230.143,560.699h3.255v-0.78h-3.255V560.699z M230.638,561.763c0.18,0.45,0.375,0.96,0.51,1.38
				h1.215c0.18-0.449,0.375-0.96,0.495-1.38H230.638z M232.123,553.604v-0.69h-0.72v0.69H232.123z M231.403,554.684v0.705h0.72
				v-0.705H231.403z M233.998,552.914h-0.795v0.69h0.795V552.914z M233.998,554.684h-0.795v0.705h0.795V554.684z"/>
			<path class="st8" d="M238.918,563.324c0.285-0.87,0.51-2.25,0.615-3.24l0.885,0.315c-0.09,0.989-0.285,2.414-0.54,3.255
				L238.918,563.324z M247.888,560.308c-0.09,0.391-0.195,0.78-0.315,1.155c0.54,0.33,1.11,0.765,1.41,1.095l-0.87,1.155
				c-0.24-0.255-0.645-0.615-1.065-0.93c-0.36,0.75-0.795,1.395-1.29,1.904c-0.225-0.255-0.78-0.705-1.125-0.96
				c-0.045,0.15-0.09,0.255-0.15,0.33c-0.225,0.33-0.48,0.45-0.825,0.495c-0.3,0.061-0.765,0.075-1.245,0.061
				c-0.015-0.405-0.165-0.96-0.345-1.32c0.375,0.045,0.69,0.045,0.84,0.045c0.165,0,0.27-0.015,0.375-0.165
				c0.09-0.15,0.15-0.51,0.21-1.29l-0.525,0.195c-0.105-0.525-0.36-1.335-0.6-1.936l0.63-0.21c0.195,0.436,0.39,0.99,0.525,1.455
				c0.03-0.479,0.045-1.08,0.075-1.8h-3.915v-8.354h5.19v1.455h-1.53v0.99h1.29v0.345c1.59-0.885,3.045-2.25,3.84-3.555l1.59,0.555
				c-0.09,0.165-0.195,0.315-0.3,0.465c0.9,0.795,2.205,1.59,3.36,2.025c-0.255,0.404-0.555,1.185-0.66,1.635
				c-0.465-0.24-0.93-0.51-1.395-0.825v0.99h-4.41v-0.75c-0.345,0.225-0.69,0.435-1.035,0.645c-0.21-0.285-0.66-0.765-0.99-1.035
				v0.825h-1.29v0.885h1.335v1.306h-1.335v0.944h1.665c0,0,0,0.391-0.015,0.57c-0.075,2.79-0.15,4.229-0.33,4.92
				c0.885-0.84,1.455-2.146,1.725-3.57L247.888,560.308z M241.318,560.339c0.075,0.855,0.12,1.98,0.12,2.73l-0.78,0.09
				c0.03-0.75-0.015-1.891-0.075-2.76L241.318,560.339z M241.063,552.689v0.99h0.93v-0.99H241.063z M241.994,554.999h-0.93v0.885
				h0.93V554.999z M241.063,558.134h0.93v-0.944h-0.93V558.134z M242.188,560.174c0.18,0.78,0.375,1.771,0.435,2.415l-0.75,0.15
				c-0.045-0.66-0.225-1.681-0.405-2.445L242.188,560.174z M245.398,556.109h3.21v3.645h-3.21V556.109z M246.553,558.629h0.825
				v-1.41h-0.825V558.629z M250.543,553.964c-0.585-0.435-1.155-0.885-1.665-1.35c-0.42,0.48-0.915,0.93-1.44,1.35H250.543z
				 M251.638,560.249c-0.105,0.6-0.24,1.185-0.42,1.74c0.63,0.42,1.35,0.944,1.74,1.319l-1.035,1.215
				c-0.285-0.314-0.795-0.734-1.305-1.125c-0.255,0.48-0.555,0.931-0.885,1.29c-0.255-0.27-0.915-0.765-1.29-0.989
				c0.87-0.855,1.38-2.221,1.605-3.72L251.638,560.249z M249.088,556.109h3.33v3.645h-3.33V556.109z M250.243,558.629h0.945v-1.41
				h-0.945V558.629z"/>
			<path class="st8" d="M264.583,556.769c-0.585,0.42-1.155,0.81-1.77,1.199h5.445v6.66h-1.86v-0.39h-5.16v0.449h-1.785v-4.904
				c-0.75,0.33-1.53,0.66-2.295,0.944c-0.225-0.39-0.75-1.109-1.095-1.47c1.965-0.614,3.855-1.47,5.58-2.489h-5.1v-1.575h4.815
				v-1.365h-3.525v-1.545h3.525v-1.62h1.77v1.62h3.255v0.735c0.57-0.615,1.08-1.245,1.545-1.905l1.53,0.78
				c-0.855,1.185-1.86,2.295-2.955,3.3h3.479v1.575H264.583z M266.398,559.424h-5.16v0.96h5.16V559.424z M266.398,562.754v-1.02
				h-5.16v1.02H266.398z M263.128,555.194h0.825c0.57-0.436,1.11-0.885,1.62-1.365h-2.445V555.194z"/>
			<path class="st8" d="M277.903,557.848c-0.24,1.335-0.66,2.655-1.26,3.75c0.225,0.136,0.495,0.315,0.84,0.511
				c1.035,0.585,2.475,0.675,4.17,0.675c1.68,0,4.395-0.15,6.09-0.405c-0.21,0.495-0.51,1.38-0.54,1.89
				c-1.215,0.09-3.87,0.181-5.625,0.181c-1.95,0-3.24-0.165-4.334-0.766c-0.615-0.33-1.14-0.779-1.455-0.779
				c-0.345,0-0.9,0.975-1.305,1.784l-1.17-1.725c0.45-0.54,0.945-0.975,1.425-1.275c0.54-0.734,0.975-1.725,1.245-2.685h-2.1
				c0.39-0.885,0.84-2.085,1.245-3.255h-1.5v-1.59h3.75c-0.36,1.08-0.78,2.265-1.185,3.3h0.405l0.255-0.045L277.903,557.848z
				 M275.338,553.754c-0.24-0.689-0.765-1.784-1.11-2.609l1.545-0.555c0.375,0.81,0.87,1.814,1.155,2.475L275.338,553.754z
				 M278.863,557.459c-0.18,0.09-0.375,0.165-0.555,0.226c-0.225-0.391-0.69-0.96-1.035-1.261c1.245-0.345,2.58-1.005,3.495-1.739
				h-3v-1.335h3.93v-0.75c-1.05,0.075-2.115,0.104-3.12,0.12c-0.03-0.346-0.21-0.886-0.36-1.2c2.61-0.075,5.655-0.3,7.41-0.675
				l1.095,1.17c-0.975,0.18-2.115,0.345-3.33,0.449v0.886h3.945v1.335h-3.075c0.9,0.675,2.175,1.26,3.405,1.56
				c-0.345,0.3-0.795,0.9-1.035,1.305c-1.155-0.404-2.34-1.125-3.24-2.01v1.38h-1.695v-1.319c-0.645,0.614-1.44,1.154-2.235,1.574
				h5.325c-0.075,0.375-0.165,0.766-0.24,1.17h2.505c0,0-0.03,0.375-0.06,0.585c-0.12,1.65-0.315,2.46-0.66,2.79
				c-0.285,0.3-0.645,0.405-1.08,0.436c-0.39,0.045-1.095,0.06-1.815,0.015c-0.03-0.405-0.21-0.945-0.42-1.32
				c0.63,0.061,1.23,0.075,1.47,0.075c0.24,0,0.375-0.015,0.495-0.135c0.135-0.135,0.255-0.48,0.33-1.2h-2.595
				c0.105-0.314,0.195-0.689,0.285-1.095h-1.05c-0.27,1.875-1.005,3.149-3.419,3.915c-0.15-0.405-0.555-1.005-0.9-1.32
				c1.89-0.51,2.46-1.35,2.685-2.595h-1.455V557.459z"/>
			<path class="st8" d="M294.988,557.669c-0.27,1.365-0.66,2.775-1.17,3.9c0.24,0.149,0.525,0.359,0.915,0.6
				c1.035,0.615,2.445,0.705,4.2,0.705c1.71,0,4.41-0.15,6.075-0.39c-0.21,0.479-0.51,1.35-0.525,1.829
				c-1.23,0.075-3.885,0.181-5.64,0.181c-1.995,0-3.255-0.165-4.335-0.795c-0.63-0.346-1.17-0.84-1.47-0.84
				c-0.345,0-0.885,1.02-1.26,1.874l-1.185-1.694c0.525-0.63,1.065-1.125,1.575-1.44c0.345-0.734,0.645-1.68,0.87-2.595h-1.89
				c0.345-0.885,0.735-2.085,1.08-3.255h-1.35v-1.59h3.51c-0.315,1.05-0.675,2.25-1.035,3.3h0.615l0.27-0.06L294.988,557.669z
				 M292.469,553.724c-0.165-0.676-0.57-1.755-0.825-2.58l1.575-0.48c0.285,0.811,0.675,1.815,0.885,2.49L292.469,553.724z
				 M296.878,562.214h-1.545v-6.524h1.11v-4.59h6.465v4.59h1.095v5.01c0,0.705-0.12,1.08-0.585,1.319
				c-0.435,0.226-1.05,0.24-1.86,0.24c-0.045-0.39-0.21-0.899-0.39-1.29h-2.25v0.465h-1.275v-3.779h3.915v3.225
				c0.285,0,0.525,0,0.615,0c0.165,0,0.21-0.045,0.21-0.195v-3.645h-5.505V562.214z M297.988,555.689h0.84v-2.355h2.475v-0.915
				h-3.315V555.689z M300.268,558.794h-1.35v1.05h1.35V558.794z M301.303,554.444h-1.185v1.245h1.185V554.444z"/>
			<path class="st8" d="M317.098,555.509c1.605,1.155,3.915,2.88,4.995,4.065l-1.515,1.365c-0.93-1.11-2.97-2.82-4.59-4.065v7.77
				h-1.95v-7.319c-1.365,1.455-2.97,2.76-4.77,3.689c-0.285-0.479-0.84-1.215-1.23-1.619c2.73-1.275,5.07-3.601,6.465-5.896h-5.985
				v-1.83h13.004v1.83h-4.665c-0.255,0.465-0.555,0.931-0.87,1.38v1.561L317.098,555.509z"/>
			<path class="st8" d="M338.638,562.619c0,0.93-0.195,1.439-0.765,1.725c-0.57,0.3-1.41,0.345-2.655,0.345
				c-0.075-0.494-0.345-1.305-0.615-1.77c0.795,0.045,1.665,0.045,1.92,0.03c0.255-0.016,0.36-0.105,0.36-0.346v-9.539h-9.225
				v11.609h-1.74v-13.305h12.72V562.619z M335.998,555.614h-7.484v-1.5h7.484V555.614z M330.869,561.779v0.989h-1.65v-5.999h6.105
				v5.01H330.869z M330.869,558.239v2.069h2.805v-2.069H330.869z"/>
			<path class="st8" d="M355.303,562.664c0,0.975-0.24,1.455-0.93,1.74c-0.69,0.27-1.725,0.3-3.21,0.3
				c-0.09-0.495-0.42-1.26-0.675-1.726c1.05,0.061,2.28,0.045,2.61,0.045c0.315-0.015,0.435-0.104,0.435-0.39v-1.185h-7.5
				c-0.39,1.245-1.11,2.43-2.34,3.3c-0.24-0.345-0.9-1.005-1.26-1.245c2.145-1.515,2.355-3.72,2.355-5.535v-2.234
				c-0.255,0.225-0.525,0.435-0.795,0.645c-0.27-0.42-0.87-1.05-1.26-1.305c1.905-1.29,3.195-3,3.899-4.47l1.905,0.33
				c-0.09,0.18-0.195,0.375-0.3,0.555h2.97l0.285-0.075l1.215,0.795c-0.33,0.585-0.765,1.245-1.215,1.86h3.81V562.664z
				 M346.499,558.494c-0.015,0.465-0.045,0.945-0.12,1.425h2.7v-1.425H346.499z M347.323,552.944
				c-0.27,0.375-0.555,0.765-0.87,1.125h3.09c0.24-0.345,0.495-0.75,0.705-1.125H347.323z M346.514,556.994h2.565v-1.365h-2.565
				V556.994z M353.533,555.629h-2.76v1.365h2.76V555.629z M353.533,559.919v-1.425h-2.76v1.425H353.533z"/>
			<path class="st8" d="M362.744,555.928c0,2.521-0.195,6.271-1.44,8.715c-0.36-0.255-1.17-0.63-1.635-0.765
				c1.2-2.31,1.305-5.655,1.305-7.935v-3.99h5.595c-0.105-0.345-0.225-0.705-0.36-0.989l1.815-0.405c0.21,0.42,0.42,0.93,0.57,1.395
				h4.95v1.665h-10.799V555.928z M372.658,559.799c-0.63,1.17-1.53,2.07-2.64,2.775c1.14,0.27,2.4,0.435,3.765,0.54
				c-0.345,0.375-0.795,1.095-1.02,1.545c-1.83-0.181-3.45-0.525-4.86-1.096c-1.425,0.511-3.045,0.825-4.74,1.005
				c-0.135-0.42-0.465-1.095-0.735-1.484c1.245-0.105,2.445-0.255,3.54-0.525c-0.69-0.465-1.305-1.02-1.815-1.635l0.6-0.24h-1.59
				v-1.395h8.07l0.315-0.06L372.658,559.799z M365.068,558.689v-2.34h-2.025v-1.396h2.025v-0.99h1.68v0.99h2.729v-0.99h1.77v0.99
				h2.16v1.396h-2.16v2.34H365.068z M366.013,560.683c0.525,0.48,1.2,0.886,1.98,1.216c0.765-0.33,1.425-0.721,1.98-1.216H366.013z
				 M366.749,556.349v0.989h2.729v-0.989H366.749z"/>
			<path class="st8" d="M389.458,559.499c-0.42-0.465-1.185-1.125-1.935-1.74c-0.3,0.495-0.63,0.931-1.005,1.29
				c-0.255-0.21-0.75-0.54-1.17-0.765c1.335,1.77,3.48,3.359,5.73,4.185c-0.435,0.375-1.02,1.14-1.32,1.635
				c-1.815-0.84-3.51-2.189-4.86-3.795v4.365h-1.875v-4.274c-1.35,1.574-3.03,2.88-4.815,3.704c-0.285-0.435-0.87-1.154-1.26-1.529
				c2.43-0.945,4.77-2.806,6.075-4.83v-3.465h-5.46v-1.755h5.46v-1.845h1.875v1.845h5.655v1.755h-5.655v3.359
				c0.075,0.12,0.15,0.226,0.225,0.346c0.96-0.855,1.59-2.19,1.89-3.615l1.74,0.315c-0.135,0.555-0.3,1.095-0.495,1.604
				c0.855,0.66,1.89,1.455,2.445,1.965L389.458,559.499z M381.733,554.699c-0.15,0.555-0.33,1.095-0.54,1.62
				c0.54,0.465,1.11,0.96,1.455,1.319l-1.2,1.245c-0.225-0.285-0.6-0.66-1.005-1.05c-0.495,0.811-1.065,1.515-1.725,2.055
				c-0.285-0.314-0.99-0.899-1.38-1.17c1.32-0.944,2.235-2.52,2.655-4.35L381.733,554.699z"/>
			<path class="st8" d="M407.638,554.264c-0.54,1.425-1.32,2.699-2.265,3.779c0.36,2.82,0.9,4.83,1.365,4.83
				c0.21,0,0.345-0.765,0.39-2.4c0.33,0.405,0.885,0.795,1.32,0.976c-0.255,2.475-0.735,3.119-1.935,3.119
				c-1.305,0-2.145-2.159-2.64-5.129c-0.285,0.225-0.585,0.42-0.885,0.614c-0.135-0.18-0.375-0.42-0.615-0.675h-1.77
				c0.42,0.675,0.93,1.561,1.155,2.07l-1.17,0.63c-0.165-0.45-0.51-1.11-0.84-1.725v2.52c0,0.39,0.06,0.435,0.435,0.435h1.08
				c0.345,0,0.42-0.225,0.45-1.59c0.225,0.165,0.615,0.33,0.96,0.436c-0.21-0.511-0.42-1.021-0.615-1.471l1.17-0.449
				c0.48,1.02,1.065,2.385,1.35,3.194l-1.26,0.54c-0.09-0.33-0.24-0.765-0.42-1.229c-0.165,1.38-0.555,1.77-1.485,1.77h-1.455
				c-1.32,0-1.62-0.39-1.62-1.62v-2.55h1.395l-0.285-0.51l0.93-0.45h-2.88v-3.465h4.89v2.565c0.435-0.271,0.84-0.585,1.215-0.931
				c-0.15-1.305-0.24-2.699-0.315-4.079h-6.165v0.645h5.745v1.185h-5.745c-0.03,2.67-0.3,6.72-1.59,9.405
				c-0.3-0.285-1.035-0.795-1.425-0.931c1.26-2.595,1.38-6.359,1.38-8.834v-2.88h7.754c-0.015-0.465-0.03-0.931-0.03-1.396h1.725
				v0.48l0.945-0.66c0.48,0.345,1.155,0.84,1.5,1.155l-0.555,0.42h1.2v1.41h-3.045c0.03,0.765,0.075,1.529,0.135,2.265
				c0.375-0.585,0.675-1.2,0.915-1.875L407.638,554.264z M396.418,563.669c0.255-0.93,0.54-2.325,0.675-3.33l1.14,0.436
				c-0.15,0.944-0.39,2.43-0.585,3.359L396.418,563.669z M400.993,557.114h-2.04v1.08h2.04V557.114z M405.868,552.059
				c-0.285-0.255-0.63-0.525-0.93-0.766c0,0.256,0,0.511,0,0.766H405.868z"/>
			<path class="st8" d="M423.253,558.314c-0.675,1.47-1.665,2.609-2.88,3.494c1.439,0.511,3.12,0.855,4.964,1.021
				c-0.375,0.405-0.855,1.185-1.095,1.665c-2.175-0.271-4.11-0.78-5.73-1.575c-1.725,0.825-3.72,1.32-5.834,1.604
				c-0.18-0.42-0.675-1.215-1.05-1.574c1.875-0.195,3.615-0.54,5.1-1.096c-0.915-0.645-1.71-1.439-2.37-2.354l0.495-0.21h-0.705
				v-1.635h7.575l0.33-0.075L423.253,558.314z M413.654,558.209h-1.665v-3.255h2.145c-0.15-0.465-0.435-1.064-0.705-1.545
				l1.335-0.375c-0.75,0.045-1.515,0.075-2.235,0.09c-0.03-0.449-0.24-1.125-0.405-1.515c3.945-0.135,8.46-0.495,11.189-1.02
				l1.2,1.439c-1.62,0.3-3.555,0.54-5.55,0.72c0.3,0.601,0.585,1.396,0.675,1.936l-1.11,0.27h2.61c0.36-0.689,0.75-1.575,0.975-2.25
				l1.905,0.45c-0.345,0.63-0.735,1.245-1.08,1.8h2.13v3.255h-1.74v-1.71h-9.674V558.209z M418.858,552.749
				c-1.26,0.12-2.565,0.21-3.84,0.271c0.345,0.555,0.69,1.229,0.84,1.71l-0.78,0.225h2.865c-0.09-0.524-0.315-1.274-0.57-1.859
				L418.858,552.749z M416.249,559.289c0.615,0.675,1.38,1.245,2.28,1.74c0.795-0.48,1.5-1.05,2.04-1.74H416.249z"/>
			<path class="st8" d="M438.388,552.044c1.38,1.29,3.165,3.136,3.945,4.396l-1.515,1.095c-0.195-0.33-0.465-0.72-0.78-1.14
				c-7.964,0.39-9.029,0.42-9.825,0.689c-0.09-0.359-0.375-1.245-0.585-1.71c0.39-0.104,0.75-0.39,1.245-0.87
				c0.525-0.465,2.16-2.279,3.18-4.079l1.8,0.765c-0.945,1.395-2.13,2.729-3.27,3.825l6.15-0.195c-0.585-0.66-1.185-1.29-1.74-1.845
				L438.388,552.044z M430.708,558.074h10.11v6.569h-1.92v-0.75h-6.36v0.766h-1.83V558.074z M432.539,559.784v2.399h6.36v-2.399
				H432.539z"/>
			<path class="st8" d="M452.548,560.354l0.315,1.59c-2.115,0.915-4.425,1.829-6.195,2.534l-0.795-1.83h-0.015
				c1.02-0.314,2.459-0.81,3.99-1.334v-5.325h-3.465v-1.785h3.465v-3.3h1.86v9.75L452.548,560.354z M457.438,562.484
				c0.555,0,0.645-0.705,0.735-3.391c0.435,0.346,1.215,0.721,1.71,0.84c-0.165,3.105-0.585,4.29-2.28,4.29h-1.785
				c-1.65,0-2.145-0.63-2.145-2.699v-10.605h1.86v3.271h3.915v1.77h-3.915v5.58c0,0.81,0.075,0.945,0.57,0.945H457.438z"/>
			<path class="st8" d="M476.893,552.974c0,0,0,0.6-0.015,0.81c-0.195,6.705-0.36,9.09-0.975,9.885
				c-0.42,0.555-0.84,0.72-1.44,0.825c-0.57,0.074-1.47,0.06-2.355,0.029c-0.03-0.494-0.27-1.244-0.585-1.739
				c0.96,0.09,1.845,0.09,2.235,0.09c0.3,0,0.465-0.061,0.66-0.255c0.435-0.48,0.63-2.73,0.795-8.024h-3.21
				c-0.39,0.899-0.855,1.725-1.32,2.369c-0.24-0.225-0.75-0.569-1.155-0.84v7.005h-4.005v1.095h-1.62v-11.145h1.695
				c0.195-0.75,0.375-1.71,0.435-2.415l1.95,0.271c-0.255,0.75-0.525,1.5-0.78,2.145h2.325v2.43c0.87-1.26,1.59-3.074,2.025-4.829
				l1.695,0.39c-0.15,0.646-0.36,1.275-0.585,1.905H476.893z M467.909,554.639h-2.385v2.43h2.385V554.639z M467.909,561.553v-2.939
				h-2.385v2.939H467.909z M472.888,560.744c-0.42-0.9-1.35-2.37-2.085-3.465l1.395-0.795c0.75,1.035,1.74,2.46,2.205,3.33
				L472.888,560.744z"/>
			<path class="st8" d="M488.398,550.679c-0.015,0.63-0.045,1.439-0.105,2.34c0.21,2.024,1.125,7.68,6.359,9.989
				c-0.555,0.436-1.065,1.035-1.305,1.545c-3.33-1.59-4.995-4.515-5.865-7.095c-0.825,2.64-2.4,5.354-5.52,7.185
				c-0.315-0.479-0.885-1.05-1.485-1.455c6.09-3.255,5.805-9.975,5.865-12.509H488.398z"/>
			<path class="st8" d="M509.323,554.924c-0.765,2.16-1.785,3.915-3.09,5.37c1.545,1.2,3.435,2.07,5.669,2.595
				c-0.405,0.391-0.93,1.17-1.2,1.665c-2.355-0.63-4.29-1.62-5.865-2.939c-1.65,1.35-3.66,2.34-6.075,3.029
				c-0.195-0.42-0.72-1.26-1.08-1.665c2.34-0.585,4.275-1.439,5.835-2.654c-1.35-1.485-2.385-3.285-3.195-5.4h-2.355v-1.739h6.33
				c-0.165-0.615-0.495-1.455-0.84-2.115l1.905-0.555c0.39,0.689,0.84,1.649,1.02,2.265l-1.29,0.405h6.525v1.739H509.323z
				 M502.168,554.924c0.645,1.575,1.545,2.971,2.7,4.155c1.035-1.14,1.86-2.505,2.445-4.155H502.168z"/>
			<path class="st8" d="M520.693,559.574l-1.44,0.375v4.725h-1.695v-4.305l-1.98,0.51l-0.435-1.814
				c0.66-0.12,1.515-0.301,2.415-0.48v-3.3h-0.87c-0.15,0.75-0.33,1.455-0.54,1.995c-0.3-0.135-0.93-0.375-1.26-0.48
				c0.48-1.215,0.765-3.149,0.9-4.979l1.35,0.21c-0.045,0.525-0.105,1.035-0.18,1.56h0.6v-2.909h1.695v2.909h1.29v1.695h-1.29v2.925
				l1.245-0.285L520.693,559.574z M528.883,559.544h-1.44v3.135c0,0.885-0.165,1.351-0.765,1.635
				c-0.57,0.271-1.41,0.315-2.505,0.315c-0.075-0.525-0.315-1.26-0.54-1.77c0.705,0.029,1.515,0.029,1.755,0.029
				c0.225,0,0.285-0.06,0.285-0.255v-3.09h-4.77v-1.635h4.77v-1.05h1.77v1.05h1.44V559.544z M523.783,553.619h-2.82v-1.62h2.82
				v-1.335h1.77v1.335h3v1.62h-3v1.275h2.49v1.649h-6.524v-1.649h2.265V553.619z M522.914,559.589c0.645,0.66,1.439,1.62,1.8,2.25
				l-1.41,0.915c-0.315-0.63-1.065-1.635-1.71-2.354L522.914,559.589z"/>
			<path class="st8" d="M542.713,562.784c1.44,0,1.665-0.33,1.86-2.19c0.45,0.255,1.185,0.54,1.68,0.63
				c-0.315,2.46-0.93,3.181-3.45,3.181h-5.13c-2.79,0-3.645-0.54-3.645-2.686v-5.46c-0.3,0.24-0.6,0.45-0.885,0.66
				c-0.165-0.42-0.645-1.305-0.96-1.71c1.77-1.064,3.585-2.79,4.59-4.649l1.62,0.615c-0.12,0.21-0.255,0.435-0.375,0.645h3.45
				l0.345-0.09l1.14,0.854c-0.51,0.721-1.155,1.53-1.845,2.235h3.66v5.64h-1.755v-0.51h-7.26v1.77c0,0.915,0.255,1.065,1.89,1.065
				H542.713z M536.878,553.409c-0.405,0.495-0.81,0.96-1.26,1.41h3.36c0.435-0.405,0.87-0.9,1.26-1.41H536.878z M535.753,558.254
				h2.79v-1.785h-2.79V558.254z M543.013,556.469h-2.73v1.785h2.73V556.469z"/>
		</g>
	</g>
	<g>
		<path class="st8" d="M79.161,65.751h4.41v8.85h10.26v-8.85h4.41V88.04h-4.41v-9.6h-10.26v9.6h-4.41V65.751z"/>
		<path class="st8" d="M106.641,79.671c0-5.609,3.87-8.85,8.07-8.85s8.07,3.24,8.07,8.85c0,5.55-3.87,8.789-8.07,8.789
			S106.641,85.22,106.641,79.671z M118.281,79.671c0-3.18-1.29-5.25-3.57-5.25s-3.57,2.07-3.57,5.25c0,3.15,1.29,5.189,3.57,5.189
			S118.281,82.821,118.281,79.671z"/>
		<path class="st8" d="M127.671,71.241h4.41l1.83,8.31c0.33,1.62,0.54,3.239,0.84,4.89h0.12c0.33-1.65,0.63-3.3,1.05-4.89l2.01-8.31
			h3.93l2.1,8.31c0.39,1.62,0.69,3.239,1.05,4.89h0.15c0.3-1.65,0.51-3.27,0.84-4.89l1.83-8.31h4.08l-4.14,16.799h-5.19l-1.77-7.319
			c-0.36-1.59-0.63-3.12-0.96-4.89h-0.15c-0.33,1.77-0.57,3.33-0.93,4.89l-1.71,7.319h-5.04L127.671,71.241z"/>
		<path class="st8" d="M169.49,71.632c0-1.801-1.44-2.82-3.78-2.82c-1.86,0-3.42,0.81-4.8,2.369l-2.46-2.279
			c1.89-2.221,4.53-3.66,7.74-3.66c4.35,0,7.53,2.01,7.53,6c0,4.41-6.54,4.92-6.09,9.09h-3.87
			C163.13,75.621,169.49,74.541,169.49,71.632z M165.71,82.401c1.8,0,3.12,1.199,3.12,2.939s-1.32,2.97-3.12,2.97
			s-3.12-1.229-3.12-2.97S163.911,82.401,165.71,82.401z"/>
	</g>
	<g>
		<path class="st8" d="M91.58,120.897c-0.81,1.458-1.818,2.772-2.989,3.942c0.486,1.387,1.044,2.215,1.584,2.215
			c0.378,0,0.594-0.864,0.684-2.988c0.468,0.504,1.188,0.99,1.765,1.224c-0.342,3.151-1.008,3.943-2.647,3.943
			c-1.314,0-2.323-1.08-3.097-2.845c-1.044,0.864-2.179,1.603-3.331,2.196c-0.306-0.504-0.9-1.242-1.422-1.729
			c1.386-0.63,2.773-1.512,4.015-2.538c-0.396-1.423-0.702-3.062-0.918-4.826h-3.655v2.053c0.918-0.162,1.854-0.342,2.773-0.504
			l0.162,1.944l-2.935,0.595v3.079c0,1.17-0.252,1.746-0.972,2.088c-0.703,0.343-1.783,0.433-3.241,0.414
			c-0.09-0.594-0.45-1.566-0.756-2.16c1.008,0.054,2.053,0.036,2.377,0.018c0.324,0,0.432-0.09,0.432-0.378v-2.61
			c-1.152,0.233-2.269,0.468-3.223,0.647l-0.522-2.16c1.026-0.162,2.323-0.36,3.745-0.612v-2.413h-3.403v-2.034h3.403v-2.053
			c-0.973,0.162-1.963,0.288-2.881,0.396c-0.09-0.522-0.378-1.314-0.612-1.801c2.521-0.342,5.312-0.918,7.148-1.513l1.44,1.818
			c-0.9,0.271-1.89,0.505-2.935,0.721v2.431h3.457c-0.144-1.62-0.198-3.295-0.216-4.934h2.251c-0.036,1.675,0.036,3.35,0.18,4.934
			h4.897v2.034h-4.681c0.144,1.081,0.324,2.125,0.522,3.043c0.648-0.773,1.243-1.584,1.71-2.448L91.58,120.897z M90.266,116.935
			c-0.468-0.828-1.584-2.106-2.557-2.971l1.621-1.099c0.954,0.829,2.143,2.017,2.665,2.863L90.266,116.935z"/>
		<path class="st8" d="M107.4,120.177h-3.097v8.949h-1.98v-15.773c-0.36,1.026-0.774,2.089-1.243,3.115v12.693h-2.035v-9.002
			c-0.36,0.54-0.738,1.044-1.116,1.477c-0.162-0.505-0.684-1.747-1.026-2.305c1.458-1.675,2.773-4.304,3.565-6.95l1.981,0.594
			l-0.108,0.342h5.059V120.177z M104.304,114.937v1.026h1.477v-1.026H104.304z M105.78,118.556v-1.062h-1.477v1.062H105.78z
			 M113.559,126.677c0,1.188-0.252,1.765-0.973,2.07c-0.738,0.343-1.873,0.396-3.565,0.396c-0.072-0.594-0.414-1.53-0.684-2.07
			c1.098,0.071,2.341,0.054,2.701,0.036c0.342,0,0.468-0.108,0.468-0.45v-6.482h-3.295v-6.86h5.348V126.677z M109.903,114.937v1.026
			h1.603v-1.026H109.903z M111.506,118.556v-1.062h-1.603v1.062H111.506z"/>
		<path class="st8" d="M126.696,115.315l0.63-0.036l-0.018,1.999l-0.612,0.054c-0.054,2.07-0.342,4.663-1.71,7.112
			c0.9,0.81,1.71,1.584,2.269,2.196l-1.603,1.621c-0.468-0.576-1.135-1.279-1.909-2.017c-0.864,1.044-1.999,2.017-3.493,2.881
			c-0.306-0.486-1.026-1.261-1.512-1.621c1.476-0.811,2.593-1.765,3.403-2.791c-0.99-0.9-2.017-1.8-2.899-2.593
			c0.36-1.188,0.72-2.736,1.026-4.375l-1.314,0.09l-0.216-2.124c0.576-0.019,1.206-0.055,1.891-0.091
			c0.162-1.08,0.288-2.16,0.36-3.15l2.287,0.126c-0.108,0.918-0.252,1.927-0.414,2.917l1.729-0.09v-0.847h2.106V115.315z
			 M122.5,117.62c-0.27,1.387-0.576,2.755-0.864,3.943c0.522,0.45,1.099,0.937,1.657,1.422c0.972-1.908,1.242-3.889,1.278-5.51
			L122.5,117.62z M134.762,114.217v14.188h-2.125v-1.044h-2.845v1.332h-2.035v-14.477H134.762z M132.638,125.326v-9.093h-2.845
			v9.093H132.638z"/>
		<path class="st8" d="M146.351,112.993c-0.414,1.098-0.9,2.196-1.477,3.295v12.838h-2.143v-9.417
			c-0.414,0.558-0.846,1.062-1.26,1.512c-0.198-0.521-0.774-1.692-1.152-2.232c1.584-1.584,3.133-4.105,4.015-6.644L146.351,112.993
			z M157.28,115.964H156.2v10.677c0,1.242-0.27,1.818-1.044,2.161c-0.756,0.324-1.98,0.396-3.655,0.396
			c-0.072-0.63-0.414-1.566-0.72-2.196c1.17,0.054,2.431,0.054,2.791,0.054c0.36,0,0.468-0.107,0.468-0.45v-10.641h-7.851v-2.053
			h11.091V115.964z M148.404,124.426v1.171h-1.999v-7.688h5.996v6.518H148.404z M148.404,119.762v2.809h1.999v-2.809H148.404z"/>
		<path class="st8" d="M167.123,120.771c-0.324,1.638-0.811,3.33-1.422,4.681c0.288,0.181,0.63,0.433,1.116,0.721
			c1.224,0.738,2.917,0.846,5.023,0.846c2.07,0,5.293-0.18,7.274-0.468c-0.234,0.576-0.594,1.62-0.612,2.196
			c-1.495,0.091-4.664,0.217-6.77,0.217c-2.395,0-3.907-0.198-5.204-0.955c-0.756-0.414-1.387-1.008-1.765-1.008
			c-0.414,0-1.044,1.225-1.495,2.251l-1.422-2.035c0.612-0.756,1.278-1.351,1.891-1.71c0.396-0.9,0.756-2.035,1.026-3.134h-2.269
			c0.414-1.062,0.9-2.502,1.296-3.906h-1.621v-1.909h4.213c-0.378,1.261-0.811,2.701-1.225,3.961h0.72l0.324-0.071L167.123,120.771z
			 M164.08,116.035c-0.198-0.81-0.667-2.124-0.972-3.097l1.89-0.576c0.342,0.973,0.792,2.179,1.044,2.989L164.08,116.035z
			 M168.203,118.844c-0.306,0.359-0.612,0.666-0.918,0.972c-0.198-0.432-0.792-1.494-1.152-1.962c1.44-1.297,2.737-3.35,3.457-5.456
			l1.945,0.54c-0.27,0.774-0.612,1.53-0.972,2.287h2.683c-0.234-0.648-0.54-1.351-0.846-1.944l2.017-0.576
			c0.45,0.773,0.918,1.764,1.152,2.521h2.845v1.801h-3.637v1.025h2.899v1.729h-2.899v1.117h2.827v1.729h-2.827v1.134h3.835v1.801
			h-8.336v0.756h-2.071V118.844z M172.741,117.026h-2.467v1.025h2.467V117.026z M172.741,119.78h-2.467v1.117h2.467V119.78z
			 M172.741,122.626h-2.467v1.134h2.467V122.626z"/>
		<path class="st8" d="M190.379,117.044c-0.54,0.918-1.206,1.854-1.927,2.755v9.398h-2.143v-7.04
			c-0.504,0.486-0.99,0.937-1.476,1.333c-0.306-0.433-1.026-1.405-1.458-1.854c1.836-1.261,3.799-3.35,4.951-5.384L190.379,117.044z
			 M189.713,113.209c-1.296,1.692-3.241,3.547-4.952,4.735c-0.27-0.469-0.81-1.333-1.188-1.747c1.495-0.954,3.205-2.574,4.069-3.835
			L189.713,113.209z M200.3,120.375h-2.467v6.319c0,1.152-0.216,1.747-1.008,2.071c-0.756,0.324-1.908,0.36-3.511,0.36
			c-0.09-0.631-0.36-1.567-0.648-2.179c1.026,0.054,2.215,0.054,2.539,0.035c0.324,0,0.45-0.071,0.45-0.342v-6.266h-5.312v-2.035
			h9.957V120.375z M199.85,115.424h-8.75v-2.035h8.75V115.424z"/>
		<path class="st8" d="M212.898,117.763c0-1.08-0.864-1.692-2.269-1.692c-1.116,0-2.053,0.486-2.881,1.423l-1.477-1.368
			c1.134-1.333,2.719-2.197,4.646-2.197c2.611,0,4.519,1.207,4.519,3.602c0,2.646-3.925,2.953-3.655,5.455h-2.323
			C209.082,120.159,212.898,119.51,212.898,117.763z M210.63,124.228c1.08,0,1.873,0.72,1.873,1.764
			c0,1.045-0.792,1.783-1.873,1.783c-1.081,0-1.873-0.738-1.873-1.783C208.757,124.948,209.549,124.228,210.63,124.228z"/>
	</g>
	<path class="st22" d="M315.616,293.661L315.616,293.661l0,9.555l-2.201-2.201c-0.293-0.293-0.768-0.293-1.061,0l-0.487,0.487
		c-0.293,0.293-0.293,0.768,0,1.061l4.313,4.314c0.293,0.293,0.767,0.293,1.06,0.001l4.315-4.315c0.141-0.141,0.22-0.331,0.22-0.53
		s-0.079-0.391-0.22-0.531l-0.488-0.487c-0.294-0.292-0.768-0.292-1.061,0.001l-2.2,2.201v-9.555h0c0-0.414-0.336-0.75-0.75-0.75
		h-0.689C315.952,292.911,315.616,293.247,315.616,293.661z"/>
	<path class="st22" d="M315.616,525.897L315.616,525.897l0,9.555l-2.201-2.201c-0.293-0.293-0.768-0.293-1.061,0l-0.487,0.487
		c-0.293,0.293-0.293,0.768,0,1.061l4.313,4.314c0.293,0.293,0.767,0.293,1.06,0.001l4.315-4.315c0.141-0.141,0.22-0.331,0.22-0.53
		s-0.079-0.391-0.22-0.531l-0.488-0.487c-0.294-0.292-0.768-0.292-1.061,0.001l-2.2,2.201v-9.555h0c0-0.414-0.336-0.75-0.75-0.75
		h-0.689C315.952,525.147,315.616,525.483,315.616,525.897z"/>
</g>
<g id="圖層_4">
</g>
<g id="圖層_6">
</g>
</svg>
