<?xml version="1.0" encoding="utf-8"?>
<!-- Generator: Adobe Illustrator 22.0.1, SVG Export Plug-In . SVG Version: 6.00 Build 0)  -->
<svg version="1.1" xmlns="http://www.w3.org/2000/svg" xmlns:xlink="http://www.w3.org/1999/xlink" x="0px" y="0px"
	 viewBox="0 0 31.49 36.89" style="enable-background:new 0 0 31.49 36.89;" xml:space="preserve">
<style type="text/css">
	.st0{fill:#EFEFEF;}
	.st1{fill:#15AF83;}
	.st2{fill:#171C61;}
	.st3{fill:#17AD7B;}
	.st4{opacity:0.6;}
	.st5{fill:#FFFFFF;}
	.st6{fill:#165987;}
	.st7{fill:#D64B3C;}
	.st8{fill:#D65677;}
	.st9{fill:#DD722A;}
	.st10{fill:#005E9E;}
	.st11{fill:#D67327;}
	.st12{clip-path:url(#SVGID_6_);fill:none;}
	.st13{clip-path:url(#SVGID_6_);}
	.st14{fill:none;stroke:#FFFFFF;stroke-width:0.6;stroke-miterlimit:10;}
	.st15{fill:#113272;}
	.st16{opacity:0.2;}
	.st17{opacity:0.2;fill:#171C61;}
	.st18{opacity:0.4;}
	.st19{opacity:0.8;}
	.st20{display:none;}
	.st21{display:inline;fill:#C30D23;}
</style>
<g id="圖層_3">
	<g>
		<g>
			<g>
				<g>
					<path class="st2" d="M10.523,29.698l-0.116-0.121C10.462,29.634,10.497,29.671,10.523,29.698z"/>
					<path class="st2" d="M11.32,30.611l0.029,0.014C11.307,30.588,11.288,30.573,11.32,30.611z"/>
					<path class="st2" d="M17.385,33.969c0.05-0.053,0.119-0.13,0.214-0.24L17.385,33.969z"/>
					<path class="st2" d="M5.954,24.918L5.793,24.8C6.013,25.016,5.926,24.911,5.954,24.918z"/>
					<path class="st2" d="M7.27,3.559c0.015-0.01,0.032-0.021,0.046-0.03C7.318,3.522,7.299,3.537,7.27,3.559z"/>
					<path class="st2" d="M29.49,17.316c-0.001,0.005-0.001,0.008-0.002,0.013C29.501,17.285,29.498,17.292,29.49,17.316z"/>
					<path class="st2" d="M1.748,14.801c0-0.01,0.001-0.023,0.003-0.034C1.748,14.608,1.745,14.678,1.748,14.801z"/>
					<path class="st2" d="M23.197,27.287c0.004-0.006,0.007-0.009,0.011-0.014c-0.005,0.005-0.012,0.012-0.017,0.016L23.197,27.287z
						"/>
					<path class="st2" d="M22.828,27.714c0.139-0.199,0.235-0.296,0.364-0.424l-0.185,0.082L22.828,27.714z"/>
					<path class="st2" d="M29.782,14.692c-0.016-0.172-0.034-0.377-0.048-0.529c-0.036,0.095,0.038,0.698,0.031,1.003
						c-0.018,0-0.036-0.067-0.051-0.179c0.001-0.066,0.005-0.132,0.005-0.199c0-0.861-0.082-1.703-0.232-2.522
						c-0.021-0.132-0.046-0.274-0.077-0.422c-0.022-0.087-0.045-0.178-0.068-0.268c-0.037-0.156-0.076-0.312-0.118-0.466
						c-0.003-0.014-0.007-0.028-0.01-0.042c-0.031-0.128-0.062-0.253-0.091-0.371c-0.028-0.118-0.073-0.224-0.103-0.323
						c-0.024-0.053-0.054-0.121-0.08-0.177c-0.367-1.051-0.855-2.045-1.45-2.965c0.022,0.025,0.046,0.052,0.011-0.013
						c-0.009-0.003-0.034-0.03-0.066-0.072c-2.492-3.795-6.783-6.304-11.662-6.304c-0.318,0-0.633,0.015-0.946,0.035
						c-0.132-0.015-0.249-0.032-0.231-0.056c-0.208,0.026-0.481,0.054-0.79,0.084c-0.307,0.035-0.654,0.056-0.981,0.17
						c-0.15,0.026,0.121-0.051,0.04-0.045c-0.164,0.069-0.366,0.126-0.747,0.212l0.041-0.017c-0.263,0.076-0.497,0.114-0.7,0.194
						c-0.205,0.072-0.394,0.138-0.587,0.205c-0.193,0.068-0.393,0.131-0.612,0.214C10.049,1.94,9.812,2.049,9.532,2.178l0.096-0.013
						c-0.24,0.111-0.295,0.127-0.41,0.174C9.106,2.416,9.223,2.362,9.37,2.293C8.855,2.538,7.99,3.106,7.804,3.172
						C7.476,3.416,7.919,3.129,7.593,3.373l-0.098,0.05L7.427,3.503C7.211,3.66,7.088,3.722,7.07,3.716
						c0.053-0.037,0.145-0.114,0.2-0.157c-0.144,0.097-0.344,0.24-0.509,0.38c-0.158,0.148-0.293,0.279-0.34,0.316L6.72,4
						C6.321,4.389,5.832,4.774,5.439,5.248C5.237,5.478,5.019,5.695,4.84,5.931C4.665,6.17,4.498,6.403,4.345,6.624l0.06-0.057
						C4.288,6.735,4.204,6.851,4.136,6.942C4.075,7.038,4.03,7.11,3.983,7.183C3.888,7.329,3.786,7.483,3.557,7.871l0.014-0.03
						C3.528,7.923,3.479,8.015,3.426,8.113C3.38,8.217,3.329,8.327,3.274,8.438C3.358,8.225,3.06,8.809,3.173,8.532
						C2.992,8.939,2.95,9.041,2.926,9.109C2.916,9.143,2.907,9.17,2.891,9.221C2.872,9.273,2.846,9.35,2.811,9.494L2.742,9.612
						C2.694,9.808,2.698,9.827,2.55,10.25c0.107-0.352-0.132,0.258-0.016-0.139c-0.089,0.219-0.176,0.407-0.22,0.585
						c-0.044,0.177-0.079,0.333-0.109,0.473c-0.062,0.28-0.11,0.497-0.201,0.699c-0.044,0.433,0.238-0.783,0.192-0.545
						c0.071-0.191-0.042,0.357-0.121,0.641c-0.048,0.296-0.159,0.49-0.273,1.241c0.009-0.074,0.01-0.08,0.019-0.155
						c-0.071,0.278-0.035,0.555-0.081,0.901c0.029,0.197-0.025,0.452,0.022,0.51l0.023-0.694c-0.003,0.197,0.005,0.389,0.006,0.611
						c0.001,0.111,0,0.23-0.005,0.361c0,0.131,0,0.274,0,0.438c-0.011-0.05-0.029-0.243-0.04-0.375
						c-0.01,0.19,0.019,0.365,0.008,0.562c-0.026-0.027-0.034-0.238-0.041-0.496c0-0.257,0.024-0.56,0.013-0.772
						c-0.032,0.204-0.004,0.8-0.048,0.587c0.065,0.305-0.007,0.75,0.089,1.26l-0.032-0.031c0.011,0.081,0.034,0.251,0.054,0.397
						c-0.025-0.088-0.047-0.177-0.065-0.266c0.073,0.411,0.056,0.804,0.148,1.196c-0.074-0.413-0.067-0.462-0.053-0.45
						c0.013,0.012,0.037,0.083,0.026-0.094c0.189,0.929,0.027,0.662,0.223,1.491c-0.027-0.14-0.039-0.25,0.003-0.104
						c0.043,0.216,0.115,0.498,0.133,0.634c0.232,0.732-0.01-0.12,0.106,0.186c0.048,0.258,0.124,0.356,0.251,0.665l-0.028,0.013
						c0.293,0.822,0.133,0.196,0.418,0.926l-0.171-0.287l0.173,0.371L2.89,20.525c0.097,0.201,0.174,0.326,0.235,0.458
						c0.065,0.13,0.12,0.263,0.224,0.455c-0.03-0.099,0.076,0.024,0.262,0.361c0.12,0.234-0.102-0.111,0.186,0.354
						c-0.079-0.096-0.176-0.197-0.268-0.419c-0.02-0.016-0.075-0.098-0.096-0.115c0.112,0.264,0.362,0.617,0.462,0.788
						c-0.039-0.066-0.085-0.145-0.106-0.187c0.145,0.222,0.315,0.427,0.472,0.64c0.061,0.11-0.002,0.033-0.065-0.043
						c0.091,0.133,0.173,0.211,0.315,0.4c-0.056-0.034-0.069-0.007-0.278-0.27c0.159,0.197,0.314,0.398,0.478,0.59
						c0.023,0.046,0.224,0.32,0.154,0.25c0.251,0.341,0.718,0.748,1.104,1.142c0.024,0.017,0.068,0.054,0.155,0.134
						c0.368,0.37,0.661,0.715,1.117,1.125l0.21,0.28c0.339,0.339-0.286-0.378,0.28,0.186c0.402,0.398,0.119,0.179,0.247,0.33
						c0.213,0.185,0.58,0.511,0.907,0.916c-0.123-0.12-0.211-0.223-0.323-0.338l0.252,0.306c-0.355-0.321-0.581-0.584-0.353-0.288
						c0.102-0.019,1.054,1.119,1.151,1.106l0.162,0.205c-0.051-0.054-0.06-0.063-0.11-0.117c0.309,0.404,0.303,0.235,0.726,0.733
						c0.146,0.175,0.242,0.302,0.132,0.193l0.353,0.366c0.097,0.112,0.061,0.095-0.035-0.017l0.513,0.58l-0.006-0.003
						c0.082,0.075,0.262,0.251,0.349,0.337c0.119,0.157-0.072-0.069-0.047-0.024l0.294,0.313c0.095,0.148-0.149-0.111-0.34-0.337
						c0.196,0.359,0.247,0.257,0.767,0.949l-0.27-0.302c0.132,0.23,0.349,0.461,0.616,0.833c-0.057-0.094-0.525-0.755-0.212-0.41
						c0.079,0.105,0.186,0.24,0.36,0.423c-0.023,0.022,0.141,0.204,0.335,0.442l-0.045,0.009c0.218,0.25,0.218,0.217,0.355,0.357
						c0.23,0.289,0.251,0.37,0.286,0.454c0.364,0.467-0.215-0.351,0.227,0.192c0.294,0.395,0.52,0.657,0.898,1.109
						c0.199,0.282-0.056-0.033,0.01,0.072l0.21,0.223c0.045,0.06,0.022,0.047,0.011,0.04c0.165,0.198,0.046-0.008,0.297,0.309
						c0.026,0.019,0.047,0.042,0.109,0.13c0.057,0.084,0.132,0.194,0.216,0.319c0.111-0.139,0.236-0.296,0.36-0.451
						c0.097-0.123,0.191-0.25,0.265-0.371c0.084-0.091-0.016,0.062,0.019,0.042c0.39-0.566,0.337-0.483,0.649-0.956l0.318-0.362
						c-0.243,0.258,0.008-0.118,0.232-0.446c-0.016,0.017-0.03,0.03-0.045,0.045c0.031-0.039,0.063-0.079,0.095-0.119
						c-0.017,0.025-0.032,0.047-0.05,0.073c0.017-0.016,0.034-0.034,0.051-0.051c0.017-0.03,0.031-0.055,0.047-0.082
						c0.064-0.079,0.129-0.16,0.195-0.243c0.011,0.006-0.029,0.078-0.081,0.163c-0.054,0.054-0.108,0.109-0.161,0.162
						c-0.078,0.137-0.148,0.268-0.109,0.258c0.022-0.035,0.068-0.099,0.12-0.169c-0.02,0.036-0.032,0.06-0.017,0.048
						c0.017-0.014,0.051-0.071,0.107-0.158l0.125-0.084l0.008-0.038l0.542-0.623c0.34-0.484,0.616-0.924,1.209-1.651
						c-0.125,0.199,0.009,0.073,0.031,0.108c-0.196,0.169-0.458,0.564-0.773,0.934c0.165-0.193,0.144-0.138,0.108-0.084l0.529-0.687
						c0.012,0.036,0.137-0.125,0.293-0.289c-0.16,0.088,0.39-0.516,0.606-0.796c0.03-0.003-0.008,0.076-0.294,0.398
						c0.347-0.327,0.343-0.514,0.684-0.836c-0.069,0.079-0.109,0.119-0.129,0.158c0.148-0.196,0.557-0.636,0.478-0.518l-0.069,0.079
						c0.466-0.519,1.424-1.574,1.458-1.684c0.01,0-0.015,0.111-0.036,0.149c0.167-0.24,0.334-0.481,0.502-0.722
						c0.086-0.091,0.173-0.183,0.261-0.275c0.071-0.002,0.171-0.021-0.095,0.283c0.119-0.115,0.267-0.258,0.498-0.522
						c-0.083,0.077-0.244,0.157-0.14,0.043c0.332-0.271,0.224-0.194,0.619-0.541c-0.125,0.115-0.047-0.072,0.145-0.26
						c-0.022,0.037,0.067,0.035,0.003,0.109l0.419-0.524c-0.108,0.127,0.022,0.064,0.141-0.027
						c-0.058,0.039,0.405-0.408,0.531-0.538l-0.214,0.188c0.274-0.262,0.39-0.411,0.504-0.56c0.114-0.149,0.231-0.293,0.478-0.575
						c-0.049,0.077-0.084,0.229,0.18-0.051c0.048-0.083,0.151-0.279,0.289-0.524c0.17-0.212,0.336-0.428,0.494-0.65
						c-0.166,0.316-0.365,0.664-0.529,0.886c0.191-0.212,0.074-0.042,0.334-0.381c0.085-0.086-0.038,0.094-0.134,0.22
						c0.084-0.101,0.168-0.203,0.247-0.309c0.099-0.133,0.206-0.261,0.299-0.399c-0.058,0.013,0.391-0.655,0.332-0.647
						c-0.084,0.159-0.182,0.31-0.276,0.464c-0.093,0.154-0.189,0.307-0.294,0.454c-0.06,0.009,0.28-0.567,0.64-1.165
						c0.108-0.144-0.005,0.153,0.015,0.148c0.017-0.043,0.1-0.188,0.179-0.331c0.075-0.145,0.152-0.286,0.172-0.312l-0.124,0.273
						c0.101-0.168,0.166-0.315,0.238-0.469c0.067-0.156,0.137-0.322,0.259-0.524c0.075-0.144,0.245-0.423,0.235-0.458
						c-0.09,0.135-0.182,0.182-0.233,0.161c0.074-0.167,0.147-0.335,0.215-0.505l0.007,0.028l0.037-0.099l-0.017-0.002
						c0.068-0.173,0.134-0.347,0.195-0.523c0.057-0.055-0.071,0.431,0.024,0.252c-0.008-0.014,0.033-0.155,0.047-0.216
						c0.062-0.159,0.012,0.079,0.122-0.275c-0.017-0.071,0.227-0.718,0.019-0.177c0.096-0.348,0.113-0.367,0.226-0.777
						c-0.038,0.082-0.028-0.118-0.001-0.365c0.033-0.15,0.065-0.3,0.093-0.452c0.003-0.008,0.006-0.016,0.008-0.022
						c0.033-0.181,0.062-0.342,0.089-0.491c0.021-0.15,0.041-0.289,0.06-0.426c0.045-0.274,0.059-0.545,0.087-0.889
						c0.015-0.063,0.034-0.395,0.049-0.253c-0.005-0.1-0.018-0.191-0.014-0.404c0.041-0.412-0.002,0.475,0.047,0.161
						C29.794,15.002,29.799,14.864,29.782,14.692z M17.975,33.161c0.066-0.085,0.144-0.18,0.236-0.28
						C18.165,32.954,18.078,33.053,17.975,33.161z M9.662,2.184c-0.068,0.011-0.166,0.05-0.283,0.105
						C9.563,2.202,9.787,2.093,9.662,2.184z M12.218,31.655c0.111,0.078,0.164,0.164,0.281,0.322
						C12.421,31.892,12.258,31.731,12.218,31.655z"/>
					<path class="st2" d="M2.07,18.184c0.016,0.085,0.039,0.18,0.058,0.237C2.105,18.332,2.087,18.256,2.07,18.184z"/>
					<path class="st2" d="M26.826,23.565c-0.022,0.026-0.042,0.055-0.064,0.081C26.778,23.627,26.801,23.597,26.826,23.565z"/>
					<path class="st2" d="M17.604,33.702c-0.024,0.022-0.034,0.026-0.044,0.028C17.536,33.768,17.54,33.773,17.604,33.702z"/>
					<path class="st2" d="M5.983,24.94L5.97,24.927c-0.008-0.006-0.014-0.008-0.017-0.009L5.983,24.94z"/>
					<path class="st2" d="M29.065,19.405c-0.04,0.103-0.069,0.158-0.088,0.194C28.981,19.608,29.007,19.564,29.065,19.405z"/>
					<path class="st2" d="M29.594,12.798l0.041,0.007l-0.045-0.193C29.6,12.725,29.595,12.733,29.594,12.798z"/>
					<path class="st2" d="M29.769,13.896c-0.013-0.042-0.043-0.459-0.033-0.075C29.749,13.861,29.798,14.426,29.769,13.896z"/>
					<path class="st2" d="M26.023,24.416c-0.201,0.222-0.32,0.325-0.192,0.259c0.363-0.34,0.061-0.103,0.379-0.424
						C26.277,24.154,25.952,24.514,26.023,24.416z"/>
					<path class="st2" d="M26.023,24.416c0.03-0.038,0.061-0.078,0.095-0.121C26.063,24.363,26.038,24.395,26.023,24.416z"/>
					<path class="st2" d="M12.995,32.707l0.023,0.012c-0.023-0.045-0.07-0.102-0.163-0.218L12.995,32.707z"/>
					<polygon class="st2" points="10.229,29.426 10.277,29.482 10.214,29.354 					"/>
					<path class="st2" d="M7.747,26.817c0.103,0.105,0.224,0.228,0.327,0.333C7.848,26.924,7.753,26.756,7.747,26.817z"/>
				</g>
			</g>
		</g>
		<g>
			<path class="st5" d="M12.041,18.245l1.083-1.48c0.594,0.568,1.281,0.951,2.047,0.951c0.911,0,1.505-0.382,1.505-1.122
				c0-0.845-0.448-1.347-2.509-1.347v-1.65c1.678,0,2.206-0.515,2.206-1.294c0-0.674-0.396-1.043-1.123-1.043
				c-0.66,0-1.162,0.303-1.756,0.819l-1.188-1.439c0.911-0.766,1.888-1.215,3.051-1.215c2.033,0,3.367,0.951,3.367,2.708
				c0,0.977-0.528,1.743-1.584,2.165v0.066c1.096,0.33,1.901,1.123,1.901,2.391c0,1.835-1.678,2.866-3.632,2.866
				C13.849,19.619,12.754,19.077,12.041,18.245z"/>
		</g>
	</g>
</g>
<g id="圖層_2">
</g>
<g id="圖層_1">
</g>
<g id="圖層_4" class="st20">
</g>
</svg>
