<?xml version="1.0" encoding="utf-8"?>
<!-- Generator: Adobe Illustrator 22.0.1, SVG Export Plug-In . SVG Version: 6.00 Build 0)  -->
<svg version="1.1" xmlns="http://www.w3.org/2000/svg" xmlns:xlink="http://www.w3.org/1999/xlink" x="0px" y="0px"
	 viewBox="0 0 48.306 59.156" style="enable-background:new 0 0 48.306 59.156;" xml:space="preserve">
<style type="text/css">
	.st0{fill:#EFEFEF;}
	.st1{fill:#15AF83;}
	.st2{fill:#171C61;}
	.st3{fill:#17AD7B;}
	.st4{opacity:0.6;}
	.st5{fill:#FFFFFF;}
	.st6{fill:#165987;}
	.st7{fill:#D64B3C;}
	.st8{fill:#D65677;}
	.st9{fill:#DD722A;}
	.st10{fill:#005E9E;}
	.st11{fill:#D67327;}
	.st12{clip-path:url(#SVGID_6_);fill:none;}
	.st13{clip-path:url(#SVGID_6_);}
	.st14{fill:none;stroke:#FFFFFF;stroke-width:0.6;stroke-miterlimit:10;}
	.st15{fill:#113272;}
	.st16{opacity:0.2;}
	.st17{opacity:0.2;fill:#171C61;}
	.st18{opacity:0.4;}
	.st19{opacity:0.8;}
	.st20{display:none;}
	.st21{display:inline;fill:#C30D23;}
</style>
<g id="圖層_3">
</g>
<g id="圖層_2">
</g>
<g id="圖層_1">
	<g>
		<defs>
			<rect id="SVGID_5_" x="202.979" y="-28.005" width="374.856" height="535.586"/>
		</defs>
		<clipPath id="SVGID_2_">
			<use xlink:href="#SVGID_5_"  style="overflow:visible;"/>
		</clipPath>
		<g style="clip-path:url(#SVGID_2_);">
			<g>
				<polygon id="XMLID_49_" class="st14" points="96.909,18.863 94.62,102.829 49.413,167.667 43.118,29.736 				"/>
			</g>
		</g>
	</g>
	<g>
		<g>
			<path class="st2" d="M15.58,48.055l-0.191-0.198C15.479,47.95,15.537,48.01,15.58,48.055z"/>
			<path class="st2" d="M16.887,49.553l0.047,0.024C16.866,49.515,16.835,49.491,16.887,49.553z"/>
			<path class="st2" d="M26.846,55.066c0.082-0.086,0.195-0.213,0.352-0.395L26.846,55.066z"/>
			<path class="st2" d="M8.077,40.206l-0.263-0.195C8.175,40.367,8.032,40.194,8.077,40.206z"/>
			<path class="st2" d="M10.239,5.136c0.025-0.016,0.053-0.035,0.076-0.05C10.318,5.077,10.285,5.1,10.239,5.136z"/>
			<path class="st2" d="M46.721,27.725c-0.001,0.007-0.002,0.013-0.004,0.022C46.739,27.673,46.735,27.686,46.721,27.725z"/>
			<path class="st2" d="M1.171,23.596c0-0.017,0.002-0.037,0.005-0.056C1.172,23.278,1.167,23.393,1.171,23.596z"/>
			<path class="st2" d="M36.389,44.096c0.007-0.009,0.012-0.015,0.018-0.023c-0.009,0.008-0.019,0.019-0.027,0.027L36.389,44.096z"
				/>
			<path class="st2" d="M35.782,44.796c0.228-0.327,0.386-0.486,0.598-0.696l-0.304,0.135L35.782,44.796z"/>
			<path class="st2" d="M47.2,23.415c-0.026-0.283-0.056-0.619-0.079-0.869c-0.059,0.156,0.063,1.146,0.05,1.646
				c-0.03,0-0.058-0.11-0.083-0.294c0.002-0.109,0.008-0.217,0.008-0.326c0-1.414-0.135-2.797-0.381-4.14
				c-0.035-0.217-0.076-0.45-0.126-0.694c-0.036-0.143-0.074-0.292-0.111-0.439c-0.061-0.257-0.124-0.512-0.194-0.766
				c-0.006-0.022-0.012-0.046-0.017-0.068c-0.051-0.21-0.101-0.415-0.149-0.609c-0.046-0.194-0.12-0.368-0.169-0.531
				c-0.04-0.087-0.089-0.199-0.131-0.291c-0.602-1.726-1.405-3.357-2.38-4.867c0.036,0.041,0.076,0.086,0.019-0.021
				c-0.016-0.004-0.055-0.049-0.108-0.119c-4.091-6.232-11.137-10.35-19.148-10.35c-0.522,0-1.039,0.024-1.553,0.058
				c-0.217-0.025-0.409-0.052-0.379-0.091c-0.341,0.043-0.79,0.088-1.297,0.138c-0.504,0.058-1.075,0.092-1.611,0.279
				c-0.246,0.042,0.199-0.084,0.065-0.074c-0.269,0.113-0.6,0.207-1.226,0.348l0.067-0.028c-0.432,0.125-0.816,0.188-1.149,0.319
				c-0.337,0.118-0.647,0.226-0.964,0.337c-0.316,0.112-0.644,0.214-1.005,0.352c-0.351,0.161-0.74,0.341-1.2,0.553l0.157-0.021
				c-0.395,0.183-0.484,0.209-0.674,0.286c-0.183,0.125,0.01,0.037,0.251-0.077c-0.846,0.403-2.266,1.335-2.572,1.443
				c-0.537,0.401,0.19-0.071-0.347,0.329l-0.16,0.081l-0.112,0.133c-0.355,0.257-0.556,0.36-0.585,0.349
				c0.087-0.061,0.238-0.187,0.329-0.258C10.002,5.296,9.673,5.53,9.403,5.761c-0.259,0.244-0.482,0.458-0.558,0.52l0.49-0.419
				C8.679,6.5,7.877,7.132,7.231,7.91C6.899,8.288,6.542,8.644,6.249,9.031c-0.287,0.393-0.562,0.775-0.813,1.138l0.099-0.094
				c-0.193,0.276-0.331,0.466-0.442,0.616c-0.1,0.158-0.174,0.275-0.251,0.396c-0.156,0.239-0.324,0.492-0.699,1.128l0.023-0.049
				c-0.071,0.134-0.152,0.285-0.238,0.447c-0.076,0.17-0.161,0.351-0.25,0.533c0.138-0.349-0.352,0.609-0.167,0.154
				c-0.297,0.669-0.367,0.835-0.405,0.948c-0.017,0.055-0.032,0.1-0.058,0.184c-0.031,0.084-0.074,0.212-0.131,0.448l-0.112,0.194
				c-0.08,0.321-0.073,0.353-0.316,1.047c0.176-0.578-0.217,0.423-0.026-0.228c-0.147,0.359-0.289,0.668-0.36,0.96
				c-0.073,0.291-0.129,0.547-0.18,0.777c-0.101,0.46-0.181,0.815-0.33,1.148c-0.072,0.711,0.391-1.285,0.315-0.894
				c0.117-0.313-0.068,0.586-0.199,1.052c-0.078,0.485-0.262,0.804-0.448,2.038c0.015-0.122,0.016-0.132,0.032-0.254
				C1.175,21.178,1.235,21.632,1.16,22.2c0.048,0.324-0.041,0.742,0.037,0.837l0.038-1.14C1.229,22.22,1.243,22.535,1.245,22.9
				c0.001,0.182,0,0.378-0.008,0.593c0,0.215,0,0.45,0,0.719c-0.019-0.082-0.048-0.398-0.066-0.616
				c-0.017,0.312,0.031,0.599,0.014,0.922c-0.042-0.044-0.055-0.391-0.067-0.814c0-0.422,0.039-0.919,0.021-1.267
				c-0.052,0.334-0.006,1.314-0.078,0.964c0.107,0.5-0.012,1.232,0.147,2.069l-0.053-0.052c0.018,0.133,0.056,0.412,0.089,0.651
				c-0.041-0.145-0.078-0.29-0.107-0.437c0.12,0.675,0.092,1.32,0.242,1.964c-0.121-0.678-0.111-0.758-0.088-0.739
				c0.022,0.019,0.061,0.136,0.043-0.155c0.31,1.526,0.044,1.086,0.366,2.448c-0.045-0.23-0.064-0.411,0.005-0.17
				c0.071,0.355,0.188,0.818,0.219,1.04c0.381,1.201-0.016-0.197,0.175,0.305c0.079,0.424,0.204,0.584,0.412,1.092l-0.046,0.021
				c0.481,1.35,0.218,0.322,0.686,1.52l-0.28-0.472l0.283,0.61l-0.107-0.104c0.159,0.33,0.285,0.536,0.386,0.751
				C3.54,33.957,3.63,34.176,3.8,34.492c-0.049-0.163,0.125,0.039,0.431,0.593c0.198,0.384-0.168-0.182,0.306,0.581
				c-0.129-0.158-0.29-0.323-0.439-0.688c-0.033-0.027-0.124-0.16-0.158-0.189c0.183,0.433,0.594,1.013,0.759,1.293
				c-0.064-0.108-0.14-0.238-0.174-0.307c0.238,0.365,0.518,0.701,0.775,1.051c0.099,0.181-0.004,0.055-0.107-0.07
				c0.149,0.219,0.283,0.347,0.517,0.657c-0.092-0.056-0.113-0.011-0.456-0.443c0.261,0.324,0.515,0.653,0.785,0.968
				c0.039,0.075,0.367,0.525,0.253,0.41c0.413,0.56,1.178,1.228,1.812,1.875c0.039,0.028,0.112,0.089,0.254,0.22
				c0.605,0.607,1.086,1.175,1.834,1.847l0.345,0.46c0.557,0.556-0.469-0.621,0.459,0.305c0.66,0.653,0.195,0.293,0.406,0.542
				c0.349,0.304,0.953,0.839,1.49,1.505c-0.203-0.197-0.346-0.366-0.53-0.555l0.414,0.503c-0.584-0.528-0.954-0.958-0.579-0.473
				c0.168-0.032,1.731,1.837,1.889,1.815l0.266,0.337c-0.084-0.089-0.098-0.104-0.181-0.192c0.507,0.664,0.497,0.385,1.193,1.204
				c0.24,0.287,0.398,0.497,0.216,0.317l0.579,0.601c0.159,0.183,0.101,0.155-0.057-0.027l0.842,0.953l-0.009-0.004
				c0.135,0.123,0.43,0.412,0.573,0.554c0.196,0.258-0.117-0.113-0.077-0.039l0.482,0.514c0.156,0.244-0.244-0.182-0.559-0.553
				c0.322,0.59,0.406,0.422,1.26,1.558l-0.443-0.496c0.217,0.378,0.572,0.756,1.011,1.368c-0.093-0.154-0.863-1.239-0.348-0.673
				c0.129,0.173,0.306,0.395,0.591,0.694c-0.037,0.036,0.232,0.335,0.55,0.726l-0.073,0.015c0.358,0.411,0.357,0.356,0.582,0.586
				c0.378,0.475,0.413,0.608,0.469,0.746c0.597,0.766-0.353-0.576,0.373,0.315c0.482,0.649,0.854,1.079,1.474,1.821
				c0.327,0.462-0.092-0.054,0.016,0.119l0.346,0.367c0.073,0.099,0.036,0.077,0.017,0.066c0.271,0.325,0.076-0.014,0.488,0.508
				c0.043,0.031,0.077,0.069,0.18,0.213c0.094,0.139,0.216,0.319,0.355,0.524c0.181-0.227,0.388-0.486,0.591-0.741
				c0.159-0.203,0.313-0.411,0.434-0.609c0.137-0.15-0.027,0.103,0.031,0.069c0.641-0.929,0.554-0.793,1.066-1.569l0.522-0.594
				c-0.399,0.424,0.013-0.194,0.382-0.732c-0.027,0.027-0.049,0.049-0.074,0.075c0.051-0.064,0.104-0.13,0.156-0.195
				c-0.028,0.041-0.053,0.077-0.082,0.121c0.027-0.027,0.056-0.055,0.084-0.083c0.028-0.049,0.051-0.091,0.077-0.135
				c0.104-0.13,0.212-0.263,0.321-0.398c0.018,0.01-0.048,0.128-0.132,0.267c-0.089,0.089-0.178,0.179-0.265,0.266
				c-0.128,0.226-0.242,0.441-0.178,0.423c0.036-0.057,0.112-0.163,0.198-0.277c-0.033,0.059-0.052,0.099-0.028,0.079
				c0.027-0.023,0.083-0.117,0.176-0.26l0.205-0.138l0.013-0.063l0.89-1.023c0.559-0.795,1.011-1.517,1.985-2.711
				c-0.205,0.327,0.015,0.12,0.05,0.178c-0.321,0.278-0.751,0.926-1.269,1.533c0.271-0.316,0.236-0.226,0.177-0.137l0.869-1.128
				c0.02,0.059,0.225-0.205,0.482-0.475c-0.263,0.145,0.641-0.848,0.995-1.307c0.05-0.004-0.014,0.124-0.482,0.653
				c0.569-0.538,0.564-0.844,1.123-1.372c-0.114,0.13-0.179,0.196-0.211,0.259c0.244-0.322,0.915-1.044,0.784-0.85l-0.113,0.129
				c0.765-0.852,2.338-2.584,2.395-2.765c0.016-0.001-0.024,0.182-0.058,0.245c0.275-0.394,0.548-0.79,0.824-1.185
				c0.142-0.15,0.285-0.301,0.428-0.451c0.116-0.002,0.281-0.034-0.156,0.465c0.196-0.19,0.439-0.424,0.818-0.856
				c-0.137,0.127-0.4,0.258-0.229,0.07c0.544-0.444,0.368-0.318,1.016-0.888c-0.205,0.189-0.077-0.118,0.238-0.427
				c-0.036,0.061,0.109,0.057,0.005,0.18l0.688-0.86c-0.178,0.209,0.035,0.105,0.231-0.045c-0.096,0.064,0.665-0.67,0.872-0.884
				l-0.352,0.308c0.45-0.43,0.64-0.676,0.828-0.92c0.188-0.244,0.379-0.482,0.786-0.944c-0.081,0.126-0.138,0.376,0.295-0.084
				c0.08-0.137,0.248-0.457,0.475-0.861c0.279-0.349,0.552-0.703,0.81-1.067c-0.273,0.518-0.6,1.09-0.868,1.455
				c0.314-0.347,0.122-0.069,0.548-0.626c0.14-0.142-0.063,0.155-0.22,0.361c0.139-0.166,0.275-0.334,0.405-0.507
				c0.163-0.219,0.339-0.429,0.491-0.656c-0.096,0.021,0.642-1.076,0.546-1.062c-0.139,0.261-0.299,0.509-0.454,0.761
				c-0.153,0.253-0.311,0.504-0.482,0.745c-0.098,0.015,0.46-0.931,1.051-1.913c0.177-0.236-0.007,0.251,0.025,0.243
				c0.028-0.071,0.165-0.309,0.293-0.544c0.124-0.239,0.249-0.47,0.282-0.512l-0.203,0.448c0.166-0.276,0.273-0.518,0.391-0.77
				c0.11-0.257,0.225-0.528,0.426-0.86c0.123-0.236,0.403-0.694,0.386-0.751c-0.148,0.221-0.298,0.298-0.383,0.265
				c0.122-0.274,0.241-0.55,0.353-0.83l0.012,0.046l0.061-0.163l-0.027-0.004c0.111-0.284,0.22-0.57,0.32-0.859
				c0.094-0.09-0.117,0.707,0.04,0.413c-0.014-0.022,0.054-0.255,0.076-0.354c0.102-0.261,0.02,0.13,0.2-0.452
				c-0.028-0.116,0.373-1.178,0.032-0.291c0.158-0.572,0.186-0.603,0.371-1.275c-0.063,0.135-0.047-0.193-0.001-0.599
				c0.054-0.246,0.106-0.493,0.152-0.741c0.005-0.013,0.009-0.026,0.013-0.036c0.054-0.298,0.102-0.561,0.147-0.806
				c0.035-0.246,0.067-0.474,0.099-0.7c0.074-0.45,0.097-0.895,0.144-1.459c0.025-0.103,0.055-0.649,0.081-0.415
				c-0.009-0.164-0.029-0.314-0.022-0.663c0.067-0.676-0.003,0.779,0.077,0.265C47.221,23.925,47.229,23.698,47.2,23.415z
				 M27.815,53.74c0.109-0.14,0.237-0.295,0.387-0.46C28.127,53.4,27.984,53.562,27.815,53.74z M14.165,2.879
				c-0.111,0.018-0.273,0.081-0.465,0.172C14.003,2.908,14.37,2.73,14.165,2.879z M18.362,51.268c0.182,0.127,0.27,0.27,0.461,0.528
				C18.696,51.657,18.427,51.392,18.362,51.268z"/>
			<path class="st2" d="M1.7,29.15c0.027,0.139,0.063,0.296,0.095,0.389C1.758,29.393,1.728,29.267,1.7,29.15z"/>
			<path class="st2" d="M42.347,37.985c-0.036,0.043-0.069,0.09-0.106,0.132C42.269,38.086,42.307,38.038,42.347,37.985z"/>
			<path class="st2" d="M27.205,54.628c-0.04,0.036-0.056,0.042-0.072,0.046C27.094,54.737,27.1,54.745,27.205,54.628z"/>
			<path class="st2" d="M8.125,40.242l-0.021-0.021c-0.014-0.009-0.022-0.013-0.028-0.015L8.125,40.242z"/>
			<path class="st2" d="M46.023,31.155c-0.065,0.169-0.114,0.259-0.145,0.319C45.885,31.487,45.928,31.415,46.023,31.155z"/>
			<path class="st2" d="M46.891,20.306l0.067,0.012l-0.074-0.316C46.902,20.186,46.892,20.2,46.891,20.306z"/>
			<path class="st2" d="M47.178,22.109c-0.021-0.069-0.071-0.754-0.054-0.123C47.146,22.052,47.227,22.979,47.178,22.109z"/>
			<path class="st2" d="M41.028,39.382c-0.33,0.364-0.526,0.534-0.315,0.425c0.596-0.558,0.101-0.17,0.622-0.695
				C41.445,38.951,40.911,39.543,41.028,39.382z"/>
			<path class="st2" d="M41.028,39.382c0.049-0.062,0.101-0.127,0.157-0.198C41.094,39.294,41.052,39.347,41.028,39.382z"/>
			<path class="st2" d="M19.638,52.995l0.038,0.02c-0.037-0.073-0.114-0.168-0.267-0.357L19.638,52.995z"/>
			<polygon class="st2" points="15.097,47.608 15.176,47.7 15.071,47.49 			"/>
			<path class="st2" d="M11.022,43.324c0.169,0.172,0.368,0.374,0.538,0.547C11.187,43.499,11.032,43.224,11.022,43.324z"/>
		</g>
		<g id="XMLID_841_">
			<path id="XMLID_847_" class="st5" d="M29.837,32.016c-0.022,0.014-0.019,0.068-0.087,0.036c0.032,0.029,0.038,0.051,0.044,0.069
				c-0.099-0.066-0.212-0.14-0.331-0.219c0.07,0.012,0.143,0.019,0.211,0.034c0.152,0.005,0.256,0.001,0.388,0.043
				c0.114,0.057,0.311,0.063,0.46,0.063c-1.744-0.328-3.45-0.603-4.817-0.251c0.064,0.028,0.119,0.088,0.092,0.125
				c-0.002-0.005-0.1,0.06-0.1,0.06c0.007-0.059-0.089-0.1-0.187-0.061c-0.002-0.073,0.159-0.042,0.175-0.117
				c-0.09,0.024-0.179,0.05-0.266,0.079c0.007,0.001,0.014-0.005,0.021-0.001c-0.036,0.042-0.064,0.16-0.168,0.206l-0.105-0.024
				c0.043-0.063,0.064,0.003,0.128-0.036c0.073-0.005,0.089-0.086,0.036-0.098c-0.004-0.002-0.007-0.004-0.007-0.004
				c0.009-0.007,0.016-0.011,0.024-0.017c-0.072,0.026-0.143,0.054-0.213,0.085l-0.011,0.05l-0.021-0.024l0.029-0.024
				c-0.028,0.012-0.057,0.025-0.085,0.038l-0.023,0.088c-0.011-0.003,0.036-0.089-0.034-0.055l0.006-0.007
				c-0.053,0.026-0.106,0.052-0.157,0.081c0.068,0.007,0.036,0.031,0.135,0.106l-0.091,0.079l-0.029-0.064
				c-0.048,0.018-0.062,0.037-0.071,0.054c-0.002,0.012,0.002,0.025-0.002,0.038c-0.002-0.008-0.007-0.014-0.009-0.021
				c-0.01,0.018-0.022,0.034-0.079,0.041c-0.001-0.041,0.022-0.07,0.043-0.099c-0.006-0.006-0.012-0.014-0.018-0.018
				c-0.038,0.034-0.066,0.078-0.093,0.098c-0.022-0.017-0.014-0.049,0.004-0.084c-0.042,0.028-0.085,0.053-0.126,0.082v-0.024
				l-0.014,0.004l0.014-0.017v-0.494c0.798-0.729,1.969-0.909,3.298-0.839c-0.003-0.007-0.002-0.015,0.023-0.027
				c0.01,0.008,0.018,0.019,0.024,0.03c0.098,0.006,0.196,0.012,0.296,0.02c-0.024-0.011-0.05-0.022-0.06-0.037
				c0.043-0.009,0.095-0.03,0.122-0.014l-0.014,0.003c0.11,0.145,0.208-0.03,0.38,0.089c0.095,0.011,0.191,0.022,0.287,0.035
				c0.032-0.001,0.064,0.003,0.097,0.012c0.068,0.009,0.137,0.02,0.206,0.03c0.018-0.003,0.036-0.006,0.048-0.008l-0.005,0.014
				c0.015,0.002,0.029,0.004,0.043,0.006c0.085-0.026,0.196-0.033,0.287-0.035c0.151,0.19,0.403-0.043,0.61,0.113l-0.022,0.067
				c0.064,0.011,0.128,0.023,0.192,0.035c-0.056-0.018-0.104-0.036-0.139-0.043c0.083-0.166,0.376,0.093,0.566,0.012
				c0.06,0.025,0.022,0.101,0.11,0.093c0.062-0.072,0.15,0.002,0.23,0.022c-0.025,0.009-0.052,0.019-0.067,0.024
				c-0.002,0.009,0.013,0.02,0.033,0.032c0.044,0.009,0.087,0.017,0.131,0.026c0.137-0.058,0.332-0.095,0.452,0.028l0.131-0.075
				c0.085,0.075,0.212,0.083,0.296,0.126l0.004-0.052c0.036,0.069,0.103,0.021,0.157,0.005c0.01,0.02,0.006,0.041,0.016,0.061
				c0.128,0.039,0.259-0.037,0.328,0.007c-0.111,0.054,0.01,0.02-0.116,0.075c0.093-0.03,0.135,0.079,0.212,0.019
				c0.113,0.009,0.085,0.073,0.121,0.111c-0.017-0.092,0.135-0.068,0.164-0.102c0.097,0.093,0.219-0.027,0.348,0.008
				c-0.03,0.003-0.064-0.002-0.068,0.019c0.057,0.05,0.068-0.009,0.116,0.001c-0.007,0.001-0.006,0.008-0.013,0.016l0.055,0.012
				c-0.018,0.001-0.036,0.006-0.044,0.007c-0.007,0.043,0.067,0.064,0.126,0.056c0.022-0.045,0.193,0.034,0.227-0.044
				c0.01,0.071,0.209,0.061,0.177,0.139c0.104,0.014,0.157-0.058,0.237-0.083c0.086,0.037,0.115,0.031,0.156,0.097
				c0.043-0.008,0.098,0.002,0.103-0.041l-0.095-0.024c0.177-0.025,0.233,0.112,0.408,0.029c-0.03,0.028,0.054,0.03,0.023,0.058
				l0.093-0.033c-0.004,0.06-0.054,0.073-0.073,0.133c0.052,0.003,0.104,0.006,0.154,0.008c0.019-0.024,0.085-0.047,0.103-0.081
				l-0.004,0.074c0.114-0.032,0.2-0.098,0.343-0.135c0.006,0.028,0.114,0.107,0.111,0.149c0.066-0.003,0.135-0.002,0.199-0.007
				c0.004-0.026,0.003-0.046-0.056-0.043c0.052-0.013,0.122-0.026,0.166,0.01c0,0,0.057-0.039,0.115-0.078
				c0.055-0.04,0.111-0.081,0.111-0.081c-0.03,0.084,0.117-0.001,0.114,0.069c0.064-0.033,0.115,0.008,0.127-0.069
				c0.081,0.049-0.114,0.064-0.042,0.106c0.011,0.002,0.021,0.001,0.031,0c0.017-0.004,0.034-0.008,0.051-0.012
				c0.081-0.038,0.117-0.141,0.166-0.039c0.081-0.087-0.014-0.077-0.076-0.076c-0.065,0.003-0.12,0.009-0.02-0.047
				c-0.004,0.002,0.101,0.022,0.109,0.019c0.146-0.064,0.28-0.123,0.432-0.19c0.024,0.11,0.03,0.232,0.068,0.374l-0.04-0.019
				c-0.023,0.095-0.022,0.155-0.01,0.228c0.012,0.091,0.032,0.164,0.042,0.227l-0.082-0.064c-0.041,0.048-0.153,0.15-0.21,0.083
				c0.05-0.005,0.064-0.025,0.079-0.033c-0.147-0.015-0.161,0.039-0.278,0.053c-0.038,0.01-0.077,0.017-0.116,0.026
				c0.024,0.051,0.072,0.095,0.084,0.119c-0.18-0.011-0.11-0.029-0.26-0.057c0.016,0.049-0.018,0.06-0.05,0.084
				c-0.255-0.013-0.158,0.058-0.353,0.064c-0.02,0.019,0.01,0.029,0.018,0.037c-0.083-0.042-0.125,0.054-0.161-0.021
				c0.044,0.004,0.085-0.014,0.089-0.05c-0.059-0.019-0.126,0.032-0.197,0.04c-0.006,0.036,0.14,0.04,0.014,0.095
				c-0.208,0.077-0.221-0.179-0.432-0.049c-0.025-0.038-0.146-0.07-0.17-0.109c-0.081,0-0.162,0-0.244-0.002
				c-0.026,0.036-0.045,0.072-0.097,0.06c0.014-0.02,0.006-0.041-0.005-0.063c-0.031-0.001-0.062-0.003-0.094-0.005
				c-0.103,0.041-0.316,0.046-0.41,0.101c-0.015-0.061-0.135-0.039-0.101-0.103c0.035,0.001,0.078,0.011,0.085-0.024
				c-0.001-0.001-0.002-0.001-0.003-0.001c-0.041-0.003-0.082-0.007-0.124-0.01c-0.035,0.009-0.065,0.024-0.071,0.045
				c0.121,0.064-0.134,0.027,0.001,0.087c-0.057-0.004-0.127-0.058-0.162-0.038c-0.012-0.016-0.018-0.079,0.008-0.116
				c-0.017-0.002-0.034-0.004-0.051-0.006c-0.04,0.011-0.086,0.022-0.117-0.005c-0.093,0.053,0.089,0.121-0.003,0.152
				c-0.077-0.037,0.036-0.062-0.048-0.087l-0.074,0.124c-0.203-0.096-0.193,0.053-0.368-0.049c0.095-0.053,0.108-0.012,0.221-0.016
				c-0.027-0.037-0.048-0.065,0.01-0.099c-0.008,0.034,0.035,0.025,0.076,0.037l-0.057-0.1c-0.096-0.013-0.192-0.025-0.289-0.039
				c-0.039,0.01-0.165,0.003-0.187,0.057c-0.013-0.019-0.013-0.019-0.006-0.031c-0.049-0.002-0.084-0.006-0.093,0.028l0.069,0.03
				c-0.114,0.07-0.18-0.066-0.218,0.014l0.007-0.018c-0.131-0.052-0.192,0.002-0.324-0.028c-0.026-0.134-0.136-0.082-0.235-0.163
				c0.095,0.049-0.056,0.084-0.053,0.137c0.084,0.008,0.117-0.061,0.198-0.011c-0.029,0.006-0.08,0.025-0.032,0.049
				c-0.221,0.025-0.26-0.108-0.418-0.158l0.003,0.053l-0.056-0.087c0.015,0.08-0.065,0.042-0.127,0.049l0.025-0.011
				c-0.076-0.02-0.162-0.006-0.178,0.018c-0.097-0.027,0.038-0.038-0.023-0.061l-0.094,0.026c-0.051-0.056,0.043-0.007-0.008-0.063
				c-0.073,0.033-0.127-0.002-0.241,0.016c0.01-0.034,0.034-0.07-0.006-0.084c0.104,0.015,0.047-0.05,0.057-0.084
				c0.036,0.01,0.093,0.011,0.155,0.012c-0.1-0.019-0.2-0.038-0.3-0.057c0.004,0.043-0.083,0.052,0.006,0.099
				c-0.051,0.019-0.147-0.009-0.165,0.037c0.077,0.007,0.109,0.032,0.112,0.069c-0.048-0.015-0.232-0.045-0.143-0.118
				c-0.083,0.021-0.196,0.054-0.265,0.08c-0.015-0.029-0.076-0.044-0.102-0.065c0.065-0.022,0.251,0.024,0.196-0.063
				c-0.147-0.01-0.246-0.088-0.379-0.098l0.024,0.06C30.08,32.05,30,32.17,29.878,32.127C29.887,32.093,29.906,32.025,29.837,32.016
				z"/>
			<path id="XMLID_846_" class="st5" d="M19.92,31.701c0.009,0.007,0.014,0.014-0.014,0.035c-0.012-0.007-0.02-0.019-0.029-0.03
				c-0.098,0.011-0.196,0.022-0.295,0.036c0.026,0.006,0.054,0.012,0.067,0.024c-0.041,0.017-0.087,0.048-0.116,0.039l0.013-0.006
				c-0.141-0.115-0.195,0.081-0.396,0.005c0-0.001,0.001-0.001,0.002-0.001c-0.089,0.014-0.18,0.029-0.27,0.043
				c-0.036,0.012-0.074,0.018-0.115,0.018c-0.065,0.011-0.13,0.022-0.196,0.034c-0.017,0.009-0.034,0.018-0.045,0.024l0.001-0.016
				c-0.014,0.002-0.027,0.005-0.041,0.007c-0.073,0.053-0.176,0.094-0.262,0.127c-0.206-0.128-0.363,0.173-0.61,0.104l-0.003-0.07
				c-0.065,0.012-0.13,0.024-0.195,0.037c0.06-0.003,0.113-0.004,0.148-0.01c-0.018,0.184-0.384,0.048-0.531,0.194
				c-0.065-0.002-0.058-0.086-0.136-0.047c-0.031,0.09-0.14,0.052-0.222,0.064c0.02-0.017,0.042-0.037,0.053-0.047
				c-0.002-0.009-0.018-0.014-0.039-0.017c-0.045,0.008-0.091,0.017-0.136,0.025c-0.106,0.103-0.274,0.209-0.429,0.137l-0.096,0.116
				c-0.106-0.041-0.229-0.004-0.324-0.015l0.014,0.05c-0.057-0.053-0.105,0.016-0.15,0.05c-0.016-0.015-0.019-0.037-0.035-0.052
				c-0.134,0.009-0.234,0.123-0.315,0.101c0.09-0.085-0.016-0.016,0.087-0.106c-0.079,0.057-0.154-0.035-0.209,0.046
				c-0.111,0.026-0.104-0.044-0.148-0.069c0,0,0,0-0.001,0c0.043,0.082-0.11,0.104-0.128,0.145c-0.12-0.062-0.204,0.093-0.342,0.089
				c0.028-0.01,0.064-0.012,0.062-0.035c-0.07-0.035-0.064,0.024-0.115,0.026c0.007-0.002,0.004-0.009,0.008-0.019l-0.057,0.001
				c0.017-0.005,0.034-0.014,0.042-0.017c-0.003-0.043-0.082-0.047-0.137-0.027c-0.011,0.048-0.198,0.008-0.216,0.091
				c-0.024-0.068-0.222-0.017-0.202-0.101c-0.106,0.006-0.147,0.089-0.226,0.12c-0.093-0.028-0.122-0.02-0.171-0.082
				c-0.043,0.012-0.1,0.007-0.101,0.05l0.1,0.015c-0.182,0.039-0.246-0.092-0.423-0.001c0.03-0.03-0.056-0.027-0.024-0.057
				c0,0-0.096,0.038-0.096,0.035c0.005-0.06,0.063-0.073,0.08-0.143c-0.01-0.001-0.021-0.001-0.032-0.001
				c-0.012,0.001-0.024,0.002-0.032-0.002c-0.03-0.002-0.059-0.006-0.089-0.008c-0.012,0.026-0.092,0.042-0.115,0.077l0.009-0.074
				c-0.116,0.02-0.211,0.078-0.367,0.092c-0.002-0.029-0.098-0.124-0.084-0.165c-0.066-0.012-0.131-0.025-0.196-0.039
				c-0.009,0.021-0.01,0.04,0.044,0.055c-0.054-0.004-0.126-0.017-0.156-0.066l-0.28,0.057c0.083-0.058-0.157-0.062-0.095-0.117
				c-0.092-0.014-0.124-0.041-0.189-0.032c0.043-0.073,0.029-0.02,0.066-0.01c0.047,0.004,0.088,0.007,0.08-0.024
				c-0.01-0.01-0.023-0.016-0.036-0.022c0.001-0.016,0-0.029-0.003-0.041c-0.006-0.024-0.019-0.044-0.029-0.066
				c-0.02-0.047-0.029-0.096,0.043-0.099c-0.053-0.087-0.077-0.032-0.097,0.067c-0.02,0.099-0.032,0.199-0.052,0.02
				c0,0,0.014-0.039,0.029-0.078c0.013-0.022,0.027-0.044,0.027-0.047c-0.006-0.147-0.003-0.336,0.012-0.496
				c0.11,0.042,0.225,0.078,0.345,0.098l-0.028,0.03c0.145,0.113,0.262,0.087,0.341,0.093L12.089,31.9
				c0.078,0.036,0.201-0.051,0.204,0.042c-0.038-0.015-0.061-0.003-0.078-0.003c0.115,0.078,0.154,0.028,0.293,0.074
				c0.028,0.003,0.056,0.007,0.084,0.01c-0.005-0.058-0.036-0.119-0.039-0.146c0.157,0.073,0.088,0.066,0.222,0.141
				c-0.003-0.052,0.032-0.05,0.068-0.07c0.241,0.052,0.161-0.032,0.347-0.015c0.021-0.017-0.006-0.03-0.013-0.039
				c0.075,0.051,0.123-0.04,0.152,0.038c-0.042-0.008-0.083,0.005-0.09,0.04c0.056,0.026,0.125-0.019,0.195-0.022
				c0.006-0.035-0.133-0.052-0.009-0.095c0.197-0.06,0.215,0.179,0.417,0.041c0.027,0.039,0.161,0.061,0.18,0.101
				c0.078-0.008,0.162-0.021,0.242-0.031c0.019-0.036,0.033-0.07,0.084-0.068c-0.01,0.02-0.001,0.038,0.011,0.056
				c0.034-0.004,0.068-0.009,0.102-0.013c0.097-0.059,0.297-0.106,0.371-0.178c0.029,0.057,0.139,0.008,0.121,0.078
				c-0.035,0.007-0.078,0.007-0.077,0.042c0.004,0.002,0.011,0.001,0.016,0.002c0.036-0.006,0.074-0.013,0.11-0.019
				c0.032-0.016,0.057-0.038,0.058-0.06c-0.132-0.035,0.122-0.055-0.022-0.084c0.056-0.006,0.136,0.021,0.164-0.007
				c0.015,0.012,0.037,0.069,0.024,0.112c0.018-0.003,0.036-0.006,0.054-0.009c0.034-0.021,0.074-0.043,0.11-0.027
				c0.073-0.078-0.119-0.089-0.041-0.147c0.084,0.013-0.017,0.07,0.07,0.069l0.034-0.14c0.219,0.032,0.165-0.108,0.36-0.062
				c-0.072,0.078-0.097,0.044-0.202,0.081c0.037,0.027,0.065,0.048,0.021,0.098c-0.003-0.035-0.04-0.013-0.084-0.013l0.085,0.08
				c0.096-0.017,0.19-0.033,0.286-0.051c0.034-0.022,0.154-0.059,0.157-0.116c0.019,0.014,0.019,0.014,0.016,0.028
				c0.047-0.015,0.081-0.023,0.078-0.058l-0.074-0.005c0.083-0.105,0.191,0,0.199-0.088l0,0.019c0.14,0.003,0.178-0.068,0.311-0.086
				c0.071,0.117,0.156,0.03,0.277,0.068c-0.106-0.011,0.022-0.099,0-0.147c-0.081,0.023-0.087,0.1-0.18,0.083
				c0.025-0.015,0.065-0.051,0.012-0.057c0.196-0.104,0.281,0.005,0.446-0.007l-0.022-0.048l0.084,0.06
				c-0.043-0.069,0.044-0.063,0.1-0.092l-0.019,0.02c0.078-0.009,0.153-0.053,0.159-0.081c0.1-0.01-0.021,0.05,0.044,0.048
				l0.078-0.058c0.068,0.033-0.038,0.022,0.031,0.055c0.056-0.058,0.119-0.046,0.219-0.104c0.003,0.035-0.007,0.077,0.036,0.077
				c-0.103,0.023-0.025,0.064-0.022,0.099c-0.036,0.004-0.09,0.024-0.146,0.045c0.099-0.019,0.198-0.037,0.297-0.055
				c-0.019-0.039,0.059-0.078-0.041-0.09c0.041-0.036,0.141-0.044,0.141-0.094c-0.075,0.021-0.114,0.01-0.13-0.024
				c0.051-0.003,0.234-0.042,0.176,0.059c0.07-0.05,0.165-0.122,0.221-0.17c0.024,0.022,0.087,0.015,0.12,0.026
				c-0.055,0.042-0.246,0.064-0.163,0.127c0.142-0.042,0.262-0.001,0.391-0.036l-0.043-0.049c0.103,0.028,0.139-0.113,0.271-0.111
				c0.002,0.035,0.005,0.105,0.075,0.092c0.017-0.021-0.004-0.07,0.072-0.062c-0.04-0.018-0.053-0.036-0.064-0.052
				c0.115,0.033,0.261,0.062,0.389,0.108c0.025-0.048,0.099-0.073,0.024-0.118c0.105-0.017,0.097,0.046,0.189,0.036l0.013-0.042
				c0.066,0.003,0.079-0.003,0.127,0.02c-0.041-0.124,0.268-0.066,0.229-0.118c0.153,0.078,0.442,0.056,0.622,0.009l-0.035,0.06
				c0.348-0.056,0.788-0.17,1.024-0.122c0.002,0.065-0.08-0.01-0.129,0.037c0.023,0.048,0.18,0.025,0.16,0.086
				c-0.143-0.025-0.019,0.104-0.154,0.066c-0.033-0.122-0.214-0.026-0.199-0.129c-0.042,0.012-0.022,0.095-0.007,0.113
				c-0.137-0.036-0.326,0.058-0.442-0.025c0.035-0.001,0.063-0.011,0.092,0.001c0.015-0.061-0.087-0.014-0.114-0.061l-0.074,0.096
				c-0.538-0.029-1.05,0.08-1.545,0.123c-0.146,0.044-0.244,0.08-0.382,0.083c-0.125-0.015-0.313,0.044-0.452,0.096
				c1.818-0.318,3.555-0.473,4.782,0.129c-0.03-0.062-0.043-0.137,0.005-0.152l0.125,0.023c-0.044,0.035-0.002,0.142,0.092,0.193
				c-0.052,0.052-0.137-0.096-0.2-0.055c0.079,0.04,0.154,0.086,0.228,0.132c0.056-0.004,0.169-0.053,0.265,0.018l0.039,0.104
				c-0.081-0.005-0.033-0.057-0.104-0.092c-0.047-0.064-0.128-0.019-0.104,0.026c0,0.001,0,0.001,0,0.002
				c0.007,0.005,0.015,0.009,0.023,0.014c0.005,0.002,0.009,0.002,0.014,0.005c-0.003,0-0.005,0-0.007,0
				c0.047,0.032,0.09,0.071,0.135,0.107l0.048-0.014l-0.011,0.029l-0.031-0.01c0.024,0.019,0.048,0.036,0.071,0.056
				c0.042-0.003,0.095-0.005,0.099-0.002c-0.003,0.007-0.098-0.009-0.055,0.037c0.01,0.009,0.022,0.016,0.032,0.026v0.115
				c0.029-0.029,0.046-0.01,0.145-0.09c0,0,0.005,0.047,0.011,0.093c0.005,0.034,0.011,0.068,0.011,0.068l-0.07-0.007
				c-0.008,0.049,0,0.071,0.01,0.088c0.019,0.013,0.04,0.02,0.058,0.037c-0.016-0.005-0.03-0.005-0.044-0.007
				c0.008,0.017,0.013,0.037-0.006,0.084c-0.032-0.02-0.046-0.051-0.058-0.082c-0.012,0.003-0.021,0.008-0.029,0.014
				c0.013,0.044,0.032,0.085,0.036,0.116c-0.023,0.008-0.044-0.013-0.063-0.04v0.14c-0.007-0.005-0.014-0.009-0.021-0.014
				l-0.003,0.014l-0.007-0.021C22.765,31.605,21.408,31.535,19.92,31.701z"/>
			<path id="XMLID_845_" class="st5" d="M36.755,29.931c0.005,0.063,0.01,0.128,0.016,0.194c-0.005,0.029,0.022,0.079-0.009,0.094
				l-0.093,0.043c-0.062,0.028-0.125,0.057-0.189,0.086c-0.207,0.075-0.425,0.14-0.627,0.191l0.04-0.045
				c-0.208-0.023-0.476,0.04-0.637,0.053l0.016-0.078c-0.17-0.011-0.392,0.082-0.428-0.009c0.083,0.011,0.124-0.004,0.159-0.006
				c-0.274-0.072-0.318,0.007-0.673-0.082c-0.036-0.004-0.074-0.009-0.111-0.013c0.008,0.061,0.091,0.13,0.1,0.159
				c-0.333-0.092-0.19-0.079-0.462-0.178c0.005,0.053-0.065,0.044-0.139,0.054c-0.485-0.117-0.332-0.013-0.707-0.093
				c-0.045,0.009,0.007,0.032,0.019,0.043c-0.142-0.079-0.259-0.007-0.299-0.094c0.083,0.024,0.169,0.026,0.19-0.005
				c-0.106-0.046-0.255-0.028-0.394-0.056c-0.022,0.031,0.253,0.106-0.007,0.096c-0.418-0.027-0.375-0.264-0.82-0.227
				c-0.041-0.049-0.299-0.137-0.316-0.183c-0.157-0.031-0.314-0.061-0.472-0.092c-0.057,0.025-0.099,0.054-0.202,0.026
				c0.03-0.016,0.018-0.04-0.001-0.065c-0.059-0.011-0.118-0.022-0.177-0.033c-0.204,0.013-0.639-0.048-0.825-0.014
				c-0.029-0.067-0.266-0.074-0.199-0.13c0.071,0.009,0.155,0.031,0.168-0.003c-0.008-0.004-0.022-0.006-0.031-0.01
				c-0.071-0.011-0.142-0.022-0.212-0.033c-0.073,0-0.136,0.01-0.147,0.03c0.241,0.093-0.264-0.004,0.004,0.088
				c-0.112-0.02-0.254-0.081-0.323-0.066c-0.025-0.018-0.05-0.084-0.002-0.119c-0.028-0.004-0.056-0.007-0.084-0.011
				c-0.081,0.006-0.178,0.013-0.245-0.02c-0.177,0.044,0.191,0.133,0.012,0.154c-0.156-0.045,0.065-0.061-0.105-0.092l-0.129,0.121
				c-0.412-0.112-0.365,0.046-0.724-0.058c0.172-0.054,0.206-0.013,0.427-0.017c-0.059-0.037-0.106-0.065,0.002-0.1
				c-0.01,0.033,0.073,0.026,0.157,0.042l-0.135-0.109c-0.196-0.016-0.388-0.024-0.579-0.03c-0.073,0.015-0.329,0.022-0.355,0.08
				c-0.032-0.016-0.032-0.016-0.021-0.029c-0.098,0.009-0.167,0.013-0.173,0.048l0.144,0.014c-0.197,0.096-0.374-0.027-0.418,0.066
				l0.007-0.02c-0.271-0.005-0.366,0.063-0.624,0.102c-0.117-0.117-0.294,0-0.523-0.005c0.204-0.018-0.054,0.106-0.012,0.154
				c0.153-0.05,0.175-0.129,0.35-0.138c-0.05,0.023-0.13,0.072-0.031,0.063c-0.191,0.08-0.321,0.096-0.441,0.117
				c-0.121,0.016-0.24,0.014-0.386,0.079l0.043,0.037l-0.157-0.009c0.033,0.027,0.046,0.035-0.039,0.082
				c-0.071,0.046-0.165,0.104-0.249,0.165l0.063-0.057c-0.103,0.059-0.209,0.13-0.303,0.198c-0.045,0.032-0.093,0.072-0.123,0.091
				c-0.006-0.024-0.013-0.037-0.02-0.036c0.009-0.352,0.045,0.031,0.056-0.193l-0.043-0.237c0.046-0.226,0.015,0.116,0.06-0.103
				c-0.023-0.076-0.029-0.204-0.033-0.281c-0.005-0.074-0.008-0.159-0.028-0.268c0.035,0.008,0.075,0.042,0.082-0.044
				c0.004,0.212,0.058,0.074,0.093,0.08c-0.003,0.076,0.006,0.192,0.017,0.31v-0.609c-0.042,0.024-0.066-0.149-0.096,0.044
				c-0.028-0.094-0.018-0.294-0.067-0.313c0.007,0.155-0.011,0.228-0.047,0.247c0.006-0.102,0.001-0.476,0.089-0.327
				c-0.036-0.157-0.09-0.368-0.128-0.494c0.025-0.04,0.029-0.167,0.045-0.227c0.033,0.122,0.022,0.507,0.098,0.365
				c-0.018-0.295,0.043-0.519,0.029-0.787l-0.055,0.069c0.044-0.194-0.088-0.31-0.067-0.57c0.035,0.007,0.105,0.021,0.102-0.12
				c-0.018-0.039-0.07-0.014-0.051-0.16c-0.023,0.074-0.043,0.094-0.06,0.111c0.048-0.22,0.106-0.484,0.162-0.741
				c-0.045-0.061-0.06-0.215-0.114-0.077c-0.004-0.211,0.057-0.182,0.058-0.366l-0.04-0.035c0.011-0.13,0.006-0.157,0.035-0.249
				c-0.125,0.054-0.04-0.545-0.096-0.478c0.095-0.288,0.093-0.871,0.051-1.231l0.058,0.074c-0.035-0.704-0.163-1.558-0.133-2.019
				c0.065-0.013-0.006,0.157,0.044,0.247c0.047-0.052,0.015-0.357,0.077-0.327c-0.017,0.287,0.104,0.022,0.075,0.297
				c-0.12,0.081-0.014,0.428-0.118,0.407c0.014,0.083,0.096,0.038,0.113,0.006c-0.03,0.275,0.06,0.655-0.023,0.885
				c-0.001-0.07-0.011-0.127,0.001-0.185c-0.061-0.03-0.014,0.173-0.061,0.225l0.094,0.152c-0.045,1.074,0.004,2.115-0.021,3.114
				c0.022,0.303,0.044,0.508,0.026,0.785c-0.035,0.245-0.008,0.639,0.02,0.933v-9.782c-0.045,0.108-0.108,0.188-0.141,0.116
				l-0.03-0.235c0.053,0.046,0.124-0.123,0.12-0.336c0.069,0.039-0.01,0.328,0.052,0.403v-0.532
				c-0.034-0.093-0.124-0.226-0.132-0.452l0.058-0.181c0.046,0.132-0.024,0.119-0.008,0.272c-0.019,0.146,0.052,0.231,0.081,0.141
				c0.001-0.001,0.001-0.002,0.002-0.003v-0.044l-0.005-0.038c0.002,0.004,0.003,0.008,0.005,0.012v-0.347l-0.041-0.057l0.03-0.02
				l0.011,0.061v-0.179l-0.063-0.114c0.008-0.015,0.053,0.123,0.063,0.007v-0.324c-0.029,0.059-0.046,0.014-0.145,0.106l-0.022-0.25
				l0.07,0.013c0.021-0.259-0.064-0.172-0.017-0.408c0.058,0.074,0.053,0.231,0.097,0.293c0.019-0.146-0.04-0.29-0.046-0.389
				c0.022-0.015,0.044,0.018,0.063,0.072V15.78c1.974-1.663,4.929-0.55,7.831-0.054c-0.01-0.009-0.006-0.016,0.048-0.023
				c0.022,0.012,0.037,0.026,0.05,0.04c0.2,0.033,0.399,0.062,0.598,0.088c-0.051-0.016-0.11-0.031-0.131-0.048
				c0.087-0.003,0.189-0.017,0.243,0.002l-0.028,0.001c0.234,0.155,0.412,0.012,0.781,0.126c-0.002,0.001-0.005,0.001-0.007,0.002
				c0.185,0.011,0.369,0.017,0.551,0.016c0.108-0.014,0.219-0.021,0.341-0.008c0.094-0.005,0.188-0.012,0.282-0.02
				c0.042-0.01,0.08-0.019,0.105-0.025l-0.005,0.017c0.019-0.002,0.038-0.005,0.057-0.007c0.155-0.068,0.368-0.122,0.639-0.184
				c0.017,0.012,0.051,0,0.052,0.028c-0.004,0.036-0.008,0.068-0.011,0.097c-0.005,0.06-0.005,0.113-0.002,0.166
				c0.007,0.109,0.027,0.204,0.049,0.309c0.044,0.206,0.095,0.425,0.05,0.659l-0.071-0.016l0.022,0.393
				c0.001-0.118,0.005-0.22,0.001-0.291c0.183,0.095,0.019,0.778,0.154,1.116c-0.007,0.128-0.091,0.087-0.056,0.255
				c0.088,0.089,0.043,0.295,0.048,0.461c-0.017-0.047-0.034-0.095-0.043-0.12c-0.009,0-0.016,0.034-0.02,0.078l0.015,0.268
				c0.097,0.243,0.191,0.609,0.11,0.899l0.112,0.224c-0.046,0.2-0.015,0.454-0.032,0.638l0.051-0.015
				c-0.056,0.101,0.011,0.212,0.042,0.311c-0.016,0.029-0.038,0.029-0.053,0.058c0.001,0.269,0.113,0.494,0.091,0.65
				c-0.085-0.197-0.016,0.029-0.106-0.196c0.057,0.17-0.037,0.299,0.044,0.425c0.025,0.227-0.046,0.198-0.072,0.284
				c0.083-0.072,0.104,0.239,0.145,0.281c-0.062,0.228,0.088,0.423,0.089,0.693c-0.011-0.057-0.015-0.128-0.037-0.128
				c-0.033,0.133,0.026,0.131,0.03,0.232c-0.002-0.013-0.009-0.009-0.019-0.019l0.003,0.113c-0.007-0.032-0.015-0.069-0.019-0.085
				c-0.043,0.001-0.044,0.158-0.021,0.27c0.049,0.027,0.017,0.396,0.101,0.437c-0.067,0.043-0.007,0.44-0.092,0.399
				c0.011,0.213,0.094,0.296,0.137,0.451c-0.016,0.184-0.005,0.241-0.06,0.341c0.017,0.085,0.019,0.198,0.062,0.197l0.003-0.198
				c0.062,0.353-0.061,0.496,0.053,0.834c-0.033-0.055-0.02,0.115-0.054,0.057l0.049,0.184c-0.064,0.002-0.081-0.118-0.155-0.136
				l0.003,0.056c0.004,0.029,0.007,0.058,0.004,0.077l0.01,0.175c0.029,0.009,0.065,0.175,0.106,0.212l-0.075,0.001
				c0.047,0.226,0.125,0.394,0.176,0.69c-0.028,0.014-0.101,0.248-0.144,0.228l0.022,0.4c0.026,0.01,0.047,0.011,0.04-0.109
				c0.016,0.106,0.031,0.251-0.004,0.334l0.156,0.493c-0.083-0.084-0.005,0.241-0.076,0.214c0.029,0.141-0.018,0.227,0.058,0.282
				c-0.058,0.143-0.053-0.254-0.102-0.125c-0.042,0.27,0.158,0.45,0.018,0.51c0.135,0.336,0.051-0.596,0.136-0.131l-0.038,0.186
				C36.744,29.842,36.75,29.886,36.755,29.931z"/>
			<path id="XMLID_844_" class="st5" d="M23.989,23.88c-0.047,0.052-0.015,0.357-0.077,0.327c0.017-0.287-0.104-0.022-0.075-0.297
				c0.12-0.081,0.014-0.428,0.118-0.407c-0.014-0.083-0.096-0.038-0.113-0.006c0.03-0.275-0.06-0.655,0.023-0.885
				c0.001,0.07,0.011,0.127-0.001,0.185c0.061,0.03,0.014-0.173,0.061-0.225l-0.094-0.152c0.045-1.074-0.004-2.115,0.021-3.114
				c-0.022-0.303-0.044-0.508-0.026-0.785c0.036-0.245,0.008-0.639-0.02-0.934v9.783c0.045-0.108,0.108-0.188,0.141-0.117
				l0.03,0.235c-0.053-0.046-0.124,0.123-0.12,0.336c-0.069-0.039,0.01-0.328-0.052-0.403v0.532
				c0.034,0.093,0.124,0.226,0.132,0.452l-0.058,0.181c-0.046-0.132,0.024-0.119,0.008-0.272c0.019-0.146-0.052-0.231-0.081-0.141
				c-0.001,0.001-0.001,0.002-0.002,0.003v0.044l0.005,0.038c-0.002-0.004-0.003-0.008-0.005-0.012v0.347l0.041,0.057l-0.03,0.02
				l-0.011-0.061v0.179l0.063,0.114c-0.008,0.015-0.053-0.124-0.063-0.007v0.324c0.029-0.059,0.046-0.014,0.145-0.106l0.022,0.25
				l-0.07-0.013c-0.021,0.259,0.064,0.172,0.017,0.408c-0.058-0.074-0.053-0.231-0.097-0.293c-0.013,0.104,0.009,0.201,0.028,0.288
				c0.039,0.026,0.079,0.043,0.116,0.075c-0.042-0.019-0.078-0.031-0.11-0.041c0.004,0.022,0.011,0.048,0.012,0.067
				c-0.022,0.015-0.044-0.018-0.063-0.072v0.274c-0.007-0.005-0.015-0.009-0.022-0.014l-0.002,0.014l-0.003-0.017
				c-1.698-1.176-4.41-0.645-7.044-0.126c-0.28,0.055-0.557,0.109-0.831,0.161c0.009,0.005,0.005,0.014-0.039,0.037
				c-0.023-0.004-0.041-0.011-0.057-0.019c-0.197,0.037-0.393,0.074-0.585,0.107c0.05,0,0.104-0.001,0.127,0.009
				c-0.082,0.028-0.177,0.07-0.235,0.066l0.027-0.009c-0.266-0.092-0.4,0.115-0.784,0.064c-0.196,0.025-0.39,0.048-0.575,0.064
				c-0.082,0.013-0.168,0.018-0.259,0.014c-0.118,0.006-0.239,0.016-0.351,0.017c-0.036,0.007-0.07,0.012-0.093,0.014l0.008-0.017
				c-0.018,0-0.035-0.002-0.053-0.002c-0.164,0.041-0.409,0.052-0.604,0.038c-0.171-0.103-0.362-0.123-0.576-0.162
				c-0.055-0.012-0.121-0.035-0.188-0.056l-0.103-0.035c-0.022-0.02-0.007-0.065-0.012-0.099c0.003-0.163,0.013-0.264,0.048-0.378
				l0.068,0.023l0.022-0.393c-0.015,0.117-0.029,0.218-0.033,0.289c-0.171-0.114,0.068-0.775-0.029-1.126
				c0.021-0.126,0.1-0.076,0.084-0.248c-0.077-0.099-0.01-0.298,0.003-0.464c0.011,0.048,0.023,0.098,0.029,0.124
				c0.009,0.001,0.019-0.032,0.029-0.076l0.015-0.267c-0.069-0.252-0.122-0.626-0.009-0.905l-0.086-0.235
				c0.068-0.193,0.066-0.45,0.103-0.631l-0.053,0.009c0.066-0.094,0.013-0.212-0.007-0.314c0.019-0.027,0.041-0.025,0.059-0.051
				c0.029-0.268-0.057-0.503-0.018-0.656c0.062,0.205,0.02-0.027,0.083,0.207c-0.037-0.175,0.07-0.293,0.004-0.427
				c0-0.228,0.068-0.192,0.103-0.274c-0.091,0.062-0.077-0.249-0.113-0.296c0.087-0.22-0.04-0.43-0.011-0.699
				c0.005,0.058,0.001,0.129,0.023,0.132c0.048-0.129-0.012-0.133-0.004-0.234c0.001,0.013,0.008,0.01,0.017,0.021l0.009-0.113
				c0.003,0.032,0.008,0.07,0.009,0.086c0.043,0.003,0.061-0.152,0.051-0.266c-0.046-0.032,0.027-0.395-0.052-0.445
				c0.071-0.036,0.056-0.436,0.136-0.386c0.012-0.213-0.06-0.304-0.086-0.463c0.037-0.181,0.032-0.239,0.098-0.333
				c-0.008-0.086,0.003-0.199-0.04-0.203l-0.025,0.197c-0.022-0.358,0.116-0.486,0.041-0.835c0.027,0.058,0.033-0.112,0.06-0.051
				l-0.028-0.188c0.063,0.005,0.067,0.126,0.139,0.152l0.003-0.056c0-0.029-0.001-0.058,0.004-0.077l0.01-0.175
				c-0.028-0.012-0.045-0.181-0.082-0.223l0.074,0.007c-0.021-0.23-0.081-0.406-0.098-0.706c0.03-0.011,0.128-0.235,0.168-0.211
				l0.022-0.4c-0.025-0.013-0.045-0.016-0.052,0.104c-0.004-0.108-0.002-0.253,0.041-0.331l-0.101-0.507
				c0.073,0.092,0.032-0.239,0.099-0.204c-0.013-0.143,0.044-0.223-0.027-0.286c0.073-0.136,0.024,0.258,0.088,0.136
				c0.072-0.264-0.107-0.465,0.039-0.509c-0.097-0.349-0.117,0.587-0.15,0.115l0.059-0.18c-0.005-0.171,0.006-0.372,0.013-0.582
				c0.003-0.119,0.006-0.239,0.009-0.362c0-0.079,0.001-0.158,0.001-0.238l-0.001-0.062c0.001-0.01-0.002-0.023,0.001-0.03
				l0.027,0.002l0.107,0.007l-0.039,0.033c0.148,0.053,0.321,0.082,0.428,0.092c0.105,0.006,0.216,0.013,0.291,0.017l-0.025,0.075
				c0.166,0.042,0.388-0.067,0.421,0.029c-0.081-0.012-0.123,0.002-0.157,0.004c0.276,0.067,0.313,0.013,0.683,0.057
				c0.034-0.001,0.068-0.001,0.101-0.002c-0.015-0.06-0.107-0.117-0.118-0.144c0.334,0.043,0.194,0.049,0.477,0.103
				c-0.015-0.051,0.055-0.054,0.124-0.078c0.493-0.007,0.32-0.073,0.698-0.097c0.04-0.021-0.016-0.029-0.03-0.036
				c0.158,0.038,0.244-0.075,0.31-0.004c-0.085,0.005-0.166,0.031-0.177,0.067c0.114,0.008,0.249-0.057,0.388-0.079
				c0.01-0.037-0.271-0.014-0.026-0.093c0.395-0.114,0.442,0.119,0.841-0.082c0.056,0.031,0.328,0.014,0.361,0.05
				c0.157-0.032,0.313-0.065,0.47-0.098c0.043-0.045,0.07-0.089,0.177-0.102c-0.022,0.026-0.001,0.043,0.026,0.059
				c0.059-0.012,0.118-0.025,0.177-0.037c0.185-0.089,0.609-0.196,0.774-0.289c0.051,0.052,0.277-0.021,0.233,0.054
				c-0.07,0.014-0.156,0.023-0.157,0.059c0.006,0.001,0.015-0.001,0.021-0.001c0.078-0.015,0.155-0.03,0.233-0.044
				c0.064-0.023,0.116-0.051,0.121-0.072c-0.259-0.009,0.253-0.083-0.032-0.082c0.113-0.02,0.268-0.005,0.331-0.036
				c0.029,0.01,0.071,0.066,0.037,0.111c0.032-0.005,0.065-0.01,0.097-0.016c0.073-0.027,0.158-0.055,0.226-0.042
				c0.163-0.088-0.219-0.078-0.05-0.146c0.165,0.003-0.049,0.074,0.126,0.062l0.1-0.148c0.437,0.026,0.367-0.111,0.751-0.065
				c-0.171,0.079-0.21,0.044-0.435,0.081c0.067,0.028,0.117,0.048,0.015,0.099c0.004-0.035-0.077-0.014-0.165-0.013l0.147,0.079
				c0.203-0.02,0.404-0.034,0.601-0.041c0.089-0.015,0.314-0.031,0.341-0.084c0.032,0.017,0.032,0.017,0.021,0.03
				c0.1-0.006,0.17-0.008,0.179-0.043l-0.147-0.018c0.212-0.097,0.381,0.062,0.44-0.021l-0.01,0.018
				c0.276,0.065,0.393-0.006,0.664,0.082c0.063,0.157,0.287,0.116,0.477,0.265c-0.181-0.114,0.109-0.053,0.106-0.111
				c-0.165-0.071-0.23-0.004-0.398-0.084c0.058,0.004,0.161,0.002,0.061-0.04c0.23,0.013,0.355,0.111,0.467,0.182
				c0.109,0.082,0.208,0.148,0.348,0.246l0.005-0.059l0.083,0.149c-0.01-0.099,0.125,0.021,0.239,0.079l-0.048-0.014
				c0.068,0.051,0.129,0.086,0.225,0.141c0.041,0.024,0.089,0.045,0.118,0.064c0.006,0.031,0.013,0.053,0.02,0.061
				c-0.009,0.34-0.045-0.086-0.056,0.124c0,0.027,0.043,0.195,0.043,0.195c-0.046,0.122-0.015-0.083-0.06,0.04
				c0.046,0.133,0.022,0.252,0.061,0.471c-0.035-0.008-0.075-0.042-0.082,0.044c-0.004-0.212-0.058-0.074-0.093-0.08
				c0.003-0.073-0.006-0.189-0.017-0.313v0.612c0.042-0.024,0.066,0.149,0.096-0.044c0.028,0.094,0.018,0.294,0.067,0.313
				c-0.007-0.155,0.011-0.228,0.047-0.247c-0.006,0.101-0.001,0.476-0.089,0.327c0.036,0.157,0.09,0.368,0.128,0.495
				c-0.025,0.04-0.029,0.167-0.045,0.227c-0.033-0.122-0.022-0.507-0.098-0.365c0.018,0.295-0.043,0.519-0.029,0.787l0.055-0.069
				c-0.044,0.194,0.088,0.31,0.067,0.57c-0.035-0.007-0.105-0.021-0.102,0.12c0.018,0.039,0.07,0.014,0.051,0.16
				c0.023-0.074,0.043-0.094,0.06-0.111c-0.048,0.22-0.106,0.484-0.162,0.741c0.045,0.061,0.06,0.215,0.114,0.077
				c0.004,0.211-0.057,0.182-0.058,0.366l0.04,0.035c-0.011,0.13-0.006,0.157-0.035,0.249c0.125-0.054,0.04,0.545,0.096,0.478
				c-0.095,0.288-0.093,0.871-0.051,1.231L23.9,22.108c0.035,0.704,0.163,1.558,0.133,2.019C23.968,24.14,24.039,23.97,23.989,23.88
				z"/>
			<path id="XMLID_843_" class="st5" d="M23.91,30.92c0.019,0.014,0.039,0.021,0.057,0.039c-0.016-0.005-0.028-0.005-0.042-0.007
				c0.01,0.017,0.016,0.037-0.005,0.088c-0.034-0.021-0.048-0.054-0.061-0.086c-0.011,0.003-0.02,0.008-0.027,0.014
				c0.013,0.045,0.033,0.088,0.037,0.12c-0.023,0.007-0.044-0.013-0.063-0.04v0.139c-0.007-0.005-0.014-0.008-0.021-0.013
				l-0.003,0.013l-0.007-0.02c-1-0.69-2.35-0.789-3.828-0.649c0.004,0.006,0.004,0.014-0.018,0.03
				c-0.011-0.007-0.02-0.016-0.028-0.026c-0.097,0.01-0.195,0.019-0.293,0.031c0.026,0.006,0.053,0.011,0.065,0.023
				c-0.04,0.018-0.086,0.05-0.115,0.04l0.013-0.006c-0.136-0.116-0.195,0.065-0.384-0.004c-0.095,0.013-0.191,0.028-0.287,0.043
				c-0.031,0.009-0.065,0.014-0.099,0.015c-0.067,0.01-0.134,0.021-0.201,0.032c-0.016,0.009-0.032,0.017-0.042,0.022l0.001-0.015
				c-0.014,0.002-0.029,0.005-0.043,0.007c-0.073,0.051-0.174,0.091-0.259,0.123c-0.204-0.127-0.361,0.173-0.606,0.103l-0.003-0.07
				c-0.063,0.012-0.127,0.024-0.19,0.036c0.059-0.003,0.11-0.004,0.144-0.01c-0.017,0.184-0.381,0.048-0.526,0.195
				c-0.064-0.001-0.058-0.086-0.135-0.045c-0.03,0.09-0.139,0.054-0.22,0.066c0.02-0.018,0.041-0.037,0.052-0.047
				c-0.002-0.009-0.02-0.014-0.042-0.017c-0.043,0.009-0.086,0.017-0.129,0.025c-0.104,0.105-0.27,0.213-0.427,0.144l-0.093,0.119
				c-0.106-0.037-0.228,0.002-0.321-0.008l0.016,0.05c-0.059-0.051-0.104,0.018-0.148,0.053c-0.017-0.015-0.02-0.036-0.037-0.051
				c-0.133,0.01-0.229,0.127-0.31,0.11c0.085-0.09-0.016-0.015,0.082-0.111c-0.076,0.061-0.153-0.026-0.205,0.056
				c-0.109,0.03-0.105-0.041-0.151-0.064c0.047,0.081-0.105,0.109-0.121,0.151c-0.121-0.056-0.2,0.094-0.336,0.1
				c0.027-0.012,0.063-0.017,0.06-0.039c-0.07-0.031-0.062,0.028-0.112,0.034c0.006-0.003,0.003-0.009,0.007-0.019l-0.056,0.004
				c0.017-0.006,0.033-0.016,0.04-0.02c-0.005-0.043-0.083-0.042-0.137-0.019c-0.009,0.049-0.196,0.019-0.209,0.103
				c-0.027-0.066-0.221-0.01-0.207-0.094c-0.105,0.009-0.141,0.092-0.218,0.131c-0.093-0.021-0.122-0.011-0.174-0.068
				c-0.042,0.015-0.099,0.015-0.097,0.058l0.1,0.007c-0.178,0.054-0.249-0.08-0.421,0.02c0.029-0.03-0.057-0.028-0.027-0.057
				l-0.094,0.036c0.002-0.064,0.063-0.073,0.074-0.146c-0.005,0-0.01-0.001-0.015-0.001c-0.025,0.006-0.044,0.005-0.056-0.003
				c-0.029-0.001-0.056-0.003-0.085-0.004c0.005,0.031-0.084,0.057-0.107,0.097l0.006-0.074c-0.114,0.023-0.207,0.091-0.363,0.102
				c-0.004-0.031-0.115-0.141-0.086-0.177c0.002-0.001,0.005,0,0.007-0.001c-0.068-0.011-0.134-0.024-0.198-0.039
				c-0.013,0.026-0.024,0.048,0.039,0.064c-0.054-0.003-0.128-0.014-0.156-0.061c0.002,0.009-0.284,0.041-0.284,0.041
				c0.036-0.029,0.009-0.043-0.024-0.059c-0.038-0.023-0.08-0.046-0.051-0.07c-0.093-0.022-0.091-0.079-0.192-0.047
				c-0.011-0.078,0.172,0.042,0.151-0.031c-0.019-0.025-0.046-0.037-0.079-0.045c-0.009-0.022-0.02-0.043-0.03-0.064
				c-0.02-0.041-0.029-0.086,0.043-0.099c-0.053-0.089-0.078-0.025-0.097,0.075c-0.019,0.089-0.031,0.185-0.052,0.023
				c0-0.003,0.057-0.148,0.056-0.133c-0.008-0.147-0.001-0.345,0.011-0.525c0.097,0.033,0.198,0.061,0.303,0.076l-0.024,0.033
				c0.149,0.114,0.278,0.091,0.351,0.095l-0.025,0.074c0.078,0.036,0.2-0.052,0.203,0.041c-0.038-0.015-0.06-0.003-0.078-0.002
				c0.115,0.078,0.153,0.026,0.293,0.073c0.028,0.003,0.054,0.007,0.082,0.009c-0.004-0.058-0.036-0.119-0.039-0.146
				c0.156,0.072,0.088,0.066,0.221,0.141c-0.003-0.052,0.031-0.05,0.067-0.07c0.24,0.052,0.16-0.032,0.345-0.016
				c0.021-0.017-0.006-0.03-0.013-0.039c0.075,0.051,0.122-0.04,0.151,0.037c-0.042-0.007-0.083,0.005-0.09,0.04
				c0.055,0.026,0.124-0.02,0.193-0.022c0.006-0.035-0.132-0.052-0.01-0.095c0.196-0.061,0.214,0.179,0.415,0.04
				c0.027,0.038,0.159,0.061,0.179,0.101c0.078-0.008,0.161-0.021,0.241-0.031c0.019-0.036,0.033-0.07,0.083-0.068
				c-0.01,0.02-0.001,0.038,0.011,0.056c0.034-0.004,0.068-0.008,0.102-0.013c0.096-0.059,0.295-0.106,0.369-0.178
				c0.029,0.057,0.138,0.008,0.121,0.078c-0.034,0.007-0.078,0.007-0.076,0.042c0.004,0.002,0.01,0.001,0.015,0.002
				c0.036-0.006,0.074-0.013,0.11-0.019c0.031-0.016,0.057-0.038,0.057-0.059c-0.132-0.036,0.122-0.055-0.022-0.084
				c0.056-0.006,0.135,0.021,0.163-0.007c0.015,0.012,0.037,0.069,0.024,0.112c0.018-0.003,0.036-0.006,0.054-0.009
				c0.034-0.021,0.074-0.043,0.109-0.027c0.072-0.078-0.118-0.089-0.041-0.147c0.083,0.013-0.017,0.07,0.07,0.069l0.033-0.14
				c0.218,0.032,0.164-0.107,0.357-0.061c-0.071,0.078-0.096,0.044-0.201,0.081c0.036,0.027,0.064,0.048,0.021,0.098
				c-0.003-0.035-0.04-0.013-0.083-0.013l0.085,0.08c0.095-0.017,0.188-0.033,0.284-0.051c0.034-0.022,0.153-0.058,0.156-0.116
				c0.019,0.014,0.019,0.014,0.016,0.028c0.047-0.015,0.08-0.023,0.077-0.058l-0.074-0.005c0.082-0.105,0.189,0,0.198-0.088l0,0.019
				c0.139,0.004,0.177-0.068,0.309-0.086c0.071,0.117,0.155,0.03,0.275,0.069c-0.105-0.011,0.022-0.099,0-0.147
				c-0.081,0.023-0.086,0.1-0.179,0.082c0.025-0.015,0.065-0.051,0.012-0.057c0.195-0.104,0.279,0.006,0.443-0.006l-0.022-0.048
				l0.084,0.06c-0.043-0.069,0.044-0.063,0.099-0.092l-0.019,0.02c0.078-0.009,0.152-0.053,0.158-0.081
				c0.1-0.01-0.021,0.049,0.044,0.048l0.078-0.058c0.068,0.033-0.037,0.022,0.031,0.055c0.056-0.057,0.118-0.045,0.218-0.104
				c0.003,0.035-0.007,0.077,0.036,0.077c-0.102,0.023-0.025,0.064-0.022,0.099c-0.036,0.004-0.089,0.024-0.145,0.045
				c0.098-0.019,0.197-0.037,0.295-0.055c-0.018-0.039,0.058-0.078-0.041-0.09c0.041-0.036,0.14-0.044,0.14-0.093
				c-0.074,0.021-0.113,0.01-0.129-0.024c0.051-0.003,0.232-0.041,0.175,0.059c0.07-0.049,0.163-0.121,0.219-0.17
				c0.024,0.022,0.087,0.015,0.119,0.026c-0.055,0.042-0.244,0.064-0.162,0.127c0.141-0.043,0.261-0.001,0.389-0.036l-0.043-0.049
				c0.102,0.028,0.137-0.114,0.269-0.111c0.002,0.035,0.005,0.105,0.074,0.092c0.016-0.021-0.004-0.07,0.071-0.062
				c-0.04-0.018-0.052-0.036-0.063-0.052c0.114,0.033,0.26,0.063,0.387,0.108c0.024-0.048,0.098-0.073,0.023-0.118
				c0.104-0.017,0.097,0.046,0.188,0.036l0.013-0.042c0.065,0.003,0.078-0.003,0.127,0.02c-0.041-0.124,0.266-0.067,0.227-0.119
				c0.152,0.079,0.439,0.055,0.618,0.008l-0.034,0.06c0.345-0.057,0.782-0.172,1.017-0.124c0.002,0.065-0.079-0.01-0.128,0.037
				c0.023,0.048,0.179,0.025,0.159,0.086c-0.142-0.025-0.019,0.104-0.153,0.066c-0.034-0.122-0.212-0.026-0.198-0.129
				c-0.042,0.012-0.022,0.095-0.007,0.113c-0.137-0.033-0.324,0.059-0.439-0.024c0.035-0.001,0.063-0.011,0.092,0.001
				c0.014-0.061-0.086-0.014-0.113-0.061l-0.073,0.097c-0.535-0.03-1.043,0.082-1.535,0.124c-0.145,0.044-0.242,0.08-0.38,0.083
				c-0.124-0.015-0.311,0.043-0.449,0.095c1.804-0.316,3.528-0.471,4.755,0.111c-0.03-0.063-0.044-0.137,0.004-0.153l0.124,0.022
				c-0.044,0.036,0.002,0.136,0.094,0.19c-0.049,0.049-0.138-0.092-0.2-0.049c0.079,0.038,0.155,0.082,0.229,0.127
				c0.056-0.005,0.165-0.052,0.265,0.011l0.039,0.104c-0.08-0.004-0.033-0.057-0.104-0.092c-0.054-0.054-0.129-0.016-0.105,0.031
				c0,0.001,0,0.001,0,0.002c0.006,0.004,0.013,0.007,0.019,0.011c0.006,0.002,0.013,0.004,0.019,0.006
				c-0.003,0-0.005,0-0.008,0.001c0.047,0.032,0.091,0.068,0.137,0.103l0.047-0.015l-0.011,0.03l-0.03-0.01
				c0.023,0.018,0.047,0.036,0.07,0.055c0.039-0.005,0.088-0.01,0.092-0.007c-0.002,0.008-0.091-0.003-0.048,0.043
				c0.022,0.019,0.046,0.034,0.067,0.053v0.073c0.028-0.031,0.047-0.025,0.145-0.116l0.022,0.184l-0.07-0.007
				C23.896,30.881,23.902,30.903,23.91,30.92z"/>
			<path id="XMLID_842_" class="st5" d="M24.333,31.045l0.07,0.007c0.021-0.128-0.064-0.085-0.017-0.201
				c0.058,0.037,0.053,0.114,0.097,0.145c0.019-0.072-0.04-0.143-0.046-0.192c0.023-0.007,0.044,0.013,0.063,0.04v-0.139
				c0.898-0.82,2.266-0.946,3.802-0.802c-0.003-0.007-0.001-0.015,0.024-0.027c0.01,0.009,0.017,0.019,0.023,0.031
				c0.097,0.009,0.195,0.02,0.293,0.031c-0.023-0.012-0.049-0.024-0.058-0.039c0.043-0.008,0.096-0.027,0.122-0.01l-0.014,0.003
				c0.105,0.148,0.208-0.023,0.375,0.1c0.094,0.013,0.189,0.027,0.284,0.042c0.032,0,0.064,0.005,0.097,0.014
				c0.067,0.011,0.135,0.022,0.203,0.034c0.018-0.003,0.036-0.006,0.047-0.007l-0.006,0.014c0.014,0.002,0.029,0.005,0.043,0.007
				c0.085-0.025,0.195-0.029,0.285-0.031c0.147,0.192,0.401-0.036,0.605,0.12l-0.022,0.067c0.063,0.012,0.127,0.024,0.19,0.036
				c-0.055-0.019-0.103-0.037-0.137-0.044c0.084-0.165,0.373,0.096,0.562,0.015c0.059,0.025,0.021,0.101,0.108,0.093
				c0.062-0.072,0.149,0.002,0.229,0.022c-0.025,0.009-0.052,0.019-0.066,0.024c-0.002,0.009,0.013,0.02,0.032,0.031
				c0.044,0.009,0.087,0.017,0.131,0.025c0.136-0.058,0.329-0.094,0.448,0.027l0.13-0.076c0.084,0.074,0.211,0.082,0.295,0.124
				l0.004-0.052c0.036,0.069,0.103,0.02,0.156,0.003c0.01,0.02,0.006,0.041,0.016,0.06c0.128,0.037,0.256-0.04,0.326,0.003
				c-0.11,0.056,0.01,0.02-0.114,0.076c0.092-0.031,0.135,0.077,0.21,0.016c0.112,0.007,0.085,0.072,0.121,0.109
				c-0.019-0.091,0.133-0.07,0.161-0.105c0.098,0.091,0.217-0.031,0.345,0.001c-0.029,0.004-0.064,0-0.067,0.021
				c0.058,0.049,0.067-0.01,0.115-0.002c-0.007,0.001-0.006,0.008-0.012,0.017l0.054,0.011c-0.018,0.001-0.035,0.007-0.043,0.008
				c-0.006,0.043,0.068,0.062,0.126,0.053c0.02-0.045,0.192,0.029,0.223-0.05c0.011,0.071,0.209,0.054,0.179,0.133
				c0.104,0.01,0.154-0.064,0.232-0.091c0.086,0.033,0.115,0.026,0.158,0.09c0.042-0.009,0.097-0.002,0.1-0.046l-0.095-0.019
				c0.174-0.033,0.236,0.101,0.404,0.008c-0.028,0.03,0.055,0.027,0.026,0.057l0.09-0.038c0,0.063-0.057,0.076-0.069,0.146
				c0.005,0,0.01,0.001,0.015,0.001c0.004,0,0.008,0,0.012,0c0.013-0.002,0.027-0.004,0.035-0.001c0.031,0,0.06-0.002,0.09-0.003
				c0.01-0.027,0.086-0.055,0.102-0.094l0.001,0.075c0.111-0.039,0.19-0.113,0.328-0.161c0.008,0.028,0.122,0.096,0.123,0.139
				c0.066-0.009,0.131-0.019,0.194-0.031c0.001-0.024-0.003-0.043-0.058-0.033c0.05-0.018,0.117-0.039,0.164-0.008
				c0,0,0.052-0.045,0.104-0.091c0.036-0.041,0.144-0.11,0.14-0.108c-0.06,0.104,0.166-0.038,0.122,0.051
				c0.098-0.059,0.104-0.005,0.201-0.123c0.022,0.062-0.179,0.111-0.145,0.159c0.023,0.007,0.049-0.005,0.082-0.026
				c0.043,0.018,0.112,0.048,0.014,0.154c0.061,0.046,0.077-0.043,0.085-0.149c0.008-0.099,0.01-0.201,0.047-0.062l-0.039,0.172
				c0.021,0.109,0.029,0.242,0.041,0.394l0.01,0.112c-0.021,0.023-0.058,0.036-0.086,0.055c-0.06,0.036-0.119,0.076-0.179,0.122
				l0.011-0.049c-0.131-0.006-0.232,0.082-0.311,0.118l-0.013-0.077c-0.086,0.002-0.169,0.133-0.208,0.049
				c0.042-0.001,0.058-0.022,0.074-0.03c-0.139-0.026-0.159,0.038-0.32,0.02c-0.023,0.003-0.044,0.008-0.067,0.011
				c0.015,0.058,0.062,0.112,0.072,0.137c-0.177-0.038-0.106-0.047-0.251-0.1c0.01,0.051-0.026,0.054-0.06,0.078
				c-0.25-0.037-0.164,0.044-0.356,0.028c-0.022,0.016,0.006,0.03,0.013,0.039c-0.076-0.054-0.129,0.035-0.155-0.044
				c0.043,0.01,0.085-0.002,0.094-0.036c-0.055-0.028-0.127,0.013-0.199,0.011c-0.01,0.034,0.133,0.061,0.002,0.096
				c-0.212,0.04-0.197-0.2-0.42-0.094c-0.022-0.044-0.159-0.094-0.161-0.138c-0.076-0.008-0.153-0.016-0.231-0.026
				c-0.031,0.032-0.052,0.07-0.106,0.054c0.016-0.02,0.009-0.043,0-0.066c-0.029-0.004-0.056-0.006-0.085-0.009
				c-0.103,0.037-0.322,0.024-0.42,0.072c-0.01-0.062-0.13-0.051-0.092-0.112c0.035,0.004,0.076,0.018,0.085-0.016
				c-0.006-0.006-0.016-0.008-0.024-0.012c-0.03-0.005-0.06-0.009-0.091-0.014c-0.039,0.004-0.074,0.018-0.083,0.04
				c0.114,0.075-0.134,0.014-0.005,0.087c-0.056-0.012-0.122-0.064-0.159-0.046c-0.011-0.017-0.013-0.081,0.016-0.117
				c-0.015-0.003-0.03-0.005-0.045-0.008c-0.041,0.009-0.092,0.02-0.122-0.01c-0.095,0.048,0.081,0.125-0.012,0.152
				c-0.074-0.041,0.04-0.06-0.042-0.089l-0.08,0.12c-0.195-0.106-0.193,0.042-0.36-0.07c0.096-0.047,0.106-0.006,0.218-0.003
				c-0.025-0.039-0.043-0.068,0.015-0.099c-0.01,0.034,0.033,0.027,0.073,0.041l-0.054-0.109l0.001,0
				c-0.093-0.017-0.185-0.033-0.28-0.051c-0.037,0.009-0.166-0.002-0.19,0.051c-0.012-0.02-0.012-0.02-0.004-0.032
				c-0.049-0.003-0.083-0.009-0.093,0.025l0.067,0.032c-0.116,0.067-0.176-0.071-0.217,0.008l0.008-0.018
				c-0.128-0.055-0.19-0.004-0.319-0.037c-0.022-0.135-0.132-0.087-0.229-0.168c0.093,0.05-0.058,0.083-0.055,0.136
				c0.083,0.009,0.117-0.06,0.197-0.008c-0.029,0.005-0.079,0.023-0.033,0.048c-0.219,0.022-0.256-0.111-0.412-0.162l0.002,0.053
				l-0.054-0.088c0.014,0.08-0.065,0.042-0.127,0.048l0.025-0.011c-0.076-0.02-0.16-0.007-0.176,0.017
				c-0.096-0.028,0.038-0.038-0.022-0.061l-0.093,0.026c-0.051-0.056,0.043-0.007-0.008-0.063c-0.073,0.033-0.126-0.002-0.239,0.017
				c0.01-0.034,0.034-0.07-0.006-0.084c0.103,0.015,0.046-0.051,0.056-0.084c0.036,0.009,0.093,0.011,0.154,0.011
				c-0.099-0.019-0.199-0.037-0.298-0.055c0.003,0.043-0.082,0.053,0.006,0.099c-0.05,0.019-0.146-0.008-0.163,0.038
				c0.076,0.007,0.109,0.031,0.111,0.068c-0.048-0.015-0.23-0.043-0.142-0.117c-0.082,0.022-0.194,0.056-0.261,0.084
				c-0.015-0.028-0.076-0.043-0.102-0.063c0.065-0.022,0.249,0.019,0.193-0.067c-0.146-0.006-0.245-0.084-0.377-0.093l0.025,0.06
				c-0.087-0.06-0.164,0.063-0.286,0.023c0.008-0.034,0.026-0.102-0.043-0.11c-0.022,0.015-0.017,0.068-0.085,0.039
				c0.032,0.028,0.039,0.049,0.045,0.068c-0.101-0.063-0.216-0.135-0.338-0.211c-0.036,0.04-0.113,0.047-0.052,0.109
				c-0.103-0.009-0.081-0.068-0.171-0.08l-0.022,0.037c-0.062-0.019-0.076-0.016-0.117-0.049c0.012,0.127-0.269,0.015-0.242,0.073
				c-0.13-0.111-0.417-0.127-0.594-0.095l0.039-0.056c-0.349,0.013-0.758,0.15-0.978,0.131c-0.01-0.064,0.075,0.004,0.116-0.048
				c-0.027-0.045-0.173-0.01-0.162-0.07c0.14,0.01,0.004-0.105,0.141-0.081c0.045,0.119,0.21,0.007,0.202,0.112
				c0.04-0.016,0.017-0.097,0.001-0.113c0.135,0.021,0.323-0.057,0.434,0.025c-0.035,0.001-0.062,0.01-0.091-0.002
				c-0.016,0.061,0.084,0.016,0.108,0.063l0.078-0.093c0.525,0.067,1.039,0.074,1.523,0.167c0.151,0.001,0.254-0.007,0.386,0.031
				c0.114,0.054,0.31,0.06,0.458,0.056c-1.763-0.308-3.464-0.466-4.771,0.044c0.067,0.024,0.125,0.071,0.104,0.113l-0.094,0.065
				c0-0.059-0.101-0.09-0.193-0.041c-0.011-0.071,0.147-0.061,0.16-0.129c-0.082,0.032-0.16,0.071-0.238,0.108
				c-0.027,0.051-0.047,0.153-0.134,0.216l-0.103-0.004c0.031-0.073,0.061-0.01,0.115-0.062c0.071-0.015,0.077-0.095,0.023-0.102
				c-0.001,0-0.001-0.001-0.002-0.001c-0.006,0.003-0.013,0.006-0.02,0.009c-0.005,0.004-0.01,0.008-0.015,0.012
				c0.001-0.003,0.002-0.004,0.003-0.007c-0.05,0.027-0.098,0.059-0.146,0.088l-0.002,0.05l-0.024-0.02l0.02-0.025
				c-0.025,0.015-0.05,0.031-0.074,0.046l-0.013,0.083c-0.011-0.003,0.022-0.077-0.036-0.052c-0.024,0.016-0.049,0.029-0.072,0.045
				v-0.074c-0.028,0.028-0.047,0.011-0.145,0.056L24.333,31.045z"/>
		</g>
	</g>
</g>
<g id="圖層_4" class="st20">
</g>
</svg>
