<?xml version="1.0" encoding="utf-8"?>
<!-- Generator: Adobe Illustrator 22.0.1, SVG Export Plug-In . SVG Version: 6.00 Build 0)  -->
<svg version="1.1" xmlns="http://www.w3.org/2000/svg" xmlns:xlink="http://www.w3.org/1999/xlink" x="0px" y="0px"
	 viewBox="0 0 48.306 59.156" style="enable-background:new 0 0 48.306 59.156;" xml:space="preserve">
<style type="text/css">
	.st0{fill:#EFEFEF;}
	.st1{fill:#15AF83;}
	.st2{fill:#171C61;}
	.st3{fill:#17AD7B;}
	.st4{opacity:0.6;}
	.st5{fill:#FFFFFF;}
	.st6{fill:#165987;}
	.st7{fill:#D64B3C;}
	.st8{fill:#D65677;}
	.st9{fill:#DD722A;}
	.st10{fill:#005E9E;}
	.st11{fill:#D67327;}
	.st12{clip-path:url(#SVGID_6_);fill:none;}
	.st13{clip-path:url(#SVGID_6_);}
	.st14{fill:none;stroke:#FFFFFF;stroke-width:0.6;stroke-miterlimit:10;}
	.st15{fill:#113272;}
	.st16{opacity:0.2;}
	.st17{opacity:0.2;fill:#171C61;}
	.st18{opacity:0.4;}
	.st19{opacity:0.8;}
	.st20{display:none;}
	.st21{display:inline;fill:#C30D23;}
</style>
<g id="圖層_3">
</g>
<g id="圖層_2">
</g>
<g id="圖層_1">
	<g>
		<g>
			<path class="st2" d="M15.58,48.055l-0.191-0.198C15.479,47.95,15.537,48.01,15.58,48.055z"/>
			<path class="st2" d="M16.887,49.553l0.047,0.024C16.866,49.515,16.835,49.491,16.887,49.553z"/>
			<path class="st2" d="M26.846,55.066c0.082-0.086,0.195-0.213,0.352-0.395L26.846,55.066z"/>
			<path class="st2" d="M8.077,40.206l-0.263-0.195C8.175,40.367,8.032,40.194,8.077,40.206z"/>
			<path class="st2" d="M10.239,5.136c0.025-0.016,0.053-0.035,0.076-0.05C10.318,5.077,10.285,5.1,10.239,5.136z"/>
			<path class="st2" d="M46.721,27.725c-0.001,0.007-0.002,0.013-0.004,0.022C46.739,27.673,46.735,27.686,46.721,27.725z"/>
			<path class="st2" d="M1.171,23.596c0-0.017,0.002-0.037,0.005-0.056C1.172,23.278,1.167,23.393,1.171,23.596z"/>
			<path class="st2" d="M36.389,44.096c0.007-0.009,0.012-0.015,0.018-0.023c-0.009,0.008-0.019,0.019-0.027,0.027L36.389,44.096z"
				/>
			<path class="st2" d="M35.782,44.796c0.228-0.327,0.386-0.486,0.598-0.696l-0.304,0.135L35.782,44.796z"/>
			<path class="st2" d="M47.2,23.415c-0.026-0.283-0.056-0.619-0.079-0.869c-0.059,0.156,0.063,1.146,0.05,1.646
				c-0.03,0-0.058-0.11-0.083-0.294c0.002-0.109,0.008-0.217,0.008-0.326c0-1.414-0.135-2.797-0.381-4.14
				c-0.035-0.217-0.076-0.45-0.126-0.694c-0.036-0.143-0.074-0.292-0.111-0.439c-0.061-0.257-0.124-0.512-0.194-0.766
				c-0.006-0.022-0.012-0.046-0.017-0.068c-0.051-0.21-0.101-0.415-0.149-0.609c-0.046-0.194-0.12-0.368-0.169-0.531
				c-0.04-0.087-0.089-0.199-0.131-0.291c-0.602-1.726-1.405-3.357-2.38-4.867c0.036,0.041,0.076,0.086,0.019-0.021
				c-0.016-0.004-0.055-0.049-0.108-0.119c-4.091-6.232-11.137-10.35-19.148-10.35c-0.522,0-1.039,0.024-1.553,0.058
				c-0.217-0.025-0.409-0.052-0.379-0.091c-0.341,0.043-0.79,0.088-1.297,0.138c-0.504,0.058-1.075,0.092-1.611,0.279
				c-0.246,0.042,0.199-0.084,0.065-0.074c-0.269,0.113-0.6,0.207-1.226,0.348l0.067-0.028c-0.432,0.125-0.816,0.188-1.149,0.319
				c-0.337,0.118-0.647,0.226-0.964,0.337c-0.316,0.112-0.644,0.214-1.005,0.352c-0.351,0.161-0.74,0.341-1.2,0.553l0.157-0.021
				c-0.395,0.183-0.484,0.209-0.674,0.286c-0.183,0.125,0.01,0.037,0.251-0.077c-0.846,0.403-2.266,1.335-2.572,1.443
				c-0.537,0.401,0.19-0.071-0.347,0.329l-0.16,0.081l-0.112,0.133c-0.355,0.257-0.556,0.36-0.585,0.349
				c0.087-0.061,0.238-0.187,0.329-0.258C10.002,5.296,9.673,5.53,9.403,5.761c-0.259,0.244-0.482,0.458-0.558,0.52l0.49-0.419
				C8.679,6.5,7.877,7.132,7.231,7.91C6.899,8.288,6.542,8.644,6.249,9.031c-0.287,0.393-0.562,0.775-0.813,1.138l0.099-0.094
				c-0.193,0.276-0.331,0.466-0.442,0.616c-0.1,0.158-0.174,0.275-0.251,0.396c-0.156,0.239-0.324,0.492-0.699,1.128l0.023-0.049
				c-0.071,0.134-0.152,0.285-0.238,0.447c-0.076,0.17-0.161,0.351-0.25,0.533c0.138-0.349-0.352,0.609-0.167,0.154
				c-0.297,0.669-0.367,0.835-0.405,0.948c-0.017,0.055-0.032,0.1-0.058,0.184c-0.031,0.084-0.074,0.212-0.131,0.448l-0.112,0.194
				c-0.08,0.321-0.073,0.353-0.316,1.047c0.176-0.578-0.217,0.423-0.026-0.228c-0.147,0.359-0.289,0.668-0.36,0.96
				c-0.073,0.291-0.129,0.547-0.18,0.777c-0.101,0.46-0.181,0.815-0.33,1.148c-0.072,0.711,0.391-1.285,0.315-0.894
				c0.117-0.313-0.068,0.586-0.199,1.052c-0.078,0.485-0.262,0.804-0.448,2.038c0.015-0.122,0.016-0.132,0.032-0.254
				C1.175,21.178,1.235,21.632,1.16,22.2c0.048,0.324-0.041,0.742,0.037,0.837l0.038-1.14C1.229,22.22,1.243,22.535,1.245,22.9
				c0.001,0.182,0,0.378-0.008,0.593c0,0.215,0,0.45,0,0.719c-0.019-0.082-0.048-0.398-0.066-0.616
				c-0.017,0.312,0.031,0.599,0.014,0.922c-0.042-0.044-0.055-0.391-0.067-0.814c0-0.422,0.039-0.919,0.021-1.267
				c-0.052,0.334-0.006,1.314-0.078,0.964c0.107,0.5-0.012,1.232,0.147,2.069l-0.053-0.052c0.018,0.133,0.056,0.412,0.089,0.651
				c-0.041-0.145-0.078-0.29-0.107-0.437c0.12,0.675,0.092,1.32,0.242,1.964c-0.121-0.678-0.111-0.758-0.088-0.739
				c0.022,0.019,0.061,0.136,0.043-0.155c0.31,1.526,0.044,1.086,0.366,2.448c-0.045-0.23-0.064-0.411,0.005-0.17
				c0.071,0.355,0.188,0.818,0.219,1.04c0.381,1.201-0.016-0.197,0.175,0.305c0.079,0.424,0.204,0.584,0.412,1.092l-0.046,0.021
				c0.481,1.35,0.218,0.322,0.686,1.52l-0.28-0.472l0.283,0.61l-0.107-0.104c0.159,0.33,0.285,0.536,0.386,0.751
				C3.54,33.957,3.63,34.176,3.8,34.492c-0.049-0.163,0.125,0.039,0.431,0.593c0.198,0.384-0.168-0.182,0.306,0.581
				c-0.129-0.158-0.29-0.323-0.439-0.688c-0.033-0.027-0.124-0.16-0.158-0.189c0.183,0.433,0.594,1.013,0.759,1.293
				c-0.064-0.108-0.14-0.238-0.174-0.307c0.238,0.365,0.518,0.701,0.775,1.051c0.099,0.181-0.004,0.055-0.107-0.07
				c0.149,0.219,0.283,0.347,0.517,0.657c-0.092-0.056-0.113-0.011-0.456-0.443c0.261,0.324,0.515,0.653,0.785,0.968
				c0.039,0.075,0.367,0.525,0.253,0.41c0.413,0.56,1.178,1.228,1.812,1.875c0.039,0.028,0.112,0.089,0.254,0.22
				c0.605,0.607,1.086,1.175,1.834,1.847l0.345,0.46c0.557,0.556-0.469-0.621,0.459,0.305c0.66,0.653,0.195,0.293,0.406,0.542
				c0.349,0.304,0.953,0.839,1.49,1.505c-0.203-0.197-0.346-0.366-0.53-0.555l0.414,0.503c-0.584-0.528-0.954-0.958-0.579-0.473
				c0.168-0.032,1.731,1.837,1.889,1.815l0.266,0.337c-0.084-0.089-0.098-0.104-0.181-0.192c0.507,0.664,0.497,0.385,1.193,1.204
				c0.24,0.287,0.398,0.497,0.216,0.317l0.579,0.601c0.159,0.183,0.101,0.155-0.057-0.027l0.842,0.953l-0.009-0.004
				c0.135,0.123,0.43,0.412,0.573,0.554c0.196,0.258-0.117-0.113-0.077-0.039l0.482,0.514c0.156,0.244-0.244-0.182-0.559-0.553
				c0.322,0.59,0.406,0.422,1.26,1.558l-0.443-0.496c0.217,0.378,0.572,0.756,1.011,1.368c-0.093-0.154-0.863-1.239-0.348-0.673
				c0.129,0.173,0.306,0.395,0.591,0.694c-0.037,0.036,0.232,0.335,0.55,0.726l-0.073,0.015c0.358,0.411,0.357,0.356,0.582,0.586
				c0.378,0.475,0.413,0.608,0.469,0.746c0.597,0.766-0.353-0.576,0.373,0.315c0.482,0.649,0.854,1.079,1.474,1.821
				c0.327,0.462-0.092-0.054,0.016,0.119l0.346,0.367c0.073,0.099,0.036,0.077,0.017,0.066c0.271,0.325,0.076-0.014,0.488,0.508
				c0.043,0.031,0.077,0.069,0.18,0.213c0.094,0.139,0.216,0.319,0.355,0.524c0.181-0.227,0.388-0.486,0.591-0.741
				c0.159-0.203,0.313-0.411,0.434-0.609c0.137-0.15-0.027,0.103,0.031,0.069c0.641-0.929,0.554-0.793,1.066-1.569l0.522-0.594
				c-0.399,0.424,0.013-0.194,0.382-0.732c-0.027,0.027-0.049,0.049-0.074,0.075c0.051-0.064,0.104-0.13,0.156-0.195
				c-0.028,0.041-0.053,0.077-0.082,0.121c0.027-0.027,0.056-0.055,0.084-0.083c0.028-0.049,0.051-0.091,0.077-0.135
				c0.104-0.13,0.212-0.263,0.321-0.398c0.018,0.01-0.048,0.128-0.132,0.267c-0.089,0.089-0.178,0.179-0.265,0.266
				c-0.128,0.226-0.242,0.441-0.178,0.423c0.036-0.057,0.112-0.163,0.198-0.277c-0.033,0.059-0.052,0.099-0.028,0.079
				c0.027-0.023,0.083-0.117,0.176-0.26l0.205-0.138l0.013-0.063l0.89-1.023c0.559-0.795,1.011-1.517,1.985-2.711
				c-0.205,0.327,0.015,0.12,0.05,0.178c-0.321,0.278-0.751,0.926-1.269,1.533c0.271-0.316,0.236-0.226,0.177-0.137l0.869-1.128
				c0.02,0.059,0.225-0.205,0.482-0.475c-0.263,0.145,0.641-0.848,0.995-1.307c0.05-0.004-0.014,0.124-0.482,0.653
				c0.569-0.538,0.564-0.844,1.123-1.372c-0.114,0.13-0.179,0.196-0.211,0.259c0.244-0.322,0.915-1.044,0.784-0.85l-0.113,0.129
				c0.765-0.852,2.338-2.584,2.395-2.765c0.016-0.001-0.024,0.182-0.058,0.245c0.275-0.394,0.548-0.79,0.824-1.185
				c0.142-0.15,0.285-0.301,0.428-0.451c0.116-0.002,0.281-0.034-0.156,0.465c0.196-0.19,0.439-0.424,0.818-0.856
				c-0.137,0.127-0.4,0.258-0.229,0.07c0.544-0.444,0.368-0.318,1.016-0.888c-0.205,0.189-0.077-0.118,0.238-0.427
				c-0.036,0.061,0.109,0.057,0.005,0.18l0.688-0.86c-0.178,0.209,0.035,0.105,0.231-0.045c-0.096,0.064,0.665-0.67,0.872-0.884
				l-0.352,0.308c0.45-0.43,0.64-0.676,0.828-0.92c0.188-0.244,0.379-0.482,0.786-0.944c-0.081,0.126-0.138,0.376,0.295-0.084
				c0.08-0.137,0.248-0.457,0.475-0.861c0.279-0.349,0.552-0.703,0.81-1.067c-0.273,0.518-0.6,1.09-0.868,1.455
				c0.314-0.347,0.122-0.069,0.548-0.626c0.14-0.142-0.063,0.155-0.22,0.361c0.139-0.166,0.275-0.334,0.405-0.507
				c0.163-0.219,0.339-0.429,0.491-0.656c-0.096,0.021,0.642-1.076,0.546-1.062c-0.139,0.261-0.299,0.509-0.454,0.761
				c-0.153,0.253-0.311,0.504-0.482,0.745c-0.098,0.015,0.46-0.931,1.051-1.913c0.177-0.236-0.007,0.251,0.025,0.243
				c0.028-0.071,0.165-0.309,0.293-0.544c0.124-0.239,0.249-0.47,0.282-0.512l-0.203,0.448c0.166-0.276,0.273-0.518,0.391-0.77
				c0.11-0.257,0.225-0.528,0.426-0.86c0.123-0.236,0.403-0.694,0.386-0.751c-0.148,0.221-0.298,0.298-0.383,0.265
				c0.122-0.274,0.241-0.55,0.353-0.83l0.012,0.046l0.061-0.163l-0.027-0.004c0.111-0.284,0.22-0.57,0.32-0.859
				c0.094-0.09-0.117,0.707,0.04,0.413c-0.014-0.022,0.054-0.255,0.076-0.354c0.102-0.261,0.02,0.13,0.2-0.452
				c-0.028-0.116,0.373-1.178,0.032-0.291c0.158-0.572,0.186-0.603,0.371-1.275c-0.063,0.135-0.047-0.193-0.001-0.599
				c0.054-0.246,0.106-0.493,0.152-0.741c0.005-0.013,0.009-0.026,0.013-0.036c0.054-0.298,0.102-0.561,0.147-0.806
				c0.035-0.246,0.067-0.474,0.099-0.7c0.074-0.45,0.097-0.895,0.144-1.459c0.025-0.103,0.055-0.649,0.081-0.415
				c-0.009-0.164-0.029-0.314-0.022-0.663c0.067-0.676-0.003,0.779,0.077,0.265C47.221,23.925,47.229,23.698,47.2,23.415z
				 M27.815,53.74c0.109-0.14,0.237-0.295,0.387-0.46C28.127,53.4,27.984,53.562,27.815,53.74z M14.165,2.879
				c-0.111,0.018-0.273,0.081-0.465,0.172C14.003,2.908,14.37,2.73,14.165,2.879z M18.362,51.268c0.182,0.127,0.27,0.27,0.461,0.528
				C18.696,51.657,18.427,51.392,18.362,51.268z"/>
			<path class="st2" d="M1.7,29.15c0.027,0.139,0.063,0.296,0.095,0.389C1.758,29.393,1.728,29.267,1.7,29.15z"/>
			<path class="st2" d="M42.347,37.985c-0.036,0.043-0.069,0.09-0.106,0.132C42.269,38.086,42.307,38.038,42.347,37.985z"/>
			<path class="st2" d="M27.205,54.628c-0.04,0.036-0.056,0.042-0.072,0.046C27.094,54.737,27.1,54.745,27.205,54.628z"/>
			<path class="st2" d="M8.125,40.242l-0.021-0.021c-0.014-0.009-0.022-0.013-0.028-0.015L8.125,40.242z"/>
			<path class="st2" d="M46.023,31.155c-0.065,0.169-0.114,0.259-0.145,0.319C45.885,31.487,45.928,31.415,46.023,31.155z"/>
			<path class="st2" d="M46.891,20.306l0.067,0.012l-0.074-0.316C46.902,20.186,46.892,20.2,46.891,20.306z"/>
			<path class="st2" d="M47.178,22.109c-0.021-0.069-0.071-0.754-0.054-0.123C47.146,22.052,47.227,22.979,47.178,22.109z"/>
			<path class="st2" d="M41.028,39.382c-0.33,0.364-0.526,0.534-0.315,0.425c0.596-0.558,0.101-0.17,0.622-0.695
				C41.445,38.951,40.911,39.543,41.028,39.382z"/>
			<path class="st2" d="M41.028,39.382c0.049-0.062,0.101-0.127,0.157-0.198C41.094,39.294,41.052,39.347,41.028,39.382z"/>
			<path class="st2" d="M19.638,52.995l0.038,0.02c-0.037-0.073-0.114-0.168-0.267-0.357L19.638,52.995z"/>
			<polygon class="st2" points="15.097,47.608 15.176,47.7 15.071,47.49 			"/>
			<path class="st2" d="M11.022,43.324c0.169,0.172,0.368,0.374,0.538,0.547C11.187,43.499,11.032,43.224,11.022,43.324z"/>
		</g>
		<g id="XMLID_833_">
			<path id="XMLID_840_" class="st5" d="M28.408,32.908c-0.224-0.002-0.45,0.057-0.582,0.027c0.089-0.007,0.243,0.011,0.224-0.018
				c-0.287-0.027-0.466-0.033-0.757,0.001l0.044,0.017c-0.122-0.001-0.133-0.018-0.288-0.019l0.054,0.037
				c-0.132-0.021-0.243-0.03-0.36-0.033c0.002-0.115-0.002-0.222-0.01-0.334c-0.007-0.108-0.018-0.162-0.028-0.245
				c-0.02-0.153-0.038-0.306-0.028-0.464l0.09,0.094c-0.175-0.701,0.01-1.023-0.078-1.895l0.045,0.269
				c-0.207-1.62,0.381-3.895-0.98-4.642c-0.112-0.224,0.333,0.181,0.546,0.375c-0.146-0.107,0.206,0.3,0.193,0.402
				c0.013-0.01,0.237,0.411,0.225,0.419c-0.044,0.029-0.079-0.138-0.161-0.199c0.082,0.291,0.195,0.417,0.219,0.593l0.001-0.011
				c0.058,0.547-0.075,1.037-0.002,1.351l0.041-0.109c-0.038,0.376-0.063,0.887-0.027,1.29c0.041,0.002,0.069,0.315,0.057,0.403
				c0.009-0.243-0.041-0.113-0.048-0.314c0.052,0.582,0.07,1.806,0.004,2.091c0.039,0.123,0.046,0.003,0.059-0.021v-4.515
				c0-1.318-1.106-2.397-2.458-2.397h-0.587c-1.352,0-2.458,1.079-2.458,2.397v0.43c0.031,0.143,0.056,0.38,0.07,0.515
				c-0.037,0.218-0.055,0.317-0.07,0.368v0.51c0.001-0.011,0.002-0.019,0.002-0.033l0.032,0.303l-0.034-0.103v0.281l0.003,0.032
				l-0.003-0.008v0.544c0.009,0.035,0.017,0.065,0.004,0.098c0.015,0.162,0.035,0.289,0.003,0.391
				c-0.002-0.008-0.005-0.019-0.007-0.028v0.852c0.004,0.006,0.007,0.016,0.012,0.02c-0.004,0.016-0.008,0.029-0.012,0.044v1.09
				l-9.727-0.072l0.314-4.54c0.001-0.078,0.002-0.153,0.002-0.22c0.005-0.013,0.01-0.015,0.015-0.022l0.046-0.67
				c0-0.073,0.002-0.152,0.01-0.244c0.003-0.004,0.005-0.003,0.007-0.005l0.066-0.957c0.003-0.209,0.006-0.437,0.015-0.633
				l0.003,0.087c0.006,0.014,0.012,0.019,0.018,0.02l0.055-0.796c0-0.024-0.002-0.045,0-0.074c0.001,0.016,0.002,0.018,0.003,0.029
				l0.026-0.38c-0.016-0.557,0.048-1.263,0.082-1.841c-0.001,0.006,0.019,0.034,0.041,0.065l0.01-0.149l0.158,0
				c0.024-0.024,0.099-0.048,0.372-0.06c0.383,0.013,0.839-0.024,1.15,0.039c-0.11-0.006-0.149,0.006-0.182,0.024l0.512,0.001
				c0.025,0,0.054-0.005,0.078-0.004c-0.005,0.001-0.017,0.003-0.027,0.004l0.901,0.002l-0.004-0.001
				c0.172-0.018,0.394-0.02,0.449-0.057l-0.47-0.004c1.086-0.018,2.377-0.025,3.321,0.004l-0.295,0.052
				c-0.009,0.006-0.012,0.011-0.01,0.014l0.487,0.001c0.111-0.026,0.353-0.061-0.012-0.085c0.155-0.005,0.278-0.039,0.421-0.012
				c0.123,0.046,0.064,0.075-0.084,0.098l0.27,0.001c-0.064-0.035-0.16-0.07,0.012-0.108c0.55,0.049,0.758,0.005,1.246-0.003
				c-0.062,0.02-0.062,0.044-0.029,0.066c-0.27-0.013-0.58,0.05-0.684-0.002c-0.11,0.007-0.172,0.027-0.223,0.048l0.759,0.002
				c-0.015-0.015,0.02-0.03,0.15-0.047c0.035,0.021,0.109,0.039,0.199,0.048l0.202,0c0.049-0.004,0.098-0.01,0.147-0.021
				l-0.321-0.03c0.181-0.019,0.368,0.005,0.542-0.015c-0.079,0.02-0.072,0.044-0.055,0.067l1.823,0.004l-0.091-0.052
				c1.42,0.059,3.072-0.003,4.32-0.031l0.245,0.094l0.034,0c0.152-0.045-0.153-0.072,0.23-0.067
				c-0.015,0.022,0.075,0.053,0.208,0.068l0.221,0.001c0.021-0.03-0.521-0.058-0.005-0.075c0.019,0.026,0.071,0.049,0.096,0.075
				l0.034,0c0.159-0.056,0.58,0.022,0.671-0.063c0.866,0.036,2.024,0.017,2.717-0.013c0.265,0.017,0.216,0.054,0.192,0.084
				l0.624,0.002c0.001-0.002-0.001-0.004,0.002-0.005c0.786-0.099,1.938-0.016,2.918-0.02l-0.034,0.031l0.409,0.001
				c0.028-0.006,0.055-0.012,0.088-0.019c0.029,0.058,0.065,0.224,0.071,0.416l-0.067-0.112c0.073,0.289,0.061,0.846,0.12,1.18
				c-0.02-0.139-0.049-0.227-0.077-0.304l0.06,1.095c0.024,0.174,0.041,0.308,0.02,0.359l0.003,0.05
				c0.008-0.012,0.016-0.037,0.026-0.068c0.064,0.511,0.024,1.224,0.104,1.489l-0.054-0.089c-0.003,0.086,0.004,0.164,0.011,0.242
				l0.004,0.076c0.036,0.292,0.119,0.558,0.111,0.972c0.005,0.244-0.053-0.223-0.049,0.088c0.071,0.556,0.12,1.178,0.143,1.69
				c-0.032-0.079-0.052-0.176-0.069-0.282l0.015,0.268c0-0.002,0-0.007,0-0.009c0.059,0.268,0.036,0.6,0.125,0.645
				c-0.034,0.185-0.06,0.206-0.073,0.309l0.028,0.508c0.043,0.06,0.07-0.131,0.083,0.293c-0.07,0.222,0.052,0.357,0.029,0.622
				c-0.006-0.044-0.012-0.155-0.032-0.155c-0.006,0.667,0.026,0.111,0.007,0.689c0.04,0.014,0.064,0.076,0.079,0.166
				c0.015,0.087,0.025,0.268,0.03,0.423c-0.197-0.006-0.412-0.013-0.585-0.019c-0.148,0-0.262,0.011-0.297,0.052
				c0.093-0.069-0.533-0.017-0.306-0.077c-0.425,0.045-0.871,0.021-1.205,0.038c-0.525-0.161-1.524,0.145-1.62-0.101
				c-0.245,0.01-0.385,0.103-0.741,0.092c0.046-0.024,0.07-0.057-0.085-0.054c-0.355-0.032-0.586,0.089-0.986,0.101
				c-0.332-0.023-0.215-0.125-0.64-0.08l-0.091,0.028c-0.299-0.049,0.011-0.089,0.239-0.11l-0.645-0.005
				c0.063,0.003,0.124,0.004,0.19,0.011c-0.245,0.01-0.025,0.033-0.071,0.057c-0.476,0.131-0.78,0.034-1.451,0.069
				C28.405,32.949,28.583,32.934,28.408,32.908z"/>
			<path id="XMLID_839_" class="st5" d="M36.212,14.713c-0.023-0.014-0.07,0.014-0.097,0.061c-0.005,0.011-0.008,0.023-0.014,0.034
				c0.025,0.019,0.111-0.125,0.069,0.029c-0.026-0.005-0.053,0-0.079-0.005c-0.002,0.005-0.004,0.011-0.006,0.016
				c0.02,0.066-0.1,0.135-0.04,0.201c-0.165,0.208-0.377,0.483-0.52,0.641c-0.071,0.042-0.085,0.004-0.099-0.023
				c-0.048,0.042-0.096,0.079-0.144,0.117c0.001,0.001,0.004,0.002,0.004,0.003c-0.113,0.221-0.487,0.366-0.697,0.472l-0.029-0.02
				c-0.038,0.019-0.065,0.031-0.065,0.031l0.025,0.041c0.055,0.036,0.125,0.062,0.144,0.107l-0.081-0.016
				c0.096,0.048,0.141,0.201,0.276,0.344c-0.052-0.06-0.1-0.093-0.143-0.117l0.071,0.116h-0.185
				c-0.004,0.002-0.008,0.004-0.013,0.005c-0.029,0.01-0.057,0.008-0.083-0.005H34.48c0.009,0.009,0.022,0.018,0.041,0.03
				c-0.173,0.036-0.389-0.043-0.465,0.022l0.027-0.049c-0.026-0.008-0.049-0.005-0.072-0.003h-0.022
				c-0.087,0.02-0.168,0.089-0.29,0.058c-0.072-0.009,0.067-0.041-0.025-0.054c-0.166,0.04-0.351,0.055-0.504,0.05
				c0.026-0.029,0.058-0.042,0.093-0.054h-0.087c0.001,0,0.002,0,0.002,0c-0.08,0.045-0.178,0.003-0.193,0.089
				c-0.055-0.045-0.063-0.071-0.095-0.09h-0.144c-0.019,0.04,0.035,0.077-0.091,0.066c-0.065-0.082-0.107,0.032-0.185-0.005
				c0.013-0.004,0.046-0.004,0.047-0.024c-0.198-0.042-0.033,0.02-0.205-0.03c-0.022,0.181-0.35-0.027-0.385,0.116
				c0.028-0.069-0.158-0.013-0.091-0.074c-0.126,0.048-0.259,0.027-0.358,0.047c-0.156-0.157-0.452,0.157-0.482-0.089
				c-0.073,0.012-0.114,0.106-0.22,0.097c0.014-0.025,0.021-0.058-0.025-0.054c-0.105-0.029-0.174,0.093-0.293,0.109
				c-0.099-0.021-0.064-0.123-0.19-0.075l-0.027,0.028c-0.09-0.047,0.003-0.089,0.071-0.112h-0.192
				c0.019,0.002,0.037,0.003,0.056,0.009c-0.073,0.012-0.007,0.033-0.021,0.057c-0.141,0.134-0.232,0.04-0.431,0.079
				c0.007-0.012,0.06-0.028,0.008-0.054c-0.066,0-0.134,0.061-0.173,0.031c0.027-0.008,0.072,0.009,0.067-0.02
				c-0.085-0.025-0.139-0.03-0.225,0.007l0.013,0.016c-0.033-0.001-0.046-0.017-0.079-0.017l0.012,0.037
				c-0.124-0.095-0.232,0.06-0.351,0.035l0.028-0.09c-0.208,0.175-0.304-0.01-0.563,0.078l0.08-0.045
				c-0.249,0.05-0.522,0.058-0.786,0.059c-0.149,0-0.296,0-0.435,0c-0.097-0.008-0.223,0.019-0.292-0.015
				c-0.013-0.095-0.026-0.188-0.038-0.281c0.048-0.076,0.062-0.027,0.074,0.041c0.006,0.035,0.011,0.078,0.021,0.115
				c0.007,0.039,0.017,0.074,0.075,0.039c-0.12,0.057,0.142,0.017,0.167,0.05c0,0,0.055-0.016,0.11-0.032
				c0.037-0.016,0.074-0.032,0.074-0.032c0.004,0.049-0.045,0.045-0.077,0.094c0.102,0.021,0.145-0.079,0.199-0.088l-0.004-0.001
				c0.166-0.04,0.309,0.08,0.403,0.011l-0.032-0.041c0.112,0.038,0.264,0.063,0.383,0.027c0.001-0.041,0.094-0.069,0.12-0.057
				c-0.072-0.009-0.034,0.041-0.093,0.048c0.173-0.052,0.537-0.07,0.621-0.004c0.036-0.038,0.003-0.046-0.005-0.059h-1.828
				c-0.04-0.826-0.521-1.296-0.785-1.494c-0.01-0.002-0.018-0.001-0.033-0.008c0.003-0.005,0.009-0.005,0.012-0.009
				c-0.023-0.017-0.038-0.027-0.057-0.039c0,0,0,0-0.001,0c0,0,0,0,0,0c-0.054-0.036-0.094-0.059-0.094-0.059h0.132
				c0.042-0.031,0.109-0.056,0.149-0.07c0.066,0.038,0.091,0.055,0.106,0.07h0.15c-0.003,0-0.002-0.002-0.002-0.002l0.087-0.033
				l-0.031,0.034h0.083l0.01-0.004l-0.002,0.004h0.162c0.01-0.009,0.019-0.017,0.029-0.004c0.048-0.015,0.086-0.035,0.116-0.003
				c-0.003,0.002-0.006,0.005-0.008,0.007h0.248c0.003-0.005,0.01-0.005,0.011-0.012c0.005,0.004,0.008,0.008,0.013,0.012h4.563
				c0.023-0.004,0.048-0.009,0.068-0.013c0.004,0.004,0.001,0.008,0.003,0.013h0.238c0.013-0.002,0.022-0.008,0.038-0.007
				c0.001,0.003-0.001,0.004,0,0.007h0.284c0.064-0.011,0.132-0.025,0.192-0.029l-0.026,0.009c-0.004,0.007-0.005,0.014-0.005,0.02
				h0.246c0.005-0.001,0.006-0.005,0.011-0.005c-0.005,0.002-0.005,0.003-0.009,0.005h0.121c0.165-0.052,0.375-0.039,0.533-0.045
				l-0.013,0.045h0.091c0.009-0.024,0.031-0.048,0.112-0.061c0.113,0.012,0.251-0.024,0.34,0.035
				c-0.032-0.004-0.044,0.008-0.054,0.026h0.012c0.049,0.002,0.094-0.003,0.14-0.005c0.007-0.001,0.016-0.006,0.023-0.005
				c-0.001,0.001-0.008,0.003-0.01,0.004c0.093-0.005,0.182-0.018,0.267-0.039l-0.001-0.001c0.047-0.024,0.106-0.053,0.107-0.094
				c0.001,0.005-0.126,0.041-0.128,0.036c0.3-0.085,0.587-0.317,0.78-0.509l-0.019,0.099c0.003,0.008,0.008,0.007,0.012,0.008
				c0.033-0.035,0.063-0.07,0.093-0.106c0.001-0.042,0.017-0.117-0.069-0.05c0.024-0.038,0.02-0.085,0.066-0.101
				c0.06-0.001,0.071,0.033,0.06,0.082c0.017-0.022,0.033-0.045,0.049-0.068c-0.039-0.005-0.083-0.003-0.086-0.067
				c0.134-0.112,0.111-0.148,0.21-0.36c0.001,0.044,0.019,0.063,0.038,0.073c-0.058,0.086-0.055,0.197-0.112,0.194
				c-0.011,0.031-0.004,0.056,0.005,0.08c0.042-0.064,0.082-0.127,0.117-0.191c-0.013-0.007-0.019-0.028-0.009-0.083
				c0.021,0.005,0.041,0.006,0.058-0.008c0.009-0.018,0.019-0.036,0.028-0.054c0.005-0.019,0.009-0.041,0.011-0.073
				c0.001-0.003-0.062,0.054-0.063,0.058c0.02-0.085,0.061-0.11,0.079-0.223c-0.004,0.072,0.004,0.117,0.014,0.154
				c0.111-0.236,0.172-0.431,0.193-0.503l0.009-0.112c0.139,0.321,0.281,0.894,0.187,1.301c0,0-0.09,0.039-0.109,0.045
				c-0.001,0.003-0.002,0.005-0.003,0.008C36.201,14.68,36.26,14.606,36.212,14.713z"/>
			<path id="XMLID_838_" class="st5" d="M34.541,18.069c0.049-0.006,0.045,0.052,0.094,0.082c0.021-0.108-0.079-0.158-0.088-0.216
				l-0.001,0.004c-0.02-0.091,0-0.176,0.017-0.251c0.016-0.089,0.029-0.204-0.006-0.248l-0.041,0.069
				c0.012-0.051,0.022-0.112,0.03-0.177c-0.103-0.017-0.271-0.022-0.37,0.003c-0.001,0.041-0.103,0.069-0.132,0.057
				c0.079,0.009,0.037-0.041,0.103-0.048c-0.19,0.052-0.59,0.07-0.683,0.004c-0.04,0.038-0.003,0.046,0.005,0.059h1.002v3.154
				h-0.145c-0.047,0.031-0.12,0.056-0.164,0.071c-0.072-0.038-0.1-0.055-0.116-0.071h-0.165c0.003,0,0.002,0.002,0.006,0.002
				l-0.093,0.033c0,0,0.012-0.016,0.029-0.034H33.73l-0.009,0.004l0.002-0.004h-0.158v0.02c0.009,0.02,0.017,0.035,0.004,0.036
				c0.015,0.066,0.035,0.106,0.003,0.127c-0.001-0.003-0.005-0.01-0.007-0.013v0.274c0.005,0.003,0.005,0.011,0.012,0.012
				c-0.003,0.006-0.008,0.005-0.012,0.01v0.291h-1.94v-0.737h-2.038v0.016c0.005,0.029,0.009,0.057,0.013,0.082
				c-0.004,0.001-0.008-0.005-0.013-0.005v0.224c0.005,0.024,0.008,0.049,0.007,0.079c-0.003,0.002-0.005-0.001-0.007,0v0.316
				c0.003,0.022,0.006,0.04,0.009,0.065c-0.044,0.009-0.096,0.017-0.147,0.02l0.026-0.009c-0.002-0.008-0.009-0.013-0.014-0.02
				h-0.263c-0.005,0.001-0.007,0.005-0.013,0.005c0.005-0.002,0.006-0.003,0.009-0.005h-0.133c-0.181,0.052-0.411,0.039-0.585,0.045
				l0.013-0.045h-0.1c-0.009,0.024-0.033,0.048-0.122,0.061c-0.125-0.012-0.274,0.026-0.376-0.036
				c0.036,0.005,0.049-0.007,0.059-0.024h-0.167c-0.008,0-0.018,0.005-0.026,0.004c0.002-0.001,0.009-0.003,0.012-0.004h-0.297
				c0,0.001,0,0.001,0,0.002c-0.021,0.004-0.039,0.008-0.057,0.012c-0.01-0.037-0.019-0.078-0.047-0.077l-0.002,0.126l0.063,0.001
				c-0.022,0.001-0.044,0.002-0.067,0.003c-0.005-0.144-0.01-0.295-0.015-0.444c-0.003-0.147-0.003-0.199,0-0.296
				c-0.068-0.002-0.129-0.007-0.197-0.014c0,0,0.085-0.052,0.092-0.052c0.006-0.008,0.003-0.01,0.002-0.014h-0.155
				c-0.036,0.026-0.114,0.062,0.006,0.085c-0.051,0.006-0.091,0.04-0.138,0.013c-0.036-0.046-0.017-0.075,0.031-0.098h-0.09
				c0.021,0.035,0.051,0.07-0.005,0.108c-0.18-0.047-0.248-0.004-0.407,0.005c0.02-0.02,0.02-0.044,0.009-0.066
				c0.088,0.012,0.189-0.051,0.223,0.001c0.036-0.008,0.055-0.028,0.071-0.049h-0.246c0.005,0.015-0.007,0.03-0.049,0.047
				c-0.011-0.021-0.036-0.039-0.065-0.047h-0.066c-0.016,0.004-0.032,0.01-0.048,0.021l0.105,0.029
				c-0.059,0.019-0.12-0.004-0.177,0.017c0.026-0.02,0.023-0.044,0.017-0.067h-0.595l0.03,0.052
				c-0.185-0.023-0.385-0.025-0.621-0.018c-0.005-0.157-0.015-0.335-0.027-0.464c-0.006-0.079-0.011-0.157-0.017-0.232
				c-0.003-0.044-0.005-0.088-0.008-0.131l-0.002-0.033l0.028-0.008l0.058-0.015c0.008-0.002,0.13,0.054,0.148,0.066
				c0.003-0.001,0.006-0.001,0.009-0.002c0.033-0.052-0.083-0.057,0.061-0.08c-0.001,0.022,0.035,0.048,0.082,0.053
				c0.023-0.006,0.047-0.011,0.07-0.018c-0.004-0.028-0.175-0.015-0.022-0.071c0.013,0.023,0.035,0.04,0.05,0.061
				c0.005-0.002,0.01-0.004,0.015-0.005c0.035-0.066,0.182-0.043,0.177-0.131c0.27-0.072,0.563-0.32,0.685-0.502
				c0.067-0.055,0.085-0.018,0.103,0.008c0.045-0.052,0.09-0.104,0.129-0.158c-0.001-0.001-0.004-0.001-0.005-0.002
				c0.067-0.261,0.304-0.546,0.395-0.857l0.026,0.02c0.014-0.043,0.025-0.083,0.036-0.124c-0.017-0.046-0.049-0.088-0.025-0.168
				l0.051,0.051c-0.032-0.112,0.044-0.254,0.021-0.418c0.004,0.065,0.023,0.104,0.043,0.137c0.02-0.122,0.025-0.197,0.025-0.197
				h0.159c0.049-0.014,0.088-0.017,0.108,0h0.025c-0.004-0.009-0.011-0.018-0.021-0.03c0.168-0.036,0.399,0.043,0.487-0.022
				l-0.03,0.049c0.029,0.008,0.055,0.006,0.081,0.003h0.023c0.096-0.02,0.184-0.089,0.319-0.058c0.08,0.009-0.073,0.041,0.028,0.054
				c0.183-0.04,0.386-0.055,0.554-0.05c-0.028,0.029-0.064,0.042-0.102,0.054h0.096l-0.003,0c0.089-0.044,0.196-0.003,0.213-0.089
				c0.06,0.045,0.07,0.071,0.104,0.09h0.161c0.02-0.04-0.041-0.077,0.097-0.066c0.071,0.082,0.117-0.032,0.203,0.005
				c-0.014,0.004-0.051,0.004-0.051,0.024c0.217,0.042,0.037-0.02,0.225,0.03c0.025-0.181,0.385,0.027,0.424-0.116
				c-0.03,0.069,0.174,0.013,0.1,0.074c0.139-0.048,0.284-0.027,0.393-0.047c0.172,0.157,0.497-0.157,0.53,0.089
				c0.08-0.012,0.125-0.106,0.242-0.097c-0.015,0.025-0.023,0.058,0.028,0.054c0.116,0.029,0.191-0.093,0.322-0.109
				c0.108,0.021,0.071,0.123,0.209,0.075l0.03-0.028c0.099,0.047-0.004,0.089-0.079,0.112h0.211c-0.02-0.002-0.04-0.003-0.062-0.009
				c0.08-0.012,0.008-0.033,0.023-0.057c0.155-0.134,0.255-0.039,0.474-0.079c-0.008,0.012-0.066,0.028-0.009,0.054
				c0.073,0,0.147-0.061,0.19-0.032c-0.029,0.008-0.08-0.009-0.073,0.02c0.094,0.025,0.153,0.03,0.247-0.007l-0.014-0.016
				c0.036,0.001,0.051,0.017,0.087,0.017l-0.013-0.037c0.136,0.095,0.255-0.06,0.385-0.035l-0.031,0.09
				c0.229-0.175,0.334,0.01,0.619-0.078l-0.088,0.045c0.083-0.014,0.134-0.024,0.248-0.032c0.136-0.006,0.266-0.012,0.396-0.018
				c0.003,0.167,0.006,0.331,0.008,0.494c0,0.106,0,0.211,0,0.314c-0.001,0.205,0,0.401,0.014,0.572
				c-0.111,0.078-0.036-0.131-0.114-0.227c0.057,0.059,0.017-0.124,0.05-0.152L34.541,18.069z"/>
			<path id="XMLID_837_" class="st5" d="M24.434,19.398l-0.005-0.001c0.027,0.008,0.051,0.015,0.067,0.014
				c-0.024,0.174-0.186-0.026-0.277,0.079c-0.03-0.017-0.01-0.093-0.053-0.075c-0.033,0.074-0.076,0.014-0.115,0.004
				c0.013-0.011,0.028-0.023,0.035-0.029c0.002-0.01-0.006-0.019-0.017-0.028c-0.02-0.004-0.039-0.006-0.058-0.01
				c-0.073,0.062-0.187,0.11-0.225-0.003l-0.085,0.069c-0.028-0.068-0.094-0.074-0.124-0.119l-0.017,0.046
				c0.002-0.063-0.048-0.024-0.082-0.013c0.001-0.018,0.01-0.036,0.011-0.054c-0.055-0.038-0.149,0.009-0.169-0.036
				c0.079-0.033,0.004-0.018,0.089-0.051c-0.06,0.016-0.035-0.08-0.1-0.039c-0.055-0.019-0.011-0.071-0.011-0.106
				c-0.034,0.078-0.097,0.034-0.128,0.057c-0.002-0.089-0.124-0.016-0.168-0.075c0.016,0.004,0.03,0.017,0.043,0.001
				c0.001-0.051-0.037-0.009-0.055-0.028c0.004,0.001,0.007-0.004,0.015-0.009l-0.019-0.022c0.009,0.004,0.02,0.004,0.025,0.005
				c0.028-0.03,0.005-0.062-0.027-0.07c-0.039,0.029-0.065-0.073-0.129-0.029c0.041-0.052-0.053-0.103,0.014-0.145
				c-0.035-0.038-0.102-0.012-0.153-0.024c-0.008-0.053-0.023-0.06,0.01-0.112c-0.023-0.01-0.035-0.036-0.069-0.014l0.018,0.049
				c-0.086-0.054,0.005-0.149-0.118-0.178c0.032-0.002,0.007-0.037,0.04-0.038l-0.053-0.024c0.055-0.028,0.075-0.003,0.142-0.035
				c-0.024-0.011-0.021-0.024-0.014-0.037c-0.006-0.011-0.012-0.022-0.018-0.033c-0.025,0.016-0.067-0.011-0.107-0.004l0.064-0.029
				c-0.055-0.035-0.13-0.049-0.185-0.11c0.025-0.014,0.086-0.101,0.125-0.102c0.002,0.001,0.002,0.003,0.004,0.004
				c-0.01-0.031-0.02-0.062-0.029-0.093c-0.027,0.004-0.051,0.008-0.043,0.038c-0.015-0.022-0.03-0.056,0.001-0.084
				c0,0-0.15-0.091-0.147-0.094c0.076,0.008,0.008-0.063,0.073-0.066c-0.025-0.031,0.021-0.058-0.05-0.064
				c0.056-0.042,0.045,0.057,0.094,0.019c0.043-0.068-0.141-0.096-0.006-0.121c-0.118-0.075-0.065,0.153-0.133,0.043l0.043-0.05
				c-0.034-0.083-0.013-0.199-0.06-0.303l0.036,0.014c0.055-0.046,0.012-0.115,0.008-0.156l0.072,0.014
				c0.023-0.037-0.069-0.107,0.017-0.102c-0.011,0.018,0.003,0.031,0.005,0.039c0.066-0.053,0.004-0.081,0.068-0.149
				c0.002-0.009,0.006-0.018,0.008-0.027c-0.056-0.011-0.118-0.005-0.144-0.008c0.074-0.068,0.065-0.035,0.142-0.083
				c-0.048-0.012-0.043-0.028-0.055-0.051c0.082-0.101-0.006-0.089,0.043-0.173c-0.01-0.016-0.028-0.008-0.036-0.008
				c0.061-0.016-0.005-0.074,0.068-0.055c-0.017,0.016-0.015,0.04,0.013,0.056c0.035-0.015,0.013-0.063,0.029-0.095
				c-0.027-0.019-0.078,0.038-0.082-0.037c0.004-0.121,0.205-0.008,0.161-0.157c0.039,0.008,0.103-0.027,0.139-0.009
				c0.021-0.031,0.048-0.057,0.071-0.086c-0.019-0.032-0.046-0.063-0.022-0.08c0.014,0.02,0.035,0.029,0.057,0.038
				c0.008-0.009,0.015-0.018,0.023-0.028c-0.011-0.066,0.051-0.161,0.043-0.238c0.047,0.034,0.07-0.026,0.102,0.03
				c-0.012,0.012-0.032,0.022-0.01,0.047c0.043,0.009,0.066-0.058,0.04-0.095c-0.081,0.002,0.026-0.069-0.057-0.059
				c0.023-0.017,0.075-0.014,0.075-0.04c0.015,0.007,0.065,0.055,0.076,0.092c0.003-0.003,0.007-0.006,0.01-0.008
				c0.006-0.024,0.011-0.065,0.044-0.055c-0.002-0.074-0.102-0.052-0.092-0.11c0.048-0.004,0.026,0.059,0.068,0.044l-0.049-0.119
				c0.126-0.009,0.042-0.113,0.164-0.101c-0.008,0.075-0.034,0.049-0.074,0.092c0.031,0.018,0.054,0.032,0.053,0.078
				c-0.016-0.028-0.027-0.007-0.048,0l0.081,0.057c0.06-0.039,0.125-0.07,0.19-0.103c-0.002-0.016-0.007-0.037-0.006-0.059
				c-0.027,0.03-0.039,0.087-0.069,0.096c-0.002-0.021,0.06-0.063,0.041-0.117c0.014,0.011,0.014,0.011,0.018,0.023
				c0.019-0.016,0.034-0.024,0.021-0.055l-0.041,0c0.011-0.097,0.1-0.01,0.078-0.089l0.005,0.017
				c0.074-0.002,0.078-0.063,0.146-0.081c0.062,0.106,0.088,0.026,0.158,0.07c-0.057-0.016-0.004-0.089-0.022-0.135
				c-0.041,0.018-0.031,0.086-0.083,0.069c0.01-0.014,0.025-0.047-0.004-0.052c0.091-0.089,0.155,0.017,0.237,0.015l-0.016-0.046
				l0.049,0.064c-0.028-0.069,0.019-0.054,0.047-0.075l-0.009,0.016c0.041-0.001,0.078-0.034,0.081-0.06
				c0.053,0.001-0.01,0.044,0.024,0.05l0.041-0.045c0.035,0.041-0.02,0.015,0.015,0.056c0.03-0.045,0.062-0.024,0.117-0.064
				c-0.001,0.033-0.008,0.071,0.014,0.077c-0.053,0.007-0.016,0.056-0.017,0.089c-0.024-0.001-0.061,0.014-0.099,0.03
				c0.057-0.005,0.112-0.017,0.171-0.017c-0.006-0.04,0.035-0.064-0.012-0.09c0.023-0.029,0.073-0.015,0.079-0.061
				c-0.04,0.005-0.058-0.013-0.063-0.047c0.027,0.006,0.124,0.007,0.082,0.088c0.039-0.033,0.095-0.08,0.135-0.114
				c0.008,0.023,0.041,0.033,0.054,0.05c-0.035,0.023-0.132,0.01-0.102,0.083c0.076-0.015,0.123,0.057,0.19,0.052l-0.008-0.054
				c0.04,0.048,0.094-0.071,0.155-0.033c-0.009,0.032-0.028,0.095,0.007,0.101c0.014-0.014,0.02-0.063,0.051-0.036
				c-0.012-0.026-0.013-0.045-0.013-0.062c0.044,0.058,0.098,0.125,0.133,0.201c0.028-0.035,0.07-0.035,0.055-0.095
				c0.052,0.015,0.024,0.067,0.067,0.083l0.023-0.032c0.026,0.024,0.034,0.023,0.043,0.057c0.037-0.114,0.142,0.026,0.15-0.028
				c0.023,0.116,0.147,0.183,0.242,0.21l-0.047,0.033c0.162,0.067,0.403,0.144,0.463,0.256c-0.044,0.042-0.023-0.034-0.074-0.02
				c-0.024,0.039,0.051,0.077,0.001,0.109c-0.036-0.063-0.079,0.06-0.102-0.008c0.071-0.091-0.061-0.086,0.014-0.151
				c-0.024-0.006-0.071,0.058-0.077,0.074c-0.03-0.067-0.153-0.065-0.145-0.16c0.015,0.009,0.03,0.012,0.034,0.03
				c0.043-0.039-0.022-0.039-0.006-0.08l-0.085,0.047c-0.181-0.195-0.434-0.27-0.655-0.36c-0.078,0.002-0.128,0.009-0.19-0.022
				l0.008,0.006l-0.014-0.007c-0.058-0.04-0.163-0.028-0.233-0.003c0.814,0.063,1.485,0.61,1.731,1.358
				c0.031-0.04,0.084-0.084,0.123-0.077l0.047,0.047c-0.051,0.004-0.103,0.064-0.087,0.113c-0.069,0.009,0-0.094-0.083-0.08
				c0.013,0.04,0.027,0.08,0.038,0.121c0.032,0.014,0.133,0.024,0.153,0.082l-0.046,0.055c-0.048-0.024,0.019-0.033-0.004-0.067
				c0.009-0.039-0.062-0.044-0.083-0.017c-0.002,0.001-0.002,0.002-0.003,0.002c0.001,0.002,0.001,0.004,0.002,0.006
				c0.003,0.004,0.007,0.008,0.009,0.011c-0.003-0.001-0.004-0.002-0.006-0.002c0.006,0.027,0.009,0.054,0.013,0.081l0.043,0.008
				l-0.027,0.009l-0.016-0.016c0.003,0.015,0.002,0.03,0.004,0.044l0.069,0.02c-0.007,0.005-0.061-0.026-0.06,0.011l-0.006-0.006
				c0.004,0.028,0.006,0.056,0.008,0.084c0.033-0.025,0.042-0.012,0.142-0.047l0.026,0.061L26.51,17.23
				c-0.017,0.065,0.063,0.039,0.021,0.101c-0.056-0.016-0.053-0.055-0.095-0.067c-0.016,0.036,0.041,0.068,0.048,0.092
				c-0.023,0.004-0.044-0.006-0.064-0.02c0.001,0.023,0.007,0.045,0.007,0.069c0,0.68-0.341,1.278-0.861,1.638
				c0.006,0.004,0.01,0.01,0.008,0.029c-0.008-0.003-0.016-0.01-0.024-0.016c-0.042,0.029-0.09,0.048-0.134,0.074
				c0.017,0.003,0.039,0.001,0.053,0.011c-0.011,0.021-0.02,0.055-0.038,0.051l0.004-0.007c-0.111-0.081-0.069,0.086-0.191,0.039
				c-0.036,0.016-0.074,0.028-0.111,0.042c-0.023,0.022-0.051,0.035-0.088,0.027c-0.019,0.006-0.038,0.012-0.057,0.018
				c-0.009,0.012-0.019,0.023-0.026,0.029l-0.003-0.02c-0.005,0.001-0.009,0.003-0.014,0.004c-0.027,0.049-0.077,0.086-0.12,0.11
				c-0.109-0.137-0.178,0.131-0.305,0.026l0.002-0.07C24.491,19.39,24.464,19.398,24.434,19.398z"/>
			<path id="XMLID_836_" class="st5" d="M23.135,20.735c-0.079-0.05-0.131,0.036-0.159-0.038c0.044,0.009,0.087-0.003,0.095-0.036
				c-0.058-0.025-0.131,0.016-0.204,0.015c-0.008,0.033,0.137,0.054,0.006,0.09c-0.212,0.048-0.214-0.179-0.434-0.064
				c-0.025-0.038-0.164-0.072-0.177-0.112h-0.246c-0.026,0.033-0.045,0.068-0.099,0.06c0.014-0.02,0.004-0.04-0.008-0.06h-0.092
				c-0.105,0.047-0.324,0.064-0.305,0.123c-0.012-0.011-0.024-0.019-0.036-0.024c-0.025,0.001-0.016,0.065-0.066,0.013
				c-0.001-0.034,0.005-0.065-0.028-0.102c-0.003,0.002-0.003,0.009-0.004,0.013v0.109c0.01,0.043,0.028,0.082,0.048,0.085
				c0.053-0.074,0.033,0.094,0.082,0.015c-0.002,0.015-0.041,0.099-0.019,0.134c-0.014,0.014-0.073,0.028-0.111,0.004v0.048
				c0.016,0.041,0.034,0.091,0.011,0.128c0.06,0.129,0.103-0.121,0.143,0.007c-0.026,0.118-0.063-0.052-0.076,0.064
				c0-0.008,0.125,0.145,0.125,0.152c-0.014,0.072-0.019,0.124-0.019,0.17c-0.168,0.001-0.179,0.075-0.456,0.015
				c0.14-0.06,0.173-0.024,0.351-0.04c-0.079-0.032-0.119-0.055-0.081-0.094c0.016,0.025,0.047,0.023,0.089,0.024
				c0.001-0.011,0.002-0.023,0.002-0.037c-0.012,0.002-0.024,0.003-0.037,0.003l-0.098-0.054h-0.297
				c-0.037,0.015-0.169,0.027-0.183,0.081c-0.016-0.016-0.016-0.016-0.011-0.028c-0.051,0.006-0.087,0.007-0.09,0.04l0.074,0.018
				c-0.105,0.083-0.193-0.034-0.219,0.046l0.004-0.018c-0.141-0.029-0.194,0.031-0.333,0.023c-0.049-0.121-0.152-0.056-0.267-0.114
				c0.105,0.029-0.042,0.088-0.029,0.136c0.087-0.007,0.108-0.077,0.199-0.044c-0.028,0.01-0.076,0.036-0.023,0.051
				c-0.219,0.061-0.283-0.056-0.453-0.075l0.013,0.049l-0.073-0.071c0.03,0.072-0.058,0.05-0.12,0.067l0.023-0.015
				c-0.057-0.005-0.239,0.022-0.26,0.047c-0.169-0.009,0.07-0.042-0.031-0.053l-0.174,0.04c-0.06-0.043,0.077-0.014,0.021-0.057
				l-0.014,0.004c-0.038-0.066-0.018-0.171-0.054-0.34c0.033,0.004,0.071,0.02,0.077-0.041c0.004,0.15,0.055,0.037,0.088,0.04
				c-0.003,0.042,0.006,0.099,0.016,0.153v-0.312c-0.04,0.012-0.063-0.074-0.091,0.025c-0.026-0.046-0.017-0.156-0.063-0.155
				c0.007,0.07-0.01,0.114-0.045,0.122c0.003-0.022,0.003-0.097,0.013-0.122c0.01-0.012,0.03-0.036,0.071-0.024
				c-0.03-0.037-0.071-0.047-0.106-0.021l-0.02,0.016c0.018-0.024,0.006-0.028,0.004-0.043c0.017-0.016,0.045-0.021,0.076-0.033
				c0.01,0.006,0.026,0.012,0.06-0.037l-0.003-0.02c-0.087,0.006-0.118-0.042-0.266-0.03l0.035,0.052
				c-0.1-0.042-0.159,0.083-0.292,0.063c0.003-0.033,0.011-0.099-0.061-0.097c-0.02,0.017-0.007,0.066-0.082,0.048
				c0.038,0.022,0.048,0.041,0.057,0.057c-0.111-0.046-0.256-0.096-0.38-0.153c-0.032,0.042-0.11,0.057-0.04,0.108
				c-0.108,0.004-0.093-0.054-0.188-0.055l-0.018,0.038c-0.067-0.01-0.081-0.006-0.128-0.033c0.028,0.118-0.28,0.038-0.245,0.091
				c-0.051-0.024-0.076-0.041-0.102-0.053c-0.031-0.012-0.071-0.018-0.108-0.02c-0.003,0.066,0.007,0.112,0.025,0.185l-0.055-0.037
				c0.02,0.182,0.046,0.411,0.07,0.63c-0.172,0.018-0.336,0.034-0.472,0.048c-0.096,0.011-0.182,0.016-0.251,0.007
				c-0.007-0.061,0.08,0.006,0.127-0.041c-0.027-0.044-0.183-0.014-0.168-0.072c0.147,0.016,0.011-0.099,0.153-0.071
				c0.046,0.114,0.209,0.013,0.222,0.112c0.063-0.014,0.01-0.091-0.006-0.107c0.085,0.014,0.183-0.001,0.263-0.008
				c-0.008-0.096-0.008-0.167,0.03-0.229c0.001,0.043,0.01,0.084-0.001,0.114c0.058,0.051,0.014-0.104,0.058-0.132
				c0-0.011-0.089-0.097-0.089-0.093c0.011-0.152,0.016-0.267,0.018-0.383c0.186-0.001,0.37-0.003,0.552-0.004
				c0.195-0.002,0.388-0.003,0.578,0.005c0.156-0.021,0.261-0.042,0.402-0.025l-0.02-0.004l0.036,0.005
				c0.13,0.027,0.281,0.007,0.445-0.017c0.001,0.005,0.002,0.009,0.003,0.014v-0.017h-2.038v0.737h-1.94v-0.286
				c-0.043,0.054-0.102,0.128-0.134,0.08c0-0.015-0.029-0.148-0.029-0.141c0.05,0.026,0.117-0.069,0.113-0.167
				c0.065,0.009-0.009,0.164,0.049,0.201v-0.271c-0.026-0.031-0.085-0.044-0.113-0.06c-0.017,0.006-0.032,0.011-0.045,0.012
				c0.005,0-0.021-0.054-0.027-0.054c0.076-0.043,0.032,0.023,0.096,0.007c0.003,0.001,0.008,0.003,0.008,0.003
				c-0.006,0.046,0.054,0.038,0.079-0.022c0.001-0.001,0.001-0.002,0.002-0.003v-0.022c-0.001-0.005-0.003-0.011-0.004-0.015
				c0.002,0,0.003,0.002,0.004,0.002v-0.02h-0.157l-0.041,0.039l-0.001-0.028l0.034-0.01h-0.091c-0.028,0.027-0.06,0.06-0.06,0.06
				c-0.008-0.008,0.064-0.051-0.001-0.06h-0.165c0.029,0.027,0.011,0.044,0.058,0.137l-0.128,0.021l0.007-0.066
				c-0.133-0.02-0.088,0.061-0.209,0.016c0.038-0.055,0.118-0.05,0.15-0.092c-0.075-0.018-0.149,0.038-0.199,0.044
				c-0.008-0.021,0.013-0.041,0.041-0.06h-0.145v-3.154h1.002c-0.004-0.006-0.003-0.014,0.022-0.027
				c0.011,0.007,0.019,0.017,0.027,0.027h0.306c-0.026-0.009-0.053-0.017-0.064-0.03c0.044-0.012,0.095-0.036,0.124-0.024
				l-0.014,0.004c0.126,0.125,0.21-0.038,0.396,0.049h0.302c0.034-0.004,0.069-0.004,0.104,0h0.211
				c0.018-0.006,0.036-0.011,0.047-0.014l-0.003,0.014h0.045c0.083-0.036,0.194-0.057,0.287-0.074
				c0.186,0.153,0.402-0.1,0.639,0.008l-0.01,0.066h0.202c-0.06-0.008-0.113-0.016-0.149-0.016c0.054-0.168,0.399,0.023,0.576-0.087
				c0.065,0.013,0.042,0.09,0.129,0.067c0.048-0.078,0.152-0.025,0.237-0.021c-0.023,0.013-0.049,0.027-0.063,0.034
				c0,0.009,0.017,0.017,0.04,0.023h0.137c0.127-0.078,0.317-0.148,0.463-0.056l0.118-0.094c0.101,0.054,0.232,0.038,0.326,0.064
				l-0.006-0.049c0.05,0.058,0.109,0.001,0.16-0.024c0.014,0.016,0.014,0.037,0.028,0.053c0.138,0.013,0.256-0.08,0.335-0.051
				c-0.103,0.07,0.014,0.017-0.104,0.09c0.089-0.045,0.152,0.05,0.219-0.019c0.117-0.012,0.1,0.054,0.143,0.083
				c-0.034-0.082,0.125-0.086,0.148-0.122c0.115,0.071,0.219-0.06,0.357-0.047c-0.03,0.008-0.066,0.008-0.067,0.028
				c0.067,0.038,0.068-0.018,0.12-0.016c-0.007,0.002-0.005,0.008-0.01,0.017l0.058,0.003c-0.018,0.003-0.035,0.011-0.044,0.013
				c-0.001,0.041,0.079,0.05,0.138,0.034c0.012-0.045,0.195,0.005,0.279-0.072c0.007,0.043,0.138,0.039,0.197,0.061
				c-0.004,0.055-0.013,0.095-0.041,0.107c0.006,0.067,0.031,0.101,0.058,0.142c0.028,0.046,0.062,0.078,0.084,0.108
				c-0.009,0.093,0.008,0.118-0.038,0.179c0.02,0.039,0.031,0.095,0.071,0.085l-0.011-0.098c0.08,0.157-0.017,0.26,0.125,0.39
				c-0.036-0.016-0.005,0.061-0.041,0.044L22,18.329c-0.055,0.022-0.089-0.028-0.157-0.014c0.003,0.008,0.007,0.016,0.01,0.024
				c0.008,0.014,0.016,0.027,0.016,0.038c0.011,0.028,0.024,0.055,0.036,0.083c0.026-0.006,0.082,0.062,0.126,0.061l-0.064,0.03
				c0.085,0.088,0.177,0.136,0.286,0.236c-0.02,0.019-0.024,0.162-0.061,0.176c0.039,0.054,0.084,0.106,0.129,0.158
				c0.022-0.011,0.038-0.022,0-0.069c0.042,0.036,0.09,0.088,0.096,0.14c0,0,0.26,0.088,0.263,0.077
				c-0.081,0.032,0.083,0.081,0.032,0.126c0.068,0.024,0.075,0.092,0.136,0.048c0.026,0.091-0.124-0.041-0.102,0.038
				c0.087,0.126,0.262,0.001,0.221,0.137c0.198-0.02-0.221-0.206,0.008-0.149l0.058,0.082c0.077,0.033,0.175,0.051,0.271,0.085
				c0.103,0.039,0.177,0.03,0.366,0.042l-0.053,0.027c0.028,0.019,0.059,0.032,0.094,0.042c0.032,0.012,0.089,0.003,0.076,0.053
				c0.009,0.066,0.021,0.15,0.028,0.199l-0.074,0.001c-0.017,0.103,0.085,0.202-0.001,0.226c0.008-0.042-0.007-0.063-0.011-0.081
				c-0.032,0.078-0.024,0.119-0.018,0.17c0.004,0.036,0,0.092-0.015,0.152v0.081c0.055,0.039,0.111,0.024,0.137,0.027
				c-0.016,0.068-0.028,0.098-0.037,0.113c-0.086-0.022-0.1-0.035-0.235-0.079c0.03,0.049-0.013,0.049-0.057,0.069
				c-0.292-0.042-0.179,0.036-0.383,0.019C23.1,20.715,23.128,20.727,23.135,20.735z"/>
			<path id="XMLID_835_" class="st5" d="M14.184,16.351l-0.038,0.037c-0.005-0.025,0.022-0.041,0.042-0.063
				c0.001-0.018-0.026-0.058-0.102-0.038c0.03-0.016-0.008-0.033,0.02-0.05c0.011,0.006-0.089-0.009-0.089-0.009
				c0.031-0.051,0.086-0.031,0.128-0.086c-0.007-0.004-0.016-0.009-0.023-0.013c-0.013-0.005-0.025-0.01-0.031-0.018
				c-0.024-0.014-0.046-0.026-0.071-0.042c-0.018,0.02-0.097,0-0.133,0.021l0.039-0.059c-0.109-0.029-0.211-0.024-0.349-0.083
				c0.011-0.026-0.025-0.158,0.008-0.182c-0.048-0.038-0.095-0.077-0.143-0.119c-0.019,0.014-0.033,0.028,0.007,0.066
				c-0.043-0.027-0.099-0.07-0.102-0.123c0,0-0.065-0.019-0.129-0.038c-0.063-0.024-0.127-0.047-0.127-0.047
				c0.083-0.018-0.067-0.098-0.007-0.13c-0.062-0.037-0.043-0.103-0.116-0.082c0.009-0.091,0.103,0.076,0.108-0.006
				c-0.031-0.131-0.234-0.101-0.136-0.197c-0.185-0.077,0.102,0.278-0.077,0.124c0,0-0.015-0.099-0.013-0.1
				c-0.115-0.127-0.194-0.342-0.303-0.52l0.04,0.012c0.034-0.115-0.051-0.212-0.068-0.328l0.073,0.015
				c0.013-0.074-0.082-0.255-0.003-0.226c-0.007,0.039,0.008,0.07,0.012,0.088c0.028-0.062,0.018-0.098,0.012-0.154
				c0.002-0.032,0.011-0.078,0.032-0.117c0.003-0.026,0.007-0.052,0.011-0.078c-0.043-0.072-0.084-0.084-0.106-0.11
				c0.082-0.118,0.053-0.045,0.13-0.089c-0.028-0.072-0.016-0.107-0.012-0.179c0.054-0.095,0.063-0.15,0.072-0.214
				c0.005-0.033,0.01-0.067,0.015-0.098c0.005-0.015,0.01-0.001,0.024,0.02c0.002-0.043-0.011-0.081-0.015-0.102
				c0.019,0.068,0.026,0.048,0.031,0.026c0.006-0.02,0.016-0.05,0.031,0.093c-0.021-0.023-0.029,0.012-0.021,0.108
				c0.018,0.089,0.033,0.033,0.052-0.004c0.006,0.012,0.013,0.03,0.021,0.053c0-0.053-0.017-0.151-0.031-0.245
				c-0.01-0.049-0.018-0.089-0.009-0.167c0.005,0.001,0.012,0.011,0.022,0.032c0.074,0.173,0.113,0.465,0.131,0.619
				c0.024,0.178,0.028,0.276,0.122,0.327c-0.003,0.054,0.018,0.161,0.024,0.22c0.003,0.029,0,0.046-0.009,0.057
				c0.037,0.064,0.078,0.128,0.122,0.191c0.041,0.001,0.079-0.006,0.1,0.039c-0.024,0.002-0.034,0.021-0.044,0.042
				c0.017,0.022,0.035,0.044,0.053,0.066c0.096,0.042,0.242,0.181,0.342,0.183c-0.023,0.054,0.078,0.097,0.019,0.13
				c-0.027-0.019-0.054-0.049-0.078-0.026c0.001,0.004,0.007,0.008,0.009,0.013c0.026,0.021,0.052,0.042,0.079,0.062
				c0.033,0.012,0.065,0.016,0.08-0.001c-0.064-0.105,0.117,0.033,0.039-0.072c0.04,0.026,0.078,0.092,0.113,0.088
				c0.003,0.018-0.014,0.077-0.05,0.1c0.011,0.006,0.02,0.013,0.031,0.018c0.041,0.003,0.094,0.002,0.117,0.038
				c0.093-0.028-0.045-0.128,0.042-0.138c0.054,0.049-0.047,0.049,0.019,0.089l0.086-0.1c0.154,0.1,0.15-0.025,0.291,0.055
				c-0.078,0.06-0.09,0.021-0.181,0.017c0.019,0.036,0.037,0.064-0.017,0.093c0.01-0.032-0.028-0.026-0.064-0.04l0.043,0.102
				c0.085,0.018,0.175,0.028,0.269,0.03c0.035-0.013,0.153-0.023,0.165-0.077c0.015,0.016,0.015,0.016,0.01,0.028
				c0.046-0.006,0.079-0.007,0.081-0.04l-0.069-0.018c0.094-0.083,0.178,0.034,0.199-0.046l-0.003,0.018
				c0.13,0.029,0.177-0.031,0.304-0.023c0.048,0.121,0.14,0.056,0.247,0.114c-0.097-0.029,0.036-0.088,0.024-0.136
				c-0.079,0.007-0.097,0.077-0.181,0.044c0.026-0.01,0.069-0.036,0.02-0.051c0.199-0.061,0.26,0.056,0.416,0.075l-0.013-0.049
				l0.068,0.071c-0.029-0.072,0.052-0.051,0.108-0.067l-0.021,0.015c0.074,0.005,0.15-0.022,0.161-0.047
				c0.095,0.009-0.028,0.042,0.033,0.053l0.082-0.04c0.058,0.043-0.039,0.014,0.02,0.057c0.061-0.043,0.118-0.021,0.22-0.058
				c-0.003,0.033-0.018,0.071,0.022,0.077c-0.099,0.004-0.034,0.055-0.036,0.088c-0.035-0.003-0.087,0.006-0.143,0.016h0.285
				c-0.011-0.039,0.066-0.063-0.024-0.091c0.043-0.026,0.137-0.017,0.145-0.063c-0.073,0.007-0.107-0.01-0.117-0.045
				c0.048,0.005,0.223,0.001,0.155,0.084c0.073-0.034,0.171-0.085,0.23-0.121c0.019,0.024,0.079,0.028,0.107,0.043
				c-0.057,0.031-0.237,0.021-0.169,0.093c0.138-0.017,0.244,0.04,0.369,0.027l-0.033-0.052c0.092,0.042,0.144-0.084,0.266-0.063
				c-0.003,0.033-0.008,0.099,0.058,0.096c0.018-0.017,0.005-0.066,0.074-0.048c-0.035-0.022-0.045-0.041-0.053-0.057
				c0.102,0.046,0.235,0.096,0.35,0.153c0.028-0.042,0.1-0.057,0.035-0.108c0.099-0.004,0.086,0.054,0.172,0.055l0.016-0.038
				c0.061,0.01,0.074,0.006,0.117,0.033c-0.027-0.118,0.255-0.038,0.223-0.091c0.136,0.089,0.409,0.087,0.578,0.048l-0.034,0.055
				c0.33-0.033,0.729-0.154,0.945-0.126c0.007,0.061-0.074-0.006-0.115,0.041c0.025,0.044,0.168,0.014,0.154,0.072
				c-0.135-0.016-0.009,0.099-0.139,0.071c-0.039-0.114-0.201-0.013-0.192-0.112c-0.039,0.014-0.017,0.091-0.002,0.107
				c-0.129-0.028-0.307,0.056-0.415-0.022c0.033-0.001,0.059-0.01,0.087,0.001c0.014-0.058-0.081-0.013-0.106-0.058l-0.07,0.089
				c-0.504-0.043-0.991,0.004-1.46-0.02c-0.142,0.021-0.238,0.042-0.367,0.025c-0.116-0.034-0.3-0.007-0.437,0.019h4.584
				c-0.051-0.043-0.089-0.102-0.055-0.134l0.11-0.028c-0.021,0.05,0.058,0.117,0.158,0.113c-0.018,0.065-0.154-0.009-0.189,0.049
				h0.249c0.044-0.032,0.106-0.117,0.211-0.125l0.085,0.054c-0.062,0.043-0.056-0.023-0.127-0.007
				c-0.068-0.018-0.108,0.049-0.066,0.076c0.001,0.001,0.001,0.001,0.001,0.002h0.021c0.006-0.001,0.012-0.003,0.018-0.004
				c-0.002,0.002-0.004,0.003-0.006,0.004h0.162l0.027-0.039l0.009,0.028l-0.028,0.01h0.084l0.053-0.06
				c0.007,0.008-0.058,0.051,0.001,0.06h0.147c0.001-0.001,0.001-0.002,0.002-0.002c-0.023-0.026-0.009-0.045-0.051-0.135
				l0.117-0.021l-0.006,0.066c0.006,0.001,0.008-0.001,0.013,0c0.048-0.055,0.103-0.105,0.187-0.137
				c-0.044,0.043-0.062,0.081-0.06,0.109c0.013,0,0.028,0.002,0.052,0.012c-0.008,0.013-0.022,0.017-0.034,0.025
				c0.01,0.008,0.023,0.014,0.039,0.016c-0.021,0.024-0.048,0.033-0.076,0.043c0.044-0.012,0.085-0.031,0.116-0.035
				c0.007,0.021-0.012,0.041-0.038,0.06h0.132c0,0-0.015,0.01-0.026,0.016l0.026,0.007l-0.079,0.028
				c-0.229,0.153-0.923,0.684-1.004,1.558h-1.79c0.004,0.006,0.002,0.014-0.02,0.027c-0.01-0.007-0.018-0.017-0.024-0.027h-0.28
				c0.023,0.009,0.048,0.017,0.059,0.03c-0.04,0.012-0.087,0.036-0.113,0.024l0.013-0.004c-0.115-0.125-0.192,0.038-0.361-0.049
				h-0.276c-0.031,0.004-0.062,0.004-0.095,0h-0.193c-0.016,0.006-0.033,0.011-0.043,0.014l0.003-0.014h-0.042
				c-0.076,0.036-0.178,0.057-0.262,0.074c-0.17-0.153-0.367,0.1-0.584-0.008l0.009-0.066h-0.184
				c0.055,0.008,0.103,0.016,0.136,0.016c-0.049,0.168-0.365-0.023-0.526,0.087c-0.06-0.013-0.038-0.09-0.118-0.067
				c-0.044,0.078-0.139,0.025-0.217,0.021c0.021-0.013,0.045-0.027,0.057-0.034c0-0.009-0.016-0.017-0.036-0.023h-0.126
				c-0.116,0.078-0.29,0.148-0.423,0.056l-0.108,0.094c-0.092-0.054-0.212-0.038-0.298-0.064l0.006,0.049
				c-0.046-0.058-0.1-0.001-0.147,0.024c-0.013-0.016-0.013-0.037-0.026-0.053c-0.126-0.013-0.234,0.08-0.306,0.051
				c0.094-0.07-0.013-0.017,0.095-0.09c-0.081,0.045-0.139-0.05-0.2,0.019c-0.107,0.012-0.091-0.054-0.131-0.083
				c0.031,0.082-0.115,0.086-0.135,0.122c-0.105-0.071-0.2,0.06-0.327,0.047c0.027-0.008,0.06-0.008,0.061-0.028
				c-0.061-0.038-0.062,0.018-0.109,0.016c0.006-0.002,0.004-0.008,0.009-0.017l-0.069-0.003c0.025-0.003,0.052-0.011,0.056-0.013
				c0.005-0.041-0.091-0.05-0.167-0.034c-0.046,0.045-0.243-0.005-0.366,0.072c0.034-0.046-0.112-0.042-0.142-0.063
				c0.035-0.04,0.066-0.065,0.099-0.076c0.068-0.11,0.003-0.145,0.057-0.294c0.035-0.045,0.043-0.049,0.047-0.05l0.02-0.012
				c0.014-0.007,0.032-0.012,0.071-0.021C14.214,16.371,14.237,16.342,14.184,16.351z"/>
			<path id="XMLID_834_" class="st5" d="M18.568,14.454l0.061-0.017c0.2-0.143,0.805-0.694,0.274-1.83c0,0-0.6-1.069-0.069-1.619
				c0,0-0.034,0.451,0.427,0.852c0.004-0.004,0.014-0.005,0.037,0.001c0.005,0.013,0.006,0.025,0.006,0.038
				c0.084,0.068,0.18,0.134,0.297,0.195c-0.021-0.022-0.046-0.045-0.05-0.063c0.024,0.006,0.055,0.014,0.078,0.02l0.006,0.004
				c0.018,0.004,0.039,0.014,0.05,0.025l-0.016-0.003c0.077,0.176,0.23,0.06,0.404,0.205c0.094,0.028,0.209,0.057,0.339,0.087
				c0.041,0.005,0.083,0.014,0.124,0.029c0.07,0.015,0.15,0.03,0.231,0.045c0.022-0.002,0.043-0.003,0.057-0.003l-0.006,0.013
				c0.016,0.003,0.033,0.006,0.05,0.009c0.101-0.02,0.232-0.02,0.34-0.019c0.192,0.181,0.471-0.036,0.73,0.098l-0.018,0.064
				c0.075,0.008,0.151,0.016,0.231,0.023c-0.068-0.013-0.127-0.027-0.168-0.033c0.077-0.158,0.457,0.065,0.669-0.029
				c0.074,0.018,0.042,0.093,0.144,0.076c0.061-0.074,0.177-0.014,0.275-0.004c-0.028,0.011-0.058,0.023-0.074,0.029
				c-0.001,0.009,0.019,0.018,0.044,0.026c0.054,0.003,0.102,0.007,0.158,0.01c0.151-0.071,0.373-0.132,0.538-0.033l0.139-0.088
				c0.114,0.057,0.266,0.045,0.373,0.073l-0.006-0.049c0.056,0.059,0.126,0.004,0.185-0.019c0.016,0.017,0.015,0.037,0.031,0.054
				c0.16,0.019,0.292-0.078,0.384-0.05c-0.118,0.071,0.017,0.017-0.118,0.091c0.102-0.045,0.176,0.048,0.252-0.022
				c0.134-0.014,0.117,0.052,0.167,0.079c-0.042-0.081,0.143-0.089,0.168-0.126c0.135,0.067,0.25-0.067,0.41-0.06
				c-0.034,0.009-0.076,0.011-0.076,0.031c0.079,0.035,0.077-0.021,0.137-0.021c-0.008,0.002-0.005,0.008-0.011,0.017l0.067,0.001
				c-0.021,0.004-0.04,0.013-0.05,0.015c0.001,0.041,0.094,0.047,0.16,0.027c0.015-0.046,0.234-0.006,0.257-0.085
				c0.027,0.065,0.26,0.015,0.238,0.094c0.126-0.007,0.173-0.083,0.263-0.122c0.109,0.017,0.143,0.007,0.204,0.06
				c0.049-0.016,0.116-0.017,0.114-0.057l-0.117-0.004c0.206-0.054,0.296,0.058,0.49-0.049c-0.03,0.032,0.069,0.018,0.037,0.05
				l0.105-0.048c0.006,0.06-0.064,0.078-0.069,0.147c0.01-0.001,0.02-0.002,0.03-0.003c0.018-0.004,0.036-0.008,0.048-0.006
				c0.035-0.004,0.069-0.008,0.104-0.012c0.003-0.027,0.098-0.064,0.116-0.103l0.007,0.07c0.131-0.047,0.221-0.13,0.388-0.186
				c0.012,0.028,0.158,0.084,0.152,0.124c0.081-0.015,0.158-0.03,0.233-0.046c0.002-0.025-0.001-0.044-0.071-0.031
				c0.06-0.021,0.142-0.044,0.196-0.021c0,0,0.252-0.189,0.245-0.196c-0.023,0.087,0.132-0.03,0.14,0.037
				c0.07-0.043,0.13-0.027,0.125-0.103c0.098,0.015-0.106,0.102-0.022,0.116c0.08-0.015,0.126-0.076,0.155-0.117l0.003-0.002
				c0.03-0.044,0.051-0.075,0.104-0.029c0.055-0.125-0.068-0.046-0.134-0.022l-0.008,0.005c-0.045,0.015-0.069,0.019-0.02-0.027
				l0.011-0.007c0.002-0.004,0.01-0.012,0.017-0.019l0.108-0.022c0.055-0.059,0.083-0.08,0.175-0.183
				c0.04-0.043,0.078-0.101,0.115-0.182c0.017-0.01,0.041-0.148,0.062-0.238c0.026-0.128,0.052-0.258,0.078-0.389l0.054,0.068
				c0.018,0.021,0.024,0.008,0.037,0.014c0.027,0.012,0.042-0.008,0.057-0.031l-0.03,0.116c0.006,0.084,0.023,0.035,0.032-0.024
				l0.007-0.048c0.004-0.008,0.012,0.02,0.018,0.028c0.012,0.026,0.023,0.05,0.032,0.068l-0.04,0.127
				c0.012,0.128,0.109,0.109,0.052,0.268c-0.003-0.065-0.019-0.066-0.024-0.081c-0.005,0.145,0.004,0.175,0.016,0.23
				c0.007,0.035,0.009,0.102-0.001,0.189c0.001,0.032,0.002,0.066,0.002,0.1c0.055-0.033,0.107-0.129,0.131-0.162
				c-0.019,0.164-0.034,0.199-0.049,0.235c-0.015,0.033-0.03,0.065-0.065,0.142c0.049-0.005,0.048,0.038,0.064,0.083
				c-0.075,0.296,0.013,0.208-0.055,0.435c0.008,0.03,0.03,0,0.04-0.006c-0.072,0.079-0.008,0.162-0.089,0.173
				c0.024-0.047,0.027-0.1-0.002-0.118c-0.042,0.057-0.031,0.154-0.056,0.231c0.028,0.02,0.099-0.13,0.088,0.021
				c-0.005,0.209-0.234,0.194-0.12,0.438c-0.041,0.024-0.049,0.176-0.083,0.205c0.018,0.089,0.047,0.181,0.089,0.275
				c0.041,0.013,0.079,0.017,0.099,0.073c-0.023-0.001-0.036,0.015-0.047,0.034c0.019,0.035,0.043,0.071,0.067,0.106
				c0.01,0.008,0.015,0.008,0.028,0.019c0.08,0.074,0.227,0.206,0.386,0.331c0.053,0.049-0.016,0.049-0.026,0.069
				c-0.134-0.057-0.266-0.028-0.305-0.091c0.045-0.001,0.115,0.005,0.064-0.028c-0.009-0.003-0.016-0.002-0.025-0.004h-0.13
				c-0.031,0.01-0.049,0.028-0.044,0.048c0.241,0.053-0.185,0.033,0.08,0.082c-0.108-0.002-0.243-0.041-0.293-0.019
				c-0.028-0.014-0.042-0.073-0.017-0.111h-0.055c-0.047,0.016-0.105,0.034-0.145,0.011c-0.102,0.06,0.122,0.103,0.018,0.143
				c-0.096-0.026,0.034-0.063-0.068-0.076l-0.069,0.125c-0.252-0.066-0.218,0.072-0.438-0.004c0.102-0.06,0.124-0.024,0.256-0.04
				c-0.037-0.032-0.066-0.055-0.004-0.094c-0.004,0.033,0.045,0.019,0.096,0.026l-0.085-0.091h-0.344
				c-0.043,0.015-0.195,0.027-0.211,0.081c-0.019-0.016-0.019-0.016-0.012-0.028c-0.059,0.006-0.1,0.007-0.104,0.04l0.086,0.018
				c-0.121,0.083-0.224-0.034-0.254,0.046l0.005-0.018c-0.163-0.029-0.224,0.031-0.385,0.023c-0.057-0.121-0.176-0.056-0.309-0.114
				c0.122,0.029-0.049,0.088-0.034,0.136c0.1-0.007,0.125-0.077,0.23-0.044c-0.032,0.01-0.088,0.036-0.027,0.051
				c-0.254,0.061-0.328-0.056-0.523-0.075l0.015,0.049l-0.084-0.071c0.035,0.072-0.067,0.051-0.138,0.067l0.027-0.015
				c-0.094-0.005-0.191,0.022-0.204,0.047c-0.12-0.009,0.036-0.042-0.04-0.053l-0.105,0.04c-0.073-0.043,0.049-0.014-0.024-0.057
				c-0.079,0.043-0.149,0.021-0.28,0.058c0.005-0.033,0.025-0.071-0.026-0.077c0.126-0.004,0.044-0.055,0.048-0.088
				c0.045,0.003,0.112-0.006,0.185-0.016h-0.364c0.013,0.04-0.086,0.063,0.028,0.091c-0.056,0.026-0.174,0.017-0.185,0.063
				c0.092-0.007,0.135,0.01,0.146,0.045c-0.06-0.005-0.282-0.001-0.194-0.084c-0.093,0.034-0.218,0.085-0.293,0.121
				c-0.024-0.024-0.099-0.028-0.135-0.043c0.072-0.031,0.3-0.021,0.216-0.093c-0.175,0.017-0.308-0.04-0.467-0.027l0.041,0.052
				c-0.115-0.042-0.184,0.084-0.338,0.063c0.004-0.033,0.012-0.099-0.071-0.096c-0.023,0.017-0.008,0.066-0.095,0.048
				c0.044,0.022,0.056,0.041,0.066,0.057c-0.128-0.046-0.296-0.096-0.44-0.153c-0.036,0.042-0.128,0.057-0.046,0.108
				c-0.125,0.004-0.108-0.054-0.217-0.055l-0.021,0.038c-0.077-0.01-0.093-0.006-0.147-0.033c0.032,0.118-0.323,0.038-0.283,0.091
				c-0.171-0.089-0.516-0.087-0.73-0.048l0.044-0.055c-0.418,0.033-0.924,0.154-1.197,0.126c-0.008-0.061,0.093,0.006,0.146-0.041
				c-0.031-0.044-0.212-0.014-0.194-0.072c0.17,0.016,0.013-0.099,0.176-0.071c0.048,0.114,0.254,0.013,0.241,0.112
				c0.049-0.014,0.022-0.091,0.004-0.107c0.163,0.028,0.389-0.056,0.525,0.022c-0.042,0.001-0.075,0.01-0.11-0.001
				c-0.018,0.058,0.103,0.014,0.133,0.058l0.09-0.089c0.637,0.043,1.254-0.004,1.846,0.02c0.18-0.021,0.301-0.042,0.465-0.025
				c0.145,0.034,0.379,0.007,0.553-0.019h-5.8c0.064,0.043,0.111,0.102,0.069,0.134l-0.14,0.028c0.027-0.05-0.073-0.117-0.199-0.113
				c0.023-0.065,0.194,0.009,0.239-0.049h-0.315c-0.055,0.032-0.134,0.117-0.268,0.125l-0.108-0.054
				c0.078-0.043,0.07,0.023,0.161,0.007c0.087,0.018,0.137-0.049,0.083-0.076c-0.001-0.001-0.001-0.001-0.002-0.002h-0.026
				c-0.007,0.001-0.015,0.003-0.022,0.004c0.003-0.002,0.005-0.003,0.007-0.004h-0.205l-0.034,0.039l-0.011-0.028l0.036-0.01H19.32
				l-0.068,0.06c-0.009-0.008,0.074-0.051-0.001-0.06h-0.186c0.035,0.027,0.008,0.043,0.063,0.137l-0.148,0.021l0.008-0.066
				c-0.061-0.008-0.087,0.001-0.108,0.01c-0.049,0.048-0.107,0.093-0.184,0.129c0.055-0.048,0.078-0.086,0.087-0.117
				c-0.012-0.002-0.02-0.001-0.037-0.007c0.01-0.013,0.027-0.016,0.041-0.023c-0.005-0.025-0.026-0.039-0.061-0.035
				c0,0,0.001-0.001,0.001-0.001c-0.012,0.004-0.028,0.01-0.038,0.011c-0.009-0.021,0.015-0.041,0.048-0.06h-0.168
				c0,0,0.011-0.007,0.028-0.017L18.568,14.454z"/>
		</g>
	</g>
</g>
<g id="圖層_4" class="st20">
</g>
</svg>
