<?xml version="1.0" encoding="utf-8"?>
<!-- Generator: Adobe Illustrator 22.0.1, SVG Export Plug-In . SVG Version: 6.00 Build 0)  -->
<svg version="1.1" id="圖層_1" xmlns="http://www.w3.org/2000/svg" xmlns:xlink="http://www.w3.org/1999/xlink" x="0px" y="0px"
	 viewBox="0 0 126.1 134" style="enable-background:new 0 0 126.1 134;" xml:space="preserve">
<style type="text/css">
	.st0{fill:#0A418C;}
	.st1{fill:#FFFFFF;}
	.st2{fill:#113272;}
</style>
<g>
	<g>
		<path class="st0" d="M49.6,95.9l-0.3-0.3C49.5,95.8,49.6,95.9,49.6,95.9z"/>
		<path class="st0" d="M51.7,98.3L51.7,98.3C51.7,98.2,51.6,98.2,51.7,98.3z"/>
		<path class="st0" d="M67.3,106.9c0.1-0.1,0.3-0.3,0.6-0.6L67.3,106.9z"/>
		<path class="st0" d="M37.9,83.6l-0.4-0.3C38.1,83.9,37.8,83.6,37.9,83.6z"/>
		<path class="st0" d="M41.3,28.7c0,0,0.1-0.1,0.1-0.1C41.4,28.6,41.4,28.7,41.3,28.7z"/>
		<path class="st0" d="M98.4,64.1C98.4,64.1,98.4,64.1,98.4,64.1C98.4,64,98.4,64,98.4,64.1z"/>
		<path class="st0" d="M27.1,57.6C27.1,57.6,27.1,57.6,27.1,57.6C27.1,57.1,27.1,57.3,27.1,57.6z"/>
		<path class="st0" d="M82.2,89.7C82.2,89.7,82.2,89.7,82.2,89.7C82.2,89.7,82.2,89.7,82.2,89.7L82.2,89.7z"/>
		<path class="st0" d="M81.3,90.8c0.4-0.5,0.6-0.8,0.9-1.1L81.7,90L81.3,90.8z"/>
		<path class="st0" d="M99.2,57.3c0-0.4-0.1-1-0.1-1.4c-0.1,0.2,0.1,1.8,0.1,2.6c0,0-0.1-0.2-0.1-0.5c0-0.2,0-0.3,0-0.5
			c0-2.2-0.2-4.4-0.6-6.5c-0.1-0.3-0.1-0.7-0.2-1.1c-0.1-0.2-0.1-0.5-0.2-0.7c-0.1-0.4-0.2-0.8-0.3-1.2c0,0,0-0.1,0-0.1
			c-0.1-0.3-0.2-0.6-0.2-1c-0.1-0.3-0.2-0.6-0.3-0.8c-0.1-0.1-0.1-0.3-0.2-0.5c-0.9-2.7-2.2-5.3-3.7-7.6c0.1,0.1,0.1,0.1,0,0
			c0,0-0.1-0.1-0.2-0.2c-6.4-9.8-17.4-16.2-30-16.2c-0.8,0-1.6,0-2.4,0.1c-0.3,0-0.6-0.1-0.6-0.1c-0.5,0.1-1.2,0.1-2,0.2
			c-0.8,0.1-1.7,0.1-2.5,0.4c-0.4,0.1,0.3-0.1,0.1-0.1c-0.4,0.2-0.9,0.3-1.9,0.5l0.1,0c-0.7,0.2-1.3,0.3-1.8,0.5
			c-0.5,0.2-1,0.4-1.5,0.5c-0.5,0.2-1,0.3-1.6,0.6c-0.5,0.3-1.2,0.5-1.9,0.9l0.2,0c-0.6,0.3-0.8,0.3-1.1,0.4c-0.3,0.2,0,0.1,0.4-0.1
			c-1.3,0.6-3.5,2.1-4,2.3c-0.8,0.6,0.3-0.1-0.5,0.5l-0.3,0.1l-0.2,0.2c-0.6,0.4-0.9,0.6-0.9,0.5c0.1-0.1,0.4-0.3,0.5-0.4
			c-0.4,0.2-0.9,0.6-1.3,1c-0.4,0.4-0.8,0.7-0.9,0.8l0.8-0.7c-1,1-2.3,2-3.3,3.2c-0.5,0.6-1.1,1.1-1.5,1.8c-0.4,0.6-0.9,1.2-1.3,1.8
			l0.2-0.1c-0.3,0.4-0.5,0.7-0.7,1c-0.2,0.2-0.3,0.4-0.4,0.6c-0.2,0.4-0.5,0.8-1.1,1.8l0-0.1c-0.1,0.2-0.2,0.4-0.4,0.7
			c-0.1,0.3-0.3,0.5-0.4,0.8c0.2-0.5-0.6,1-0.3,0.2c-0.5,1-0.6,1.3-0.6,1.5c0,0.1,0,0.2-0.1,0.3c0,0.1-0.1,0.3-0.2,0.7l-0.2,0.3
			c-0.1,0.5-0.1,0.6-0.5,1.6c0.3-0.9-0.3,0.7,0-0.4c-0.2,0.6-0.5,1-0.6,1.5c-0.1,0.5-0.2,0.9-0.3,1.2c-0.2,0.7-0.3,1.3-0.5,1.8
			c-0.1,1.1,0.6-2,0.5-1.4c0.2-0.5-0.1,0.9-0.3,1.6c-0.1,0.8-0.4,1.3-0.7,3.2c0-0.2,0-0.2,0-0.4c-0.2,0.7-0.1,1.4-0.2,2.3
			c0.1,0.5-0.1,1.2,0.1,1.3l0.1-1.8c0,0.5,0,1,0,1.6c0,0.3,0,0.6,0,0.9c0,0.3,0,0.7,0,1.1c0-0.1-0.1-0.6-0.1-1c0,0.5,0,0.9,0,1.4
			C27,59,27,58.5,27,57.8c0-0.7,0.1-1.4,0-2c-0.1,0.5,0,2.1-0.1,1.5c0.2,0.8,0,1.9,0.2,3.2l-0.1-0.1c0,0.2,0.1,0.6,0.1,1
			c-0.1-0.2-0.1-0.5-0.2-0.7c0.2,1.1,0.1,2.1,0.4,3.1c-0.2-1.1-0.2-1.2-0.1-1.2c0,0,0.1,0.2,0.1-0.2c0.5,2.4,0.1,1.7,0.6,3.8
			c-0.1-0.4-0.1-0.6,0-0.3c0.1,0.6,0.3,1.3,0.3,1.6c0.6,1.9,0-0.3,0.3,0.5c0.1,0.7,0.3,0.9,0.6,1.7l-0.1,0c0.8,2.1,0.3,0.5,1.1,2.4
			l-0.4-0.7l0.4,1L30,72.3c0.2,0.5,0.4,0.8,0.6,1.2c0.2,0.3,0.3,0.7,0.6,1.2c-0.1-0.3,0.2,0.1,0.7,0.9c0.3,0.6-0.3-0.3,0.5,0.9
			c-0.2-0.2-0.5-0.5-0.7-1.1c-0.1,0-0.2-0.3-0.2-0.3c0.3,0.7,0.9,1.6,1.2,2c-0.1-0.2-0.2-0.4-0.3-0.5c0.4,0.6,0.8,1.1,1.2,1.6
			c0.2,0.3,0,0.1-0.2-0.1c0.2,0.3,0.4,0.5,0.8,1c-0.1-0.1-0.2,0-0.7-0.7c0.4,0.5,0.8,1,1.2,1.5c0.1,0.1,0.6,0.8,0.4,0.6
			c0.6,0.9,1.8,1.9,2.8,2.9c0.1,0,0.2,0.1,0.4,0.3c0.9,1,1.7,1.8,2.9,2.9l0.5,0.7c0.9,0.9-0.7-1,0.7,0.5c1,1,0.3,0.5,0.6,0.8
			c0.5,0.5,1.5,1.3,2.3,2.4c-0.3-0.3-0.5-0.6-0.8-0.9l0.6,0.8c-0.9-0.8-1.5-1.5-0.9-0.7c0.3,0,2.7,2.9,3,2.8l0.4,0.5
			c-0.1-0.1-0.2-0.2-0.3-0.3c0.8,1,0.8,0.6,1.9,1.9c0.4,0.5,0.6,0.8,0.3,0.5l0.9,0.9c0.2,0.3,0.2,0.2-0.1,0l1.3,1.5l0,0
			c0.2,0.2,0.7,0.6,0.9,0.9c0.3,0.4-0.2-0.2-0.1-0.1l0.8,0.8c0.2,0.4-0.4-0.3-0.9-0.9c0.5,0.9,0.6,0.7,2,2.4l-0.7-0.8
			c0.3,0.6,0.9,1.2,1.6,2.1c-0.1-0.2-1.4-1.9-0.5-1.1c0.2,0.3,0.5,0.6,0.9,1.1c-0.1,0.1,0.4,0.5,0.9,1.1l-0.1,0
			c0.6,0.6,0.6,0.6,0.9,0.9c0.6,0.7,0.6,1,0.7,1.2c0.9,1.2-0.6-0.9,0.6,0.5c0.8,1,1.3,1.7,2.3,2.9c0.5,0.7-0.1-0.1,0,0.2l0.5,0.6
			c0.1,0.2,0.1,0.1,0,0.1c0.4,0.5,0.1,0,0.8,0.8c0.1,0,0.1,0.1,0.3,0.3c0.1,0.2,0.3,0.5,0.6,0.8c0.3-0.4,0.6-0.8,0.9-1.2
			c0.2-0.3,0.5-0.6,0.7-1c0.2-0.2,0,0.2,0,0.1c1-1.5,0.9-1.2,1.7-2.5l0.8-0.9c-0.6,0.7,0-0.3,0.6-1.1c0,0-0.1,0.1-0.1,0.1
			c0.1-0.1,0.2-0.2,0.2-0.3c0,0.1-0.1,0.1-0.1,0.2c0,0,0.1-0.1,0.1-0.1c0-0.1,0.1-0.1,0.1-0.2c0.2-0.2,0.3-0.4,0.5-0.6
			c0,0-0.1,0.2-0.2,0.4c-0.1,0.1-0.3,0.3-0.4,0.4c-0.2,0.4-0.4,0.7-0.3,0.7c0.1-0.1,0.2-0.3,0.3-0.4C68,106,68,106,68,106
			c0,0,0.1-0.2,0.3-0.4l0.3-0.2l0-0.1l1.4-1.6c0.9-1.2,1.6-2.4,3.1-4.2c-0.3,0.5,0,0.2,0.1,0.3c-0.5,0.4-1.2,1.5-2,2.4
			c0.4-0.5,0.4-0.4,0.3-0.2l1.4-1.8c0,0.1,0.4-0.3,0.8-0.7c-0.4,0.2,1-1.3,1.6-2c0.1,0,0,0.2-0.8,1c0.9-0.8,0.9-1.3,1.8-2.1
			c-0.2,0.2-0.3,0.3-0.3,0.4c0.4-0.5,1.4-1.6,1.2-1.3l-0.2,0.2c1.2-1.3,3.7-4,3.7-4.3c0,0,0,0.3-0.1,0.4c0.4-0.6,0.9-1.2,1.3-1.9
			c0.2-0.2,0.4-0.5,0.7-0.7c0.2,0,0.4-0.1-0.2,0.7c0.3-0.3,0.7-0.7,1.3-1.3c-0.2,0.2-0.6,0.4-0.4,0.1c0.9-0.7,0.6-0.5,1.6-1.4
			c-0.3,0.3-0.1-0.2,0.4-0.7c-0.1,0.1,0.2,0.1,0,0.3l1.1-1.3c-0.3,0.3,0.1,0.2,0.4-0.1c-0.2,0.1,1-1,1.4-1.4l-0.6,0.5
			c0.7-0.7,1-1.1,1.3-1.4c0.3-0.4,0.6-0.8,1.2-1.5c-0.1,0.2-0.2,0.6,0.5-0.1c0.1-0.2,0.4-0.7,0.7-1.3c0.4-0.5,0.9-1.1,1.3-1.7
			C92,79.1,91.5,80,91,80.6c0.5-0.5,0.2-0.1,0.9-1c0.2-0.2-0.1,0.2-0.3,0.6c0.2-0.3,0.4-0.5,0.6-0.8c0.3-0.3,0.5-0.7,0.8-1
			c-0.1,0,1-1.7,0.9-1.7c-0.2,0.4-0.5,0.8-0.7,1.2c-0.2,0.4-0.5,0.8-0.8,1.2c-0.2,0,0.7-1.5,1.6-3c0.3-0.4,0,0.4,0,0.4
			c0-0.1,0.3-0.5,0.5-0.9c0.2-0.4,0.4-0.7,0.4-0.8l-0.3,0.7c0.3-0.4,0.4-0.8,0.6-1.2c0.2-0.4,0.4-0.8,0.7-1.3
			c0.2-0.4,0.6-1.1,0.6-1.2c-0.2,0.3-0.5,0.5-0.6,0.4c0.2-0.4,0.4-0.9,0.6-1.3l0,0.1l0.1-0.3l0,0c0.2-0.4,0.3-0.9,0.5-1.3
			c0.1-0.1-0.2,1.1,0.1,0.6c0,0,0.1-0.4,0.1-0.6c0.2-0.4,0,0.2,0.3-0.7c0-0.2,0.6-1.8,0-0.5c0.2-0.9,0.3-0.9,0.6-2
			c-0.1,0.2-0.1-0.3,0-0.9c0.1-0.4,0.2-0.8,0.2-1.2c0,0,0,0,0-0.1c0.1-0.5,0.2-0.9,0.2-1.3c0.1-0.4,0.1-0.7,0.2-1.1
			c0.1-0.7,0.2-1.4,0.2-2.3c0-0.2,0.1-1,0.1-0.6c0-0.3,0-0.5,0-1c0.1-1.1,0,1.2,0.1,0.4C99.2,58.1,99.2,57.8,99.2,57.3z M68.8,104.8
			c0.2-0.2,0.4-0.5,0.6-0.7C69.3,104.3,69.1,104.6,68.8,104.8z M47.4,25.2c-0.2,0-0.4,0.1-0.7,0.3C47.2,25.2,47.8,25,47.4,25.2z
			 M54,101c0.3,0.2,0.4,0.4,0.7,0.8C54.5,101.6,54.1,101.2,54,101z"/>
		<path class="st0" d="M27.9,66.3c0,0.2,0.1,0.5,0.1,0.6C28,66.7,28,66.5,27.9,66.3z"/>
		<path class="st0" d="M91.6,80.2c-0.1,0.1-0.1,0.1-0.2,0.2C91.4,80.3,91.5,80.2,91.6,80.2z"/>
		<path class="st0" d="M67.9,106.2c-0.1,0.1-0.1,0.1-0.1,0.1C67.7,106.4,67.7,106.4,67.9,106.2z"/>
		<path class="st0" d="M38,83.7L38,83.7C37.9,83.7,37.9,83.6,38,83.7L38,83.7z"/>
		<path class="st0" d="M97.3,69.5c-0.1,0.3-0.2,0.4-0.2,0.5C97.1,70,97.2,69.9,97.3,69.5z"/>
		<path class="st0" d="M98.7,52.5l0.1,0L98.7,52C98.7,52.3,98.7,52.3,98.7,52.5z"/>
		<path class="st0" d="M99.1,55.3c0-0.1-0.1-1.2-0.1-0.2C99.1,55.2,99.2,56.7,99.1,55.3z"/>
		<path class="st0" d="M89.5,82.4C89,82.9,88.7,83.2,89,83c0.9-0.9,0.2-0.3,1-1.1C90.1,81.7,89.3,82.6,89.5,82.4z"/>
		<path class="st0" d="M89.5,82.4c0.1-0.1,0.2-0.2,0.2-0.3C89.6,82.2,89.5,82.3,89.5,82.4z"/>
		<path class="st0" d="M56,103.7L56,103.7c0-0.1-0.1-0.2-0.4-0.5L56,103.7z"/>
		<polygon class="st0" points="48.9,95.2 49,95.4 48.9,95 		"/>
		<path class="st0" d="M42.5,88.5c0.3,0.3,0.6,0.6,0.8,0.9C42.8,88.8,42.5,88.4,42.5,88.5z"/>
	</g>
	<g id="XMLID_2614_">
		<g id="XMLID_3072_">
			<path id="XMLID_3073_" class="st1" d="M84.2,45.8c0.2,0.1-0.2-0.2-0.1-0.2c-0.2,0.1-0.5-0.6-0.7-0.5c-0.2-0.3,0,0-0.3-0.4
				c0,0,0.1,0,0.1,0.1c-0.1-0.2-0.3-0.1-0.3-0.3c-0.2-0.2-0.1-0.1-0.2-0.1l-0.2-0.2c0-0.1,0-0.1-0.1-0.2c-0.1,0.1-0.2-0.1-0.4-0.2
				c0,0,0,0,0,0l-0.1-0.1c0.1,0,0.1,0.1,0.2,0.1c-0.2-0.2-0.5-0.5-0.8-0.8c-0.1-0.2,0.1,0,0-0.1c-0.2-0.2-0.4-0.3-0.5-0.4l0,0
				c0,0-0.1-0.1-0.1-0.1l0.1,0c-0.2-0.1-0.4-0.5-0.7-0.7c0,0,0,0,0,0.1l0,0c0,0-0.1-0.1-0.2-0.2l-0.5-0.5c0.1,0,0.1,0,0.2,0.1
				c-0.2-0.1-0.4-0.4-0.6-0.5l0.1,0c-0.1-0.1-0.2-0.1-0.3-0.2l-0.2-0.2l0,0c-0.5-0.5-0.9-1.1-1.4-1.4c0,0,0,0,0,0l-0.3-0.3
				c0,0,0.1,0,0-0.2c-0.4-0.3-0.9-0.8-1.3-1.3c-0.1,0-0.2-0.2-0.4-0.3l0,0c0,0,0-0.1,0-0.1c-0.3-0.2,0,0.1-0.1,0.1l-0.1-0.1
				c-0.1-0.1-0.1-0.2-0.1-0.2c-0.2-0.2-0.1,0-0.1,0l0,0l0,0c0,0-0.1,0-0.2,0c-0.3,0.3-0.6,0.7-1,1.1c-0.3,0.4-0.7,0.7-1.1,1l0.1,0
				l-0.9,0.9c0,0-0.1,0,0-0.1c-0.1,0.1-0.2,0.2-0.2,0.3l0.2-0.1c0,0,0,0.1-0.1,0.1l-0.1,0.1c0,0-0.1,0.1-0.1,0.1c0,0.1,0,0.1,0,0.1
				L71,40.2c0,0,0-0.1,0.1-0.1c0.1,0,0.2-0.2,0.3-0.3c0,0-0.1,0,0-0.1c-0.2,0.2-0.3,0.4-0.6,0.6c0,0.1,0,0.1,0.1,0.1l-0.1,0.1
				c0.1-0.1,0.1-0.1,0-0.1c-0.1,0-0.1,0.1-0.2,0.2c0.2-0.2,0.1,0,0.1,0.1l-0.2,0.2c0,0,0,0,0,0l0.1-0.2c-0.5,0.4-1.1,1-1.6,1.6
				l0.2-0.2c0,0.1-0.1,0.2-0.2,0.3l0,0l-0.4,0.4c0,0,0,0,0,0c0,0,0,0,0,0L68.2,43c0,0,0-0.1,0.1-0.1c-0.2,0.1-0.4,0.3-0.6,0.5
				c-0.1,0.1-0.1,0.2-0.1,0.2l-0.1,0.1l0-0.1c-0.2,0.3-0.6,0.6-0.8,0.9l-0.2,0.2c0,0,0,0,0,0c0,0,0,0,0,0L66,45.1c0,0,0,0,0,0l0,0
				c-0.1,0.1-0.2,0.2-0.3,0.3l-0.5,0.5c0,0,0,0,0,0c0,0-0.1,0.1-0.1,0.1L65,46.1l0.2,0.2c0,0,0,0,0,0c0,0,0.1,0.1,0.1,0.1l2,2
				c2.4,0.7,4.4,2.3,5.8,4.4c0,0,0,0,0,0c0,0,0,0,0,0c0.1,0.2,0.2,0.3,0.3,0.5c0,0,0,0,0,0c0,0.1,0.1,0.1,0.1,0.2c0,0,0,0,0,0
				c0,0,0,0,0,0l0,0c0,0,0,0,0,0.1c0.1,0.1,0.1,0.2,0.2,0.3l0,0l0,0c0,0.1,0.1,0.1,0.1,0.2l-0.1,0l0.1,0.2c0,0,0,0,0,0
				c0,0.1,0.1,0.2,0.1,0.3c0,0,0,0.1,0,0.3c0,0.1,0.1,0.2,0.2,0.3c0,0.1,0.1,0.2,0.1,0.3l0.5,0.5l5.5-5.5c0,0,0.1,0,0.1,0
				c-0.2,0.1-0.8,0.7-1,1c0.1-0.1,0-0.1,0.1-0.2c-0.1,0-0.2,0.2-0.1,0.2c-0.2,0.2-0.4,0.4-0.6,0.6l0.1,0c-0.1,0.2-0.4,0.3-0.7,0.6
				l0,0C78,52.7,78,52.8,77.9,53c0-0.1,0.1-0.2,0-0.2l-0.2,0.3c-0.1,0-0.3,0.3-0.3,0.2c-0.1,0.2-0.4,0.4-0.2,0.4
				c0.7-0.7,1.7-1.6,2.4-2.5l-0.1,0.2c0.3-0.5,0.6-0.5,0.8-1l0,0.1c0.2-0.2,0.2-0.5,0.5-0.6l-0.1,0c0.1-0.1,0.1-0.1,0.1-0.1l0,0
				c0.1-0.2,0.2-0.2,0.4-0.4c0,0-0.1,0.1-0.1,0.1c0.1,0,0.1-0.2,0.2-0.3c0.1-0.1,0,0,0,0.1c0.3-0.4,0.5-0.4,0.6-0.8c0,0-0.1,0,0-0.1
				c0,0-0.1,0.1-0.1,0.1l0.3-0.3c-0.1,0.1-0.2,0.3,0,0.2l0-0.1c0.2-0.2,0.2-0.1,0.4-0.2c0.2-0.2,0.2-0.4,0.4-0.6
				c0.1-0.1,0.1,0,0.1,0c0.2-0.2,0.2-0.3,0.3-0.4c0.3,0.2,0.5-0.6,0.8-0.7c0.1-0.1,0.2-0.2,0.3-0.4C84.5,46,84.3,45.9,84.2,45.8z
				 M83.6,45.2c0,0.1,0.1,0.1,0.1,0.2L83.6,45.2C83.5,45.2,83.6,45.2,83.6,45.2z M78.2,39.9L78.2,39.9
				C78.1,39.8,78.1,39.8,78.2,39.9C78.2,39.9,78.2,39.9,78.2,39.9z M77.9,39.6c0.1,0.1,0.1,0.1,0.1,0.2L77.9,39.6
				C77.9,39.6,77.9,39.6,77.9,39.6z M73.5,37.7c0,0,0.1-0.1,0.1-0.1L73.5,37.7C73.5,37.7,73.5,37.7,73.5,37.7z M70,41.1l-0.2,0.2
				C69.9,41.2,70,41.2,70,41.1z M69.5,41.6C69.5,41.6,69.5,41.6,69.5,41.6L69.5,41.6C69.5,41.7,69.5,41.6,69.5,41.6z M80.8,50
				c-0.1,0-0.1,0.1-0.2,0.2c-0.1,0,0.1-0.1,0.1-0.2l-0.1,0.2c-0.1,0.1-0.1,0.1-0.2,0.1l0.4-0.4c0,0,0,0,0,0
				C80.8,49.8,80.8,49.9,80.8,50z M81.6,49.1L81.6,49.1c0,0.2-0.1,0-0.3,0.3c0-0.1,0.1-0.2,0.1-0.3c0,0,0,0,0,0l0.4-0.4
				C81.7,48.8,81.7,49,81.6,49.1z M82.4,48.2L82.4,48.2L82.4,48.2C82.4,48.2,82.4,48.2,82.4,48.2z M84.3,46.4
				c-0.2,0.2-0.4,0.3-0.5,0.5l0,0l0.3-0.3c0.1-0.1,0.2-0.2,0.3-0.3C84.3,46.3,84.4,46.3,84.3,46.4z"/>
		</g>
		<g id="XMLID_2670_">
			<g id="XMLID_3046_">
				<path id="XMLID_3060_" class="st1" d="M83.4,70.9c0,0,0-0.1,0-0.1c0,0,0,0,0,0c0,0,0-0.1,0-0.1c0,0-0.1,0-0.1,0
					c0-0.1-0.1-0.1-0.2-0.2c0,0,0,0,0.1,0c0,0.1,0.2,0.1,0.2,0.2c0,0,0,0,0.1,0c-0.1-0.1-0.1-0.2-0.2-0.2c-0.1,0-0.2-0.1-0.3-0.1
					c-0.1,0.1,0,0.1,0,0.1c0,0,0,0-0.1,0c0,0,0,0,0,0c0,0,0-0.1,0-0.1c-0.1,0-0.1,0-0.1,0.1c0.1,0,0.1,0,0,0.1c-0.1,0-0.1,0-0.2,0.1
					c0,0,0,0,0,0l0.1-0.1c-0.3,0.1-0.8,0.3-1.1,0.4l0.2,0c0,0.1-0.1,0.1-0.1,0.1l0,0c-0.1,0-0.2,0.1-0.3,0.1c0,0,0,0,0,0
					c0,0,0,0,0,0c-0.1,0-0.1,0-0.2,0c0,0,0,0,0.1,0c-0.1,0-0.3,0-0.4,0.1c-0.1,0-0.1,0.1-0.1,0.1c0,0-0.1,0-0.1,0l0-0.1
					c-0.2,0.1-0.4,0.1-0.6,0.2c-0.1,0-0.1,0-0.2,0c0,0,0,0,0,0c0,0,0,0,0,0c-0.1,0-0.2,0-0.3,0c0,0,0,0,0,0l0,0
					c-0.1,0-0.2,0-0.2,0.1c-0.1,0-0.2,0-0.4,0c0,0,0,0,0,0c0,0,0,0-0.1,0c-0.1,0-0.2,0-0.3,0c0,0,0,0,0,0c0,0-0.1,0-0.1,0
					c-1.6,0.1-3.5-0.1-5.6-0.8c0,0,0,0,0,0c0,0,0,0,0,0c-0.1,0-0.2-0.1-0.3-0.1c0,0,0,0,0,0c0-0.1-0.1,0-0.1-0.1c0,0,0,0,0,0
					c0,0,0,0,0,0c0,0,0,0,0,0c0,0,0,0,0,0c-0.1,0-0.1,0-0.2-0.1l0,0l0,0c0,0-0.1,0-0.1,0c0,0,0,0,0,0c0,0,0.1,0,0.1,0
					c0,0-0.1,0-0.1,0c0,0,0,0,0,0c-0.1,0-0.1,0-0.2,0c0,0-0.1,0-0.2,0c0,0.1,0,0.2,0,0.2c0,0.1,0,0.1,0,0.2l1.1,3.2
					c0.1,0.4,0.4,0.8,0.8,1.1c0,0,0,0.1,0,0.1c0-0.1-0.4-0.4-0.5-0.6c0.1,0.1,0.1,0,0.1,0.1c0,0-0.1-0.1-0.1-0.1
					c-0.1-0.1-0.2-0.3-0.2-0.5l0,0.1c-0.1-0.1,0-0.3-0.2-0.5l0,0c0-0.1-0.2-0.1-0.2-0.2c0.1,0,0.1,0.1,0.1,0.1l-0.1-0.1
					c0,0-0.1-0.2,0-0.2c-0.1-0.1-0.1-0.3-0.2-0.2c0.1,0.2,0.2,0.6,0.3,0.9c0.1,0.3,0.3,0.7,0.5,0.9l-0.1-0.1
					c0.3,0.2,0.2,0.5,0.6,0.5l-0.1,0.1c0.1,0.1,0.3,0.1,0.4,0.2l0,0c0,0,0,0,0.1,0.1l0,0c0.1,0,0.2,0,0.3,0.1c0,0-0.1,0-0.1,0
					c0,0.1,0.1,0,0.2,0c0.1,0,0,0,0,0.1c0.3,0,0.3,0.2,0.6,0c0,0-0.1-0.1,0-0.1c0,0-0.1,0-0.1,0c0.1,0,0.2,0,0.2,0.1
					c-0.1,0-0.2,0-0.1,0.1l0,0c0.2,0,0.1,0.1,0.2,0.1c0.2,0,0.3-0.1,0.4-0.1c0.1,0,0,0,0,0.1c0.1,0,0.2-0.1,0.3-0.1
					c0,0.3,0.4,0,0.6,0.2c0.1,0,0.3,0,0.5,0c-0.1,0.1,0.1,0,0.1,0.1c0.1-0.2,0.4,0.1,0.5-0.1c0.2,0.1,0,0,0.3,0.1c0,0,0,0-0.1,0
					c0.1,0.1,0.2-0.1,0.2,0c0.2,0,0.1,0,0.1-0.1c0.1,0,0.1,0,0.2,0c0,0,0,0.1,0.1,0.1c0-0.1,0.1-0.1,0.2-0.1c0,0,0,0,0,0
					c0,0,0.1,0,0.1,0c0,0-0.1,0-0.1,0.1c0.2,0,0.4,0,0.6-0.1c0.1,0-0.1,0.1,0,0.1c0.2,0,0.3-0.1,0.5-0.1l0,0.1
					c0.1-0.1,0.4,0,0.5-0.1c0,0,0,0,0,0c0,0,0,0,0,0c0,0,0.1,0,0.2,0c0.1,0,0.2,0,0.3-0.1c0,0,0,0,0,0c0,0,0,0.1-0.1,0.1
					c0.1-0.1,0.3-0.1,0.4-0.2l0,0.1c0.1,0,0.1-0.1,0.1-0.2c0,0,0.1,0,0.1-0.1l0,0c0.3-0.2,0.7-0.5,0.7-0.8c0,0,0,0,0,0
					c0-0.1,0.1-0.1,0.1-0.2c0,0,0.1,0.1,0.1,0c0.1-0.3,0.2-0.7,0.3-1c-0.1-0.1,0-0.2,0-0.3l0,0c0,0,0.1,0,0.1,0c0-0.2-0.1,0-0.1,0
					l0,0c0-0.1,0.1-0.1,0.1-0.1c0.1-0.1,0,0,0-0.1l0,0l0.1,0c0.1-0.4,0.2-1.1,0.5-1.5l-0.1,0L83.4,70.9C83.4,71,83.5,71,83.4,70.9
					c0,0,0.1-0.1,0-0.1C83.5,70.8,83.5,70.9,83.4,70.9z M82.3,70.8c0,0,0.1,0,0.1,0C82.4,70.7,82.4,70.8,82.3,70.8z M82.1,70.8
					C82.1,70.8,82.1,70.9,82.1,70.8C82.1,70.9,82,70.9,82.1,70.8C82.1,70.9,82.1,70.8,82.1,70.8z M73.7,75.5c0-0.1-0.1,0-0.1-0.1
					c0-0.1,0.1,0,0.1,0l-0.1,0c-0.1,0-0.1-0.1-0.1-0.1c0.1,0.1,0.2,0.1,0.3,0.2c0,0,0,0,0,0C73.8,75.4,73.7,75.4,73.7,75.5z
					 M74,75.5C74,75.5,74,75.5,74,75.5C74,75.5,74,75.5,74,75.5z M74.3,75.7L74.3,75.7c-0.1,0.1,0,0-0.2,0
					C74.2,75.6,74.2,75.6,74.3,75.7C74.3,75.6,74.3,75.6,74.3,75.7C74.3,75.6,74.4,75.6,74.3,75.7c0.1,0,0.2,0,0.3,0
					C74.5,75.7,74.4,75.7,74.3,75.7z M75,75.8L75,75.8C75,75.8,75,75.8,75,75.8C75,75.8,75,75.8,75,75.8z M76.5,76.1
					c-0.2,0-0.2-0.1-0.4-0.1l0-0.1c0.1,0,0.1,0,0.2,0C76.4,76,76.4,76,76.5,76.1C76.5,76.1,76.5,76.1,76.5,76.1z M77.3,76.1
					c0,0-0.1,0-0.1,0C77.2,76.1,77.3,76.1,77.3,76.1C77.3,76.1,77.3,76.1,77.3,76.1z M81.4,75.5C81.4,75.5,81.4,75.5,81.4,75.5
					c0-0.1,0.1-0.1,0.1-0.1c0,0,0,0,0,0C81.5,75.5,81.5,75.4,81.4,75.5z M83,72.2C83,72.3,82.9,72.3,83,72.2L83,72.2
					C83,72.2,83,72.2,83,72.2z"/>
				<path id="XMLID_3047_" class="st1" d="M74.3,70.4C74.3,70.4,74.3,70.4,74.3,70.4c0.5,0.2,1.3,0.4,2.3,0.5c0,0,0,0,0,0.1
					c0-0.1-0.3-0.1-0.4,0c0,0,0-0.1,0.1-0.1c0,0-0.1,0-0.1,0.1c-0.1,0-0.2,0-0.2-0.1l0,0.1c-0.1,0.1-0.1-0.1-0.2-0.1l0,0
					c0,0-0.1,0.1-0.1,0.1c0-0.1,0.1,0,0.1-0.1l-0.1,0.1c0,0-0.1,0-0.1-0.1c-0.1,0.1-0.2,0-0.2,0.1c0.3,0,0.6,0.2,0.9,0.1l-0.1,0
					c0.2-0.1,0.2,0.1,0.4-0.1l0,0.1c0.1,0,0.2-0.1,0.2,0l0,0c0,0,0,0,0,0l0,0c0.1,0,0.1,0,0.1,0c0,0,0,0,0,0c0,0,0.1,0,0.1,0
					c0,0,0,0.1,0,0.1c0.1,0,0.2,0.1,0.3-0.1c0,0,0-0.1,0-0.1c0,0,0,0,0,0c0,0,0.1,0,0.1,0c0,0-0.1,0.1,0,0.1l0,0
					c0.1-0.1,0.1,0.1,0.1,0.1c0.1,0,0.1-0.2,0.2-0.1c0,0,0,0,0,0.1c0.1,0,0.1-0.1,0.1-0.1c0,0.3,0.2-0.1,0.3,0.1
					c0.1,0,0.1,0,0.2-0.1c0,0.1,0.1,0,0.1,0.1c0-0.2,0.2,0.1,0.2-0.2c0.1,0.1,0,0,0.1,0c0,0,0,0,0,0c0.1,0,0.1-0.1,0.1,0
					c0.1,0,0,0,0-0.1c0,0,0.1,0,0.1,0c0,0,0,0.1,0.1,0.1c0-0.1,0.1-0.1,0.1-0.1c0,0,0,0,0,0c0,0,0,0,0.1,0c0,0,0,0,0,0.1
					c0.1,0,0.2,0,0.3-0.1c0.1,0,0,0.1,0,0.1c0.1,0,0.1-0.1,0.2-0.1c0,0,0,0,0,0c0,0,0,0,0,0l0,0.1c0-0.1,0.2,0,0.3-0.1c0,0,0,0,0,0
					l0,0c0,0,0,0,0.1,0c0.1,0,0.1,0,0.2-0.1c0,0,0,0.1,0,0.1c0-0.1,0.2,0,0.2-0.1l0,0.1c0,0,0-0.1,0.1-0.1c0,0,0,0,0.1,0l0,0
					c0.1,0,0.2,0,0.3-0.1c0.1,0,0.2-0.1,0.1-0.2c0,0,0,0,0,0c0,0,0-0.1,0-0.1c0,0,0.1,0,0.1,0c-0.1-0.2-0.2-0.3-0.3-0.5
					c-0.1,0-0.1-0.1-0.1,0c0,0,0,0,0,0c0,0,0,0,0.1-0.1c-0.1-0.1,0,0-0.1,0.1c0,0,0,0,0,0c0,0,0-0.1,0-0.1c0-0.1,0,0-0.1,0
					c0,0,0,0,0,0l0.1-0.1c-0.2-0.2-0.5-0.3-0.6-0.5l0,0.1c-0.1-0.1-0.2-0.1-0.3-0.2c0,0,0-0.1,0-0.1c0,0-0.1,0-0.1,0l0,0.1
					c-0.1,0-0.1,0-0.1-0.1c0,0,0,0,0,0c0,0-0.1,0-0.1,0c0,0,0,0,0.1,0c0,0.1,0.1,0,0.1,0c0,0,0-0.1,0-0.1c-0.1,0-0.1,0-0.2-0.1
					c0,0,0,0.1,0,0.1c0,0,0,0-0.1,0c0,0,0.1,0,0.1-0.1c0,0-0.1,0-0.1,0c0.1,0,0,0.1,0,0.1c0,0-0.1,0-0.1,0c0,0,0,0,0,0l0.1-0.1
					c-0.2-0.1-0.4-0.1-0.6-0.1l0.1,0c0,0-0.1,0-0.1,0.1l0,0c-0.1,0-0.1,0-0.2,0c0,0,0,0,0,0c0,0,0,0,0,0c0,0,0,0,0,0c0,0,0,0-0.1,0
					c0,0,0,0,0,0c-0.1-0.1-0.1,0-0.2,0c0,0-0.1,0-0.1,0.1c0,0,0,0-0.1,0l0-0.1c-0.1,0-0.2,0-0.3,0.1c0,0,0,0-0.1,0c0,0,0,0,0,0
					c0,0,0,0,0,0c0,0-0.1,0-0.1,0c0,0,0,0,0,0l0,0c0,0-0.1,0-0.1,0c-0.1,0-0.1,0-0.2,0c0,0,0,0,0,0c0,0,0,0,0,0c0,0-0.1,0-0.1,0
					c0,0,0,0,0,0c0,0,0,0,0,0c-0.8,0.1-1.8,0.4-2.5,1.1c0,0,0,0,0,0c0,0,0,0,0,0c0,0-0.1,0.1-0.1,0.1c0,0,0,0,0,0c0,0,0,0,0,0.1
					c0,0,0,0,0,0c0,0,0,0,0,0c0,0,0,0,0,0c0,0,0,0,0,0c0,0,0,0-0.1,0.1l0,0l0,0c0,0,0,0,0,0c0,0,0,0,0,0c0,0,0,0,0,0
					c0,0,0,0.1,0,0.1c0,0,0,0,0,0c0,0,0,0.1,0,0.1c0,0,0,0-0.1,0.1C74.2,70.4,74.2,70.4,74.3,70.4z M76.7,71
					C76.7,71,76.7,71.1,76.7,71C76.6,71,76.7,71,76.7,71L76.7,71c-0.1-0.1-0.1-0.1-0.1-0.1c0.1,0,0.1,0,0.2,0c0,0,0,0,0,0
					C76.8,70.9,76.7,71,76.7,71z M77,71L77,71c0,0.2,0,0-0.1,0C77,71,77,71,77,71C77,70.9,77,70.9,77,71c0-0.1,0.1-0.1,0.1-0.1
					C77.1,71,77.1,71,77,71z M77.4,71C77.4,71,77.4,71,77.4,71C77.4,71,77.4,71,77.4,71L77.4,71z M78.1,71c-0.1,0-0.1-0.1-0.2,0
					l0-0.1C77.9,71,78,71,78.1,71C78.1,71,78.1,71,78.1,71C78.1,71,78.1,71,78.1,71z M78.5,71C78.5,71,78.5,70.9,78.5,71
					C78.5,70.9,78.5,70.9,78.5,71C78.5,70.9,78.5,70.9,78.5,71z M80.5,70.5C80.5,70.5,80.5,70.5,80.5,70.5
					C80.5,70.5,80.5,70.5,80.5,70.5C80.5,70.5,80.5,70.5,80.5,70.5z M80.6,70.5C80.6,70.5,80.6,70.5,80.6,70.5
					C80.6,70.5,80.6,70.5,80.6,70.5C80.6,70.5,80.6,70.5,80.6,70.5z M80.7,69.8C80.7,69.8,80.7,69.8,80.7,69.8
					C80.7,69.8,80.7,69.8,80.7,69.8C80.7,69.8,80.7,69.8,80.7,69.8z M80.1,69.2C80.1,69.2,80.1,69.2,80.1,69.2
					C80.1,69.2,80.1,69.2,80.1,69.2C80.1,69.2,80.1,69.2,80.1,69.2z M78.9,68.6C78.9,68.6,78.9,68.6,78.9,68.6
					C78.9,68.6,78.9,68.6,78.9,68.6z M78.7,68.6C78.7,68.6,78.7,68.6,78.7,68.6C78.7,68.6,78.7,68.6,78.7,68.6
					C78.7,68.6,78.7,68.6,78.7,68.6z"/>
			</g>
			<g id="XMLID_3018_">
				<path id="XMLID_3032_" class="st1" d="M73.4,76.9c-0.1,0-0.1-0.1,0-0.2c0,0-0.1,0-0.1,0c-0.1,0-0.1-0.1-0.2,0c0,0,0-0.1,0.1-0.1
					c0,0.1,0.1,0,0.2,0.1c0,0,0,0,0.1,0c-0.1-0.1-0.2-0.1-0.4-0.1c-0.1,0.1,0,0.1,0,0.1c0,0,0,0-0.1,0c0,0,0-0.1,0-0.1
					c-0.1,0-0.1,0.1-0.1,0.1c0.1,0,0.1,0.1,0,0.1c0,0-0.1,0-0.1,0.1c0,0,0,0,0,0l0.1-0.1c-0.3,0.1-0.6,0.2-0.9,0.3l0.1,0
					c0,0-0.1,0.1-0.1,0.1l0,0c-0.1,0-0.2,0-0.2,0.1c0,0,0,0,0,0c0,0,0,0,0,0c0,0-0.1,0-0.1,0c0,0,0,0,0,0c-0.1-0.1-0.2,0-0.3,0
					c-0.1,0-0.1,0.1-0.1,0.1c0,0-0.1,0-0.1,0l0-0.1c-0.1,0-0.3,0.1-0.5,0.1c0,0-0.1,0-0.1,0c0,0,0,0,0,0c0,0,0,0,0,0
					c-0.1,0-0.1,0-0.2,0c0,0,0,0,0,0l0,0c-0.1,0-0.1,0-0.2,0.1c-0.1,0-0.2,0-0.3,0c0,0,0,0,0,0c0,0,0,0,0,0c-0.1,0-0.1,0-0.2,0
					c0,0,0,0,0,0c0,0,0,0-0.1,0c-1.2,0.1-2.7-0.1-4.2-0.6c0,0,0,0,0,0c0,0,0,0,0,0c-0.1,0-0.1-0.1-0.2-0.1c0,0,0,0,0,0
					c0,0-0.1,0-0.1,0c0,0,0,0,0,0c0,0,0,0,0,0c0,0,0,0,0,0c0,0,0,0,0,0c0,0-0.1,0-0.1-0.1l0,0l0,0c0,0,0,0-0.1,0c0,0,0,0,0,0
					c0,0,0,0,0,0c0,0-0.1,0-0.1,0c0,0,0,0,0,0c-0.1,0-0.1,0-0.1,0c0,0-0.1,0-0.2,0c0,0.1,0,0.1,0,0.2c0,0,0,0.1,0,0.1l0.8,2.4
					c0.1,0.3,0.3,0.6,0.6,0.8c0,0,0,0,0,0.1c0-0.1-0.3-0.3-0.4-0.5c0,0,0.1,0,0.1,0c0,0-0.1-0.1-0.1,0c-0.1-0.1-0.1-0.2-0.1-0.4l0,0
					c-0.1-0.1,0-0.2-0.1-0.4l0,0c0,0-0.2,0-0.2-0.1C65,79,65,79,65,79l-0.1-0.1c0,0-0.1-0.2,0-0.1c-0.1,0-0.1-0.2-0.2-0.1
					c0.1,0.2,0.2,0.4,0.2,0.6c0.1,0.2,0.2,0.5,0.4,0.7l-0.1,0c0.2,0.1,0.1,0.4,0.5,0.4l-0.1,0.1c0.1,0.1,0.3,0,0.3,0.2l0,0
					c0,0,0,0,0.1,0.1l0,0c0.1,0,0.1,0,0.2,0.1c0,0,0,0,0,0c0,0,0.1,0,0.1,0c0,0,0,0,0,0.1c0.2,0,0.3,0.1,0.4,0c0,0,0-0.1,0-0.1
					c0,0,0,0-0.1,0c0.1,0,0.1,0,0.2,0c-0.1,0-0.2,0-0.1,0.1l0,0c0.1,0,0.1,0.1,0.2,0.1c0.1,0,0.2-0.1,0.3-0.1c0,0,0,0,0,0.1
					c0.1,0,0.2-0.1,0.2-0.1c0,0.3,0.3,0,0.4,0.2c0.1,0,0.2,0,0.3,0c-0.1,0.1,0.1,0,0.1,0.1c0.1-0.2,0.3,0.1,0.4-0.1
					c0.2,0.1,0,0,0.2,0.1c0,0,0,0,0,0c0.1,0.1,0.1-0.1,0.2,0c0.1,0,0.1,0,0.1-0.1c0,0,0.1,0,0.1,0c0,0,0,0.1,0.1,0.1
					c0-0.1,0.1-0.1,0.2-0.1c0,0,0,0,0,0c0,0,0,0,0.1,0c0,0,0,0,0,0c0,0-0.1,0-0.1,0.1c0.1,0,0.3,0,0.5-0.1c0.1,0,0,0.1,0,0.1
					c0.2,0,0.2-0.2,0.3-0.1l0,0.1c0.1-0.1,0.3-0.1,0.4-0.2c0,0,0,0,0,0c0,0,0,0,0,0c0,0,0.1,0,0.1,0c0.1,0,0.2-0.1,0.3-0.1
					c0,0,0,0.1,0,0.1c0.1-0.1,0.2-0.1,0.3-0.2l0,0.1c0.1,0,0.1-0.1,0.1-0.2c0,0,0.1,0,0.1-0.1l0,0c0.2-0.2,0.5-0.3,0.6-0.6
					c0,0,0,0,0,0c0,0,0.1-0.1,0.1-0.1c0,0,0.1,0.1,0.1,0c0.1-0.2,0.2-0.5,0.4-0.7c-0.1-0.1,0-0.1,0-0.2c0,0,0,0,0,0c0,0,0.1,0,0.1,0
					c0-0.1-0.1,0-0.1,0c0,0,0,0,0,0l0,0c0,0,0.1-0.1,0.1-0.1c0-0.1,0,0-0.1-0.1l0,0l0.1,0c0.1-0.3,0.2-0.8,0.3-1.2l-0.1,0l0.1-0.4
					C73.3,77,73.3,77,73.4,76.9C73.4,76.9,73.4,76.9,73.4,76.9c0,0,0-0.1,0-0.1C73.4,76.8,73.4,76.9,73.4,76.9z M72.5,76.9
					C72.5,76.9,72.5,76.9,72.5,76.9C72.5,76.9,72.5,76.9,72.5,76.9z M72.2,77C72.2,77,72.2,77,72.2,77C72.2,77,72.2,77,72.2,77
					C72.2,77,72.2,77,72.2,77z M65.9,80.4c0-0.1-0.1,0-0.1-0.1c0-0.1,0.1,0,0.1,0l-0.1,0c-0.1,0,0-0.1,0-0.1
					c0.1,0.1,0.1,0.1,0.2,0.1c0,0,0,0,0,0C66,80.4,66,80.4,65.9,80.4z M66.1,80.4C66.2,80.4,66.2,80.4,66.1,80.4
					C66.2,80.4,66.2,80.4,66.1,80.4z M66.4,80.6L66.4,80.6c-0.1,0.1,0,0-0.2,0C66.3,80.5,66.4,80.5,66.4,80.6c0-0.1-0.1-0.1-0.1-0.1
					C66.4,80.5,66.5,80.5,66.4,80.6c0.1,0,0.2,0,0.2,0C66.6,80.6,66.5,80.6,66.4,80.6z M66.9,80.6C66.9,80.6,67,80.6,66.9,80.6
					C67,80.7,66.9,80.7,66.9,80.6L66.9,80.6z M68,80.9c-0.1,0-0.2-0.1-0.3-0.1l0,0c0.1,0,0.1,0,0.2,0C68,80.8,68,80.9,68,80.9
					C68,80.9,68.1,80.9,68,80.9z M68.6,80.9C68.6,80.9,68.6,80.9,68.6,80.9C68.6,80.9,68.6,80.9,68.6,80.9
					C68.7,80.9,68.6,80.9,68.6,80.9z M71.7,80.2C71.7,80.2,71.7,80.2,71.7,80.2C71.7,80.2,71.7,80.2,71.7,80.2
					c0.1-0.1,0.1-0.1,0.1-0.1C71.8,80.3,71.7,80.2,71.7,80.2z M72.6,79.1C72.6,79.1,72.6,79.1,72.6,79.1
					C72.6,79.1,72.6,79.1,72.6,79.1C72.6,79.1,72.6,79.1,72.6,79.1z M73,77.9C73,77.9,73,77.9,73,77.9L73,77.9
					C73,77.9,73,77.9,73,77.9z"/>
				<path id="XMLID_3019_" class="st1" d="M66.4,76.6C66.4,76.6,66.4,76.6,66.4,76.6c0.4,0.1,1,0.3,1.8,0.4c0,0,0,0,0,0.1
					c0-0.1-0.2-0.1-0.3,0c0,0,0-0.1,0.1-0.1c0,0-0.1,0-0.1,0.1c-0.1,0-0.1,0-0.2-0.1l0,0.1c-0.1,0.1-0.1-0.1-0.2,0l0,0
					c0,0-0.1,0.1-0.1,0.1c0-0.1,0,0,0.1-0.1L67.4,77c0,0-0.1,0-0.1-0.1c-0.1,0.1-0.1,0-0.1,0.1c0.2,0,0.5,0.1,0.7,0l0,0
					c0.1-0.1,0.2,0.1,0.3-0.1l0,0.1c0.1,0,0.1-0.1,0.2,0l0,0c0,0,0,0,0,0l0,0c0,0,0.1,0,0.1,0c0,0,0,0,0,0c0,0,0.1,0,0.1,0
					c0,0,0,0.1,0,0.1c0.1,0,0.1,0.1,0.2-0.1c0,0,0-0.1,0-0.1c0,0,0,0,0,0c0,0,0.1,0,0.1,0c0,0-0.1,0.1,0,0.1l0,0
					c0.1-0.1,0,0.1,0.1,0.1c0.1,0,0.1-0.2,0.1-0.1c0,0,0,0,0,0.1c0,0,0.1-0.1,0.1-0.1c0,0.3,0.1-0.1,0.2,0.1c0,0,0.1,0,0.2-0.1
					c0,0.1,0.1,0,0,0.1c0-0.2,0.2,0.1,0.2-0.2c0.1,0.1,0,0,0.1,0c0,0,0,0,0,0c0,0,0-0.1,0.1,0c0.1,0,0,0,0-0.1c0,0,0,0,0.1,0
					c0,0,0,0.1,0.1,0.1c0-0.1,0-0.1,0.1-0.1l0,0c0,0,0,0,0,0c0,0,0,0,0,0.1c0.1,0,0.2,0,0.2-0.1c0,0,0,0.1,0,0.1
					c0.1,0,0.1-0.1,0.1-0.1c0,0,0,0,0,0c0,0,0,0,0,0l0,0.1c0-0.1,0.1,0,0.2-0.1c0,0,0,0,0,0c0,0,0,0,0,0c0,0,0,0,0,0
					c0,0,0.1,0,0.1,0c0,0,0,0.1,0,0.1c0-0.1,0.1,0,0.1-0.1l0,0.1c0,0,0-0.1,0-0.1c0,0,0,0,0.1,0l0,0c0.1,0,0.4,0,0.3-0.2
					c0,0,0,0,0,0c0,0,0-0.1,0-0.1c0,0,0.1,0,0.1,0c-0.1-0.1-0.2-0.3-0.3-0.4c-0.1,0.1-0.1,0-0.1,0c0,0,0,0,0,0c0,0,0,0,0.1-0.1
					c-0.1,0,0,0-0.1,0.1c0,0,0,0,0,0c0,0,0-0.1,0-0.1c0,0,0,0-0.1,0c0,0,0,0,0,0l0.1-0.1c-0.2-0.1-0.4-0.2-0.5-0.3l0,0.1
					c-0.1,0-0.1-0.1-0.2-0.1c0,0,0-0.1,0-0.1c0,0,0,0-0.1,0l0,0.1c0,0,0,0,0,0c0,0,0,0,0,0c0,0,0,0,0-0.1c0,0,0,0,0,0
					c0,0-0.1,0-0.1,0c0,0,0,0,0.1,0c0,0.1,0.1,0,0.1,0c0,0,0-0.1,0-0.1c-0.1,0-0.1,0-0.2-0.1c0,0,0,0.1,0,0.1c0,0,0,0,0,0
					c0,0,0.1,0,0.1-0.1c0,0,0,0-0.1,0c0,0,0,0.1,0,0.1c0,0,0,0,0,0c0,0,0,0,0,0c0,0,0,0,0,0c0,0,0,0,0,0l0.1-0.1
					c-0.1-0.1-0.3-0.1-0.5-0.1l0.1,0c0,0,0,0-0.1,0.1l0,0c0,0-0.1,0-0.1,0c0,0,0,0,0,0c0,0,0,0,0,0c0,0,0,0-0.1,0c0,0,0,0,0,0
					c0-0.1-0.1,0-0.2-0.1c0,0,0,0-0.1,0.1c0,0,0,0,0,0l0-0.1c-0.1,0-0.2,0-0.3,0.1c0,0,0,0,0,0c0,0,0,0,0,0c0,0,0,0,0,0
					c0,0-0.1,0-0.1,0c0,0,0,0,0,0l0,0c0,0-0.1,0-0.1,0c0,0,0,0-0.1,0c0,0,0,0,0,0c0,0,0,0,0,0c0,0,0,0,0,0c0,0-0.1,0-0.1,0
					c0,0,0,0,0,0c0,0,0,0,0,0c-0.4,0-1.2,0.2-1.8,0.9c0,0,0,0,0,0c0,0,0,0,0,0c0,0,0,0.1-0.1,0.1c0,0,0,0,0,0c0,0,0,0,0,0
					c0,0,0,0,0,0c0,0,0,0,0,0c0,0,0,0,0,0c0,0,0,0,0,0c0,0,0,0,0,0c0,0,0,0,0,0.1l0,0l0,0c0,0,0,0,0,0c0,0,0,0,0,0c0,0,0,0,0,0
					c0,0,0,0.1,0,0.1c0,0,0,0,0,0C66.3,76.4,66.3,76.5,66.4,76.6c-0.1-0.1-0.1-0.1-0.1,0C66.3,76.6,66.4,76.6,66.4,76.6z M68.3,77.1
					C68.2,77,68.2,77.1,68.3,77.1C68.2,77,68.2,77.1,68.3,77.1L68.3,77.1c-0.1-0.1-0.1-0.1-0.1-0.1c0,0,0.1,0,0.1,0c0,0,0,0,0,0
					C68.3,77,68.3,77.1,68.3,77.1z M68.5,77.1L68.5,77.1C68.5,77.2,68.5,77,68.5,77.1C68.4,77,68.5,77,68.5,77.1
					C68.5,77,68.5,77,68.5,77.1C68.5,77,68.6,77,68.5,77.1C68.6,77,68.5,77.1,68.5,77.1z M68.8,77C68.8,77,68.8,77,68.8,77
					C68.8,77,68.8,77,68.8,77L68.8,77z M69.3,77.1c-0.1,0-0.1-0.1-0.1,0l0-0.1C69.2,77,69.2,77,69.3,77.1C69.3,77,69.3,77,69.3,77.1
					C69.3,77.1,69.3,77.1,69.3,77.1z M69.6,77C69.6,77,69.6,77,69.6,77C69.6,77,69.6,77,69.6,77C69.6,77,69.6,77,69.6,77z
					 M71.1,76.7C71.1,76.7,71.1,76.7,71.1,76.7C71.1,76.7,71.1,76.7,71.1,76.7C71.1,76.7,71.1,76.7,71.1,76.7z M71.2,76.7
					C71.2,76.7,71.2,76.7,71.2,76.7C71.2,76.7,71.2,76.7,71.2,76.7C71.2,76.7,71.2,76.7,71.2,76.7z M71.2,76.2
					C71.2,76.2,71.2,76.2,71.2,76.2L71.2,76.2C71.2,76.2,71.2,76.2,71.2,76.2z M70.8,75.7C70.8,75.8,70.8,75.8,70.8,75.7
					C70.8,75.8,70.8,75.8,70.8,75.7C70.8,75.7,70.8,75.7,70.8,75.7z M69.9,75.4C69.9,75.3,69.8,75.3,69.9,75.4
					C69.8,75.3,69.9,75.3,69.9,75.4z M69.7,75.3C69.7,75.3,69.7,75.3,69.7,75.3C69.7,75.3,69.7,75.3,69.7,75.3
					C69.7,75.3,69.7,75.3,69.7,75.3z"/>
			</g>
			<g id="XMLID_2671_">
				<path id="XMLID_2999_" class="st1" d="M53.6,47.6L53.6,47.6L53.6,47.6L53.6,47.6c0,0,0.1,0,0.1,0C53.7,47.7,53.7,47.7,53.6,47.6
					c0.1,0.1,0.2,0,0.3,0c0,0.1-0.1,0.1-0.1,0.1c0.1,0,0.1,0,0.2,0l0,0.1l0.1,0c-0.1-0.1,0-0.1-0.1-0.2c0,0,0.1,0,0.1,0
					c0.1,0,0,0.1,0,0.1l0-0.1c0,0,0.1,0,0.1,0l0,0l0,0l0,0c0,0,0.1,0,0.1,0c0,0,0,0,0,0c0,0,0,0,0,0c0,0,0,0,0,0c0,0,0,0,0,0
					c0,0,0,0.1-0.1,0.1c-0.1,0-0.1-0.1-0.1,0l0.1,0.1c0.1,0,0.1-0.1,0.2-0.2c0.1,0,0.2,0,0.2,0c0,0.1-0.2,0-0.2,0.1
					c0.1,0,0.2,0.1,0.2,0.1l0.1,0c0,0,0-0.1-0.1-0.2c1.6-0.1,3-0.1,4.2-0.1c-0.1,0-0.3,0.1-0.4,0c-0.1,0-0.2,0-0.3,0
					c-0.4,0-0.9,0-1.3,0l-0.1,0.1c0-0.1-0.1,0-0.1-0.1c0,0,0,0,0.1,0c-0.1-0.1-0.3,0-0.4,0c0,0,0,0.1,0,0.1c0-0.1-0.1,0-0.2-0.1
					c-0.1,0,0,0.1-0.1,0.1c0,0.1,0.1,0,0.1,0.1c0,0.1-0.1,0-0.1,0.1c0.2,0,0.6-0.1,0.9-0.2l0,0.1c0.2-0.1,0.4-0.1,0.5,0.1
					c0-0.1,0.2,0,0.2-0.1c0,0,0.1,0,0.1,0l0,0c0.1,0,0.1,0.1,0.2,0.1c-0.1-0.1,0-0.1,0-0.1c0.1,0.1,0.2,0.1,0.3,0.2c0,0,0,0,0-0.1
					c0.1,0,0.1,0,0.1-0.1c0.1,0,0.1,0.1,0,0.1c0.1,0,0.2-0.1,0.2-0.1l0-0.1c0.1,0,0.2,0.1,0.3,0c0.1,0.1-0.1,0.1-0.2,0.1
					c0,0,0.1,0,0.1,0.1c0.1,0,0.1-0.1,0.2-0.1c-0.1,0.1,0.1,0.1,0.1,0.1c0,0,0-0.1-0.1-0.1c0-0.1,0.1,0,0.1-0.1c-0.1,0,0-0.1,0-0.1
					c0.1,0,0.2,0,0.3,0c-0.1,0-0.1,0-0.1,0c0,0,0.1,0.1,0,0.1c0,0,0,0.1,0,0.1c0.1,0,0.1,0,0.2-0.1c0,0.1,0,0,0,0.1l0.1,0
					c0.1,0-0.1,0.1,0,0.1c0,0,0.1-0.1,0.1-0.1l0,0c0.1,0,0.1,0,0.1-0.1l0.1,0.1l0-0.1c0.1,0,0.2,0.2,0.4,0.1c0,0,0-0.1,0-0.1
					c-0.1,0-0.1,0-0.2,0c0-0.1,0.1-0.1,0-0.2c0.1,0.1,0.2,0,0.2,0.2c0.1,0,0.2-0.1,0.3,0l0,0c0-0.1,0.1,0.1,0.2,0l-0.1,0
					c0,0,0,0,0.1,0c0,0,0,0,0,0c0-0.1,0.1-0.1,0.2-0.1c0.1,0,0.2,0,0.2,0l0.1,0.1c0,0-0.1,0-0.1,0c0,0,0,0.1,0,0.1
					c-0.1,0-0.1,0-0.2,0c0.1,0.1,0.1-0.1,0.3,0l0.1-0.1c0.1,0,0,0.1,0,0.1c0.1,0-0.1-0.1,0-0.2c0,0,0.1,0,0.1,0c0,0,0,0,0,0
					c0,0,0,0.1,0,0.1c0,0,0.1,0,0.1,0c-0.1-0.1,0.1,0,0-0.1c0,0,0,0,0.1-0.1c0,0,0.1,0,0.1,0c0,0,0,0,0,0c0,0,0,0-0.1,0
					c0,0.1,0.1,0,0.1,0.1c0,0,0.1,0,0.1,0c0.1,0,0.1,0,0.2,0c0,0,0.1,0,0.1,0c0,0,0.1,0,0.1,0c0,0,0.1,0.1,0.1,0.1c0.1,0,0,0,0-0.1
					c0,0,0,0,0,0l0-0.2c0,0,0.1-0.1,0.1-0.1c-0.1-0.2,0.1-0.2,0.1-0.4c0-0.1-0.1,0-0.1,0c0-0.1-0.1-0.1,0-0.2c0,0,0.1,0,0,0.1
					c0.1,0,0-0.1,0-0.1c0,0,0,0,0,0c0-0.2-0.1-0.1,0-0.3c0,0,0-0.1-0.1-0.1c0.1-0.1,0.1-0.1,0.1-0.2c0,0-0.1,0-0.2,0l0-0.1
					c0-0.1,0-0.2,0-0.3c0,0,0,0,0,0.1c0.1,0,0-0.1,0-0.2l0.1,0c0-0.1-0.1-0.2,0-0.3l0,0c0-0.1,0-0.1,0-0.2c-0.1,0-0.1,0-0.2-0.1
					c-0.1-0.1-0.2-0.1-0.3-0.1l0-0.1c-0.2,0,0.2,0.1,0,0.2c0-0.2-0.1,0-0.2-0.1c0-0.1,0.1,0,0.1-0.1c-0.1,0.1-0.1,0-0.1,0
					c0-0.1-0.1-0.1,0-0.1L61.6,45c0-0.1-0.1-0.1-0.1-0.1c0,0,0,0,0,0.1c-0.1,0-0.1,0-0.2-0.1c0,0,0-0.2,0-0.2c-0.1,0-0.2,0-0.3,0.1
					l0-0.1c0,0-0.1,0.1-0.1,0.1c0,0,0,0-0.1,0c0,0,0,0,0,0c0,0,0,0,0,0c0-0.1,0.1-0.1,0.1-0.2l-0.1,0c0,0,0,0,0-0.1
					c-0.2,0.1-0.2-0.1-0.4-0.1l0.1,0c0,0-0.1,0-0.1,0c0-0.1-0.1-0.1-0.1-0.1c-0.1,0-0.1,0.1-0.2,0.1c0-0.1-0.1-0.1-0.2-0.2
					c0,0.1-0.2,0-0.2,0.1c-0.1,0-0.1,0-0.1-0.1c0,0,0,0,0,0l0,0c0,0,0,0,0,0c0,0-0.1,0.1-0.1,0c0,0,0,0,0.1,0c-0.1,0-0.2,0.1-0.3,0
					c0,0-0.2,0-0.1,0.1c0,0,0-0.1-0.1-0.1c-0.1,0.1-0.1,0-0.2,0c0.1-0.1,0,0,0.1-0.1c-0.1,0-0.2,0.1-0.3,0.1c0,0,0,0,0-0.1
					c0,0-0.1,0.1-0.1,0l0,0.1c-0.1,0-0.2,0-0.3-0.1l-0.1,0.1c-0.1-0.1-0.3,0-0.4,0.1c0,0-0.1,0-0.1,0c0,0,0,0,0,0c0,0,0,0,0,0
					c-0.1,0-0.2-0.1-0.2,0c-0.1,0-0.1-0.1-0.1-0.1c-0.1,0.2-0.4,0-0.5,0.2c0,0,0.1,0,0.1,0c-0.1,0-0.1,0-0.2,0l0-0.1
					c-0.2-0.1-0.3,0.2-0.5,0.1c-0.1,0-0.2,0.1-0.2,0.1c0,0,0,0,0,0l0,0c0,0,0,0,0,0c-0.1,0-0.1,0-0.2,0c0,0-0.1,0-0.1,0
					c-0.1,0-0.2,0-0.2,0.1c-0.2-0.1-0.2,0.1-0.3,0l0,0c0,0-0.1,0-0.1,0.1c0,0,0,0,0.1,0c-0.1,0-0.2,0-0.3,0.1c0,0,0,0,0,0
					c0,0,0,0,0,0c-0.7,0.2-1.2,0.4-1.2,0.4L53.6,47.6z M59,47.5C59,47.5,59,47.4,59,47.5c0.1,0,0.1,0,0.2,0
					C59.1,47.4,59.1,47.5,59,47.5z M59.7,47.6c0.1-0.1,0-0.1,0-0.2c0.1,0,0.1,0,0.2,0C59.8,47.5,59.8,47.7,59.7,47.6z M59.9,47.5
					C59.9,47.5,59.9,47.5,59.9,47.5c0-0.1,0.1-0.1,0.1-0.1C60,47.5,59.9,47.5,59.9,47.5z M60.4,47.6l0-0.1c0,0,0.1,0,0.1,0
					C60.5,47.6,60.6,47.6,60.4,47.6z M60.9,47.6C60.9,47.6,60.9,47.5,60.9,47.6c0.1-0.1,0.1-0.1,0.2,0C61,47.5,60.9,47.6,60.9,47.6z
					 M62.2,47.7c0,0-0.1,0-0.1,0C62.2,47.7,62.2,47.7,62.2,47.7C62.2,47.7,62.2,47.7,62.2,47.7z M62.5,47.4L62.5,47.4
					C62.5,47.4,62.5,47.4,62.5,47.4z M62.5,46.8c0,0.2,0.2,0.3,0,0.4l0.1,0.1c0,0-0.1,0-0.1,0L62.5,46.8L62.5,46.8z M62.5,45.6
					L62.5,45.6C62.5,45.5,62.5,45.5,62.5,45.6C62.5,45.5,62.5,45.6,62.5,45.6z M62.4,45.4C62.4,45.4,62.4,45.4,62.4,45.4
					C62.4,45.4,62.4,45.4,62.4,45.4C62.4,45.4,62.4,45.4,62.4,45.4z M62.4,45.4C62.4,45.4,62.4,45.4,62.4,45.4
					C62.4,45.4,62.4,45.4,62.4,45.4C62.4,45.4,62.4,45.4,62.4,45.4z M60.6,44.8L60.6,44.8c0,0-0.1,0-0.1,0
					C60.5,44.7,60.5,44.7,60.6,44.8z M60.1,44.7c0-0.1,0.1-0.1,0.2-0.1c0,0,0,0.1,0,0.1C60.2,44.6,60.2,44.6,60.1,44.7
					c0,0-0.1,0-0.2,0C59.9,44.6,60,44.6,60.1,44.7z M59.7,44.6C59.7,44.6,59.7,44.6,59.7,44.6C59.7,44.6,59.7,44.6,59.7,44.6
					C59.7,44.6,59.7,44.6,59.7,44.6z M59.3,44.6C59.3,44.6,59.3,44.6,59.3,44.6C59.3,44.6,59.3,44.6,59.3,44.6z M58.5,44.5
					c0.2,0,0.1-0.1,0.3-0.1c0.1,0.1-0.2,0,0,0.1c-0.1,0-0.1,0-0.2,0.1C58.6,44.6,58.6,44.6,58.5,44.5C58.5,44.5,58.4,44.5,58.5,44.5
					z M58.2,44.5c0.1,0,0.1,0,0.1,0C58.2,44.6,58.2,44.6,58.2,44.5C58.1,44.5,58.1,44.5,58.2,44.5z"/>
				<path id="XMLID_2985_" class="st1" d="M73.3,58.1c0-0.1,0-0.3,0-0.4c0,0,0,0,0,0c0-0.1,0-0.1,0-0.2c0,0,0,0,0,0c0,0,0,0,0,0
					c0,0,0,0,0-0.1c0,0,0,0,0,0c0,0,0,0,0-0.1c0-0.1,0-0.2,0-0.3l0,0l0,0c0,0,0-0.1,0-0.1l0.1,0.1L73.3,57c0,0,0,0,0,0
					c0-0.1,0-0.2,0-0.2c0,0,0-0.1,0.1-0.2c0-0.1-0.1-0.2-0.1-0.2c0-0.1,0-0.1,0-0.2c0-0.2-0.1-3-2.9-5.1c0,0,0-0.1,0-0.1
					c0.1,0.1,0.5,0.5,0.8,0.7c-0.1-0.1-0.1,0-0.1-0.1c0,0,0.1,0.1,0.2,0.1c0.2,0.1,0.3,0.3,0.4,0.5l0-0.1c0.2,0.1,0.2,0.3,0.4,0.5
					l0,0c0.1,0.1,0.2,0.1,0.3,0.2c-0.1,0-0.1-0.1-0.2,0l0.2,0.2c0,0.1,0.2,0.3,0.1,0.2c0.2,0.1,0.2,0.4,0.3,0.2
					c-0.4-0.6-0.9-1.4-1.6-1.9l0.1,0.1c-0.4-0.2-0.4-0.5-0.8-0.5l0.1-0.1c-0.1-0.1-0.4-0.1-0.5-0.3l0,0c0,0-0.1-0.1-0.1-0.1l0,0
					c-0.1,0-0.2-0.1-0.3-0.2c0,0,0.1,0,0.1,0c0-0.1-0.2-0.1-0.3-0.1c-0.1-0.1,0,0,0,0c-0.3-0.1-0.4-0.3-0.7-0.2c0,0,0,0.1-0.1,0
					c0,0,0,0,0.1,0.1c-0.1,0-0.2-0.1-0.3-0.1c0.1,0,0.3,0.1,0.2-0.1l-0.1,0c-0.2-0.1-0.2-0.1-0.4-0.3c-0.3-0.1-0.2,0.1-0.5,0
					c-0.1,0-0.1-0.1-0.2-0.1c-0.2-0.1-0.1,0.1-0.1,0.1c-0.1-0.1-0.2-0.1-0.2-0.2c0,0-0.1-0.1-0.1-0.1c0,0,0.2,0.2,0.4,0.4
					c0.2,0.2,0.3,0.3,0.2,0.4c0.1,0.1,0.2,0.2,0.2,0.3c0,0.1,0.1,0.1,0.1,0.2c0,0,0.1,0.1,0.1,0.1c-0.1-0.1,0.1,0.2,0,0.2
					c0.2,0,0.2,0.5,0.4,0.5c0.1,0.3,0,0,0.1,0.3c0,0,0,0-0.1-0.1c0,0.1,0.2,0.1,0.1,0.3c0.1,0.2,0.1,0.1,0.1,0.1
					c0,0.1,0.1,0.1,0.1,0.2c0,0.1,0,0.1,0,0.2c0.1,0,0.1,0.1,0.2,0.2c0,0,0,0,0,0c0,0,0,0.1,0.1,0.1c0,0-0.1-0.1-0.1-0.1
					c0.1,0.2,0.2,0.5,0.3,0.7c0,0.1-0.1-0.1,0,0.1c0,0.3,0.2,0.3,0.3,0.6l-0.1,0c0.1,0.1,0.1,0.4,0.2,0.7c0,0,0,0,0,0c0,0,0,0,0,0
					c0,0,0,0.1,0.1,0.2c0,0.2,0.1,0.3,0.1,0.5c0,0-0.1-0.1-0.1-0.1c0.1,0.1,0.1,0.4,0.2,0.5l-0.1,0c0,0.1,0.1,0.2,0.1,0.2
					c0,0.1,0,0.1,0,0.2l-0.1,0c0.1,0.5,0,1,0.2,1.4c0,0,0,0,0,0c0,0.1,0,0.2,0,0.3c0,0-0.1,0-0.1,0.1c0,0.3,0.1,0.9,0.1,1.3
					c0.1,0,0,0.3,0.1,0.3c0,0,0,0,0,0c0,0-0.1,0-0.1,0c0,0.3,0.1-0.1,0.1,0c0,0,0,0,0,0c0,0.1-0.1,0.2-0.1,0.2c0,0.2,0,0,0.1,0.1
					l-0.1,0.1c0,0.6,0,1.4-0.2,2l0.1,0c0,0.3-0.1,0.6-0.2,0.8c0,0-0.1,0-0.1,0c0,0.1,0,0.2,0,0.3l0.1-0.1c0,0.1,0,0.2-0.1,0.2
					c0,0.1,0,0.1,0,0.1c0,0.1-0.1,0.2-0.1,0.4c0,0,0-0.1,0-0.1c0.1,0,0-0.2,0.1-0.3c0,0-0.1,0-0.1,0c0,0.2,0,0.3-0.1,0.6
					c0,0.1,0.1,0.1,0.1,0c0,0,0,0.1,0,0.1c0-0.1,0-0.1-0.1-0.1c-0.1,0.1,0,0.1,0,0.2c0.1-0.2,0.1,0,0.1,0c0,0,0,0,0,0.1
					c0,0,0,0,0,0.1c0,0,0,0,0,0c0,0,0,0.1,0,0l0-0.2c-0.2,0.4-0.3,1-0.4,1.5l0.1-0.2c0,0,0,0.1,0,0.2l0,0c-0.1,0.2-0.1,0.3-0.2,0.5
					c0,0,0-0.1,0-0.1c0,0,0,0.1,0,0.1c0,0,0,0.1-0.1,0.1c0,0-0.1,0,0-0.1c-0.2,0.2-0.2,0.4-0.3,0.6c0,0.1,0,0.1,0.1,0c0,0,0,0,0,0
					c0,0,0.1,0,0.1-0.1l-0.1,0.1c0.2-0.1,0.3-0.2,0.5-0.4c0.1-0.1,0.2-0.2,0.3-0.3c0,0,0.1-0.1,0.1-0.1c0,0,0,0,0,0c0,0,0,0,0-0.1
					c0.1-0.1,0.2-0.1,0.3-0.2c0,0,0,0,0,0l0,0c0.1-0.1,0.1-0.2,0.2-0.2c0.1-0.1,0.2-0.2,0.3-0.3c0,0,0,0,0,0c0,0,0.1-0.1,0.1-0.1
					c0.1-0.1,0.1-0.1,0.2-0.2c0,0,0,0,0,0c0,0,0.1-0.1,0.1-0.1c0.1-0.1,0.2-0.3,0.4-0.4C72.7,62.6,73.3,60.6,73.3,58.1
					C73.3,58.2,73.3,58.2,73.3,58.1C73.3,58.1,73.3,58.1,73.3,58.1z M70.5,58.8C70.5,58.8,70.5,58.8,70.5,58.8
					C70.5,58.8,70.5,58.8,70.5,58.8L70.5,58.8z M70,50.7c0,0.1,0.1,0,0.2,0.1c0,0.1-0.1,0-0.2,0c0,0,0.1,0,0.1,0
					c0.1,0.1,0.1,0.1,0.1,0.2c-0.1-0.1-0.2-0.2-0.4-0.3c0,0,0,0,0,0C69.9,50.8,70,50.7,70,50.7z M69.2,50.3c0.2-0.1,0.1,0.1,0.3,0.2
					c-0.1,0-0.2,0-0.2,0c0,0,0,0,0,0c-0.1-0.1-0.3-0.1-0.4-0.2C69.1,50.2,69.2,50.3,69.2,50.3L69.2,50.3z M68.5,49.9L68.5,49.9
					C68.5,49.9,68.5,49.9,68.5,49.9C68.5,49.9,68.5,49.9,68.5,49.9z M67.9,50.2c-0.2-0.2-0.1-0.2-0.3-0.5l0.1,0.1
					c0.1,0.1,0.1,0.1,0.2,0.2c0,0.1,0.1,0.2,0.1,0.2C68,50.2,67.9,50.3,67.9,50.2z M68.6,51.1c0,0,0-0.1-0.1-0.1
					C68.5,51.1,68.6,51.1,68.6,51.1C68.6,51.2,68.6,51.2,68.6,51.1z M70.3,56.3C70.3,56.3,70.3,56.3,70.3,56.3
					C70.3,56.2,70.3,56.2,70.3,56.3C70.3,56.3,70.3,56.3,70.3,56.3z M70.3,56.5c0-0.1,0-0.1,0-0.2C70.3,56.4,70.3,56.4,70.3,56.5
					C70.3,56.5,70.3,56.5,70.3,56.5z M70.5,58.6c0,0,0-0.1,0-0.1C70.5,58.5,70.5,58.5,70.5,58.6z M70.3,61c0-0.1,0-0.1,0.1-0.2
					C70.3,60.8,70.3,60.9,70.3,61C70.3,60.9,70.3,61,70.3,61z M69.6,64.3C69.6,64.3,69.6,64.3,69.6,64.3c0,0.1,0,0.1-0.1,0.2
					C69.6,64.4,69.6,64.4,69.6,64.3z M69.5,64.8C69.5,64.8,69.5,64.8,69.5,64.8C69.5,64.8,69.5,64.9,69.5,64.8
					C69.5,64.9,69.5,64.8,69.5,64.8z"/>
				<path id="XMLID_2945_" class="st1" d="M50.5,69.2C50.9,69.3,50.5,69.2,50.5,69.2c0.2-0.1,0.3,0,0.3,0.1c0.2,0.1,0,0,0.2,0
					l0.1,0.2c0.8,0.2,1.8,0.4,2.7,0.6c0,0-0.1-0.1-0.1-0.1c0,0,0,0,0.1,0c0,0,0.1,0,0.1,0c0.1,0,0.2,0,0.4,0.1
					c-0.1-0.2-0.2-0.4-0.3-0.6c0,0,0.1-0.1,0.1,0c-0.1-0.1-0.1-0.2-0.1-0.3l0,0.2c-0.1-0.1-0.1-0.3-0.1-0.3c-0.1-0.1-0.1-0.1-0.1,0
					c-0.1-0.2-0.1-0.3-0.2-0.5c0,0,0.1,0,0.1,0.1c0,0.1,0.1,0.2,0.2,0.4c0,0,0,0,0.1,0c-0.1-0.3-0.2-0.4-0.3-0.7
					c-0.1-0.1-0.1,0-0.1,0c0-0.1,0-0.1-0.1-0.2c0.1,0.1,0.1,0.1,0.1,0c0-0.1-0.1-0.2-0.1-0.2c0,0.2-0.1,0.1-0.1,0
					c0-0.1-0.1-0.2-0.1-0.3c0,0,0,0,0,0l0.1,0.2c-0.1-0.3-0.2-0.6-0.3-1c-0.1-0.3-0.2-0.7-0.3-1l0.1,0.3c-0.1,0-0.1-0.2-0.1-0.3l0,0
					c-0.1-0.2-0.1-0.4-0.2-0.7c0,0.1,0,0.1,0,0.1c0-0.1,0-0.1-0.1-0.2c0-0.1,0-0.1,0-0.2c0,0,0.1,0,0.1,0.1c0-0.2-0.1-0.5-0.1-0.7
					c0-0.2-0.1-0.2-0.1-0.2c0-0.1,0-0.1,0-0.2l0.1,0c-0.1-0.3-0.1-0.8-0.2-1.1c0-0.1,0-0.2,0-0.2c0,0,0,0,0,0c0,0,0,0,0-0.1
					c0-0.2,0-0.3,0-0.5c0,0,0,0,0,0l0,0.1c0-0.2-0.1-0.4-0.1-0.5c0-0.2,0-0.3,0-0.5c0,0,0,0,0,0c0-0.1,0-0.1,0-0.2
					c0-0.1,0-0.3,0-0.4c0,0,0,0,0,0c0-0.1,0-0.1,0-0.2c0-3.9,0.8-7.2,1.6-9.4c0,0,0,0,0,0c0,0,0,0,0,0c0.1-0.2,0.1-0.3,0.2-0.5
					c0,0,0,0,0,0c0.1,0,0.1-0.1,0.1-0.2c0,0,0,0,0,0c0,0,0,0,0,0l0,0c0,0,0,0,0-0.1c0-0.1,0.1-0.2,0.1-0.3l0,0l0,0
					c0-0.1,0-0.1,0.1-0.2l0,0.1l0-0.2c0,0,0,0,0,0c0-0.1,0.1-0.2,0.1-0.3c0,0,0.1-0.1,0.2-0.2c0-0.1,0-0.2,0-0.3
					c0-0.1,0.1-0.2,0.1-0.3c-1.2,0.1-2.4,0.2-3.7,0.4c0,0,0,0.1-0.1,0.1c0,0-0.1,0.2-0.3,0.5c-0.4,0.6-1.1,1.7-1.7,3.2
					c0,0-0.1,0.1-0.1,0c0.2-0.1,0.4-0.8,0.6-1.2c0,0.1,0,0.1,0,0.2c0,0,0.1-0.2,0.1-0.3c0.1-0.2,0.3-0.5,0.4-0.7l-0.1,0
					c0-0.2,0.3-0.4,0.4-0.7l0,0c0-0.1,0-0.3,0.1-0.4c0,0.1,0,0.2,0,0.2l0.1-0.3c0.1,0,0.2-0.3,0.2-0.2c0-0.1,0.1-0.2,0.2-0.3
					c0.1-0.1,0.1-0.2,0-0.2c0,0.1-0.1,0.1-0.1,0.2l-0.1,0.2c-0.1,0.1-0.2,0.2-0.2,0.3c-0.2,0.2-0.3,0.5-0.4,0.7
					c-0.3,0.5-0.6,1-0.7,1.5l0-0.2c-0.2,0.5-0.4,0.6-0.4,1.1l-0.1-0.1c-0.1,0.2,0,0.5-0.2,0.7l0.1,0c0,0.1-0.1,0.1-0.1,0.1l0,0
					c0,0.2-0.1,0.3-0.2,0.5c0,0,0-0.1,0-0.1c-0.1,0.1,0,0.2-0.1,0.4c-0.1,0.1,0,0-0.1,0c-0.1,0.4-0.3,0.6-0.2,0.9
					c0,0,0.1-0.1,0.1,0.1c0,0,0-0.1,0-0.1c0,0.1-0.1,0.2-0.1,0.3c0-0.1,0-0.3-0.1-0.1l0,0.1c0,0.3-0.1,0.2-0.2,0.4
					c0,0.3,0.1,0.4,0,0.6c0,0.1-0.1,0.1-0.1,0c-0.1,0.2,0,0.3,0,0.5l0,0c-0.3,0-0.1,0.7-0.3,1c0,0.2-0.1,0.5,0,0.8
					c-0.1-0.1,0,0.3-0.1,0.2c0.2,0.1-0.1,0.8,0.1,0.8c-0.1,0.4,0,0-0.1,0.4c0,0,0-0.1,0-0.1c-0.1,0.2,0.1,0.3,0,0.4
					c0,0.3,0,0.2,0.1,0.2c0,0.1,0,0.2,0,0.4c0,0-0.1,0.1-0.1,0.2c0.1,0,0.1,0.2,0.1,0.4c0,0.1,0,0.1,0,0.2c0-0.1,0-0.1-0.1-0.2
					c0,0.3,0.1,0.6,0.1,1c0,0,0,0.1,0,0.1c0,0.1-0.1-0.1-0.1,0c0,0.3,0.1,0.4,0.1,0.6c0,0.1,0,0.1,0,0.2l-0.1,0
					c0.1,0.2,0.1,0.6,0.2,0.9c0,0,0,0,0,0c0,0,0,0,0,0c0,0,0,0.1,0,0.2c0,0.2,0.1,0.5,0.2,0.7c0,0-0.1-0.1-0.1-0.2
					c0.1,0.2,0.1,0.5,0.2,0.7c0,0,0,0,0,0l-0.1,0c0,0.1,0.1,0.2,0.1,0.2c0,0.1,0.1,0.2,0.1,0.3l0,0c0.2,0.6,0.4,1.3,0.6,1.7
					c0,0,0,0,0,0c0,0.1,0.1,0.2,0.1,0.2c0,0,0,0.1,0.1,0.1c0,0-0.1,0,0,0.2c0.1,0.1,0.1,0.2,0.2,0.3c0,0,0,0.1,0,0.1l0,0.1l0,0
					c0.3,0.1,0.7,0.3,1,0.5c0.1-0.1,0.3,0.1,0.4,0.1c0,0,0,0,0,0C50.5,69.2,50.5,69.2,50.5,69.2z M52.6,69.8c-0.1,0-0.1-0.1-0.2-0.1
					C52.5,69.7,52.5,69.7,52.6,69.8C52.6,69.7,52.6,69.7,52.6,69.8z M53.2,67.3C53.2,67.3,53.2,67.3,53.2,67.3
					c0-0.1-0.1-0.2-0.1-0.3C53.1,67.1,53.2,67.3,53.2,67.3z M53,66.7C53,66.7,53,66.7,53,66.7c0-0.1-0.1-0.1-0.1-0.1
					C52.9,66.6,53,66.6,53,66.7z M49.6,68.8C49.5,68.8,49.5,68.7,49.6,68.8C49.5,68.7,49.5,68.8,49.6,68.8z M48.6,52.8
					c0.1,0,0,0.1,0,0.2L48.6,52.8c0.1-0.1,0.1-0.1,0.2-0.1c-0.1,0.2-0.2,0.4-0.2,0.6c0,0,0,0,0,0c0-0.1,0-0.2,0-0.2
					C48.6,53,48.5,53,48.6,52.8z M48.1,54.2c-0.1-0.2,0.1-0.1,0.1-0.5c0,0.1,0,0.2,0,0.3c-0.1,0.2-0.1,0.3-0.2,0.5
					C48.1,54.4,48.1,54.3,48.1,54.2L48.1,54.2z M47.9,55.2L47.9,55.2C47.9,55.3,47.9,55.3,47.9,55.2C47.9,55.3,47.9,55.2,47.9,55.2z
					 M47.4,57L47.4,57c0,0.2,0,0.4,0,0.6c0,0.1,0,0.2,0,0.2c0-0.1-0.1,0-0.1-0.1C47.4,57.4,47.4,57.3,47.4,57z M47.2,59.1
					c0,0,0-0.1,0-0.1C47.3,59,47.3,59.1,47.2,59.1C47.3,59.1,47.3,59.1,47.2,59.1z M48.2,66.2C48.2,66.2,48.2,66.2,48.2,66.2
					C48.2,66.2,48.2,66.2,48.2,66.2C48.2,66.2,48.2,66.2,48.2,66.2z M48.3,66.5c-0.1-0.1,0-0.1,0-0.2C48.2,66.4,48.3,66.4,48.3,66.5
					C48.3,66.5,48.3,66.5,48.3,66.5z M49.8,68.9C49.8,68.9,49.8,68.9,49.8,68.9C49.8,68.9,49.9,68.9,49.8,68.9
					C49.9,68.9,49.9,68.9,49.8,68.9z"/>
				<path id="XMLID_2905_" class="st1" d="M43.2,64c-0.1-0.4-0.1-0.6-0.1-0.8c0,0-0.1-0.1-0.1-0.1c0-0.2-0.1-0.4-0.1-0.6
					c0,0,0.1,0,0.1,0.1c0-0.1,0-0.2-0.1-0.2l0,0.1c0,0,0,0,0-0.1c0,0,0,0,0-0.1c0,0,0-0.1,0-0.1c0,0,0-0.1-0.1,0c0-0.1,0-0.2,0-0.3
					c0,0,0.1,0,0.1,0.1c-0.1,0,0,0.1,0,0.2c0,0,0.1,0,0.1,0c0-0.2-0.1-0.2-0.1-0.4c-0.1-0.1-0.1,0-0.1,0c0,0,0-0.1,0-0.1
					c0,0.1,0.1,0.1,0.1,0c0-0.1,0-0.1,0-0.1c0,0.1-0.1,0.1-0.1,0c0-0.1,0-0.1,0-0.2c0,0,0,0,0,0l0.1,0.1c0-0.3,0-0.8-0.1-1.2l0,0.2
					c0,0-0.1-0.1-0.1-0.2l0,0c0-0.1,0-0.2,0-0.3c0,0,0,0,0,0c0,0,0,0,0,0c0-0.1,0-0.1,0-0.2c0,0,0,0,0,0.1c0.1-0.1,0-0.3,0-0.4
					c0-0.1,0-0.1-0.1-0.1c0,0,0-0.1,0-0.1l0.1,0c0-0.2,0-0.4,0-0.6c0,0,0-0.1,0-0.1c0,0,0,0,0,0c0,0,0,0,0,0c0-0.1,0-0.2,0-0.3
					c0,0,0,0,0,0l0,0c0-0.1,0-0.2,0-0.2c0-0.1,0-0.2,0-0.3c0,0,0,0,0,0c0,0,0-0.1,0-0.1c0-0.1,0-0.2,0-0.2c0,0,0,0,0,0
					c0,0,0-0.1,0-0.1c0.3-2.2,0.9-4,1.5-5.3c0,0,0,0,0,0c0,0,0,0,0,0c0-0.1,0.1-0.2,0.1-0.3c0,0,0,0,0,0c0.1,0,0.1-0.1,0.1-0.1
					c0,0,0,0,0,0c0,0,0,0,0,0c0,0,0,0,0,0c0,0,0,0,0,0c0-0.1,0.1-0.1,0.1-0.2l0,0l0,0c0,0,0-0.1,0.1-0.1l0,0.1l0-0.1c0,0,0,0,0,0
					c0-0.1,0.1-0.1,0.1-0.2c0,0,0.1,0,0.1-0.1c0,0,0-0.1,0-0.2c0,0,0.1-0.1,0.1-0.1c0,0-0.1,0-0.1,0.1c0,0,0,0,0,0c0,0,0,0,0,0
					c0,0-0.1,0-0.1,0c0,0,0,0,0,0c0,0,0,0-0.1,0.1c-0.7,0.4-1.4,0.8-2,1.3c-0.5,0.4-0.9,0.9-1.3,1.4c0,0,0,0-0.1,0
					c0.1,0,0.4-0.4,0.5-0.6c0,0.1,0,0.1,0,0.1c0,0,0.1-0.1,0-0.2c0.1-0.1,0.2-0.3,0.3-0.3l-0.1,0c0-0.1,0.2-0.2,0.4-0.3l0,0
					c0-0.1,0-0.2,0.1-0.2c0,0.1,0,0.1,0,0.1l0.1-0.2c0,0,0.2-0.2,0.2-0.1c0-0.1,0.3-0.2,0.1-0.3c-0.4,0.3-1,0.8-1.3,1.4l0-0.1
					c-0.1,0.3-0.4,0.3-0.3,0.6l-0.1-0.1c-0.1,0.1,0,0.3-0.2,0.4l0,0c0,0,0,0-0.1,0.1l0,0c0,0.1,0,0.2-0.1,0.3c0,0,0,0,0,0
					c0,0,0,0.1,0,0.2c-0.1,0,0,0-0.1,0c-0.1,0.2-0.2,0.3-0.1,0.5c0,0,0.1,0,0.1,0c0,0,0-0.1,0-0.1c0,0.1-0.1,0.2-0.1,0.3
					c0-0.1,0-0.2-0.1-0.1l0,0c0,0.2-0.1,0.1-0.2,0.2c0,0.1,0.1,0.3,0,0.4c0,0.1,0,0-0.1,0c0,0.1,0.1,0.2,0.1,0.3
					c-0.3,0,0,0.4-0.2,0.6c0,0.1,0,0.3,0.1,0.4c-0.1-0.1,0,0.1-0.1,0.1c0.2,0,0,0.5,0.2,0.5c0,0.2,0,0,0,0.3c0,0,0,0,0-0.1
					c0,0.1,0.1,0.1,0,0.2c0,0.2,0,0.1,0.1,0.1c0,0.1,0,0.1,0,0.2c0,0,0,0.1-0.1,0.1c0.1,0,0.1,0.1,0.1,0.2c0,0,0,0,0,0
					c0,0,0,0.1,0,0.1c0,0,0-0.1-0.1-0.1c0,0.2,0.1,0.4,0.2,0.6c0,0.1-0.1,0-0.1,0c0,0.2,0.1,0.2,0.2,0.3c0,0,0,0,0,0
					c0,0,0,0.1,0,0.1l-0.1,0c0.1,0.1,0.1,0.3,0.2,0.5c0,0,0,0,0,0c0,0,0,0,0,0c0,0,0,0.1,0,0.1c0,0.1,0.1,0.2,0.1,0.4
					c0,0-0.1,0-0.1-0.1c0.1,0.1,0.1,0.3,0.2,0.4l-0.1,0c0,0.1,0.1,0.1,0.1,0.1c0,0,0,0.1,0.1,0.1l0,0c0.1,0.3,0.2,0.8,0.4,1
					c0,0,0,0,0,0c0,0.1,0.1,0.1,0.1,0.2c0,0-0.1,0-0.1,0.1c0.1,0.2,0.4,0.6,0.5,1c0-0.2,0.1,0.2,0.1,0.1c0,0,0,0,0,0
					c0,0.1,0,0.2,0,0.2c0.1,0.1,0-0.1,0-0.2c0,0,0,0,0,0.1c0,0.1,0.1,0.2,0.1,0.3c0.1,0.1,0,0,0-0.1c0,0,0,0,0,0l0.1,0.4
					c0.1,0.1,0.1,0.2,0.2,0.3l0.1,0.1l0,0c0,0,0,0,0,0L43.2,64z M43.1,63.8C43.1,63.8,43.1,63.7,43.1,63.8
					C43.1,63.7,43.1,63.7,43.1,63.8C43.1,63.7,43.1,63.7,43.1,63.8z M42.7,61.1c0,0,0-0.1,0-0.1C42.7,61,42.7,61.1,42.7,61.1z
					 M42.6,60.7C42.6,60.7,42.6,60.7,42.6,60.7C42.6,60.7,42.6,60.7,42.6,60.7C42.6,60.7,42.6,60.7,42.6,60.7z M41.2,53.4
					c0.1,0,0,0.1,0,0.1L41.2,53.4c0.1,0,0.1,0,0.2,0c-0.1,0.1-0.1,0.2-0.2,0.3c0,0,0,0,0,0c0-0.1,0-0.1-0.1-0.1
					C41.2,53.5,41.2,53.5,41.2,53.4z M40.9,54.2C40.8,54,41,54.1,41,53.9c0,0.1,0,0.1,0,0.2c0,0,0,0,0,0c-0.1,0.1-0.1,0.2-0.1,0.3
					C40.9,54.3,40.9,54.2,40.9,54.2L40.9,54.2z M40.8,54.8C40.8,54.8,40.7,54.8,40.8,54.8C40.7,54.8,40.7,54.8,40.8,54.8L40.8,54.8z
					 M40.4,56.2c0-0.2,0.1-0.2,0.1-0.4l0.1,0c0,0.1,0,0.1,0,0.2C40.5,56.1,40.5,56.2,40.4,56.2C40.5,56.2,40.4,56.2,40.4,56.2z
					 M40.5,57c0,0,0-0.1,0-0.1C40.5,56.9,40.5,57,40.5,57C40.5,57,40.5,57,40.5,57z M41.5,61C41.5,61,41.6,61,41.5,61
					C41.5,61,41.5,61,41.5,61C41.5,61,41.5,61,41.5,61z M41.6,61.2c-0.1-0.1,0-0.1,0-0.1C41.6,61.1,41.6,61.1,41.6,61.2
					C41.6,61.1,41.6,61.1,41.6,61.2z"/>
				<path id="XMLID_2786_" class="st1" d="M48,68.1c-0.1-0.2-0.1-0.4-0.2-0.6c0,0-0.1,0-0.1,0c0-0.1-0.1-0.2-0.1-0.2
					c-0.1-0.2-0.2-0.5-0.2-0.7c0,0,0.1,0,0.1,0c-0.1-0.1-0.1-0.2-0.1-0.3l0,0.2c0,0,0,0-0.1-0.1c0,0,0-0.1,0-0.1c0-0.1,0-0.1,0-0.1
					c0-0.1-0.1-0.1-0.1-0.1c0-0.1-0.1-0.3-0.1-0.4c0,0,0.1,0,0.1,0.1c0,0.1,0.1,0.2,0.1,0.4c0,0,0,0,0.1,0c-0.1-0.2-0.2-0.3-0.2-0.6
					c-0.1-0.1-0.1,0-0.1,0c0-0.1,0-0.1-0.1-0.2c0.1,0.1,0.1,0.2,0.2,0.1c0-0.1,0-0.1-0.1-0.2c0,0.2-0.1,0-0.1,0c0,0,0,0,0,0
					c0,0,0-0.1,0-0.1c0,0,0-0.1,0-0.1c0,0,0,0,0,0l0.1,0.1c-0.1-0.5-0.2-1.2-0.4-1.7l0,0.2c-0.1,0-0.1-0.1-0.1-0.2l0,0
					c0-0.2-0.1-0.3-0.1-0.5c0,0,0,0,0,0c0,0,0,0,0-0.1c0-0.1,0-0.2,0-0.3c0,0,0,0,0,0.1c0.1-0.2,0-0.4,0-0.6c0-0.2-0.1-0.2-0.1-0.2
					c0-0.1,0-0.1,0-0.2l0.1,0c0-0.3,0-0.7-0.1-1c0-0.1,0-0.1,0-0.2c0,0,0,0,0,0c0,0,0-0.1,0-0.1c0-0.1,0-0.2,0-0.4c0,0,0,0,0,0l0,0
					c0-0.1,0-0.2,0-0.4c0-0.2,0-0.3,0-0.5c0,0,0,0,0,0c0-0.1,0-0.1,0-0.2c0-0.1,0-0.2,0-0.3c0,0,0,0,0,0c0,0,0-0.1,0-0.2
					c0.3-3.3,1.3-6,2.2-7.8c0,0,0,0,0,0c0,0,0,0,0,0c0.1-0.1,0.1-0.3,0.2-0.4c0,0,0,0,0,0c0.1,0,0.1-0.1,0.1-0.2c0,0,0,0,0,0
					c0,0,0,0,0,0c0,0,0,0,0-0.1c0,0,0,0,0,0c0,0,0,0,0-0.1c0-0.1,0.1-0.2,0.1-0.2l0,0l0,0c0,0,0.1-0.1,0.1-0.1l0,0.1l0.1-0.2
					c0,0,0,0,0,0c0-0.1,0.1-0.2,0.1-0.2c0,0,0.1,0,0.2-0.1c0-0.1,0.1-0.2,0.1-0.3c0-0.1,0.1-0.1,0.1-0.2c-1.2,0.2-2.3,0.5-3.4,0.9
					c-0.1,0.1-0.2,0.2-0.3,0.4c-0.3,0.5-0.9,1.3-1.4,2.4c0,0-0.1,0.1-0.1,0c0.1-0.1,0.4-0.7,0.5-1c0,0.1,0,0.1,0,0.2
					c0,0,0.1-0.2,0-0.2c0.1-0.2,0.2-0.4,0.4-0.6l-0.1,0c0-0.2,0.3-0.3,0.4-0.6l0,0c0-0.1,0-0.2,0.1-0.4c0,0.1,0,0.1,0,0.2l0.1-0.3
					c0,0,0.1-0.1,0.1-0.1c0.1-0.1,0.1-0.1,0.1,0c0.2-0.2,0.5-0.2,0.3-0.3c-0.1,0-0.2,0.1-0.3,0.1c-0.1,0-0.1,0.1-0.2,0.2L46.1,50
					c-0.1,0.2-0.3,0.4-0.4,0.6c-0.3,0.4-0.5,0.8-0.7,1.3l0-0.2c-0.1,0.5-0.4,0.5-0.4,1l-0.1-0.1c-0.1,0.2,0,0.4-0.2,0.6l0.1,0
					c0,0.1-0.1,0.1-0.1,0.1l0,0c0,0.2,0,0.3-0.1,0.4c0,0,0,0,0,0c0,0.1,0,0.1,0,0.2c-0.1,0.1,0,0-0.1,0c-0.1,0.4-0.2,0.5-0.1,0.8
					c0,0,0.1-0.1,0.1,0.1c0,0,0-0.1,0-0.1c0,0.1-0.1,0.2-0.1,0.3c0-0.1,0-0.3-0.1-0.2l0,0.1c0,0.2-0.1,0.1-0.2,0.3
					c0,0.2,0.1,0.4,0,0.5c0,0.1-0.1,0.1-0.1,0c-0.1,0.2,0.1,0.3,0,0.4c-0.3,0,0,0.6-0.2,0.8c0,0.2,0,0.4,0,0.6
					c-0.1-0.1,0,0.2-0.1,0.2c0.2,0.1-0.1,0.7,0.1,0.7c-0.1,0.3,0,0-0.1,0.4c0,0,0-0.1,0-0.1c-0.1,0.1,0.1,0.2,0,0.3
					c0,0.2,0,0.1,0.1,0.2c0,0.1,0,0.2,0,0.3c0,0.1-0.1,0.1-0.1,0.2c0.1,0,0.1,0.2,0.1,0.3c0,0,0,0,0,0c0,0.1,0,0.1,0,0.2
					c0-0.1,0-0.1-0.1-0.2c0,0.3,0.1,0.6,0.1,0.9c0,0.2-0.1-0.1-0.1,0.1c0,0.2,0.1,0.4,0.1,0.5c0,0,0,0,0,0.1c0,0,0,0.1,0,0.1l-0.1,0
					c0.1,0.1,0.1,0.5,0.1,0.8c0,0,0,0,0,0c0,0,0,0,0,0c0,0,0,0.1,0,0.2c0,0.2,0.1,0.4,0.1,0.6c0,0-0.1-0.1-0.1-0.1
					c0.1,0.2,0.1,0.5,0.2,0.6l-0.1,0c0,0.1,0.1,0.2,0.1,0.2c0,0.1,0,0.1,0,0.2l0,0c0.1,0.3,0.1,0.7,0.2,1c0,0,0,0.1,0,0.1l0,0l0,0
					c0.1,0.1,0.2,0.2,0.3,0.2c0,0,0,0,0,0c0.1,0.1,0.2,0.2,0.2,0.2c0,0-0.1,0,0,0.2c0.3,0.2,0.8,0.6,1.1,1c0.1-0.1,0.2,0.2,0.3,0.2
					c0,0,0,0.1,0,0.1c0.3,0.2,0-0.1,0.1-0.1c0.1,0.1,0.2,0.2,0.1,0.2c0.2,0.1,0,0,0.2,0l0,0.2c0.1,0.1,0.3,0.2,0.5,0.3
					c0.2,0.1,0.4,0.2,0.6,0.3l0.3,0.2l0.1,0.1c0,0,0,0,0,0L48,68.1L48,68.1z M45.6,66.4C45.5,66.4,45.5,66.3,45.6,66.4
					C45.5,66.3,45.5,66.4,45.6,66.4z M47.3,67.7C47.3,67.7,47.3,67.7,47.3,67.7C47.3,67.7,47.3,67.7,47.3,67.7z M46.9,64.5
					c0,0.1,0,0.1,0,0.2C46.9,64.7,46.9,64.6,46.9,64.5z M46.8,64.2C46.8,64.1,46.8,64.1,46.8,64.2c0-0.1,0-0.1-0.1-0.1
					C46.8,64.1,46.8,64.1,46.8,64.2z M46.8,63.9C46.8,63.9,46.8,63.9,46.8,63.9C46.8,63.9,46.8,63.9,46.8,63.9
					C46.8,63.9,46.8,63.9,46.8,63.9z M44.6,52.9c0.1,0,0,0.1,0,0.2L44.6,52.9c0.1-0.1,0.1-0.1,0.2-0.1c-0.1,0.2-0.1,0.3-0.2,0.5
					c0,0,0,0,0,0c0-0.1,0-0.1-0.1-0.2C44.6,53.1,44.5,53,44.6,52.9z M44.2,54.1c-0.1-0.2,0.1-0.1,0.1-0.4c0,0.1,0,0.2,0,0.3
					c0,0,0,0,0,0c0,0.1-0.1,0.3-0.1,0.5C44.2,54.3,44.2,54.2,44.2,54.1L44.2,54.1z M44,55C44,55,44,55,44,55C44,55,44,55,44,55
					L44,55z M43.6,56.5L43.6,56.5c0,0.1,0,0.2,0,0.4c0,0.1,0,0.2,0,0.3c0-0.1-0.1,0-0.1-0.1C43.5,56.9,43.6,56.7,43.6,56.5z
					 M43.5,58.3c0-0.1,0-0.1,0-0.2C43.5,58.2,43.5,58.3,43.5,58.3C43.5,58.3,43.5,58.3,43.5,58.3z M44.1,64.3
					C44.1,64.3,44.1,64.4,44.1,64.3C44.1,64.4,44.1,64.3,44.1,64.3C44.1,64.3,44.1,64.3,44.1,64.3z M44.2,64.4c0,0,0,0.1,0,0.1
					c0,0,0,0,0,0C44.1,64.5,44.2,64.5,44.2,64.4z M45.8,66.6C45.8,66.6,45.8,66.6,45.8,66.6C45.8,66.6,45.8,66.6,45.8,66.6
					C45.8,66.6,45.8,66.6,45.8,66.6z M47.6,67.8c0,0,0.1,0.1,0.1,0.1c0,0,0,0,0,0.1C47.7,67.9,47.6,67.9,47.6,67.8z"/>
				<path id="XMLID_2772_" class="st1" d="M68.6,64.9L68.6,64.9c0.1-0.3,0.2-0.5,0.2-0.8c0,0,0,0,0,0.1c0.1-0.1,0.2-0.4,0.2-0.6
					c0-0.1,0-0.2,0-0.2c0-0.1,0-0.1,0-0.2l0,0c0.1-0.3,0.1-0.6,0.2-1c0.1-0.3,0.1-0.5,0.1-0.8c0,0,0,0,0,0l0,0.1c0-0.1,0-0.2,0-0.3
					c0.1-0.4,0.1-0.8,0.1-1.1c0,0,0,0,0,0c0,0,0-0.1,0-0.1c0.3-3.9-0.7-6.7-1.6-8.5c0,0,0,0,0,0c0,0,0,0,0,0
					c-0.1-0.1-0.2-0.3-0.2-0.4c0,0,0,0,0,0c0-0.1-0.1-0.1-0.1-0.2c0,0,0,0,0,0c0,0,0,0,0,0l0,0c0,0,0,0,0,0
					c-0.1-0.1-0.1-0.2-0.2-0.3l0,0l0,0c0,0-0.1-0.1-0.1-0.1l0.1,0l-0.1-0.1c0,0,0,0,0,0c-0.1-0.1-0.1-0.2-0.2-0.2c0,0,0-0.1-0.1-0.2
					c-0.1-0.1-0.2-0.1-0.2-0.2c-0.1-0.1-0.1-0.1-0.2-0.2c-0.2-0.2-0.3-0.3-0.3-0.3c-0.1-0.1-0.1-0.1-0.1-0.2
					c-0.8-0.2-1.8-0.4-2.9-0.5c0.2,0.6,0.7,1.8,1.2,3.5c0,0,0,0.1-0.1,0c0-0.2-0.2-0.8-0.3-1.1c0,0.1,0.1,0,0.1,0.2
					c0-0.1-0.1-0.2-0.1-0.2C64,50.6,64,50.3,64,50.1l0,0.1c-0.1-0.1-0.1-0.5-0.2-0.7l0,0c0-0.1-0.2-0.1-0.2-0.3
					c0.1,0,0.1,0.1,0.2,0.1c0,0-0.2-0.2-0.2-0.3c0-0.1-0.2-0.5-0.1-0.3c-0.1-0.1-0.1-0.1-0.1-0.2c0,0,0-0.1-0.1-0.1c0,0,0.1,0,0.1,0
					c0.1,0,0.2,0,0-0.1c-0.1,0-0.2,0-0.3,0c0,0.1,0.1,0.2,0.1,0.3c0.1,0.2,0.1,0.4,0.2,0.5c0.1,0.2,0.2,0.5,0.3,0.7
					c0.2,0.5,0.3,1,0.5,1.4L64.1,51c0.3,0.4,0.1,0.7,0.4,1l-0.1,0c0,0.2,0.3,0.4,0.2,0.6l0,0c0,0.1,0,0.1,0,0.2l0,0
					c0.1,0.1,0.1,0.3,0.1,0.4c0,0,0-0.1-0.1-0.1c0,0.1,0.1,0.2,0.1,0.3c0,0.1,0,0-0.1,0c0.1,0.4,0,0.6,0.3,0.8c0,0,0-0.1,0.1,0
					c0-0.1,0-0.1,0-0.2c0,0.1,0.1,0.3,0.1,0.4c-0.1-0.1-0.1-0.3-0.2-0.1l0,0c0.1,0.2,0,0.2,0,0.4c0.1,0.2,0.2,0.3,0.2,0.5
					c0,0.1,0,0.1-0.1,0.1c0,0.2,0.1,0.3,0.2,0.4c-0.3,0.1,0.2,0.6,0,0.9c0,0.2,0,0.4,0.1,0.7c-0.1-0.1,0,0.2-0.1,0.2
					c0.2,0.1,0,0.7,0.2,0.7c0,0.3,0,0,0,0.4c0,0,0-0.1,0-0.1c0,0.2,0.1,0.2,0,0.4c0,0.2,0,0.1,0.1,0.2c0,0.1,0,0.2,0,0.3
					c0,0.1-0.1,0.1-0.1,0.2c0.1,0,0.1,0.2,0.1,0.4c0,0,0,0,0-0.1c0,0.1,0,0.2,0,0.3c0-0.1,0-0.1-0.1-0.2c0,0.3,0,0.6,0.1,1
					c0,0.2-0.1-0.1-0.1,0c-0.1,0.3,0.1,0.5,0,0.7l-0.1-0.1c0.1,0.2,0,0.6,0,0.9c0,0,0,0,0,0c0,0,0,0,0,0c0,0,0,0.1,0,0.3
					c0,0.1,0,0.3,0,0.4c0,0,0,0,0,0c0,0,0,0,0,0c0,0.1,0,0.1,0,0.2c0-0.1-0.1-0.1-0.1-0.2c0,0.2-0.1,0.5,0,0.7l-0.1-0.1
					c0,0.2,0,0.2,0,0.3c0,0.1,0,0.1,0,0.2l0,0c-0.1,0.6-0.3,1.2-0.3,1.6c0,0,0,0,0,0c0,0.1-0.1,0.2-0.1,0.4c0,0-0.1-0.1-0.1,0.1
					c-0.1,0.4-0.2,1-0.4,1.5c0.1,0.1-0.1,0.3-0.1,0.4c0,0-0.1,0-0.1,0c-0.1,0.3,0.1,0,0.1,0c0,0.1-0.1,0.2-0.2,0.2
					c-0.1,0.3,0,0,0,0.1c0,0-0.2,0.2-0.2,0.2c0,0.1-0.1,0.2-0.1,0.3c-0.1,0.1,0.1,0,0.1,0l0.2-0.1c0.2-0.1,0.4-0.2,0.7-0.3
					c0.4-0.2,0.8-0.3,1.2-0.5l-0.1,0c0.3-0.1,0.6-0.3,0.9-0.5c0,0,0,0,0,0.1c0.1-0.1,0.2-0.1,0.3-0.2L67,67.7
					c0.1-0.1,0.2-0.1,0.3-0.1c0.1-0.1,0.1-0.1,0-0.1c0.1-0.1,0.3-0.1,0.4-0.2c0,0,0,0.1-0.1,0.1c-0.1,0-0.2,0.1-0.3,0.2
					c0,0,0,0,0,0.1c0.1-0.1,0.2-0.1,0.3-0.2c0,0,0.1-0.1,0.2-0.1c0.1,0,0.1-0.2,0.1-0.2c0-0.1-0.1-0.1-0.1-0.1c0,0,0-0.1,0.1-0.1
					c0,0.1,0,0.1,0.1,0.1C68,67,68,66.9,68,66.8c-0.1,0.2-0.1,0-0.1,0c0,0,0,0,0-0.1c0-0.1,0-0.1,0.1-0.2c0,0,0,0,0,0l0,0.2
					C68.2,66.2,68.5,65.5,68.6,64.9l0,0.3C68.5,65.2,68.6,65,68.6,64.9z M64.8,52.8C64.8,52.8,64.8,52.9,64.8,52.8
					C64.8,52.9,64.8,52.8,64.8,52.8z M64.6,52.5c0-0.1-0.1-0.1-0.1-0.2c0.1-0.1,0.1,0.1,0.1,0.1l-0.1-0.2c0-0.1,0-0.1,0-0.2
					c0,0.2,0.1,0.3,0.1,0.5c0,0,0,0,0,0.1C64.7,52.6,64.6,52.6,64.6,52.5z M64.9,53.5L64.9,53.5c-0.2-0.1,0-0.1-0.1-0.4
					c0.1,0.1,0.1,0.2,0.2,0.2c0,0,0,0,0,0c0,0.2,0.1,0.4,0.1,0.6C65,53.8,64.9,53.6,64.9,53.5z M65.1,54.5
					C65.2,54.5,65.2,54.5,65.1,54.5C65.1,54.5,65.1,54.5,65.1,54.5L65.1,54.5z M65.4,56.8c0-0.2,0-0.4,0-0.6l0.1,0
					c0,0.1,0,0.2,0,0.3C65.5,56.6,65.5,56.7,65.4,56.8C65.4,56.8,65.4,56.8,65.4,56.8z M65.6,58c0-0.1,0-0.2,0-0.2
					C65.6,57.9,65.6,58,65.6,58C65.6,58.1,65.6,58,65.6,58z M65.7,61C65.7,61,65.7,61,65.7,61C65.7,61,65.7,61,65.7,61
					C65.7,61,65.7,61,65.7,61z M65.2,64.8c0-0.2,0.1-0.1,0.1-0.3c0,0,0,0,0,0C65.3,64.6,65.2,64.7,65.2,64.8
					C65.2,64.8,65.2,64.8,65.2,64.8z M64.5,67.5C64.5,67.5,64.5,67.5,64.5,67.5C64.5,67.5,64.5,67.5,64.5,67.5
					C64.5,67.5,64.5,67.5,64.5,67.5z M65,68.6c0,0-0.1,0-0.1,0C64.9,68.6,64.9,68.6,65,68.6C65,68.6,65,68.6,65,68.6z M68.1,66.2
					C68.1,66.2,68.1,66.2,68.1,66.2C68.1,66.2,68.1,66.2,68.1,66.2z M68.3,65.7C68.3,65.6,68.3,65.6,68.3,65.7
					C68.3,65.6,68.3,65.7,68.3,65.7C68.3,65.7,68.3,65.7,68.3,65.7z"/>
				<path id="XMLID_2757_" class="st1" d="M63,49.9c0-0.1-0.1-0.2-0.2-0.3c0-0.1-0.1-0.2-0.1-0.3c-0.2-0.5-0.3-0.8-0.3-0.8
					c0,0,0,0,0,0c-0.3,0-0.5,0-0.8-0.1c0,0,0,0,0,0c0,0-0.9-0.1-2.3-0.1c0.2,0.6,0.5,1.7,0.7,3.6c0,0,0,0.1-0.1,0
					c0.1-0.2,0-0.9-0.2-1.3c0,0.1,0.1,0,0.1,0.2c0-0.1-0.1-0.2-0.1-0.2c-0.1-0.2-0.1-0.5-0.1-0.8l0,0.1c-0.1-0.2,0-0.5-0.2-0.8l0,0
					c0-0.1-0.1-0.1-0.1-0.1c0,0,0-0.1-0.1-0.1c0,0,0-0.1,0-0.2c0.1,0.1,0.1,0.2,0.2,0.2c0,0,0,0-0.1-0.2c-0.1-0.1-0.1-0.2-0.1-0.2
					c0,0,0-0.2-0.1-0.3c0-0.1,0-0.1,0.1,0c0,0,0,0,0,0c0.1,0,0.3,0,0.4,0c0.2,0,0.2,0,0.1-0.1c-0.3,0-1-0.2-0.7,0.4
					c0,0.1,0.1,0.2,0.1,0.3l0,0.2c0,0.1,0.1,0.3,0.1,0.4c0.1,0.5,0.2,1.1,0.4,1.6l-0.1-0.2c0.2,0.5,0,0.7,0.2,1.1l-0.1,0
					c0,0.2,0.2,0.4,0.1,0.7l0,0c0,0.1,0,0.1,0,0.2l0,0c0.1,0.2,0.1,0.3,0,0.5c0,0,0-0.1,0-0.1c0,0.1,0.1,0.2,0.1,0.3
					c0,0.1-0.1,0-0.1,0c0.1,0.4,0,0.6,0.2,0.9c0,0,0-0.1,0.1,0c0-0.1,0-0.1,0-0.1c0,0.1,0,0.3,0,0.4c0-0.1-0.1-0.3-0.1-0.1l0,0.1
					c0.1,0.3-0.1,0.2-0.1,0.4c0,0.2,0.2,0.4,0.2,0.6c0,0.1,0,0.1-0.1,0.1c0,0.2,0.1,0.3,0.1,0.4c-0.3,0.1,0.1,0.7-0.1,1
					c0,0.2,0,0.5,0.1,0.7c-0.1-0.1,0,0.2-0.1,0.2c0.2,0.1-0.1,0.7,0.1,0.8c-0.1,0.3,0,0,0,0.4c0,0,0-0.1,0-0.1c0,0.2,0.1,0.2,0,0.4
					c0,0.3,0,0.1,0.1,0.2c0,0.1,0,0.2,0,0.3c0,0.1-0.1,0.1-0.1,0.2c0.1,0,0,0.2,0.1,0.4c0,0,0,0,0,0c0,0.1,0,0.1,0,0.2
					c0-0.1,0-0.1-0.1-0.2c0,0.3,0,0.7,0,1c0,0.2,0-0.1-0.1,0c-0.1,0.3,0.1,0.5,0,0.8L60,62.2c0.1,0.2-0.1,0.6,0,0.9c0,0,0,0,0,0
					c0,0,0,0,0,0c0,0,0,0.1,0,0.2c0,0.2,0,0.4,0,0.7c0-0.1-0.1-0.1-0.1-0.2c0,0.2,0,0.5,0,0.7l-0.1-0.1c0,0.2,0,0.2,0.1,0.3
					c0,0.1,0,0.2,0,0.2l0,0c0,0.6-0.2,1.3-0.1,1.8c0,0,0,0,0,0c0,0.1,0,0.3,0,0.4c0,0-0.1-0.1-0.1,0.1c0,0.4-0.1,1.1-0.2,1.6
					c0.1,0.1,0,0.3,0,0.4c0,0,0,0,0,0c0,0-0.1,0-0.1,0c0,0.3,0.1,0,0.1,0c0,0,0,0.1,0,0.1c0,0.1-0.1,0.1-0.1,0.1c0,0.2,0,0,0.1,0.2
					c0,0,0,0,0,0c0,0-0.1,0.2-0.1,0.2c0,0.1,0,0.2,0,0.4c0,0,0,0,0.1,0l0.1,0l0.2,0c0.2-0.1,0.5-0.1,0.7-0.2
					c0.4-0.1,0.9-0.2,1.3-0.3l-0.1,0c0.3-0.1,0.7-0.2,1.1-0.3c0,0,0,0.1,0,0.1c0.1-0.1,0.2-0.1,0.3-0.1l-0.2,0c0,0,0.1,0,0.1-0.1
					c0.1,0,0.1,0,0.2,0c0,0,0,0,0,0c0,0,0.1,0,0.1,0c0-0.1,0-0.1,0-0.1c0.1-0.1,0.1-0.3,0.2-0.4c0,0,0,0.1,0,0.1
					c-0.1,0-0.1,0.2-0.2,0.4c0,0,0.1,0,0.1,0.1c0-0.1,0.1-0.2,0.1-0.2c0-0.1,0-0.1,0.1-0.2c0-0.1,0.1-0.2,0.2-0.4
					c0-0.1-0.1-0.1-0.1-0.1c0,0,0-0.1,0.1-0.1c0,0.1,0,0.1,0.1,0.1c0.1-0.1,0-0.2,0.1-0.2c-0.1,0.2-0.1,0.1-0.1,0
					c0-0.1,0.1-0.2,0.1-0.3c0,0,0,0,0,0l0,0.2c0.1-0.3,0.2-0.6,0.3-0.9c0.1-0.3,0.2-0.7,0.3-1L64,66.5c0,0,0-0.1,0-0.2
					c0.1-0.2,0.1-0.4,0.2-0.6c0,0,0,0,0,0c0,0,0,0,0,0c0-0.1,0.1-0.2,0.1-0.3c0,0,0,0.1,0,0.1c0.1-0.2,0.1-0.5,0.2-0.7
					c0-0.1,0-0.2,0-0.2c0-0.1,0-0.1,0-0.2l0,0c0.1-0.3,0.1-0.7,0.1-1c0-0.3,0.1-0.5,0.1-0.8c0,0,0,0,0,0l0,0.1c0-0.1,0-0.2,0-0.4
					c0-0.4,0.1-0.8,0.1-1.2c0,0,0,0,0,0c0,0,0-0.1,0-0.1c0.1-3.7-0.5-6.9-1.2-9.2c0,0,0,0,0,0c0,0,0,0,0,0c0-0.2-0.1-0.3-0.1-0.5
					c0,0,0,0,0,0c0-0.1,0-0.1-0.1-0.2c0,0,0,0,0,0c0,0,0,0,0,0l0,0c0,0,0,0,0-0.1c0-0.1-0.1-0.2-0.1-0.3l0,0l0,0
					c0-0.1,0-0.1-0.1-0.2l0.1,0l-0.1-0.2c0,0,0,0,0,0c0-0.1-0.1-0.2-0.1-0.3C63,50.1,63,50.1,63,49.9z M60,52.8
					C60,52.9,60,52.9,60,52.8C60,52.9,60,52.9,60,52.8z M59.9,52.5c0.1-0.1,0-0.1,0-0.3c0.1-0.1,0.1,0.1,0.1,0.2l-0.1-0.2
					c0-0.1,0-0.2,0.1-0.2c0,0.2,0,0.4,0.1,0.6c0,0,0,0,0,0.1C60,52.6,59.9,52.5,59.9,52.5z M60,53.6L60,53.6c-0.2-0.1,0-0.1-0.1-0.4
					c0.1,0.1,0.1,0.2,0.1,0.3c0,0,0,0,0,0c0,0.2,0,0.4,0,0.6C60.1,53.9,60.1,53.7,60,53.6z M60.1,54.6
					C60.1,54.7,60.1,54.7,60.1,54.6C60.1,54.7,60.1,54.7,60.1,54.6L60.1,54.6z M60.1,57.1c0-0.3,0.1-0.4,0-0.6l0.1,0
					c0,0.1,0,0.2,0,0.3c0,0.1,0,0.3,0,0.4C60.2,57.1,60.1,57.2,60.1,57.1z M60.2,58.4c0-0.1,0-0.2,0-0.2
					C60.2,58.3,60.2,58.4,60.2,58.4C60.2,58.5,60.2,58.4,60.2,58.4z M59.8,65.3C59.8,65.4,59.8,65.4,59.8,65.3
					C59.8,65.4,59.8,65.4,59.8,65.3C59.8,65.3,59.8,65.3,59.8,65.3z M59.8,65.7c0-0.1,0-0.1,0.1-0.2C59.8,65.5,59.8,65.6,59.8,65.7
					C59.8,65.6,59.8,65.6,59.8,65.7z M59.5,68.2C59.5,68.2,59.5,68.2,59.5,68.2C59.5,68.2,59.5,68.2,59.5,68.2z M59.5,68.6
					C59.5,68.6,59.5,68.6,59.5,68.6C59.5,68.6,59.5,68.6,59.5,68.6C59.5,68.6,59.5,68.6,59.5,68.6z M60.4,70c0,0-0.1,0-0.1,0
					C60.3,70,60.4,70,60.4,70C60.4,70,60.4,70,60.4,70z M63.6,67.5C63.6,67.6,63.6,67.6,63.6,67.5C63.6,67.6,63.6,67.5,63.6,67.5z
					 M63.8,67C63.8,67,63.8,67,63.8,67C63.8,67,63.8,67,63.8,67C63.8,67,63.8,67,63.8,67z"/>
				<path id="XMLID_2746_" class="st1" d="M59.1,64.8c0-0.1,0-0.1,0-0.2l0.1,0c0-0.3,0.1-0.8,0-1.1c0-0.1,0-0.2,0-0.2c0,0,0,0,0,0
					c0,0,0,0,0,0c0-0.2,0-0.3,0-0.5c0,0,0,0,0,0l0,0.1c0-0.1,0-0.3,0-0.4c0-0.2,0-0.4,0-0.6c0,0,0,0,0,0c0-0.1,0-0.1,0-0.1
					c0-0.1,0-0.3,0-0.4c0,0,0,0,0,0c0,0,0-0.1,0-0.1c0.2-4.3,0-7.3-0.2-9.4c0,0,0,0,0,0c0,0,0,0,0,0c0-0.2,0-0.3-0.1-0.5
					c0,0,0,0,0,0c0-0.1,0-0.1,0-0.2c0,0,0,0,0,0c0,0,0,0,0,0l0,0c0,0,0,0,0-0.1c0-0.1,0-0.2-0.1-0.3l0,0l0,0c0-0.1,0-0.1,0-0.2
					l0.1,0.1l-0.1-0.2c0,0,0,0,0,0c0-0.1,0-0.2-0.1-0.3c0,0,0-0.1,0-0.2c0-0.1-0.1-0.2-0.1-0.3c0-0.1,0-0.2-0.1-0.3
					c-0.1-0.4-0.2-0.7-0.2-0.9c-0.1,0-0.3,0-0.4,0c-0.7,0-1.6,0-2.5,0.1c0,0.1,0,0.1,0,0.2c0,0-0.1,0.3-0.3,0.7
					c-0.3,0.6-0.6,1.6-1,2.8c0,0,0,0.1-0.1,0c0.1-0.1,0.3-0.9,0.4-1.2c0,0.1,0.1,0.1,0,0.2c0,0,0.1-0.2,0-0.3c0-0.2,0.2-0.5,0.3-0.7
					l-0.1,0c0-0.2,0.2-0.4,0.3-0.8l0,0c0-0.1,0-0.2,0.1-0.4c0,0.1,0,0.2,0,0.2l0.1-0.3c0.1,0,0.2-0.4,0.2-0.2c0,0,0-0.1,0-0.1
					c0-0.1,0-0.1,0-0.2c0.2-0.1,0.4,0,0.2-0.1c-0.1,0-0.2,0-0.3,0c0,0.1,0,0.3,0,0.3l-0.1,0.2c0,0.1-0.1,0.2-0.1,0.3
					c-0.1,0.2-0.2,0.5-0.3,0.7c-0.2,0.5-0.4,1-0.5,1.4l0-0.2c-0.1,0.5-0.3,0.7-0.3,1.1L53.9,52c-0.1,0.2,0,0.5-0.2,0.7l0.1,0
					c0,0.1,0,0.1-0.1,0.2l0,0c0,0.2,0,0.3-0.1,0.5c0,0,0-0.1,0-0.1c-0.1,0.1,0,0.2,0,0.4c-0.1,0.1,0,0-0.1,0c0,0.4-0.2,0.6-0.1,0.9
					c0,0,0.1-0.1,0.1,0.1c0,0,0-0.1,0-0.1c0,0.1-0.1,0.2-0.1,0.4c0-0.1,0-0.3-0.1-0.2l0,0.1c0,0.3-0.1,0.2-0.2,0.4
					c0,0.2,0.1,0.4,0,0.6c0,0.1-0.1,0.1-0.1,0c0,0.2,0.1,0.3,0.1,0.5c-0.3,0,0,0.7-0.2,1c0,0.2,0,0.5,0,0.7c-0.1-0.1,0,0.2-0.1,0.2
					c0.2,0.1-0.1,0.7,0.1,0.8c-0.1,0.3,0,0-0.1,0.4c0,0,0-0.1,0-0.1c-0.1,0.2,0.1,0.3,0,0.4c0,0.3,0,0.1,0.1,0.2c0,0.1,0,0.2,0,0.3
					c0,0.1-0.1,0.1-0.1,0.2c0.1,0,0.1,0.2,0.1,0.3c0,0.1,0,0.1,0,0.2c0-0.1,0-0.1-0.1-0.2c0,0.3,0,0.7,0.1,1c0,0.2-0.1-0.1-0.1,0.1
					c0,0.2,0.1,0.4,0.1,0.5c0,0.1,0,0.2,0,0.2l-0.1,0c0.1,0.2,0,0.6,0.1,0.9c0,0,0,0,0,0c0,0,0,0,0,0c0,0,0,0.1,0,0.2
					c0,0.2,0.1,0.5,0.1,0.7c0,0-0.1-0.1-0.1-0.2c0.1,0.2,0.1,0.5,0.2,0.7l-0.1-0.1c0,0.1,0.1,0.2,0.1,0.3c0,0.1,0,0.2,0.1,0.3l0,0
					c0.1,0.3,0.1,0.6,0.2,0.9c0.1,0.3,0.2,0.5,0.3,0.8c0,0.1,0.1,0.3,0.1,0.4c0,0-0.1,0,0,0.1c0.1,0.4,0.4,1,0.6,1.6
					c0.1,0,0.1,0.2,0.2,0.3c0,0,0,0,0,0c0,0,0,0.1-0.1,0.1c0.1,0.3,0,0,0.1,0c0,0,0,0.1,0.1,0.1c0,0.1,0,0.1,0,0.1
					c0.1,0.2,0,0,0.1,0.1c0,0,0,0,0,0l0,0.2c0.1,0.1,0.1,0.2,0.2,0.3c0.1,0,0.3,0,0.4,0c0.2,0,0.4,0,0.7,0c0.5,0,0.9,0,1.4,0.1
					l-0.1-0.1c0.3,0,0.5,0,0.8,0c0,0,0.1,0,0.2,0c0,0,0-0.1,0-0.1c0,0,0.1,0,0.1,0c0-0.1,0-0.2,0-0.3l-0.1,0.2c0,0,0-0.1,0-0.1
					c0,0,0-0.1,0-0.1c0,0,0-0.1,0.1-0.1c0-0.1,0-0.1,0-0.1c0-0.1,0-0.3,0.1-0.4c0,0,0,0.1,0,0.1c-0.1,0.1,0,0.3,0,0.4
					c0,0,0.1,0,0.1,0c0-0.3,0-0.4,0.1-0.8c0-0.1-0.1-0.1-0.1,0c0,0,0-0.1,0-0.1c0,0.1,0,0.1,0.1,0.1c0-0.1,0-0.2,0-0.3
					c-0.1,0.2-0.1,0.1-0.1,0c0-0.1,0-0.2,0-0.3c0,0,0,0,0,0l0,0.2c0.1-0.6,0.2-1.4,0.2-2l0,0.3c0,0,0-0.2,0-0.3l0,0
					c0-0.2,0-0.4,0.1-0.6c0,0,0,0,0,0c0,0,0,0,0,0c0-0.1,0-0.2,0-0.3c0,0,0,0,0,0.1c0.1-0.2,0.1-0.5,0.1-0.7
					C59.1,64.9,59.1,64.8,59.1,64.8z M53.9,52.4c0.1,0,0,0.1,0,0.2L53.9,52.4c0.1-0.1,0.1-0.1,0.2-0.1c-0.1,0.2-0.1,0.4-0.2,0.6
					c0,0,0,0,0,0c0-0.1,0-0.1-0.1-0.2C54,52.6,53.9,52.5,53.9,52.4z M53.6,53.8c-0.1-0.2,0.1-0.1,0.1-0.5c0,0.1,0,0.2,0,0.3
					c0,0,0,0,0,0c0,0.2-0.1,0.3-0.1,0.5C53.6,53.9,53.6,53.8,53.6,53.8L53.6,53.8z M53.5,54.8C53.5,54.8,53.5,54.8,53.5,54.8
					C53.5,54.8,53.5,54.8,53.5,54.8L53.5,54.8z M53.1,56.5L53.1,56.5c0,0.1,0,0.3,0,0.4c0,0.1,0,0.2,0,0.3c0-0.1-0.1,0-0.1-0.1
					C53,56.9,53.1,56.8,53.1,56.5z M52.9,58.6c0-0.1,0-0.1,0-0.2C53,58.5,53,58.5,52.9,58.6C53,58.6,53,58.6,52.9,58.6z M53.6,65.9
					c0-0.1,0-0.1,0-0.2C53.6,65.7,53.6,65.8,53.6,65.9C53.6,65.8,53.6,65.8,53.6,65.9z M56.3,70.3c-0.1,0-0.1,0-0.2,0
					C56.2,70.2,56.3,70.2,56.3,70.3C56.3,70.3,56.3,70.3,56.3,70.3z M58.8,68c0-0.1,0-0.1,0-0.2C58.8,67.9,58.8,67.9,58.8,68z
					 M58.8,67.4C58.8,67.3,58.8,67.3,58.8,67.4c0,0,0-0.1,0-0.1C58.8,67.3,58.8,67.3,58.8,67.4z"/>
				<path id="XMLID_2726_" class="st1" d="M64.1,73.5c0.2,0-0.1-0.1,0-0.3c0.1-0.1,0,0.2,0.1,0.1c-0.1,0,0-0.1-0.1-0.2
					c0.1,0,0-0.2,0.1-0.1l-0.2-0.3c0-0.1,0-0.1,0-0.2c0,0.1,0,0.1-0.1,0.1l0-0.2c0,0,0.1-0.1,0.2-0.1c0-0.2-0.1-0.3-0.2-0.4l0.1,0
					c0,0-0.1-0.1-0.1-0.1l0-0.1c0,0,0,0,0,0l0,0c0.1,0,0.1,0.1,0.2,0.1l0-0.1c0,0,0-0.1,0.1,0c-0.1-0.2,0-0.3,0-0.5c0,0,0,0,0,0.1
					c0,0,0,0.1,0,0.1c-0.1,0,0-0.1-0.1-0.1c0.1-0.1,0.1-0.2,0.1-0.4c0-0.1-0.1-0.1-0.1-0.1c-0.1,0-0.2,0.1-0.2,0.1
					c0.1-0.1-0.3,0-0.3-0.1c0,0.1-0.2,0.1-0.2,0.1c-0.1,0-0.2,0-0.2,0c0,0,0,0,0,0l-0.1,0c0,0,0,0,0,0c-0.1,0,0,0.1-0.1,0
					c0,0,0,0,0.1-0.1c-0.2,0-0.3,0.2-0.4,0.1c0,0-0.2,0.1-0.1,0.2c-0.1,0-0.1-0.1-0.2-0.1c-0.1,0.1-0.2,0-0.3,0.1
					c0.1-0.1,0,0,0.1-0.1c-0.1,0-0.2,0.1-0.4,0.1c0,0,0,0,0-0.1c-0.1,0-0.1,0.1-0.2,0.1l0,0.1c-0.1,0-0.3,0-0.4,0l-0.1,0.1
					c-0.2-0.1-0.4,0-0.5,0.1c-0.1,0-0.1,0-0.2,0c0,0,0,0,0,0c0,0,0,0,0.1-0.1c-0.1,0-0.2,0-0.3,0.1C60,71.1,60,71,59.9,71
					c-0.2,0.1-0.6-0.1-0.7,0.2c0,0,0.1,0,0.2,0c-0.1,0-0.2,0-0.2,0l0-0.1c-0.3-0.1-0.5,0.2-0.8,0c-0.1,0-0.2,0.1-0.3,0.1
					c0,0,0,0-0.1,0l0,0c0,0,0,0-0.1,0c-0.1,0-0.2,0-0.3,0c0,0-0.1,0-0.1,0c-0.1,0-0.2,0-0.4,0c-0.2-0.1-0.3,0.1-0.5-0.1l0,0
					c0,0-0.1,0-0.1,0c0,0,0,0,0.1,0c-0.1,0-0.2,0-0.4,0c0,0,0,0,0,0c0,0,0,0,0,0c-2.8-0.1-4.7-0.7-4.9-0.7l0,0l0,0c0,0,0,0,0,0
					l0,0.2c0,0,0-0.1-0.1,0c0,0,0,0.1,0.1,0.2c0,0,0,0,0,0c0,0,0-0.1-0.1-0.1c-0.1,0.1,0,0.1,0,0.3l-0.1,0l0,0.2
					c0.1-0.1,0.1,0,0.2-0.1l0,0.2c0,0.1-0.1,0-0.1,0l0.1,0.1l0,0.1l0,0l0,0l0,0l0,0.2c0,0,0,0,0,0c0,0,0,0,0,0l0,0c0,0,0,0,0,0
					c0,0.1-0.1,0-0.1-0.1c0-0.1,0.1-0.1,0-0.2l-0.1,0.1c0,0.1,0.1,0.2,0.2,0.3l0,0.3c-0.1,0,0-0.2-0.1-0.2c0,0.1-0.1,0.2-0.1,0.2
					l0,0.1c0,0,0.1,0,0.2-0.1l0.1,1.8c1.4,0.4,2.7,0.6,4.1,0.7c-0.2,0-0.4,0-0.5,0c-0.2,0-0.3,0-0.5,0c-0.6-0.1-1.2-0.2-1.9-0.3
					l-0.1,0.1c0-0.1-0.2,0-0.1-0.1c0,0,0.1,0,0.1,0c-0.1-0.1-0.4-0.1-0.5-0.2c0,0,0,0.1,0,0.1c0-0.1-0.2,0-0.2-0.2
					c-0.2-0.1,0,0.1-0.3,0c-0.1,0.1,0.2,0.1,0.2,0.1c0,0-0.2-0.1-0.2,0c0.1,0,0.1,0,0.2,0.1c0,0,0.1,0,0.1,0c0.1,0,0.2,0,0.3,0
					c0.2,0,0.5,0,0.7,0.1l-0.1,0.1c0.2,0,0.6,0.1,0.7,0.2c0-0.1,0.3,0.1,0.3-0.1c0.1,0,0.1,0,0.1,0.1l0,0c0.1,0,0.1,0.1,0.2,0.1
					c-0.1-0.1,0-0.1,0.1-0.1c0.1,0.1,0.3,0.2,0.4,0.2c0,0,0,0-0.1-0.1c0.1,0,0.1,0,0.1,0c0.1,0,0.1,0.1,0.1,0.1c0.2,0,0.2-0.1,0.4,0
					l0-0.1c0.2,0,0.3,0.1,0.5,0.1c0.1,0.1-0.2,0.1-0.2,0.1c0,0,0.1,0,0.1,0.1c0.1,0,0.2-0.1,0.3-0.1c-0.1,0.1,0.1,0.1,0.2,0.1
					c0,0-0.1-0.1-0.1-0.1c0-0.1,0.1,0,0.2-0.1c-0.1,0,0-0.1,0-0.1c0.1,0,0.2,0,0.3,0c-0.1,0-0.1,0-0.2,0c0,0,0.1,0.1-0.1,0.1
					c0.1,0,0,0.1,0,0.1c0.1,0,0.2,0,0.3-0.1c0.1,0.1-0.1,0,0,0.1l0.1,0c0.1,0-0.1,0.1,0,0.1c0,0,0.1-0.1,0.2-0.1l0,0
					c0.1,0,0.2,0,0.1-0.1l0.1,0.1l0-0.1c0.2,0,0.3,0.2,0.5,0.1c-0.1,0,0-0.1,0-0.1c-0.1,0-0.1,0-0.2,0.1c0-0.1,0.2-0.1,0-0.2
					c0.1,0.1,0.3,0,0.3,0.1c0.2,0,0.2-0.1,0.4,0l0,0c0-0.1,0.1,0,0.3-0.1l-0.1,0c0,0,0,0,0.1-0.1c0,0,0,0,0,0c0-0.1,0.1-0.1,0.2-0.1
					c0.1,0,0.2,0,0.4,0l0.1,0.1c-0.1,0-0.1,0-0.1,0c-0.1,0.1,0,0.1,0,0.1c-0.1,0-0.2,0-0.3,0.1c0.2,0.1,0.2-0.1,0.5,0l0.1-0.2
					c0.1,0,0,0.1,0.1,0.1c0.1-0.1-0.1-0.1,0-0.2c0,0,0.1,0,0.1,0c0,0,0,0,0.1,0c0,0,0,0.1,0,0.1c0,0,0.1,0,0.2,0c-0.2,0,0.1,0,0-0.1
					c0,0,0,0,0.1-0.1c0,0,0.1,0,0.1,0c0,0,0,0,0,0c0,0-0.1,0-0.1,0c0,0.1,0.1,0,0.1,0.1c0.1-0.1,0.4-0.1,0.5-0.2c0,0,0.1,0,0.1,0
					c0,0,0,0,0,0.1c0.1,0,0.1,0,0.1-0.1c0.1,0,0.2,0,0.3,0c0,0,0.2,0.1,0.2,0.1c0.2-0.2,0.3,0.1,0.5,0c0.1-0.1,0-0.1,0-0.1
					c0.1,0,0.2-0.1,0.2-0.1c0,0-0.1,0.1-0.1,0.1c0,0.1,0.1,0,0.2,0c0,0,0,0,0,0c0.2,0,0.1-0.1,0.4-0.1c0,0,0.1,0,0.1-0.1
					c0.2,0,0.1,0.1,0.3,0.1c0,0-0.1-0.1-0.1-0.2c0,0,0.1,0,0.1,0c0.2,0,0.2-0.1,0.4,0c0,0,0,0-0.1,0c0,0.1,0.2-0.1,0.3-0.1l0,0.1
					c0.1,0,0.2-0.1,0.4-0.1l0,0.1c0.1-0.1,0.3-0.1,0.5-0.2c0-0.2,0-0.4,0-0.5l0.1-0.1C64.2,73.1,64.2,73.7,64.1,73.5z M64,71.1
					L64,71.1l0-0.2C64.1,71,64.1,71,64,71.1z M63.9,70.5c0,0,0.1-0.1,0.2-0.1c0,0,0.1,0.2,0.1,0.3c0,0.1-0.1,0.1-0.1,0.1
					C64.1,70.5,64.1,70.5,63.9,70.5L63.9,70.5c-0.1,0-0.2,0-0.3,0.1c0,0,0,0,0,0C63.7,70.5,63.9,70.4,63.9,70.5z M62.8,70.7
					C62.8,70.7,62.8,70.7,62.8,70.7C62.8,70.7,62.8,70.7,62.8,70.7z M63.5,70.5C63.5,70.6,63.5,70.6,63.5,70.5
					C63.5,70.6,63.5,70.6,63.5,70.5C63.4,70.6,63.4,70.5,63.5,70.5z M61.7,70.8c0.3,0,0.2-0.1,0.4-0.2c0.1,0.1-0.2,0,0,0.1
					c-0.1,0-0.1,0.1-0.2,0.1C61.8,70.9,61.8,70.9,61.7,70.8C61.7,70.9,61.6,70.9,61.7,70.8z M61.2,70.9c0.1,0,0.1,0,0.2,0
					C61.3,70.9,61.3,70.9,61.2,70.9C61.2,70.9,61.2,70.9,61.2,70.9z M51.4,70.7C51.4,70.7,51.4,70.7,51.4,70.7
					C51.4,70.7,51.4,70.8,51.4,70.7C51.4,70.8,51.4,70.7,51.4,70.7z M55.7,74.7C55.7,74.7,55.7,74.6,55.7,74.7c0.1,0,0.2,0,0.3,0
					C55.9,74.7,55.8,74.7,55.7,74.7z M56.7,74.8c0.2-0.1,0-0.1,0-0.2c0.1,0,0.2,0,0.3,0C56.8,74.7,56.9,74.9,56.7,74.8z M57,74.7
					C57,74.7,56.9,74.7,57,74.7c0-0.1,0.1-0.1,0.1-0.1C57.1,74.7,57,74.7,57,74.7z M57.8,74.8L57.8,74.8c0.1-0.1,0.1-0.1,0.1-0.1
					C57.9,74.7,57.9,74.8,57.8,74.8z M58.4,74.7C58.4,74.7,58.4,74.7,58.4,74.7c0.1-0.1,0.2-0.1,0.2-0.1
					C58.6,74.7,58.5,74.7,58.4,74.7z M60.4,74.6c-0.1,0-0.2,0-0.2,0C60.3,74.5,60.3,74.5,60.4,74.6C60.4,74.5,60.4,74.5,60.4,74.6z
					 M61.2,74.4C61.2,74.4,61.2,74.4,61.2,74.4C61.2,74.4,61.2,74.4,61.2,74.4z M62.1,74.3c-0.3,0-0.4,0.2-0.6,0.1l-0.1,0.1
					c0,0,0-0.1,0-0.1C61.6,74.4,61.9,74.3,62.1,74.3L62.1,74.3z M63.8,74C63.8,74,63.8,74,63.8,74C63.8,74,63.8,74,63.8,74L63.8,74z
					 M64,73.9C64,73.9,64,73.9,64,73.9C64.1,73.9,64.1,73.9,64,73.9C64,73.9,64,73.9,64,73.9z M64.1,73.9
					C64.1,73.9,64.1,73.9,64.1,73.9C64.1,73.9,64.1,73.9,64.1,73.9C64.1,73.9,64.1,73.9,64.1,73.9z"/>
				<path id="XMLID_2712_" class="st1" d="M58.8,81.9c0,0-0.1,0-0.1,0l0-0.1C58.7,81.8,58.8,81.9,58.8,81.9c0-0.1,0-0.1,0-0.1
					c0,0.1-0.1,0-0.1,0l0-0.1c0,0,0,0,0,0l0.1,0.1c0-0.2,0-0.5,0-0.7l0,0.1c0,0,0-0.1-0.1-0.1l0,0l0-0.2c0,0,0,0,0,0c0,0,0,0,0,0
					l0-0.1c0,0,0,0,0,0c0.1-0.1,0-0.2,0-0.2c0-0.1,0-0.1-0.1-0.1l0-0.1l0.1,0c0-0.1,0-0.3-0.1-0.4l0-0.1c0,0,0,0,0,0c0,0,0,0,0,0
					l0-0.2c0,0,0,0,0,0l0,0c0,0,0-0.1,0-0.1l0-0.2c0,0,0,0,0,0c0,0,0,0,0,0l0-0.2c0,0,0,0,0,0c0,0,0,0,0,0l0-3.3c0,0,0,0,0,0
					c0,0,0,0,0,0l0-0.1c0,0,0-0.1,0-0.1c0,0,0,0,0,0c0,0,0,0,0,0c0,0,0,0-0.1,0c0,0,0,0,0,0c0,0,0,0,0,0c0,0,0,0,0,0c0,0,0,0,0,0
					c0,0-0.1,0-0.1,0l0,0l0,0c0,0,0,0-0.1,0c0,0,0,0,0,0l-0.1,0c0,0,0,0,0,0c0,0-0.1,0-0.1,0c0,0,0,0-0.1-0.1c0,0-0.1,0.1-0.1,0.1
					c0,0,0,0-0.1,0c0,0,0,0,0,0l0,2.7c0,0,0,0-0.1,0c0.1-0.1,0.1-0.3,0-0.4c0,0,0.1,0,0.1,0.1c0,0,0-0.1-0.1-0.1c0-0.1,0-0.2,0-0.3
					l-0.1,0c-0.1-0.1,0.1-0.2,0-0.3l0,0c0,0-0.1-0.1-0.1-0.1c0.1,0,0.1,0.1,0.1,0.1l-0.1-0.1c0,0,0-0.1,0.1-0.1
					c-0.1-0.1,0-0.2-0.1-0.2c0,0.3,0,0.7,0.1,1.1l-0.1-0.1c0.1,0.2-0.1,0.3,0.1,0.4l-0.1,0c0,0.1,0.2,0.2,0,0.3l0,0c0,0,0,0,0,0.1
					l0,0c0,0.1,0,0.1,0,0.2c0,0,0,0,0,0c0,0,0,0.1,0,0.1c0,0-0.1,0-0.1,0c0,0.1-0.1,0.2,0.1,0.3c0,0,0.1,0,0.1,0c0,0,0,0,0,0l0,0.1
					c0,0-0.1-0.1-0.1-0.1l0,0c0.1,0.1-0.1,0.1-0.1,0.1c0,0.1,0.2,0.1,0.1,0.2c0,0,0,0-0.1,0c0,0.1,0.1,0.1,0.1,0.2
					c-0.3,0,0.1,0.2-0.1,0.3c0,0.1,0,0.2,0.1,0.3c-0.1,0,0,0.1-0.1,0.1c0.2,0-0.1,0.3,0.1,0.3c-0.1,0.1,0,0,0,0.1c0,0,0,0,0,0
					c0,0.1,0.1,0.1,0,0.1c0,0.1,0,0.1,0.1,0.1l0,0.1c0,0-0.1,0-0.1,0.1c0.1,0,0.1,0.1,0.1,0.1l0,0l0,0.1c0,0,0,0-0.1-0.1
					c0,0.1,0,0.2,0.1,0.4c0,0.1-0.1,0-0.1,0c0,0.1,0,0.1,0.1,0.2l0,0c0,0,0,0,0,0.1l-0.1,0c0.1,0.1,0,0.2,0,0.3c0,0,0,0,0,0l0,0
					c0,0,0,0,0,0.1l0,0.2c0,0-0.1,0-0.1-0.1c0,0.1,0,0.2,0.1,0.3l-0.1,0c0,0.1,0,0.1,0.1,0.1l0,0.1l0,0c0,0.2-0.1,0.5,0,0.6
					c0,0,0,0,0,0c0,0,0,0.1,0,0.1c0,0-0.1,0-0.1,0.1c0.1,0.2,0.5,0.2,0.6,0.1c-0.1-0.1,0.1-0.1,0-0.2c0,0,0,0,0,0c0,0,0.1,0,0.1,0
					c0-0.1-0.1,0-0.1,0c0,0,0,0,0,0c0,0,0.1-0.1,0.1-0.1c0-0.1,0,0-0.1-0.1l0,0l0.1-0.1c0-0.3-0.1-0.6,0-0.9l-0.1,0l0-0.4
					c0,0,0.1,0,0.1,0c0,0,0-0.1,0-0.1l0,0.1c0,0,0,0,0,0l0,0c0,0,0,0,0.1,0c0,0,0,0-0.1,0l0-0.2c0,0,0.1,0,0.1,0c-0.1,0,0,0.1,0,0.1
					c0,0,0.1,0,0.1,0C58.8,82,58.8,82,58.8,81.9z M58.7,81.5L58.7,81.5C58.7,81.4,58.7,81.5,58.7,81.5z M58.7,81.3
					C58.7,81.3,58.7,81.3,58.7,81.3L58.7,81.3C58.7,81.3,58.7,81.3,58.7,81.3z M57.9,78.7C58,78.6,57.9,78.6,57.9,78.7
					C58,78.5,58,78.6,57.9,78.7L57.9,78.7c0-0.1,0.1-0.1,0.1-0.2l0,0.2c0,0,0,0,0,0C58,78.7,57.9,78.7,57.9,78.7z M58,79L58,79
					c-0.2,0,0,0,0-0.1C58,78.9,58,79,58,79C58,79,58,79,58,79l0.1,0.1C58,79.1,58,79.1,58,79z M58,79.4L58,79.4L58,79.4
					C58,79.4,58,79.4,58,79.4z M57.9,80.3c0-0.1,0.1-0.1,0-0.2l0.1,0L57.9,80.3C58,80.2,58,80.3,57.9,80.3
					C58,80.3,57.9,80.3,57.9,80.3z M58,80.8C58,80.7,58,80.7,58,80.8L58,80.8C58,80.8,58,80.8,58,80.8z M58,83.2L58,83.2
					C58,83.2,58,83.2,58,83.2C58,83.2,58,83.2,58,83.2z M58,83.3C57.9,83.3,58,83.3,58,83.3L58,83.3C58,83.3,58,83.3,58,83.3z
					 M58.4,84C58.4,84,58.4,84,58.4,84C58.4,84,58.4,84,58.4,84z M58.5,83.9C58.5,83.9,58.5,83.9,58.5,83.9
					C58.5,83.9,58.5,83.9,58.5,83.9C58.5,83.9,58.5,83.9,58.5,83.9z M58.7,83.1C58.7,83.1,58.7,83.1,58.7,83.1L58.7,83.1
					C58.7,83.1,58.7,83.1,58.7,83.1z"/>
				<polygon id="XMLID_2711_" class="st1" points="58.8,81.7 58.8,81.7 58.8,81.7 				"/>
				<path id="XMLID_2698_" class="st1" d="M60.9,78.5C60.9,78.4,60.9,78.4,60.9,78.5l-0.1-0.1C60.9,78.4,60.9,78.4,60.9,78.5
					C60.9,78.4,60.9,78.4,60.9,78.5C60.9,78.5,61,78.5,60.9,78.5c0.1-0.1,0-0.1,0.1-0.1c0,0-0.1,0-0.1,0l0,0c0,0,0.1,0,0.1,0
					c0,0,0,0,0,0c0,0-0.1,0-0.1,0l0-0.1c0,0,0,0,0,0l0.1,0c0-0.1,0-0.3,0-0.4l0,0.1c0,0,0,0-0.1-0.1l0,0l0-0.1c0,0,0,0,0,0
					c0,0,0,0,0,0l0-0.1c0,0,0,0,0,0c0.1,0,0-0.1,0-0.1c0,0,0,0-0.1,0l0,0l0.1,0c0-0.1,0-0.1-0.1-0.2l0,0c0,0,0,0,0,0c0,0,0,0,0,0
					l0-0.1c0,0,0,0,0,0l0,0c0,0,0,0,0-0.1l0-0.1c0,0,0,0,0,0c0,0,0,0,0,0l0-0.1c0,0,0,0,0,0c0,0,0,0,0,0l0-1.5c-0.1,0-0.2,0-0.2,0
					c0,0,0,0,0,0c0,0,0,0,0,0c0,0-0.1,0-0.1,0c0,0,0,0,0,0c0,0,0,0,0,0c0,0,0,0,0,0c0,0,0,0,0,0l0,0c0,0,0,0,0,0c0,0,0,0-0.1,0l0,0
					l0,0c0,0,0,0,0,0l0,0l0,0c0,0,0,0,0,0c0,0,0,0-0.1,0c0,0,0,0-0.1-0.1c0,0,0,0.1,0,0.1c0,0,0,0-0.1,0l0,1.5c0,0,0,0-0.1,0
					c0.1,0,0.1-0.2,0-0.2c0,0,0.1,0,0.1,0c0,0,0,0-0.1,0c0,0,0-0.1,0-0.1l-0.1,0c-0.1,0,0.1-0.1,0-0.2l0,0c0,0-0.1,0-0.1-0.1
					c0.1,0,0.1,0,0.1,0L60,76.3c0,0,0-0.1,0.1-0.1c-0.1,0,0-0.1-0.1-0.1c0,0.2,0,0.4,0.1,0.6l-0.1,0c0.1,0.1-0.1,0.1,0.1,0.2l-0.1,0
					c0,0,0.2,0.1,0,0.1l0,0c0,0,0,0,0,0l0,0c0,0,0,0.1,0,0.1c0,0,0,0,0,0c0,0,0,0,0,0.1c0,0-0.1,0-0.1,0c0,0.1-0.1,0.1,0.1,0.2
					c0,0,0.1,0,0.1,0c0,0,0,0,0,0l0,0.1c0,0-0.1-0.1-0.1,0l0,0c0.1,0-0.1,0-0.1,0.1c0,0,0.2,0.1,0.1,0.1c0,0,0,0-0.1,0
					c0,0,0.1,0.1,0.1,0.1c-0.3,0,0.1,0.1-0.1,0.2c0,0,0,0.1,0.1,0.1c-0.1,0,0,0-0.1,0c0.2,0-0.1,0.1,0.1,0.1c-0.1,0.1,0,0,0,0.1
					c0,0,0,0,0,0c0,0,0.1,0,0,0.1c0,0,0,0,0.1,0l0,0.1c0,0-0.1,0-0.1,0c0.1,0,0.1,0,0.1,0.1l0,0l0,0c0,0,0,0-0.1,0
					c0,0.1,0,0.1,0.1,0.2c0,0-0.1,0-0.1,0c0,0,0,0.1,0.1,0.1l0,0c0,0,0,0,0,0l-0.1,0c0.1,0,0,0.1,0,0.2c0,0,0,0,0,0v0c0,0,0,0,0,0
					l0,0.1c0,0-0.1,0-0.1,0c0,0,0,0.1,0.1,0.1l-0.1,0c0,0,0.1,0,0.1,0c0,0,0,0,0,0l0,0c0,0.1,0.2,0.3,0.3,0.2c0,0,0,0,0,0
					c0,0,0,0,0.1,0c0,0,0,0,0,0c0,0,0,0.1,0,0.1c0.1,0,0.2-0.1,0.3-0.2c-0.1-0.1,0-0.1,0-0.1c0,0,0,0,0,0c0,0,0.1,0,0.1,0
					c0-0.1-0.1,0-0.1,0c0,0,0,0,0,0c0,0,0.1,0,0.1,0c0-0.1,0,0-0.1,0l0,0c0,0,0.1,0,0.1,0c0-0.2-0.1-0.3,0-0.5l-0.1,0L60.9,78.5
					C60.9,78.5,60.9,78.5,60.9,78.5C60.9,78.5,60.9,78.5,60.9,78.5L60.9,78.5C60.9,78.5,60.9,78.5,60.9,78.5L60.9,78.5
					C60.9,78.5,60.9,78.5,60.9,78.5z M60.9,78.1L60.9,78.1C60.9,78.1,60.9,78.1,60.9,78.1z M60.9,78C60.9,78,60.9,78,60.9,78
					L60.9,78C60.9,78,60.9,78,60.9,78z M60,77C60.1,77,60,77,60,77C60.1,77,60.1,77,60,77L60,77c0-0.1,0.1-0.1,0.1-0.1l0,0.1
					c0,0,0,0,0,0C60.1,77,60.1,77,60,77z M60.1,77.2L60.1,77.2C59.9,77.2,60.1,77.2,60.1,77.2C60.1,77.2,60.1,77.2,60.1,77.2
					C60.2,77.2,60.2,77.2,60.1,77.2L60.1,77.2C60.1,77.3,60.1,77.2,60.1,77.2z M60.1,77.4L60.1,77.4L60.1,77.4
					C60.2,77.4,60.1,77.4,60.1,77.4z M60.1,77.9c0,0,0.1-0.1,0-0.1l0.1,0L60.1,77.9C60.1,77.9,60.1,77.9,60.1,77.9
					C60.1,77.9,60.1,77.9,60.1,77.9z M60.1,78.1C60.1,78.1,60.1,78.1,60.1,78.1L60.1,78.1C60.1,78.1,60.1,78.1,60.1,78.1z
					 M60.2,79.4C60.2,79.4,60.2,79.4,60.2,79.4C60.2,79.4,60.2,79.4,60.2,79.4C60.2,79.4,60.2,79.4,60.2,79.4z M60.2,79.5
					C60.2,79.5,60.2,79.5,60.2,79.5C60.2,79.5,60.2,79.5,60.2,79.5C60.3,79.5,60.2,79.5,60.2,79.5z M60.8,79.4
					C60.8,79.4,60.8,79.4,60.8,79.4L60.8,79.4C60.8,79.4,60.8,79.4,60.8,79.4z M60.9,79C60.9,79,60.9,79,60.9,79L60.9,79
					C60.9,79,60.9,79,60.9,79z"/>
				<path id="XMLID_2684_" class="st1" d="M56.7,80.6c0,0-0.1,0-0.1,0l0-0.1C56.6,80.6,56.7,80.6,56.7,80.6c0-0.1,0-0.1,0-0.1
					c0,0.1-0.1,0-0.1,0l0-0.1c0,0,0,0,0,0l0.1,0.1c0-0.2,0-0.4,0-0.6l0,0.1c0,0,0,0-0.1-0.1l0,0l0-0.2c0,0,0,0,0,0c0,0,0,0,0,0
					l0-0.1c0,0,0,0,0,0c0.1-0.1,0-0.1,0-0.2c0,0,0-0.1-0.1-0.1l0-0.1l0.1,0c0-0.1,0-0.2-0.1-0.3l0-0.1c0,0,0,0,0,0c0,0,0,0,0,0
					l0-0.1c0,0,0,0,0,0l0,0c0,0,0-0.1,0-0.1l0-0.2c0,0,0,0,0,0c0,0,0,0,0,0l0-0.1c0,0,0,0,0,0c0,0,0,0,0,0l0-2.6c0,0,0,0,0,0
					c0,0,0,0,0,0c0,0,0,0,0,0c0,0,0,0,0,0c-0.1,0-0.1,0-0.1,0c0,0,0,0,0,0c0,0,0,0-0.1,0c0,0,0,0,0,0c0,0,0,0,0,0c0,0,0,0,0,0
					c0,0,0,0,0,0c0,0-0.1,0-0.1,0l0,0l0,0c0,0,0,0,0,0l0,0l-0.1,0c0,0,0,0,0,0c0,0-0.1,0-0.1,0c0,0,0,0-0.1-0.1c0,0-0.1,0-0.1,0.1
					c0,0,0,0,0,0c0,0,0,0,0,0.1l0,2.2c0,0,0,0-0.1,0c0.1,0,0.1-0.3,0-0.4c0,0,0.1,0,0.1,0.1c0,0,0-0.1-0.1-0.1c0-0.1,0-0.2,0-0.2
					l-0.1,0c-0.1-0.1,0.1-0.1,0-0.2l0,0c0,0-0.1-0.1-0.1-0.1c0.1,0,0.1,0,0.1,0L55.8,77c0,0,0-0.1,0.1-0.1c-0.1-0.1,0-0.2-0.1-0.1
					c0,0.3,0,0.6,0.1,0.9l-0.1,0c0.1,0.2-0.1,0.2,0.1,0.3l-0.1,0c0,0.1,0.2,0.1,0,0.2l0,0c0,0,0,0,0,0l0,0c0,0.1,0,0.1,0,0.1
					c0,0,0,0,0,0c0,0,0,0.1,0,0.1c0,0-0.1,0-0.1,0c0,0.1-0.1,0.2,0.1,0.3c0,0,0.1,0,0.1,0c0,0,0,0,0,0l0,0.1c0,0-0.1-0.1-0.1,0l0,0
					c0.1,0.1-0.1,0.1-0.1,0.1c0,0.1,0.2,0.1,0.1,0.2c0,0,0,0-0.1,0c0,0.1,0.1,0.1,0.1,0.1c-0.3,0,0.1,0.2-0.1,0.3
					c0,0.1,0,0.1,0.1,0.2c-0.1,0,0,0.1-0.1,0.1c0.2,0-0.1,0.2,0.1,0.2c-0.1,0.1,0,0,0,0.1c0,0,0,0,0,0c0,0,0.1,0.1,0,0.1
					c0,0.1,0,0,0.1,0.1l0,0.1c0,0-0.1,0-0.1,0.1c0.1,0,0.1,0.1,0.1,0.1l0,0l0,0.1c0,0,0,0-0.1-0.1c0,0.1,0,0.2,0.1,0.3
					c0,0.1-0.1,0-0.1,0c0,0.1,0,0.1,0.1,0.2l0,0c0,0,0,0,0,0l-0.1,0c0.1,0,0,0.2,0,0.3c0,0,0,0,0,0v0c0,0,0,0,0,0.1l0,0.2
					c0,0-0.1,0-0.1-0.1c0,0.1,0,0.2,0.1,0.2l-0.1,0c0,0,0,0.1,0.1,0.1l0,0.1l0,0c0,0.1,0,0.2,0,0.3c0,0.1,0,0.2,0.1,0.2c0,0,0,0,0,0
					c0,0,0,0.1,0.1,0.1c0,0-0.1,0.1,0,0.1c0.2,0.1,0.4,0.1,0.6,0c-0.1-0.1,0.1-0.1,0-0.2c0,0,0,0,0,0c0,0,0.1,0,0.1,0
					c0-0.1-0.1,0-0.1,0c0,0,0,0,0,0c0,0,0.1,0,0.1,0c0-0.1,0,0-0.1-0.1c0,0,0,0,0,0c0,0,0.1,0,0.1,0c0-0.2-0.1-0.5,0-0.8l-0.1,0
					l0-0.3c0,0,0.1,0,0.1,0c0,0,0-0.1,0-0.1l0,0.1c0,0,0,0,0,0l0,0c0,0,0,0,0.1,0c0,0,0,0-0.1,0l0-0.1
					C56.6,80.7,56.7,80.7,56.7,80.6c-0.1,0.1-0.1,0.2-0.1,0.2c0,0,0.1,0,0.1,0C56.7,80.8,56.7,80.7,56.7,80.6z M56.6,80.3L56.6,80.3
					C56.6,80.3,56.6,80.3,56.6,80.3z M56.6,80.1C56.6,80.1,56.6,80.1,56.6,80.1L56.6,80.1C56.6,80.1,56.6,80.1,56.6,80.1z
					 M55.8,78.1C55.9,78.1,55.8,78.1,55.8,78.1C55.9,78,55.9,78.1,55.8,78.1L55.8,78.1c0-0.1,0.1-0.1,0.1-0.1l0,0.2c0,0,0,0,0,0
					C55.9,78.1,55.8,78.1,55.8,78.1z M55.9,78.4L55.9,78.4c-0.2,0,0,0,0-0.1C55.9,78.3,55.9,78.4,55.9,78.4
					C55.9,78.4,55.9,78.4,55.9,78.4l0.1,0.1C55.9,78.5,55.9,78.4,55.9,78.4z M55.9,78.7L55.9,78.7L55.9,78.7
					C55.9,78.7,55.9,78.7,55.9,78.7z M55.8,79.4c0-0.1,0.1-0.1,0-0.2l0.1,0L55.8,79.4C55.9,79.4,55.9,79.4,55.8,79.4
					C55.9,79.4,55.8,79.4,55.8,79.4z M55.9,79.8C55.9,79.8,55.9,79.8,55.9,79.8L55.9,79.8C55.9,79.8,55.9,79.8,55.9,79.8z
					 M55.9,81.8L55.9,81.8C55.9,81.8,55.9,81.8,55.9,81.8C55.9,81.8,55.9,81.8,55.9,81.8z M55.9,81.9C55.8,81.9,55.9,81.9,55.9,81.9
					L55.9,81.9C55.9,81.9,55.9,81.9,55.9,81.9z M56.3,82.3C56.3,82.3,56.3,82.3,56.3,82.3C56.3,82.3,56.3,82.4,56.3,82.3z
					 M56.4,82.3C56.4,82.3,56.4,82.3,56.4,82.3C56.4,82.3,56.4,82.3,56.4,82.3C56.4,82.3,56.4,82.3,56.4,82.3z M56.6,81.6
					C56.6,81.6,56.6,81.6,56.6,81.6L56.6,81.6C56.6,81.6,56.6,81.6,56.6,81.6z"/>
				<path id="XMLID_2672_" class="st1" d="M54.7,78.7L54.7,78.7C54.7,78.7,54.7,78.7,54.7,78.7L54.7,78.7c-0.1-0.1-0.1-0.1-0.1-0.1
					C54.7,78.6,54.7,78.6,54.7,78.7c0-0.1-0.1-0.1-0.1-0.1c0,0,0.1,0,0.1,0c0-0.1,0.1-0.1-0.1-0.2c0,0-0.1,0-0.1,0c0,0,0,0,0,0
					l0-0.1c0,0,0.1,0.1,0.1,0l0,0c-0.1,0,0.1,0,0.1-0.1c0,0-0.2-0.1-0.1-0.1c0,0,0,0,0.1,0c0,0-0.1-0.1-0.1-0.1
					c0.3,0-0.1-0.1,0.1-0.2c0,0,0-0.1-0.1-0.1c0.1,0,0,0,0.1,0c-0.2,0,0.1-0.1-0.1-0.1c0.1-0.1,0,0,0-0.1c0,0,0,0,0,0
					c0,0-0.1,0,0-0.1c0,0,0,0-0.1,0l0-0.1c0,0,0.1,0,0.1,0c-0.1,0-0.1,0-0.1-0.1l0,0l0,0c0,0,0,0,0.1,0c0-0.1,0-0.1-0.1-0.2
					c0,0,0.1,0,0.1,0c0,0,0-0.1-0.1-0.1l0,0c0,0,0,0,0,0l0.1,0c-0.1,0,0-0.1,0-0.2c0,0,0,0,0,0v0c0,0,0,0,0,0l0-0.1c0,0,0.1,0,0.1,0
					c0,0,0-0.1-0.1-0.1l0.1,0c0,0,0,0-0.1-0.1l0,0l0,0c0-0.1,0.1-0.2,0-0.3c0,0,0,0,0,0l0-0.1c0,0,0.1,0,0.1,0c0-0.1-0.1-0.2,0-0.3
					c-0.1,0,0-0.1-0.1-0.1l0,0c0,0,0.1,0,0.1-0.1c0-0.1-0.1,0-0.1,0l0,0c0,0,0.1-0.1,0.1-0.1c0-0.1,0,0-0.1,0l0,0
					c0,0,0.1-0.1,0.1-0.1c-0.1,0-0.2,0-0.3,0c-0.1,0-0.2,0-0.3-0.1l0,0.1c-0.1,0-0.1,0-0.2-0.1c0,0-0.1-0.1-0.1-0.1c0,0-0.1,0,0,0
					c0,0,0,0,0,0c0,0,0,0,0,0c0,0,0,0,0,0l0,0c0,0,0,0-0.1,0c0,0,0,0.1,0.1,0.1l0,0.1c0,0,0-0.1-0.1-0.1c0.1,0,0-0.1,0-0.1
					c0,0-0.1-0.1-0.1-0.1c0,0.1,0.1,0.2,0,0.2c0,0.1,0.1,0.1,0.1,0.1l0,0c0,0-0.1-0.1-0.1-0.1c0,0,0,0,0,0.1c0,0,0.1,0,0.1,0.1
					l0,0.1c0,0,0,0,0,0l-0.1-0.1c0,0.1,0,0.3,0,0.4l0-0.1c0,0,0,0,0.1,0.1l0,0l0,0.1c0,0,0,0,0,0c0,0,0,0,0,0l0,0.1c0,0,0,0,0,0
					c-0.1,0,0,0.1,0,0.1c0,0,0,0,0.1,0l0,0l-0.1,0c0,0.1,0,0.1,0.1,0.2l0,0c0,0,0,0,0,0c0,0,0,0,0,0l0,0.1c0,0,0,0,0,0l0,0
					c0,0,0,0,0,0.1l0,0.1c0,0,0,0,0,0c0,0,0,0,0,0l0,0.1c0,0,0,0,0,0c0,0,0,0,0,0l0,1.7c0,0,0,0,0,0c0,0,0,0,0,0l0,0.1c0,0,0,0,0,0
					c0,0,0,0,0,0c0,0,0,0,0,0l0,0l0,0c0,0,0,0,0,0l0,0.1l0,0l0,0l0,0l0,0l0,0c0,0,0,0,0,0l0,0.1c0,0,0,0-0.1,0c0,0,0,0,0.1,0.1
					l0,0.1c0,0.2,0.2,0.4,0.4,0.4c0.2,0,0.4-0.2,0.4-0.4l0-0.3c0,0,0,0,0.1,0c-0.1,0-0.1,0.2,0,0.2c0,0-0.1,0-0.1,0c0,0,0,0,0.1,0
					c0,0,0,0.1,0,0.2l0.1,0c0.1,0.1-0.1,0.1-0.1,0.2l0,0c0,0,0.1,0.1,0,0.2c0-0.1,0-0.1-0.1-0.1c0,0,0,0.1,0,0.1c0,0-0.1,0.1-0.1,0
					c0,0.1-0.1,0.1,0,0.2c0.1-0.1,0.3-0.2,0.3-0.3c0-0.1,0.1-0.2,0-0.2c0-0.1,0-0.1-0.1-0.1l0.1,0c-0.1-0.1,0.1-0.1-0.1-0.2l0.1,0
					C54.8,78.8,54.6,78.7,54.7,78.7z M54.6,78.5L54.6,78.5C54.8,78.5,54.6,78.5,54.6,78.5C54.6,78.6,54.6,78.5,54.6,78.5
					C54.5,78.5,54.5,78.5,54.6,78.5L54.6,78.5C54.5,78.5,54.6,78.5,54.6,78.5z M54.6,78.3L54.6,78.3L54.6,78.3
					C54.5,78.3,54.5,78.3,54.6,78.3z M54.6,77.9c0,0-0.1,0.1,0,0.1l-0.1,0L54.6,77.9C54.5,77.9,54.6,77.9,54.6,77.9
					C54.6,77.8,54.6,77.8,54.6,77.9z M54.6,77.6C54.6,77.6,54.5,77.6,54.6,77.6L54.6,77.6C54.5,77.6,54.6,77.6,54.6,77.6z
					 M54.6,76.3L54.6,76.3C54.6,76.3,54.6,76.3,54.6,76.3C54.6,76.3,54.6,76.3,54.6,76.3z M54.6,76.2C54.6,76.3,54.6,76.3,54.6,76.2
					L54.6,76.2C54.6,76.2,54.6,76.2,54.6,76.2z M54.3,75.4C54.3,75.4,54.3,75.4,54.3,75.4C54.3,75.4,54.3,75.4,54.3,75.4
					C54.3,75.4,54.3,75.4,54.3,75.4z M53.9,75.7L53.9,75.7C53.8,75.7,53.8,75.7,53.9,75.7z M53.8,75.8
					C53.8,75.8,53.8,75.8,53.8,75.8L53.8,75.8C53.8,75.8,53.8,75.8,53.8,75.8z M54.6,78.8C54.6,78.8,54.6,78.7,54.6,78.8L54.6,78.8
					c0,0-0.1,0-0.1,0l0-0.1c0,0,0,0,0,0C54.5,78.7,54.6,78.7,54.6,78.8C54.6,78.7,54.7,78.7,54.6,78.8z"/>
			</g>
		</g>
		<g id="XMLID_2615_">
			<path id="XMLID_2651_" class="st2" d="M79.2,44.5C79.3,44.5,79.3,44.4,79.2,44.5c0.1-0.1,0.1-0.1,0-0.1c0-0.1-0.1-0.2-0.2-0.2
				c0,0,0,0,0,0c0,0-0.2,0-0.3,0c0,0,0,0-0.1,0c0,0,0,0,0,0l0,0c0,0-0.1,0-0.2,0c0,0,0,0,0,0c-0.1,0-0.2,0-0.3,0c0,0,0,0,0,0
				c0,0,0,0,0,0c-0.8,0-1.7-0.1-2.6-0.1c-0.1,0-0.2-0.1-0.2-0.2c0-0.2,0-0.4,0.1-0.6c0-0.5-0.2-0.6-0.6-0.5c0,0-0.1,0.1-0.1,0.1
				c0,0,0-0.1,0-0.1c0,0.1,0,0.2-0.1,0.2c0,0,0-0.1,0-0.2c-0.1,0.1,0,0.1-0.1,0.3l-0.1,0c0,0,0,0.2,0,0.2c0.1-0.1,0.1-0.1,0.2-0.1
				c0,0,0,0.1,0,0.1l0,0.1c0,0.1-0.1,0-0.1,0l0.1,0.1l0,0.1l0,0l0,0l0.1,0l0,0.2c0,0,0,0,0,0c0,0,0,0,0,0l0,0c0,0,0,0,0,0
				c0,0-0.1,0-0.1-0.1c0-0.1,0.1-0.1,0-0.2l-0.1,0.1c0,0.1,0.1,0.2,0.2,0.2c0,0.1-0.1,0.2-0.1,0.2c0,0,0,0,0.1-0.1
				c0,0,0.1-0.1,0-0.1c0,0.1-0.2,0.1-0.2,0c0,0,0,0,0,0c0,0,0,0.1,0.1,0.2c0,0,0,0,0,0c-0.9,0-1.7,0-2.5,0c-0.3,0-0.6,0.1-0.8,0.3
				c-0.2,0.2-0.2,0.4-0.1,0.6c0.1,0.1,0.3,0.1,0.7,0c0.2-0.1,0.4-0.1,0.7-0.2c-0.2,0.1-0.4,0.2-0.5,0.1c-0.2,0-0.2,0.1-0.4,0.2
				c-0.1,0-0.3,0-0.4-0.1c-0.1-0.1-0.1-0.3-0.1-0.5c0.2-0.3,0.4-0.5,0.8-0.5l0.1-0.1c0,0.1,0.2,0,0.1,0.1c0,0-0.1,0-0.1,0
				c0.1,0.1,0.3,0,0.5,0c0,0,0-0.1,0-0.1c0,0.1,0.2,0,0.2,0.1c0.2,0,0-0.1,0.2-0.1c0-0.1-0.2,0-0.2-0.1c0-0.1,0.1,0,0.1-0.1
				c-0.1,0-0.3,0-0.5,0.1c-0.1,0-0.2,0-0.3,0.1c-0.1,0-0.2,0.1-0.3,0.1l0-0.1c-0.2,0.1-0.5,0.3-0.7,0.4c0,0,0,0.1-0.1,0.2
				c0,0.1,0,0.2,0.1,0.2c0,0.1,0,0.1,0,0.2l0.1,0c0.1,0.1,0,0.2,0.2,0.2c-0.1-0.1,0.1-0.1,0.1-0.1c0.1,0.1,0.4,0.1,0.5,0.1
				c0,0,0,0-0.1,0c0.1,0,0.1-0.1,0.1-0.1c0.1,0,0.1,0.1,0.1,0.1c0.1,0,0.2-0.2,0.3-0.2L72,44.9c0.1-0.1,0.3,0,0.4-0.1
				c0.1,0.1-0.1,0.1-0.2,0.2c0,0,0.1,0,0.1,0c0.1-0.1,0.2-0.1,0.2-0.2c-0.1,0.1,0.1,0.1,0.2,0.1c0,0-0.1-0.1-0.1,0
				c0-0.1,0.1-0.1,0.2-0.1c-0.1,0,0-0.1,0-0.1c0.1,0,0.2,0,0.3-0.1c-0.1,0-0.1,0-0.2,0c0,0,0.1,0.1,0,0.1c0,0,0,0,0,0.1
				c0.1-0.1,0.2,0,0.2-0.1c0.1,0,0,0,0,0.1l0.1-0.1c0.1,0-0.1,0.1,0,0.1c0,0,0.1-0.1,0.2-0.1l0,0c0.1,0,0.2,0,0.1-0.1l0.1,0.1l0-0.1
				c0.2,0,0.3,0.2,0.5,0.1c-0.1,0,0-0.1,0-0.1c-0.1,0-0.1,0-0.2,0.1c0-0.1,0.1-0.1,0-0.2c0.1,0.1,0.3,0,0.3,0.1c0.1,0,0.2-0.1,0.2,0
				l0,0c0.1,0,0,0.1,0.1,0.1l0-0.1c0,0,0,0,0,0.1c0,0,0,0,0,0c0.1,0,0.1,0.1,0.1,0.2c0,0.1,0,0.2,0,0.2c0,0,0,0.1,0,0.1
				c0,0-0.1,0-0.1,0c0,0,0-0.1,0.1,0c0-0.1-0.1-0.1-0.1-0.1c0,0,0-0.1,0-0.2c0,0.1,0,0.1,0,0.1c0,0,0,0.1,0,0c0,0,0.1,0.2,0.1,0.2
				c-0.1,0,0-0.1-0.1-0.1c-0.1,0.1,0.1,0.1,0.1,0.2c0,0-0.1,0-0.1,0c0,0,0,0-0.1,0c0,0,0-0.1,0-0.1c0,0-0.1,0-0.2,0
				c0.2,0.1-0.1,0,0,0.1c0,0,0,0-0.1,0.1c0,0-0.1,0-0.1,0c0,0,0,0,0,0c0,0,0,0,0.1,0c0-0.1-0.1,0-0.1-0.1c-0.1,0.1-0.3,0.1-0.4,0.2
				c0,0-0.1,0-0.1,0c0,0,0,0,0-0.1c-0.1,0-0.1,0.1-0.1,0.1c0,0-0.1,0-0.1,0c0,0-0.1,0.1-0.1,0.1c0,0,0,0-0.1,0
				c-0.1,0-0.1,0.2-0.1,0.2c0,0.1,0.1,0.1,0.1,0.1l0,0c0.1,0.1,0.1,0.1,0.2,0.2c0.1,0.1,0.2,0.1,0.3,0.1c0.2,0,0-0.1,0-0.1
				c0.1,0,0.2-0.1,0.2,0c0,0-0.1,0.1-0.1,0.1c0,0.1,0.1,0,0.2,0c0,0,0,0,0,0c0.2,0,0.1-0.1,0.4-0.1c0,0,0.1,0,0.1-0.1
				c0.2,0,0.1,0.1,0.3,0.1c0,0-0.1-0.1-0.1-0.2c0,0,0.1,0,0.1,0c0.2,0,0.2,0,0.3,0c0,0,0,0-0.1,0c0,0.1,0.1,0,0.2,0l0,0.1
				c0.1,0,0.2-0.1,0.3,0l0,0c0.2-0.1,0.5,0,0.7,0l0.1,0.1c0.3,0-0.2-0.1-0.1-0.2c0,0,0,0,0,0c0,0.1,0.1,0,0.2,0c0,0,0,0,0,0
				c0,0,0,0,0.1,0c0.1,0.1-0.2,0-0.1,0.1c0-0.1,0.1,0,0.2,0c0,0.1,0.2,0,0.1,0.1l0.3-0.1c0,0,0.1,0.1,0.2,0.1c-0.1,0-0.1,0-0.1-0.1
				c0,0,0,0,0.1,0c0.1,0,0.1,0,0.2-0.1c0,0.1,0.2,0.1,0.2,0c0,0,0-0.1,0-0.1c0-0.2,0-0.3-0.1-0.4l0.1,0c-0.1,0-0.2-0.1-0.2,0
				c0,0-0.1,0-0.1,0c0,0,0,0-0.1,0c0,0,0,0,0,0c0,0,0,0,0,0c0-0.1,0.1-0.1,0.1-0.1c0,0-0.1,0-0.1,0c0,0-0.1,0,0-0.1
				c-0.2,0.1-0.3-0.1-0.5,0l0.1,0c0,0-0.1,0-0.1,0.1c0-0.1-0.1-0.1-0.2-0.1c-0.1,0-0.2,0.1-0.3,0.1c0.1-0.1-0.2-0.1-0.2-0.1
				c-0.1,0.1-0.2,0-0.3,0.1c-0.1,0-0.1,0,0-0.1c0,0,0,0,0,0l0,0c0,0,0,0,0,0c0,0-0.1,0,0,0c0,0,0,0,0,0c0,0-0.1-0.2-0.1-0.3
				c0,0-0.1-0.2-0.2-0.2c0,0,0.1,0,0.1-0.1c-0.1-0.1,0.1-0.1,0.1-0.1c0,0,0,0,0,0c0,0,0.1,0,0,0c0.1,0,0.1,0,0.2-0.1
				c0,0,0.1,0,0.1,0c0,0,0.1,0,0,0.1c-0.2,0-0.2,0.1-0.3,0.1c0,0,0,0,0,0c0,0,0,0,0,0.1c0,0,0,0,0.1,0c0,0,0.1,0,0.1,0
				c0,0,0,0,0,0.1c0.1,0,0.1-0.1,0.2,0l0-0.1c0.1,0,0.2,0,0.3,0.1l0.1-0.1c0.1,0.1,0.4,0.1,0.5,0c0.1,0,0.1,0,0.2,0c0,0,0,0,0,0
				c0,0,0,0-0.1,0c0.1,0,0.2,0.1,0.3,0c0.1,0,0.1,0.1,0.2,0.1c0.1,0,0.3,0,0.5,0.1c0.2,0.1,0.3,0.1,0.2,0c0,0-0.1,0-0.1-0.1
				c0,0,0.1,0,0.1,0c0,0,0,0,0,0l0.1,0.1c0.2,0.1,0.2,0.1,0.3,0c0.1,0,0.1-0.1,0.3-0.1c0,0,0.1-0.1,0.1-0.1c0,0,0-0.1,0-0.1
				c0,0,0,0,0,0c0,0,0,0,0,0c0,0,0,0,0,0c0,0,0,0,0,0c0,0,0,0,0,0c0,0,0,0,0.1-0.1C79.2,44.5,79.2,44.5,79.2,44.5z M72.5,44.8
				C72.5,44.8,72.5,44.7,72.5,44.8c0.1-0.1,0.1-0.1,0.2-0.1C72.7,44.7,72.6,44.8,72.5,44.8z M73.4,44.8c0.2-0.1,0-0.1,0-0.2
				c0.1,0,0.2,0,0.3,0C73.5,44.6,73.6,44.8,73.4,44.8z M73.7,44.6C73.7,44.6,73.6,44.6,73.7,44.6c0-0.1,0.1-0.1,0.1-0.1
				C73.8,44.6,73.7,44.6,73.7,44.6z M74.5,44.6c0,0,0,0.1-0.1,0.1C74.4,44.6,74.4,44.6,74.5,44.6C74.5,44.6,74.5,44.5,74.5,44.6
				C74.5,44.5,74.5,44.5,74.5,44.6C74.5,44.6,74.5,44.6,74.5,44.6z M74.7,44.9C74.7,44.9,74.7,44.9,74.7,44.9
				c0.1,0.1,0.1,0.1,0.1,0.2C74.7,45,74.7,44.9,74.7,44.9z M73.5,45.6c0.1,0,0.1,0,0.2,0C73.6,45.6,73.6,45.6,73.5,45.6
				C73.5,45.6,73.5,45.6,73.5,45.6z M73,46C73,46,73,46,73,46C73,46,73,46,73,46z M73.4,46.3c-0.1,0-0.2,0-0.3-0.1c0,0-0.1,0-0.1,0
				c0,0,0,0,0.1-0.1c0,0,0.1,0.1,0.2,0.1c0.1,0,0.3,0,0.4,0l0,0C73.6,46.2,73.5,46.3,73.4,46.3z M75.3,46.1
				C75.3,46.1,75.3,46.1,75.3,46.1C75.3,46.1,75.3,46.1,75.3,46.1L75.3,46.1z M75.5,46.1C75.5,46.1,75.5,46.1,75.5,46.1
				C75.5,46.1,75.5,46.1,75.5,46.1C75.5,46.1,75.5,46.1,75.5,46.1z M75.6,46.1C75.6,46.1,75.5,46.1,75.6,46.1
				C75.6,46.1,75.6,46.1,75.6,46.1C75.6,46.1,75.6,46.1,75.6,46.1z M76.8,45.6L76.8,45.6c0,0-0.1,0-0.1,0
				C76.7,45.6,76.7,45.6,76.8,45.6z M76.4,45.4C76.4,45.4,76.4,45.5,76.4,45.4c-0.1,0.1-0.1,0.1-0.2,0.1c0,0-0.1,0-0.1,0
				C76.1,45.5,76.3,45.4,76.4,45.4z M76,45.5c-0.1,0-0.2,0-0.2,0C75.9,45.5,76,45.5,76,45.5z M75.7,45.5
				C75.6,45.5,75.7,45.5,75.7,45.5C75.6,45.5,75.6,45.5,75.7,45.5C75.6,45.5,75.6,45.5,75.7,45.5z M75.4,45.1
				C75.4,45.1,75.4,45.1,75.4,45.1C75.4,45.1,75.4,45.1,75.4,45.1z M76.3,44.6c-0.1,0-0.1,0-0.1,0C76.3,44.6,76.3,44.6,76.3,44.6
				C76.4,44.6,76.4,44.6,76.3,44.6z"/>
			<path id="XMLID_2616_" class="st2" d="M77.3,47.5C77.3,47.5,77.2,47.4,77.3,47.5c0-0.1-0.1-0.3-0.2-0.3c0,0,0,0,0,0
				c0,0,0,0,0-0.1c0,0,0,0,0.1,0c0,0,0-0.1-0.1-0.1c0,0,0-0.1,0-0.1c-0.1,0.1-0.2-0.2-0.3,0c0,0,0.1,0.1,0.1,0.1c0,0-0.1,0-0.1-0.1
				l0-0.1c-0.1-0.2-0.2,0.1-0.3-0.1c0,0-0.1,0-0.1,0.1c0,0,0,0,0,0l0,0c0,0,0,0,0,0c0,0,0,0-0.1,0c0,0,0,0-0.1,0c0,0-0.1,0-0.1,0
				c0,0,0,0,0,0c-0.1-0.1-0.1,0.1-0.2-0.1l0,0c0,0,0,0-0.1,0c0,0,0,0,0,0c0,0-0.1,0-0.1,0c0,0,0,0,0,0c0,0,0,0,0,0
				c-0.6,0-1.1,0-1.7,0c0,0,0,0-0.1,0c0,0,0,0,0-0.1c0,0,0,0.1-0.1,0.1c0-0.1,0,0,0.1-0.1c-0.1-0.1,0,0-0.1,0l0-0.1l-0.1,0
				c0,0.1,0,0.1,0,0.2c0,0,0,0-0.1,0c0,0,0-0.1,0-0.1l0,0.1c0,0,0,0,0,0l0,0l0,0c0,0-0.1,0-0.1,0c0,0,0-0.1,0-0.1c0,0,0,0.1,0.1,0
				l0-0.1c0,0-0.1,0.1-0.1,0.1c0,0-0.1,0-0.1,0c0,0,0.1,0,0.1,0c0,0-0.1-0.1-0.1-0.1l0,0c0,0,0,0.1,0,0.1c-0.1,0-0.2,0-0.2,0
				c-0.2,0.1-0.2,0.2-0.2,0.2c0,0.1,0,0.2,0.1,0.4c0.1,0.3,0.2,0.7,0.3,1c0-0.1-0.1-0.1-0.1-0.2c0-0.1,0-0.1-0.1-0.1
				c0-0.2-0.1-0.4-0.1-0.6l-0.1,0c0,0,0-0.1,0.1-0.1c0,0,0,0,0,0c0.1-0.1,0-0.1,0-0.2c0,0-0.1,0-0.1,0c0.1,0,0-0.1,0.1-0.1
				c0-0.1-0.1,0-0.1-0.1c-0.1,0,0,0.1-0.1,0.1c-0.1,0,0-0.1-0.1-0.1c0,0.2,0.2,0.3,0.3,0.4l-0.1,0c0.1,0.1,0.1,0.2,0,0.3
				c0.1,0,0,0.1,0.1,0.1c0,0,0,0,0,0.1l0,0c0,0-0.1,0.1,0,0.1c0.1,0,0.1,0,0.1,0c-0.1,0.1-0.1,0.1-0.1,0.2c0,0,0,0,0.1,0
				c0,0,0,0,0.1,0c0,0-0.1,0-0.1,0.1c0,0.1,0.1,0,0.1,0.1l0.1,0c0,0,0,0.1,0,0.2c-0.1,0-0.1,0-0.1,0c0,0,0,0,0,0.1c0,0,0.1,0,0.1,0
				c0,0,0.1,0,0.1,0c-0.1,0-0.1,0.1-0.1,0.1c0,0,0.1,0,0-0.1c0.1,0,0.1,0,0.1,0.1c0-0.1,0.1,0,0.1,0c0,0,0,0.1,0.1,0.1
				c0,0-0.1,0-0.1-0.1c0,0-0.1,0.1-0.1,0c0,0,0,0-0.1,0c0.1,0,0.1,0.1,0.1,0.1c0,0.1,0,0-0.1,0l0.1,0c0,0-0.1,0,0,0
				c0,0,0.1,0,0.1,0.1l0,0c0,0,0.1,0.1,0.1,0l0,0.1l0-0.1c0.1,0.1,0,0.2,0.2,0.2c0,0,0,0,0-0.1c0,0-0.1,0-0.1,0
				c0-0.1,0.1-0.1,0.1-0.2c0,0.1,0.1,0,0.1,0.2c0.1,0,0.1,0,0.1-0.1c0,0,0,0,0.1,0l0,0c0-0.1,0.1,0,0.1-0.1l0,0c0,0,0,0,0-0.1
				c0,0,0,0,0,0c0-0.1,0-0.1,0-0.1c0,0,0.1,0,0.1,0l0,0.1c0,0,0,0,0,0c0,0.1,0,0.1,0,0.1c0,0-0.1,0-0.1,0.1c0.1,0.1,0-0.1,0.1,0
				l0-0.2c0,0,0,0.1,0,0.1c0-0.1-0.1-0.1,0-0.2c0,0,0,0,0,0c0,0,0,0,0,0c0,0,0,0.1,0,0.1c0,0,0,0,0.1,0c-0.1-0.1,0,0,0-0.1
				c0,0,0,0,0-0.1c0,0,0,0,0.1,0c0,0,0,0,0,0c0,0.1,0,0,0.1,0.1c0-0.1,0.1-0.1,0.1-0.2c0,0,0,0,0,0c0,0,0,0,0,0.1c0,0,0,0,0-0.1
				c0,0,0.1,0,0.1,0c0,0,0.1,0.1,0.1,0.1c0.1-0.1,0.1,0.1,0.2,0.1c0.1,0,0-0.1,0-0.1c0,0,0.1,0,0.1,0c0,0,0,0.1,0,0
				c0,0.1,0,0,0.1,0.1c0,0,0,0,0,0c0.1,0,0.1-0.1,0.1,0c0,0,0,0,0-0.1c0,0.1,0,0.1,0.1,0.2c0,0,0-0.1,0-0.2c0,0,0,0,0,0
				c0.1,0,0.1,0,0.1,0.1c0,0,0,0,0,0c0,0.1,0.1,0,0.1,0l0,0.1c0,0,0.1-0.1,0.1,0l0,0c0.1,0,0.1,0,0.1,0c0.1,0,0.1,0,0.1,0l0.1,0.1
				c0.1-0.1-0.1,0,0-0.2c0,0.2,0-0.1,0.1,0c0,0.1-0.1,0,0,0.1c0-0.1,0,0,0.1-0.1c0,0.1,0.1,0,0.1,0.1c0,0,0-0.2,0-0.2
				c0,0,0.1,0,0.1,0c0,0,0,0-0.1,0c0,0,0,0,0.1-0.1c0,0,0.1,0.1,0.2,0.1c0-0.1,0-0.2,0-0.2l0.1,0c0,0-0.1-0.1-0.1-0.1c0,0,0,0,0,0
				c0,0,0,0,0,0c0.1,0,0.1,0.1,0.1,0.1l0-0.1c0,0,0,0,0.1,0c-0.1-0.1,0.1-0.1,0.1-0.2l0,0c0,0,0,0,0-0.1c0.1,0,0.1,0,0.1,0
				c0,0-0.1-0.1-0.1-0.1c0.1,0,0.1-0.1,0.2,0c-0.1,0,0-0.1-0.1-0.1c0,0,0-0.1,0.1,0c0,0,0,0,0,0l0,0c0,0,0,0,0,0c0,0-0.1,0,0-0.1
				c0,0,0,0,0,0c0-0.1-0.1-0.1,0-0.2c0,0,0-0.1-0.1-0.1c0,0,0.1,0,0.1,0c-0.1,0,0,0,0-0.1c0.1,0.1,0,0,0.1,0.1c0,0-0.1-0.1,0-0.1
				c0,0,0,0,0.1,0c0,0-0.1-0.1,0-0.1l-0.1,0C77.2,47.6,77.2,47.6,77.3,47.5z M76.8,48.5L76.8,48.5C76.8,48.5,76.8,48.5,76.8,48.5
				C76.8,48.5,76.8,48.5,76.8,48.5z M75.9,48.4C75.9,48.4,75.9,48.4,75.9,48.4c0,0,0.1-0.1,0.1,0c0,0,0.1,0,0.1-0.1
				c0.1,0,0.1-0.2,0.2-0.3l-0.1,0c0.1,0,0,0,0.1,0c0,0,0,0,0,0c0.1,0,0-0.1,0-0.1c0,0-0.1,0-0.1,0c0.1,0,0,0,0.1,0c0,0-0.1,0-0.1,0
				c-0.1,0,0,0-0.1,0c-0.1,0,0,0,0,0c0,0,0.1,0.2,0.1,0.2l-0.1,0c0,0.1,0,0.1-0.1,0.1c0.1,0,0,0,0.1,0.1c0,0,0,0,0,0l0,0
				c0,0-0.1,0-0.1,0c0,0,0.1,0.1,0.1,0.1c-0.1,0-0.1-0.1-0.1-0.1c0,0,0,0,0,0.1c0,0,0,0,0,0.1c0,0,0-0.1-0.1-0.1c0,0,0,0.1,0,0.1
				L75.9,48.4c0-0.1,0-0.1,0-0.1c0,0,0-0.1,0-0.1c0,0,0,0,0,0c0,0,0,0,0-0.1c0,0,0,0.1,0,0.1c0-0.1,0-0.1,0-0.1c0,0,0,0.1,0,0.1
				c0,0.1,0,0,0,0.1C75.8,48.3,75.8,48.4,75.9,48.4c-0.1,0-0.1,0-0.2,0c0,0,0,0,0,0c0,0,0-0.1,0-0.1c0,0,0-0.1,0-0.1
				c0,0,0,0-0.1,0.1c0-0.1,0,0,0-0.1l0,0c0,0,0-0.1,0-0.1c0,0,0,0.1,0,0.1l0,0c0,0,0,0,0,0.1l0-0.1l0,0.1c0,0-0.1-0.2-0.1-0.1
				c0,0,0,0.1,0,0.1c0,0,0,0,0-0.1c0,0.1,0,0.1,0,0.2c0-0.1-0.1,0-0.1-0.1c0,0,0,0.1-0.1,0l0,0c0,0.1,0,0-0.1,0.1l0,0c0,0,0,0,0,0
				c0,0,0,0,0,0c0,0,0,0.1,0,0.1c0,0-0.1,0-0.1,0l0-0.1c0,0,0,0,0,0c0,0,0-0.1,0-0.1c0,0,0,0,0.1-0.1c0-0.1,0,0.1-0.1,0l0,0.2
				c0,0,0-0.1,0-0.1c0,0,0,0.1,0,0.2c0,0,0,0,0,0c0,0,0,0,0,0c0,0,0,0,0,0c0,0,0-0.1,0-0.1c0,0,0,0,0,0c0,0.1,0,0,0,0.1c0,0,0,0,0,0
				c0,0,0,0,0,0c0,0,0,0,0,0c0-0.1,0,0,0-0.1c0,0.1-0.1,0.1-0.1,0.1c0,0,0,0,0,0c0,0,0,0,0,0c0,0,0,0,0,0c0,0,0,0-0.1,0
				c0,0,0-0.1,0-0.1c0,0.1-0.1-0.1-0.1-0.1c0,0,0,0.1,0,0.1c0,0,0,0,0,0c0,0,0-0.1,0,0c0-0.1,0,0,0,0c0,0,0,0,0,0c0,0,0,0.1-0.1,0
				c0,0,0,0,0,0.1c0-0.1,0-0.1-0.1-0.1c0,0,0,0.1,0,0.2c0,0,0,0,0,0c0,0,0,0-0.1,0c0,0,0,0,0,0c0-0.1,0,0-0.1,0l0-0.1c0,0,0,0,0,0
				l0,0c0,0,0,0,0,0l0,0c0,0.1-0.1,0-0.1,0.1l0-0.1c-0.1,0.1,0,0-0.1,0.2c0.1-0.1,0,0,0,0c0,0,0,0,0,0c0,0,0,0,0,0
				c0-0.1,0.1,0,0.1-0.1c-0.1,0.1,0,0-0.1,0c0,0,0,0,0,0l0,0c0,0,0,0,0-0.1c0,0-0.1,0.1-0.1,0.1c0,0,0,0,0-0.1c0,0,0,0,0,0
				c0,0,0,0,0,0c0,0,0.1-0.1,0.2-0.1c0,0-0.1,0-0.2,0l0.1,0c0,0-0.1,0-0.1,0c0,0,0,0,0,0c0,0,0,0,0,0c0,0,0,0,0,0c0.1,0,0.1,0,0.2,0
				l0,0c0,0,0,0,0.1,0c-0.1,0,0-0.1,0-0.1l0,0c0,0,0,0-0.1,0c0.1,0,0.1,0,0.1-0.1c0,0-0.1,0-0.1,0c0.1,0,0,0,0.1-0.1
				c-0.1,0,0,0-0.1,0c0,0,0,0,0,0c0,0,0,0,0,0l0,0c0,0,0,0,0,0c0,0-0.1,0,0,0c0,0,0,0,0,0c0,0-0.2-0.1-0.1-0.1c0,0-0.1,0-0.2-0.1
				c0,0,0.1,0.1,0.1,0c-0.1-0.1,0,0,0-0.1c0.1,0.1,0,0,0.1,0.1c0,0,0,0,0,0c0,0-0.1-0.1,0-0.1c0,0,0,0,0.1,0.1c0,0-0.1-0.1,0,0
				l0-0.1c0,0,0,0,0.1,0.1l0-0.1c0.1,0.1,0.1,0,0.1-0.1c0,0,0,0,0,0c0,0,0,0,0,0c0,0,0,0,0,0c0,0,0.1,0.1,0,0c0,0,0,0.1,0,0.1
				c0-0.1,0.1,0.1,0.1-0.1c0,0,0,0,0,0c0,0,0,0,0,0l0,0.1c0.1,0.1,0.1-0.2,0.1,0c0,0,0,0,0.1-0.1h0l0,0c0,0,0,0,0,0h0.1c0,0,0,0,0,0
				h0.1c0,0.1,0.1-0.1,0.1,0.1l0,0c0,0,0,0,0,0c0,0,0,0,0,0H75c0,0,0,0,0,0c0,0,0,0,0,0h1c0,0,0,0,0,0c0,0,0,0,0,0.1
				c0,0,0-0.1,0-0.1c0,0.1,0,0,0,0.1c0,0.1,0,0,0,0l0,0.1l0,0c0-0.1,0-0.1,0-0.2c0,0,0,0,0,0c0,0,0,0.1,0,0.1l0-0.1c0,0,0,0,0,0l0,0
				l0,0l0,0c0,0,0,0,0,0c0,0,0,0,0,0c0,0,0,0,0,0c0,0,0,0,0,0c0,0-0.1,0.1-0.1,0.1c0,0,0-0.1,0,0l0,0.1c0,0,0.1-0.1,0.1-0.1
				c0,0,0,0,0,0c0,0,0,0-0.1,0c0,0,0,0.1-0.1,0.1l0,0c0,0,0.1-0.1,0.1-0.1c0,0,0,0,0,0c0,0.2,0,0.4-0.1,0.7
				C76.2,48.3,76.1,48.4,75.9,48.4z M75.7,48.4C75.7,48.4,75.7,48.4,75.7,48.4c0,0,0-0.2,0-0.2C75.7,48.3,75.7,48.3,75.7,48.4z
				 M75.6,48.4C75.6,48.4,75.6,48.4,75.6,48.4C75.6,48.4,75.6,48.4,75.6,48.4C75.6,48.4,75.6,48.4,75.6,48.4z M75.5,48.4
				C75.5,48.4,75.5,48.4,75.5,48.4C75.5,48.4,75.5,48.3,75.5,48.4L75.5,48.4z M75.4,48.4C75.3,48.4,75.3,48.4,75.4,48.4
				C75.3,48.4,75.3,48.4,75.4,48.4C75.4,48.4,75.4,48.4,75.4,48.4z M75.8,48.4C75.9,48.4,75.9,48.4,75.8,48.4
				C75.9,48.4,75.9,48.4,75.8,48.4C75.9,48.4,75.9,48.4,75.8,48.4z M74.1,47.5C74.1,47.5,74.1,47.5,74.1,47.5
				C74.1,47.5,74.1,47.5,74.1,47.5C74.1,47.5,74.1,47.5,74.1,47.5z M74,47.5C74,47.5,74,47.5,74,47.5c0,0,0.1,0.1,0.1,0.1
				c0,0-0.1,0-0.1,0C74,47.6,74.1,47.6,74,47.5C74,47.6,74,47.5,74,47.5C74,47.5,74,47.5,74,47.5z M74.1,47.9
				C74.1,47.9,74.1,47.9,74.1,47.9c-0.1,0-0.1,0-0.2,0c0,0,0-0.1,0-0.1c0,0,0.1,0,0,0.1C74,47.9,74.1,47.9,74.1,47.9z M73.9,47.8
				L73.9,47.8C73.9,47.8,74,47.8,73.9,47.8C74,47.8,73.9,47.8,73.9,47.8z M74,48L74,48C74,48,74,48,74,48C74,48,74,48,74,48z
				 M74.2,48.4C74.2,48.4,74.2,48.4,74.2,48.4C74.2,48.4,74.2,48.4,74.2,48.4C74.2,48.4,74.2,48.4,74.2,48.4z M74.7,48.4
				C74.7,48.4,74.7,48.3,74.7,48.4C74.7,48.4,74.7,48.4,74.7,48.4z M74.8,48.4L74.8,48.4C74.8,48.4,74.8,48.4,74.8,48.4
				C74.8,48.4,74.8,48.4,74.8,48.4z M74.3,48.4C74.3,48.4,74.3,48.4,74.3,48.4C74.3,48.4,74.3,48.4,74.3,48.4L74.3,48.4z M74.2,48.4
				C74.2,48.4,74.2,48.4,74.2,48.4C74.2,48.4,74.2,48.4,74.2,48.4C74.2,48.4,74.2,48.4,74.2,48.4z M73.5,48.6
				C73.5,48.6,73.5,48.6,73.5,48.6c0,0,0.1,0.1,0.1,0.1C73.5,48.7,73.4,48.7,73.5,48.6z M73.6,49.1C73.6,49,73.6,49,73.6,49.1
				c0-0.1-0.1,0.1-0.2,0c0.1,0,0.1-0.1,0.1-0.1C73.6,48.9,73.6,49,73.6,49.1C73.7,49,73.7,49,73.6,49.1
				C73.7,49.1,73.7,49.1,73.6,49.1z M73.9,49.2l0-0.1c0,0,0,0,0,0C74,49.2,74,49.2,73.9,49.2z M74.1,49.1
				C74.1,49.1,74.1,49.1,74.1,49.1C74.1,49.1,74.2,49.1,74.1,49.1C74.2,49.1,74.2,49.1,74.1,49.1z M74.8,49C74.8,49,74.7,49,74.8,49
				C74.7,49,74.8,49,74.8,49C74.8,49,74.8,49,74.8,49z M75.4,49c-0.1,0-0.1,0.2-0.2,0l0,0.1c0,0,0,0,0-0.1C75.2,49,75.3,49,75.4,49
				L75.4,49z M75.9,49.1C75.9,49.1,75.9,49.1,75.9,49.1C75.9,49.1,75.9,49.1,75.9,49.1L75.9,49.1z M76,49.1C76,49.1,76,49.1,76,49.1
				C76,49.1,76,49.1,76,49.1C76,49.1,76,49.1,76,49.1z M76,49.1C76.1,49.1,76.1,49.1,76,49.1C76.1,49.1,76.1,49.1,76,49.1
				C76,49.1,76,49.1,76,49.1z M76.8,48.6L76.8,48.6C76.8,48.6,76.8,48.6,76.8,48.6C76.8,48.6,76.8,48.6,76.8,48.6z M77,48.5
				C76.9,48.5,76.9,48.5,77,48.5c0-0.1-0.1-0.1-0.1-0.1c0,0,0-0.1,0.1-0.1c0,0,0,0.1,0,0.1C77,48.4,77,48.5,77,48.5z M76.9,48.2
				C76.9,48.2,76.9,48.2,76.9,48.2C76.9,48.2,76.9,48.2,76.9,48.2C76.9,48.2,76.9,48.2,76.9,48.2z M77,48L77,48C77,48,77,48,77,48
				C77,48,77,48,77,48z M77,47.9C77,47.9,77,47.9,77,47.9C77,47.9,77,47.9,77,47.9C77,47.9,77,47.9,77,47.9z M77.2,47.8
				C77.1,47.8,77.2,47.8,77.2,47.8c-0.1-0.1-0.1-0.1-0.1-0.1c0,0,0,0,0,0c0,0,0,0,0,0c0,0,0.1,0,0.1,0
				C77.1,47.7,77.2,47.8,77.2,47.8z M77.1,47.5C77.1,47.5,77.1,47.5,77.1,47.5C77.2,47.5,77.2,47.5,77.1,47.5
				C77.2,47.5,77.1,47.5,77.1,47.5z"/>
		</g>
	</g>
</g>
</svg>
