<?xml version="1.0" encoding="utf-8"?>
<!-- Generator: Adobe Illustrator 22.0.1, SVG Export Plug-In . SVG Version: 6.00 Build 0)  -->
<svg version="1.1" id="圖層_1" xmlns="http://www.w3.org/2000/svg" xmlns:xlink="http://www.w3.org/1999/xlink" x="0px" y="0px"
	 viewBox="0 0 126.1 134" style="enable-background:new 0 0 126.1 134;" xml:space="preserve">
<style type="text/css">
	.st0{fill:#0A418C;}
	.st1{fill:#FFFFFF;}
</style>
<g>
	<g>
		<g>
			<path class="st0" d="M49.6,95.9l-0.3-0.3C49.5,95.8,49.6,95.9,49.6,95.9z"/>
			<path class="st0" d="M51.7,98.3L51.7,98.3C51.7,98.2,51.6,98.2,51.7,98.3z"/>
			<path class="st0" d="M67.3,106.9c0.1-0.1,0.3-0.3,0.6-0.6L67.3,106.9z"/>
			<path class="st0" d="M37.9,83.6l-0.4-0.3C38.1,83.9,37.8,83.6,37.9,83.6z"/>
			<path class="st0" d="M41.3,28.7c0,0,0.1-0.1,0.1-0.1C41.4,28.6,41.4,28.7,41.3,28.7z"/>
			<path class="st0" d="M98.4,64.1C98.4,64.1,98.4,64.1,98.4,64.1C98.4,64,98.4,64,98.4,64.1z"/>
			<path class="st0" d="M27.1,57.6C27.1,57.6,27.1,57.6,27.1,57.6C27.1,57.1,27.1,57.3,27.1,57.6z"/>
			<path class="st0" d="M82.2,89.7C82.2,89.7,82.2,89.7,82.2,89.7C82.2,89.7,82.2,89.7,82.2,89.7L82.2,89.7z"/>
			<path class="st0" d="M81.3,90.8c0.4-0.5,0.6-0.8,0.9-1.1L81.7,90L81.3,90.8z"/>
			<path class="st0" d="M99.2,57.3c0-0.4-0.1-1-0.1-1.4c-0.1,0.2,0.1,1.8,0.1,2.6c0,0-0.1-0.2-0.1-0.5c0-0.2,0-0.3,0-0.5
				c0-2.2-0.2-4.4-0.6-6.5c-0.1-0.3-0.1-0.7-0.2-1.1c-0.1-0.2-0.1-0.5-0.2-0.7c-0.1-0.4-0.2-0.8-0.3-1.2c0,0,0-0.1,0-0.1
				c-0.1-0.3-0.2-0.6-0.2-1c-0.1-0.3-0.2-0.6-0.3-0.8c-0.1-0.1-0.1-0.3-0.2-0.5c-0.9-2.7-2.2-5.3-3.7-7.6c0.1,0.1,0.1,0.1,0,0
				c0,0-0.1-0.1-0.2-0.2c-6.4-9.8-17.4-16.2-30-16.2c-0.8,0-1.6,0-2.4,0.1c-0.3,0-0.6-0.1-0.6-0.1c-0.5,0.1-1.2,0.1-2,0.2
				c-0.8,0.1-1.7,0.1-2.5,0.4c-0.4,0.1,0.3-0.1,0.1-0.1c-0.4,0.2-0.9,0.3-1.9,0.5l0.1,0c-0.7,0.2-1.3,0.3-1.8,0.5
				c-0.5,0.2-1,0.4-1.5,0.5c-0.5,0.2-1,0.3-1.6,0.6c-0.5,0.3-1.2,0.5-1.9,0.9l0.2,0c-0.6,0.3-0.8,0.3-1.1,0.4
				c-0.3,0.2,0,0.1,0.4-0.1c-1.3,0.6-3.5,2.1-4,2.3c-0.8,0.6,0.3-0.1-0.5,0.5l-0.3,0.1l-0.2,0.2c-0.6,0.4-0.9,0.6-0.9,0.5
				c0.1-0.1,0.4-0.3,0.5-0.4c-0.4,0.2-0.9,0.6-1.3,1c-0.4,0.4-0.8,0.7-0.9,0.8l0.8-0.7c-1,1-2.3,2-3.3,3.2c-0.5,0.6-1.1,1.1-1.5,1.8
				c-0.4,0.6-0.9,1.2-1.3,1.8l0.2-0.1c-0.3,0.4-0.5,0.7-0.7,1c-0.2,0.2-0.3,0.4-0.4,0.6c-0.2,0.4-0.5,0.8-1.1,1.8l0-0.1
				c-0.1,0.2-0.2,0.4-0.4,0.7c-0.1,0.3-0.3,0.5-0.4,0.8c0.2-0.5-0.6,1-0.3,0.2c-0.5,1-0.6,1.3-0.6,1.5c0,0.1,0,0.2-0.1,0.3
				c0,0.1-0.1,0.3-0.2,0.7l-0.2,0.3c-0.1,0.5-0.1,0.6-0.5,1.6c0.3-0.9-0.3,0.7,0-0.4c-0.2,0.6-0.5,1-0.6,1.5
				c-0.1,0.5-0.2,0.9-0.3,1.2c-0.2,0.7-0.3,1.3-0.5,1.8c-0.1,1.1,0.6-2,0.5-1.4c0.2-0.5-0.1,0.9-0.3,1.6c-0.1,0.8-0.4,1.3-0.7,3.2
				c0-0.2,0-0.2,0-0.4c-0.2,0.7-0.1,1.4-0.2,2.3c0.1,0.5-0.1,1.2,0.1,1.3l0.1-1.8c0,0.5,0,1,0,1.6c0,0.3,0,0.6,0,0.9
				c0,0.3,0,0.7,0,1.1c0-0.1-0.1-0.6-0.1-1c0,0.5,0,0.9,0,1.4C27,59,27,58.5,27,57.8c0-0.7,0.1-1.4,0-2c-0.1,0.5,0,2.1-0.1,1.5
				c0.2,0.8,0,1.9,0.2,3.2l-0.1-0.1c0,0.2,0.1,0.6,0.1,1c-0.1-0.2-0.1-0.5-0.2-0.7c0.2,1.1,0.1,2.1,0.4,3.1
				c-0.2-1.1-0.2-1.2-0.1-1.2c0,0,0.1,0.2,0.1-0.2c0.5,2.4,0.1,1.7,0.6,3.8c-0.1-0.4-0.1-0.6,0-0.3c0.1,0.6,0.3,1.3,0.3,1.6
				c0.6,1.9,0-0.3,0.3,0.5c0.1,0.7,0.3,0.9,0.6,1.7l-0.1,0c0.8,2.1,0.3,0.5,1.1,2.4l-0.4-0.7l0.4,1L30,72.3c0.2,0.5,0.4,0.8,0.6,1.2
				c0.2,0.3,0.3,0.7,0.6,1.2c-0.1-0.3,0.2,0.1,0.7,0.9c0.3,0.6-0.3-0.3,0.5,0.9c-0.2-0.2-0.5-0.5-0.7-1.1c-0.1,0-0.2-0.3-0.2-0.3
				c0.3,0.7,0.9,1.6,1.2,2c-0.1-0.2-0.2-0.4-0.3-0.5c0.4,0.6,0.8,1.1,1.2,1.6c0.2,0.3,0,0.1-0.2-0.1c0.2,0.3,0.4,0.5,0.8,1
				c-0.1-0.1-0.2,0-0.7-0.7c0.4,0.5,0.8,1,1.2,1.5c0.1,0.1,0.6,0.8,0.4,0.6c0.6,0.9,1.8,1.9,2.8,2.9c0.1,0,0.2,0.1,0.4,0.3
				c0.9,1,1.7,1.8,2.9,2.9l0.5,0.7c0.9,0.9-0.7-1,0.7,0.5c1,1,0.3,0.5,0.6,0.8c0.5,0.5,1.5,1.3,2.3,2.4c-0.3-0.3-0.5-0.6-0.8-0.9
				l0.6,0.8c-0.9-0.8-1.5-1.5-0.9-0.7c0.3,0,2.7,2.9,3,2.8l0.4,0.5c-0.1-0.1-0.2-0.2-0.3-0.3c0.8,1,0.8,0.6,1.9,1.9
				c0.4,0.5,0.6,0.8,0.3,0.5l0.9,0.9c0.2,0.3,0.2,0.2-0.1,0l1.3,1.5l0,0c0.2,0.2,0.7,0.6,0.9,0.9c0.3,0.4-0.2-0.2-0.1-0.1l0.8,0.8
				c0.2,0.4-0.4-0.3-0.9-0.9c0.5,0.9,0.6,0.7,2,2.4l-0.7-0.8c0.3,0.6,0.9,1.2,1.6,2.1c-0.1-0.2-1.4-1.9-0.5-1.1
				c0.2,0.3,0.5,0.6,0.9,1.1c-0.1,0.1,0.4,0.5,0.9,1.1l-0.1,0c0.6,0.6,0.6,0.6,0.9,0.9c0.6,0.7,0.6,1,0.7,1.2
				c0.9,1.2-0.6-0.9,0.6,0.5c0.8,1,1.3,1.7,2.3,2.9c0.5,0.7-0.1-0.1,0,0.2l0.5,0.6c0.1,0.2,0.1,0.1,0,0.1c0.4,0.5,0.1,0,0.8,0.8
				c0.1,0,0.1,0.1,0.3,0.3c0.1,0.2,0.3,0.5,0.6,0.8c0.3-0.4,0.6-0.8,0.9-1.2c0.2-0.3,0.5-0.6,0.7-1c0.2-0.2,0,0.2,0,0.1
				c1-1.5,0.9-1.2,1.7-2.5l0.8-0.9c-0.6,0.7,0-0.3,0.6-1.1c0,0-0.1,0.1-0.1,0.1c0.1-0.1,0.2-0.2,0.2-0.3c0,0.1-0.1,0.1-0.1,0.2
				c0,0,0.1-0.1,0.1-0.1c0-0.1,0.1-0.1,0.1-0.2c0.2-0.2,0.3-0.4,0.5-0.6c0,0-0.1,0.2-0.2,0.4c-0.1,0.1-0.3,0.3-0.4,0.4
				c-0.2,0.4-0.4,0.7-0.3,0.7c0.1-0.1,0.2-0.3,0.3-0.4C68,106,68,106,68,106c0,0,0.1-0.2,0.3-0.4l0.3-0.2l0-0.1l1.4-1.6
				c0.9-1.2,1.6-2.4,3.1-4.2c-0.3,0.5,0,0.2,0.1,0.3c-0.5,0.4-1.2,1.5-2,2.4c0.4-0.5,0.4-0.4,0.3-0.2l1.4-1.8c0,0.1,0.4-0.3,0.8-0.7
				c-0.4,0.2,1-1.3,1.6-2c0.1,0,0,0.2-0.8,1c0.9-0.8,0.9-1.3,1.8-2.1c-0.2,0.2-0.3,0.3-0.3,0.4c0.4-0.5,1.4-1.6,1.2-1.3l-0.2,0.2
				c1.2-1.3,3.7-4,3.7-4.3c0,0,0,0.3-0.1,0.4c0.4-0.6,0.9-1.2,1.3-1.9c0.2-0.2,0.4-0.5,0.7-0.7c0.2,0,0.4-0.1-0.2,0.7
				c0.3-0.3,0.7-0.7,1.3-1.3c-0.2,0.2-0.6,0.4-0.4,0.1c0.9-0.7,0.6-0.5,1.6-1.4c-0.3,0.3-0.1-0.2,0.4-0.7c-0.1,0.1,0.2,0.1,0,0.3
				l1.1-1.3c-0.3,0.3,0.1,0.2,0.4-0.1c-0.2,0.1,1-1,1.4-1.4l-0.6,0.5c0.7-0.7,1-1.1,1.3-1.4c0.3-0.4,0.6-0.8,1.2-1.5
				c-0.1,0.2-0.2,0.6,0.5-0.1c0.1-0.2,0.4-0.7,0.7-1.3c0.4-0.5,0.9-1.1,1.3-1.7C92,79.1,91.5,80,91,80.6c0.5-0.5,0.2-0.1,0.9-1
				c0.2-0.2-0.1,0.2-0.3,0.6c0.2-0.3,0.4-0.5,0.6-0.8c0.3-0.3,0.5-0.7,0.8-1c-0.1,0,1-1.7,0.9-1.7c-0.2,0.4-0.5,0.8-0.7,1.2
				c-0.2,0.4-0.5,0.8-0.8,1.2c-0.2,0,0.7-1.5,1.6-3c0.3-0.4,0,0.4,0,0.4c0-0.1,0.3-0.5,0.5-0.9c0.2-0.4,0.4-0.7,0.4-0.8l-0.3,0.7
				c0.3-0.4,0.4-0.8,0.6-1.2c0.2-0.4,0.4-0.8,0.7-1.3c0.2-0.4,0.6-1.1,0.6-1.2c-0.2,0.3-0.5,0.5-0.6,0.4c0.2-0.4,0.4-0.9,0.6-1.3
				l0,0.1l0.1-0.3l0,0c0.2-0.4,0.3-0.9,0.5-1.3c0.1-0.1-0.2,1.1,0.1,0.6c0,0,0.1-0.4,0.1-0.6c0.2-0.4,0,0.2,0.3-0.7
				c0-0.2,0.6-1.8,0-0.5c0.2-0.9,0.3-0.9,0.6-2c-0.1,0.2-0.1-0.3,0-0.9c0.1-0.4,0.2-0.8,0.2-1.2c0,0,0,0,0-0.1
				c0.1-0.5,0.2-0.9,0.2-1.3c0.1-0.4,0.1-0.7,0.2-1.1c0.1-0.7,0.2-1.4,0.2-2.3c0-0.2,0.1-1,0.1-0.6c0-0.3,0-0.5,0-1
				c0.1-1.1,0,1.2,0.1,0.4C99.2,58.1,99.2,57.8,99.2,57.3z M68.8,104.8c0.2-0.2,0.4-0.5,0.6-0.7C69.3,104.3,69.1,104.6,68.8,104.8z
				 M47.4,25.2c-0.2,0-0.4,0.1-0.7,0.3C47.2,25.2,47.8,25,47.4,25.2z M54,101c0.3,0.2,0.4,0.4,0.7,0.8C54.5,101.6,54.1,101.2,54,101
				z"/>
			<path class="st0" d="M27.9,66.3c0,0.2,0.1,0.5,0.1,0.6C28,66.7,28,66.5,27.9,66.3z"/>
			<path class="st0" d="M91.6,80.2c-0.1,0.1-0.1,0.1-0.2,0.2C91.4,80.3,91.5,80.2,91.6,80.2z"/>
			<path class="st0" d="M67.9,106.2c-0.1,0.1-0.1,0.1-0.1,0.1C67.7,106.4,67.7,106.4,67.9,106.2z"/>
			<path class="st0" d="M38,83.7L38,83.7C37.9,83.7,37.9,83.6,38,83.7L38,83.7z"/>
			<path class="st0" d="M97.3,69.5c-0.1,0.3-0.2,0.4-0.2,0.5C97.1,70,97.2,69.9,97.3,69.5z"/>
			<path class="st0" d="M98.7,52.5l0.1,0L98.7,52C98.7,52.3,98.7,52.3,98.7,52.5z"/>
			<path class="st0" d="M99.1,55.3c0-0.1-0.1-1.2-0.1-0.2C99.1,55.2,99.2,56.7,99.1,55.3z"/>
			<path class="st0" d="M89.5,82.4C89,82.9,88.7,83.2,89,83c0.9-0.9,0.2-0.3,1-1.1C90.1,81.7,89.3,82.6,89.5,82.4z"/>
			<path class="st0" d="M89.5,82.4c0.1-0.1,0.2-0.2,0.2-0.3C89.6,82.2,89.5,82.3,89.5,82.4z"/>
			<path class="st0" d="M56,103.7L56,103.7c0-0.1-0.1-0.2-0.4-0.5L56,103.7z"/>
			<polygon class="st0" points="48.9,95.2 49,95.4 48.9,95 			"/>
			<path class="st0" d="M42.5,88.5c0.3,0.3,0.6,0.6,0.8,0.9C42.8,88.8,42.5,88.4,42.5,88.5z"/>
		</g>
		<g id="XMLID_221_">
			<path id="XMLID_264_" class="st1" d="M70.9,72c-0.3,0.1-0.4-0.6-0.7-0.8c-0.1-0.1,0.1-0.1,0-0.3c-0.2,0-0.2-0.2-0.3-0.4
				c0,0-0.1,0-0.1-0.1l-0.1,0.1l0-0.2c0,0.1,0,0.1,0.1,0.2l0,0c0,0,0.1,0.1,0.1,0.1c0,0,0.1,0.1,0.1,0.1c0,0,0,0,0-0.1
				c0-0.1-0.1-0.2-0.1-0.2c-0.2-0.1-0.5-0.4-0.5-0.7l-0.2-0.1c0-0.2-0.1-0.4-0.1-0.6l-0.1,0c0.1-0.1-0.1-0.2-0.1-0.3
				c0,0,0.1,0,0.1-0.1c-0.1-0.3-0.3-0.5-0.2-0.6c0.2,0.2,0,0,0.2,0.2c-0.1-0.2,0-0.3-0.1-0.4c-0.1-0.2,0-0.2,0-0.3c0,0,0,0,0,0
				c-0.1,0.1-0.2-0.1-0.3-0.1c0-0.2-0.3-0.2-0.5-0.4c0.1,0,0.1,0.1,0.1,0.1c-0.1-0.1-0.1-0.1-0.2-0.1c0,0,0,0,0,0l-0.1-0.1
				c0,0,0.1,0,0.1,0c0,0-0.1-0.2-0.2-0.2c-0.1,0-0.3-0.2-0.4-0.1c0-0.1-0.3-0.1-0.3-0.3c-0.2,0-0.3,0.1-0.5,0.2
				c-0.2-0.1-0.2-0.1-0.3-0.2c-0.1,0-0.2,0-0.2,0l0.2,0.1c-0.4,0-0.5-0.2-0.8-0.2c0.1,0-0.1-0.1,0-0.1l-0.2,0c0-0.1,0.2-0.1,0.2-0.2
				c0,0,0,0,0,0c0,0-0.1,0-0.1,0c-0.1,0-0.1,0-0.2-0.1c0,0-0.2,0-0.3,0.1l0.1-0.1c-0.2-0.1-0.4,0-0.7-0.2c0,0-0.1-0.3,0-0.3
				c0,0,0,0,0,0c-0.1-0.1-0.2-0.2-0.2-0.3c0,0-0.1,0,0,0.1C64,65,64,65.1,64,65.1c0,0-0.1-0.1-0.1-0.1c-0.1-0.1-0.2-0.2-0.1-0.3
				c0,0-0.1-0.1-0.1-0.2c-0.1-0.1-0.1-0.3-0.1-0.3c0.1,0.1,0.1-0.3,0.2-0.2c0-0.1,0.1-0.2,0-0.3c0.1-0.1,0,0.3,0.1,0.2
				c0.1-0.2,0-0.5,0.2-0.5c0-0.2-0.1-0.1-0.2,0c-0.1,0.1-0.1,0.3-0.1,0c0,0,0.2-0.2,0.2-0.1c0.2-0.4,0.6-0.6,0.8-1l0,0.1
				c0.2-0.1,0.3-0.3,0.4-0.4l0.1,0.1c0.1-0.1,0.2-0.4,0.3-0.3c-0.1,0-0.1,0.1-0.1,0.1c0.3-0.1,0.2-0.2,0.5-0.4l0.1-0.1
				c-0.1-0.1-0.2-0.1-0.2-0.1c0.3-0.2,0.2-0.1,0.5-0.2c-0.1,0,0-0.1,0-0.2c0.4-0.3,0.2-0.3,0.5-0.5c0,0,0,0-0.1,0
				c0.2,0,0.1-0.2,0.3-0.2c-0.1,0-0.1,0.1-0.1,0.2c0.1,0,0.2-0.2,0.3-0.3c0,0-0.2,0.1-0.1-0.1c0.2-0.3,0.5-0.1,0.7-0.5
				c0.1,0,0.3-0.2,0.4-0.1c0.1-0.1,0.2-0.2,0.4-0.2c0-0.1,0-0.2,0.2-0.2c0,0,0,0.1,0,0.1c0,0,0.1,0,0.1,0l0.1,0
				c0.2-0.1,0.6-0.2,0.9-0.1c0,0.1,0.3,0.2,0.1,0.2c-0.1,0-0.1-0.1-0.2,0c0,0,0,0,0,0c0.1,0,0.1,0.1,0.2,0.1c0.1,0,0.1,0,0.2,0
				c-0.1-0.3,0.2,0.2,0.1-0.1c0.1,0.1,0.1,0.3,0.2,0.3c0,0-0.1,0.1-0.1,0.1c0,0,0,0,0,0.1c0.1,0.1,0.1,0.1,0.1,0.2
				c0.2,0.1,0-0.3,0.2-0.1c0,0.2-0.1,0-0.1,0.2l0.2,0c0.1,0.4,0.3,0.3,0.3,0.7c-0.2-0.1-0.1-0.2-0.2-0.4c0,0.1,0,0.1-0.1,0.1
				c0.1,0,0-0.1,0-0.2l-0.1,0.2c0.1,0.2,0.1,0.3,0.2,0.5c0,0,0.1,0.3,0.2,0.3c0,0,0,0,0,0c0,0.1,0,0.2,0.1,0.2l0-0.2
				c0.2,0.2,0,0.4,0.1,0.4l0,0c0,0.3,0.1,0.4,0.1,0.7c-0.2,0.1-0.1,0.3-0.2,0.5c0-0.2,0.2,0,0.2,0c0-0.1-0.2-0.1-0.1-0.3
				c0,0,0.1,0.1,0.1,0c0.1,0.3,0,0.4,0.1,0.7l0.1-0.1c0,0,0,0.2,0,0.2c0.1-0.1,0.1,0,0.2,0.1l0,0c0.1,0.1,0.2,0.2,0.3,0.2
				c0.1,0.1-0.1,0,0,0.1l0.1,0c0,0.1-0.1,0,0,0.1c0.1,0,0.2,0.1,0.4,0c0,0.1-0.1,0.1,0,0.1c-0.2,0-0.1,0.1-0.1,0.1c0,0-0.1,0-0.2,0
				c0.1,0,0.1,0.1,0.2,0.1c0.1,0,0.2,0,0.3,0.1c0-0.1,0.2-0.1,0-0.2c0.1,0,0.3,0,0.3,0c-0.2,0-0.2-0.1-0.2-0.1c0,0,0,0,0,0
				c0,0,0,0,0,0c0.1,0,0.5,0.1,0.3,0.2c0.2,0,0.4,0,0.5,0c0,0,0,0,0,0c0,0,0.1,0,0.1,0c0,0-0.1,0-0.1,0c0,0.1,0.1,0.1,0.2,0.1
				c-0.1,0-0.5-0.1-0.4,0c0.3,0.1,0.5,0.2,0.7,0.3l0-0.1c0.2,0.1,0.3,0,0.6,0.1c0,0-0.1,0.1,0,0.2c0,0,0.1-0.1,0.2,0
				c-0.1-0.1-0.1-0.1-0.1-0.1c-0.1-0.1-0.1-0.1-0.2-0.2c0.2,0.1,0.2,0.1,0.2,0.2c0.2,0.2,0.4,0.4,0.6,0.5c0.1,0,0.2,0,0.1-0.1
				c0.2,0.1,0.1,0.2,0.3,0.3l0.1,0c0.1,0.1,0.1,0.1,0.2,0.2c0.1-0.2,0.5,0.2,0.5,0.1c0.2,0.3,0.6,0.6,1,0.8l-0.1,0
				c0.6,0.4,1.4,0.8,1.7,1.1c-0.1,0.1-0.1-0.1-0.2-0.1c0,0.1,0.2,0.3,0.2,0.3c-0.2-0.2-0.1,0.1-0.3-0.1c0.1-0.2-0.3-0.3-0.2-0.4
				c-0.1,0-0.1,0.1-0.1,0.1c-0.2-0.2-0.5-0.3-0.6-0.6c0.1,0,0.1,0.1,0.1,0.1c0.1-0.1-0.1-0.1-0.1-0.2l-0.2,0
				c-0.8-0.7-1.7-1.2-2.6-1.6c-0.3-0.1-0.5-0.1-0.7-0.3l0,0l-0.1,0c0,0,0,0,0,0c-0.2-0.1-0.6-0.2-0.9-0.3c1.6,0.5,4.3,1.8,6.6,4.6
				c0.3,0.4,0.5,0.8,0.6,1.2c0-0.1,0.1-0.2,0.2-0.2l0.1,0.2c-0.1,0-0.1,0.2-0.1,0.4c-0.1,0-0.1-0.3-0.2-0.4c0,0.2,0.1,0.3,0.1,0.5
				c0,0,0,0,0,0c0.1,0.1,0.2,0.2,0.3,0.4l-0.1,0.2c-0.1-0.1,0-0.1,0-0.3c0-0.2-0.1-0.2-0.1-0.1c0,0,0,0,0,0c0,0,0,0,0,0
				c0,0,0,0,0,0.1c0,0,0,0,0,0.1c0,0,0-0.1,0-0.1c0,0,0,0,0,0c0,0.2,0,0.4,0,0.5c0,0.1,0.1,0.1,0.1,0.1c0,0-0.1-0.1-0.1,0
				c0,0.1,0,0.2,0,0.3c0,0,0.1,0,0.2-0.1l0,0.3l-0.1,0c-0.1,0.2,0.1,0.2-0.1,0.4c-0.1-0.1,0-0.2-0.1-0.3c-0.1,0.1,0,0.3,0,0.4
				c0,0-0.1,0-0.1-0.1c0,0.1,0,0.2-0.1,0.2c-0.3,1-1,2-1.9,2.6c-0.1,0-0.1,0.1-0.2,0.1c-1.4,0.8-3,0.8-4.2,0c0,0,0,0-0.1,0
				c0,0,0,0,0-0.1c-0.1-0.1-0.3-0.2-0.4-0.3c0,0,0,0-0.1,0c0,0,0.1,0.1,0.1,0.1c-0.1,0-0.2-0.1-0.2-0.1l0,0c0-0.3-0.3-0.2-0.5-0.6
				c-0.1-0.1-0.3-0.3-0.4-0.4c0,0-0.1-0.1-0.1-0.1c-0.1-0.1-0.2-0.2-0.3-0.3c0,0-0.1,0-0.1-0.1l0,0c0,0,0,0,0,0
				c-0.2-0.1-0.3-0.2-0.5-0.3c0-0.4-0.6-0.5-0.8-1L70.9,72c0,0-0.1-0.1-0.1-0.2C70.8,71.9,70.9,72,70.9,72z"/>
			<path id="XMLID_263_" class="st1" d="M59.5,65.2c-0.1-0.1,0.2-0.2,0.3-0.4c-0.1,0-0.6,0.5-0.6,0.4c0.5-0.4-0.1-0.2,0.4-0.5
				c0.3,0,0.7-0.6,0.8-0.4c0.1-0.1,0-0.2-0.1-0.1c0.5-0.4,0.9-1,1.4-1.2c-0.1,0.1-0.2,0.2-0.3,0.3c0,0.1,0.3-0.2,0.4-0.2l0.1-0.3
				c1.7-1.5,3.2-3,4.8-4.4c0.4-0.5,0.7-0.8,1.2-1.1l-0.1,0L68,57c0,0,0,0-0.1,0.1c0.4-0.3,1-0.9,1.4-1.3
				C62.6,62,54.5,69.4,54.5,69.4c0.1,0.1,0.1,0.1,0.1,0.2c0-0.1,0-0.2,0-0.2c0.1,0,0.1,0,0.1,0c0,0,0,0.1,0.1,0.1
				c0,0,0.1,0.2,0.1,0.2c-0.1-0.1,0,0.3,0,0.8c-0.1-0.1-0.2-0.7-0.4-0.8c0.2,0.4,0.3,0.7,0.3,1.1c0.1,0.2,0.2,0.5,0.1,1l-0.2,0.3
				c0-0.3,0.1-0.2,0.2-0.6c0.1-0.3,0-0.5-0.1-0.3c0,0,0,0,0,0c0,0,0,0.1,0,0.1c0,0,0,0.1,0,0.1c0,0,0,0.1,0,0.2c0-0.1,0-0.1,0-0.2
				c0,0,0,0,0,0c0,0.2-0.1,0.5-0.2,0.7c0,0,0,0.1,0,0.1l-0.1,0c0,0,0-0.1,0-0.1c0,0.1-0.1,0.2-0.2,0.3c0,0.1,0,0.3,0,0.3
				c0,0,0.1-0.3-0.1-0.1c-0.1,0.2-0.2,0.4-0.4,0.6c0.1-0.1,0.1,0,0.3,0c0,0-0.1,0.1-0.1,0.2c-0.1,0.1-0.2,0.2-0.2,0.2L54,73.5
				c-0.4,0.4-0.2,0.4-0.6,0.7c0-0.2,0.3-0.4,0.3-0.6c-0.2,0.2-0.4,0.5-0.5,0.6c0,0,0-0.1,0-0.2c-0.2,0.2-0.4,0.4-0.4,0.4
				c-3.1,2.5-5,0.7-5,0.7l2.7-2.7l-2-2L46,73c-0.3-0.4-0.4-0.7-0.5-1.1c0,0,0,0-0.1-0.1c0,0,0-0.1,0-0.1c-0.1-0.4-0.1-0.8-0.1-1.2
				c0,0.1,0,0.2-0.1,0.2c0-0.2,0-0.4,0-0.5l0,0.1c0.3-0.5,0.1-0.9,0.7-1.5c0.3-0.4,0.5-0.8,0.7-1c0.1-0.1,0.1-0.1,0.2-0.2
				c0.1-0.1,0.2-0.2,0.2-0.2c0.2-0.2,0.4-0.3,0.6-0.4c0.1-0.1,0.1-0.1,0.2-0.1l0,0c0,0,0.1-0.1,0.1-0.1c0.3-0.2,0.7-0.4,1.1-0.5
				c0.4,0,0.8,0,1.2,0c0.4,0,1,0.1,1.3,0.4c0,0,0,0.1-0.1,0.1c0.2,0.1,0.2,0.1,0.2,0.1c0.1-0.1,0.2-0.2,0.3-0.4
				c-0.1,0.1-0.2,0.3-0.3,0.3c0,0,0,0,0,0c0,0,0,0,0,0c0-0.1,0.1-0.2,0.2-0.3c0.1-0.1,0.2-0.3,0.4-0.5c0.3-0.3,0.6-0.7,0.8-1
				c0.2-0.2,0.2,0,0.4-0.3c0-0.2,0.4-0.5,0.6-0.8c0-0.1,0.1-0.1,0.1-0.2l-0.1,0l0.3-0.3c-0.1,0.1-0.2,0.2-0.2,0.3l0,0
				c0,0.1-0.1,0.1-0.2,0.2c0,0.1-0.1,0.2-0.1,0.2c0,0,0.1,0,0.1-0.1c0.1-0.2,0.3-0.3,0.4-0.5c0.2-0.5,0.7-1.1,1.2-1.5l0.2-0.5
				c0.3-0.2,0.7-0.7,1-0.9l-0.1,0c0.2-0.1,0.3-0.3,0.4-0.5c0.1,0,0.1,0,0.1,0c0.4-0.4,0.6-0.9,0.9-1.1c-0.2,0.4,0.1,0-0.2,0.4
				c0.2-0.3,0.5-0.4,0.6-0.7c0.3-0.4,0.3-0.2,0.5-0.3c-0.2,0,0.3-0.5,0.3-0.6c0.4-0.3,0.5-0.7,1-1.1c-0.1,0.1-0.2,0.2-0.2,0.2
				c0.2-0.2,0.2-0.2,0.3-0.4c0,0,0,0,0,0l0.2-0.2c0,0.1-0.1,0.1-0.1,0.1c0,0,0.3-0.2,0.4-0.4c0-0.1,0.6-0.6,0.6-0.7
				c0.1,0,0.7-0.6,0.7-0.5c0.3-0.3,0.4-0.5,0.6-0.8c0.3-0.2,0.4-0.3,0.6-0.4c0.1-0.1,0.3-0.3,0.2-0.4L63.3,54
				c0.5-0.6,0.8-0.6,1.2-1.2c-0.1,0.1,0.2-0.1,0.1,0l0.2-0.3c0.1,0.1-0.1,0.3-0.1,0.4c0,0,0,0,0.1-0.1c0.1-0.1,0.1-0.1,0.1-0.1
				c0.1-0.1,0.2-0.2,0.3-0.3c0,0,0.2-0.3,0.2-0.4l0.1,0.1c0.3-0.4,0.5-0.7,0.9-1.2c0.1,0,0.5-0.2,0.5-0.1c0.2-0.2,0.4-0.4,0.6-0.6
				c0,0,0-0.1-0.2,0.1c-0.1,0.1-0.2,0.3-0.2,0.2c0.1-0.1,0.1-0.1,0.2-0.2c0.2-0.2,0.4-0.4,0.5-0.5l0.6-0.9c0,0.2,0.4-0.3,0.4-0.2
				c0.2-0.2,0.4-0.3,0.4-0.5c0.3-0.1-0.3,0.4-0.1,0.3c0.5-0.3,0.5-0.8,0.8-0.7c0.4-0.6-1,0.8-0.3,0l0.3-0.2c0.5-0.5,1.2-1.2,1.8-1.8
				l0,0.1c0.4-0.2,0.7-0.7,0.9-0.9l0.1,0.1c0.3-0.2,0.5-0.6,0.7-0.6c-0.1,0.1-0.2,0.2-0.2,0.2c0.5-0.3,0.5-0.4,1-0.8
				c0.1-0.1,0.2-0.2,0.3-0.2c-0.1,0-0.3,0-0.3,0c0.6-0.4,0.4-0.2,0.9-0.5c0,0,0,0,0,0c-0.1,0,0-0.1,0.1-0.3c0.8-0.6,0.5-0.5,1.1-1
				c0.1-0.1-0.1,0-0.1,0c0.3-0.1,0.4-0.4,0.5-0.4c-0.1,0.1-0.3,0.2-0.3,0.3c0.2-0.1,0.4-0.4,0.6-0.6c0-0.1-0.5,0.3-0.1-0.1
				c0,0,0.1-0.1,0.1-0.1c0.3-0.2,0.5-0.2,0.7-0.1c0.1,0.1,0.2,0.1,0.3,0.2c0.2,0.1,0.4,0.3,0.8,0.5c0.1,0.1,0.4,0.5,0.4,0.6
				c0.1,0.1,0.2,0.1,0.2,0.1c0.2,0.2,0.4,0.4,0.5,0.6c0.1,0,0.2,0,0.4,0.2c-0.1,0-0.1,0-0.1,0.1c0.1,0.1,0.1,0.2,0.2,0.3
				c0.1,0.1,0.2,0.2,0.1,0.4c-0.1,0.5-0.5,0.9-0.6,1.2c-0.1,0-0.4,0.4-0.4,0.3c0.1-0.1,0.2-0.2,0.2-0.3c0,0,0,0,0,0
				c-0.1,0.1-0.2,0.2-0.3,0.3c-0.1,0.1-0.2,0.2-0.1,0.3c0.4-0.3-0.3,0.4,0.1,0.1c-0.2,0.2-0.4,0.4-0.5,0.5c-0.1,0-0.2,0-0.2-0.1
				c0,0-0.1,0.1-0.1,0.1c-0.1,0.1-0.2,0.3-0.3,0.4c-0.2,0.3,0.4-0.2,0.2,0.1c-0.3,0.2,0-0.2-0.3,0.1l0,0.3c-0.7,0.6-0.4,0.7-1,1.1
				c0.2-0.3,0.3-0.3,0.6-0.7c-0.1,0.1-0.2,0.1-0.1-0.1c0,0,0.1-0.1,0.3-0.2l-0.3,0.1c-0.2,0.2-0.3,0.4-0.5,0.5
				c-0.1,0.1-0.2,0.3-0.4,0.4c-0.1,0.1-0.4,0.5-0.4,0.6c-0.1,0-0.1,0-0.1,0c-0.1,0.2-0.2,0.3-0.2,0.3l0.2-0.2
				c-0.2,0.4-0.6,0.5-0.6,0.7l0,0c-0.4,0.4-0.5,0.6-0.9,1c-0.3,0-0.5,0.4-0.9,0.6c0.3-0.3,0,0.2,0.1,0.2c0.2-0.3,0.2-0.4,0.5-0.6
				c-0.1,0.1-0.2,0.3,0,0.1c-0.6,0.7-0.9,0.7-1.4,1.2l0.1,0l-0.3,0.1c0.2,0-0.1,0.2-0.3,0.4l0.1-0.1c-0.2,0.2-0.5,0.5-0.5,0.6
				c-0.3,0.3,0-0.1-0.2,0l-0.2,0.3c-0.2,0.1,0.1-0.1-0.1,0c-0.2,0.2-0.4,0.4-0.6,0.7c0-0.1,0-0.1-0.2,0c0.3-0.3,0-0.2,0-0.2
				c0.1-0.1,0.3-0.3,0.4-0.5c-0.3,0.3-0.6,0.6-0.9,0.9c0.1,0-0.2,0.3,0.2,0c-0.1,0.2-0.4,0.4-0.4,0.5c0.2-0.2,0.4-0.3,0.4-0.3
				c0,0,0.1,0,0,0c0,0,0,0,0,0c-0.2,0.1-0.7,0.7-0.6,0.4c-0.2,0.3-0.5,0.6-0.6,0.9c0,0,0,0,0,0c-0.1,0.1-0.1,0.1-0.1,0.1
				c0,0,0.1-0.1,0.1-0.2c-0.1,0-0.3,0.2-0.4,0.3c0.2-0.2,0.7-0.7,0.4-0.6c-0.4,0.4-0.8,0.7-1.2,1.1l0.2,0c-0.3,0.2-0.4,0.5-0.8,0.9
				c0,0-0.1-0.1-0.3,0.1c0,0.1,0.1,0.1-0.2,0.3c0.1-0.1,0.2-0.1,0.2-0.1c0.2-0.1,0.3-0.2,0.4-0.3c-0.3,0.2-0.3,0.2-0.4,0.3
				c-0.4,0.3-0.9,0.6-1.3,0.9c0,0.1-0.3,0.4,0,0.2c-0.3,0.3-0.3,0.2-0.6,0.5l0,0.1c-0.2,0.2-0.2,0.2-0.4,0.3
				c0.2,0.1-0.8,0.8-0.6,0.8c-0.5,0.3-1.4,1.1-1.9,1.7l0.1-0.2C61.4,63.3,60.3,64.6,59.5,65.2z"/>
			<path id="XMLID_262_" class="st1" d="M57.9,66.7c0.2-0.2,0.3-0.2,0.5-0.4c-0.3,0.1,0.3-0.5-0.4,0c-0.2,0.2-0.4,0.7-0.7,0.8
				c0,0,0-0.2,0-0.2c0.1,0,0.1,0,0.2,0l0.4-0.5c0.6-0.5,0.8-0.7,1.2-0.9l-0.2,0.3c0.1-0.1,0.2-0.1,0.3-0.2c0.1-0.1,0.1-0.1,0.1-0.1
				c-0.1,0.1-0.1,0.1-0.1,0.1C58.8,65.9,58.4,66.4,57.9,66.7z"/>
			<path id="XMLID_261_" class="st1" d="M57,67.1c0.1-0.2,0.2-0.2,0.3-0.2C57.2,66.9,57.2,67,57,67.1z"/>
			<polygon id="XMLID_260_" class="st1" points="57.1,67.4 57,67.4 57,67.4 			"/>
			<path id="XMLID_259_" class="st1" d="M58.8,65.6c0,0,0.1-0.2,0.2-0.2l0.2-0.1L58.8,65.6z"/>
			<path id="XMLID_258_" class="st1" d="M55.4,68.8c-0.2,0-0.2,0.3-0.4,0.3l-0.2,0l0.4-0.2c0.1-0.2,0.4-0.5,0.6-0.8
				c0.3-0.1-0.5,0.4-0.3,0.4c0.3-0.3,0.3-0.4,0.7-0.7c-0.2,0.2-0.1,0.2-0.2,0.3l0.7-0.9c-0.3,0.3,0,0.4-0.5,0.9
				c-0.4,0.4-0.9,0.7-1.1,0.9C55.4,69,55.5,68.8,55.4,68.8z"/>
			<path id="XMLID_257_" class="st1" d="M54.3,73c0,0,0-0.1,0-0.1C54.4,72.7,54.3,73,54.3,73z"/>
			<path id="XMLID_256_" class="st1" d="M46.8,42.9c0,0,0.1,0.1,0.1,0.1c0,0,0-0.1,0-0.1l0,0c0,0,0,0,0,0c0,0,0-0.1,0-0.1l1.7-1.7
				c0.1-0.1,0.3-0.1,0.5,0l2.8,2c0,0,0,0,0.1,0c0,0,0,0,0,0.1l0.4,0.3c0,0-0.1-0.1-0.1-0.1c0.1,0,0.2,0,0.2,0.1l0,0
				c0,0.3,0.3,0.1,0.4,0.4l0.4,0.3c0,0,0.1,0.1,0.1,0.1l0.1,0c0.1,0,0.1,0.1,0.1,0.2c0,0,0,0.1,0.1,0.1l0,0c0,0,0,0,0,0l0,0.1
				c0.1,0.1,0.1,0.3,0.2,0.4c-0.2,0.3,0.2,0.6,0.1,1l-0.1,0l0,0.3c0,0,0,0,0,0c0-0.1,0-0.2,0-0.2c0.3,0.1,0,0.6,0.3,0.8
				c0,0.1-0.1,0.1,0,0.2c0.1,0,0.1,0.2,0.2,0.3c0,0,0.1,0,0.1,0l0-0.1l0,0.2c0,0,0-0.1-0.1-0.1l0,0c0,0-0.1,0-0.1-0.1
				c0,0-0.1,0-0.1,0c0,0,0,0,0,0.1c0,0.1,0.1,0.1,0.1,0.2c0.2,0.1,0.5,0.2,0.6,0.4l0.2,0c0,0.2,0.2,0.3,0.3,0.4l0.1-0.1
				c0,0.1,0.1,0.1,0.2,0.1c0,0,0,0.1,0,0.1c0.1,0.2,0.4,0.2,0.4,0.3c-0.2,0,0,0-0.2,0c0.1,0,0.1,0.2,0.3,0.2c0.1,0.1,0,0.2,0.1,0.3
				c0.1-0.1,0.2,0,0.3,0c0,0.2,0.3,0.2,0.4,0.3c0,0-0.1-0.1-0.1,0c0,0.1,0.1,0.1,0.1,0.1c0,0,0,0,0,0l0.1,0.1c0,0-0.1,0-0.1,0
				c0,0,0,0.1,0.1,0.2c0.1,0,0.2,0.2,0.3,0.2c-0.1,0.1,0.2,0.3,0.1,0.3c0.1,0.1,0.3,0.1,0.4,0.1c0.1,0.1,0.1,0.2,0.1,0.3
				c0.1,0,0.1,0.1,0.2,0.1L58,50.8c0.2,0.2,0.2,0.4,0.5,0.5c-0.1,0,0,0.1,0,0.1l0.1,0.1c-0.1,0.1-0.1,0-0.2,0.1l0,0c0,0,0,0,0,0
				l0.1,0.1c0,0,0.2,0,0.2,0l-0.1,0.1c0.2,0.1,0.3,0.1,0.5,0.2c0,0,0,0.3-0.1,0.3l0.2,0.2c0,0,0.1,0,0-0.1c-0.1,0-0.1-0.1-0.1-0.1
				c0,0,0.1,0,0.1,0.1c0.1,0,0.2,0.1,0.2,0.2l0.4,0.1c-0.1,0,0.1,0.2,0,0.2c0.1,0.1,0.1,0.2,0.2,0.1c0,0.1-0.2-0.1-0.2,0
				c0.1,0.2,0.4,0.1,0.3,0.3c0.3,0.1-0.2-0.4,0.1-0.2l0,0.2c0.1,0.1,0.2,0.2,0.3,0.3c0.2,0.2,0.3,0.4,0.2,0.7l0-0.1
				c-0.2,0.2-0.3,0.3-0.4,0.4l-0.1-0.1c-0.1,0.1-0.1,0.3-0.2,0.2c0.1,0,0.1-0.1,0.1-0.1c-0.2,0.1-0.2,0.2-0.4,0.3l-0.1,0.1
				c0.1,0.1,0.2,0.1,0.2,0.1c-0.3,0.1-0.2,0-0.4,0.1c0.1,0.1,0,0.1,0,0.2c-0.2,0.1-0.3,0.1-0.4,0.1c-0.1,0-0.1,0-0.3-0.1
				c-0.1,0,0,0,0,0.1c-0.1-0.2-0.2-0.1-0.2-0.2c0,0.1,0.1,0.1,0.1,0.1c0-0.1-0.2-0.1-0.2-0.2c0,0,0.1,0.2-0.1,0.1
				c-0.3-0.2,0-0.4-0.4-0.5c0-0.1-0.1-0.3-0.1-0.3l-0.3-0.3c-0.1,0-0.1,0-0.2,0c0,0,0.1,0,0.1-0.1l-0.1-0.1
				c-0.2-0.1-0.4-0.3-0.6-0.3c0-0.1-0.1-0.2,0-0.2c0,0,0.1,0.1,0.1,0.1c0,0,0,0,0,0L57,53.3c-0.1,0-0.1,0-0.1,0
				c0.1,0.2-0.2-0.1-0.1,0.1c-0.1-0.1-0.1-0.2-0.2-0.2c0,0,0.1-0.1,0.1-0.1L56.7,53c-0.1,0-0.1-0.1-0.1-0.1c-0.2,0,0,0.2-0.1,0.2
				c-0.1-0.1,0.1,0,0-0.2L56.2,53c-0.2-0.3-0.3-0.1-0.4-0.4c0.2,0,0.1,0.1,0.3,0.2c0-0.1,0-0.1,0.1-0.1c0,0,0,0.1,0.1,0.1l0-0.2
				l-0.3-0.3c-0.1,0-0.2-0.1-0.3-0.1c0,0,0,0,0,0c-0.1,0-0.1-0.1-0.1,0l0.1,0.1c-0.2,0-0.2-0.2-0.3-0.2l0,0
				c-0.1-0.2-0.2-0.2-0.4-0.3c0.1-0.2-0.1-0.2-0.2-0.4c0.1,0.1-0.1,0.1-0.2,0.1c0.1,0.1,0.2,0,0.3,0.2c0,0-0.1,0-0.1,0
				c-0.3-0.2-0.2-0.4-0.4-0.6l0,0.1l0-0.2c-0.1,0.1-0.1,0-0.2,0l0,0c-0.1-0.1-0.2-0.2-0.2-0.1c-0.1-0.1,0.1,0,0-0.1l-0.1,0
				c0-0.1,0.1,0,0-0.1c-0.1,0-0.2-0.1-0.3-0.2c0,0,0.1-0.1,0.1-0.1c0.1,0.1,0.1,0,0.1-0.1c0,0,0.1,0.1,0.2,0.2L53.5,50
				c0,0.1-0.2,0-0.1,0.1c-0.1,0-0.2-0.1-0.2-0.1c0.1,0.1,0.1,0.1,0.1,0.2c-0.1-0.1-0.3-0.3-0.1-0.3c-0.1,0-0.3-0.1-0.4-0.1
				c0,0,0,0,0,0c0,0,0,0-0.1,0c0,0,0,0,0.1,0c0-0.1-0.1-0.1-0.1-0.2c0.1,0,0.3,0.3,0.3,0.1c-0.2-0.1-0.2-0.3-0.4-0.5l0,0.1
				c-0.1-0.2-0.3-0.1-0.4-0.2c0,0,0.1-0.1,0-0.2c0,0-0.1,0.1-0.1,0c0,0.1,0,0.1,0,0.1c0,0.1,0,0.1,0.1,0.2c-0.1-0.1-0.1-0.1-0.1-0.2
				c-0.1-0.1-0.2-0.3-0.3-0.5c0,0,0,0,0,0c-0.1,0-0.2,0-0.1,0.1c-0.1,0-0.1-0.1-0.2-0.2l0,0.1c-0.1,0-0.1,0-0.2-0.1
				c0,0.2-0.4,0-0.4,0.1c-0.2-0.2-0.5-0.2-0.8-0.3c-0.1,0-0.2,0-0.2-0.1l0.1,0c-0.2-0.1-0.3-0.3-0.4-0.3c-0.1-0.1-0.2-0.2-0.3-0.3
				c-0.2-0.2-0.4-0.4-0.4-0.6c0.1-0.1,0.1,0.1,0.2,0.1c0-0.1-0.1-0.2,0-0.3c0.1,0.2,0.1-0.1,0.2,0.1c-0.1,0.2,0.2,0.3,0,0.4
				c0.1,0,0.1-0.1,0.2-0.1c0.1,0.2,0.4,0.4,0.3,0.6c0,0-0.1-0.1-0.1-0.1c-0.1,0,0.1,0.1,0,0.2l0.2,0c0.1,0.1,0.2,0.2,0.3,0.2
				c0.4,0.1,0.7,0.1,1,0.2c0.2,0,0.4,0.1,0.6,0.2c0,0,0,0,0,0c0,0,0,0,0,0c0.1,0,0.2,0.1,0.3,0.1c0.2,0.1,0.4,0.2,0.5,0.3l0,0l0,0.1
				c0,0,0,0,0,0c0.1,0.2,0.4,0.4,0.5,0.5L52.5,49c-0.3-0.3-0.7-0.5-1.1-0.6l-1.3-0.3c-0.1,0-0.2-0.1-0.3-0.2l-2.1-3.3
				c0,0.1-0.1,0.2-0.1,0.2l-0.1-0.1c0.1,0,0.1-0.2,0-0.3c0.1,0,0.1,0.2,0.2,0.2l-0.2-0.4c-0.1,0-0.3,0-0.4-0.2l0-0.2
				c0.1,0,0,0.1,0.1,0.2c0,0.1,0.2,0.1,0.2,0c0,0,0,0,0,0l0,0c0,0,0,0,0,0c0,0,0,0,0,0l-0.1-0.2l-0.1,0l0,0l0,0l-0.1-0.1l-0.1,0
				c0,0,0.1,0,0.1-0.1L47,43.4c0,0.1-0.1,0.1-0.1,0.2l-0.1-0.1l0.1,0c-0.1-0.2-0.2-0.1-0.1-0.4c0.1,0.1,0.1,0.2,0.2,0.3
				C46.9,43.2,46.8,43,46.8,42.9z"/>
			<polygon id="XMLID_255_" class="st1" points="53.6,44.3 53.6,44.3 53.6,44.2 			"/>
			<path id="XMLID_254_" class="st1" d="M53.6,44.2c0.1,0,0.1,0.1,0.1,0.2C53.7,44.3,53.6,44.2,53.6,44.2z"/>
			<path id="XMLID_253_" class="st1" d="M79.4,42.1c0,0,0.2,0.2,0.2,0.2C79.5,42.3,79.4,42.2,79.4,42.1L79.4,42.1z"/>
			<polygon id="XMLID_252_" class="st1" points="58,54.5 58,54.5 57.9,54.5 			"/>
			<path id="XMLID_251_" class="st1" d="M57.3,53.9l-0.1-0.1c0,0,0.1,0,0.1,0L57.3,53.9z"/>
			<polygon id="XMLID_250_" class="st1" points="55.9,52.5 55.9,52.5 56,52.5 			"/>
			<polygon id="XMLID_249_" class="st1" points="53.2,50.1 53.1,50.1 53,50 			"/>
			<path id="XMLID_248_" class="st1" d="M51.1,48.7C51.1,48.7,51.1,48.7,51.1,48.7C51.2,48.7,51.1,48.7,51.1,48.7z"/>
			<path id="XMLID_247_" class="st1" d="M48.7,46.7c-0.1-0.1-0.4-0.2-0.3-0.5c0.1,0.1,0,0.1,0.1,0.2c0-0.2,0.2,0.1,0.1-0.2
				c-0.1-0.1-0.3-0.1-0.3-0.3c0,0,0.1,0,0.1,0c0,0,0,0.1,0,0.1l0.2,0.1C48.8,46.4,48.9,46.5,48.7,46.7l0-0.1
				C48.8,46.7,48.7,46.7,48.7,46.7z"/>
			<path id="XMLID_246_" class="st1" d="M47.9,45.7c-0.1-0.2-0.1-0.4-0.2-0.5c0,0,0.1,0.1,0.1,0c0.1-0.1-0.1-0.1-0.1-0.2l0.1-0.1
				l0,0.2c0.1,0,0.2,0.1,0.3,0.2c-0.1,0.1-0.1-0.2-0.2-0.1c0.1,0.1,0.2,0.1,0.2,0.3c-0.1-0.1-0.1,0-0.2,0l0.4,0.3
				C48.2,45.7,48,45.9,47.9,45.7z"/>
			<polygon id="XMLID_245_" class="st1" points="48.2,45.9 48.2,45.9 48.2,45.9 			"/>
			<path id="XMLID_244_" class="st1" d="M48.4,45.8c0.1,0,0.1,0.1,0,0.1C48.5,45.9,48.5,45.9,48.4,45.8z"/>
			<path id="XMLID_243_" class="st1" d="M48.9,46.6C48.9,46.6,48.9,46.6,48.9,46.6l0.1,0.1L48.9,46.6z"/>
			<path id="XMLID_242_" class="st1" d="M47.2,67.2c0.1-0.1,0.3-0.2,0.4-0.3C47.5,67,47.3,67.1,47.2,67.2z"/>
			<polygon id="XMLID_241_" class="st1" points="47.4,67.1 47.4,67.2 47.2,67.3 			"/>
			<path id="XMLID_240_" class="st1" d="M47,43.5c0,0.1-0.1,0-0.1,0C47,43.5,47,43.5,47,43.5z"/>
			<path id="XMLID_239_" class="st1" d="M80.6,69.7l-0.1,0.1l0-0.2c-0.2-0.1-0.3-0.2-0.3-0.3c0-0.2,0.2,0.3,0.2,0.1
				c-0.1-0.2-0.2-0.2-0.3-0.4c0.1,0.1,0.1,0,0.2,0.1c0,0-0.5-0.4-0.5-0.3c0.2,0.1,0.3-0.1,0.5,0.1c0.2,0.3,0.2,0.6,0.3,0.7
				c0-0.1-0.1-0.1-0.1-0.1C80.4,69.5,80.6,69.6,80.6,69.7z"/>
			<polygon id="XMLID_238_" class="st1" points="79.9,68.6 79.9,68.5 79.9,68.6 			"/>
			<path id="XMLID_237_" class="st1" d="M80.3,44.8c0-0.1,0.1-0.2,0.1-0.2l0.2-0.2c0,0-0.1,0.1-0.1,0.2
				C80.4,44.7,80.3,44.8,80.3,44.8z"/>
			<path id="XMLID_236_" class="st1" d="M79.6,68.5C79.6,68.5,79.6,68.4,79.6,68.5l-0.2-0.2c-0.3-0.3-0.3-0.4-0.4-0.6l0.1,0.1
				c-0.1-0.1,0-0.1-0.1-0.1c0.1,0.1,0.5,0.2,0.5,0.5c-0.1-0.1-0.1-0.1-0.2-0.2c0,0.2-0.3-0.1-0.1,0.2c0.1,0.1,0.4,0.1,0.4,0.3
				C79.7,68.5,79.6,68.5,79.6,68.5z"/>
			<path id="XMLID_235_" class="st1" d="M79.7,68.6c-0.1,0-0.1-0.1-0.1-0.1C79.6,68.5,79.6,68.6,79.7,68.6z"/>
			<path id="XMLID_234_" class="st1" d="M79,67.8c0,0-0.1,0-0.1,0l0-0.1L79,67.8z"/>
			<polygon id="XMLID_233_" class="st1" points="77.2,48.3 77.1,48.3 77.2,48.1 			"/>
			<path id="XMLID_232_" class="st1" d="M76.1,65.2C76.1,65.2,76.1,65.3,76.1,65.2C76,65.2,76,65.2,76.1,65.2z"/>
			<polygon id="XMLID_231_" class="st1" points="73.1,63.9 72.8,63.8 72.9,63.8 			"/>
			<polygon id="XMLID_230_" class="st1" points="70.3,55.2 70.2,55.3 69.9,55.7 			"/>
			<path id="XMLID_229_" class="st1" d="M69.4,58.8C69.4,58.8,69.3,58.8,69.4,58.8l-0.3,0C69.1,58.8,69.4,58.8,69.4,58.8z"/>
			<polygon id="XMLID_228_" class="st1" points="68,59.1 68,59.2 67.9,59.2 			"/>
			<path id="XMLID_227_" class="st1" d="M64.9,60.2c0.2-0.1,0.1,0,0,0.1C64.9,60.2,64.9,60.3,64.9,60.2z"/>
			<polygon id="XMLID_226_" class="st1" points="70.8,60.6 70.8,60.6 70.7,60.5 			"/>
			<polygon id="XMLID_225_" class="st1" points="80.7,71.4 80.6,71.4 80.6,71.3 			"/>
			<path id="XMLID_224_" class="st1" d="M80.7,71.8c0,0-0.1,0-0.1-0.1C80.6,71.7,80.7,71.8,80.7,71.8z"/>
			<polygon id="XMLID_223_" class="st1" points="72.3,73.7 72.3,73.7 72.3,73.8 			"/>
			<path id="XMLID_222_" class="st1" d="M72.3,73.8c-0.1,0-0.1-0.1-0.1-0.2C72.2,73.7,72.3,73.8,72.3,73.8z"/>
		</g>
	</g>
</g>
</svg>
