<?xml version="1.0" encoding="utf-8"?>
<!-- Generator: Adobe Illustrator 22.0.1, SVG Export Plug-In . SVG Version: 6.00 Build 0)  -->
<svg version="1.1" id="圖層_1" xmlns="http://www.w3.org/2000/svg" xmlns:xlink="http://www.w3.org/1999/xlink" x="0px" y="0px"
	 viewBox="0 0 126.1 134" style="enable-background:new 0 0 126.1 134;" xml:space="preserve">
<style type="text/css">
	.st0{fill:#0A418C;}
	.st1{fill:#FFFFFF;}
</style>
<g>
	<g>
		<path class="st0" d="M49.6,95.9l-0.3-0.3C49.5,95.8,49.6,95.9,49.6,95.9z"/>
		<path class="st0" d="M51.7,98.3L51.7,98.3C51.7,98.2,51.6,98.2,51.7,98.3z"/>
		<path class="st0" d="M67.3,106.9c0.1-0.1,0.3-0.3,0.6-0.6L67.3,106.9z"/>
		<path class="st0" d="M37.9,83.6l-0.4-0.3C38.1,83.9,37.8,83.6,37.9,83.6z"/>
		<path class="st0" d="M41.3,28.7c0,0,0.1-0.1,0.1-0.1C41.4,28.6,41.4,28.7,41.3,28.7z"/>
		<path class="st0" d="M98.4,64.1C98.4,64.1,98.4,64.1,98.4,64.1C98.4,64,98.4,64,98.4,64.1z"/>
		<path class="st0" d="M27.1,57.6C27.1,57.6,27.1,57.6,27.1,57.6C27.1,57.1,27.1,57.3,27.1,57.6z"/>
		<path class="st0" d="M82.2,89.7C82.2,89.7,82.2,89.7,82.2,89.7C82.2,89.7,82.2,89.7,82.2,89.7L82.2,89.7z"/>
		<path class="st0" d="M81.3,90.8c0.4-0.5,0.6-0.8,0.9-1.1L81.7,90L81.3,90.8z"/>
		<path class="st0" d="M99.2,57.3c0-0.4-0.1-1-0.1-1.4c-0.1,0.2,0.1,1.8,0.1,2.6c0,0-0.1-0.2-0.1-0.5c0-0.2,0-0.3,0-0.5
			c0-2.2-0.2-4.4-0.6-6.5c-0.1-0.3-0.1-0.7-0.2-1.1c-0.1-0.2-0.1-0.5-0.2-0.7c-0.1-0.4-0.2-0.8-0.3-1.2c0,0,0-0.1,0-0.1
			c-0.1-0.3-0.2-0.6-0.2-1c-0.1-0.3-0.2-0.6-0.3-0.8c-0.1-0.1-0.1-0.3-0.2-0.5c-0.9-2.7-2.2-5.3-3.7-7.6c0.1,0.1,0.1,0.1,0,0
			c0,0-0.1-0.1-0.2-0.2c-6.4-9.8-17.4-16.2-30-16.2c-0.8,0-1.6,0-2.4,0.1c-0.3,0-0.6-0.1-0.6-0.1c-0.5,0.1-1.2,0.1-2,0.2
			c-0.8,0.1-1.7,0.1-2.5,0.4c-0.4,0.1,0.3-0.1,0.1-0.1c-0.4,0.2-0.9,0.3-1.9,0.5l0.1,0c-0.7,0.2-1.3,0.3-1.8,0.5
			c-0.5,0.2-1,0.4-1.5,0.5c-0.5,0.2-1,0.3-1.6,0.6c-0.5,0.3-1.2,0.5-1.9,0.9l0.2,0c-0.6,0.3-0.8,0.3-1.1,0.4c-0.3,0.2,0,0.1,0.4-0.1
			c-1.3,0.6-3.5,2.1-4,2.3c-0.8,0.6,0.3-0.1-0.5,0.5l-0.3,0.1l-0.2,0.2c-0.6,0.4-0.9,0.6-0.9,0.5c0.1-0.1,0.4-0.3,0.5-0.4
			c-0.4,0.2-0.9,0.6-1.3,1c-0.4,0.4-0.8,0.7-0.9,0.8l0.8-0.7c-1,1-2.3,2-3.3,3.2c-0.5,0.6-1.1,1.1-1.5,1.8c-0.4,0.6-0.9,1.2-1.3,1.8
			l0.2-0.1c-0.3,0.4-0.5,0.7-0.7,1c-0.2,0.2-0.3,0.4-0.4,0.6c-0.2,0.4-0.5,0.8-1.1,1.8l0-0.1c-0.1,0.2-0.2,0.4-0.4,0.7
			c-0.1,0.3-0.3,0.5-0.4,0.8c0.2-0.5-0.6,1-0.3,0.2c-0.5,1-0.6,1.3-0.6,1.5c0,0.1,0,0.2-0.1,0.3c0,0.1-0.1,0.3-0.2,0.7l-0.2,0.3
			c-0.1,0.5-0.1,0.6-0.5,1.6c0.3-0.9-0.3,0.7,0-0.4c-0.2,0.6-0.5,1-0.6,1.5c-0.1,0.5-0.2,0.9-0.3,1.2c-0.2,0.7-0.3,1.3-0.5,1.8
			c-0.1,1.1,0.6-2,0.5-1.4c0.2-0.5-0.1,0.9-0.3,1.6c-0.1,0.8-0.4,1.3-0.7,3.2c0-0.2,0-0.2,0-0.4c-0.2,0.7-0.1,1.4-0.2,2.3
			c0.1,0.5-0.1,1.2,0.1,1.3l0.1-1.8c0,0.5,0,1,0,1.6c0,0.3,0,0.6,0,0.9c0,0.3,0,0.7,0,1.1c0-0.1-0.1-0.6-0.1-1c0,0.5,0,0.9,0,1.4
			C27,59,27,58.5,27,57.8c0-0.7,0.1-1.4,0-2c-0.1,0.5,0,2.1-0.1,1.5c0.2,0.8,0,1.9,0.2,3.2l-0.1-0.1c0,0.2,0.1,0.6,0.1,1
			c-0.1-0.2-0.1-0.5-0.2-0.7c0.2,1.1,0.1,2.1,0.4,3.1c-0.2-1.1-0.2-1.2-0.1-1.2c0,0,0.1,0.2,0.1-0.2c0.5,2.4,0.1,1.7,0.6,3.8
			c-0.1-0.4-0.1-0.6,0-0.3c0.1,0.6,0.3,1.3,0.3,1.6c0.6,1.9,0-0.3,0.3,0.5c0.1,0.7,0.3,0.9,0.6,1.7l-0.1,0c0.8,2.1,0.3,0.5,1.1,2.4
			l-0.4-0.7l0.4,1L30,72.3c0.2,0.5,0.4,0.8,0.6,1.2c0.2,0.3,0.3,0.7,0.6,1.2c-0.1-0.3,0.2,0.1,0.7,0.9c0.3,0.6-0.3-0.3,0.5,0.9
			c-0.2-0.2-0.5-0.5-0.7-1.1c-0.1,0-0.2-0.3-0.2-0.3c0.3,0.7,0.9,1.6,1.2,2c-0.1-0.2-0.2-0.4-0.3-0.5c0.4,0.6,0.8,1.1,1.2,1.6
			c0.2,0.3,0,0.1-0.2-0.1c0.2,0.3,0.4,0.5,0.8,1c-0.1-0.1-0.2,0-0.7-0.7c0.4,0.5,0.8,1,1.2,1.5c0.1,0.1,0.6,0.8,0.4,0.6
			c0.6,0.9,1.8,1.9,2.8,2.9c0.1,0,0.2,0.1,0.4,0.3c0.9,1,1.7,1.8,2.9,2.9l0.5,0.7c0.9,0.9-0.7-1,0.7,0.5c1,1,0.3,0.5,0.6,0.8
			c0.5,0.5,1.5,1.3,2.3,2.4c-0.3-0.3-0.5-0.6-0.8-0.9l0.6,0.8c-0.9-0.8-1.5-1.5-0.9-0.7c0.3,0,2.7,2.9,3,2.8l0.4,0.5
			c-0.1-0.1-0.2-0.2-0.3-0.3c0.8,1,0.8,0.6,1.9,1.9c0.4,0.5,0.6,0.8,0.3,0.5l0.9,0.9c0.2,0.3,0.2,0.2-0.1,0l1.3,1.5l0,0
			c0.2,0.2,0.7,0.6,0.9,0.9c0.3,0.4-0.2-0.2-0.1-0.1l0.8,0.8c0.2,0.4-0.4-0.3-0.9-0.9c0.5,0.9,0.6,0.7,2,2.4l-0.7-0.8
			c0.3,0.6,0.9,1.2,1.6,2.1c-0.1-0.2-1.4-1.9-0.5-1.1c0.2,0.3,0.5,0.6,0.9,1.1c-0.1,0.1,0.4,0.5,0.9,1.1l-0.1,0
			c0.6,0.6,0.6,0.6,0.9,0.9c0.6,0.7,0.6,1,0.7,1.2c0.9,1.2-0.6-0.9,0.6,0.5c0.8,1,1.3,1.7,2.3,2.9c0.5,0.7-0.1-0.1,0,0.2l0.5,0.6
			c0.1,0.2,0.1,0.1,0,0.1c0.4,0.5,0.1,0,0.8,0.8c0.1,0,0.1,0.1,0.3,0.3c0.1,0.2,0.3,0.5,0.6,0.8c0.3-0.4,0.6-0.8,0.9-1.2
			c0.2-0.3,0.5-0.6,0.7-1c0.2-0.2,0,0.2,0,0.1c1-1.5,0.9-1.2,1.7-2.5l0.8-0.9c-0.6,0.7,0-0.3,0.6-1.1c0,0-0.1,0.1-0.1,0.1
			c0.1-0.1,0.2-0.2,0.2-0.3c0,0.1-0.1,0.1-0.1,0.2c0,0,0.1-0.1,0.1-0.1c0-0.1,0.1-0.1,0.1-0.2c0.2-0.2,0.3-0.4,0.5-0.6
			c0,0-0.1,0.2-0.2,0.4c-0.1,0.1-0.3,0.3-0.4,0.4c-0.2,0.4-0.4,0.7-0.3,0.7c0.1-0.1,0.2-0.3,0.3-0.4C68,106,68,106,68,106
			c0,0,0.1-0.2,0.3-0.4l0.3-0.2l0-0.1l1.4-1.6c0.9-1.2,1.6-2.4,3.1-4.2c-0.3,0.5,0,0.2,0.1,0.3c-0.5,0.4-1.2,1.5-2,2.4
			c0.4-0.5,0.4-0.4,0.3-0.2l1.4-1.8c0,0.1,0.4-0.3,0.8-0.7c-0.4,0.2,1-1.3,1.6-2c0.1,0,0,0.2-0.8,1c0.9-0.8,0.9-1.3,1.8-2.1
			c-0.2,0.2-0.3,0.3-0.3,0.4c0.4-0.5,1.4-1.6,1.2-1.3l-0.2,0.2c1.2-1.3,3.7-4,3.7-4.3c0,0,0,0.3-0.1,0.4c0.4-0.6,0.9-1.2,1.3-1.9
			c0.2-0.2,0.4-0.5,0.7-0.7c0.2,0,0.4-0.1-0.2,0.7c0.3-0.3,0.7-0.7,1.3-1.3c-0.2,0.2-0.6,0.4-0.4,0.1c0.9-0.7,0.6-0.5,1.6-1.4
			c-0.3,0.3-0.1-0.2,0.4-0.7c-0.1,0.1,0.2,0.1,0,0.3l1.1-1.3c-0.3,0.3,0.1,0.2,0.4-0.1c-0.2,0.1,1-1,1.4-1.4l-0.6,0.5
			c0.7-0.7,1-1.1,1.3-1.4c0.3-0.4,0.6-0.8,1.2-1.5c-0.1,0.2-0.2,0.6,0.5-0.1c0.1-0.2,0.4-0.7,0.7-1.3c0.4-0.5,0.9-1.1,1.3-1.7
			C92,79.1,91.5,80,91,80.6c0.5-0.5,0.2-0.1,0.9-1c0.2-0.2-0.1,0.2-0.3,0.6c0.2-0.3,0.4-0.5,0.6-0.8c0.3-0.3,0.5-0.7,0.8-1
			c-0.1,0,1-1.7,0.9-1.7c-0.2,0.4-0.5,0.8-0.7,1.2c-0.2,0.4-0.5,0.8-0.8,1.2c-0.2,0,0.7-1.5,1.6-3c0.3-0.4,0,0.4,0,0.4
			c0-0.1,0.3-0.5,0.5-0.9c0.2-0.4,0.4-0.7,0.4-0.8l-0.3,0.7c0.3-0.4,0.4-0.8,0.6-1.2c0.2-0.4,0.4-0.8,0.7-1.3
			c0.2-0.4,0.6-1.1,0.6-1.2c-0.2,0.3-0.5,0.5-0.6,0.4c0.2-0.4,0.4-0.9,0.6-1.3l0,0.1l0.1-0.3l0,0c0.2-0.4,0.3-0.9,0.5-1.3
			c0.1-0.1-0.2,1.1,0.1,0.6c0,0,0.1-0.4,0.1-0.6c0.2-0.4,0,0.2,0.3-0.7c0-0.2,0.6-1.8,0-0.5c0.2-0.9,0.3-0.9,0.6-2
			c-0.1,0.2-0.1-0.3,0-0.9c0.1-0.4,0.2-0.8,0.2-1.2c0,0,0,0,0-0.1c0.1-0.5,0.2-0.9,0.2-1.3c0.1-0.4,0.1-0.7,0.2-1.1
			c0.1-0.7,0.2-1.4,0.2-2.3c0-0.2,0.1-1,0.1-0.6c0-0.3,0-0.5,0-1c0.1-1.1,0,1.2,0.1,0.4C99.2,58.1,99.2,57.8,99.2,57.3z M68.8,104.8
			c0.2-0.2,0.4-0.5,0.6-0.7C69.3,104.3,69.1,104.6,68.8,104.8z M47.4,25.2c-0.2,0-0.4,0.1-0.7,0.3C47.2,25.2,47.8,25,47.4,25.2z
			 M54,101c0.3,0.2,0.4,0.4,0.7,0.8C54.5,101.6,54.1,101.2,54,101z"/>
		<path class="st0" d="M27.9,66.3c0,0.2,0.1,0.5,0.1,0.6C28,66.7,28,66.5,27.9,66.3z"/>
		<path class="st0" d="M91.6,80.2c-0.1,0.1-0.1,0.1-0.2,0.2C91.4,80.3,91.5,80.2,91.6,80.2z"/>
		<path class="st0" d="M67.9,106.2c-0.1,0.1-0.1,0.1-0.1,0.1C67.7,106.4,67.7,106.4,67.9,106.2z"/>
		<path class="st0" d="M38,83.7L38,83.7C37.9,83.7,37.9,83.6,38,83.7L38,83.7z"/>
		<path class="st0" d="M97.3,69.5c-0.1,0.3-0.2,0.4-0.2,0.5C97.1,70,97.2,69.9,97.3,69.5z"/>
		<path class="st0" d="M98.7,52.5l0.1,0L98.7,52C98.7,52.3,98.7,52.3,98.7,52.5z"/>
		<path class="st0" d="M99.1,55.3c0-0.1-0.1-1.2-0.1-0.2C99.1,55.2,99.2,56.7,99.1,55.3z"/>
		<path class="st0" d="M89.5,82.4C89,82.9,88.7,83.2,89,83c0.9-0.9,0.2-0.3,1-1.1C90.1,81.7,89.3,82.6,89.5,82.4z"/>
		<path class="st0" d="M89.5,82.4c0.1-0.1,0.2-0.2,0.2-0.3C89.6,82.2,89.5,82.3,89.5,82.4z"/>
		<path class="st0" d="M56,103.7L56,103.7c0-0.1-0.1-0.2-0.4-0.5L56,103.7z"/>
		<polygon class="st0" points="48.9,95.2 49,95.4 48.9,95 		"/>
		<path class="st0" d="M42.5,88.5c0.3,0.3,0.6,0.6,0.8,0.9C42.8,88.8,42.5,88.4,42.5,88.5z"/>
	</g>
	<g id="XMLID_3088_">
		<path id="XMLID_3096_" class="st1" d="M69.7,72.2c-0.4,0-0.7,0.1-0.9,0c0.1,0,0.4,0,0.4,0c-0.4,0-0.7-0.1-1.2,0l0.1,0
			c-0.2,0-0.2,0-0.5,0l0.1,0.1c-0.2,0-0.4,0-0.6-0.1c0-0.2,0-0.3,0-0.5c0-0.2,0-0.3,0-0.4c0-0.2-0.1-0.5,0-0.7l0.1,0.1
			c-0.3-1.1,0-1.6-0.1-3l0.1,0.4c-0.3-2.5,0.6-6.1-1.5-7.3c-0.2-0.4,0.5,0.3,0.9,0.6c-0.2-0.2,0.3,0.5,0.3,0.6c0,0,0.4,0.6,0.4,0.7
			c-0.1,0-0.1-0.2-0.3-0.3c0.1,0.5,0.3,0.7,0.3,0.9l0,0c0.1,0.9-0.1,1.6,0,2.1l0.1-0.2c-0.1,0.6-0.1,1.4,0,2c0.1,0,0.1,0.5,0.1,0.6
			c0-0.4-0.1-0.2-0.1-0.5c0.1,0.9,0.1,2.8,0,3.3c0.1,0.2,0.1,0,0.1,0v-7.1c0-2.1-1.7-3.8-3.8-3.8h-0.9c-2.1,0-3.8,1.7-3.8,3.8v0.7
			c0,0.2,0.1,0.6,0.1,0.8c-0.1,0.3-0.1,0.5-0.1,0.6v0.8c0,0,0,0,0-0.1l0.1,0.5l-0.1-0.2v0.4l0,0.1l0,0v0.9c0,0.1,0,0.1,0,0.2
			c0,0.3,0.1,0.5,0,0.6c0,0,0,0,0,0v1.3c0,0,0,0,0,0c0,0,0,0,0,0.1V72l-15.2-0.1l0.5-7.1c0-0.1,0-0.2,0-0.3c0,0,0,0,0,0l0.1-1
			c0-0.1,0-0.2,0-0.4c0,0,0,0,0,0l0.1-1.5c0-0.3,0-0.7,0-1l0,0.1c0,0,0,0,0,0l0.1-1.2c0,0,0-0.1,0-0.1c0,0,0,0,0,0l0-0.6
			c0-0.9,0.1-2,0.1-2.9c0,0,0,0.1,0.1,0.1l0-0.2l0.2,0c0,0,0.2-0.1,0.6-0.1c0.6,0,1.3,0,1.8,0.1c-0.2,0-0.2,0-0.3,0l0.8,0
			c0,0,0.1,0,0.1,0c0,0,0,0,0,0l1.4,0l0,0c0.3,0,0.6,0,0.7-0.1l-0.7,0c1.7,0,3.7,0,5.2,0l-0.5,0.1c0,0,0,0,0,0l0.8,0
			c0.2,0,0.6-0.1,0-0.1c0.2,0,0.4-0.1,0.7,0c0.2,0.1,0.1,0.1-0.1,0.2l0.4,0c-0.1-0.1-0.3-0.1,0-0.2c0.9,0.1,1.2,0,2,0
			c-0.1,0-0.1,0.1,0,0.1c-0.4,0-0.9,0.1-1.1,0c-0.2,0-0.3,0-0.3,0.1l1.2,0c0,0,0,0,0.2-0.1c0.1,0,0.2,0.1,0.3,0.1l0.3,0
			c0.1,0,0.2,0,0.2,0l-0.5,0c0.3,0,0.6,0,0.8,0c-0.1,0-0.1,0.1-0.1,0.1l2.9,0l-0.1-0.1c2.2,0.1,4.8,0,6.8,0l0.4,0.1l0.1,0
			c0.2-0.1-0.2-0.1,0.4-0.1c0,0,0.1,0.1,0.3,0.1l0.3,0c0,0-0.8-0.1,0-0.1c0,0,0.1,0.1,0.2,0.1l0.1,0c0.2-0.1,0.9,0,1.1-0.1
			c1.4,0.1,3.2,0,4.3,0c0.4,0,0.3,0.1,0.3,0.1l1,0c0,0,0,0,0,0c1.2-0.2,3,0,4.6,0l-0.1,0l0.6,0c0,0,0.1,0,0.1,0
			c0,0.1,0.1,0.4,0.1,0.7l-0.1-0.2c0.1,0.5,0.1,1.3,0.2,1.8c0-0.2-0.1-0.4-0.1-0.5l0.1,1.7c0,0.3,0.1,0.5,0,0.6l0,0.1
			c0,0,0-0.1,0-0.1c0.1,0.8,0,1.9,0.2,2.3L82,62c0,0.1,0,0.3,0,0.4l0,0.1c0.1,0.5,0.2,0.9,0.2,1.5c0,0.4-0.1-0.3-0.1,0.1
			c0.1,0.9,0.2,1.8,0.2,2.6c0-0.1-0.1-0.3-0.1-0.4l0,0.4c0,0,0,0,0,0c0.1,0.4,0.1,0.9,0.2,1c-0.1,0.3-0.1,0.3-0.1,0.5l0,0.8
			c0.1,0.1,0.1-0.2,0.1,0.5c-0.1,0.3,0.1,0.6,0,1c0-0.1,0-0.2-0.1-0.2c0,1,0,0.2,0,1.1c0.1,0,0.1,0.1,0.1,0.3c0,0.1,0,0.4,0,0.7
			c-0.3,0-0.6,0-0.9,0c-0.2,0-0.4,0-0.5,0.1c0.1-0.1-0.8,0-0.5-0.1c-0.7,0.1-1.4,0-1.9,0.1c-0.8-0.3-2.4,0.2-2.5-0.2
			c-0.4,0-0.6,0.2-1.2,0.1c0.1,0,0.1-0.1-0.1-0.1c-0.6,0-0.9,0.1-1.5,0.2c-0.5,0-0.3-0.2-1-0.1l-0.1,0c-0.5-0.1,0-0.1,0.4-0.2l-1,0
			c0.1,0,0.2,0,0.3,0c-0.4,0,0,0.1-0.1,0.1C71.2,72.4,70.7,72.2,69.7,72.2C69.7,72.3,70,72.3,69.7,72.2z"/>
		<path id="XMLID_3095_" class="st1" d="M82,43.7c0,0-0.1,0-0.2,0.1c0,0,0,0,0,0.1c0,0,0.2-0.2,0.1,0c0,0-0.1,0-0.1,0c0,0,0,0,0,0
			c0,0.1-0.2,0.2-0.1,0.3c-0.3,0.3-0.6,0.8-0.8,1c-0.1,0.1-0.1,0-0.2,0c-0.1,0.1-0.2,0.1-0.2,0.2c0,0,0,0,0,0
			c-0.2,0.3-0.8,0.6-1.1,0.7l0,0c-0.1,0-0.1,0-0.1,0l0,0.1c0.1,0.1,0.2,0.1,0.2,0.2l-0.1,0c0.2,0.1,0.2,0.3,0.4,0.5
			c-0.1-0.1-0.2-0.1-0.2-0.2l0.1,0.2h-0.3c0,0,0,0,0,0c0,0-0.1,0-0.1,0h0c0,0,0,0,0.1,0c-0.3,0.1-0.6-0.1-0.7,0l0-0.1
			c0,0-0.1,0-0.1,0h0c-0.1,0-0.3,0.1-0.5,0.1c-0.1,0,0.1-0.1,0-0.1C77.7,47,77.4,47,77.2,47c0,0,0.1-0.1,0.1-0.1h-0.1c0,0,0,0,0,0
			c-0.1,0.1-0.3,0-0.3,0.1c-0.1-0.1-0.1-0.1-0.1-0.1h-0.2c0,0.1,0.1,0.1-0.1,0.1c-0.1-0.1-0.2,0.1-0.3,0c0,0,0.1,0,0.1,0
			c-0.3-0.1-0.1,0-0.3,0c0,0.3-0.5,0-0.6,0.2c0-0.1-0.2,0-0.1-0.1c-0.2,0.1-0.4,0-0.6,0.1c-0.2-0.2-0.7,0.2-0.8-0.1
			c-0.1,0-0.2,0.2-0.3,0.2c0,0,0-0.1,0-0.1c-0.2,0-0.3,0.1-0.5,0.2c-0.2,0-0.1-0.2-0.3-0.1l0,0c-0.1-0.1,0-0.1,0.1-0.2h-0.3
			c0,0,0.1,0,0.1,0c-0.1,0,0,0.1,0,0.1c-0.2,0.2-0.4,0.1-0.7,0.1c0,0,0.1,0,0-0.1c-0.1,0-0.2,0.1-0.3,0c0,0,0.1,0,0.1,0
			c-0.1,0-0.2,0-0.4,0l0,0c-0.1,0-0.1,0-0.1,0l0,0.1c-0.2-0.1-0.4,0.1-0.5,0.1l0-0.1c-0.3,0.3-0.5,0-0.9,0.1l0.1-0.1
			c-0.4,0.1-0.8,0.1-1.2,0.1c-0.2,0-0.5,0-0.7,0c-0.2,0-0.3,0-0.5,0c0-0.1,0-0.3-0.1-0.4c0.1-0.1,0.1,0,0.1,0.1c0,0.1,0,0.1,0,0.2
			c0,0.1,0,0.1,0.1,0.1c-0.2,0.1,0.2,0,0.3,0.1c0,0,0.1,0,0.2-0.1c0.1,0,0.1-0.1,0.1-0.1c0,0.1-0.1,0.1-0.1,0.1
			c0.2,0,0.2-0.1,0.3-0.1l0,0c0.3-0.1,0.5,0.1,0.6,0L69.1,47c0.2,0.1,0.4,0.1,0.6,0c0-0.1,0.1-0.1,0.2-0.1c-0.1,0-0.1,0.1-0.1,0.1
			c0.3-0.1,0.8-0.1,1,0c0.1-0.1,0-0.1,0-0.1h-2.9c-0.1-1.3-0.8-2-1.2-2.3c0,0,0,0-0.1,0c0,0,0,0,0,0c0,0-0.1,0-0.1-0.1c0,0,0,0,0,0
			c0,0,0,0,0,0c-0.1-0.1-0.1-0.1-0.1-0.1h0.2c0.1,0,0.2-0.1,0.2-0.1c0.1,0.1,0.1,0.1,0.2,0.1h0.2c0,0,0,0,0,0l0.1-0.1l0,0.1h0.1l0,0
			l0,0h0.3c0,0,0,0,0,0c0.1,0,0.1-0.1,0.2,0c0,0,0,0,0,0h0.4c0,0,0,0,0,0c0,0,0,0,0,0h7.1c0,0,0.1,0,0.1,0c0,0,0,0,0,0h0.4
			c0,0,0,0,0.1,0c0,0,0,0,0,0h0.4c0.1,0,0.2,0,0.3,0l0,0c0,0,0,0,0,0h0.4c0,0,0,0,0,0c0,0,0,0,0,0h0.2c0.3-0.1,0.6-0.1,0.8-0.1
			l0,0.1h0.1c0,0,0-0.1,0.2-0.1c0.2,0,0.4,0,0.5,0.1c0,0-0.1,0-0.1,0h0c0.1,0,0.1,0,0.2,0c0,0,0,0,0,0c0,0,0,0,0,0
			c0.1,0,0.3,0,0.4-0.1l0,0c0.1,0,0.2-0.1,0.2-0.1c0,0-0.2,0.1-0.2,0.1c0.5-0.1,0.9-0.5,1.2-0.8l0,0.2c0,0,0,0,0,0
			c0.1-0.1,0.1-0.1,0.1-0.2c0-0.1,0-0.2-0.1-0.1c0-0.1,0-0.1,0.1-0.2c0.1,0,0.1,0.1,0.1,0.1c0,0,0.1-0.1,0.1-0.1
			c-0.1,0-0.1,0-0.1-0.1c0.2-0.2,0.2-0.2,0.3-0.6c0,0.1,0,0.1,0.1,0.1c-0.1,0.1-0.1,0.3-0.2,0.3c0,0,0,0.1,0,0.1
			c0.1-0.1,0.1-0.2,0.2-0.3c0,0,0,0,0-0.1c0,0,0.1,0,0.1,0c0,0,0-0.1,0-0.1c0,0,0-0.1,0-0.1c0,0-0.1,0.1-0.1,0.1
			c0-0.1,0.1-0.2,0.1-0.3c0,0.1,0,0.2,0,0.2c0.2-0.4,0.3-0.7,0.3-0.8l0-0.2c0.2,0.5,0.4,1.4,0.3,2c0,0-0.1,0.1-0.2,0.1c0,0,0,0,0,0
			C81.9,43.7,82,43.6,82,43.7z"/>
		<path id="XMLID_3094_" class="st1" d="M79.3,49c0.1,0,0.1,0.1,0.1,0.1c0-0.2-0.1-0.2-0.1-0.3l0,0c0-0.1,0-0.3,0-0.4
			c0-0.1,0-0.3,0-0.4l-0.1,0.1c0-0.1,0-0.2,0-0.3c-0.2,0-0.4,0-0.6,0c0,0.1-0.2,0.1-0.2,0.1c0.1,0,0.1-0.1,0.2-0.1
			c-0.3,0.1-0.9,0.1-1.1,0c-0.1,0.1,0,0.1,0,0.1h1.6v4.9H79c-0.1,0-0.2,0.1-0.3,0.1c-0.1-0.1-0.2-0.1-0.2-0.1h-0.3c0,0,0,0,0,0
			l-0.1,0.1c0,0,0,0,0-0.1h-0.1l0,0l0,0h-0.2v0c0,0,0,0.1,0,0.1c0,0.1,0.1,0.2,0,0.2c0,0,0,0,0,0v0.4c0,0,0,0,0,0c0,0,0,0,0,0v0.5
			h-3v-1.2h-3.2v0c0,0,0,0.1,0,0.1c0,0,0,0,0,0v0.4c0,0,0,0.1,0,0.1c0,0,0,0,0,0V54c0,0,0,0.1,0,0.1c-0.1,0-0.2,0-0.2,0l0,0
			c0,0,0,0,0,0H71c0,0,0,0,0,0c0,0,0,0,0,0h-0.2c-0.3,0.1-0.6,0.1-0.9,0.1l0-0.1h-0.2c0,0-0.1,0.1-0.2,0.1c-0.2,0-0.4,0-0.6-0.1
			c0.1,0,0.1,0,0.1,0h-0.3c0,0,0,0,0,0c0,0,0,0,0,0h-0.5c0,0,0,0,0,0c0,0-0.1,0-0.1,0c0-0.1,0-0.1-0.1-0.1l0,0.2l0.1,0
			c0,0-0.1,0-0.1,0c0-0.2,0-0.5,0-0.7c0-0.2,0-0.3,0-0.5c-0.1,0-0.2,0-0.3,0c0,0,0.1-0.1,0.1-0.1c0,0,0,0,0,0h-0.2
			c-0.1,0-0.2,0.1,0,0.1c-0.1,0-0.1,0.1-0.2,0c-0.1-0.1,0-0.1,0-0.2h-0.1c0,0.1,0.1,0.1,0,0.2c-0.3-0.1-0.4,0-0.6,0c0,0,0-0.1,0-0.1
			c0.1,0,0.3-0.1,0.3,0c0.1,0,0.1,0,0.1-0.1h-0.4c0,0,0,0-0.1,0.1c0,0-0.1-0.1-0.1-0.1h-0.1c0,0-0.1,0-0.1,0l0.2,0
			c-0.1,0-0.2,0-0.3,0c0,0,0-0.1,0-0.1h-0.9l0,0.1c-0.3,0-0.6,0-1,0c0-0.2,0-0.5,0-0.7c0-0.1,0-0.2,0-0.4c0-0.1,0-0.1,0-0.2l0-0.1
			l0,0l0.1,0c0,0,0.2,0.1,0.2,0.1c0,0,0,0,0,0c0.1-0.1-0.1-0.1,0.1-0.1c0,0,0.1,0.1,0.1,0.1c0,0,0.1,0,0.1,0c0,0-0.3,0,0-0.1
			c0,0,0.1,0.1,0.1,0.1c0,0,0,0,0,0c0.1-0.1,0.3-0.1,0.3-0.2c0.4-0.1,0.9-0.5,1.1-0.8c0.1-0.1,0.1,0,0.2,0c0.1-0.1,0.1-0.2,0.2-0.2
			c0,0,0,0,0,0c0.1-0.4,0.5-0.9,0.6-1.3l0,0c0-0.1,0-0.1,0.1-0.2c0-0.1-0.1-0.1,0-0.3l0.1,0.1c0-0.2,0.1-0.4,0-0.7
			c0,0.1,0,0.2,0.1,0.2c0-0.2,0-0.3,0-0.3h0.2c0.1,0,0.1,0,0.2,0h0c0,0,0,0,0,0c0.3-0.1,0.6,0.1,0.8,0l0,0.1c0,0,0.1,0,0.1,0h0
			c0.2,0,0.3-0.1,0.5-0.1c0.1,0-0.1,0.1,0,0.1c0.3-0.1,0.6-0.1,0.9-0.1c0,0-0.1,0.1-0.2,0.1h0.2l0,0c0.1-0.1,0.3,0,0.3-0.1
			c0.1,0.1,0.1,0.1,0.2,0.1h0.3c0-0.1-0.1-0.1,0.2-0.1c0.1,0.1,0.2-0.1,0.3,0c0,0-0.1,0-0.1,0c0.3,0.1,0.1,0,0.4,0
			c0-0.3,0.6,0,0.7-0.2c0,0.1,0.3,0,0.2,0.1c0.2-0.1,0.4,0,0.6-0.1c0.3,0.2,0.8-0.2,0.8,0.1c0.1,0,0.2-0.2,0.4-0.2c0,0,0,0.1,0,0.1
			c0.2,0,0.3-0.1,0.5-0.2c0.2,0,0.1,0.2,0.3,0.1l0,0c0.2,0.1,0,0.1-0.1,0.2h0.3c0,0-0.1,0-0.1,0c0.1,0,0-0.1,0-0.1
			c0.2-0.2,0.4-0.1,0.7-0.1c0,0-0.1,0,0,0.1c0.1,0,0.2-0.1,0.3,0c0,0-0.1,0-0.1,0c0.1,0,0.2,0,0.4,0l0,0c0.1,0,0.1,0,0.1,0l0-0.1
			c0.2,0.1,0.4-0.1,0.6-0.1l0,0.1c0.4-0.3,0.5,0,1-0.1l-0.1,0.1c0.1,0,0.2,0,0.4-0.1c0.2,0,0.4,0,0.6,0c0,0.3,0,0.5,0,0.8
			c0,0.2,0,0.3,0,0.5c0,0.3,0,0.6,0,0.9c-0.2,0.1-0.1-0.2-0.2-0.4c0.1,0.1,0-0.2,0.1-0.2L79.3,49z"/>
		<path id="XMLID_3092_" class="st1" d="M63.5,51.1L63.5,51.1C63.5,51.1,63.6,51.1,63.5,51.1c0.1,0.3-0.2,0-0.3,0.1
			c0,0,0-0.1-0.1-0.1c-0.1,0.1-0.1,0-0.2,0c0,0,0,0,0.1,0c0,0,0,0,0,0c0,0-0.1,0-0.1,0c-0.1,0.1-0.3,0.2-0.4,0l-0.1,0.1
			c0-0.1-0.1-0.1-0.2-0.2l0,0.1c0-0.1-0.1,0-0.1,0c0,0,0-0.1,0-0.1c-0.1-0.1-0.2,0-0.3-0.1c0.1-0.1,0,0,0.1-0.1
			c-0.1,0-0.1-0.1-0.2-0.1c-0.1,0,0-0.1,0-0.2c-0.1,0.1-0.2,0.1-0.2,0.1c0-0.1-0.2,0-0.3-0.1c0,0,0,0,0.1,0c0-0.1-0.1,0-0.1,0
			c0,0,0,0,0,0l0,0c0,0,0,0,0,0c0,0,0-0.1,0-0.1c-0.1,0-0.1-0.1-0.2,0c0.1-0.1-0.1-0.2,0-0.2c-0.1-0.1-0.2,0-0.2,0
			c0-0.1,0-0.1,0-0.2c0,0-0.1-0.1-0.1,0l0,0.1c-0.1-0.1,0-0.2-0.2-0.3c0.1,0,0-0.1,0.1-0.1l-0.1,0c0.1,0,0.1,0,0.2-0.1
			c0,0,0,0,0-0.1c0,0,0,0,0-0.1c0,0-0.1,0-0.2,0l0.1,0c-0.1-0.1-0.2-0.1-0.3-0.2c0,0,0.1-0.2,0.2-0.2c0,0,0,0,0,0c0,0,0-0.1,0-0.1
			c0,0-0.1,0-0.1,0.1c0,0,0-0.1,0-0.1c0,0-0.2-0.1-0.2-0.1c0.1,0,0-0.1,0.1-0.1c0,0,0-0.1-0.1-0.1c0.1-0.1,0.1,0.1,0.1,0
			c0.1-0.1-0.2-0.2,0-0.2c-0.2-0.1-0.1,0.2-0.2,0.1l0.1-0.1c-0.1-0.1,0-0.3-0.1-0.5l0.1,0c0.1-0.1,0-0.2,0-0.2l0.1,0
			c0-0.1-0.1-0.2,0-0.2c0,0,0,0,0,0.1c0.1-0.1,0-0.1,0.1-0.2c0,0,0,0,0,0c-0.1,0-0.2,0-0.2,0c0.1-0.1,0.1-0.1,0.2-0.1
			c-0.1,0-0.1,0-0.1-0.1c0.1-0.2,0-0.1,0.1-0.3c0,0,0,0-0.1,0c0.1,0,0-0.1,0.1-0.1c0,0,0,0.1,0,0.1c0.1,0,0-0.1,0-0.1
			c0,0-0.1,0.1-0.1-0.1c0-0.2,0.3,0,0.3-0.2c0.1,0,0.2,0,0.2,0c0,0,0.1-0.1,0.1-0.1c0-0.1-0.1-0.1,0-0.1c0,0,0.1,0,0.1,0.1
			c0,0,0,0,0,0c0-0.1,0.1-0.3,0.1-0.4c0.1,0.1,0.1,0,0.2,0c0,0-0.1,0,0,0.1c0.1,0,0.1-0.1,0.1-0.1c-0.1,0,0-0.1-0.1-0.1
			c0,0,0.1,0,0.1-0.1c0,0,0.1,0.1,0.1,0.1c0,0,0,0,0,0c0,0,0-0.1,0.1-0.1c0-0.1-0.2-0.1-0.1-0.2c0.1,0,0,0.1,0.1,0.1l-0.1-0.2
			c0.2,0,0.1-0.2,0.3-0.2c0,0.1-0.1,0.1-0.1,0.1c0,0,0.1,0.1,0.1,0.1c0,0,0,0-0.1,0l0.1,0.1c0.1-0.1,0.2-0.1,0.3-0.2
			c0,0,0-0.1,0-0.1c0,0-0.1,0.1-0.1,0.2c0,0,0.1-0.1,0.1-0.2c0,0,0,0,0,0c0,0,0.1,0,0-0.1L62,45c0-0.2,0.2,0,0.1-0.1l0,0
			c0.1,0,0.1-0.1,0.2-0.1c0.1,0.2,0.1,0,0.2,0.1c-0.1,0,0-0.1,0-0.2c-0.1,0,0,0.1-0.1,0.1c0,0,0-0.1,0-0.1c0.1-0.1,0.2,0,0.4,0
			l0-0.1l0.1,0.1c0-0.1,0-0.1,0.1-0.1l0,0c0.1,0,0.1-0.1,0.1-0.1c0.1,0,0,0.1,0,0.1l0.1-0.1c0.1,0.1,0,0,0,0.1c0-0.1,0.1,0,0.2-0.1
			c0,0.1,0,0.1,0,0.1c-0.1,0,0,0.1,0,0.1c0,0-0.1,0-0.2,0c0.1,0,0.2,0,0.3,0c0-0.1,0.1-0.1,0-0.1c0,0,0.1,0,0.1-0.1
			c-0.1,0-0.1,0-0.1-0.1c0,0,0.2,0,0.1,0.1c0.1-0.1,0.1-0.1,0.2-0.2c0,0,0.1,0.1,0.1,0.1c-0.1,0-0.2,0-0.2,0.1
			c0.1,0,0.2,0.1,0.3,0.1l0-0.1c0.1,0.1,0.1-0.1,0.2-0.1c0,0,0,0.1,0,0.2c0,0,0-0.1,0.1-0.1c0,0,0-0.1,0-0.1
			c0.1,0.1,0.2,0.2,0.2,0.3c0-0.1,0.1-0.1,0.1-0.1c0.1,0,0,0.1,0.1,0.1l0,0c0,0,0.1,0,0.1,0.1c0.1-0.2,0.2,0,0.2,0
			c0,0.2,0.2,0.3,0.4,0.3l-0.1,0.1c0.3,0.1,0.6,0.2,0.7,0.4c-0.1,0.1,0-0.1-0.1,0c0,0.1,0.1,0.1,0,0.2c-0.1-0.1-0.1,0.1-0.2,0
			c0.1-0.1-0.1-0.1,0-0.2c0,0-0.1,0.1-0.1,0.1c0-0.1-0.2-0.1-0.2-0.3c0,0,0,0,0.1,0c0.1-0.1,0-0.1,0-0.1l-0.1,0.1
			c-0.3-0.3-0.7-0.4-1-0.6c-0.1,0-0.2,0-0.3,0l0,0l0,0c-0.1-0.1-0.3,0-0.4,0c1.3,0.1,2.3,1,2.7,2.1c0-0.1,0.1-0.1,0.2-0.1l0.1,0.1
			c-0.1,0-0.2,0.1-0.1,0.2c-0.1,0,0-0.1-0.1-0.1c0,0.1,0,0.1,0.1,0.2c0.1,0,0.2,0,0.2,0.1l-0.1,0.1c-0.1,0,0-0.1,0-0.1
			c0-0.1-0.1-0.1-0.1,0c0,0,0,0,0,0c0,0,0,0,0,0c0,0,0,0,0,0c0,0,0,0,0,0c0,0,0,0.1,0,0.1l0.1,0l0,0l0,0c0,0,0,0,0,0.1l0.1,0
			c0,0-0.1,0-0.1,0l0,0c0,0,0,0.1,0,0.1c0.1,0,0.1,0,0.2-0.1l0,0.1l-0.1,0c0,0.1,0.1,0.1,0,0.2c-0.1,0-0.1-0.1-0.1-0.1
			c0,0.1,0.1,0.1,0.1,0.1c0,0-0.1,0-0.1,0c0,0,0,0.1,0,0.1c0,1.1-0.5,2-1.3,2.6c0,0,0,0,0,0c0,0,0,0,0,0c-0.1,0-0.1,0.1-0.2,0.1
			c0,0,0.1,0,0.1,0c0,0,0,0.1-0.1,0.1l0,0c-0.2-0.1-0.1,0.1-0.3,0.1c-0.1,0-0.1,0-0.2,0.1c0,0-0.1,0.1-0.1,0c0,0-0.1,0-0.1,0
			c0,0,0,0,0,0l0,0c0,0,0,0,0,0c0,0.1-0.1,0.1-0.2,0.2c-0.2-0.2-0.3,0.2-0.5,0l0-0.1C63.6,51,63.6,51.1,63.5,51.1z"/>
		<path id="XMLID_3091_" class="st1" d="M61.5,53.2c-0.1-0.1-0.2,0.1-0.2-0.1c0.1,0,0.1,0,0.1-0.1c-0.1,0-0.2,0-0.3,0
			c0,0.1,0.2,0.1,0,0.1c-0.3,0.1-0.3-0.3-0.7-0.1c0-0.1-0.3-0.1-0.3-0.2h-0.4c0,0.1-0.1,0.1-0.2,0.1c0,0,0-0.1,0-0.1h-0.1
			c-0.2,0.1-0.5,0.1-0.5,0.2c0,0,0,0-0.1,0c0,0,0,0.1-0.1,0c0-0.1,0-0.1,0-0.2c0,0,0,0,0,0v0.2c0,0.1,0,0.1,0.1,0.1
			c0.1-0.1,0.1,0.1,0.1,0c0,0-0.1,0.2,0,0.2c0,0-0.1,0-0.2,0v0.1c0,0.1,0.1,0.1,0,0.2c0.1,0.2,0.2-0.2,0.2,0c0,0.2-0.1-0.1-0.1,0.1
			c0,0,0.2,0.2,0.2,0.2c0,0.1,0,0.2,0,0.3c-0.3,0-0.3,0.1-0.7,0c0.2-0.1,0.3,0,0.5-0.1c-0.1,0-0.2-0.1-0.1-0.1c0,0,0.1,0,0.1,0
			c0,0,0,0,0-0.1c0,0,0,0-0.1,0l-0.2-0.1h-0.5c-0.1,0-0.3,0-0.3,0.1c0,0,0,0,0,0c-0.1,0-0.1,0-0.1,0.1l0.1,0
			c-0.2,0.1-0.3-0.1-0.3,0.1l0,0c-0.2,0-0.3,0-0.5,0c-0.1-0.2-0.2-0.1-0.4-0.2c0.2,0-0.1,0.1,0,0.2c0.1,0,0.2-0.1,0.3-0.1
			c0,0-0.1,0.1,0,0.1c-0.3,0.1-0.4-0.1-0.7-0.1l0,0.1L56,54.3c0,0.1-0.1,0.1-0.2,0.1l0,0c-0.1,0-0.4,0-0.4,0.1c-0.3,0,0.1-0.1,0-0.1
			l-0.3,0.1c-0.1-0.1,0.1,0,0-0.1l0,0c-0.1-0.1,0-0.3-0.1-0.5c0.1,0,0.1,0,0.1-0.1c0,0.2,0.1,0.1,0.1,0.1c0,0.1,0,0.2,0,0.2v-0.5
			c-0.1,0-0.1-0.1-0.1,0c0-0.1,0-0.2-0.1-0.2c0,0.1,0,0.2-0.1,0.2c0,0,0-0.2,0-0.2c0,0,0-0.1,0.1,0c0-0.1-0.1-0.1-0.2,0l0,0
			c0,0,0,0,0-0.1c0,0,0.1,0,0.1-0.1c0,0,0,0,0.1-0.1l0,0c-0.1,0-0.2-0.1-0.4,0l0.1,0.1c-0.2-0.1-0.2,0.1-0.5,0.1
			c0-0.1,0-0.2-0.1-0.2c0,0,0,0.1-0.1,0.1c0.1,0,0.1,0.1,0.1,0.1c-0.2-0.1-0.4-0.2-0.6-0.2c0,0.1-0.2,0.1-0.1,0.2
			c-0.2,0-0.1-0.1-0.3-0.1l0,0.1c-0.1,0-0.1,0-0.2-0.1c0,0.2-0.4,0.1-0.4,0.1c-0.1,0-0.1-0.1-0.2-0.1c0,0-0.1,0-0.2,0
			c0,0.1,0,0.2,0,0.3l-0.1-0.1c0,0.3,0.1,0.6,0.1,1c-0.3,0-0.5,0.1-0.7,0.1c-0.2,0-0.3,0-0.4,0c0-0.1,0.1,0,0.2-0.1
			c0-0.1-0.3,0-0.3-0.1c0.2,0,0-0.2,0.2-0.1c0.1,0.2,0.3,0,0.3,0.2c0.1,0,0-0.1,0-0.2c0.1,0,0.3,0,0.4,0c0-0.2,0-0.3,0-0.4
			c0,0.1,0,0.1,0,0.2c0.1,0.1,0-0.2,0.1-0.2c0,0-0.1-0.2-0.1-0.1c0-0.2,0-0.4,0-0.6c0.3,0,0.6,0,0.9,0c0.3,0,0.6,0,0.9,0
			c0.2,0,0.4-0.1,0.6,0l0,0l0.1,0c0.2,0,0.4,0,0.7,0c0,0,0,0,0,0v0h-3.2v1.2h-3v-0.4c-0.1,0.1-0.2,0.2-0.2,0.1c0,0,0-0.2,0-0.2
			c0.1,0,0.2-0.1,0.2-0.3c0.1,0,0,0.3,0.1,0.3v-0.4c0,0-0.1-0.1-0.2-0.1c0,0-0.1,0-0.1,0c0,0,0-0.1,0-0.1c0.1-0.1,0.1,0,0.1,0
			c0,0,0,0,0,0c0,0.1,0.1,0.1,0.1,0c0,0,0,0,0,0v0c0,0,0,0,0,0c0,0,0,0,0,0v0h-0.2l-0.1,0.1l0,0l0.1,0h-0.1c0,0-0.1,0.1-0.1,0.1
			c0,0,0.1-0.1,0-0.1h-0.3c0,0,0,0.1,0.1,0.2l-0.2,0l0-0.1c-0.2,0-0.1,0.1-0.3,0c0.1-0.1,0.2-0.1,0.2-0.1c-0.1,0-0.2,0.1-0.3,0.1
			c0,0,0-0.1,0.1-0.1h-0.2v-4.9h1.6c0,0,0,0,0,0c0,0,0,0,0,0h0.5c0,0-0.1,0-0.1,0c0.1,0,0.1-0.1,0.2,0l0,0c0.2,0.2,0.3-0.1,0.6,0.1
			H51c0.1,0,0.1,0,0.2,0h0.3c0,0,0.1,0,0.1,0l0,0h0.1c0.1-0.1,0.3-0.1,0.4-0.1c0.3,0.2,0.6-0.2,1,0l0,0.1h0.3c-0.1,0-0.2,0-0.2,0
			c0.1-0.3,0.6,0,0.9-0.1c0.1,0,0.1,0.1,0.2,0.1c0.1-0.1,0.2,0,0.4,0c0,0-0.1,0-0.1,0.1c0,0,0,0,0.1,0h0.2c0.2-0.1,0.5-0.2,0.7-0.1
			l0.2-0.1c0.2,0.1,0.4,0.1,0.5,0.1l0-0.1c0.1,0.1,0.2,0,0.3,0c0,0,0,0.1,0,0.1c0.2,0,0.4-0.1,0.5-0.1c-0.2,0.1,0,0-0.2,0.1
			c0.1-0.1,0.2,0.1,0.3,0c0.2,0,0.2,0.1,0.2,0.1c-0.1-0.1,0.2-0.1,0.2-0.2c0.2,0.1,0.3-0.1,0.6-0.1c0,0-0.1,0-0.1,0
			c0.1,0.1,0.1,0,0.2,0c0,0,0,0,0,0l0.1,0c0,0-0.1,0-0.1,0c0,0.1,0.1,0.1,0.2,0.1c0-0.1,0.3,0,0.4-0.1c0,0.1,0.2,0.1,0.3,0.1
			c0,0.1,0,0.1-0.1,0.2c0,0.1,0,0.2,0.1,0.2c0,0.1,0.1,0.1,0.1,0.2c0,0.1,0,0.2-0.1,0.3c0,0.1,0,0.1,0.1,0.1l0-0.2
			c0.1,0.2,0,0.4,0.2,0.6c-0.1,0,0,0.1-0.1,0.1l0.1,0.1c-0.1,0-0.1,0-0.2,0c0,0,0,0,0,0c0,0,0,0,0,0.1c0,0,0,0.1,0.1,0.1
			c0,0,0.1,0.1,0.2,0.1l-0.1,0c0.1,0.1,0.3,0.2,0.4,0.4c0,0,0,0.3-0.1,0.3c0.1,0.1,0.1,0.2,0.2,0.2c0,0,0.1,0,0-0.1
			c0.1,0.1,0.1,0.1,0.1,0.2c0,0,0.4,0.1,0.4,0.1c-0.1,0.1,0.1,0.1,0.1,0.2c0.1,0,0.1,0.1,0.2,0.1c0,0.1-0.2-0.1-0.2,0.1
			c0.1,0.2,0.4,0,0.3,0.2c0.3,0-0.3-0.3,0-0.2l0.1,0.1c0.1,0.1,0.3,0.1,0.4,0.1c0.2,0.1,0.3,0,0.6,0.1l-0.1,0c0,0,0.1,0.1,0.1,0.1
			c0,0,0.1,0,0.1,0.1c0,0.1,0,0.2,0,0.3l-0.1,0c0,0.2,0.1,0.3,0,0.4c0-0.1,0-0.1,0-0.1c-0.1,0.1,0,0.2,0,0.3c0,0.1,0,0.1,0,0.2v0.1
			c0.1,0.1,0.2,0,0.2,0c0,0.1,0,0.2-0.1,0.2c-0.1,0-0.2-0.1-0.4-0.1c0,0.1,0,0.1-0.1,0.1C61.6,53,61.8,53.1,61.5,53.2
			C61.4,53.1,61.5,53.1,61.5,53.2z"/>
		<path id="XMLID_3090_" class="st1" d="M47.5,46.3L47.5,46.3C47.4,46.3,47.4,46.3,47.5,46.3c0-0.1,0-0.1-0.2-0.1c0,0,0-0.1,0-0.1
			c0,0-0.1,0-0.1,0c0-0.1,0.1,0,0.2-0.1c0,0,0,0,0,0c0,0,0,0,0,0c0,0-0.1,0-0.1-0.1c0,0-0.2,0-0.2,0l0.1-0.1c-0.2,0-0.3,0-0.5-0.1
			c0,0,0-0.2,0-0.3c-0.1-0.1-0.1-0.1-0.2-0.2c0,0-0.1,0,0,0.1c-0.1,0-0.2-0.1-0.2-0.2c0,0-0.1,0-0.2-0.1c-0.1,0-0.2-0.1-0.2-0.1
			c0.1,0-0.1-0.2,0-0.2c-0.1-0.1-0.1-0.2-0.2-0.1c0-0.1,0.2,0.1,0.2,0c0-0.2-0.4-0.2-0.2-0.3c-0.3-0.1,0.2,0.4-0.1,0.2
			c0,0,0-0.2,0-0.2c-0.2-0.2-0.3-0.5-0.5-0.8l0.1,0c0.1-0.2-0.1-0.3-0.1-0.5l0.1,0c0-0.1-0.1-0.4,0-0.4c0,0.1,0,0.1,0,0.1
			c0-0.1,0-0.2,0-0.2c0-0.1,0-0.1,0-0.2c0,0,0-0.1,0-0.1c-0.1-0.1-0.1-0.1-0.2-0.2c0.1-0.2,0.1-0.1,0.2-0.1c0-0.1,0-0.2,0-0.3
			c0.1-0.1,0.1-0.2,0.1-0.3c0-0.1,0-0.1,0-0.2c0,0,0,0,0,0c0-0.1,0-0.1,0-0.2c0,0.1,0,0.1,0,0c0,0,0-0.1,0,0.1c0,0,0,0,0,0.2
			c0,0.1,0.1,0.1,0.1,0c0,0,0,0,0,0.1c0-0.1,0-0.2,0-0.4c0-0.1,0-0.1,0-0.3c0,0,0,0,0,0c0.1,0.3,0.2,0.7,0.2,1c0,0.3,0,0.4,0.2,0.5
			c0,0.1,0,0.3,0,0.3c0,0,0,0.1,0,0.1c0.1,0.1,0.1,0.2,0.2,0.3c0.1,0,0.1,0,0.2,0.1c0,0-0.1,0-0.1,0.1c0,0,0.1,0.1,0.1,0.1
			c0.2,0.1,0.4,0.3,0.5,0.3c0,0.1,0.1,0.2,0,0.2c0,0-0.1-0.1-0.1,0c0,0,0,0,0,0c0,0,0.1,0.1,0.1,0.1c0.1,0,0.1,0,0.1,0
			c-0.1-0.2,0.2,0.1,0.1-0.1c0.1,0,0.1,0.1,0.2,0.1c0,0,0,0.1-0.1,0.2c0,0,0,0,0,0c0.1,0,0.1,0,0.2,0.1c0.1,0-0.1-0.2,0.1-0.2
			c0.1,0.1-0.1,0.1,0,0.1l0.1-0.2c0.2,0.2,0.2,0,0.5,0.1c-0.1,0.1-0.1,0-0.3,0c0,0.1,0.1,0.1,0,0.1c0,0,0,0-0.1-0.1l0.1,0.2
			c0.1,0,0.3,0,0.4,0c0.1,0,0.2,0,0.3-0.1c0,0,0,0,0,0c0.1,0,0.1,0,0.1-0.1l-0.1,0c0.1-0.1,0.3,0.1,0.3-0.1l0,0c0.2,0,0.3,0,0.5,0
			c0.1,0.2,0.2,0.1,0.4,0.2c-0.2,0,0.1-0.1,0-0.2c-0.1,0-0.2,0.1-0.3,0.1c0,0,0.1-0.1,0-0.1c0.3-0.1,0.4,0.1,0.7,0.1l0-0.1l0.1,0.1
			c0-0.1,0.1-0.1,0.2-0.1l0,0c0.1,0,0.2,0,0.3-0.1c0.1,0,0,0.1,0.1,0.1l0.1-0.1c0.1,0.1-0.1,0,0,0.1c0.1-0.1,0.2,0,0.3-0.1
			c0,0.1,0,0.1,0,0.1c-0.2,0-0.1,0.1-0.1,0.1c-0.1,0-0.1,0-0.2,0h0.4c0-0.1,0.1-0.1,0-0.1c0.1,0,0.2,0,0.2-0.1c-0.1,0-0.2,0-0.2-0.1
			c0.1,0,0.3,0,0.2,0.1c0.1-0.1,0.3-0.1,0.4-0.2c0,0,0.1,0,0.2,0.1c-0.1,0-0.4,0-0.3,0.1c0.2,0,0.4,0.1,0.6,0l-0.1-0.1
			c0.1,0.1,0.2-0.1,0.4-0.1c0,0.1,0,0.2,0.1,0.2c0,0,0-0.1,0.1-0.1c-0.1,0-0.1-0.1-0.1-0.1c0.2,0.1,0.4,0.2,0.5,0.2
			c0-0.1,0.2-0.1,0.1-0.2c0.2,0,0.1,0.1,0.3,0.1l0-0.1c0.1,0,0.1,0,0.2,0.1c0-0.2,0.4-0.1,0.3-0.1c0.2,0.1,0.6,0.1,0.9,0.1L55,44.2
			c0.5-0.1,1.1-0.2,1.5-0.2c0,0.1-0.1,0-0.2,0.1c0,0.1,0.3,0,0.2,0.1c-0.2,0,0,0.2-0.2,0.1c-0.1-0.2-0.3,0-0.3-0.2
			c-0.1,0,0,0.1,0,0.2c-0.2,0-0.5,0.1-0.6,0c0.1,0,0.1,0,0.1,0c0-0.1-0.1,0-0.2-0.1l-0.1,0.1c-0.8-0.1-1.6,0-2.3,0
			c-0.2,0-0.4,0.1-0.6,0c-0.2-0.1-0.5,0-0.7,0h7.2c-0.1-0.1-0.1-0.2-0.1-0.2l0.2,0c0,0.1,0.1,0.2,0.2,0.2c0,0.1-0.2,0-0.3,0.1h0.4
			c0.1-0.1,0.2-0.2,0.3-0.2l0.1,0.1c-0.1,0.1-0.1,0-0.2,0c-0.1,0-0.2,0.1-0.1,0.1c0,0,0,0,0,0h0c0,0,0,0,0,0c0,0,0,0,0,0h0.3l0-0.1
			l0,0l0,0h0.1l0.1-0.1c0,0-0.1,0.1,0,0.1h0.2c0,0,0,0,0,0c0,0,0-0.1-0.1-0.2l0.2,0l0,0.1c0,0,0,0,0,0c0.1-0.1,0.2-0.2,0.3-0.2
			c-0.1,0.1-0.1,0.1-0.1,0.2c0,0,0,0,0.1,0c0,0,0,0-0.1,0c0,0,0,0,0.1,0c0,0-0.1,0.1-0.1,0.1c0.1,0,0.1,0,0.2-0.1c0,0,0,0.1-0.1,0.1
			h0.2c0,0,0,0,0,0l0,0l-0.1,0c-0.4,0.2-1.4,1.1-1.6,2.4h-2.8c0,0,0,0,0,0c0,0,0,0,0,0h-0.4c0,0,0.1,0,0.1,0c-0.1,0-0.1,0.1-0.2,0
			l0,0c-0.2-0.2-0.3,0.1-0.6-0.1h-0.4c0,0-0.1,0-0.1,0h-0.3c0,0-0.1,0-0.1,0l0,0h-0.1C54.1,47,53.9,47,53.8,47
			c-0.3-0.2-0.6,0.2-0.9,0l0-0.1h-0.3c0.1,0,0.2,0,0.2,0c-0.1,0.3-0.6,0-0.8,0.1c-0.1,0-0.1-0.1-0.2-0.1c-0.1,0.1-0.2,0-0.3,0
			c0,0,0.1,0,0.1-0.1c0,0,0,0-0.1,0h-0.2c-0.2,0.1-0.5,0.2-0.7,0.1l-0.2,0.1c-0.1-0.1-0.3-0.1-0.5-0.1l0,0.1c-0.1-0.1-0.2,0-0.2,0
			c0,0,0-0.1,0-0.1c-0.2,0-0.4,0.1-0.5,0.1c0.1-0.1,0,0,0.1-0.1c-0.1,0.1-0.2-0.1-0.3,0c-0.2,0-0.1-0.1-0.2-0.1
			c0,0.1-0.2,0.1-0.2,0.2c-0.2-0.1-0.3,0.1-0.5,0.1c0,0,0.1,0,0.1,0c-0.1-0.1-0.1,0-0.2,0c0,0,0,0,0,0l-0.1,0c0,0,0.1,0,0.1,0
			c0-0.1-0.1-0.1-0.3-0.1c-0.1,0.1-0.4,0-0.6,0.1c0.1-0.1-0.2-0.1-0.2-0.1c0.1-0.1,0.1-0.1,0.2-0.1c0.1-0.2,0-0.2,0.1-0.5
			c0.1-0.1,0.1-0.1,0.1-0.1l0,0C47.4,46.4,47.4,46.4,47.5,46.3C47.5,46.3,47.5,46.3,47.5,46.3z"/>
		<path id="XMLID_3089_" class="st1" d="M54.3,43.3L54.3,43.3c0.4-0.3,1.4-1.1,0.5-2.9c0,0-0.9-1.7-0.1-2.5c0,0-0.1,0.7,0.7,1.3
			c0,0,0,0,0.1,0c0,0,0,0,0,0.1c0.1,0.1,0.3,0.2,0.5,0.3c0,0-0.1-0.1-0.1-0.1c0,0,0.1,0,0.1,0l0,0c0,0,0.1,0,0.1,0l0,0
			c0.1,0.3,0.4,0.1,0.6,0.3c0.1,0,0.3,0.1,0.5,0.1c0.1,0,0.1,0,0.2,0c0.1,0,0.2,0,0.4,0.1c0,0,0.1,0,0.1,0l0,0c0,0,0.1,0,0.1,0
			c0.2,0,0.4,0,0.5,0c0.3,0.3,0.7-0.1,1.1,0.2l0,0.1c0.1,0,0.2,0,0.4,0c-0.1,0-0.2,0-0.3-0.1c0.1-0.2,0.7,0.1,1,0
			c0.1,0,0.1,0.1,0.2,0.1c0.1-0.1,0.3,0,0.4,0c0,0-0.1,0-0.1,0c0,0,0,0,0.1,0c0.1,0,0.2,0,0.2,0c0.2-0.1,0.6-0.2,0.8-0.1l0.2-0.1
			c0.2,0.1,0.4,0.1,0.6,0.1l0-0.1c0.1,0.1,0.2,0,0.3,0c0,0,0,0.1,0,0.1c0.3,0,0.5-0.1,0.6-0.1c-0.2,0.1,0,0-0.2,0.1
			c0.2-0.1,0.3,0.1,0.4,0c0.2,0,0.2,0.1,0.3,0.1c-0.1-0.1,0.2-0.1,0.3-0.2c0.2,0.1,0.4-0.1,0.6-0.1c-0.1,0-0.1,0-0.1,0
			c0.1,0.1,0.1,0,0.2,0c0,0,0,0,0,0l0.1,0c0,0-0.1,0-0.1,0c0,0.1,0.1,0.1,0.3,0c0-0.1,0.4,0,0.4-0.1c0,0.1,0.4,0,0.4,0.1
			c0.2,0,0.3-0.1,0.4-0.2c0.2,0,0.2,0,0.3,0.1c0.1,0,0.2,0,0.2-0.1l-0.2,0c0.3-0.1,0.5,0.1,0.8-0.1c0,0,0.1,0,0.1,0.1l0.2-0.1
			c0,0.1-0.1,0.1-0.1,0.2c0,0,0,0,0,0c0,0,0.1,0,0.1,0c0.1,0,0.1,0,0.2,0c0,0,0.2-0.1,0.2-0.2l0,0.1c0.2-0.1,0.3-0.2,0.6-0.3
			c0,0,0.2,0.1,0.2,0.2c0.1,0,0.2,0,0.4-0.1c0,0,0-0.1-0.1,0c0.1,0,0.2-0.1,0.3,0c0,0,0.4-0.3,0.4-0.3c0,0.1,0.2,0,0.2,0.1
			c0.1-0.1,0.2,0,0.2-0.2c0.2,0-0.2,0.2,0,0.2c0.1,0,0.2-0.1,0.2-0.2l0,0c0-0.1,0.1-0.1,0.2,0c0.1-0.2-0.1-0.1-0.2,0l0,0
			c-0.1,0-0.1,0,0,0l0,0c0,0,0,0,0,0l0.2,0c0.1-0.1,0.1-0.1,0.3-0.3c0.1-0.1,0.1-0.2,0.2-0.3c0,0,0.1-0.2,0.1-0.4
			c0-0.2,0.1-0.4,0.1-0.6L72,38c0,0,0,0,0.1,0c0,0,0.1,0,0.1,0l0,0.2c0,0.1,0,0.1,0,0l0-0.1c0,0,0,0,0,0c0,0,0,0.1,0,0.1l-0.1,0.2
			c0,0.2,0.2,0.2,0.1,0.4c0-0.1,0-0.1,0-0.1c0,0.2,0,0.3,0,0.4c0,0.1,0,0.2,0,0.3c0,0.1,0,0.1,0,0.2c0.1-0.1,0.2-0.2,0.2-0.3
			c0,0.3-0.1,0.3-0.1,0.4c0,0.1,0,0.1-0.1,0.2c0.1,0,0.1,0.1,0.1,0.1c-0.1,0.5,0,0.3-0.1,0.7c0,0,0,0,0.1,0c-0.1,0.1,0,0.3-0.1,0.3
			c0-0.1,0-0.2,0-0.2c-0.1,0.1,0,0.2-0.1,0.4c0,0,0.2-0.2,0.1,0c0,0.3-0.4,0.3-0.2,0.7c-0.1,0-0.1,0.3-0.1,0.3
			c0,0.1,0.1,0.3,0.1,0.4c0.1,0,0.1,0,0.2,0.1c0,0-0.1,0-0.1,0.1c0,0.1,0.1,0.1,0.1,0.2c0,0,0,0,0,0c0.1,0.1,0.4,0.3,0.6,0.5
			c0.1,0.1,0,0.1,0,0.1c-0.2-0.1-0.4,0-0.5-0.1c0.1,0,0.2,0,0.1,0c0,0,0,0,0,0h-0.2c0,0-0.1,0-0.1,0.1c0.4,0.1-0.3,0.1,0.1,0.1
			c-0.2,0-0.4-0.1-0.5,0c0,0-0.1-0.1,0-0.2h-0.1c-0.1,0-0.2,0.1-0.2,0c-0.2,0.1,0.2,0.2,0,0.2c-0.2,0,0.1-0.1-0.1-0.1l-0.1,0.2
			c-0.4-0.1-0.3,0.1-0.7,0c0.2-0.1,0.2,0,0.4-0.1c-0.1,0-0.1-0.1,0-0.1c0,0.1,0.1,0,0.1,0l-0.1-0.1h-0.5c-0.1,0-0.3,0-0.3,0.1
			c0,0,0,0,0,0c-0.1,0-0.2,0-0.2,0.1l0.1,0c-0.2,0.1-0.4-0.1-0.4,0.1l0,0c-0.3,0-0.4,0-0.6,0c-0.1-0.2-0.3-0.1-0.5-0.2
			c0.2,0-0.1,0.1-0.1,0.2c0.2,0,0.2-0.1,0.4-0.1c-0.1,0-0.1,0.1,0,0.1c-0.4,0.1-0.5-0.1-0.8-0.1l0,0.1L68,43.5
			c0.1,0.1-0.1,0.1-0.2,0.1l0,0c-0.1,0-0.3,0-0.3,0.1c-0.2,0,0.1-0.1-0.1-0.1l-0.2,0.1c-0.1-0.1,0.1,0,0-0.1c-0.1,0.1-0.2,0-0.4,0.1
			c0-0.1,0-0.1,0-0.1c0.2,0,0.1-0.1,0.1-0.1c0.1,0,0.2,0,0.3,0h-0.6c0,0.1-0.1,0.1,0,0.1c-0.1,0-0.3,0-0.3,0.1c0.1,0,0.2,0,0.2,0.1
			c-0.1,0-0.4,0-0.3-0.1c-0.1,0.1-0.3,0.1-0.5,0.2c0,0-0.2,0-0.2-0.1c0.1,0,0.5,0,0.3-0.1c-0.3,0-0.5-0.1-0.7,0l0.1,0.1
			c-0.2-0.1-0.3,0.1-0.5,0.1c0-0.1,0-0.2-0.1-0.2c0,0,0,0.1-0.1,0.1c0.1,0,0.1,0.1,0.1,0.1c-0.2-0.1-0.5-0.2-0.7-0.2
			c-0.1,0.1-0.2,0.1-0.1,0.2c-0.2,0-0.2-0.1-0.3-0.1l0,0.1c-0.1,0-0.1,0-0.2-0.1c0.1,0.2-0.5,0.1-0.4,0.1c-0.3-0.1-0.8-0.1-1.1-0.1
			l0.1-0.1c-0.7,0.1-1.4,0.2-1.9,0.2c0-0.1,0.1,0,0.2-0.1c0-0.1-0.3,0-0.3-0.1c0.3,0,0-0.2,0.3-0.1c0.1,0.2,0.4,0,0.4,0.2
			c0.1,0,0-0.1,0-0.2c0.3,0,0.6-0.1,0.8,0c-0.1,0-0.1,0-0.2,0c0,0.1,0.2,0,0.2,0.1l0.1-0.1c1,0.1,2,0,2.9,0c0.3,0,0.5-0.1,0.7,0
			c0.2,0.1,0.6,0,0.9,0h-9.1c0.1,0.1,0.2,0.2,0.1,0.2l-0.2,0c0-0.1-0.1-0.2-0.3-0.2c0-0.1,0.3,0,0.4-0.1h-0.5
			c-0.1,0.1-0.2,0.2-0.4,0.2l-0.2-0.1c0.1-0.1,0.1,0,0.3,0c0.1,0,0.2-0.1,0.1-0.1c0,0,0,0,0,0h0c0,0,0,0,0,0c0,0,0,0,0,0h-0.3
			l-0.1,0.1l0,0l0.1,0h-0.2l-0.1,0.1c0,0,0.1-0.1,0-0.1h-0.3c0.1,0,0,0.1,0.1,0.2l-0.2,0l0-0.1c-0.1,0-0.1,0-0.2,0
			c-0.1,0.1-0.2,0.1-0.3,0.2c0.1-0.1,0.1-0.1,0.1-0.2c0,0,0,0-0.1,0c0,0,0,0,0.1,0c0,0,0-0.1-0.1-0.1c0,0,0,0,0,0c0,0,0,0-0.1,0
			c0,0,0-0.1,0.1-0.1L54.3,43.3C54.3,43.4,54.3,43.3,54.3,43.3L54.3,43.3z"/>
	</g>
</g>
</svg>
