<?xml version="1.0" encoding="utf-8"?>
<!-- Generator: Adobe Illustrator 22.0.1, SVG Export Plug-In . SVG Version: 6.00 Build 0)  -->
<svg version="1.1" id="圖層_1" xmlns="http://www.w3.org/2000/svg" xmlns:xlink="http://www.w3.org/1999/xlink" x="0px" y="0px"
	 viewBox="0 0 126.1 134" style="enable-background:new 0 0 126.1 134;" xml:space="preserve">
<style type="text/css">
	.st0{fill:#113272;}
	.st1{fill:#0A418C;}
	.st2{fill:#FFFFFF;}
</style>
<g>
	<g>
		<path class="st0" d="M49.6,95.9l-0.3-0.3C49.5,95.8,49.6,95.9,49.6,95.9z"/>
		<path class="st0" d="M51.7,98.3L51.7,98.3C51.7,98.2,51.6,98.2,51.7,98.3z"/>
		<path class="st0" d="M67.3,106.9c0.1-0.1,0.3-0.3,0.6-0.6L67.3,106.9z"/>
		<path class="st0" d="M37.9,83.6l-0.4-0.3C38.1,83.9,37.8,83.6,37.9,83.6z"/>
		<path class="st0" d="M41.3,28.7c0,0,0.1-0.1,0.1-0.1C41.4,28.6,41.4,28.7,41.3,28.7z"/>
		<path class="st0" d="M98.4,64.1C98.4,64.1,98.4,64.1,98.4,64.1C98.4,64,98.4,64,98.4,64.1z"/>
		<path class="st0" d="M27.1,57.6C27.1,57.6,27.1,57.6,27.1,57.6C27.1,57.1,27.1,57.3,27.1,57.6z"/>
		<path class="st0" d="M82.2,89.7C82.2,89.7,82.2,89.7,82.2,89.7C82.2,89.7,82.2,89.7,82.2,89.7L82.2,89.7z"/>
		<path class="st0" d="M81.3,90.8c0.4-0.5,0.6-0.8,0.9-1.1L81.7,90L81.3,90.8z"/>
		<path class="st1" d="M99.2,57.3c0-0.4-0.1-1-0.1-1.4c-0.1,0.2,0.1,1.8,0.1,2.6c0,0-0.1-0.2-0.1-0.5c0-0.2,0-0.3,0-0.5
			c0-2.2-0.2-4.4-0.6-6.5c-0.1-0.3-0.1-0.7-0.2-1.1c-0.1-0.2-0.1-0.5-0.2-0.7c-0.1-0.4-0.2-0.8-0.3-1.2c0,0,0-0.1,0-0.1
			c-0.1-0.3-0.2-0.6-0.2-1c-0.1-0.3-0.2-0.6-0.3-0.8c-0.1-0.1-0.1-0.3-0.2-0.5c-0.9-2.7-2.2-5.3-3.7-7.6c0.1,0.1,0.1,0.1,0,0
			c0,0-0.1-0.1-0.2-0.2c-6.4-9.8-17.4-16.2-30-16.2c-0.8,0-1.6,0-2.4,0.1c-0.3,0-0.6-0.1-0.6-0.1c-0.5,0.1-1.2,0.1-2,0.2
			c-0.8,0.1-1.7,0.1-2.5,0.4c-0.4,0.1,0.3-0.1,0.1-0.1c-0.4,0.2-0.9,0.3-1.9,0.5l0.1,0c-0.7,0.2-1.3,0.3-1.8,0.5
			c-0.5,0.2-1,0.4-1.5,0.5c-0.5,0.2-1,0.3-1.6,0.6c-0.5,0.3-1.2,0.5-1.9,0.9l0.2,0c-0.6,0.3-0.8,0.3-1.1,0.4c-0.3,0.2,0,0.1,0.4-0.1
			c-1.3,0.6-3.5,2.1-4,2.3c-0.8,0.6,0.3-0.1-0.5,0.5l-0.3,0.1l-0.2,0.2c-0.6,0.4-0.9,0.6-0.9,0.5c0.1-0.1,0.4-0.3,0.5-0.4
			c-0.4,0.2-0.9,0.6-1.3,1c-0.4,0.4-0.8,0.7-0.9,0.8l0.8-0.7c-1,1-2.3,2-3.3,3.2c-0.5,0.6-1.1,1.1-1.5,1.8c-0.4,0.6-0.9,1.2-1.3,1.8
			l0.2-0.1c-0.3,0.4-0.5,0.7-0.7,1c-0.2,0.2-0.3,0.4-0.4,0.6c-0.2,0.4-0.5,0.8-1.1,1.8l0-0.1c-0.1,0.2-0.2,0.4-0.4,0.7
			c-0.1,0.3-0.3,0.5-0.4,0.8c0.2-0.5-0.6,1-0.3,0.2c-0.5,1-0.6,1.3-0.6,1.5c0,0.1,0,0.2-0.1,0.3c0,0.1-0.1,0.3-0.2,0.7l-0.2,0.3
			c-0.1,0.5-0.1,0.6-0.5,1.6c0.3-0.9-0.3,0.7,0-0.4c-0.2,0.6-0.5,1-0.6,1.5c-0.1,0.5-0.2,0.9-0.3,1.2c-0.2,0.7-0.3,1.3-0.5,1.8
			c-0.1,1.1,0.6-2,0.5-1.4c0.2-0.5-0.1,0.9-0.3,1.6c-0.1,0.8-0.4,1.3-0.7,3.2c0-0.2,0-0.2,0-0.4c-0.2,0.7-0.1,1.4-0.2,2.3
			c0.1,0.5-0.1,1.2,0.1,1.3l0.1-1.8c0,0.5,0,1,0,1.6c0,0.3,0,0.6,0,0.9c0,0.3,0,0.7,0,1.1c0-0.1-0.1-0.6-0.1-1c0,0.5,0,0.9,0,1.4
			C27,59,27,58.5,27,57.8c0-0.7,0.1-1.4,0-2c-0.1,0.5,0,2.1-0.1,1.5c0.2,0.8,0,1.9,0.2,3.2l-0.1-0.1c0,0.2,0.1,0.6,0.1,1
			c-0.1-0.2-0.1-0.5-0.2-0.7c0.2,1.1,0.1,2.1,0.4,3.1c-0.2-1.1-0.2-1.2-0.1-1.2c0,0,0.1,0.2,0.1-0.2c0.5,2.4,0.1,1.7,0.6,3.8
			c-0.1-0.4-0.1-0.6,0-0.3c0.1,0.6,0.3,1.3,0.3,1.6c0.6,1.9,0-0.3,0.3,0.5c0.1,0.7,0.3,0.9,0.6,1.7l-0.1,0c0.8,2.1,0.3,0.5,1.1,2.4
			l-0.4-0.7l0.4,1L30,72.3c0.2,0.5,0.4,0.8,0.6,1.2c0.2,0.3,0.3,0.7,0.6,1.2c-0.1-0.3,0.2,0.1,0.7,0.9c0.3,0.6-0.3-0.3,0.5,0.9
			c-0.2-0.2-0.5-0.5-0.7-1.1c-0.1,0-0.2-0.3-0.2-0.3c0.3,0.7,0.9,1.6,1.2,2c-0.1-0.2-0.2-0.4-0.3-0.5c0.4,0.6,0.8,1.1,1.2,1.6
			c0.2,0.3,0,0.1-0.2-0.1c0.2,0.3,0.4,0.5,0.8,1c-0.1-0.1-0.2,0-0.7-0.7c0.4,0.5,0.8,1,1.2,1.5c0.1,0.1,0.6,0.8,0.4,0.6
			c0.6,0.9,1.8,1.9,2.8,2.9c0.1,0,0.2,0.1,0.4,0.3c0.9,1,1.7,1.8,2.9,2.9l0.5,0.7c0.9,0.9-0.7-1,0.7,0.5c1,1,0.3,0.5,0.6,0.8
			c0.5,0.5,1.5,1.3,2.3,2.4c-0.3-0.3-0.5-0.6-0.8-0.9l0.6,0.8c-0.9-0.8-1.5-1.5-0.9-0.7c0.3,0,2.7,2.9,3,2.8l0.4,0.5
			c-0.1-0.1-0.2-0.2-0.3-0.3c0.8,1,0.8,0.6,1.9,1.9c0.4,0.5,0.6,0.8,0.3,0.5l0.9,0.9c0.2,0.3,0.2,0.2-0.1,0l1.3,1.5l0,0
			c0.2,0.2,0.7,0.6,0.9,0.9c0.3,0.4-0.2-0.2-0.1-0.1l0.8,0.8c0.2,0.4-0.4-0.3-0.9-0.9c0.5,0.9,0.6,0.7,2,2.4l-0.7-0.8
			c0.3,0.6,0.9,1.2,1.6,2.1c-0.1-0.2-1.4-1.9-0.5-1.1c0.2,0.3,0.5,0.6,0.9,1.1c-0.1,0.1,0.4,0.5,0.9,1.1l-0.1,0
			c0.6,0.6,0.6,0.6,0.9,0.9c0.6,0.7,0.6,1,0.7,1.2c0.9,1.2-0.6-0.9,0.6,0.5c0.8,1,1.3,1.7,2.3,2.9c0.5,0.7-0.1-0.1,0,0.2l0.5,0.6
			c0.1,0.2,0.1,0.1,0,0.1c0.4,0.5,0.1,0,0.8,0.8c0.1,0,0.1,0.1,0.3,0.3c0.1,0.2,0.3,0.5,0.6,0.8c0.3-0.4,0.6-0.8,0.9-1.2
			c0.2-0.3,0.5-0.6,0.7-1c0.2-0.2,0,0.2,0,0.1c1-1.5,0.9-1.2,1.7-2.5l0.8-0.9c-0.6,0.7,0-0.3,0.6-1.1c0,0-0.1,0.1-0.1,0.1
			c0.1-0.1,0.2-0.2,0.2-0.3c0,0.1-0.1,0.1-0.1,0.2c0,0,0.1-0.1,0.1-0.1c0-0.1,0.1-0.1,0.1-0.2c0.2-0.2,0.3-0.4,0.5-0.6
			c0,0-0.1,0.2-0.2,0.4c-0.1,0.1-0.3,0.3-0.4,0.4c-0.2,0.4-0.4,0.7-0.3,0.7c0.1-0.1,0.2-0.3,0.3-0.4C68,106,68,106,68,106
			c0,0,0.1-0.2,0.3-0.4l0.3-0.2l0-0.1l1.4-1.6c0.9-1.2,1.6-2.4,3.1-4.2c-0.3,0.5,0,0.2,0.1,0.3c-0.5,0.4-1.2,1.5-2,2.4
			c0.4-0.5,0.4-0.4,0.3-0.2l1.4-1.8c0,0.1,0.4-0.3,0.8-0.7c-0.4,0.2,1-1.3,1.6-2c0.1,0,0,0.2-0.8,1c0.9-0.8,0.9-1.3,1.8-2.1
			c-0.2,0.2-0.3,0.3-0.3,0.4c0.4-0.5,1.4-1.6,1.2-1.3l-0.2,0.2c1.2-1.3,3.7-4,3.7-4.3c0,0,0,0.3-0.1,0.4c0.4-0.6,0.9-1.2,1.3-1.9
			c0.2-0.2,0.4-0.5,0.7-0.7c0.2,0,0.4-0.1-0.2,0.7c0.3-0.3,0.7-0.7,1.3-1.3c-0.2,0.2-0.6,0.4-0.4,0.1c0.9-0.7,0.6-0.5,1.6-1.4
			c-0.3,0.3-0.1-0.2,0.4-0.7c-0.1,0.1,0.2,0.1,0,0.3l1.1-1.3c-0.3,0.3,0.1,0.2,0.4-0.1c-0.2,0.1,1-1,1.4-1.4l-0.6,0.5
			c0.7-0.7,1-1.1,1.3-1.4c0.3-0.4,0.6-0.8,1.2-1.5c-0.1,0.2-0.2,0.6,0.5-0.1c0.1-0.2,0.4-0.7,0.7-1.3c0.4-0.5,0.9-1.1,1.3-1.7
			C92,79.1,91.5,80,91,80.6c0.5-0.5,0.2-0.1,0.9-1c0.2-0.2-0.1,0.2-0.3,0.6c0.2-0.3,0.4-0.5,0.6-0.8c0.3-0.3,0.5-0.7,0.8-1
			c-0.1,0,1-1.7,0.9-1.7c-0.2,0.4-0.5,0.8-0.7,1.2c-0.2,0.4-0.5,0.8-0.8,1.2c-0.2,0,0.7-1.5,1.6-3c0.3-0.4,0,0.4,0,0.4
			c0-0.1,0.3-0.5,0.5-0.9c0.2-0.4,0.4-0.7,0.4-0.8l-0.3,0.7c0.3-0.4,0.4-0.8,0.6-1.2c0.2-0.4,0.4-0.8,0.7-1.3
			c0.2-0.4,0.6-1.1,0.6-1.2c-0.2,0.3-0.5,0.5-0.6,0.4c0.2-0.4,0.4-0.9,0.6-1.3l0,0.1l0.1-0.3l0,0c0.2-0.4,0.3-0.9,0.5-1.3
			c0.1-0.1-0.2,1.1,0.1,0.6c0,0,0.1-0.4,0.1-0.6c0.2-0.4,0,0.2,0.3-0.7c0-0.2,0.6-1.8,0-0.5c0.2-0.9,0.3-0.9,0.6-2
			c-0.1,0.2-0.1-0.3,0-0.9c0.1-0.4,0.2-0.8,0.2-1.2c0,0,0,0,0-0.1c0.1-0.5,0.2-0.9,0.2-1.3c0.1-0.4,0.1-0.7,0.2-1.1
			c0.1-0.7,0.2-1.4,0.2-2.3c0-0.2,0.1-1,0.1-0.6c0-0.3,0-0.5,0-1c0.1-1.1,0,1.2,0.1,0.4C99.2,58.1,99.2,57.8,99.2,57.3z M68.8,104.8
			c0.2-0.2,0.4-0.5,0.6-0.7C69.3,104.3,69.1,104.6,68.8,104.8z M47.4,25.2c-0.2,0-0.4,0.1-0.7,0.3C47.2,25.2,47.8,25,47.4,25.2z
			 M54,101c0.3,0.2,0.4,0.4,0.7,0.8C54.5,101.6,54.1,101.2,54,101z"/>
		<path class="st0" d="M27.9,66.3c0,0.2,0.1,0.5,0.1,0.6C28,66.7,28,66.5,27.9,66.3z"/>
		<path class="st0" d="M91.6,80.2c-0.1,0.1-0.1,0.1-0.2,0.2C91.4,80.3,91.5,80.2,91.6,80.2z"/>
		<path class="st0" d="M67.9,106.2c-0.1,0.1-0.1,0.1-0.1,0.1C67.7,106.4,67.7,106.4,67.9,106.2z"/>
		<path class="st0" d="M38,83.7L38,83.7C37.9,83.7,37.9,83.6,38,83.7L38,83.7z"/>
		<path class="st0" d="M97.3,69.5c-0.1,0.3-0.2,0.4-0.2,0.5C97.1,70,97.2,69.9,97.3,69.5z"/>
		<path class="st0" d="M98.7,52.5l0.1,0L98.7,52C98.7,52.3,98.7,52.3,98.7,52.5z"/>
		<path class="st0" d="M99.1,55.3c0-0.1-0.1-1.2-0.1-0.2C99.1,55.2,99.2,56.7,99.1,55.3z"/>
		<path class="st0" d="M89.5,82.4C89,82.9,88.7,83.2,89,83c0.9-0.9,0.2-0.3,1-1.1C90.1,81.7,89.3,82.6,89.5,82.4z"/>
		<path class="st0" d="M89.5,82.4c0.1-0.1,0.2-0.2,0.2-0.3C89.6,82.2,89.5,82.3,89.5,82.4z"/>
		<path class="st0" d="M56,103.7L56,103.7c0-0.1-0.1-0.2-0.4-0.5L56,103.7z"/>
		<polygon class="st0" points="48.9,95.2 49,95.4 48.9,95 		"/>
		<path class="st0" d="M42.5,88.5c0.3,0.3,0.6,0.6,0.8,0.9C42.8,88.8,42.5,88.4,42.5,88.5z"/>
	</g>
	<g id="XMLID_3105_">
		<polygon id="XMLID_3177_" class="st2" points="85.3,54.5 85.4,54.4 85.7,54.4 		"/>
		<path id="XMLID_3176_" class="st2" d="M83.4,73.1c0.1,0,0.1,0.1,0.1,0.2c0-0.2-0.1-0.4-0.1-0.4l0,0c-0.1-0.3,0.1-0.4,0-0.6l-0.1,0
			c0.1-0.1,0.1-0.3,0-0.5c0,0-0.1-0.1-0.1-0.1c0,0,0.1,0,0.1,0.1c-0.1-0.2-0.1-0.7,0-0.8c-0.1,0-0.1,0-0.1,0L83.4,73.1l-2.9,0l0-0.2
			c0-0.1-0.1-0.1-0.1-0.2c0.1-0.1,0.1-0.1,0.1-0.1l0-0.2c0,0,0,0,0,0l0-0.1l0,0l0-0.1l0,0l0,0l0-0.2c0,0,0,0,0,0c0-0.1,0-0.1,0-0.2
			c0,0,0,0,0,0l0-0.3c0,0,0,0,0,0c0,0,0,0,0,0l0.1-5.9c0,0,0-0.1,0-0.1c0,0,0,0,0,0l0-0.3c0,0,0,0,0,0c0,0,0,0,0,0l0-0.4
			c0-0.1,0-0.2,0-0.2l0,0c0,0,0,0,0,0l0-0.3c0,0,0,0,0,0c0,0,0,0,0,0l0-0.2c-0.1-0.2,0-0.5,0-0.7l0.1,0l0-0.1c0,0-0.1,0-0.1-0.1
			c0-0.1,0-0.3,0.1-0.4c0,0,0,0.1,0,0.1l0-0.2c0,0,0,0,0,0c0,0,0,0,0,0l0-0.4l0,0c0-0.1,0-0.2-0.1-0.2l0,0.2c0-0.4,0-0.9,0-1.3
			l0.1,0.1c0,0,0,0,0,0l0-0.2c0,0-0.1-0.1-0.1,0c0-0.1-0.1-0.1,0-0.2c0.1,0,0.1,0,0.1,0l0-0.1c0,0-0.1,0.1-0.2,0
			c0.1-0.2,0-0.3,0-0.5c0,0,0.1,0,0.1,0l0,0l0,0c0,0,0.1,0,0.1-0.1l0,0.1c0.1,0,0.1-0.2,0.2-0.1c0-0.1,0-0.1,0-0.1
			c0.1,0,0.2,0.2,0.3,0.1c0.1-0.1,0-0.1,0-0.1c0.1,0,0.2-0.1,0.2,0c0,0-0.1,0.1-0.1,0.1c0,0.1,0.1,0,0.2,0.1c0,0,0,0,0-0.1
			c0.2,0,0.1-0.1,0.4,0c0,0,0.1,0,0.1-0.1c0.2,0.1,0.1,0.1,0.3,0.2c0,0-0.1-0.1-0.1-0.2h-0.7l0,0c-0.1,0-0.2,0-0.3,0.1
			c-0.1,0-0.1,0-0.3,0c0,0,0,0,0,0l0,0.1c0,0-0.1-0.1-0.1-0.1l0,0.2c0,0,0-0.1,0-0.1l0,0.1c0-0.1,0-0.2,0-0.3l0,0c0,0,0,0,0,0
			c0,0,0,0,0,0l0,0c0,0.1,0.1,0.1,0.1,0.1l0,0h0.7l0-0.1c0.6,0.1,1.1,0,1.7-0.1c0,0,0,0.1,0,0.1h0c0.1-0.1,0-0.1,0.2-0.1
			c0,0,0,0.1,0,0.1c0,0,0,0.1,0,0.1v0c0,0,0.1-0.3,0.1-0.1c0,0-0.1,0.1-0.1,0.1v0c0.1,0,0,0.2,0.1,0.3c0,0.3,0,0.8,0,1
			c0,0.1-0.1,0.1-0.1,0.1v0.2c0,0,0,0,0,0c0.1,0.3,0,0.7,0,1.1l0,0V63c0,0,0.1,0.1,0.1,0.2l-0.1,0c0.1,0.1,0,0.3,0.1,0.5
			c0-0.1-0.1-0.1-0.1-0.1v0.4c0-0.1-0.1-0.2,0-0.3c-0.1,0-0.2-0.2-0.2-0.3c0,0,0.1,0,0.1,0c0,0.1,0,0.2,0.1,0.2V63
			c0,0-0.1-0.1,0-0.2l0,0v-0.2c-0.1,0-0.1-0.1-0.2-0.1l0.1,0.1c0,0,0,0.1-0.1,0c0.1,0.2,0,0.3,0,0.5l0-0.1c0.1,0,0.1,0.1,0.1,0.1
			c-0.1,0.1-0.1,0.1-0.1,0.2c0,0.1,0.1,0.1,0.1,0.3c-0.1,0-0.1,0.2-0.2,0.2c0.1,0,0,0.2,0.1,0.3c0,0.1,0,0.2,0,0.2c0,0,0,0,0-0.1
			l0,0.1c0,0,0,0,0,0c0,0.1,0.1,0.1,0,0.1c0,0,0,0,0-0.1c0,0.2,0.2,0.3,0.1,0.4c0.1,0,0.1,0.2,0.2,0.2c0,0.1-0.1,0-0.1,0.2
			c0.1,0.1,0,0.2,0,0.3c-0.1-0.1,0,0-0.1-0.1c0,0.1,0.1,0.2,0.1,0.4c0,0-0.1,0-0.1,0c0,0.1,0.1,0.1,0,0.2l0.1,0c0,0.1,0,0.3-0.1,0.4
			l0.1,0.1c-0.1,0.2,0,0.4,0.1,0.5v-0.7c0,0,0,0,0,0c0-0.1,0-0.1,0-0.1v-0.4c0,0,0,0.2-0.1,0.1c0-0.2-0.1-0.2-0.1-0.4
			c0.1-0.1,0,0.2,0.1,0c0,0.1,0.1,0.2,0.1,0.2v-0.9c0,0.1,0.1,0.2,0.1,0.4c0,0.1-0.1-0.1-0.1,0c0.1,0.2,0.1,0.5,0.1,0.7
			c0,0-0.1-0.1-0.1-0.1v0.1c0,0,0,0,0,0c0.1,0.1,0,0.2,0.1,0.3c-0.1,0.1-0.1,0.1-0.1,0.1v0.2c0.1,0,0.1,0,0.1,0.1
			c-0.1,0.1,0,0.1,0,0.2c0,0,0-0.1,0-0.1c-0.1,0.3,0,0,0,0.3c0.3,0,0,0.5,0.2,0.5c-0.1,0,0,0.2-0.1,0.1c0.1,0.2,0,0.3,0.1,0.5
			c-0.2,0.2,0.2,0.6-0.1,0.6c0,0.1,0.1,0.1,0.1,0.3c0,0-0.1,0-0.1,0c0,0.1,0.1,0.2,0.2,0.4c0,0.1-0.2,0.1-0.1,0.2l0,0
			c-0.1,0.1-0.1,0-0.2-0.1v0.2c0,0,0,0,0-0.1c0,0.1,0,0,0.1,0c0.2,0.2,0.1,0.3,0.1,0.6c0,0,0-0.1-0.1,0c0,0.1,0.1,0.2,0,0.2
			c0,0,0-0.1,0-0.1c0,0.1,0,0.2,0,0.3l0,0c0,0,0,0.1,0,0.1l0.1,0c-0.1,0.2,0.1,0.3,0,0.5l-0.1,0c0.2,0.3,0,0.4,0.1,0.7l-0.1-0.1
			c0,0.2,0.1,0.5,0.1,0.7c0,0.3,0,0.7,0,1c-0.3,0-0.7,0-0.8,0c-0.1-0.2,0.1-0.1,0.3-0.2c-0.1,0.1,0.2,0,0.3,0.1l0.1,0L83.4,73.1z"/>
		<path id="XMLID_3175_" class="st2" d="M82.7,72.4c0,0-0.1,0-0.1,0c0-0.1,0.1-0.2,0.2-0.1L82.7,72.4C82.7,72.4,82.7,72.4,82.7,72.4
			z"/>
		<path id="XMLID_3174_" class="st2" d="M81.2,72.4C81.2,72.5,81.1,72.5,81.2,72.4l-0.1,0C81.1,72.5,81.1,72.4,81.2,72.4
			C81.2,72.4,81.2,72.4,81.2,72.4c-0.2-0.1-0.4,0.1-0.7,0.1c0.1,0,0.2-0.1,0.1-0.2c0.1,0,0.1,0,0.1,0c0,0-0.1,0.1-0.1,0.1
			c0.1,0,0.3-0.1,0.2-0.1c0.1,0.1,0.5,0,0.7-0.1c0.2,0-0.1,0.2,0.1,0.1c0,0,0-0.1,0-0.1c0,0,0,0,0,0c0.1,0.1,0.2,0,0.4,0l0,0.1
			c0.2,0.1,0.2-0.2,0.4-0.1l0,0.1l0.1,0l0,0c0.1,0,0.1-0.1,0.1,0c0.1,0.1-0.1,0-0.2,0.1l-0.1-0.1c-0.1,0-0.1,0.1-0.3,0.1
			C81.8,72.4,81.5,72.4,81.2,72.4z"/>
		<polygon id="XMLID_3173_" class="st2" points="80.4,72 80.4,72.1 80.4,72 		"/>
		<path id="XMLID_3172_" class="st2" d="M79.4,59c-0.5,0.1-1.3-0.1-1.6,0l0.1-0.1c-0.1,0-0.2,0-0.3,0L79.4,59
			C79.3,58.9,79.3,58.9,79.4,59C79.4,58.9,79.4,58.9,79.4,59l0.4,0c0.3,0,0.6-0.1,0.9,0c0-0.1,0.5-0.2,0.8-0.2
			c0.1,0,0.1,0.1,0.1,0.1c-0.3,0-0.5,0-0.6,0.1h1.3c0.1,0,0.2-0.1,0.4,0l0,0h0.6c0,0,0-0.1,0-0.1c0-0.1-0.1-0.2-0.1-0.2l0,0.1
			l-0.1,0c0,0-0.1,0-0.1-0.1c0,0-0.2,0-0.3,0c-0.1,0-0.2,0-0.3,0c-0.2,0-0.4,0-0.7,0l0.3,0c0,0.1-0.2,0.1-0.3,0.1
			c-0.2-0.1-0.3-0.1-0.6-0.1c-0.3,0-0.4,0.1-0.8,0.1c0.1-0.1-0.6-0.1-0.6-0.2c-0.1,0.1-0.7,0-0.7,0.1c-0.2,0-0.4,0-0.4,0
			c0,0,0.1,0,0.1,0l-0.2,0c0,0,0,0,0,0c-0.2,0-0.2,0.1-0.4,0c0,0,0.1,0,0.2,0c-0.4,0-0.8,0.2-1.1,0.1c-0.1,0.1-0.6,0.1-0.5,0.2
			c-0.1,0-0.1-0.1-0.5-0.1c-0.2,0.1-0.4,0-0.7,0c0.4-0.1,0,0,0.3-0.1c-0.3,0-0.6,0.1-1.1,0.1c0,0,0-0.1-0.1-0.1
			c-0.2,0-0.4,0.1-0.5,0l0,0.1c-0.3,0-0.7,0-1-0.1l-0.4,0.1c-0.5-0.1-1.1,0-1.5,0.1h1.8c0,0,0,0,0.1,0c0.2,0,0.3,0,0.4,0h1
			c-0.1,0-0.4,0-0.2-0.1c0.7,0,0.5-0.1,1.2-0.1c0.3,0.1-0.6,0-0.1,0.1c-0.2,0-0.4,0.1-0.6,0.1h2.6c-0.3,0-0.6,0.1-1,0.1
			c-0.3,0,0.2-0.1-0.1-0.1C75.9,59,75.3,59,74.7,59c0.1,0,0.2-0.1,0.3-0.1h-0.3c0,0,0,0,0,0c-0.3,0.1-0.6,0-0.7,0.1
			c-0.2-0.1-0.2-0.1-0.3-0.1h-0.5C73.2,59,73.4,59,72.9,59c-0.2-0.1-0.4,0-0.7,0c0,0,0.2,0,0.2,0c-0.7-0.1-0.1,0-0.7,0
			c-0.1,0.3-1.2,0-1.4,0.2c0.1-0.1-0.6,0-0.3-0.1c-0.4,0.1-0.9,0-1.3,0.1c-0.5-0.2-1.6,0.2-1.7-0.1c-0.3,0-0.4,0.1-0.8,0.1
			c0,0,0.1-0.1-0.1-0.1c-0.4,0-0.6,0.1-1,0.2c-0.3,0-0.2-0.2-0.7-0.1l-0.1,0c-0.3-0.1,0-0.1,0.2-0.2H64c0.1,0,0.1,0,0.2,0
			c-0.3,0,0,0-0.1,0.1c-0.5,0.2-0.8,0.1-1.5,0.1c0,0,0.2,0,0-0.1c-0.2,0-0.5,0.1-0.6,0c0.1,0,0.3,0,0.2,0c-0.3,0-0.5,0-0.8,0l0,0
			c-0.1,0-0.2,0-0.3,0l0,0.1c-0.4-0.1-0.8,0.1-1.2,0l0.1-0.1c-0.7,0.2-1.1,0-2,0.1l0.3-0.1c-1.8,0.1-3.8,0-5.3,0.1
			c-0.2-0.2,0.4-0.1,0.7-0.2c-0.2,0.1,0.4,0,0.5,0.1l0.5-0.1c0,0.1-0.2,0.1-0.3,0.1c0.3,0,0.5-0.1,0.7-0.1l0,0
			c0.6-0.1,1.1,0.1,1.4,0L56.6,59c0.4,0.1,0.9,0.1,1.3,0c0-0.1,0.3-0.1,0.4-0.1c-0.3,0-0.1,0.1-0.3,0.1c0.6-0.1,1.9-0.1,2.2,0
			c0.1-0.1,0-0.1,0-0.1H46.9h0h-0.4C46.3,59,46,59,45.9,59c-0.2-0.1-0.3-0.1-0.4-0.1H45c0,0,0,0,0,0l-0.3,0l0.1,0h-0.3l0,0l0,0h-0.6
			c0,0-0.1,0-0.1,0c-0.2,0-0.3,0-0.4,0c0,0,0,0,0,0h-0.2v-0.7c0,0,0,0,0,0c0,0,0,0,0,0v-2.2c3.3,0.4,8.1,0.9,13.8,1.1
			c0.1,0,0.2,0,0.2,0c0,0,0,0,0,0c0.2,0,0.5,0,0.7,0c0.1,0,0.2,0,0.3,0c0,0,0,0,0,0c0.3,0,0.7,0,1,0c0.2,0,0.5,0,0.7,0l-0.1,0
			c0,0,0,0,0,0c0.3,0,0.5,0,0.8,0c0,0,0,0,0.1,0c0,0,0,0,0,0c0.1,0,0.3,0,0.4,0c0.6-0.1,1.3,0,1.9,0l0,0.1c0.1,0,0.2,0,0.3,0
			c0,0,0.1-0.1,0.4-0.1c0.4,0,0.9,0,1.2,0c-0.1,0-0.2,0-0.2,0c0.2,0,0.4,0,0.6,0c0,0,0,0,0.1,0c0,0,0,0,0,0c0.3,0,0.6,0,0.9,0l0,0
			c0.2,0,0.4,0,0.5-0.1l-0.5,0c1.1,0,2.5-0.1,3.5-0.1L69.4,57c0,0,0,0,0,0c0.2,0,0.3,0,0.5,0c0.1,0,0.3-0.1,0-0.1
			c0.2,0,0.3-0.1,0.4,0c0.1,0.1,0.1,0.1-0.1,0.1c0.1,0,0.2,0,0.3,0c-0.1,0-0.2-0.1,0-0.2c0.6,0,0.8,0,1.3-0.1c-0.1,0-0.1,0.1,0,0.1
			l0,0l0,0c0,0,0.1,0,0.2,0.1c-0.1,0-0.2,0-0.3,0c0,0.1,0.5,0.1,0.6,0.1c0.7-0.2,0.7,0.1,1.4,0c0.4-0.1-0.1-0.1,0-0.1
			c0.2,0,0.5-0.1,0.6-0.1c0,0-0.2,0.1-0.3,0.1c0.1,0.1,0.3,0,0.5,0c0,0-0.1,0,0,0c0.6,0,0.3-0.1,1.2-0.1c0.1,0,0.2,0,0.2-0.1
			c0.5,0,0.2,0.1,0.8,0.1c0,0-0.2-0.1-0.2-0.2c-0.6,0.1-1.3,0.1-1.9,0.2l0,0c-0.7,0-1.1,0.3-1.7,0.1L72.5,57c0.1,0,0-0.1,0-0.1
			c-0.1,0-0.2,0-0.3,0c0,0,0.1,0,0.1,0l-0.3,0c0.2,0,0.4,0,0.6-0.1c-0.1,0-0.1,0.1-0.1,0.1c0.6,0,1.3-0.1,1.9-0.1l-0.1-0.1
			c1.5,0,3.2-0.3,4.5-0.5l0.3,0.1c0,0,0,0,0.1,0c0.1-0.1-0.2-0.1,0.2-0.1c0,0,0.1,0.1,0.2,0.1c0.1,0,0.2,0,0.3,0c0,0-0.5,0,0-0.1
			c0,0,0.1,0.1,0.1,0.1c0,0,0,0,0.1,0c0.2-0.1,0.6,0,0.7-0.2c0.4,0,0.9-0.1,1.4-0.2c0.5-0.1,1-0.2,1.4-0.3c0,0,0,0.1,0,0.1
			c0,0.3-0.1,0.3-0.1,0.3c0,0,0,0,0,0v0.7c0,0,0,0,0,0c0.1,0.3,0.1,0.7,0.1,1.1c0,0.4,0,0.8,0,1.3c-0.3,0-0.5,0-0.8,0l0,0h-0.4
			C82.1,59,82,59,81.7,59l0.1-0.1c-0.3,0.1-0.9,0-1.2,0.1c0.1,0,0.2-0.1,0.3-0.1h-1.1C79.6,58.9,79.4,58.9,79.4,59L79.4,59
			C79.3,58.9,79.4,58.9,79.4,59z"/>
		<path id="XMLID_3171_" class="st2" d="M57.6,63.9c-0.1,0-0.2,0-0.2,0.1L57.6,63.9C57.1,64,56.5,64,56,64l0.1-0.1c0,0,0,0,0,0h-0.2
			c-0.1,0-0.2,0.1,0,0.1c-0.1,0-0.1,0.1-0.2,0c-0.1-0.1,0-0.1,0.1-0.1h-0.1c0,0,0.1,0.1-0.1,0.2c-0.1,0-0.2,0-0.3,0
			c0-0.1,0-0.3,0-0.5c0,0,0.1,0,0.1,0l0,0l0,0c0,0,0.1-0.1,0.1-0.1l0,0.2c0.1,0,0.1-0.2,0.2-0.3c-0.2-0.3,0.1-0.3,0.1-0.6
			c-0.1-0.2-0.1,0-0.1,0c0-0.1-0.1-0.2,0-0.3c0,0,0.1,0.1,0.1,0.1c0.1,0,0-0.1,0-0.2c0,0,0,0.1-0.1,0c0-0.3-0.1-0.2,0-0.5
			c0-0.1,0-0.1-0.1-0.1c0.1-0.2,0.1-0.1,0.2-0.4c0,0-0.1,0.1-0.2,0.1l0,0.9l0,0c0,0.3,0.2,0.5,0,0.8l0.1,0.1c0,0-0.1,0-0.1,0l0,0.2
			c0,0,0-0.1,0-0.1l0,0.2c0-0.1,0-0.2,0-0.3c0,0,0.1,0,0.1,0l0-0.9l-0.1,0c0.1-0.7,0-1.5-0.1-2.1c0,0,0.1-0.1,0.1-0.1l0,0
			c-0.1-0.1-0.1,0.1-0.1-0.2c0,0,0.1,0,0.1,0l0,0h0.1c0,0-0.1,0-0.1,0c0,0,0,0,0,0c0,0,0,0,0.1,0c0,0,0.1,0.1,0.1,0.1h0
			c0-0.1,0.3,0,0.3-0.1c0.4,0,1,0,1.3,0c0.1,0,0.1,0.1,0.1,0.1h0.3c0,0,0,0,0,0c0.4-0.1,0.9,0,1.4,0l0,0h0.2c0.1,0,0.1-0.1,0.2-0.1
			l-0.1,0.1c0.1-0.1,0.4,0,0.6-0.1c-0.1,0-0.1,0.1-0.1,0.1h0.5c-0.1,0-0.3,0.1-0.4,0c0,0.1-0.2,0.2-0.4,0.2c-0.1,0,0-0.1,0-0.1
			c0.2,0,0.2,0,0.3-0.1h-0.6c0,0-0.1,0.1-0.2,0l0,0h-0.3c0,0.1-0.1,0.1-0.1,0.2l0.1-0.1c0,0,0.1,0,0,0.1c0.3-0.1,0.4,0,0.6,0l-0.2,0
			c0-0.1,0.1-0.1,0.2-0.1c0.1,0.1,0.1,0.1,0.3,0.1c0.1,0,0.2-0.1,0.3-0.1c0,0.1,0.3,0.1,0.3,0.2c0-0.1,0.3,0,0.3-0.1
			c0.1,0,0.2,0,0.2,0c0,0,0,0-0.1,0l0.1,0c0,0,0,0,0,0c0.1,0,0.1-0.1,0.2,0c0,0-0.1,0-0.1,0c0.2,0,0.4-0.2,0.5-0.1
			c0-0.1,0.3-0.1,0.2-0.2c0.1,0,0,0.1,0.2,0.1c0.1-0.1,0.2,0,0.3,0c-0.2,0.1,0,0-0.2,0.1c0.1,0,0.3-0.1,0.5-0.1c0,0,0,0.1,0,0.1
			c0.1,0,0.2-0.1,0.2,0l0-0.1c0.1,0,0.3,0,0.5,0.1l0.2-0.1c0.2,0.1,0.5,0,0.7-0.1h-0.8c0,0,0,0,0,0c-0.1,0-0.2,0-0.2,0h-0.5
			c0,0,0.2,0,0.1,0.1c-0.3,0-0.2,0.1-0.5,0.1c-0.1-0.1,0.3,0,0-0.1c0.1,0,0.2-0.1,0.3-0.1h-1.2c0.1,0,0.3-0.1,0.5-0.1
			c0.1,0-0.1,0.1,0,0.1c0.3-0.1,0.6-0.1,0.8-0.1c0,0-0.1,0.1-0.2,0.1h0.1c0,0,0,0,0,0c0.1-0.1,0.3,0,0.3-0.1
			c0.1,0.1,0.1,0.1,0.2,0.1h0.2c0-0.1-0.1-0.1,0.1-0.1c0.1,0.1,0.2,0,0.3,0c0,0-0.1,0-0.1,0c0.3,0.1,0.1,0,0.3,0
			c0-0.3,0.6,0,0.6-0.2c0,0.1,0.3,0,0.1,0.1c0.2-0.1,0.4,0,0.6-0.1c0.3,0.2,0.7-0.2,0.8,0.1c0.1,0,0.2-0.1,0.4-0.1c0,0,0,0.1,0,0.1
			c0.2,0,0.3-0.1,0.5-0.2c0.2,0,0.1,0.2,0.3,0.1l0,0c0.1,0.1,0,0.1-0.1,0.2h0.3c0,0-0.1,0-0.1,0c0.1,0,0,0,0-0.1
			c0.2-0.2,0.4-0.1,0.7-0.1c0,0-0.1,0,0,0.1c0.1,0,0.2-0.1,0.3,0c0,0-0.1,0-0.1,0c0.1,0,0.2,0,0.4,0l0,0c0.1,0,0.1,0,0.1,0l0-0.1
			c0.2,0.1,0.4-0.1,0.6,0l0,0.1c0.3-0.2,0.5,0,0.9-0.1L70,59.7c0.2,0,0.4-0.1,0.7-0.1c0.1,0,0.3,0,0.4,0c0.2,0,0.4,0,0.6,0
			c0,0.8,0,1,0,1.4c-0.2,0.1,0-0.2-0.1-0.3c0.1,0.1,0-0.2,0.1-0.2c0,0-0.1-0.2-0.1-0.3c0.1,0,0.1,0.1,0.1,0.1c0-0.2-0.1-0.3-0.1-0.4
			l0,0c0,0,0-0.1,0-0.1c-0.2,0-0.5-0.1-0.6,0l0.1,0.1c-0.2-0.1-0.4-0.1-0.6,0c0,0.1-0.2,0.1-0.2,0.1c0.1,0,0.1-0.1,0.2-0.1
			c-0.3,0.1-0.9,0.1-1,0c-0.1,0.1,0,0.1,0,0.1h2.2l-0.1,4h-0.2c-0.1,0-0.2,0.1-0.2,0.1c-0.1-0.1-0.1-0.1-0.2-0.1h-0.2c0,0,0,0,0,0
			l-0.1,0l0,0h-0.1l0,0l0,0h-0.3c0,0,0,0,0,0c-0.1,0-0.1,0-0.2,0c0,0,0,0,0,0h-0.4c0,0,0,0,0,0c0,0,0,0,0,0h-7.4c0,0-0.1,0-0.1,0
			c0,0,0,0,0,0h-0.4c0,0,0,0-0.1,0c0,0,0,0,0,0h-0.5c-0.1,0-0.2,0-0.3,0l0,0c0,0,0,0,0,0h-0.4c0,0,0,0,0,0c0,0,0,0,0,0H60
			c-0.3,0.1-0.6,0.1-0.9,0.1l0-0.1H59c0,0,0,0.1-0.2,0.1c-0.2,0-0.4,0-0.6-0.1c0.1,0,0.1,0,0.1,0h-0.2c0,0,0,0,0,0c0,0,0,0,0,0
			L57.6,63.9L57.6,63.9z"/>
		<path id="XMLID_3170_" class="st2" d="M60.4,59.6c0.2-0.1,0.6,0.1,0.7,0l0,0.1c0,0,0.1,0,0.1,0L60.4,59.6
			C60.4,59.7,60.4,59.7,60.4,59.6C60.4,59.7,60.4,59.7,60.4,59.6L60.4,59.6C60.4,59.7,60.4,59.6,60.4,59.6z"/>
		<path id="XMLID_3169_" class="st2" d="M71.6,63C71.7,63,71.7,63,71.6,63l0,0.1C71.6,63.1,71.6,63,71.6,63C71.6,63,71.6,63,71.6,63
			c-0.1,0.3,0.1,0.6,0,0.9c0-0.2-0.1-0.2-0.2-0.1c0-0.1,0-0.1,0-0.2c0,0,0.1,0.1,0.1,0.1c0-0.1-0.1-0.3-0.1-0.2c0.1-0.1,0-0.6,0-0.9
			c0.1-0.2,0.2,0.1,0.1-0.2c0,0-0.1,0-0.1,0c0,0,0,0,0,0c0.1-0.2,0-0.3,0-0.5l0.1,0c0.1-0.3-0.2-0.2-0.1-0.5l0.1,0.1l0-0.2l0,0
			c0-0.1,0-0.1,0-0.2c0.1-0.1,0,0.2,0.1,0.3l-0.1,0.1c0,0.2,0.1,0.2,0.1,0.3C71.6,62.1,71.6,62.6,71.6,63z"/>
		<path id="XMLID_3168_" class="st2" d="M71.5,61L71.5,61c0.1,0,0.1,0,0.1,0c0,0,0,0.1,0,0.2C71.6,61.2,71.5,61.1,71.5,61z"/>
		<polygon id="XMLID_3167_" class="st2" points="71.3,63.9 71.2,64 71.2,63.9 		"/>
		<path id="XMLID_3166_" class="st2" d="M57.8,63.9C57.8,63.9,57.8,64,57.8,63.9C57.7,63.9,57.7,63.9,57.8,63.9z"/>
		<polygon id="XMLID_3165_" class="st2" points="71.9,72 72,72 72,72.1 		"/>
		<path id="XMLID_3164_" class="st2" d="M72.1,72.3c0.1,0,0.1,0,0.1,0c0,0-0.1,0.1-0.1,0.1c0.1,0,0.2-0.1,0.2-0.1
			c0.1,0.1,0.5,0,0.7-0.1c0.2,0-0.1,0.2,0.1,0.1c0,0,0-0.1,0-0.1c0,0,0,0,0,0c0.1,0.1,0.2,0,0.4,0l0,0.1c0.2,0.1,0.2-0.2,0.4-0.1
			l0,0.1l0.1,0l0,0c0.1,0,0.1-0.1,0.1,0c0.1,0.1-0.1,0-0.2,0.1l-0.1-0.1c-0.1,0-0.1,0.1-0.2,0.1c-0.1-0.1-0.5,0-0.8,0c0,0,0,0,0,0
			l-0.1,0c0,0,0.1,0,0.1,0c0,0,0-0.1,0-0.1c-0.3,0-0.5,0.2-0.7,0.1C72.1,72.5,72.2,72.4,72.1,72.3z"/>
		<path id="XMLID_3163_" class="st2" d="M74.2,72.4c0,0-0.1,0-0.2,0c0-0.1,0.1-0.2,0.2-0.1C74.3,72.3,74.2,72.4,74.2,72.4
			C74.2,72.4,74.2,72.4,74.2,72.4z"/>
		<path id="XMLID_3162_" class="st2" d="M74.8,73.5c-0.2-0.1,0.2-0.1,0.3-0.1c0,0,0,0,0,0c0.1,0.2,0-0.2,0.1-0.2
			c0,0-0.1-0.3-0.1-0.3c0.1,0,0.1,0.1,0.1,0.1c0-0.1,0-0.2,0-0.2c0,0-0.1-0.1-0.1-0.1l0,0c-0.1-0.2,0.1-0.4,0-0.5l-0.1,0
			c0.1-0.1,0.1-0.3,0-0.5c0,0-0.1-0.1-0.1-0.1c0,0,0.1,0,0.1,0.1c-0.1-0.2-0.1-0.7,0-0.8c-0.1,0-0.1,0-0.1,0v2.3h-2.5V73
			c0-0.1-0.1-0.1-0.1-0.2c0.1-0.1,0.1-0.1,0.1-0.1v-0.2c0,0,0,0,0,0l0-0.1l0,0v-0.1l0,0l0,0v-0.2c0,0,0,0,0,0c0-0.1,0-0.1,0-0.1
			c0,0,0,0,0,0v-0.3c0,0,0,0,0,0c0,0,0,0,0,0v-5.8c0,0,0-0.1,0-0.1c0,0,0,0,0,0v-0.3c0,0,0,0,0,0c0,0,0,0,0,0v-0.4
			c0-0.1,0-0.2,0-0.2l0,0c0,0,0,0,0,0v-0.3c0,0,0,0,0,0c0,0,0,0,0,0v-0.2c-0.1-0.2,0-0.5,0-0.7l0.1,0l0-0.1c0,0-0.1,0-0.1-0.1
			c0-0.1,0-0.3,0.1-0.4c0,0,0,0.1,0,0.1l0-0.2c0,0,0,0,0,0c0,0,0,0,0,0l0-0.3l0,0c0-0.1,0-0.2-0.1-0.2l0,0.2c0-0.4,0-0.9,0-1.3
			l0.1,0.1c0,0,0,0,0,0l0-0.2c0,0-0.1-0.1-0.1,0c0-0.1-0.1-0.1,0-0.2c0.1,0,0.1,0,0.1,0l0-0.1c0,0-0.1,0.1-0.2,0
			c0.1-0.2,0-0.3,0-0.5c0,0,0.1,0,0.1,0l0,0l0,0c0,0,0.1,0,0.1-0.1l0,0.1c0.1,0,0.1-0.2,0.2-0.2c-0.1-0.1,0-0.2,0.1-0.1
			c0,0,0.1,0,0.1,0c0-0.1,0-0.1-0.1-0.1c0.1,0,0.1-0.1,0.2,0c0,0,0,0.1-0.1,0.1c0,0.1,0,0,0.2,0.1c0,0,0,0,0-0.1
			c0.2,0,0.1-0.1,0.4,0c0,0,0.1,0,0.1-0.1c0.2,0.1,0.1,0.1,0.3,0.2c0,0-0.1-0.1-0.1-0.2H73l0,0c-0.2,0-0.3,0.1-0.4,0.1
			c0,0,0,0-0.1,0.1c0,0,0.1,0.1,0.1,0.1c0,0-0.1,0-0.1,0l0,0.2c0,0,0-0.1,0-0.1l0,0.1c0-0.1,0-0.2,0-0.2c0,0,0.1,0.1,0.1,0.1l0-0.2
			H73l0-0.1c0.5,0.1,1.1,0,1.7-0.1c0,0,0.1,0.1,0.1,0.1h0c0.1-0.1,0-0.1,0.2-0.1c0,0,0,0.1,0,0.1h0v0c0,0,0,0,0-0.1
			c0,0-0.1,0,0.1-0.1c0,0,0,0,0,0c0,0-0.1,0.1-0.1,0.1v0c0.1,0,0,0.2,0.1,0.2c0,0.3,0,0.8,0,1c0,0.1-0.1,0.1-0.1,0.1v0.2
			c0,0,0,0,0,0c0.1,0.3,0,0.7,0,1.1l0,0v0.2c0,0,0.1,0.1,0.1,0.2l-0.1,0c0.1,0.1,0,0.3,0.1,0.5c0-0.1-0.1-0.1-0.1-0.1v0.4
			c0-0.1-0.1-0.2,0-0.3c-0.1,0-0.2-0.2-0.2-0.3c0,0,0.1,0,0.1,0c0,0.1,0,0.2,0.1,0.2v-0.5c0,0-0.1-0.1,0-0.2l0,0v-0.2
			c-0.1,0-0.1-0.1-0.2-0.1l0.1,0.1c0,0,0,0.1-0.1,0c0.1,0.2,0,0.3,0,0.5l0-0.1c0.1,0,0.1,0.1,0.1,0.1c-0.1,0.1-0.1,0.1-0.1,0.2
			c0,0.1,0.1,0.1,0.1,0.3c-0.1,0-0.1,0.2-0.2,0.2c0.1,0,0,0.2,0.1,0.3c0,0.1,0,0.2,0,0.2c0,0,0,0,0-0.1l0,0.1c0,0,0,0,0,0
			c0,0.1,0.1,0.1,0,0.1c0,0,0,0,0-0.1c0,0.2,0.2,0.3,0.1,0.4c0.1,0,0.1,0.2,0.2,0.2c0,0.1-0.1,0-0.1,0.2c0.1,0.1,0,0.2,0,0.3
			c-0.1-0.1,0,0-0.1-0.1c0,0.1,0.1,0.2,0.1,0.4c0,0-0.1,0-0.1,0c0,0.1,0.1,0.1,0,0.2l0.1,0c0,0.1,0,0.3-0.1,0.4l0.1,0.1
			c-0.1,0.2,0,0.4,0.1,0.5v-0.7c0,0,0,0,0,0c0-0.1,0-0.1,0-0.1v-0.4c0,0,0,0.2-0.1,0.1c0-0.2-0.1-0.2-0.1-0.4c0.1-0.1,0,0.2,0.1,0
			c0,0.1,0.1,0.2,0.1,0.2v-0.9c0,0.1,0.1,0.2,0.1,0.4c0,0.1-0.1-0.1-0.1,0c0.1,0.2,0.1,0.4,0.1,0.6c0,0-0.1-0.1-0.1-0.1v0.1
			c0,0,0,0,0,0c0.1,0.1,0,0.2,0.1,0.2c-0.1,0.1-0.1,0.1-0.1,0.1v0.2c0.1,0,0.1,0,0.1,0.1c-0.1,0.1,0,0.1,0,0.2c0,0,0-0.1,0-0.1
			c-0.1,0.3,0,0,0,0.3c0.3,0,0,0.4,0.2,0.5c-0.1,0,0,0.2-0.1,0.1c0.1,0.2,0,0.3,0.1,0.5c-0.2,0.2,0.2,0.6-0.1,0.6
			c0,0.1,0.1,0.1,0.1,0.3c0,0-0.1,0-0.1,0c0,0.1,0.1,0.2,0.2,0.4c0,0.1-0.2,0.1-0.1,0.2l0,0c-0.1,0.1-0.1,0-0.2-0.1v0.2
			c0,0,0,0,0-0.1c0,0.1,0,0,0.1,0c0.2,0.2,0.1,0.3,0.1,0.6c0,0,0-0.1-0.1,0c0,0.1,0.1,0.2,0,0.2c0,0,0-0.1,0-0.1c0,0.1,0,0.2,0,0.3
			l0,0c0,0,0,0.1,0,0.1l0.1,0c-0.1,0.2,0.1,0.3,0,0.4l-0.1,0c0.2,0.3,0,0.4,0.1,0.7l-0.1-0.1c0.1,0.3,0.1,0.6,0.1,0.9
			c0,0.4,0,0.8,0,1.1C75.1,73.4,74.9,73.4,74.8,73.5z"/>
		<path id="XMLID_3161_" class="st2" d="M72,62.6C72,62.5,72,62.5,72,62.6C72,62.6,72,62.5,72,62.6z"/>
		<path id="XMLID_3160_" class="st2" d="M74.5,63.9C74.5,63.9,74.5,63.8,74.5,63.9L74.5,63.9C74.5,63.9,74.6,63.9,74.5,63.9
			c0.1,0.2,0,0.4,0.1,0.6l-0.1,0c0,0,0,0.1,0,0.1L74.5,63.9C74.5,63.9,74.5,63.9,74.5,63.9z"/>
		<path id="XMLID_3159_" class="st2" d="M54.8,73c0.1,0,0.1,0.1,0.1,0.2c0-0.2-0.1-0.3-0.1-0.4l0,0c-0.1-0.2,0.1-0.4,0-0.5l-0.1,0
			c0-0.1,0.1-0.3,0-0.5c0,0-0.1-0.1-0.1-0.1c0,0,0.1,0,0.1,0.1c-0.1-0.2-0.1-0.7,0-0.8c-0.1,0-0.1,0-0.1,0l0,2.1H52l0-0.2
			c0-0.1-0.1-0.1-0.1-0.2c0.1-0.1,0.1-0.1,0.1-0.1l0-0.2c0,0,0,0,0,0l0-0.1l0,0l0-0.1l0,0l0,0l0-0.2c0,0,0,0,0,0c0-0.1,0-0.1,0-0.1
			c0,0,0,0,0,0l0-0.3c0,0,0,0,0,0c0,0,0,0,0,0l0.1-5.9c0,0,0-0.1,0-0.1c0,0,0,0,0,0l0-0.3c0,0,0,0,0,0c0,0,0,0,0,0l0-0.4
			c0-0.1,0-0.2,0-0.2l0,0c0,0,0,0,0,0l0-0.3c0,0,0,0,0,0c0,0,0,0,0,0l0-0.2C52,64,52,63.7,52,63.5l0.1,0l0-0.1c0,0-0.1,0-0.1-0.1
			c0-0.1,0-0.3,0.1-0.4c0,0,0,0.1,0,0.1l0-0.2c0,0,0,0,0,0c0,0,0,0,0,0l0-0.3l0,0c0-0.1,0-0.2-0.1-0.2l0,0.2c0-0.4,0-0.9,0-1.3
			l0.1,0.1c0,0,0,0,0,0l0-0.2c0,0-0.1-0.1-0.1,0c0-0.1-0.1-0.1,0-0.2c0.1,0,0.1,0,0.1,0l0-0.1c0,0-0.1,0.1-0.2,0
			c0.1-0.2,0-0.3,0-0.5c0,0,0.1,0,0.1,0v0l0,0c0,0,0.1,0,0.1-0.1l0,0.1c0.1,0,0.1-0.2,0.2-0.2c-0.1-0.1,0-0.2,0.1-0.1
			c0.1,0,0.1,0.1,0.1,0c0-0.1,0-0.1-0.1-0.1c0.1,0,0.1-0.1,0.2,0c0,0-0.1,0.1-0.1,0.1c0,0.1,0.1,0,0.2,0.1c0,0,0,0,0-0.1
			c0.2,0,0.1-0.1,0.4,0c0,0,0.1,0,0.1-0.1c0.2,0.1,0.1,0.1,0.3,0.2c0,0-0.1-0.1-0.1-0.2h-0.7l0,0c-0.2,0-0.3,0.1-0.4,0.1
			c0,0,0,0-0.1,0.1c0,0,0.1,0.1,0.1,0.1c0,0-0.1,0-0.1,0l0,0.2c0,0,0-0.1,0-0.1l0,0.1c0-0.1,0-0.2,0-0.3c0,0,0.1,0.1,0.1,0.1l0-0.2
			h0.5l0-0.1c0.3,0,0.6,0,0.8,0c0.3,0,0.6-0.1,0.9-0.1c0,0,0,0.1,0,0.1h0c0.1-0.1,0.1-0.1,0.1-0.1c0,0,0,0,0,0.1
			c0,0-0.1,0.1-0.1,0.2l0,0c0,0,0.1-0.3,0.1,0c0,0-0.1,0.1-0.1,0.1l0,0c0.1,0.1,0,0.2,0.1,0.2c0,0.3,0,0.8,0,1
			c0,0.1-0.1,0.1-0.1,0.1l0,0.2c0,0,0,0,0,0c0.1,0.3,0,0.7,0.1,1.1l0,0l0,0.2c0,0,0.1,0.1,0.1,0.2l-0.1,0c0.1,0.1,0,0.3,0.1,0.4
			c0-0.1-0.1-0.1-0.1-0.1l0,0.4c0-0.1-0.1-0.2,0-0.3c-0.1,0-0.2-0.2-0.2-0.3c0,0,0.1,0,0.1,0c0,0.1,0,0.2,0.1,0.2l0-0.5
			c0,0-0.1-0.1,0-0.2l0,0l0-0.2c-0.1,0-0.1-0.1-0.2-0.1l0.1,0.1c0,0,0,0.1-0.1,0c0.1,0.2,0,0.3,0,0.5l0-0.1c0.1,0,0.1,0.1,0.1,0.1
			c-0.1,0.1-0.1,0.1-0.1,0.2c0,0.1,0.2,0.1,0.2,0.3c-0.1,0-0.1,0.2-0.1,0.2c0.1,0,0,0.2,0.1,0.3c0,0.1,0,0.2,0,0.2c0,0,0,0,0-0.1
			l0,0.1c0,0,0,0,0,0c0,0.1,0.1,0.1,0,0.1c0,0,0,0,0-0.1c0,0.2,0.2,0.3,0.1,0.4c0.1,0,0.1,0.2,0.2,0.2c0,0.1-0.1,0-0.1,0.2
			c0.1,0.1,0,0.2,0,0.3c-0.1-0.1,0,0-0.1-0.1c0,0.1,0.1,0.2,0.1,0.4c0,0-0.1,0-0.1,0c0,0.1,0.1,0.1,0,0.2l0.1,0c0,0.1,0,0.3-0.1,0.4
			l0.1,0.1c-0.1,0.2,0,0.4,0.1,0.5l0-0.7c0,0,0,0,0,0c0-0.1,0-0.1,0-0.1l0-0.4c0,0,0,0.2-0.1,0.1c0-0.2-0.1-0.2-0.1-0.4
			c0.1-0.1,0,0.2,0.1,0c0,0.1,0.1,0.2,0.1,0.2l0-0.9c0,0.1,0.1,0.2,0.1,0.4c0,0.1-0.1-0.1-0.1,0c0.1,0.2,0.1,0.4,0.1,0.6
			c0,0-0.1-0.1-0.1-0.1l0,0.1l0,0c0.1,0.1,0,0.2,0.1,0.2c-0.1,0.1-0.1,0.1-0.1,0.1l0,0.2c0.1,0,0.1,0,0.1,0.1c-0.1,0.1,0,0.1,0,0.2
			c0,0,0-0.1,0-0.1c-0.1,0.3,0,0,0,0.3c0.3,0,0,0.4,0.2,0.5c-0.1,0,0,0.2-0.1,0.1c0.1,0.2,0,0.3,0.1,0.5c-0.2,0.2,0.2,0.6-0.1,0.6
			c0,0.1,0.2,0.1,0.1,0.3c0,0-0.1,0-0.1,0c0,0.1,0.1,0.2,0.2,0.4c0,0.1-0.2,0.1-0.1,0.2l0,0c-0.1,0.1-0.1,0-0.2-0.1l0,0.2
			c0,0,0,0,0-0.1c0,0.1,0,0,0.1,0c0.2,0.2,0.1,0.3,0.1,0.6c0,0,0-0.1-0.1,0c0,0.1,0.1,0.2,0,0.2c0,0,0-0.1,0-0.1c0,0.1,0,0.2,0,0.3
			l0,0c0,0,0,0.1,0,0.1l0.1,0c-0.1,0.2,0.1,0.3,0.1,0.4l-0.1,0c0.3,0.3,0,0.4,0.1,0.7l-0.1-0.1c0.1,0.2,0.1,0.5,0.1,0.8
			c0,0.3,0,0.7,0,1c-0.2,0-0.6,0-0.7,0c0-0.1,0-0.1,0.1-0.1c0.1,0,0.2,0,0.3-0.1c-0.1,0.1,0.2,0,0.3,0.1C54.9,73.4,54.8,73,54.8,73z
			"/>
		<path id="XMLID_3158_" class="st2" d="M54.3,72.4c0,0-0.1,0-0.1,0c0-0.1,0.1-0.2,0.2-0.1L54.3,72.4C54.3,72.4,54.3,72.4,54.3,72.4
			z"/>
		<path id="XMLID_3157_" class="st2" d="M52.1,72.5c0.1,0,0.2-0.1,0.1-0.2c0.1,0,0.1,0,0.1,0c0,0-0.1,0.1-0.1,0.1
			c0.1,0,0.2-0.1,0.2-0.1c0.1,0.1,0.5,0,0.7-0.1c0.2,0-0.1,0.2,0.1,0.1c0,0,0-0.1,0-0.1c0,0,0,0,0,0c0.1,0.1,0.2,0,0.4,0l0,0.1
			c0.2,0.1,0.2-0.2,0.4-0.1l0,0.1l0.1,0l0,0c0.1,0,0.1-0.1,0.1,0c0.1,0.1-0.1,0-0.2,0.1l-0.1-0.1c-0.1,0-0.1,0.1-0.2,0.1
			c-0.1-0.1-0.5,0-0.8,0c0,0,0,0,0,0l-0.1,0c0,0,0.1,0,0.1,0c0,0,0-0.1,0-0.1C52.6,72.4,52.4,72.6,52.1,72.5z"/>
		<polygon id="XMLID_3156_" class="st2" points="52.1,72 52.1,72.1 52.1,72 		"/>
		<path id="XMLID_3155_" class="st2" d="M46.9,59.3c0.3,0,0.4-0.1,0.3-0.2c0.1,0,0.3,0,0.4,0c0,0-0.3,0.1-0.1,0.1
			c0.3,0,0.7-0.1,0.4-0.1c0.3,0.1,1.3,0,1.9-0.1c0.4,0-0.3,0.2,0.3,0.1c0,0,0-0.1-0.1-0.1c-0.1,0-0.1,0-0.1,0c0.4,0.1,0.6,0,1,0
			l0,0.1c0.6,0.1,0.5-0.2,1-0.1l-0.1,0.1l0.4,0l0,0c0.2,0,0.3-0.1,0.3,0c0.2,0.1-0.4,0-0.6,0.1l-0.2-0.1c-0.4,0-0.4,0.1-0.7,0.1
			c-0.3-0.1-1.3,0-2.2,0c0,0-0.1,0-0.1,0l-0.2,0c0.1,0,0.2,0,0.3,0c0,0,0-0.1,0.1-0.1C48.2,59.1,47.6,59.4,46.9,59.3z"/>
		<polygon id="XMLID_3154_" class="st2" points="46.6,59 46.6,58.9 46.9,58.9 		"/>
		<path id="XMLID_3153_" class="st2" d="M52.2,62.5C52.2,62.5,52.3,62.5,52.2,62.5C52.2,62.6,52.2,62.5,52.2,62.5z"/>
		<path id="XMLID_3152_" class="st2" d="M52.9,59.2c0,0-0.2,0-0.4,0c0-0.1,0.2-0.2,0.4-0.1l-0.2,0.1C52.9,59.1,52.9,59.2,52.9,59.2z
			"/>
		<path id="XMLID_3151_" class="st2" d="M54.8,64.6L54.8,64.6C54.7,64.6,54.7,64.6,54.8,64.6l-0.1-0.5c0,0,0,0,0,0c0,0,0,0,0,0l0,0
			c0,0,0,0,0,0C54.8,64.2,54.7,64.5,54.8,64.6z"/>
		<path id="XMLID_3150_" class="st2" d="M46.3,64.4C46.3,64.4,46.3,64.4,46.3,64.4l0,0.3c0,0,0,0,0,0c0,0,0,0,0,0l0,0.4
			c0,0.1,0,0.2,0,0.3l0,0c0,0,0,0,0,0l0,0.3c0,0,0,0,0,0c0,0,0,0,0,0l0,0.2c0.1,0.2,0,0.5,0,0.7l-0.1,0l0,0.1c0,0,0.1,0,0.1,0.1
			c0,0.1,0,0.3-0.1,0.4c0,0,0-0.1,0-0.1l0,0.2c0,0,0,0,0,0c0,0,0,0,0,0l0,0.4l0,0c0,0.1,0,0.2,0.1,0.2l0-0.2c0,0.4,0,0.9-0.1,1.3
			l-0.1-0.1c0,0,0,0,0,0l0,0.2c0,0,0.1,0.1,0.1,0c0,0.1,0.1,0.1,0,0.2c-0.1,0-0.1,0-0.1,0l0,0.1c0,0,0.1-0.1,0.2,0
			c-0.1,0.2,0,0.3,0,0.5c0,0-0.1,0-0.1,0l0,0l0,0c0,0-0.1,0-0.1,0.1l0-0.1c-0.1,0-0.1,0.2-0.2,0.2c0.1,0.3-0.2,0.3-0.1,0.5
			c0,0.2,0.1,0,0.1,0c0,0.1,0,0.2,0,0.2c0,0-0.1-0.1,0-0.1c-0.1,0,0,0.1-0.1,0.2c0,0,0,0,0.1,0c0,0.2,0.1,0.1,0,0.4
			c0,0,0,0.1,0.1,0.1c-0.1,0.2-0.1,0.1-0.2,0.3c0,0,0.1-0.1,0.2-0.1l0-0.7l0,0c0.1-0.3-0.2-0.4,0-0.6L46,70.1c0,0,0.1,0,0.1,0l0-0.2
			c0,0,0,0.1,0,0.1l0-0.1c0,0.1,0,0.1,0,0.2c0,0-0.1,0-0.1,0l0,0.7l0.1,0c-0.1,0.6,0,1.2,0,1.7l-0.1,0.1l0,0
			c0.1,0.1,0.1-0.1,0.1,0.1c0,0-0.1,0-0.1,0.1l0,0c0,0,0.1-0.2,0.1,0c0,0-0.1,0-0.1,0l0,0c0.1,0.1,0,0.2,0.1,0.3l0,0
			c-0.5,0-0.8,0-1.1,0c-0.1,0-0.1-0.1-0.1-0.1h-0.2c0,0,0,0,0,0c-0.3,0.1-0.7,0-1.2,0l0,0h-0.1v0c0,0-0.1,0-0.1-0.1l0.1,0
			c-0.1-0.1,0-0.3-0.1-0.5c0,0.1,0.1,0.1,0.1,0.1v-0.4c0,0.1,0.1,0.2,0,0.3c0.1,0,0.2,0.2,0.2,0.3c0,0-0.1,0-0.1,0
			c0-0.1,0-0.2-0.1-0.2v0.5c0,0,0,0,0,0c0,0,0.1,0,0.1,0l0,0h0.2c0-0.1,0.1-0.1,0.1-0.2c0,0-0.1,0.1-0.1,0.1c0,0,0,0,0-0.1
			c-0.1,0.1-0.1,0-0.1,0c0,0,0-0.1,0-0.1l0,0.1c-0.1,0-0.1,0-0.1,0c0.1-0.1,0.1,0,0.1-0.2c0-0.1-0.1-0.2-0.1-0.3
			c0.1,0,0.1-0.2,0.2-0.2c-0.1,0,0-0.3-0.1-0.3c0-0.1,0-0.2,0-0.2c0,0,0,0,0,0.1l0-0.1c0,0,0,0,0,0c0-0.1-0.1-0.1,0-0.1
			c0,0,0,0,0,0.1c0-0.2-0.2-0.3-0.1-0.4c-0.1,0-0.1-0.2-0.2-0.2c0-0.1,0.1,0,0.1-0.2c-0.1-0.1,0-0.2,0-0.3c0.1,0.1,0,0,0.1,0.1
			c0-0.1-0.1-0.2-0.1-0.4c0,0,0.1,0,0.1,0c0-0.1-0.1-0.1,0-0.2l-0.1,0c0-0.1,0-0.3,0.1-0.4l-0.1-0.1c0.1-0.2,0-0.4-0.1-0.6v0.7
			c0,0,0,0,0,0c0,0.1,0,0.1,0,0.2v0.4c0,0,0-0.2,0.1-0.1c0,0.3,0.1,0.2,0.1,0.4c-0.1,0.1,0-0.2-0.1,0c0-0.1-0.1-0.2-0.1-0.2v1
			c0-0.1-0.1-0.2-0.1-0.4c0-0.1,0.1,0.1,0.1,0c-0.1-0.2-0.1-0.5-0.1-0.7c0,0,0.1,0.1,0.1,0.1v-0.1c0,0,0,0,0,0
			c-0.1-0.1,0-0.2-0.1-0.3c0.1-0.1,0.1-0.1,0.1-0.1v-0.2c-0.1,0-0.1,0-0.1-0.1c0.1-0.1,0-0.1,0-0.2c0,0,0,0.1,0,0.1
			c0.1-0.3,0,0,0-0.3c-0.3,0,0-0.5-0.2-0.5c0.1,0,0-0.2,0.1-0.1c-0.1-0.2,0-0.3-0.1-0.5c0.2-0.2-0.2-0.6,0.1-0.6
			c0-0.1-0.1-0.2-0.1-0.3c0,0,0.1,0,0.1,0c0-0.1-0.1-0.2-0.2-0.4c0-0.1,0.2-0.1,0.1-0.3l0,0c0.1-0.1,0.1,0,0.2,0.1v-0.3
			c0,0,0,0,0,0.1c0-0.1,0,0-0.1,0c-0.2-0.2-0.1-0.3-0.1-0.6c0,0,0,0.1,0.1,0c0-0.1-0.1-0.2,0-0.2c0,0,0,0.1,0,0.1c0-0.1,0-0.2,0-0.3
			l0,0c0,0,0-0.1,0-0.1l-0.1,0c0.1-0.2-0.1-0.3,0-0.5l0.1,0c-0.2-0.3,0-0.4-0.1-0.7l0.1,0.1c-0.1-0.7,0-1.4-0.1-2
			c0.2-0.1,0.1,0.2,0.2,0.3c-0.1-0.1,0,0.1-0.1,0.2l0.1,0.2c-0.1,0-0.1-0.1-0.1-0.1c0,0.1,0.1,0.2,0.1,0.3l0,0
			c0.1,0.2-0.1,0.4,0,0.5l0.1,0c-0.1,0.1-0.1,0.3,0,0.5c0,0,0.1,0.1,0.1,0.1c0,0-0.1,0-0.1-0.1c0.1,0.2,0.1,0.7,0,0.8
			c0.1,0,0.1,0,0.1,0v-5l0.2,0c0.1,0,0.1-0.1,0.2-0.1c0.1,0.1,0.1,0.1,0.1,0.1l0.2,0c0,0,0,0,0,0l0.1,0l0,0l0.1,0l0,0l0,0l0.2,0
			c0,0,0,0,0,0c0.1,0,0.1-0.1,0.2,0c0,0,0,0,0,0l0.3,0c0,0,0,0,0,0c0,0,0,0,0,0l1.5,0L46.3,64.4C46.3,64.3,46.3,64.4,46.3,64.4z"/>
		<path id="XMLID_3149_" class="st2" d="M46.3,67.4C46.2,67.4,46.2,67.5,46.3,67.4C46.2,67.3,46.2,67.4,46.3,67.4z"/>
		<path id="XMLID_3148_" class="st2" d="M43.4,71C43.3,71,43.3,71,43.4,71L43.4,71C43.3,71,43.3,71,43.4,71c-0.1-0.2,0-0.5-0.1-0.6
			l0.1,0c0,0,0-0.1,0-0.1L43.4,71C43.3,71,43.3,71,43.4,71z"/>
		<path id="XMLID_3147_" class="st2" d="M43,61.3c0.1-0.1,0-0.5,0-0.8c0,0,0,0,0,0l0-0.1c0,0,0,0.1,0,0.1c0,0,0.1,0,0.1,0
			c0-0.3-0.2-0.5-0.1-0.8c0,0.1,0.1,0.2,0.2,0.1c0,0.1,0,0.1,0,0.1c0,0-0.1-0.1-0.1-0.1c0,0.1,0.1,0.3,0.1,0.2
			c-0.1,0.1,0,0.5,0.1,0.7c0,0.2-0.2-0.1-0.1,0.1c0,0,0.1,0,0.1,0c0,0,0,0,0,0c-0.1,0.1,0,0.2,0,0.4L43,61.3c0,0.2,0.3,0.1,0.2,0.3
			l-0.1,0l0,0.1l0,0c0,0.1,0.1,0.1,0,0.1c-0.1,0.1,0-0.1-0.1-0.2l0.1-0.1C43.1,61.4,43,61.4,43,61.3z"/>
		<path id="XMLID_3146_" class="st2" d="M43.2,62L43.2,62c-0.1,0-0.1,0-0.1,0c0,0,0-0.1,0-0.1C43.1,61.8,43.2,61.9,43.2,62z"/>
		<polygon id="XMLID_3145_" class="st2" points="43.3,59.6 43.4,59.6 43.4,59.7 		"/>
		<path id="XMLID_3144_" class="st2" d="M51.7,55.8C51.8,55.8,51.7,55.8,51.7,55.8C51.5,55.8,51.4,55.7,51.7,55.8z"/>
		<path id="XMLID_3143_" class="st2" d="M65.7,56.8C65.7,56.8,65.8,56.8,65.7,56.8C66,56.8,66,56.8,65.7,56.8z"/>
		<path id="XMLID_3142_" class="st2" d="M80.6,62.4C80.6,62.3,80.7,62.3,80.6,62.4C80.6,62.4,80.6,62.4,80.6,62.4z"/>
		<path id="XMLID_3141_" class="st2" d="M83.2,64C83.3,64,83.3,64,83.2,64L83.2,64C83.3,64,83.3,64,83.2,64c0.1,0.2,0,0.5,0.1,0.6
			l-0.1,0c0,0,0,0.1,0,0.1L83.2,64C83.3,64,83.3,64,83.2,64z"/>
		<path id="XMLID_3140_" class="st2" d="M83.4,54.7l-0.3,0.1l0.1-0.1c-0.3,0.1-0.7,0.1-1,0.2c0,0-0.1,0-0.1,0
			C81.9,55,81.8,55,81.6,55c0,0,0,0,0,0c-0.3,0-0.7,0.1-1,0.1c0,0,0,0,0,0c0,0,0,0,0,0c-6.5,0.8-13,1.1-18.8,1c-0.1,0-0.2,0-0.2,0
			c0,0,0,0,0,0c-0.3,0-0.6,0-0.9,0c-0.1,0-0.1,0-0.2,0c0,0,0,0,0,0c-0.4,0-0.8,0-1.3,0c-0.2,0-0.5,0-0.7,0l0.1,0c0,0,0,0,0,0
			c-0.3,0-0.7,0-1,0c0,0,0,0-0.1,0c0,0,0,0,0,0c-0.2,0-0.3,0-0.5,0c-0.7,0-1.5,0-2.2,0L55,56c-0.1,0-0.2,0-0.4,0
			c0,0-0.1,0.1-0.5,0.1c-0.5,0-1,0-1.4-0.1c0.1,0,0.2,0,0.2,0c-0.2,0-0.4,0-0.6,0c0,0-0.1,0-0.1,0c0,0,0,0,0,0
			c-0.4,0-0.7-0.1-1.1-0.1c-0.2,0-0.5,0-0.5,0l0.6,0c-1.3-0.1-2.9-0.2-4-0.3l0.4,0c0,0,0,0,0,0c-0.2,0-0.4,0-0.6-0.1
			c-0.1,0-0.4,0,0,0.1c-0.2,0-0.3,0-0.5,0c-0.1-0.1-0.1-0.1,0.1-0.1c-0.1,0-0.2,0-0.3,0c0.1,0.1,0.2,0.1,0,0.1
			c-0.7-0.1-0.9-0.1-1.5-0.2c0.1,0,0.1-0.1,0-0.1l0,0l0,0c0,0-0.1-0.1-0.2-0.1c0.1,0,0.3,0,0.4,0c0-0.1-0.6-0.2-0.6-0.2
			c-0.8,0.1-0.8-0.2-1.6-0.3c-0.5,0,0,0.1,0,0.1c-0.3,0-0.5,0-0.8-0.1c0,0,0.2,0,0.4,0c0-0.1-0.1-0.1-0.2-0.1c-0.1,0-0.2,0-0.2,0
			c0,0,0.1,0,0,0.1c-0.2,0-0.3,0-0.4,0c-0.1,0-0.1,0-0.2,0c0,0-0.1,0-0.1,0c0,0-0.2,0,0,0c0,0,0,0,0.1,0c0,0,0.1-0.1-0.1,0
			c0.3-0.1,0.4-0.1,0.5-0.1c0.1,0,0.2,0,0.4-0.1c0,0-0.2,0-0.3-0.1c-0.3,0.1-0.6,0.3-1,0.4c0.3,0,0.7,0.1,1.1,0.2c0,0,0,0,0,0
			c0.8,0.1,1.3,0,2,0.2l0.2,0c-0.1,0,0,0.1,0,0.1c0.1,0,0.2,0,0.4,0c-0.1,0-0.1,0-0.2,0l0.4,0.1c-0.2,0-0.4-0.1-0.7-0.1
			c0.1,0,0.1-0.1,0.1-0.1c-0.8-0.1-1.6-0.2-2.2-0.3c0,0,0.1,0.1,0.1,0.1c-0.2,0-0.5-0.1-0.7-0.1l-0.4-0.1l-0.2,0c0,0-0.1,0-0.1,0
			l0.1,0c0.4-0.1,0.7-0.3,1.1-0.5c0.4-0.2,0.6-0.3,0.9-0.6c0.2-0.2,0.5-0.5,0.6-0.7c0.1-0.3,0.2-0.6,0.3-0.8l0.2-0.2l0,0
			c0-0.2-0.2,0.1,0-0.3c0,0,0.1-0.1,0.2-0.2l0.1-0.2c0,0-0.3,0.6-0.1,0c0,0,0.1-0.1,0.1-0.1l0,0c0-0.1,0.1-0.2,0-0.4
			c0-0.2-0.3-0.2-0.4-0.3c-0.3-0.2-0.4-0.6-0.5-0.9c0-0.1,0-0.2,0-0.3l0-0.1c0,0,0,0,0.1,0l0.2,0.1l0.2,0c0.1,0.1,0.3,0.2,0.4,0.3
			c0.1,0.1,0.3,0.2,0.4,0.2c0.3,0.1,0.4,0.2,0.6,0.2c0.3,0.1,0.2,0.2,0.2,0.2c0.2,0.1,0.5,0.2,0.7,0.3c0,0,0,0,0,0
			c0.8,0.1,1.9,0.5,3,0.7c0.2,0,0.3,0,0.5,0l0,0l0.5,0c0.1,0,0.3-0.1,0.6-0.1L50,50.9c0.4-0.1,1,0,1.4-0.1c-0.2,0-0.3,0-0.4,0.1
			l1.3,0c0.2,0,0.4,0,0.4,0l0.1,0c0,0,0,0-0.1,0c0.6,0,1.5,0.1,1.8,0L54.6,51c0.1,0,0.2,0,0.3,0l-1.9,0c0,0,0,0,0,0c0,0,0,0,0,0
			l-0.4,0c-0.3,0-0.7,0.1-1,0c0,0.1-0.6,0.2-0.9,0.2c-0.1,0-0.1-0.1-0.1-0.1c0.4,0,0.5,0,0.7-0.1l-1.5,0c-0.1,0-0.2,0.1-0.5,0l0,0
			l-0.5,0c0,0,0,0-0.1,0c0,0-0.1,0-0.2,0C48.3,51,48.1,51,48,51l0.4,0c-0.1,0,0.2,0.1,0.1,0.1c0,0,0.1,0,0.1,0
			c0.6-0.1,0.9,0.1,1.5,0l-0.4,0c0-0.1,0.2-0.1,0.4-0.1c0.2,0.1,0.3,0.1,0.6,0.1c0.3,0,0.5-0.1,0.9-0.1c-0.1,0.1,0.7,0.1,0.8,0.2
			c0.1-0.1,0.8,0,0.8-0.1c0.2,0,0.5,0,0.5,0.1c0,0-0.1,0-0.2,0l0.2,0c0,0,0,0,0,0c0.2,0,0.2-0.1,0.4,0c0,0-0.1,0-0.2,0
			c0.5,0,0.9-0.2,1.3-0.1c0.1-0.1,0.7-0.1,0.6-0.2c0.2,0,0.1,0.1,0.5,0.1c0.3-0.1,0.5,0,0.8,0c-0.4,0.1,0,0-0.4,0.1
			c0.3,0,0.7-0.1,1.3-0.1c0.1,0,0.1,0.1,0.1,0.1c0.2,0,0.4-0.1,0.6,0l0-0.1c0.3,0,0.8,0,1.2,0.1l0.4-0.1c0.5,0.1,1.3,0,1.7-0.1
			l-2.1,0c0,0-0.1,0-0.1,0c-0.3,0-0.4,0-0.5,0l-1.2,0c0.1,0,0.5,0,0.2,0.1c-0.8,0-0.6,0.1-1.4,0.1c-0.4-0.1,0.7,0,0.1-0.1
			c0.3,0,0.5-0.1,0.7-0.1l-3,0c0.4,0,0.7-0.1,1.2-0.1c0.3,0-0.3,0.1,0.1,0.1c0.7-0.1,1.4-0.1,2.1-0.1c-0.1,0-0.2,0.1-0.4,0.1l0.4,0
			c0,0,0,0,0,0c0.3-0.1,0.7,0,0.8-0.1c0.2,0.1,0.2,0.1,0.4,0.1l0.6,0c0.1-0.1-0.2-0.1,0.4-0.1c0.3,0.1,0.4,0,0.8,0
			c-0.1,0-0.2,0-0.2,0c0.8,0.1,0.1,0,0.8,0c0.1-0.3,1.4,0,1.6-0.2c-0.1,0.1,0.7,0,0.4,0.1c0.5-0.1,1.1,0,1.5-0.1
			c0.6,0.2,1.9-0.2,2,0.1c0.3,0,0.5-0.1,0.9-0.1c-0.1,0-0.1,0.1,0.1,0.1c0.4,0,0.7-0.1,1.2-0.1c0.4,0,0.3,0.2,0.8,0.1l0.1,0
			c0.4,0.1,0,0.1-0.3,0.2l0.8,0c-0.1,0-0.2,0-0.2,0c0.3,0,0,0,0.1-0.1c0.6-0.2,1,0,1.8-0.1c0,0-0.2,0,0,0.1c0.3,0,0.6-0.1,0.7,0
			c-0.1,0-0.3,0-0.3,0c0.3,0,0.6,0,0.9,0l-0.1,0c0.1,0,0.2,0,0.3,0l0-0.1c0.5,0.1,1-0.1,1.4,0L75.4,51c0.9-0.2,1.2,0.1,2.3-0.2
			l-0.3,0.1c1.6-0.3,3.3-1.2,4.4-2.4l0.6-0.7l-0.2,0.9c-0.1,0.4-0.2,0.8-0.4,1.1c-0.3,0.2,0.2-0.5,0.2-0.9c0,0.1,0.1,0,0.1-0.2
			l0.1-0.5l-0.4,0.4c-0.1,0.1-0.2,0.2-0.3,0.2c0,0-0.1,0.1-0.2,0.2c-0.1,0.1-0.2,0.2-0.2,0.2c-0.1,0,0.1-0.2,0.1-0.3
			c-0.3,0.2-0.4,0.4-0.5,0.6l0,0c-0.5,0.4-1.1,0.6-1.4,0.8l0.1,0c-0.5,0.2-1,0.3-1.5,0.5c0,0.1-0.4,0.2-0.5,0.2
			c0.3,0,0.1-0.1,0.4-0.1c-0.3,0.1-0.9,0.2-1.4,0.2c-0.5,0-1,0-1.1-0.1c-0.2,0.1,0,0.1,0,0.1l0.2,0c3.1,0.2,5.3-1.4,6.3-2.4
			c-0.2,0.8-0.6,1.4-0.7,1.4c-0.1,0.1-0.1,0.1-0.1,0.2c0,0.4,0.6,1.6,0.8,2.1c0.3,0.8,2.2,1.5,3.7,1.9c-0.2,0-0.4,0.1-0.5,0.1
			c-0.2,0.1-0.4,0.1-0.6,0.2c-0.2,0-0.3,0-0.4,0C83.9,54.6,83.6,54.7,83.4,54.7z"/>
		<path id="XMLID_3139_" class="st2" d="M62.1,39.9C62.1,39.9,62.2,40,62.1,39.9C62.2,40,62.2,40,62.1,39.9
			C62.2,40,62.1,39.9,62.1,39.9C62.2,39.9,62.2,40,62.1,39.9C62.2,40,62.2,40,62.1,39.9C62.2,39.9,62.2,40,62.1,39.9
			c0.1,0.1,0.2,0.1,0.3,0c0,0,0,0.1-0.1,0.1c0,0,0,0,0,0c0,0,0,0,0,0c0.1-0.1,0.1,0.1,0.1,0.1l0,0c0,0,0,0,0,0c0,0,0.1,0,0.1,0
			l-0.1,0c0.1,0,0,0,0.1,0.1c0,0-0.1,0-0.1,0c0,0,0,0,0,0v0.1c0,0-0.1,0,0-0.1c-0.1,0-0.2,0-0.2,0c0,0,0.1,0,0.1,0c0,0,0,0,0.1,0
			c0,0,0-0.1,0-0.1c0,0,0,0,0,0l0,0c0,0,0,0,0,0c-0.1,0-0.1,0-0.2,0.1l0,0c0,0,0,0-0.1,0c0.1,0,0,0,0,0l0,0c0.1,0,0.1,0,0.1,0
			c-0.1,0-0.1,0-0.1,0c0,0,0.1,0,0.1,0c-0.1,0-0.1,0-0.2,0c0.1,0,0,0,0.1,0c0,0,0,0,0,0c0,0,0,0,0,0l0,0c0,0,0,0,0,0c0,0,0.1,0,0,0
			c0,0,0,0,0,0c0,0,0.2,0,0.1,0.1c0.1,0,0.1,0,0.2,0c0,0-0.1,0-0.1,0c0.1,0,0,0,0,0c-0.1,0,0,0-0.1,0c0,0,0.1,0,0.1,0.1
			c0,0-0.1,0-0.1,0c0,0,0.1,0,0,0l0.1,0c0,0,0,0-0.1,0.1l0.1,0c-0.1,0,0,0.1,0.1,0.1v-0.1c0,0,0,0,0,0c0,0,0,0,0,0v-0.1
			c0,0,0,0-0.1,0c0,0-0.1,0-0.1-0.1c0.1,0,0,0,0.1,0c0,0,0.1,0,0.1,0v-0.1c0,0,0.1,0,0.1,0.1c0,0-0.1,0-0.1,0c0.1,0,0.1,0.1,0.1,0.1
			c0,0-0.1,0-0.1,0v0l0,0c0.1,0,0,0,0.1,0c-0.1,0-0.1,0-0.1,0v0c0.1,0,0.1,0,0.1,0c-0.1,0,0,0,0,0c0,0,0,0,0,0c-0.1,0,0,0,0,0
			c0.3,0,0,0.1,0.2,0.1c-0.1,0,0,0-0.1,0c0.1,0,0,0.1,0.1,0.1c-0.2,0,0.2,0.1-0.1,0.1c0,0,0.1,0,0.1,0c0,0-0.1,0-0.1,0
			c0,0,0.1,0,0.2,0.1c0,0-0.2,0-0.1,0l0,0c-0.1,0-0.1,0-0.2,0v0c0,0,0,0,0,0c0,0,0,0,0.1,0c0.2,0,0.1,0,0.1,0.1c0,0,0,0-0.1,0
			c0,0,0.1,0,0,0c0,0,0,0,0,0c0,0,0,0,0,0l0,0c0,0,0,0,0,0l0.1,0c-0.1,0,0.1,0,0,0.1l-0.1,0c0.2,0,0,0.1,0.1,0.1l-0.1,0
			c0.1,0.1,0.1,0.1,0.1,0.2c0,0.1-0.1,0.2-0.1,0.3c-0.1-0.1,0-0.1-0.1-0.1c0.1,0.1,0,0,0.1,0l-0.1-0.1c0.1,0,0.1,0,0.1,0.1
			c0,0-0.1-0.1-0.1-0.1l0,0c0-0.1,0.1-0.1,0-0.1l-0.1,0c0.1,0,0.1-0.1,0-0.1c-0.1,0-0.1,0-0.1,0c0,0,0.1,0,0.1,0
			c-0.1,0-0.1-0.1,0-0.1c-0.1,0-0.1,0-0.1,0v0.2c0,0.1,0,0.1-0.1,0.2c-0.1,0.1-0.2,0.2-0.3,0.2c0,0,0,0,0,0c0,0,0,0.1,0,0.1
			c0-0.1,0-0.1,0-0.1c0,0,0,0,0,0c0,0,0,0,0,0l0,0l0-0.1c0,0,0,0,0,0l0,0l0,0l0,0c0,0,0,0,0,0c0,0,0,0,0,0c0,0,0,0,0,0c0,0,0,0,0,0
			c0,0,0,0,0,0c0,0,0,0,0,0c0,0,0,0,0,0c0,0,0,0,0,0c0,0,0,0,0,0c0,0,0,0,0,0c0,0-0.1-0.1-0.1-0.2c0,0,0-0.1,0-0.1v-0.6c0,0,0,0,0,0
			c0,0,0,0,0,0v0c0,0,0,0,0,0c0,0,0,0,0,0V41c0,0,0,0,0,0l0,0c0,0,0,0,0,0v0c0,0,0,0,0,0c0,0,0,0,0,0v0c-0.1,0-0.1-0.1-0.1-0.1
			l0.1,0v0c0,0-0.1,0-0.1,0c0,0,0-0.1,0.1-0.1c0,0,0,0,0,0v0c0,0,0,0,0,0c0,0,0,0,0,0v-0.1l0,0c0,0,0,0-0.1,0l0,0c0-0.1,0-0.1,0-0.2
			l0.1,0c0,0,0,0,0,0v0c0,0-0.1,0-0.1,0c0,0-0.1,0,0,0c0.1,0,0.1,0,0.1,0v0c0,0-0.1,0-0.2,0c0.1,0,0-0.1,0-0.1c0,0,0.1,0,0.1,0l0,0
			l0,0c0.1,0,0.1,0,0,0l0,0c0,0,0,0,0,0c0,0,0.1,0,0.1,0c0,0,0-0.1,0.1-0.1l-0.1,0C62,40.1,62,39.9,62.1,39.9l0,0.1l0,0
			C62.1,39.9,62.1,39.9,62.1,39.9z"/>
		<path id="XMLID_3138_" class="st2" d="M62.5,40.4C62.5,40.4,62.5,40.4,62.5,40.4L62.5,40.4C62.5,40.4,62.6,40.4,62.5,40.4
			c0.1,0,0,0.1,0.1,0.1L62.5,40.4C62.5,40.5,62.5,40.5,62.5,40.4L62.5,40.4C62.5,40.4,62.5,40.4,62.5,40.4z"/>
		<path id="XMLID_3137_" class="st2" d="M62.9,43C62.9,42.9,62.9,42.9,62.9,43C62.9,42.9,62.9,43,62.9,43L62.9,43c0.1,0,0.1,0,0.1,0
			C62.9,43,62.9,43,62.9,43L62.9,43c0.1,0,0,0.1,0.1,0.1c0,0.1,0.1,0.2,0.1,0.2c0,0-0.1,0.1-0.1,0.1l0,0.1c0,0,0,0,0,0
			c0.2,0,0.1,0.1,0.2,0.2l0,0l0,0c0,0,0.1,0,0.1,0l-0.1,0c0.1,0,0.1,0.1,0.1,0.1c0,0,0,0,0,0c0,0,0,0,0,0c0,0-0.1,0-0.1,0l0,0l0,0.1
			c0,0-0.1-0.1,0-0.1l-0.1,0c-0.1,0-0.1,0-0.2,0c0,0,0.1,0,0.1,0c0,0,0,0,0.1,0l-0.1-0.1c0,0-0.1,0,0,0l0,0l0,0
			c-0.1,0-0.1,0-0.2,0.1l0.1,0c0,0,0,0-0.1,0c0.1,0,0,0.1,0.1,0.1l0,0c0.1,0,0.1,0,0.1,0c-0.1,0-0.1,0-0.1,0.1c0,0,0.1,0,0.1,0
			c0,0,0,0,0,0c-0.1,0-0.1,0-0.2,0c0.1,0,0,0,0.1,0c0,0,0,0-0.1,0c0,0,0,0,0,0l0,0c0,0,0,0,0,0c0,0,0.1,0,0,0c0,0,0,0,0,0
			c0,0,0.2,0.1,0,0.1c0,0,0,0.1,0.2,0.1c0,0-0.1,0-0.1,0c0.1,0,0,0,0,0.1c-0.1,0,0,0-0.1,0c0,0,0.1,0.1,0.1,0.1c0,0-0.1,0-0.1,0
			c0,0,0.1,0,0,0l0.1,0c0,0,0,0.1-0.1,0.1l0.1,0.1c-0.1,0,0,0.1,0.1,0.1l0-0.2c0,0,0,0,0,0c0,0,0,0,0,0l0-0.1c0,0,0,0-0.1,0
			c0-0.1-0.1-0.1-0.1-0.1c0.1,0,0,0.1,0.1,0c0,0,0,0,0.1,0.1l0-0.2c0,0,0.1,0.1,0.1,0.1c0,0-0.1,0-0.1,0c0,0.1,0.1,0.1,0,0.2
			c0,0-0.1,0-0.1,0l0,0l0,0c0.1,0,0,0.1,0.1,0.1c-0.1,0-0.1,0-0.1,0l0,0c0.1,0,0.1,0,0.1,0c-0.1,0,0,0,0,0.1c0,0,0,0,0,0
			c-0.1,0.1,0,0-0.1,0.1c0.2,0.1-0.1,0.1,0.1,0.2c-0.1-0.1,0,0.1-0.1,0c0.1,0.1,0,0.1,0,0.2c-0.1-0.1-0.1,0,0,0.1c0,0,0,0.1-0.2-0.1
			c0,0,0.1,0.1,0,0.1c0,0,0-0.1,0-0.1c-0.1,0,0,0.1-0.1,0.2c-0.1,0-0.1-0.2-0.1-0.1l0,0c0-0.1,0-0.1,0-0.2l-0.1,0c0,0,0,0,0,0
			c0,0,0,0,0,0.1c0,0.2-0.1,0.1-0.1,0.1c0,0,0,0,0-0.1c0,0,0,0.1-0.1,0c0,0,0,0,0,0c0,0,0,0-0.1,0l0,0c0,0,0,0,0,0l0,0.1
			c0-0.1-0.1,0.1-0.1,0l0-0.1c-0.1,0.2-0.1,0-0.2,0.1l0-0.1c-0.2,0.1-0.3,0-0.5,0.1c0-0.2,0,0,0.1-0.2c0,0.1,0,0,0,0.1l0-0.1
			c0,0.1,0,0.1,0,0.1c0,0,0-0.1,0.1-0.1l0,0c0.1-0.1,0.1,0.1,0.1,0l0-0.1c0,0.1,0.1,0.1,0.1,0c0-0.1,0-0.1,0-0.1c0,0,0,0.1,0,0.1
			c0.1-0.1,0.2-0.1,0.2,0c0-0.1,0-0.1,0-0.1l-1.2,0l0,0c0,0-0.1,0-0.1,0c0,0,0.1,0,0.1,0l0,0c0,0,0,0,0,0l0,0l0,0l0,0l0,0h0l0,0
			c0,0,0,0,0,0c0,0-0.1,0,0,0c0,0,0,0,0,0l0-0.1c0,0,0,0,0,0c0,0,0,0,0,0l-0.2-1.1l0.1-0.3c0,0,0,0,0,0c0,0,0,0,0,0l0-0.1
			c0,0,0,0,0,0c0,0,0,0,0,0l0-0.1c0,0,0-0.1,0-0.1l0,0c0,0,0,0,0,0l0-0.1c0,0,0,0,0,0c0,0,0,0,0,0l0,0c0,0,0-0.1,0-0.1
			c0,0,0.1,0,0.1,0l0,0.1l0,0c0,0,0-0.1,0-0.1c0,0,0.1,0,0.1,0.1c0,0,0,0,0,0l0,0c0,0,0,0,0,0c0,0,0,0,0,0l0.1,0v0c0,0,0,0,0.1-0.1
			l0,0c0.1,0,0.2,0,0.3,0l0,0.1c0,0,0,0,0,0l0,0c0,0,0-0.1,0-0.1c0,0,0-0.1,0,0c0,0.1,0,0.1,0,0.1l0,0c0,0,0-0.1,0-0.1
			c0,0.1,0.1,0,0.1,0c0,0,0,0.1,0,0.1h0l0,0c0,0,0,0.1,0,0.1l0,0c0,0.1,0,0.1,0,0.2c0.1-0.2,0,0.2,0.1,0.1c0,0,0-0.1,0-0.1
			c0,0,0-0.1,0.1,0c0,0,0,0.1,0,0c0,0.1,0,0,0,0.1c0,0,0,0,0-0.1c0.1,0,0-0.1,0.1,0c0,0,0,0,0-0.1c0,0.1,0,0.1,0,0.2
			c0,0,0-0.1,0-0.2l-0.2,0l0,0c-0.1-0.1-0.1,0.2-0.2,0l0,0.1c0,0,0-0.1,0-0.1l0,0c0,0,0,0,0,0l0,0c0,0,0,0,0.1,0c0,0,0,0.1,0,0.1
			l0.2,0l0-0.1c0.1,0.1,0.2,0,0.4,0c0,0,0,0,0.1,0L62.9,43L62.9,43z"/>
		<path id="XMLID_3136_" class="st2" d="M63.1,41.3C63.1,41.3,63.1,41.3,63.1,41.3L63.1,41.3C63.1,41.3,63.1,41.2,63.1,41.3
			C63.1,41.2,63.1,41.2,63.1,41.3L63.1,41.3c0-0.1,0-0.1,0-0.1l0,0C63.1,41.2,63.1,41.2,63.1,41.3l0.1-0.1c0,0,0,0,0,0c0,0,0,0,0,0
			l0,0c0-0.1,0-0.1,0-0.1c0,0,0,0,0,0.1l0,0c0,0,0-0.1,0-0.1c0,0,0-0.1,0,0c0,0,0,0,0,0l0,0c0,0,0,0,0,0c0,0,0,0,0,0l0,0l0,0
			c0,0,0-0.1,0-0.1l0,0c0-0.1,0.1-0.2,0.1-0.2l0,0.1c0,0,0,0,0,0c0,0,0,0,0,0c0-0.1,0-0.1,0-0.2c0,0,0-0.1,0,0c0,0.1,0,0.1,0,0.2
			c0,0,0,0,0,0c0-0.1,0-0.1,0-0.2c0,0.1,0,0,0,0c0,0,0,0.1,0,0.1l0,0l0,0c0,0,0,0.1,0,0.1c0,0,0,0,0,0c0,0,0,0,0,0l0,0c0,0,0,0,0,0
			c0,0,0,0.1,0,0.1c0,0,0,0,0.1,0l0-0.1c0,0.1,0.1-0.1,0.2-0.1l0,0.1c0,0,0,0,0,0c0-0.1,0-0.1,0-0.1c0,0,0,0.1,0,0.1c0,0,0,0,0,0
			c0-0.1,0-0.1,0-0.1c0,0,0,0.1,0,0.1c0,0,0,0,0,0c0-0.1,0,0,0.1-0.1c0,0.1,0.1,0.1,0.1,0c0,0,0,0.1,0,0.1c0,0,0,0,0,0c0,0,0,0,0,0
			c0,0,0,0,0,0c0.1-0.1,0.1,0,0.1,0.1l0,0c0,0,0,0,0,0c0,0,0,0,0,0c0,0,0.1-0.1,0.1,0L64,40.8c0.1-0.1,0,0,0.1,0c0,0,0,0-0.1,0.1
			c0,0,0,0,0,0c0,0,0,0,0,0c0,0,0,0,0,0c0,0,0,0,0,0c0,0-0.1,0.1,0,0L64,41c-0.1,0.1,0.1-0.1,0.1,0c0,0-0.1,0-0.1,0.1c0,0,0.1,0,0,0
			c0,0-0.1,0-0.1,0.1l0,0l0,0c0.1,0,0,0,0.1-0.1c-0.1,0.1-0.1,0.1-0.1,0.1l0,0c0.1,0,0.1-0.1,0.1-0.1c-0.1,0.1,0,0,0,0c0,0,0,0,0,0
			c-0.1,0.1,0,0-0.1,0.1c0.3-0.2-0.1,0.1,0.2-0.1c-0.1,0.1,0,0-0.1,0.1c0.1,0,0,0,0.1,0c-0.2,0.1-0.1,0.1,0,0.1c0,0,0,0-0.2,0.1
			c0,0,0.2-0.1,0.2,0c0,0-0.1,0-0.1,0c-0.1,0,0.2,0,0.2,0c0,0-0.2,0.1-0.1,0.1l0,0c-0.1,0-0.2,0-0.2,0l0,0c0,0,0,0,0,0
			c0,0,0.1,0,0.1,0c0.2,0,0,0,0.1,0.1c0,0,0,0-0.1,0c0,0,0.1,0,0,0c0,0,0,0,0,0c0,0-0.1,0,0,0l0,0c0,0,0,0,0,0l0.1,0
			c-0.2,0,0.1,0.1,0,0.1l-0.1,0c0.2,0.1,0,0.1,0.1,0.2l-0.1,0c0,0,0,0,0,0.1c0,0.1-0.1,0.2-0.2,0.3c-0.1-0.1,0-0.1,0-0.2
			c0,0.1,0,0,0.1,0l0-0.1c0,0,0,0.1,0.1,0.1c0,0-0.1-0.1-0.1-0.1l0,0c0-0.1,0.1,0,0.1-0.1l-0.1,0c0.1,0,0.1,0,0.1,0
			c-0.1,0-0.1-0.1-0.1-0.1c0,0,0.1,0,0.1,0c-0.1-0.1-0.1-0.1,0-0.1c0,0-0.1,0-0.1,0l0,0.1c-0.1,0.1-0.2,0.2-0.3,0.2c0,0,0,0-0.1,0
			c0,0,0,0,0,0c0,0,0,0.1,0,0.1c0-0.1,0-0.1,0-0.1c0,0,0,0,0,0c0,0,0,0,0,0c0,0,0,0,0,0l0,0l0,0c0,0,0,0,0,0l0,0l0,0c0,0,0,0,0,0
			c0,0,0,0,0,0c0,0,0,0,0,0c0,0,0,0,0,0c0,0,0,0,0,0c0,0,0,0,0,0c0,0,0,0,0,0c0,0,0,0,0,0c-0.1-0.1-0.1-0.2-0.1-0.3L63.1,41.3
			C63.1,41.3,63.1,41.3,63.1,41.3z"/>
		<path id="XMLID_3135_" class="st2" d="M63.2,40.8C63.3,40.9,63.3,40.9,63.2,40.8C63.3,40.9,63.3,40.8,63.2,40.8z"/>
		<path id="XMLID_3134_" class="st2" d="M63.5,42.4c0-0.1-0.1,0-0.2,0c0,0,0,0,0,0l0,0c0,0,0,0,0,0c0,0,0-0.1,0-0.1c0,0,0,0-0.1,0.1
			c0,0,0,0,0,0c0,0,0,0,0,0c0,0,0,0,0,0l0,0l0,0l0,0l0,0l0,0l0,0l0,0l0-0.1l0,0.1l0,0l0,0l0,0l0,0l0,0l0,0c0,0,0,0,0,0
			c0,0,0-0.1,0-0.1c0,0,0,0,0,0c0,0,0,0.1,0,0.1c0,0,0.1-0.1,0-0.1c0,0.1,0.1,0,0.1-0.1C63.4,42.2,63.4,42.4,63.5,42.4
			c-0.1-0.1-0.1-0.2-0.1-0.2c0,0,0,0,0,0c0,0.1,0,0,0.1,0L63.5,42.4c0,0-0.1-0.3,0-0.2l0,0.1l0,0l0,0c0,0,0-0.1,0,0
			C63.6,42.3,63.6,42.2,63.5,42.4l0-0.1C63.5,42.3,63.5,42.4,63.5,42.4z"/>
		<polygon id="XMLID_3133_" class="st2" points="63.2,42.1 63.2,42 63.2,42.1 		"/>
		<path id="XMLID_3132_" class="st2" d="M63.6,42.1L63.6,42.1C63.6,42.2,63.6,42.2,63.6,42.1c0.1,0.1,0,0.1,0,0.1
			C63.6,42.2,63.6,42.1,63.6,42.1z"/>
		<path id="XMLID_3131_" class="st2" d="M63.2,43.9C63.3,43.9,63.3,43.9,63.2,43.9L63.2,43.9C63.3,43.9,63.3,43.9,63.2,43.9
			c0.1,0.1,0,0.1,0.1,0.1l-0.1,0c0,0,0,0,0,0L63.2,43.9C63.3,43.9,63.2,43.9,63.2,43.9z"/>
		<path id="XMLID_3130_" class="st2" d="M61.8,45.1C61.8,45.1,61.8,45.1,61.8,45.1c0,0,0-0.1,0-0.1L61.8,45.1
			C61.8,45.1,61.8,45.1,61.8,45.1z"/>
		<path id="XMLID_3129_" class="st2" d="M61.3,45.2c0,0,0-0.1,0-0.2c0,0,0,0,0,0C61.3,45.1,61.3,45.1,61.3,45.2
			c0.1-0.1,0.1-0.1,0.1-0.2c0,0.1,0.1,0,0.2,0c0,0,0,0.2,0,0.1c0,0,0-0.1,0-0.1c0,0,0,0,0,0c0,0.1,0.1,0,0.1,0l0,0.1
			c0.1,0.1,0-0.2,0.1-0.1l0,0.1l0,0l0,0c0,0,0-0.1,0,0c0,0.1,0,0-0.1,0.1l0-0.1c0,0,0,0.1-0.1,0.1c0-0.1-0.1,0-0.2,0c0,0,0,0,0,0
			l0,0l0,0c0,0,0-0.1,0-0.1C61.4,45.1,61.3,45.3,61.3,45.2z"/>
		<polygon id="XMLID_3128_" class="st2" points="61.3,44.8 61.2,44.8 61.2,44.8 		"/>
		<path id="XMLID_3127_" class="st2" d="M61,42.3L61,42.3L61,42.3L61,42.3C61,42.3,61,42.3,61,42.3C61,42.3,61,42.3,61,42.3
			C61,42.3,61,42.3,61,42.3C61,42.3,61,42.3,61,42.3C61,42.3,61,42.3,61,42.3C61,42.3,61,42.3,61,42.3C61,42.3,61,42.3,61,42.3
			C61,42.2,60.9,42.2,61,42.3c-0.1,0-0.1,0-0.1,0C60.9,42.2,60.9,42.2,61,42.3c-0.2-0.1-0.2-0.1-0.2-0.2l0,0l-0.2-0.6c0,0,0,0,0,0
			c0,0,0,0,0,0l0,0c0,0,0,0,0,0c0,0,0,0,0,0l0-0.1c0,0,0,0,0-0.1l0,0c0,0,0,0,0,0l0,0c0,0,0,0,0,0c0,0,0,0,0,0l0,0
			c0,0,0-0.1-0.1-0.1c0,0,0,0,0-0.1c0,0,0,0,0.1,0.1l0,0c0,0-0.1-0.1-0.1-0.1c0,0,0-0.1,0,0c0,0,0,0,0,0c0,0,0,0,0,0l0,0
			c0,0,0,0,0,0c0,0,0,0,0,0l0,0l0,0c0,0,0,0-0.1-0.1l0,0c0-0.1-0.1-0.2,0-0.2l0,0.1c0,0,0,0,0,0c0,0,0,0,0,0c0-0.1,0-0.1-0.1-0.1
			c0,0,0-0.1,0,0c0,0.1,0.1,0.1,0.1,0.1c0,0,0,0,0,0c0-0.1-0.1-0.1-0.1-0.2c0.1,0,0,0,0-0.1c0,0,0,0.1,0,0.1l0,0l0,0c0,0,0,0,0,0.1
			c0,0,0,0,0,0c0,0,0.1,0.1,0.1,0.1c0.1,0.1,0.1,0.2,0.2,0.3c-0.3-0.5,0.3,0.5,0.2,0.3c-0.1-0.2-0.1-0.3-0.2-0.4c0,0-0.1-0.2,0-0.1
			c0.1,0.2,0.1,0.2,0.1,0.2c0.2,0.3,0-0.1,0.1,0.2c0,0,0-0.1-0.1-0.2c0,0.1-0.1-0.3,0-0.1c0-0.1,0-0.1-0.1-0.3
			c0.1,0.3,0.1,0.3,0.2,0.5c0-0.1-0.2-0.4-0.3-0.6c0,0-0.1,0-0.1,0.1l0,0c-0.1-0.1,0.3,0.6,0,0.1l0.1,0.2c0-0.1-0.1-0.2-0.1-0.3
			c0,0,0,0,0,0c0,0,0,0,0,0c0,0,0,0,0,0l0,0c0,0,0,0,0,0c0,0,0,0.1,0,0.1c0,0,0,0,0.1-0.1l0-0.1c0.1,0,0.1-0.1,0.2-0.2
			c0,0,0,0.1,0,0.1c0,0,0,0,0,0c0-0.1,0-0.1,0-0.1c0,0,0,0.1,0,0.1c0,0,0,0,0,0c0,0,0,0,0,0c0-0.1,0-0.1,0-0.1c0,0,0,0.1,0,0.1
			c0,0,0,0,0,0c0-0.1,0,0,0-0.1c0.1,0.1,0.1,0,0.1,0c0,0,0,0.1,0,0.1c0,0,0,0,0,0c0,0,0,0,0,0c0,0,0,0,0,0c0-0.1,0.1,0,0.1,0.1
			l0,0.1c0,0,0,0,0,0c0,0,0,0,0,0c0,0,0-0.1,0-0.1l0,0.1c0-0.1,0,0,0,0c0,0,0,0,0,0.1l0,0.1c0,0,0,0,0,0c0,0,0,0,0,0l0,0
			c0,0,0,0,0-0.1c0,0,0,0.1,0,0l0,0.1c0,0,0,0,0,0l0-0.1c0,0,0,0.1,0,0.1c0-0.1,0-0.1,0-0.1l0,0c0,0,0,0,0,0c0,0.1,0,0.2,0,0
			c0,0.3,0,0.5,0,0.5c0-0.1,0-0.2,0-0.3c0,0.1,0-0.1,0-0.2l0,0c0,0,0,0,0,0c0,0.1,0,0.2,0,0l0,0c0,0,0,0,0,0c0,0.3,0,0.3,0,0.6
			l0-0.2c0,0.1,0,0.1,0,0.2c0-0.4,0,0.2,0,0l0-0.1c0-0.2,0-0.2,0-0.2c0,0.2,0,0.2,0,0.3c0-0.1,0-0.4,0-0.4c0,0.3,0,0.2,0,0.4
			c0-0.3,0-0.1,0-0.3c0-0.1,0,0,0,0.1c0,0,0,0,0,0l0,0c0,0,0,0.1,0,0.1c0,0,0-0.2,0-0.1c0,0.1,0,0.1,0,0.1c0,0.1,0-0.4,0-0.1
			c0-0.1,0-0.1,0-0.4c0,0.1,0,0.3,0,0.3c0-0.2,0,0.1,0,0c0,0,0,0,0,0.1c0,0,0,0.1,0-0.1c0-0.1,0-0.1,0-0.1l0-0.1c0,0,0-0.1,0,0
			c0,0,0,0.1,0,0.1c0,0,0,0,0,0c0,0,0,0.1,0,0.1l0,0l0,0c0-0.1,0,0,0.1-0.1c0,0.1,0,0.1,0,0.2l0,0c0-0.1,0-0.1,0-0.1c0,0.1,0,0,0,0
			c0,0,0,0,0,0c0,0.1,0,0,0,0.1c0.1-0.2,0,0.1,0.1-0.1c-0.1,0.1,0,0,0,0.1c0,0,0,0,0.1,0c-0.1,0.2,0.2-0.1,0,0.2
			c0,0,0.1-0.1,0.1-0.1c0,0-0.1,0-0.1,0.1c0,0,0.1,0,0.1,0c0,0-0.1,0.1-0.1,0.1l0,0c0,0.1-0.1,0.1-0.1,0.1l0,0.1c0,0,0,0,0,0
			c0,0,0,0,0.1,0c-0.1,0,0.1-0.1,0,0l0,0c-0.1,0-0.1,0-0.1,0c0,0,0,0,0.1,0c0.2-0.1,0.1,0,0.1,0c0,0,0,0-0.1,0c0,0,0,0,0,0
			c0,0,0,0,0,0c0,0,0,0,0,0l0,0c0,0,0,0,0,0l0,0c-0.1,0.1,0.1,0,0.1,0.1l-0.1,0c0.3,0,0,0.1,0.1,0.1l-0.1,0c0.2,0.2,0,0.3,0,0.4
			c-0.1-0.1,0-0.1-0.1-0.1c0.1,0.1,0,0,0.1,0l-0.1-0.1c0.1,0,0.1,0,0.1,0.1c0,0-0.1-0.1-0.1-0.1h0c0-0.1,0.1,0,0-0.1l-0.1,0
			c0.1,0,0.1,0,0-0.1c-0.1,0-0.1,0-0.1,0c0,0,0.1,0,0.1,0c-0.1,0-0.1-0.1,0-0.1c-0.1,0-0.1,0-0.1,0l0,0c0.1,0.2-0.1,0.3-0.3,0.4
			c0,0-0.1,0-0.1,0C61.1,42.3,61.1,42.3,61,42.3c0.1,0.1,0.1,0.1,0,0.1C61.1,42.3,61.1,42.3,61,42.3C61.1,42.3,61.1,42.3,61,42.3
			C61,42.3,61,42.3,61,42.3L61,42.3L61,42.3C61,42.3,61,42.3,61,42.3z"/>
		<path id="XMLID_3126_" class="st2" d="M60.4,41C60.5,41,60.5,41.1,60.4,41C60.5,41,60.4,41,60.4,41z"/>
		<path id="XMLID_3125_" class="st2" d="M61.7,40.6C61.8,40.6,61.8,40.6,61.7,40.6C61.8,40.6,61.7,40.6,61.7,40.6z"/>
		<path id="XMLID_3124_" class="st2" d="M61.7,42.6C61.8,42.7,61.8,42.7,61.7,42.6C61.7,42.7,61.7,42.7,61.7,42.6z"/>
		<path id="XMLID_3123_" class="st2" d="M61.5,42.5c-0.1,0-0.1,0-0.2,0.1c0,0,0,0,0,0l0,0c0,0,0,0,0,0c0,0,0-0.1,0-0.1
			c-0.1,0-0.1,0.2-0.2,0.1c0,0,0-0.1,0-0.2c0,0,0,0,0,0c0,0,0,0.1,0,0.1c0,0,0.1-0.1,0-0.1c0,0.1,0.1,0,0.1-0.1c0,0,0.1,0.2,0.1,0.1
			c0,0,0-0.1,0-0.1c0,0,0,0,0,0c0.1,0.1,0,0,0.1,0L61.5,42.5c0,0-0.1-0.2,0-0.2l0,0.1l0,0l0,0c0,0,0-0.1,0,0
			C61.6,42.4,61.5,42.4,61.5,42.5l0-0.1C61.5,42.4,61.5,42.5,61.5,42.5z"/>
		<polygon id="XMLID_3122_" class="st2" points="61.1,42.4 61.1,42.3 61.1,42.3 		"/>
		<path id="XMLID_3121_" class="st2" d="M61.5,42.3L61.5,42.3C61.6,42.3,61.6,42.4,61.5,42.3c0.1,0.1,0.1,0.1,0.1,0.1
			C61.6,42.4,61.5,42.3,61.5,42.3z"/>
		<path id="XMLID_3120_" class="st2" d="M62.2,42.3C62.2,42.2,62.2,42.3,62.2,42.3c0,0.1,0,0.1,0,0.1C62.3,42.4,62.3,42.3,62.2,42.3
			c0.1,0.1,0.2,0,0.2-0.1c0.1,0,0.1,0.2,0.1,0.1c0,0,0-0.1,0-0.1c0,0,0,0,0,0c0.1,0,0.1,0,0.1,0l0.1,0.1c0.1,0-0.1-0.2,0-0.1l0,0
			l0,0l0,0c0,0,0-0.1,0,0c0.1,0.1,0,0.1,0,0.1l-0.1,0c0,0,0.1,0.1,0,0.1c-0.1,0-0.1,0.1-0.2,0.1c0,0,0,0,0,0l0,0c0,0,0,0,0,0
			c0,0,0-0.1,0-0.1c-0.1,0-0.1,0.2-0.2,0.2C62.2,42.4,62.2,42.3,62.2,42.3z"/>
		<path id="XMLID_3119_" class="st2" d="M62.6,42L62.6,42C62.7,42.1,62.7,42.1,62.6,42c0.1,0.1,0.1,0.1,0.1,0.1
			C62.6,42.1,62.6,42,62.6,42z"/>
		<polygon id="XMLID_3118_" class="st2" points="62.2,42.2 62.2,42.1 62.2,42.1 		"/>
		<path id="XMLID_3117_" class="st2" d="M57,45.1c-0.1,0-0.1,0-0.2,0l0,0c-0.3-0.1-0.7-0.1-1-0.2c0,0,0,0,0,0c0,0,0,0,0,0
			c-0.1,0-0.2,0-0.3-0.1c-0.2,0-0.4-0.1-0.6-0.2c0,0.1-0.4,0.1-0.6,0c-0.1-0.1,0-0.1,0-0.1c0.2,0.1,0.3,0.1,0.5,0.1
			c-0.3-0.1-0.6-0.2-0.9-0.3c-0.1,0-0.2,0-0.3-0.1l0,0c-0.1-0.1-0.3-0.1-0.4-0.2C53,44,52.9,44,52.8,44l0.2,0.1
			c-0.1,0,0.1,0.1,0,0.1c0.4,0,0.5,0.3,1,0.4l-0.2-0.1c0-0.1,0.1,0,0.3,0c0.1,0.1,0.2,0.1,0.4,0.2c0.2,0,0.3,0,0.6,0
			c-0.1,0.1,0.4,0.2,0.4,0.3c0.1-0.1,0.5,0.1,0.5,0c0.1,0,0.3,0.1,0.3,0.1c0,0-0.1,0-0.1,0l0.1,0c0,0,0,0,0,0c0.1,0,0.1,0,0.3,0
			c0,0-0.1,0-0.2,0c0.3,0.1,0.6-0.1,0.8,0.1c0.1,0,0.4,0,0.4-0.1c0.1,0.1,0,0.1,0.3,0.2c0.2-0.1,0.3,0.1,0.5,0c-0.3,0.1,0,0-0.3,0.1
			c0.2,0.1,0.5,0,0.8,0c0,0,0,0.1,0.1,0.1c0.1,0,0.3-0.1,0.4,0l0-0.1c0.2,0.1,0.5,0.1,0.8,0.2l0.3-0.1c0.3,0.1,0.8,0.1,1.1,0
			c0,0,0,0-0.1,0c-0.4,0-0.8,0-1.2-0.1c0,0,0,0-0.1,0c-0.2,0-0.3,0-0.3-0.1c-0.2,0-0.5,0-0.7-0.1c0.1,0,0.3,0.1,0.1,0.1
			c-0.5-0.1-0.4,0-0.9,0c-0.2-0.2,0.5,0.1,0.1-0.1c0.2,0,0.3,0,0.4,0C58.2,45.3,57.6,45.2,57,45.1c0.3,0,0.5,0,0.8,0.1
			c0.2,0-0.2,0,0.1,0.1c0.4,0,0.9,0.1,1.3,0.1c-0.1,0-0.2,0-0.2,0.1c0.1,0,0.2,0,0.2,0c0,0,0,0,0,0c0.2,0,0.5,0,0.5-0.1
			c0.1,0.1,0.1,0.1,0.2,0.1c0.1,0,0.3,0,0.4,0c0.1-0.1-0.1-0.1,0.2-0.1c0.2,0.1,0.3,0,0.5,0c0,0-0.1,0-0.1,0c0.5,0.1,0.1,0,0.5,0.1
			c0.1-0.2,0.9,0,1-0.2c-0.1,0.1,0.4,0,0.2,0.1c0.3-0.1,0.6,0,0.8-0.1c0,0,0.1,0,0.1,0c0.4,0.2,1.1-0.3,1.2,0.1
			c0.2,0,0.3-0.2,0.6-0.2c0,0,0,0.1,0.1,0.1c0.3,0,0.4-0.2,0.7-0.2c0.3,0,0.2,0.2,0.5,0l0.1,0c0.2,0,0,0.1-0.2,0.2
			c0.2,0,0.3,0,0.5-0.1c0,0-0.1,0-0.1,0c0.2,0,0,0,0-0.1c0.3-0.2,0.6-0.1,1.1-0.3c0,0-0.1,0.1,0,0.1c0.2,0,0.3-0.1,0.4-0.1
			c-0.1,0-0.2,0-0.2,0.1c0.2,0,0.4,0,0.6-0.1l0,0c0.1,0,0.1,0,0.2,0l0,0c0.3,0.1,0.6-0.2,0.9-0.3l0,0.1c0.4-0.4,0.8-0.2,1.3-0.5
			l-0.2,0.1c1.2-0.5,2.6-1.1,3.4-1.8c0.2,0-0.2,0.2-0.3,0.4c0.1-0.1-0.2,0.2-0.3,0.1l-0.3,0.3c0-0.1,0.1-0.1,0.1-0.2
			c-0.2,0.1-0.3,0.3-0.4,0.4l0,0c-0.4,0.2-0.7,0.3-0.9,0.4l0.1,0c-0.3,0.1-0.7,0.2-0.9,0.3c0,0.1-0.2,0.2-0.3,0.2
			c0.2,0,0.1-0.1,0.2-0.1c-0.4,0.2-1.3,0.5-1.5,0.5c-0.1,0.1,0,0.1,0,0.1c2.4-0.6,4.6-1.6,5.9-3.4c-0.1,0.7-0.3,1.5-0.7,2.3
			c-0.1,0.1,0,0.3,0.1,0.4c0,0,0.1,0.1,0.2,0.3c0.1,0.1,0.2,0.3,0.2,0.4c-0.1,0.2-0.1,0.3-0.1,0.3c0,0.1,0,0.2-0.1,0.4c0,0,0,0,0,0
			c0,0,0,0.2,0,0.2c0,0,0,0,0-0.1c0,0.1,0,0.1-0.1,0.2l0,0l0,0c0,0.1-0.1,0.2-0.2,0.4c0,0,0,0.1,0,0.1c0,0,0,0.1,0,0.1
			c0,0-0.1,0-0.1,0c-0.1,0-0.1,0-0.1,0c0,0,0,0,0,0c-0.2,0.1-0.4,0.1-0.6,0.2c0,0,0,0,0,0c0,0,0,0,0,0c-4.9,1.2-11.3,1-11.4,1
			c-0.1,0-0.2,0-0.3,0c-0.1,0-0.1,0-0.2,0c0,0,0,0,0,0c-0.2,0-0.3,0-0.5,0c-0.1,0-0.1,0-0.2,0c0,0,0,0,0,0c-0.2,0-0.5,0-0.7,0
			c-0.2,0-0.3,0-0.5,0l0.1,0c0,0,0,0,0,0c-0.2,0-0.4,0-0.6,0c0,0,0,0-0.1,0c0,0,0,0,0,0c-0.1,0-0.2,0-0.3,0c-0.4,0.1-1,0-1.4,0
			l0-0.1c-0.1,0-0.2,0-0.2,0c0,0-0.1,0.1-0.3,0.1c-0.3,0-0.6,0-0.9-0.1c0.1,0,0.1,0,0.1,0c-0.1,0-0.3,0-0.4,0c0,0,0,0-0.1,0
			c0,0,0,0,0,0c-0.2,0-0.5,0-0.7-0.1l0,0c-0.1,0-0.3,0-0.4,0l0.4,0c-0.8-0.1-1.8-0.2-2.5-0.4l0.2,0c0,0,0,0,0,0
			c-0.1,0-0.2,0-0.4-0.1c-0.1,0-0.3,0,0,0.1c-0.1,0-0.2,0-0.3,0c-0.1-0.1,0-0.1,0.1-0.1c-0.1,0-0.1,0-0.2,0c0,0.1,0.1,0.1,0,0.1
			c-0.4-0.2-0.6-0.1-0.9-0.2c0.1,0,0.1,0,0-0.1l0,0l0,0c0,0-0.1-0.1-0.1-0.1c0.1,0,0.2,0,0.3,0.1c0-0.1-0.3-0.2-0.4-0.3
			c-0.3,0-0.4-0.1-0.5-0.2c-0.1,0-0.1-0.1-0.2-0.1c-0.1,0-0.2-0.1-0.2-0.1c-0.1,0-0.1,0-0.1,0c0,0,0,0.1,0,0.1c-0.1,0-0.1,0-0.1-0.1
			c0,0,0-0.1,0-0.2c0,0,0.1,0.1,0.1,0.2c0.1,0-0.1-0.1,0-0.3c0,0,0,0.1,0,0c0-0.4-0.1-0.2,0-0.8c0-0.1,0-0.2-0.1-0.2
			c0.2-0.3,0.1-0.1,0.3-0.5c0,0-0.1,0.1-0.2,0.1c-0.2,0.5-0.2,1-0.2,1.4l0,0c0,0.1,0,0.2,0.1,0.3c0,0.1,0.1,0.2,0.2,0.2
			c0.2,0,0.4,0.1,0.5,0.2l0.2,0c0,0,0,0.1,0,0.1c0.1,0,0.2,0,0.2,0.1c0,0-0.1,0-0.1,0l0.2,0.1c-0.1,0-0.3-0.1-0.4-0.1
			c0.1,0,0.1,0,0.1-0.1c-0.3-0.1-0.6-0.2-0.8-0.3c0-0.2-0.1-0.3-0.1-0.5L50,45.6c0-0.6,0.1-1.2,0.2-1.7c0-0.1,0-0.2-0.1-0.4
			c-0.1-0.1-0.1-0.3-0.2-0.4c-0.1-0.3-0.2-0.5-0.3-0.8c0,0,0.1-0.1,0.1-0.1c0,0,0,0,0,0c-0.1-0.2-0.1,0-0.2-0.3c0,0,0.1,0,0.1,0
			c0-0.1,0-0.1,0-0.2c-0.1-0.1,0,0.3-0.1-0.2c0,0.1,0.1,0.1,0.1,0.1c0,0,0,0,0,0c-0.1-0.1-0.1-0.2-0.1-0.3c0-0.1,0-0.1,0-0.2
			c0-0.1,0,0-0.1-0.2c0,0,0.1,0.1,0.1,0.1c0.6,0.8,1.2,1.4,1.6,1.6c0.1,0.1,0.1,0.2,0,0.2c0.1,0.1,0.3,0.2,0.4,0.3c0,0,0,0,0,0
			c0.6,0.2,1.3,0.7,2,1l0,0c0.1,0,0.2,0.1,0.3,0.1c0.1,0,0.2,0,0.4,0l-0.1,0.1c0.2,0,0.6,0.2,0.9,0.2c-0.1,0-0.2,0-0.3,0
			c0.3,0.1,0.5,0.2,0.8,0.2c0.1,0,0.2,0,0.3,0.1c0,0,0,0,0,0c0,0,0,0,0-0.1c0.4,0,0.9,0.3,1.1,0.2l-0.1,0.1
			C56.9,45.1,56.9,45.1,57,45.1z"/>
		<path id="XMLID_3116_" class="st2" d="M78.6,44.7c-0.2,0.2-0.2,0.3,0,0.3c-0.1,0.1-0.2,0.1-0.3,0.2c0-0.1,0.1-0.2,0-0.2
			c-0.2,0.1-0.4,0.4-0.2,0.3c-0.1,0-0.3,0.2-0.6,0.3c-0.3,0.1-0.5,0.4-0.7,0.5c-0.4,0.1,0.1-0.3-0.3,0c0,0,0.1,0.1,0.1,0
			c0,0,0.1,0,0.1,0c-0.3,0.1-0.5,0.2-0.8,0.3l0-0.1c-0.5,0.1-0.3,0.3-0.7,0.4l0.1-0.1l-0.3,0.1l0-0.1c-0.1,0-0.2,0.1-0.2,0.1
			c-0.2-0.1,0.3-0.1,0.4-0.2l0.1,0c0.3-0.1,0.3-0.2,0.5-0.3c0.1,0,0.4-0.1,0.7-0.2c0.1-0.1,0.3-0.1,0.5-0.2c0.2-0.1,0.3-0.2,0.4-0.3
			c0,0,0,0,0.1-0.1l0.1,0c-0.1,0-0.1,0.1-0.2,0.1c0,0,0,0.1,0,0.1C77.9,45.5,78.1,45,78.6,44.7z"/>
		<path id="XMLID_3115_" class="st2" d="M78.8,45.7c0,0.1,0,0.3,0,0.5c-0.1,0.2-0.1,0.3-0.2,0.3c0,0.1-0.1,0.3-0.1,0.4c0,0,0,0,0,0
			l0,0.3l0-0.1c0,0.1-0.1,0.1-0.1,0.2l0,0l0,0c-0.1,0.1-0.1,0.3-0.2,0.4c0,0,0,0.1,0,0.1c0,0.1-0.1,0.2-0.2,0.3c0,0,0,0,0,0
			c-0.1,0.2-0.3,0.4-0.4,0.6c0,0,0,0,0,0.1c0,0,0,0-0.1,0c-0.4,0.5-0.9,1-1.5,1.3c0,0-0.2,0.1-0.5,0.1l-10.9-0.1c-0.1,0-0.1,0-0.2,0
			c0,0,0,0,0,0l-0.6,0c-0.1,0-0.1,0-0.2,0c0,0,0,0,0,0l-0.8,0c-0.2,0-0.4,0-0.6,0l0.1,0c0,0,0,0,0,0l-0.7,0c0,0,0,0-0.1,0
			c0,0,0,0,0,0l-0.4,0c-0.5,0.1-1.1,0-1.6,0.1l0-0.1l-0.3,0c0,0-0.1,0.1-0.3,0.1c-0.3,0-0.7,0-1-0.1c0.1,0,0.1,0,0.2,0l-0.4,0
			c0,0,0,0-0.1,0c0,0,0,0,0,0l-0.8,0l0,0c-0.2,0-0.3,0-0.4,0.1l0.4,0c-1,0-2.1,0-2.9,0l0.3-0.1c0,0,0,0,0,0l-0.4,0
			c-0.1,0-0.3,0.1,0,0.1c-0.1,0-0.2,0.1-0.4,0c-0.1-0.1,0-0.1,0.1-0.1l-0.2,0c0.1,0,0.1,0.1,0,0.2c-0.5-0.1-0.7,0-1.1,0
			c0.1,0,0.1-0.1,0-0.1h0l0,0c0,0-0.1-0.1-0.2-0.1l0.3,0c0-0.1-0.4-0.1-0.5-0.2c-0.6,0.2-0.6-0.2-1.2-0.1c-0.4,0,0,0.1,0,0.1
			c-0.2,0-0.4,0.1-0.5,0c0,0,0.1-0.1,0.3,0c-0.1-0.1-0.2,0-0.4-0.1c0,0,0.1,0,0,0.1c-0.5,0-0.3,0.1-0.9,0c-0.1,0-0.1-0.1-0.2,0
			c-0.2-0.3-0.1-0.2-0.4-0.5c0,0,0,0.2,0,0.2c0.2,0.2,0.4,0.3,0.5,0.4l1,0l0,0c0.6,0.1,0.9-0.2,1.4,0l0.2-0.1c0,0,0,0.1,0,0.1l0.3,0
			c0,0-0.1,0-0.1,0l0.3,0c-0.2,0-0.3,0-0.5,0c0.1,0,0.1-0.1,0-0.1L50,50l0.1,0.1c-0.3,0-0.6,0-1,0c-0.3-0.1-0.6-0.4-0.8-0.6
			c-0.5-0.4-0.9-0.9-1.2-1.4l0-0.2c0,0,0,0,0,0c-0.1-0.1,0,0.2-0.2-0.1c0,0,0-0.1,0-0.2c0-0.1-0.1-0.1-0.1-0.2c0,0,0.1,0.5-0.1,0
			c0,0,0-0.1,0.1-0.1c0,0,0,0,0,0c-0.1-0.1-0.1-0.5-0.3-0.5c-0.1-0.3-0.1-0.5-0.2-0.9c0-0.2-0.1-0.3-0.1-0.5l0-0.3
			c0-0.1,0-0.2,0-0.2c0.2,0.2,0.4,0.3,0.5,0.5c0.2,0.2,0.2,0.2,0.1,0.3c0,0,0,0,0,0c0.1,0.1,0.3,0.2,0.4,0.3c0,0,0,0,0,0
			c0.6,0.3,1.5,0.8,2.3,1.1l0,0c0.1,0,0.2,0.1,0.3,0.1c0.1,0,0.2,0,0.4,0l-0.1,0.1c0.3,0,0.7,0.2,1,0.2c-0.1,0-0.2,0-0.3,0
			c0.3,0.1,0.6,0.2,0.9,0.2c0.2,0,0.3,0,0.3,0.1c0,0,0,0,0,0c0,0,0,0,0-0.1c0.4,0.1,1,0.3,1.3,0.2l-0.1,0.1c0.1,0,0.1,0,0.2,0
			c-0.1,0-0.1,0-0.2,0l0,0c-0.4-0.1-0.8-0.1-1.1-0.2c0,0,0,0,0,0c0,0,0,0,0,0c-0.1,0-0.2,0-0.3-0.1c-0.2,0-0.5,0-0.7-0.2
			c0,0.1-0.4,0.1-0.7,0c-0.1-0.1-0.1-0.1,0-0.1c0.3,0.1,0.4,0.1,0.5,0.1c-0.4-0.1-0.7-0.2-1-0.3c-0.1,0-0.2,0-0.3-0.1l0,0
			c-0.2-0.1-0.3-0.1-0.5-0.2c-0.1,0.1-0.2,0-0.3,0.1l0.3,0.1c-0.1,0,0.1,0.1,0,0.1c0.5,0.1,0.6,0.3,1.1,0.4L50,47.3
			c0-0.1,0.2,0,0.3,0c0.1,0.1,0.2,0.1,0.4,0.2c0.2,0,0.4-0.1,0.7,0c-0.1,0.1,0.5,0.2,0.5,0.3c0.1-0.1,0.6,0.1,0.6,0
			c0.2,0,0.4,0.1,0.4,0.1c0,0-0.1,0-0.1,0l0.2,0c0,0,0,0,0,0c0.1,0,0.2-0.1,0.3,0c0,0-0.1,0-0.2,0c0.4,0.1,0.7-0.1,1,0.1
			c0.1,0,0.5,0,0.4-0.1c0.1,0.1,0.1,0.1,0.4,0.2c0.2-0.1,0.3,0.1,0.6,0.1c-0.3,0.1,0,0-0.3,0.1c0.2,0.1,0.5,0,0.9,0
			c0,0,0,0.1,0.1,0.1c0.1,0,0.3-0.1,0.4,0l0-0.1c0.2,0.1,0.6,0.1,0.9,0.2l0.3-0.1c0.4,0.1,0.9,0.1,1.2,0c-0.5,0-1,0-1.5-0.1
			c0,0,0,0-0.1,0c-0.2,0-0.3,0-0.3-0.1c-0.3,0-0.6-0.1-0.8-0.1c0.1,0,0.4,0.1,0.2,0.1c-0.6-0.1-0.5,0-1,0c-0.3-0.2,0.5,0.1,0.1-0.1
			c0.2,0,0.4,0,0.5,0c-0.8-0.1-1.5-0.2-2.1-0.3c0.3,0,0.5,0,0.9,0c0.2,0-0.2,0,0.1,0.1c0.5,0,1,0.1,1.5,0.1c-0.1,0-0.2,0-0.3,0
			c0.1,0,0.2,0,0.3,0c0,0,0,0,0,0c0.2,0,0.5,0,0.6-0.1c0.2,0.1,0.2,0.1,0.3,0.1c0.1,0,0.3,0,0.4,0c0.1-0.1-0.1-0.1,0.3-0.1
			c0.2,0.1,0.3,0,0.5,0c0,0-0.1,0-0.1,0c0.6,0.1,0.1,0,0.6,0.1c0.1-0.2,1,0.1,1.1-0.1c-0.1,0.1,0.5,0,0.3,0.1c0.4-0.1,0.8,0,1.1-0.1
			c0.5,0.2,1.3-0.2,1.4,0.1c0.2,0,0.3-0.1,0.6-0.1c0,0-0.1,0.1,0.1,0.1c0.3,0,0.5-0.1,0.9-0.2c0.3,0,0.2,0.2,0.6,0.1l0.1,0
			c0.3,0.1,0,0.1-0.2,0.2c0.2,0,0.4,0,0.6,0c-0.1,0-0.1,0-0.2,0c0.2,0,0,0,0.1-0.1c0.4-0.2,0.7-0.1,1.3-0.2c0,0-0.2,0,0,0.1
			c0.2,0,0.4-0.1,0.5-0.1c-0.1,0-0.2,0-0.2,0c0.3,0,0.4,0,0.7,0l0,0c0.1,0,0.1,0,0.2,0l0,0c0.4,0.1,0.7-0.1,1-0.1l-0.1,0.1
			c0.6-0.3,0.9,0,1.6-0.3L69.7,48c1.4-0.3,3.2-0.5,4.4-0.8c0.2,0.1-0.3,0.1-0.5,0.3c0.1-0.1-0.3,0-0.4,0l-0.4,0.2
			c0-0.1,0.1-0.1,0.2-0.2c-0.3,0-0.4,0.2-0.5,0.2l0,0c-0.5,0.1-0.9,0-1.2,0.2l0.1,0c-0.3,0-0.8,0-1.1,0.1c0,0.1-0.3,0.1-0.3,0.1
			c0.2,0,0.1-0.1,0.3-0.1c-0.5,0.1-1.6,0.3-1.8,0.2c-0.1,0.1,0,0.1,0,0.1c3.8-0.3,8.4-1.1,10.5-3C78.8,45.4,78.8,45.5,78.8,45.7z"/>
		<polygon id="XMLID_3114_" class="st2" points="78.9,45 78.9,45.3 78.8,45.2 		"/>
		<path id="XMLID_3113_" class="st2" d="M57.3,50C57.3,50.1,57.3,50.1,57.3,50C57.1,50.1,57.1,50,57.3,50z"/>
		<path id="XMLID_3112_" class="st2" d="M55.9,47.6C55.9,47.6,55.8,47.6,55.9,47.6C55.7,47.6,55.7,47.5,55.9,47.6z"/>
		<path id="XMLID_3111_" class="st2" d="M74.3,47.2c0,0,0.2-0.1,0.3-0.1c0.1,0-0.1,0.2-0.3,0.2L74.3,47.2
			C74.3,47.2,74.3,47.2,74.3,47.2z"/>
		<path id="XMLID_3110_" class="st2" d="M76.2,40.2C76.2,40.2,76.2,40.2,76.2,40.2c0,0.1,0,0.2-0.1,0.2c0,0.1,0,0.2-0.1,0.2
			c0,0.2-0.1,0.4-0.1,0.6c-0.1,0.4-0.2,1-0.3,1.5c0,0,0,0.1,0,0.2l-0.1,0.1c0-0.1,0.1-0.2,0.1-0.3c0,0,0,0,0-0.1
			c-0.1,0.2-0.1,0.3-0.1,0.5c0,0.1-0.1,0.2-0.1,0.4c0,0.1,0,0.3-0.1,0.3c0,0,0,0,0,0c0,0-0.1,0-0.2,0c0-0.1,0-0.1,0.1-0.2
			c0,0.1,0,0.1,0.1,0.1c0.1-0.1,0.1-0.5,0-0.3c0.1-0.1,0.2-0.3,0.3-0.6c0.1-0.4,0.2-0.8,0.2-0.9c0.2-0.5,0.2,0,0.2-0.5
			c0,0-0.1,0.2-0.1,0.3c0,0-0.1,0.1-0.1,0.1c0.1-0.2,0.1-0.4,0.1-0.5c0-0.1,0-0.1,0-0.2c0-0.1,0-0.2,0-0.2l0.2-0.4
			c0-0.1,0-0.1,0-0.1c-0.4,0.5-0.6,1-0.8,1.2l0.1-0.3c0,0-0.1,0.1-0.2,0.2c-0.1,0.1-0.1,0.2-0.1,0.2l0-0.1C75,41.7,74.9,42,74.8,42
			c-0.2,0,0.3-0.4,0.5-0.7c0,0,0.1,0,0.1,0C75.7,40.9,76,40.4,76.2,40.2z"/>
		<path id="XMLID_3109_" class="st2" d="M75.2,44.2L75.2,44.2C75.1,44.2,75,44,75,44C75,44,75.2,44.2,75.2,44.2z"/>
		<path id="XMLID_3108_" class="st2" d="M74.7,42c0,0-0.1,0.4-0.3,0.5l0.1-0.2c-0.1,0.1-0.1,0.1-0.1,0.1
			C74.4,42.3,74.6,42.1,74.7,42z"/>
		<path id="XMLID_3107_" class="st2" d="M81.6,49.7c0,0-0.2,0.3-0.2,0.3c0,0-0.1,0-0.1-0.1c0-0.1,0.1-0.2,0.2-0.3l-0.1,0.2
			C81.5,49.7,81.5,49.8,81.6,49.7z"/>
		<path id="XMLID_3106_" class="st2" d="M85.4,54.1c-0.2,0-0.3-0.1-0.4-0.2c0.1,0,0.3,0,0.2,0c-0.3-0.1-0.8-0.2-0.5,0
			c-0.3-0.2-1.4-0.5-2-0.8c-0.4-0.3,0.4,0-0.2-0.3c-0.1,0,0,0.1,0,0.1c0.1,0,0,0.1,0,0.1c-0.2-0.2-0.4-0.4-0.4-0.6l0,0
			c0-0.1-0.1-0.2-0.1-0.3l0.1,0c-0.3-0.7-0.4-0.4-0.6-1l0.1,0.1l-0.2-0.4l0.1,0c0-0.2-0.1-0.3-0.1-0.3c0.1-0.1,0.1,0,0.1,0.1
			c0,0.1,0.1,0.4,0.2,0.4l0,0.2c0.2,0.4,0.3,0.4,0.4,0.7c0,0.1,0.1,0.3,0.2,0.5l0,0l0,0c0.1,0.3,0.8,0.8,1.4,1c0,0,0.1,0,0.1,0
			l0.2,0.1c-0.1,0-0.2-0.1-0.3-0.1c0,0,0,0-0.1,0c0.7,0.3,1.4,0.3,2.2,0.6C85.4,53.9,85.2,54,85.4,54.1z"/>
	</g>
</g>
</svg>
