<?xml version="1.0" encoding="utf-8"?>
<!-- Generator: Adobe Illustrator 22.0.1, SVG Export Plug-In . SVG Version: 6.00 Build 0)  -->
<svg version="1.1" xmlns="http://www.w3.org/2000/svg" xmlns:xlink="http://www.w3.org/1999/xlink" x="0px" y="0px"
	 viewBox="0 0 48.042 28.536" style="enable-background:new 0 0 48.042 28.536;" xml:space="preserve">
<style type="text/css">
	.st0{fill:#EFEFEF;}
	.st1{fill:#15AF83;}
	.st2{fill:#171C61;}
	.st3{fill:#17AD7B;}
	.st4{opacity:0.6;}
	.st5{fill:#FFFFFF;}
	.st6{fill:#165987;}
	.st7{fill:#D64B3C;}
	.st8{fill:#D65677;}
	.st9{fill:#DD722A;}
	.st10{fill:#005E9E;}
	.st11{fill:#D67327;}
	.st12{clip-path:url(#SVGID_6_);fill:none;}
	.st13{clip-path:url(#SVGID_6_);}
	.st14{fill:none;stroke:#FFFFFF;stroke-width:0.6;stroke-miterlimit:10;}
	.st15{fill:#113272;}
	.st16{opacity:0.2;}
	.st17{opacity:0.2;fill:#171C61;}
	.st18{opacity:0.4;}
	.st19{opacity:0.8;}
	.st20{display:none;}
	.st21{display:inline;fill:#C30D23;}
</style>
<g id="圖層_3">
</g>
<g id="圖層_2">
</g>
<g id="圖層_1">
	<g>
		<g>
			<path class="st2" d="M5.601,12.165c-0.031,0.195,0.107,0.354,0.307,0.354H7.29c0.201,0,0.39-0.159,0.422-0.354l1.098-6.783
				c0.031-0.195,0.221-0.354,0.422-0.354h1.942c0.201,0,0.39-0.159,0.422-0.354l0.171-1.055c0.031-0.195-0.107-0.354-0.307-0.354
				H9.517c-0.201,0-0.529,0-0.729,0H7.406c-0.201,0-0.529,0-0.729,0H4.735c-0.201,0-0.39,0.159-0.422,0.354L4.142,4.675
				C4.111,4.869,4.249,5.029,4.45,5.029h1.942c0.201,0,0.339,0.159,0.307,0.354L5.601,12.165z"/>
			<path class="st2" d="M36.371,12.519c0.201,0,0.39-0.159,0.422-0.354l0.171-1.055c0.031-0.195-0.107-0.354-0.307-0.354h-3.105
				c-0.201,0-0.339-0.159-0.307-0.354l0.812-5.02c0.031-0.195,0.221-0.354,0.422-0.354h3.105c0.201,0,0.39-0.159,0.422-0.354
				l0.171-1.055c0.031-0.195-0.107-0.354-0.307-0.354h-3.105c-0.201,0-0.529,0-0.729,0h-1.187c-0.308,0-0.599,0.244-0.647,0.543
				l-0.14,0.866c-0.031,0.195-0.083,0.513-0.115,0.708l-0.812,5.02c-0.031,0.195-0.083,0.513-0.115,0.708l-0.101,0.621
				c-0.07,0.433,0.238,0.788,0.685,0.788h0.934c0.201,0,0.529,0,0.729,0H36.371z"/>
			<path class="st2" d="M19.725,3.757c0.043-0.27-0.149-0.492-0.427-0.492H14.31c-0.248,0-0.483,0.197-0.522,0.438l-0.135,0.834
				c-0.044,0.27,0.148,0.492,0.427,0.492h2.827c0.279,0,0.471,0.221,0.427,0.492L17.18,6.474c-0.039,0.241-0.274,0.438-0.522,0.438
				H13.72c-0.248,0-0.483,0.197-0.522,0.438l-0.157,0.971c-0.012,0.077-0.019,0.118-0.025,0.153
				c-0.017,0.108,0.029,0.271,0.103,0.361c0.027,0.033,0.06,0.074,0.11,0.135l2.793,3.412c0.062,0.076,0.19,0.138,0.284,0.138h1.999
				c0.317,0,0.41-0.213,0.207-0.474l-2.26-2.897c-0.203-0.261-0.11-0.474,0.207-0.474h0c0.201,0,0.529,0,0.729,0h1.295
				c0.248,0,0.483-0.197,0.522-0.438L19.725,3.757z"/>
			<path class="st2" d="M43.104,3.259c-0.13,0-0.305,0.077-0.387,0.171l-3.428,4.213c-0.127,0.144-0.122,0.395,0.011,0.556
				l3.125,4.13c0.084,0.103,0.257,0.186,0.384,0.186h1.782c0.321,0,0.41-0.212,0.198-0.471L41.897,8.2
				c-0.133-0.162-0.138-0.412-0.011-0.556l3.16-3.909c0.23-0.261,0.12-0.475-0.243-0.475H43.104z"/>
			<path class="st2" d="M28.624,12.513c0.201,0,0.326-0.162,0.279-0.361l-2.022-8.527c-0.047-0.198-0.25-0.361-0.45-0.361l-1.401,0
				c-0.201,0-0.431,0.144-0.513,0.319l-3.998,8.617c-0.081,0.176,0.016,0.319,0.216,0.319h1.382c0.201,0,0.431-0.144,0.513-0.319
				l2.57-5.538c0.081-0.176,0.183-0.157,0.226,0.042l1.168,5.446c0.043,0.199,0.242,0.362,0.442,0.362H28.624z"/>
		</g>
		<path class="st2" d="M3.825,24.625c-0.031,0.195,0.107,0.354,0.307,0.354h1.382c0.201,0,0.39-0.159,0.422-0.354l1.098-6.786
			c0.031-0.195,0.221-0.354,0.422-0.354h1.947c0.201,0,0.39-0.159,0.422-0.354l0.171-1.055c0.031-0.195-0.107-0.354-0.307-0.354
			H2.965c-0.201,0-0.39,0.159-0.422,0.354l-0.171,1.055c-0.031,0.195,0.107,0.354,0.307,0.354h1.936
			c0.201,0,0.339,0.159,0.307,0.354L3.825,24.625z"/>
		<path class="st2" d="M21.7,24.979c0.201,0,0.39-0.159,0.422-0.354l1.384-8.552c0.031-0.195-0.107-0.354-0.307-0.354h-1.382
			c-0.201,0-0.39,0.159-0.422,0.354l-1.384,8.552c-0.031,0.195,0.107,0.354,0.307,0.354H21.7z"/>
		<path class="st2" d="M42.118,24.625c-0.031,0.195,0.107,0.354,0.307,0.354h1.382c0.201,0,0.39-0.159,0.422-0.354l1.384-8.552
			c0.031-0.195-0.107-0.354-0.307-0.354h-1.382c-0.201,0-0.39,0.159-0.422,0.354L42.118,24.625z"/>
		<path class="st2" d="M26.544,24.972c0.201,0,0.39-0.159,0.422-0.354l0.489-3.021c0.031-0.195,0.221-0.354,0.422-0.354h1.342
			c0.201,0,0.529,0,0.729,0h1.034c0.201,0,0.39-0.159,0.422-0.354l0.171-1.055c0.031-0.195,0.083-0.513,0.115-0.708l0.209-1.29
			c0.031-0.195,0.083-0.513,0.115-0.708l0.171-1.055c0.031-0.195-0.107-0.354-0.307-0.354h-1.034c-0.201,0-0.529,0-0.729,0H26.66
			c-0.201,0-0.39,0.159-0.422,0.354l-0.171,1.055c-0.031,0.195,0.107,0.354,0.307,0.354h3.453c0.201,0,0.339,0.159,0.307,0.354
			l-0.209,1.29c-0.031,0.195-0.221,0.354-0.422,0.354h-1.342c-0.201,0-0.529,0-0.729,0h-1.382c-0.201,0-0.39,0.159-0.422,0.354
			l-0.171,1.055c-0.031,0.195-0.083,0.513-0.115,0.708l-0.489,3.021c-0.031,0.195,0.107,0.354,0.307,0.354H26.544z"/>
		<g>
			<path class="st2" d="M40.835,16.073c0.031-0.195-0.107-0.354-0.307-0.354H35c-0.201,0-0.39,0.159-0.422,0.354l-0.171,1.055
				c-0.031,0.195,0.107,0.354,0.307,0.354h5.528c0.201,0,0.39-0.159,0.422-0.354L40.835,16.073z"/>
			<path class="st2" d="M33.198,24.625c-0.031,0.195,0.107,0.354,0.307,0.354h5.528c0.201,0,0.39-0.159,0.422-0.354l0.171-1.055
				c0.031-0.195-0.107-0.354-0.307-0.354h-5.528c-0.201,0-0.39,0.159-0.422,0.354L33.198,24.625z"/>
			<path class="st2" d="M33.8,20.877c-0.031,0.195,0.107,0.354,0.307,0.354h4.12c0.201,0,0.39-0.159,0.422-0.354l0.171-1.055
				c0.031-0.195-0.107-0.354-0.307-0.354h-4.12c-0.201,0-0.39,0.159-0.422,0.354L33.8,20.877z"/>
		</g>
		<path class="st2" d="M17.695,24.966c0.201,0,0.326-0.162,0.278-0.361l-2.04-8.528c-0.047-0.198-0.25-0.361-0.451-0.361h-1.382
			c-0.201,0-0.431,0.144-0.513,0.319L9.59,24.654c-0.081,0.176,0.016,0.319,0.216,0.319h1.382c0.201,0,0.431-0.144,0.513-0.319
			l2.57-5.538c0.081-0.176,0.183-0.157,0.226,0.042l1.168,5.446c0.043,0.199,0.242,0.362,0.442,0.362H17.695z"/>
	</g>
</g>
<g id="圖層_4" class="st20">
</g>
</svg>
