<?xml version="1.0" encoding="utf-8"?>
<!-- Generator: Adobe Illustrator 22.0.1, SVG Export Plug-In . SVG Version: 6.00 Build 0)  -->
<svg version="1.1" id="圖層_1" xmlns="http://www.w3.org/2000/svg" xmlns:xlink="http://www.w3.org/1999/xlink" x="0px" y="0px"
	 viewBox="0 0 97.3 336.8" style="enable-background:new 0 0 97.3 336.8;" xml:space="preserve">
<style type="text/css">
	.st0{fill:#0FAA69;}
	.st1{fill:#FFFFFF;}
</style>
<g>
	<g>
		<g>
			<g>
				<path class="st0" d="M50.9,92.7c1.6,4.5,4.4,8.3,8.8,10.2c-0.9,0.8-2.1,2.3-2.6,3.3c-4.3-2.2-6.9-5.7-8.8-10.3
					c-0.5,1.6-1.2,3-2.2,4.4l0.7-0.5c1.3,1.2,3.2,3,4,4.3l-3.2,2.3c-0.6-1.1-2-2.6-3.2-4c-1.4,1.5-3.2,2.8-5.5,3.9
					c-0.5-1-1.6-2.3-2.6-3c5.8-2.5,8.1-6.4,9-10.5h-8.2V89h8.7c0.1-2,0.1-4,0.1-5.9h3.9c0,1.9,0,3.9-0.2,5.9h9.5v3.6H50.9z"/>
				<path class="st0" d="M51.7,127v4.4c0,1.5-0.2,2.4-1.3,2.8c-1,0.5-2.3,0.5-4,0.5c-0.1-0.9-0.6-2.2-0.9-3.1c0.8,0,2,0,2.3,0
					c0.3,0,0.4-0.1,0.4-0.3V127h-5.5v-10h4.1c0.2-0.5,0.4-0.9,0.6-1.3h-6v4c0,4.2-0.3,10.5-2.5,14.4c-0.7-0.5-2.2-1.4-3.1-1.7
					c1.9-3.6,2.1-9,2.1-12.7v-7.2h20.8v3.2H48.6l3.2,0.4c-0.2,0.3-0.5,0.7-0.7,0.9h6.2v10H51.7z M47.5,128.6
					c-1.1,1.9-2.8,4.1-4.1,5.4c-0.7-0.6-2.1-1.5-3-1.9c1.3-1.1,2.8-3,3.7-4.6L47.5,128.6z M53.7,119.7h-7.4v1.2h7.4V119.7z
					 M46.3,124.4h7.4v-1.2h-7.4V124.4z M55.2,127.4c1.2,1.5,3.1,3.6,4,4.9l-3,1.7c-0.8-1.3-2.5-3.5-3.8-5.1L55.2,127.4z"/>
				<path class="st0" d="M58.4,144.7c-0.7,2.6-1.8,4.7-3.2,6.6c1.3,0.9,2.9,1.7,4.7,2.2c-0.6,0.5-1.3,1.6-1.8,2.4v8.7h-3.4v-0.7H51
					v0.8h-3.2v-7.8l0,0c-0.3-0.5-0.7-1.2-1.2-1.8v1.4H44v2.6c0.9-0.2,1.8-0.4,2.7-0.6l0.3,3.1c-3.5,0.8-7.3,1.7-10.2,2.4l-0.6-3.4
					l1-0.2v-8.1h2.8v7.6l0.8-0.2v-8.8h-3.4v-8.4h8.7v5.8c1.7-1.7,3.1-4.1,3.8-6.7l3.4,0.8c-0.1,0.5-0.3,0.9-0.5,1.4h2.7l0.6-0.1
					L58.4,144.7z M40.6,148H43v-2.4h-2.4V148z M46.5,153.9c1.5-0.6,2.9-1.5,4.2-2.6c-0.4-0.5-0.8-1-1.1-1.5c-0.3,0.4-0.7,0.8-1,1.1
					c-0.5-0.5-1.6-1.5-2.4-2v2H44v2.5h2.5V153.9z M55.7,155.6c-1-0.5-1.9-1.2-2.7-1.9c-0.8,0.7-1.7,1.3-2.6,1.9H55.7z M54.7,160.9
					v-2.4H51v2.4H54.7z M51.6,146.9l-0.2,0.3c0.4,0.6,0.8,1.3,1.4,1.9c0.5-0.7,0.9-1.4,1.3-2.2H51.6z"/>
				<path class="st0" d="M50.8,185.1v-4h2.4v11h-2.4V188h-12v-2.9H50.8z"/>
				<path class="st0" d="M41.8,193.1c2.3,0,3.6,1.9,4,6.3c1.1,0,1.9-0.5,1.9-1.8c0-1-0.4-2-1-3l1.9-1c0.8,1.3,1.4,2.8,1.4,4.5
					c0,2.8-1.7,4.2-4.8,4.2h-6.4v-2.3l1.2-0.2v-0.1c-0.8-1-1.4-2-1.4-3.3C38.6,194.4,39.9,193.1,41.8,193.1z M41.9,199.4h2.2
					c-0.4-2.6-1.1-3.5-2-3.5c-0.9,0-1.2,0.6-1.2,1.4C40.8,198.1,41.2,198.7,41.9,199.4z"/>
				<path class="st0" d="M53,205.9c0.9,0,1.6,0.7,1.6,1.7c0,1-0.6,1.7-1.6,1.7c-0.9,0-1.6-0.7-1.6-1.7
					C51.5,206.6,52.1,205.9,53,205.9z M49.7,206.1v2.8H38.8v-2.8H49.7z"/>
				<path class="st0" d="M34.7,212.5l2.2,0.5c-0.1,0.2-0.1,0.5-0.1,0.8c0,1.1,0.7,1.7,1.7,2L39,216l10.7-4.2v2.9l-5.1,1.7
					c-1,0.3-2,0.6-3.1,0.9v0.1c1,0.3,2.1,0.5,3.1,0.8l5.1,1.5v2.7l-11.2-3.9c-2.6-1-4-2.1-4-4.5C34.5,213.3,34.5,212.9,34.7,212.5z"
					/>
				<path class="st0" d="M42.9,225h6.8v2.9h-6.4c-1.7,0-2.3,0.5-2.3,1.5c0,0.9,0.4,1.5,1.4,2.2h7.3v2.9H38.8v-2.3l1.6-0.2v-0.1
					c-1.1-0.9-1.8-2-1.8-3.5C38.6,226,40.2,225,42.9,225z"/>
				<path class="st0" d="M41.8,238c2.3,0,3.6,1.9,4,6.3c1.1,0,1.9-0.5,1.9-1.8c0-1-0.4-2-1-3l1.9-1c0.8,1.3,1.4,2.8,1.4,4.5
					c0,2.8-1.7,4.2-4.8,4.2h-6.4v-2.3l1.2-0.2v-0.1c-0.8-1-1.4-2-1.4-3.3C38.6,239.2,39.9,238,41.8,238z M41.9,244.2h2.2
					c-0.4-2.6-1.1-3.5-2-3.5c-0.9,0-1.2,0.6-1.2,1.4C40.8,242.9,41.2,243.5,41.9,244.2z"/>
				<path class="st0" d="M49.7,251v2.3l-1.4,0.2v0.1c0.9,1,1.7,2.1,1.7,3.5c0,2.4-1.6,3.4-4.4,3.4h-6.8v-2.9h6.4
					c1.7,0,2.3-0.5,2.3-1.5c0-0.9-0.4-1.5-1.2-2.3h-7.5V251H49.7z"/>
				<path class="st0" d="M38.8,277.9l5.4-3v-2h-5.4V270h14.4v5c0,3-1.1,5.4-4.4,5.4c-2.2,0-3.5-1.1-4.1-2.7l-5.9,3.4V277.9z
					 M46.6,272.9v1.9c0,1.8,0.8,2.9,2.3,2.9c1.6,0,2.1-1,2.1-2.9v-1.9H46.6z"/>
				<path class="st0" d="M44.3,283.1c3.6,0,5.7,2.5,5.7,5.2c0,2.7-2.1,5.2-5.7,5.2c-3.6,0-5.7-2.5-5.7-5.2
					C38.6,285.6,40.7,283.1,44.3,283.1z M44.3,290.6c2.1,0,3.4-0.8,3.4-2.3c0-1.5-1.3-2.3-3.4-2.3c-2,0-3.4,0.8-3.4,2.3
					C40.9,289.8,42.2,290.6,44.3,290.6z"/>
				<path class="st0" d="M41.8,296.1c2.3,0,3.6,1.9,4,6.3c1.1,0,1.9-0.5,1.9-1.8c0-1-0.4-2-1-3l1.9-1c0.8,1.3,1.4,2.8,1.4,4.5
					c0,2.8-1.7,4.2-4.8,4.2h-6.4v-2.3l1.2-0.2v-0.1c-0.8-1-1.4-2-1.4-3.3C38.6,297.4,39.9,296.1,41.8,296.1z M41.9,302.4h2.2
					c-0.4-2.6-1.1-3.5-2-3.5c-0.9,0-1.2,0.6-1.2,1.4C40.8,301.1,41.2,301.7,41.9,302.4z"/>
				<path class="st0" d="M44.3,308.5c3.6,0,5.7,2.2,5.7,4.6c0,1.2-0.5,2-1.2,2.8l1.7-0.1h3.8v2.9H38.8v-2.3L40,316V316
					c-0.8-0.8-1.4-1.9-1.4-3C38.6,310.3,40.7,308.5,44.3,308.5z M42,315.7h4.8c0.6-0.7,0.8-1.3,0.8-2c0-1.2-1.2-2.3-3.3-2.3
					c-2.3,0-3.4,0.8-3.4,2.3C40.9,314.4,41.2,315.1,42,315.7z"/>
			</g>
		</g>
	</g>
	<g>
		<g>
			<g>
				<path class="st0" d="M41.9,55.4l-0.1-0.2C41.9,55.3,41.9,55.3,41.9,55.4z"/>
				<path class="st0" d="M43,56.5L43,56.5C43,56.5,42.9,56.5,43,56.5z"/>
				<path class="st0" d="M50.8,60.9c0.1-0.1,0.2-0.2,0.3-0.3L50.8,60.9z"/>
				<path class="st0" d="M36.1,49.2l-0.2-0.2C36.1,49.3,36,49.2,36.1,49.2z"/>
				<path class="st0" d="M37.8,21.7C37.8,21.7,37.8,21.7,37.8,21.7C37.8,21.7,37.8,21.7,37.8,21.7z"/>
				<path class="st0" d="M66.4,39.4C66.4,39.4,66.4,39.4,66.4,39.4C66.4,39.4,66.4,39.4,66.4,39.4z"/>
				<path class="st0" d="M30.6,36.2C30.6,36.2,30.6,36.2,30.6,36.2C30.6,35.9,30.6,36,30.6,36.2z"/>
				<path class="st0" d="M58.3,52.3C58.3,52.3,58.3,52.3,58.3,52.3C58.3,52.3,58.3,52.3,58.3,52.3L58.3,52.3z"/>
				<path class="st0" d="M57.8,52.8c0.2-0.3,0.3-0.4,0.5-0.5L58,52.4L57.8,52.8z"/>
				<path class="st0" d="M66.7,36.1c0-0.2,0-0.5-0.1-0.7c0,0.1,0,0.9,0,1.3c0,0,0-0.1-0.1-0.2c0-0.1,0-0.2,0-0.3
					c0-1.1-0.1-2.2-0.3-3.2c0-0.2-0.1-0.4-0.1-0.5c0-0.1-0.1-0.2-0.1-0.3c0-0.2-0.1-0.4-0.2-0.6c0,0,0,0,0-0.1
					c0-0.2-0.1-0.3-0.1-0.5c0-0.2-0.1-0.3-0.1-0.4c0-0.1-0.1-0.2-0.1-0.2c-0.5-1.4-1.1-2.6-1.9-3.8c0,0,0.1,0.1,0,0c0,0,0,0-0.1-0.1
					c-3.2-4.9-8.7-8.1-15-8.1c-0.4,0-0.8,0-1.2,0c-0.2,0-0.3,0-0.3-0.1c-0.3,0-0.6,0.1-1,0.1c-0.4,0-0.8,0.1-1.3,0.2
					c-0.2,0,0.2-0.1,0.1-0.1c-0.2,0.1-0.5,0.2-1,0.3l0.1,0c-0.3,0.1-0.6,0.1-0.9,0.2c-0.3,0.1-0.5,0.2-0.8,0.3
					c-0.2,0.1-0.5,0.2-0.8,0.3c-0.3,0.1-0.6,0.3-0.9,0.4l0.1,0c-0.3,0.1-0.4,0.2-0.5,0.2c-0.1,0.1,0,0,0.2-0.1c-0.7,0.3-1.8,1-2,1.1
					c-0.4,0.3,0.1-0.1-0.3,0.3L38,21.6L38,21.7c-0.3,0.2-0.4,0.3-0.5,0.3c0.1,0,0.2-0.1,0.3-0.2c-0.2,0.1-0.4,0.3-0.7,0.5
					c-0.2,0.2-0.4,0.4-0.4,0.4l0.4-0.3c-0.5,0.5-1.1,1-1.6,1.6c-0.3,0.3-0.5,0.6-0.8,0.9c-0.2,0.3-0.4,0.6-0.6,0.9l0.1-0.1
					c-0.2,0.2-0.3,0.4-0.3,0.5c-0.1,0.1-0.1,0.2-0.2,0.3c-0.1,0.2-0.3,0.4-0.5,0.9l0,0c-0.1,0.1-0.1,0.2-0.2,0.4
					c-0.1,0.1-0.1,0.3-0.2,0.4c0.1-0.3-0.3,0.5-0.1,0.1c-0.2,0.5-0.3,0.7-0.3,0.7c0,0,0,0.1,0,0.1c0,0.1-0.1,0.2-0.1,0.4l-0.1,0.2
					c-0.1,0.3-0.1,0.3-0.2,0.8c0.1-0.5-0.2,0.3,0-0.2c-0.1,0.3-0.2,0.5-0.3,0.8c-0.1,0.2-0.1,0.4-0.1,0.6c-0.1,0.4-0.1,0.6-0.3,0.9
					c-0.1,0.6,0.3-1,0.2-0.7c0.1-0.2-0.1,0.5-0.2,0.8c-0.1,0.4-0.2,0.6-0.4,1.6c0-0.1,0-0.1,0-0.2c-0.1,0.4,0,0.7-0.1,1.2
					c0,0.3,0,0.6,0,0.7l0-0.9c0,0.3,0,0.5,0,0.8c0,0.1,0,0.3,0,0.5c0,0.2,0,0.4,0,0.6c0-0.1,0-0.3-0.1-0.5c0,0.2,0,0.5,0,0.7
					c0,0,0-0.3-0.1-0.6c0-0.3,0-0.7,0-1c0,0.3,0,1-0.1,0.8c0.1,0.4,0,1,0.1,1.6l0,0c0,0.1,0,0.3,0.1,0.5c0-0.1-0.1-0.2-0.1-0.3
					c0.1,0.5,0.1,1,0.2,1.5c-0.1-0.5-0.1-0.6-0.1-0.6c0,0,0,0.1,0-0.1c0.2,1.2,0,0.9,0.3,1.9c0-0.2-0.1-0.3,0-0.1
					c0.1,0.3,0.1,0.6,0.2,0.8c0.3,0.9,0-0.2,0.1,0.2c0.1,0.3,0.2,0.5,0.3,0.9l0,0c0.4,1.1,0.2,0.3,0.5,1.2L32,43.2l0.2,0.5l-0.1-0.1
					c0.1,0.3,0.2,0.4,0.3,0.6c0.1,0.2,0.2,0.3,0.3,0.6c0-0.1,0.1,0,0.3,0.5c0.2,0.3-0.1-0.1,0.2,0.5c-0.1-0.1-0.2-0.3-0.3-0.5
					c0,0-0.1-0.1-0.1-0.1c0.1,0.3,0.5,0.8,0.6,1c-0.1-0.1-0.1-0.2-0.1-0.2c0.2,0.3,0.4,0.5,0.6,0.8c0.1,0.1,0,0-0.1-0.1
					c0.1,0.2,0.2,0.3,0.4,0.5c-0.1,0-0.1,0-0.4-0.3c0.2,0.3,0.4,0.5,0.6,0.8c0,0.1,0.3,0.4,0.2,0.3c0.3,0.4,0.9,1,1.4,1.5
					c0,0,0.1,0.1,0.2,0.2c0.5,0.5,0.9,0.9,1.4,1.4l0.3,0.4c0.4,0.4-0.4-0.5,0.4,0.2c0.5,0.5,0.2,0.2,0.3,0.4
					c0.3,0.2,0.7,0.7,1.2,1.2c-0.2-0.2-0.3-0.3-0.4-0.4l0.3,0.4c-0.5-0.4-0.7-0.8-0.5-0.4c0.1,0,1.4,1.4,1.5,1.4l0.2,0.3
					c-0.1-0.1-0.1-0.1-0.1-0.2c0.4,0.5,0.4,0.3,0.9,0.9c0.2,0.2,0.3,0.4,0.2,0.2l0.5,0.5c0.1,0.1,0.1,0.1,0,0l0.7,0.7l0,0
					c0.1,0.1,0.3,0.3,0.4,0.4c0.2,0.2-0.1-0.1-0.1,0l0.4,0.4c0.1,0.2-0.2-0.1-0.4-0.4c0.3,0.5,0.3,0.3,1,1.2L44,57.8
					c0.2,0.3,0.4,0.6,0.8,1.1c-0.1-0.1-0.7-1-0.3-0.5c0.1,0.1,0.2,0.3,0.5,0.5c0,0,0.2,0.3,0.4,0.6l-0.1,0c0.3,0.3,0.3,0.3,0.5,0.5
					c0.3,0.4,0.3,0.5,0.4,0.6c0.5,0.6-0.3-0.5,0.3,0.2c0.4,0.5,0.7,0.8,1.2,1.4c0.3,0.4-0.1,0,0,0.1l0.3,0.3c0.1,0.1,0,0.1,0,0.1
					c0.2,0.3,0.1,0,0.4,0.4c0,0,0.1,0.1,0.1,0.2c0.1,0.1,0.2,0.3,0.3,0.4c0.1-0.2,0.3-0.4,0.5-0.6c0.1-0.2,0.2-0.3,0.3-0.5
					c0.1-0.1,0,0.1,0,0.1c0.5-0.7,0.4-0.6,0.8-1.2l0.4-0.5c-0.3,0.3,0-0.2,0.3-0.6c0,0,0,0-0.1,0.1c0-0.1,0.1-0.1,0.1-0.2
					c0,0,0,0.1-0.1,0.1c0,0,0,0,0.1-0.1c0,0,0-0.1,0.1-0.1c0.1-0.1,0.2-0.2,0.3-0.3c0,0,0,0.1-0.1,0.2c-0.1,0.1-0.1,0.1-0.2,0.2
					C51,60.4,51,60.6,51,60.6c0,0,0.1-0.1,0.2-0.2c0,0,0,0.1,0,0.1c0,0,0.1-0.1,0.1-0.2l0.2-0.1l0,0l0.7-0.8
					c0.4-0.6,0.8-1.2,1.6-2.1c-0.2,0.3,0,0.1,0,0.1c-0.3,0.2-0.6,0.7-1,1.2c0.2-0.2,0.2-0.2,0.1-0.1l0.7-0.9c0,0,0.2-0.2,0.4-0.4
					c-0.2,0.1,0.5-0.7,0.8-1c0,0,0,0.1-0.4,0.5c0.4-0.4,0.4-0.7,0.9-1.1c-0.1,0.1-0.1,0.2-0.2,0.2c0.2-0.3,0.7-0.8,0.6-0.7l-0.1,0.1
					c0.6-0.7,1.8-2,1.9-2.2c0,0,0,0.1,0,0.2c0.2-0.3,0.4-0.6,0.6-0.9c0.1-0.1,0.2-0.2,0.3-0.4c0.1,0,0.2,0-0.1,0.4
					c0.2-0.1,0.3-0.3,0.6-0.7c-0.1,0.1-0.3,0.2-0.2,0.1c0.4-0.3,0.3-0.2,0.8-0.7c-0.2,0.1-0.1-0.1,0.2-0.3c0,0,0.1,0,0,0.1l0.5-0.7
					c-0.1,0.2,0,0.1,0.2,0c-0.1,0.1,0.5-0.5,0.7-0.7l-0.3,0.2c0.4-0.3,0.5-0.5,0.6-0.7c0.1-0.2,0.3-0.4,0.6-0.7
					c-0.1,0.1-0.1,0.3,0.2-0.1c0.1-0.1,0.2-0.4,0.4-0.7c0.2-0.3,0.4-0.6,0.6-0.8c-0.2,0.4-0.5,0.9-0.7,1.1c0.2-0.3,0.1-0.1,0.4-0.5
					c0.1-0.1,0,0.1-0.2,0.3c0.1-0.1,0.2-0.3,0.3-0.4c0.1-0.2,0.3-0.3,0.4-0.5c-0.1,0,0.5-0.8,0.4-0.8c-0.1,0.2-0.2,0.4-0.4,0.6
					c-0.1,0.2-0.2,0.4-0.4,0.6c-0.1,0,0.4-0.7,0.8-1.5c0.1-0.2,0,0.2,0,0.2c0-0.1,0.1-0.2,0.2-0.4c0.1-0.2,0.2-0.4,0.2-0.4l-0.2,0.4
					c0.1-0.2,0.2-0.4,0.3-0.6c0.1-0.2,0.2-0.4,0.3-0.7c0.1-0.2,0.3-0.5,0.3-0.6c-0.1,0.2-0.2,0.2-0.3,0.2c0.1-0.2,0.2-0.4,0.3-0.7
					l0,0l0-0.1l0,0c0.1-0.2,0.2-0.4,0.3-0.7c0.1-0.1-0.1,0.6,0,0.3c0,0,0-0.2,0.1-0.3c0.1-0.2,0,0.1,0.2-0.4c0-0.1,0.3-0.9,0-0.2
					c0.1-0.4,0.1-0.5,0.3-1c0,0.1,0-0.2,0-0.5c0-0.2,0.1-0.4,0.1-0.6c0,0,0,0,0,0c0-0.2,0.1-0.4,0.1-0.6c0-0.2,0.1-0.4,0.1-0.5
					c0.1-0.4,0.1-0.7,0.1-1.1c0-0.1,0-0.5,0.1-0.3c0-0.1,0-0.2,0-0.5c0.1-0.5,0,0.6,0.1,0.2C66.7,36.5,66.8,36.3,66.7,36.1z
					 M51.5,59.8c0.1-0.1,0.2-0.2,0.3-0.4C51.8,59.6,51.7,59.7,51.5,59.8z M40.8,20c-0.1,0-0.2,0.1-0.4,0.1C40.7,20,41,19.8,40.8,20z
					 M44.1,57.9c0.1,0.1,0.2,0.2,0.4,0.4C44.4,58.2,44.2,58,44.1,57.9z"/>
				<path class="st0" d="M31.1,40.6c0,0.1,0,0.2,0.1,0.3C31.1,40.7,31.1,40.6,31.1,40.6z"/>
				<path class="st0" d="M62.9,47.5c0,0-0.1,0.1-0.1,0.1C62.9,47.6,62.9,47.5,62.9,47.5z"/>
				<path class="st0" d="M51.1,60.5C51,60.6,51,60.6,51.1,60.5C51,60.6,51,60.6,51.1,60.5z"/>
				<path class="st0" d="M36.1,49.2L36.1,49.2C36.1,49.2,36.1,49.2,36.1,49.2L36.1,49.2z"/>
				<path class="st0" d="M65.8,42.1c-0.1,0.1-0.1,0.2-0.1,0.3C65.7,42.4,65.7,42.3,65.8,42.1z"/>
				<path class="st0" d="M66.5,33.6L66.5,33.6l0-0.2C66.5,33.5,66.5,33.5,66.5,33.6z"/>
				<path class="st0" d="M66.7,35C66.7,35,66.7,34.4,66.7,35C66.7,35,66.8,35.7,66.7,35z"/>
				<path class="st0" d="M61.9,48.6c-0.3,0.3-0.4,0.4-0.2,0.3c0.5-0.4,0.1-0.1,0.5-0.5C62.2,48.2,61.8,48.7,61.9,48.6z"/>
				<path class="st0" d="M61.9,48.6c0,0,0.1-0.1,0.1-0.2C61.9,48.5,61.9,48.5,61.9,48.6z"/>
				<path class="st0" d="M45.1,59.2L45.1,59.2c0,0-0.1-0.1-0.2-0.3L45.1,59.2z"/>
				<polygon class="st0" points="41.6,55 41.6,55.1 41.5,54.9 				"/>
				<path class="st0" d="M38.4,51.7c0.1,0.1,0.3,0.3,0.4,0.4C38.5,51.8,38.4,51.6,38.4,51.7z"/>
			</g>
			<g id="XMLID_221_">
				<g>
					<path id="XMLID_264_" class="st1" d="M52.6,43.4c-0.1,0-0.2-0.3-0.4-0.4c0-0.1,0-0.1,0-0.1c-0.1,0-0.1-0.1-0.1-0.2c0,0,0,0,0,0
						l0,0l0-0.1c0,0,0,0.1,0,0.1l0,0c0,0,0,0,0,0c0,0,0,0,0.1,0c0,0,0,0,0,0c0,0,0-0.1-0.1-0.1c-0.1-0.1-0.3-0.2-0.2-0.4l-0.1-0.1
						c0-0.1-0.1-0.2-0.1-0.3l0,0c0-0.1,0-0.1-0.1-0.1c0,0,0,0,0,0c0-0.1-0.1-0.2-0.1-0.3c0.1,0.1,0,0,0.1,0.1
						c-0.1-0.1,0-0.2-0.1-0.2c0-0.1,0-0.1,0-0.1c0,0,0,0,0,0c0,0-0.1-0.1-0.1-0.1c0-0.1-0.2-0.1-0.3-0.2c0,0,0.1,0,0.1,0
						c0-0.1-0.1,0-0.1-0.1c0,0,0,0,0,0l0,0c0,0,0,0,0,0c0,0,0-0.1-0.1-0.1c0,0-0.1-0.1-0.2,0c0-0.1-0.2-0.1-0.1-0.1
						c-0.1,0-0.1,0.1-0.2,0.1c-0.1,0-0.1,0-0.2-0.1c0,0-0.1,0-0.1,0l0.1,0c-0.2,0-0.2-0.1-0.4-0.1c0,0,0,0,0-0.1l-0.1,0
						c0,0,0.1,0,0.1-0.1c0,0,0,0,0,0c0,0,0,0,0,0c0,0-0.1,0-0.1,0c0,0-0.1,0-0.1,0l0-0.1c-0.1,0-0.2,0-0.4-0.1c0,0,0-0.1,0-0.2
						c0,0,0,0,0,0c0,0-0.1-0.1-0.1-0.1c0,0,0,0,0,0.1c0,0,0.1,0.1,0,0c0,0,0,0,0,0c0,0-0.1-0.1-0.1-0.2c0,0,0-0.1-0.1-0.1
						c0-0.1,0-0.1,0-0.1c0,0.1,0-0.1,0.1-0.1c0-0.1,0.1-0.1,0-0.1c0.1-0.1,0,0.1,0.1,0.1c0.1-0.1,0-0.3,0.1-0.2c0-0.1,0,0-0.1,0
						c0,0.1-0.1,0.1,0,0c0,0,0.1-0.1,0.1-0.1c0.1-0.2,0.3-0.3,0.4-0.5l0,0c0.1,0,0.2-0.2,0.2-0.2l0,0c0.1,0,0.1-0.2,0.1-0.1
						c0,0,0,0,0,0.1c0.1-0.1,0.1-0.1,0.2-0.2l0,0c0,0-0.1,0-0.1,0c0.1-0.1,0.1,0,0.2-0.1c0,0,0,0,0-0.1c0.2-0.1,0.1-0.1,0.2-0.3
						c0,0,0,0,0,0c0.1,0,0.1-0.1,0.1-0.1c0,0-0.1,0.1,0,0.1c0.1,0,0.1-0.1,0.1-0.1c0,0-0.1,0.1-0.1,0c0.1-0.2,0.2,0,0.3-0.3
						c0,0,0.2-0.1,0.2,0c0.1-0.1,0.1-0.1,0.2-0.1c0,0,0-0.1,0.1-0.1c0,0,0,0,0,0.1c0,0,0,0,0,0l0,0c0.1-0.1,0.3-0.1,0.4-0.1
						c0,0,0.1,0.1,0.1,0.1c0,0-0.1,0-0.1,0c0,0,0,0,0,0c0,0,0.1,0,0.1,0.1c0,0,0.1,0,0.1,0c-0.1-0.1,0.1,0.1,0-0.1
						c0,0.1,0.1,0.1,0.1,0.2c0,0,0,0.1-0.1,0.1c0,0,0,0,0,0c0,0,0.1,0.1,0.1,0.1c0.1,0.1,0-0.1,0.1-0.1c0,0.1-0.1,0,0,0.1l0.1,0
						c0,0.2,0.1,0.2,0.1,0.4c-0.1-0.1-0.1-0.1-0.1-0.2c0,0,0,0.1-0.1,0c0,0,0,0,0-0.1l0,0.1c0,0.1,0.1,0.2,0.1,0.3
						c0,0,0.1,0.2,0.1,0.2c0,0,0,0,0,0c0,0,0,0.1,0,0.1l0-0.1c0.1,0.1,0,0.2,0.1,0.2l0,0c0,0.1,0,0.2,0,0.3c-0.1,0-0.1,0.1-0.1,0.2
						c0-0.1,0.1,0,0.1,0c0-0.1-0.1-0.1-0.1-0.1c0,0,0,0.1,0,0c0.1,0.1,0,0.2,0.1,0.3l0,0c0,0,0,0.1,0,0.1c0-0.1,0.1,0,0.1,0l0,0
						c0.1,0.1,0.1,0.1,0.1,0.1c0.1,0.1,0,0,0,0l0.1,0c0,0.1,0,0,0,0c0.1,0,0.1,0,0.2,0c0,0,0,0.1,0,0.1c-0.1,0,0,0-0.1,0.1
						c0,0-0.1,0-0.1,0c0,0,0.1,0,0.1,0c0,0,0.1,0,0.2,0c0,0,0.1,0,0-0.1c0.1,0,0.1,0,0.2,0c-0.1,0-0.1,0-0.1-0.1c0,0,0,0,0,0
						c0,0,0,0,0,0c0,0,0.2,0.1,0.1,0.1c0.1,0,0.2,0,0.3,0c0,0,0,0,0,0c0,0,0,0,0,0c0,0,0,0,0,0c0,0,0.1,0,0.1,0.1
						c-0.1,0-0.2-0.1-0.2,0c0.1,0,0.2,0.1,0.4,0.2l0-0.1c0.1,0.1,0.2,0,0.3,0.1c0,0,0,0.1,0,0.1c0,0,0,0,0.1,0c0,0,0-0.1,0-0.1
						c0,0-0.1-0.1-0.1-0.1c0.1,0,0.1,0.1,0.1,0.1c0.1,0.1,0.2,0.2,0.3,0.3c0,0,0.1,0,0.1-0.1c0.1,0,0.1,0.1,0.1,0.1l0,0
						c0.1,0,0.1,0,0.1,0.1c0-0.1,0.2,0.1,0.2,0.1c0.1,0.1,0.3,0.3,0.5,0.4l-0.1,0c0.3,0.2,0.7,0.4,0.8,0.6c0,0-0.1-0.1-0.1-0.1
						c0,0,0.1,0.1,0.1,0.2c-0.1-0.1-0.1,0.1-0.1-0.1c0-0.1-0.1-0.2-0.1-0.2c0,0-0.1,0-0.1,0.1c-0.1-0.1-0.3-0.2-0.3-0.3
						c0,0,0.1,0,0.1,0.1c0,0-0.1-0.1-0.1-0.1l-0.1,0c-0.4-0.3-0.9-0.6-1.3-0.8c-0.1,0-0.2-0.1-0.4-0.1l0,0l0,0c0,0,0,0,0,0
						c-0.1-0.1-0.3-0.1-0.4-0.1c0.8,0.3,2.2,0.9,3.3,2.3c0.1,0.2,0.3,0.4,0.3,0.6c0-0.1,0.1-0.1,0.1-0.1l0.1,0.1
						c0,0-0.1,0.1-0.1,0.2c-0.1,0,0-0.2-0.1-0.2c0,0.1,0,0.2,0,0.2c0,0,0,0,0,0c0,0,0.1,0.1,0.1,0.2l0,0.1c0-0.1,0-0.1,0-0.1
						c0-0.1,0-0.1-0.1-0.1c0,0,0,0,0,0c0,0,0,0,0,0c0,0,0,0,0,0c0,0,0,0,0,0c0,0,0,0,0,0c0,0,0,0,0,0c0,0.1,0,0.2,0,0.3
						c0,0,0,0.1,0,0.1c0,0,0-0.1,0,0c0,0,0,0.1,0,0.1c0,0,0,0,0.1,0l0,0.1l-0.1,0c0,0.1,0,0.1,0,0.2c0,0,0-0.1,0-0.2
						c0,0.1,0,0.1,0,0.2c0,0,0,0,0,0c0,0,0,0.1,0,0.1c-0.1,0.5-0.5,1-1,1.3c0,0-0.1,0-0.1,0.1c-0.7,0.4-1.5,0.4-2.1,0c0,0,0,0,0,0
						c0,0,0,0,0,0C54.1,45,54,45,54,44.9c0,0,0,0,0,0c0,0,0,0,0,0.1c0,0-0.1,0-0.1-0.1l0,0c0-0.2-0.2-0.1-0.2-0.3
						c-0.1-0.1-0.1-0.1-0.2-0.2c0,0,0,0-0.1-0.1c0,0-0.1-0.1-0.1-0.1c0,0,0,0,0,0l0,0c0,0,0,0,0,0c-0.1,0-0.2-0.1-0.2-0.2
						C52.9,43.7,52.6,43.7,52.6,43.4L52.6,43.4c0,0,0-0.1-0.1-0.1C52.5,43.3,52.6,43.4,52.6,43.4z"/>
					<path id="XMLID_263_" class="st1" d="M46.9,40c0,0,0.1-0.1,0.2-0.2c-0.1,0-0.3,0.2-0.3,0.2c0.2-0.2,0-0.1,0.2-0.3
						c0.1,0,0.3-0.3,0.4-0.2c0.1-0.1,0-0.1-0.1-0.1c0.2-0.2,0.5-0.5,0.7-0.6c-0.1,0.1-0.1,0.1-0.1,0.1c0,0.1,0.1-0.1,0.2-0.1
						l0.1-0.2c0.8-0.7,1.6-1.5,2.4-2.2c0.2-0.2,0.4-0.4,0.6-0.6l0,0l0.1-0.1c0,0,0,0,0,0c0.2-0.2,0.5-0.4,0.7-0.7
						c-3.4,3.2-7.4,6.8-7.4,6.8c0,0,0,0.1,0.1,0.1c0,0,0-0.1,0-0.1c0,0,0.1,0,0.1,0c0,0,0,0,0,0.1c0,0,0.1,0.1,0.1,0.1
						c-0.1,0,0,0.2,0,0.4c0,0-0.1-0.4-0.2-0.4c0.1,0.2,0.2,0.4,0.2,0.6c0,0.1,0.1,0.2,0,0.5l-0.1,0.2c0-0.1,0.1-0.1,0.1-0.3
						c0.1-0.2,0-0.3,0-0.2c0,0,0,0,0,0c0,0,0,0,0,0c0,0,0,0,0,0c0,0,0,0.1,0,0.1c0,0,0-0.1,0-0.1c0,0,0,0,0,0c0,0.1-0.1,0.2-0.1,0.3
						c0,0,0,0.1,0,0.1l0,0c0,0,0,0,0-0.1c0,0.1-0.1,0.1-0.1,0.2c0,0.1,0,0.1,0,0.1c0,0,0-0.1,0,0c-0.1,0.1-0.1,0.2-0.2,0.3
						c0.1,0,0,0,0.2,0c0,0,0,0.1-0.1,0.1c0,0.1-0.1,0.1-0.1,0.1l0,0c-0.2,0.2-0.1,0.2-0.3,0.3c0-0.1,0.1-0.2,0.2-0.3
						c-0.1,0.1-0.2,0.2-0.3,0.3c0,0,0,0,0-0.1c-0.1,0.1-0.2,0.2-0.2,0.2c-1.5,1.3-2.5,0.3-2.5,0.3l1.3-1.3l-1-1l-1.3,1.3
						c-0.1-0.2-0.2-0.4-0.3-0.5c0,0,0,0,0,0c0,0,0,0,0-0.1c0-0.2-0.1-0.4,0-0.6c0,0,0,0.1,0,0.1c0-0.1,0-0.2,0-0.3l0,0
						c0.1-0.2,0.1-0.4,0.3-0.7c0.1-0.2,0.3-0.4,0.4-0.5c0,0,0.1-0.1,0.1-0.1c0,0,0.1-0.1,0.1-0.1c0.1-0.1,0.2-0.2,0.3-0.2
						c0,0,0.1-0.1,0.1-0.1l0,0c0,0,0,0,0.1,0c0.1-0.1,0.4-0.2,0.5-0.3c0.2,0,0.4,0,0.6,0c0.2,0,0.5,0.1,0.7,0.2c0,0,0,0,0,0
						c0.1,0,0.1,0.1,0.1,0.1c0-0.1,0.1-0.1,0.1-0.2c-0.1,0.1-0.1,0.1-0.2,0.2c0,0,0,0,0,0c0,0,0,0,0,0c0,0,0-0.1,0.1-0.1
						c0.1-0.1,0.1-0.2,0.2-0.2c0.1-0.2,0.3-0.4,0.4-0.5c0.1-0.1,0.1,0,0.2-0.2c0-0.1,0.2-0.2,0.3-0.4c0,0,0-0.1,0.1-0.1l0,0l0.2-0.1
						c0,0-0.1,0.1-0.1,0.1l0,0c0,0,0,0.1-0.1,0.1c0,0,0,0.1-0.1,0.1c0,0,0,0,0.1,0c0.1-0.1,0.1-0.2,0.2-0.2c0.1-0.2,0.3-0.6,0.6-0.7
						l0.1-0.2c0.2-0.1,0.3-0.3,0.5-0.5l0,0c0.1,0,0.2-0.2,0.2-0.3c0,0,0,0,0.1,0c0.2-0.2,0.3-0.4,0.4-0.5c-0.1,0.2,0,0-0.1,0.2
						c0.1-0.2,0.2-0.2,0.3-0.3c0.2-0.2,0.2-0.1,0.3-0.2c-0.1,0,0.1-0.2,0.1-0.3c0.2-0.1,0.3-0.4,0.5-0.6c0,0-0.1,0.1-0.1,0.1
						c0.1-0.1,0.1-0.1,0.2-0.2c0,0,0,0,0,0l0.1-0.1c0,0,0,0.1-0.1,0.1c0,0,0.1-0.1,0.2-0.2c0,0,0.3-0.3,0.3-0.4
						c0.1,0,0.3-0.3,0.4-0.2c0.2-0.2,0.2-0.3,0.3-0.4c0.1-0.1,0.2-0.2,0.3-0.2c0.1-0.1,0.1-0.2,0.1-0.2l-0.2,0.1
						c0.2-0.3,0.4-0.3,0.6-0.6c0,0.1,0.1-0.1,0.1,0l0.1-0.2c0,0,0,0.1,0,0.2c0,0,0,0,0,0c0,0,0.1-0.1,0.1-0.1c0,0,0.1-0.1,0.1-0.1
						c0,0,0.1-0.2,0.1-0.2l0,0c0.2-0.2,0.2-0.3,0.4-0.6c0,0,0.2-0.1,0.3-0.1c0.1-0.1,0.2-0.2,0.3-0.3c0,0,0,0-0.1,0.1
						c-0.1,0.1-0.1,0.1-0.1,0.1c0,0,0.1-0.1,0.1-0.1c0.1-0.1,0.2-0.2,0.3-0.2l0.3-0.4c0,0.1,0.2-0.2,0.2-0.1
						c0.1-0.1,0.2-0.1,0.2-0.2c0.1-0.1-0.2,0.2,0,0.1c0.2-0.2,0.3-0.4,0.4-0.4c0.2-0.3-0.5,0.4-0.2,0l0.2-0.1
						c0.2-0.3,0.6-0.6,0.9-0.9l0,0.1c0.2-0.1,0.4-0.3,0.5-0.4l0,0.1c0.1-0.1,0.2-0.3,0.3-0.3c-0.1,0.1-0.1,0.1-0.1,0.1
						c0.2-0.1,0.2-0.2,0.5-0.4c0,0,0.1-0.1,0.1-0.1c0,0-0.1,0-0.2,0c0.3-0.2,0.2-0.1,0.4-0.3c0,0,0,0,0,0c0,0,0-0.1,0.1-0.1
						c0.4-0.3,0.2-0.2,0.5-0.5c0,0,0,0,0,0c0.1-0.1,0.2-0.2,0.3-0.2c-0.1,0.1-0.1,0.1-0.1,0.2c0.1-0.1,0.2-0.2,0.3-0.3
						c0,0-0.2,0.1-0.1,0c0,0,0,0,0.1-0.1c0.1-0.1,0.3-0.1,0.3-0.1c0.1,0,0.1,0.1,0.2,0.1c0.1,0.1,0.2,0.1,0.4,0.2
						c0,0.1,0.2,0.3,0.2,0.3c0,0,0.1,0.1,0.1,0.1c0.1,0.1,0.2,0.2,0.3,0.3c0.1,0,0.1,0,0.2,0.1c0,0,0,0,0,0c0,0,0.1,0.1,0.1,0.1
						c0,0,0.1,0.1,0.1,0.2c-0.1,0.2-0.2,0.5-0.3,0.6c-0.1,0-0.2,0.2-0.2,0.1C57,30,57,30,57,30c0,0,0,0,0,0c0,0.1-0.1,0.1-0.2,0.2
						c0,0.1-0.1,0.1-0.1,0.1c0.2-0.2-0.2,0.2,0.1,0c-0.1,0.1-0.2,0.2-0.3,0.2c0,0-0.1,0-0.1-0.1c0,0,0,0-0.1,0.1
						c0,0.1-0.1,0.2-0.2,0.2c-0.1,0.2,0.2-0.1,0.1,0.1c-0.1,0.1,0-0.1-0.1,0l0,0.2c-0.3,0.3-0.2,0.3-0.5,0.6
						c0.1-0.2,0.1-0.2,0.3-0.4c-0.1,0-0.1,0.1-0.1,0c0,0,0.1,0,0.1-0.1l-0.2,0.1c-0.1,0.1-0.2,0.2-0.2,0.3c-0.1,0.1-0.1,0.1-0.2,0.2
						c-0.1,0.1-0.2,0.3-0.2,0.3c0,0,0,0,0,0C55.2,32,55.2,32,55.2,32l0.1-0.1c-0.1,0.2-0.3,0.3-0.3,0.3l0,0
						c-0.2,0.2-0.3,0.3-0.5,0.5c-0.1,0-0.3,0.2-0.5,0.3c0.2-0.1,0,0.1,0,0.1c0.1-0.1,0.1-0.2,0.3-0.3c0,0-0.1,0.1,0,0.1
						c-0.3,0.3-0.4,0.4-0.7,0.6l0,0l-0.1,0.1c0.1,0-0.1,0.1-0.1,0.2l0,0c-0.1,0.1-0.2,0.2-0.2,0.3c-0.2,0.1,0-0.1-0.1,0L53,34.2
						c-0.1,0.1,0.1-0.1-0.1,0c-0.1,0.1-0.2,0.2-0.3,0.4c0,0,0-0.1-0.1,0c0.2-0.2,0-0.1,0-0.1c0.1-0.1,0.1-0.1,0.2-0.2
						c-0.2,0.1-0.3,0.3-0.5,0.4c0,0-0.1,0.1,0.1,0c-0.1,0.1-0.2,0.2-0.2,0.3c0.1-0.1,0.2-0.2,0.2-0.2c0,0,0,0,0,0c0,0,0,0,0,0
						c-0.1,0.1-0.4,0.3-0.3,0.2c-0.1,0.1-0.2,0.3-0.3,0.4c0,0,0,0,0,0c0,0-0.1,0.1-0.1,0.1c0,0,0,0,0-0.1c0,0-0.1,0.1-0.2,0.1
						c0.1-0.1,0.4-0.4,0.2-0.3c-0.2,0.2-0.4,0.3-0.6,0.5l0.1,0c-0.2,0.1-0.2,0.3-0.4,0.4c0,0,0-0.1-0.1,0c0,0,0,0-0.1,0.1
						c0.1,0,0.1,0,0.1,0c0.1-0.1,0.1-0.1,0.2-0.1c-0.1,0.1-0.2,0.1-0.2,0.1c-0.2,0.1-0.4,0.3-0.7,0.4c0,0.1-0.1,0.2,0,0.1
						C50,37.1,50,37,49.8,37.1l0,0c-0.1,0.1-0.1,0.1-0.2,0.2c0.1,0-0.4,0.4-0.3,0.4c-0.3,0.1-0.7,0.6-1,0.8l0-0.1
						C47.9,39,47.3,39.7,46.9,40z"/>
					<path id="XMLID_262_" class="st1" d="M46.1,40.7c0.1-0.1,0.1-0.1,0.2-0.2c-0.2,0.1,0.2-0.2-0.2,0c-0.1,0.1-0.2,0.3-0.4,0.4
						c0,0,0-0.1,0-0.1c0,0,0,0,0.1,0l0.2-0.2c0.3-0.3,0.4-0.4,0.6-0.4l-0.1,0.1c0.1-0.1,0.1-0.1,0.1-0.1c0,0,0-0.1,0.1-0.1
						c0,0,0,0.1-0.1,0.1C46.5,40.3,46.3,40.6,46.1,40.7z"/>
					<path id="XMLID_261_" class="st1" d="M45.6,41c0.1-0.1,0.1-0.1,0.1-0.1C45.7,40.9,45.7,40.9,45.6,41z"/>
					<polygon id="XMLID_260_" class="st1" points="45.7,41.1 45.6,41.1 45.6,41.1 					"/>
					<path id="XMLID_259_" class="st1" d="M46.5,40.2c0,0,0.1-0.1,0.1-0.1l0.1,0L46.5,40.2z"/>
					<path id="XMLID_258_" class="st1" d="M44.8,41.8c-0.1,0-0.1,0.1-0.2,0.2l-0.1,0L44.8,41.8c0-0.1,0.1-0.2,0.2-0.3
						c0.1,0-0.2,0.2-0.1,0.2c0.2-0.1,0.2-0.2,0.3-0.4c-0.1,0.1-0.1,0.1-0.1,0.2l0.4-0.4c-0.1,0.2,0,0.2-0.2,0.4
						c-0.2,0.2-0.5,0.3-0.6,0.4C44.8,41.9,44.9,41.8,44.8,41.8z"/>
					<path id="XMLID_257_" class="st1" d="M44.3,43.9C44.3,43.9,44.3,43.9,44.3,43.9C44.3,43.8,44.3,43.9,44.3,43.9z"/>
					<path id="XMLID_256_" class="st1" d="M40.5,28.8C40.5,28.8,40.5,28.9,40.5,28.8C40.6,28.9,40.6,28.9,40.5,28.8L40.5,28.8
						C40.6,28.8,40.6,28.8,40.5,28.8C40.6,28.8,40.6,28.8,40.5,28.8l0.9-0.9c0.1-0.1,0.2-0.1,0.2,0l1.4,1c0,0,0,0,0,0c0,0,0,0,0,0
						l0.2,0.1c0,0,0,0,0,0c0,0,0.1,0,0.1,0l0,0c0,0.1,0.1,0.1,0.2,0.2l0.2,0.1c0,0,0,0,0.1,0l0,0c0,0,0.1,0.1,0.1,0.1c0,0,0,0,0,0
						l0,0c0,0,0,0,0,0l0,0c0,0.1,0.1,0.1,0.1,0.2c-0.1,0.2,0.1,0.3,0,0.5l-0.1,0l0,0.1c0,0,0,0,0,0c0,0,0-0.1,0-0.1
						c0.1,0,0,0.3,0.2,0.4c0,0-0.1,0.1,0,0.1c0.1,0,0.1,0.1,0.1,0.1c0,0,0,0,0,0l0,0l0,0.1c0,0,0,0,0-0.1l0,0c0,0,0,0,0,0
						c0,0,0,0-0.1,0c0,0,0,0,0,0c0,0,0,0.1,0.1,0.1c0.1,0,0.3,0.1,0.3,0.2l0.1,0c0,0.1,0.1,0.1,0.1,0.2l0,0c0,0.1,0.1,0.1,0.1,0.1
						c0,0,0,0,0,0c0.1,0.1,0.2,0.1,0.2,0.2c-0.1,0,0,0-0.1,0c0.1,0,0.1,0.1,0.1,0.1c0.1,0.1,0,0.1,0,0.1c0-0.1,0.1,0,0.2,0
						c0,0.1,0.2,0.1,0.2,0.2c0,0,0,0-0.1,0c0,0.1,0,0,0.1,0.1c0,0,0,0,0,0l0,0c0,0,0,0,0,0c0,0,0,0.1,0.1,0.1c0,0,0.1,0.1,0.2,0.1
						c0,0,0.1,0.1,0,0.2c0.1,0.1,0.1,0,0.2,0.1c0,0.1,0.1,0.1,0,0.1c0,0,0.1,0.1,0.1,0l0-0.1c0.1,0.1,0.1,0.2,0.2,0.2c0,0,0,0,0,0
						l0.1,0c0,0-0.1,0-0.1,0l0,0c0,0,0,0,0,0l0,0c0,0,0.1,0,0.1,0l0,0c0.1,0,0.2,0.1,0.3,0.1c0,0,0,0.1,0,0.1l0.1,0.1c0,0,0,0,0-0.1
						c0,0-0.1,0,0,0c0,0,0,0,0,0c0,0,0.1,0.1,0.1,0.1l0.2,0.1c-0.1,0,0.1,0.1,0,0.1c0.1,0,0,0.1,0.1,0.1c0,0.1-0.1-0.1-0.1,0
						c0,0.1,0.2,0.1,0.1,0.1c0.2,0-0.1-0.2,0-0.1l0,0.1c0.1,0,0.1,0.1,0.2,0.1c0.1,0.1,0.1,0.2,0.1,0.3l0,0
						c-0.1,0.1-0.2,0.2-0.2,0.2l0,0c-0.1,0-0.1,0.2-0.1,0.1c0,0,0,0,0,0c-0.1,0-0.1,0.1-0.2,0.2l0,0c0,0,0.1,0,0.1,0
						C47,35,47.1,35,46.9,35c0,0,0,0.1,0,0.1c-0.1,0.1-0.2,0-0.2,0c0,0-0.1,0-0.2-0.1c0,0,0,0,0,0c0-0.1-0.1-0.1-0.1-0.1
						c0,0,0,0,0.1,0c0,0-0.1-0.1-0.1-0.1c0,0,0,0.1,0,0.1c-0.1-0.1,0-0.2-0.2-0.3c0,0,0-0.1,0-0.2L46,34.5c0,0-0.1,0-0.1,0
						c0,0,0,0,0,0l-0.1,0c-0.1,0-0.2-0.1-0.3-0.2c0,0-0.1-0.1,0-0.1c0,0,0,0,0.1,0c0,0,0,0,0,0L45.6,34c0,0-0.1,0-0.1,0
						c0,0.1-0.1-0.1,0,0.1c0,0-0.1-0.1-0.1-0.1c0,0,0-0.1,0.1-0.1l0,0c0,0-0.1,0-0.1-0.1c-0.1,0,0,0.1-0.1,0.1c0-0.1,0.1,0,0-0.1
						l-0.1,0c-0.1-0.2-0.1-0.1-0.2-0.2c0.1,0,0.1,0,0.1,0.1c0,0,0-0.1,0.1-0.1c0,0,0,0,0,0.1l0-0.1l-0.2-0.2c0,0-0.1-0.1-0.1,0
						c0,0,0,0,0,0c0,0-0.1,0-0.1,0l0,0.1c-0.1,0-0.1-0.1-0.1-0.1l0,0c-0.1-0.1-0.1-0.1-0.2-0.2c0-0.1-0.1-0.1-0.1-0.2
						c0,0.1-0.1,0-0.1,0.1c0.1,0,0.1,0,0.1,0.1c0,0-0.1,0,0,0c-0.2-0.1-0.1-0.2-0.2-0.3l0,0l0-0.1c0,0.1-0.1,0-0.1,0l0,0
						c0,0-0.1-0.1-0.1-0.1c-0.1-0.1,0,0,0,0l-0.1,0c0-0.1,0,0,0,0c-0.1,0-0.1-0.1-0.2-0.1c0,0,0.1,0,0-0.1c0.1,0.1,0.1,0,0.1,0
						c0,0,0.1,0,0.1,0.1l-0.2-0.2c0,0-0.1,0,0,0.1c0,0-0.1-0.1-0.1,0c0,0,0.1,0.1,0,0.1c0,0-0.1-0.1,0-0.1c-0.1,0-0.2-0.1-0.2-0.1
						c0,0,0,0,0,0c0,0,0,0,0,0c0,0,0,0,0,0c0,0,0-0.1,0-0.1c0.1,0,0.2,0.1,0.2,0c-0.1-0.1-0.1-0.2-0.2-0.2l0,0c0-0.1-0.1,0-0.2-0.1
						c0,0,0.1-0.1,0-0.1c0,0,0,0-0.1,0c0,0,0,0,0,0.1c0,0,0,0.1,0,0.1c0,0,0-0.1,0-0.1c0-0.1-0.1-0.2-0.2-0.2c0,0,0,0,0,0
						c0,0-0.1,0-0.1,0.1c-0.1,0,0-0.1-0.1-0.1l0,0c0,0-0.1,0-0.1,0c0,0.1-0.2,0-0.2,0c-0.1-0.1-0.2-0.1-0.4-0.1c0,0-0.1,0-0.1,0
						l0.1,0c-0.1,0-0.2-0.1-0.2-0.2c0-0.1-0.1-0.1-0.1-0.2c-0.1-0.1-0.2-0.2-0.2-0.3c0,0,0,0.1,0.1,0.1c0,0-0.1-0.1,0-0.1
						c0,0.1,0.1,0,0.1,0.1c-0.1,0.1,0.1,0.1,0,0.2c0,0,0.1,0,0.1,0c0,0.1,0.2,0.2,0.2,0.3c0,0,0,0,0-0.1c0,0,0,0.1,0,0.1l0.1,0
						c0,0.1,0.1,0.1,0.1,0.1c0.2,0,0.4,0.1,0.5,0.1c0.1,0,0.2,0,0.3,0.1c0,0,0,0,0,0c0,0,0,0,0,0c0,0,0.1,0,0.1,0.1
						c0.1,0,0.2,0.1,0.2,0.2l0,0l0,0c0,0,0,0,0,0c0,0.1,0.2,0.2,0.3,0.2l-0.3-0.3c-0.2-0.1-0.3-0.3-0.6-0.3l-0.6-0.1
						c-0.1,0-0.1,0-0.1-0.1l-1-1.6c0,0.1,0,0.1-0.1,0.1l-0.1-0.1c0,0,0.1-0.1,0-0.2c0.1,0,0.1,0.1,0.1,0.1l-0.1-0.2
						c0,0-0.1,0-0.2-0.1l0-0.1c0.1,0,0,0,0.1,0.1c0,0.1,0.1,0.1,0.1,0c0,0,0,0,0,0l0,0c0,0,0,0,0,0c0,0,0,0,0,0l-0.1-0.1l0,0l0,0
						l0,0l0-0.1l-0.1,0c0,0,0.1,0,0,0l-0.1-0.1c0,0,0,0-0.1,0.1l-0.1-0.1l0,0C40.5,29,40.4,29,40.5,28.8c0,0.1,0,0.2,0,0.2
						C40.5,29,40.5,28.9,40.5,28.8z"/>
					<polygon id="XMLID_255_" class="st1" points="43.9,29.5 43.9,29.5 43.9,29.5 					"/>
					<path id="XMLID_254_" class="st1" d="M43.9,29.4C44,29.5,44,29.5,43.9,29.4C44,29.5,43.9,29.5,43.9,29.4z"/>
					<path id="XMLID_253_" class="st1" d="M56.8,28.4C56.8,28.4,56.9,28.5,56.8,28.4C56.9,28.5,56.8,28.5,56.8,28.4L56.8,28.4z"/>
					<polygon id="XMLID_252_" class="st1" points="46.1,34.6 46.1,34.6 46.1,34.6 					"/>
					<path id="XMLID_251_" class="st1" d="M45.8,34.3L45.8,34.3C45.7,34.3,45.7,34.3,45.8,34.3L45.8,34.3z"/>
					<polygon id="XMLID_250_" class="st1" points="45.1,33.7 45.1,33.6 45.1,33.6 					"/>
					<polygon id="XMLID_249_" class="st1" points="43.7,32.4 43.7,32.4 43.6,32.4 					"/>
					<path id="XMLID_248_" class="st1" d="M42.6,31.7C42.7,31.7,42.7,31.7,42.6,31.7C42.7,31.7,42.7,31.7,42.6,31.7z"/>
					<path id="XMLID_247_" class="st1" d="M41.5,30.7c0,0-0.2-0.1-0.2-0.2c0,0.1,0,0.1,0,0.1c0-0.1,0.1,0,0.1-0.1
						c0,0-0.2-0.1-0.1-0.1c0,0,0.1,0,0.1,0c0,0,0,0,0,0l0.1,0.1C41.5,30.6,41.5,30.6,41.5,30.7L41.5,30.7
						C41.5,30.7,41.5,30.7,41.5,30.7z"/>
					<path id="XMLID_246_" class="st1" d="M41.1,30.2C41,30.1,41,30,41,29.9c0,0,0,0,0.1,0c0,0-0.1,0-0.1-0.1l0-0.1l0,0.1
						c0.1,0,0.1,0.1,0.2,0.1c0,0.1-0.1-0.1-0.1,0c0,0.1,0.1,0.1,0.1,0.1C41.2,30.1,41.1,30.1,41.1,30.2l0.2,0.1
						C41.2,30.2,41.1,30.3,41.1,30.2z"/>
					<polygon id="XMLID_245_" class="st1" points="41.2,30.3 41.2,30.3 41.2,30.3 					"/>
					<path id="XMLID_244_" class="st1" d="M41.3,30.3C41.4,30.3,41.4,30.3,41.3,30.3C41.4,30.3,41.4,30.3,41.3,30.3z"/>
					<path id="XMLID_243_" class="st1" d="M41.5,30.7C41.6,30.7,41.6,30.7,41.5,30.7L41.5,30.7L41.5,30.7z"/>
					<path id="XMLID_242_" class="st1" d="M40.7,41c0.1-0.1,0.1-0.1,0.2-0.1C40.9,40.9,40.8,41,40.7,41z"/>
					<polygon id="XMLID_241_" class="st1" points="40.8,40.9 40.8,41 40.7,41 					"/>
					<path id="XMLID_240_" class="st1" d="M40.6,29.1C40.7,29.2,40.6,29.2,40.6,29.1C40.6,29.1,40.6,29.1,40.6,29.1z"/>
					<path id="XMLID_239_" class="st1" d="M57.4,42.2L57.4,42.2L57.4,42.2c-0.1-0.1-0.2-0.2-0.2-0.2c0-0.1,0.1,0.1,0.1,0.1
						c0-0.1-0.1-0.1-0.2-0.2c0,0,0.1,0,0.1,0c0,0-0.2-0.2-0.2-0.2c0.1,0.1,0.2-0.1,0.3,0.1C57.4,41.9,57.4,42.1,57.4,42.2
						c0-0.1,0-0.1-0.1-0.1C57.3,42.2,57.4,42.2,57.4,42.2z"/>
					<polygon id="XMLID_238_" class="st1" points="57.1,41.7 57.1,41.6 57.1,41.7 					"/>
					<path id="XMLID_237_" class="st1" d="M57.3,29.8C57.3,29.8,57.3,29.7,57.3,29.8l0.1-0.2c0,0,0,0.1-0.1,0.1
						C57.3,29.7,57.3,29.8,57.3,29.8z"/>
					<path id="XMLID_236_" class="st1" d="M56.9,41.6C56.9,41.6,56.9,41.6,56.9,41.6l-0.1-0.1c-0.1-0.1-0.2-0.2-0.2-0.3l0.1,0
						c0,0,0,0,0-0.1c0.1,0,0.2,0.1,0.3,0.2c0-0.1,0-0.1-0.1-0.1c0,0.1-0.1,0,0,0.1C56.9,41.5,57,41.5,56.9,41.6
						C57,41.6,56.9,41.6,56.9,41.6z"/>
					<path id="XMLID_235_" class="st1" d="M57,41.7C56.9,41.7,56.9,41.7,57,41.7C56.9,41.6,56.9,41.7,57,41.7z"/>
					<path id="XMLID_234_" class="st1" d="M56.6,41.3C56.6,41.3,56.6,41.3,56.6,41.3L56.6,41.3L56.6,41.3z"/>
					<polygon id="XMLID_233_" class="st1" points="55.7,31.5 55.7,31.5 55.8,31.4 					"/>
					<path id="XMLID_232_" class="st1" d="M55.2,40C55.2,40,55.2,40,55.2,40C55.1,40,55.1,40,55.2,40z"/>
					<polygon id="XMLID_231_" class="st1" points="53.7,39.3 53.5,39.3 53.6,39.3 					"/>
					<polygon id="XMLID_230_" class="st1" points="52.3,35 52.2,35 52.1,35.2 					"/>
					<path id="XMLID_229_" class="st1" d="M51.8,36.8C51.8,36.8,51.8,36.8,51.8,36.8l-0.1,0C51.7,36.8,51.8,36.8,51.8,36.8z"/>
					<polygon id="XMLID_228_" class="st1" points="51.1,36.9 51.1,37 51.1,37 					"/>
					<path id="XMLID_227_" class="st1" d="M49.6,37.5C49.7,37.4,49.7,37.5,49.6,37.5C49.6,37.5,49.6,37.5,49.6,37.5z"/>
					<polygon id="XMLID_226_" class="st1" points="52.6,37.7 52.5,37.7 52.5,37.6 					"/>
					<polygon id="XMLID_225_" class="st1" points="57.5,43.1 57.5,43.1 57.4,43 					"/>
					<path id="XMLID_224_" class="st1" d="M57.5,43.3C57.5,43.3,57.5,43.3,57.5,43.3C57.5,43.2,57.5,43.3,57.5,43.3z"/>
					<polygon id="XMLID_223_" class="st1" points="53.3,44.2 53.3,44.2 53.3,44.3 					"/>
					<path id="XMLID_222_" class="st1" d="M53.3,44.3C53.2,44.3,53.2,44.2,53.3,44.3C53.2,44.2,53.3,44.3,53.3,44.3z"/>
				</g>
			</g>
		</g>
	</g>
</g>
</svg>
