<?xml version="1.0" encoding="utf-8"?>
<!-- Generator: Adobe Illustrator 22.0.1, SVG Export Plug-In . SVG Version: 6.00 Build 0)  -->
<svg version="1.1" id="圖層_1" xmlns="http://www.w3.org/2000/svg" xmlns:xlink="http://www.w3.org/1999/xlink" x="0px" y="0px"
	 viewBox="0 0 767.8 924.9" style="enable-background:new 0 0 767.8 924.9;" xml:space="preserve">
<style type="text/css">
	.st0{clip-path:url(#SVGID_2_);fill:url(#XMLID_2_);}
</style>
<g>
	<g>
		<defs>
			<rect id="SVGID_1_" x="-0.2" y="0.3" width="768" height="925.1"/>
		</defs>
		<clipPath id="SVGID_2_">
			<use xlink:href="#SVGID_1_"  style="overflow:visible;"/>
		</clipPath>
		
			<linearGradient id="XMLID_2_" gradientUnits="userSpaceOnUse" x1="385.3147" y1="-126.2984" x2="388.7033" y2="975.0233" gradientTransform="matrix(1 0 0 -1 0 926)">
			<stop  offset="5.036036e-02" style="stop-color:#FFFFFF"/>
			<stop  offset="8.220573e-02" style="stop-color:#E2F5ED"/>
			<stop  offset="0.1498" style="stop-color:#AAE2CA"/>
			<stop  offset="0.2178" style="stop-color:#7AD1AC"/>
			<stop  offset="0.2848" style="stop-color:#53C493"/>
			<stop  offset="0.3504" style="stop-color:#34B980"/>
			<stop  offset="0.4145" style="stop-color:#1FB272"/>
			<stop  offset="0.4761" style="stop-color:#11AE6A"/>
			<stop  offset="0.5326" style="stop-color:#0DAC67"/>
			<stop  offset="0.6266" style="stop-color:#10AD69"/>
			<stop  offset="0.689" style="stop-color:#19B06E"/>
			<stop  offset="0.7423" style="stop-color:#28B578"/>
			<stop  offset="0.7904" style="stop-color:#3DBC85"/>
			<stop  offset="0.835" style="stop-color:#59C696"/>
			<stop  offset="0.8771" style="stop-color:#7AD2AC"/>
			<stop  offset="0.9172" style="stop-color:#A3DFC5"/>
			<stop  offset="0.9547" style="stop-color:#D0EFE2"/>
			<stop  offset="0.9878" style="stop-color:#FFFFFF"/>
		</linearGradient>
		<path id="XMLID_302_" class="st0" d="M231.7,162.5c-5.1-7.3-7.8-15.8-7.8-24.7V44.7l219.3-153.5l48.5,69.2
			c8.2,11.7,20.5,19.5,34.6,22s28.3-0.7,40-8.9l431.2-301.9c9.4-6.6,20.8-9.1,32.1-7.1c11.3,2,21.1,8.3,27.7,17.6l10.8,15.4
			l-77,53.9C966.9-231.7,961-198.2,978-174l54.6,77.9c13.6,19.4,8.8,46.2-10.5,59.8l-66.5,46.5c-24.2,16.9-30.1,50.4-13.1,74.6
			L1023,200H257.9L231.7,162.5z M535.3,352.9v68.4H470v-68.4H535.3z M470,342.3v-90.7h22.3c23.7,0,42.9,19.2,42.9,42.9v47.8H470z
			 M535.3,432v74.8H470V432H535.3z M535.3,517.4v38.4H470v-38.4H535.3z M535.3,566.4v92c0,7-5.7,12.8-12.8,12.8H470V566.4H535.3z
			 M522.5,681.8c12.9,0,23.4-10.5,23.4-23.4v-92h22.9v76.2L493.5,751L470,717.3v-35.5H522.5z M568.8,432v74.8h-22.9V432H568.8z
			 M545.9,421.3v-68.4h33.7c-7,9.2-10.9,20.5-10.9,32.3v36.1H545.9z M568.8,517.4v38.4h-22.9v-38.4H568.8z M602,613.2l109.9,156.9
			l-102.7-33.3l-46.7-66.7L602,613.2z M579.4,627.2v-60.8h42.2L579.4,627.2z M579.4,555.7v-38.4h76.2L629,555.7H579.4z M579.4,506.8
			V432h135.4L663,506.8H579.4z M579.4,421.3v-36.1c0-12.5,5.4-24.2,14.7-32.3h151v53L729,417.4c-1.7,1.2-3.4,2.6-4.9,4H579.4V421.3z
			 M608.8,342.3L745,246.9v95.4H608.8z M591.6,341.4c-0.4,0.3-0.8,0.6-1.2,0.9h-44.5v-47.8c0-29.5-24-53.5-53.5-53.5H470v-26.6h303
			L591.6,341.4z M100,548.2c9,12.8,18.8,26.9,28.6,41L-49.6,713.9L-164.3,550c-5.1-7.3-7.8-15.8-7.8-24.6V320.5H48.8l93.1,133.1
			l-28.7,20.1C89,490.6,83.1,524,100,548.2z M108.7,542.1c-13.5-19.4-8.8-46.1,10.6-59.7l72.1-50.5h87.4v31.9
			c0,29.5,24,53.5,53.5,53.5h11.9l18.3,26.2c10,14.3,26.4,22.8,43.9,22.8h36v92c0,10.7,7.2,19.7,17,22.5V702l-59.9-86
			c-10-14.4-25.1-24-42.4-27.1s-34.7,0.8-49.1,10.9L236.6,650c-9.4,6.6-20.8,9.1-32.1,7.1s-21.2-8.3-27.7-17.7
			C157,611.3,130.3,573,108.7,542.1z M206.5,421.3l72.2-50.6v50.6H206.5z M314.5,280.3l-20.2-28.7h32.6v169.8h-37.5v-58l12-8.4
			c11.7-8.2,19.5-20.5,22-34.6C325.9,306.2,322.7,292,314.5,280.3z M286.8,241l-18.7-26.6h58.7V241H286.8z M442.4,432v74.8H332.3
			c-23.7,0-42.9-19.2-42.9-42.9V432H442.4z M392.8,251.6v90.7h-55.3v-90.7L392.8,251.6L392.8,251.6z M337.5,241v-26.6h55.3V241
			H337.5z M392.8,352.9v68.4h-55.3v-68.4H392.8z M442.4,251.6v90.7h-39v-90.7L442.4,251.6L442.4,251.6z M403.4,241v-26.6h39V241
			H403.4z M442.4,352.9v68.4h-39v-68.4H442.4z M442.4,517.4v38.4h-36c-14,0-27.1-6.8-35.1-18.3l-14-20.1L442.4,517.4L442.4,517.4z
			 M453,658.4v-92h6.3v103.1C455.6,667.2,453,663.1,453,658.4z M453,555.7v-38.4h6.3v38.4H453z M453,506.8V432h6.3v74.8H453z
			 M453,421.3v-68.4h6.3v68.4H453z M453,342.3v-90.7h6.3v90.7H453z M453,241v-26.6h6.3V241H453z M255.2,214.4l50.6,72
			c6.6,9.4,9.1,20.8,7.1,32.1c-2,11.3-8.3,21.1-17.6,27.7L150.6,447.5L-12.5,214.4H255.2z M-310.7,309.9l-64.7-95.5h349.9l66.8,95.5
			H-310.7z M-201.4,820.2c-0.6-1-1.2-2-1.9-3l-97.1-138.7c-5.1-7.3-7.8-15.8-7.8-24.6V320.5h125.5v204.9c0,11,3.3,21.7,9.7,30.7
			L-58.3,720L-201.4,820.2z M265.4,989.5H107.3c-23.7,0-42.9-19.2-42.9-42.9v-65.4l198.9-139.3c9.4-6.6,20.8-9.1,32.1-7.1
			c11.3,2,21.1,8.3,27.7,17.7l67.6,97c13.5,19.4,8.7,46.1-10.6,59.7L265.4,989.5z M437.1,989.5H284l102.2-71.7
			c24.1-16.9,30-50.3,13.2-74.4l-67.6-97c-8.2-11.8-20.5-19.6-34.6-22.1s-28.3,0.6-40.1,8.9L60.4,871L-43.5,722.6l178.2-124.8
			c11.8,17,23.5,33.6,33.3,47.7c8.2,11.8,20.5,19.6,34.6,22.1s28.3-0.7,40.1-8.9l71.4-50.2c12-8.5,26.7-11.7,41.2-9.1
			c14.5,2.6,27.1,10.6,35.5,22.7l150.7,216.3c17.3,24.8,11.2,59-13.5,76.4l-71.8,50.4C447.2,971.5,440.8,980,437.1,989.5z
			 M603.3,989.5H448.8c3.1-6,7.6-11.4,13.5-15.5l71.8-50.4c18-12.6,27.6-32.7,27.8-53.2h41.4V989.5z M667.3,1056.1L614,1094v-96.4
			l53.3-37.5V1056.1z M667.3,947.1L614,984.6V870.4h53.3V947.1z M667.3,859.7H561.1c-1.5-9.6-5.1-18.9-11-27.4l-50.1-72l56.1-80.8
			l103.5,147.8c5.1,7.2,7.8,15.8,7.8,24.6L667.3,859.7L667.3,859.7z M768.7,961.9c0,13.9-6.7,26.9-18.1,35l-72.7,51.7v-95.9
			l90.7-63.7L768.7,961.9L768.7,961.9z M768.7,875.9L678,939.6v-87.7c0-11-3.3-21.7-9.7-30.7l-48.9-69.9L722,784.6l38.9,55.5
			c5.1,7.2,7.8,15.8,7.8,24.6V875.9z M779.3,868.5v-3.7c0-11-3.3-21.7-9.7-30.7l-30.8-44l104.1,33.7L779.3,868.5z M853.7,816.1
			l-125-40.5L608.5,603.9l26-37.5H706c14,0,27.1,6.8,35.1,18.3l121.3,172.9C875.7,776.4,871.6,802.1,853.7,816.1z M1003.1,689.1
			v175.4l-137.7-44.6c17.9-18,20.9-46.9,5.8-68.4L749.9,578.6c-10-14.3-26.4-22.8-43.9-22.8h-64.1l82.5-119
			c2.9-4.2,6.5-7.8,10.7-10.7L878.6,324c7.2-5.1,15.8-7.8,24.6-7.8H1125v119.2c0,11,3.3,21.7,9.7,30.7l48.4,69.1l-157.2,110.1
			C1011.6,655.2,1003.1,671.6,1003.1,689.1z M1185.2,546.7V832l-37.4,26.2c-11,7.7-25.1,9.8-37.8,5.7l-96.2-31.2V689.1
			c0-14,6.8-27.1,18.3-35.1L1185.2,546.7z M1356,782.1l-174.5,122.2c-11,7.7-25.1,9.8-37.8,5.7l-129.9-42.1v-24l92.9,30.1
			c5.3,1.7,10.9,2.6,16.4,2.6c10.9,0,21.7-3.3,30.8-9.7L1329.3,744L1356,782.1z M1323.2,735.3l-127.4,89.2V553.3L1323.2,735.3z
			 M1189.9,526.3l-46.4-66.3c-5.1-7.3-7.8-15.8-7.8-24.6v-119c12.3,1.3,23.5,7.8,30.7,18l71.5,102.1L1189.9,526.3z M1261.7,391.9
			l-1.5,2.7l-16.7,31.3l-68.4-97.6c-10-14.3-26.4-22.8-43.9-22.8h-228c-11,0-21.7,3.3-30.7,9.7l-116.8,83.1V239.5l35.8-25.1h565
			L1261.7,391.9z M1406.6,120.7l-42.3,79.2h-328.4L951,78.8c-13.6-19.4-8.8-46.2,10.5-59.8l66.5-46.5c24.2-16.9,30.1-50.4,13.1-74.6
			L986.6-180c-13.6-19.4-8.8-46.2,10.5-59.8l77-53.9l16.4,23.4c7.4,10.6,22,13.1,32.6,5.7l40-28c5.8-4,13.7-2.6,17.8,3.1
			l225.7,321.2V13.2l-217-308.8c-7.4-10.5-22-13.1-32.6-5.7l-40,28c-5.8,4-13.7,2.6-17.8-3.1l-33.3-47.5
			c-8.2-11.7-20.5-19.5-34.6-22s-28.3,0.7-40,8.9L560.2-35.1c-9.4,6.6-20.8,9.1-32.1,7.1s-21.1-8.3-27.7-17.6l-48.5-69.2l116.5-81.5
			c14.3-10,22.8-26.4,22.8-43.9V-786l113.4,35.2c5.1,1.6,10.5,2.4,15.8,2.4c10.9,0,21.8-3.3,30.9-9.7l227.4-159.6h-18.6l-215,150.9
			c-10.8,7.6-24.8,9.8-37.4,5.9L203.4-917.8h-36.1l413.3,128.4v549.1c0,14-6.8,27.1-18.3,35.1l-338.4,237V-210
			c0-29.5-24-53.5-53.5-53.5h-218c-14,0-27.1-6.8-35.1-18.3l-357.1-510l-8.7,6.1l357.1,510c10,14.3,26.4,22.8,43.9,22.8h218
			c23.7,0,42.9,19.2,42.9,42.9V39.3L80.9,132c-19.4,13.6-46.2,8.8-59.8-10.5l-488.5-698c-8.2-11.7-20.5-19.5-34.6-22
			c-14.1-2.5-28.3,0.7-40,8.9l-88.4,61.9l6.1,8.7l88.4-61.9c9.4-6.6,20.8-9.1,32.1-7.1c11.3,2,21.1,8.3,27.7,17.7l283.9,405.7
			L-327-70.3c-32.6,22.9-77.8,14.9-100.7-17.7l-199.7-285.4v18.7l191,272.8c16.1,23,41.9,35.3,68,35.3c16.4,0,33-4.9,47.4-15
			l134.8-94.4L12.4,127.6c10.4,14.9,27,22.8,43.9,22.8c10.6,0,21.3-3.1,30.6-9.7l126.4-88.5v85.6c0,11.1,3.4,21.7,9.7,30.8
			l22.2,31.3h-674c-12.1,0-23.8,3.7-33.8,10.6L-627.3,326v19.5l177-124.4c6.3-4.4,13.8-6.8,21.6-6.8h40.5l69.4,102.5v337.1
			c0,11,3.3,21.7,9.7,30.7l97.1,138.7c13.6,19.4,8.8,46.2-10.5,59.8l-332.8,233.1h18.5l320.4-224.3c20.2-14.1,27.6-39.7,19.7-61.8
			l144.5-101.2l106,151.4v66.5c0,29.5,24,53.5,53.5,53.5h143l-165.4,116h18.4l165.5-116h165.4c-2.3,13.4,0.5,27.7,8.9,39.6
			l53.5,76.3h13l-57.7-82.4c-7.1-10.1-9.1-22.3-6.7-33.5h158.3v101.4l-20.5,14.6h18.4l155.5-110.5c14.1-10,22.5-26.3,22.5-43.6
			v-80.5l76.3-53.6l147.5,47.8v78.2c0,14-6.8,27.1-18.3,35.1l-181.6,127.1h18.6L991,997.9c14.3-10,22.8-26.4,22.8-43.9v-74.7
			l126.6,41c5.3,1.7,10.9,2.6,16.4,2.6c10.9,0,21.7-3.3,30.8-9.7L1362.1,791l44.4,63.3v-18.4l-32.9-47h32.9v-10.6h-40.4l-169.5-242
			l70.3-131.6l139.5-96v-18l-125.6,88l87.7-164.1h38v-14.4h-30.3l30.3-56.7L1406.6,120.7z"/>
	</g>
</g>
</svg>
