<?xml version="1.0" encoding="utf-8"?>
<!-- Generator: Adobe Illustrator 22.0.1, SVG Export Plug-In . SVG Version: 6.00 Build 0)  -->
<svg version="1.1" id="圖層_1" xmlns="http://www.w3.org/2000/svg" xmlns:xlink="http://www.w3.org/1999/xlink" x="0px" y="0px"
	 viewBox="0 0 37.4 304.4" style="enable-background:new 0 0 37.4 304.4;" xml:space="preserve">
<style type="text/css">
	.st0{fill:#0FAA69;}
	.st1{fill:#FFFFFF;}
</style>
<g>
	<g>
		<path class="st0" d="M21.3,76c1.6,4.5,4.4,8.2,8.7,10.1c-0.9,0.7-2,2.3-2.6,3.3c-4.2-2.1-6.8-5.7-8.7-10.2c-0.5,1.5-1.2,3-2.1,4.4
			l0.7-0.5c1.3,1.2,3.1,3,3.9,4.2l-3.1,2.3c-0.6-1.1-2-2.6-3.2-3.9c-1.4,1.5-3.2,2.8-5.5,3.9c-0.5-1-1.6-2.2-2.6-3
			c5.7-2.5,8-6.3,8.9-10.4H7.6v-3.6h8.6c0.1-2,0.1-4,0.1-5.8h3.8c0,1.8,0,3.8-0.2,5.8h9.4V76H21.3z"/>
		<path class="st0" d="M22.3,110.6v4.3c0,1.5-0.2,2.3-1.3,2.8c-1,0.5-2.3,0.5-3.9,0.5c-0.1-0.9-0.6-2.2-0.9-3.1c0.8,0,2,0,2.3,0
			s0.4-0.1,0.4-0.3v-4.2h-5.4v-9.8h4.1c0.2-0.5,0.4-0.9,0.6-1.3h-5.9v3.9c0,4.1-0.3,10.4-2.4,14.3c-0.7-0.5-2.2-1.4-3.1-1.7
			c1.9-3.6,2.1-8.9,2.1-12.6v-7.1h20.5v3.1H19.2l3.2,0.4c-0.2,0.3-0.5,0.6-0.7,0.9h6.1v9.8L22.3,110.6L22.3,110.6z M18.1,112.1
			c-1.1,1.8-2.8,4-4,5.3c-0.7-0.6-2.1-1.4-2.9-1.9c1.3-1.1,2.8-3,3.6-4.5L18.1,112.1z M24.2,103.3h-7.3v1.2h7.3V103.3z M16.9,108
			h7.3v-1.2h-7.3C16.9,106.8,16.9,108,16.9,108z M25.7,110.9c1.2,1.5,3,3.6,4,4.8l-3,1.7c-0.8-1.3-2.5-3.5-3.7-5.1L25.7,110.9z"/>
		<path class="st0" d="M28.7,127.2c-0.7,2.5-1.8,4.7-3.2,6.5c1.3,0.9,2.9,1.7,4.7,2.2c-0.6,0.5-1.3,1.5-1.8,2.4v8.6H25v-0.7h-3.7
			v0.8h-3.2v-7.8l0,0c-0.3-0.5-0.7-1.2-1.2-1.8v1.4h-2.4v2.6c0.9-0.2,1.8-0.4,2.6-0.6l0.3,3.1c-3.5,0.8-7.2,1.7-10.1,2.4L6.7,143
			l1-0.2v-8h2.8v7.5l0.8-0.2v-8.7H8.1V125h8.6v5.7c1.7-1.6,3-4.1,3.8-6.6l3.3,0.8c-0.1,0.5-0.3,0.9-0.5,1.4h2.6l0.6-0.1L28.7,127.2z
			 M11.1,130.4h2.4V128h-2.4V130.4z M16.9,136.3c1.5-0.6,2.9-1.5,4.1-2.6c-0.4-0.5-0.7-1-1.1-1.5c-0.3,0.4-0.6,0.8-1,1.1
			c-0.5-0.5-1.6-1.4-2.3-2v2h-2.2v2.4h2.4L16.9,136.3L16.9,136.3z M26,137.9c-1-0.5-1.9-1.2-2.7-1.8c-0.8,0.7-1.7,1.3-2.6,1.8H26z
			 M25,143.2v-2.4h-3.7v2.4H25z M21.9,129.3l-0.2,0.3c0.4,0.6,0.8,1.2,1.4,1.9c0.5-0.7,0.9-1.4,1.3-2.2H21.9z"/>
	</g>
	<g>
		<path class="st0" d="M22.9,168v-4.2h2.5v11.3h-2.5v-4.2H10.6v-3L22.9,168L22.9,168z"/>
		<path class="st0" d="M13.6,175.7c2.4,0,3.7,1.9,4.1,6.4c1.1,0,1.9-0.5,1.9-1.9c0-1-0.5-2-1.1-3.1l1.9-1.1c0.8,1.3,1.5,2.9,1.5,4.7
			c0,2.8-1.7,4.3-4.9,4.3h-6.5v-2.4l1.2-0.2v-0.1c-0.8-1-1.5-2.1-1.5-3.4C10.3,177,11.7,175.7,13.6,175.7z M13.7,182.2H16
			c-0.4-2.7-1.1-3.6-2.1-3.6c-0.9,0-1.3,0.6-1.3,1.5C12.6,180.8,13,181.5,13.7,182.2z"/>
		<path class="st0" d="M25.2,188.3c1,0,1.6,0.7,1.6,1.8c0,1-0.6,1.7-1.6,1.7c-0.9,0-1.6-0.7-1.6-1.7S24.3,188.3,25.2,188.3z
			 M21.8,188.6v2.9H10.6v-2.9H21.8z"/>
		<path class="st0" d="M6.3,194.6l2.3,0.5c-0.1,0.2-0.1,0.5-0.1,0.8c0,1.1,0.7,1.8,1.7,2.1l0.7,0.2l11-4.4v3l-5.2,1.8
			c-1,0.3-2.1,0.6-3.2,0.9v0.1c1,0.3,2.1,0.5,3.2,0.8l5.2,1.5v2.8l-11.5-4c-2.6-1-4.2-2.2-4.2-4.7C6.1,195.5,6.2,195.1,6.3,194.6z"
			/>
		<path class="st0" d="M14.8,207h7v2.9h-6.6c-1.7,0-2.3,0.5-2.3,1.6c0,0.9,0.4,1.5,1.4,2.3h7.6v2.9H10.6v-2.4l1.6-0.2V214
			c-1.1-1-1.9-2-1.9-3.6C10.3,208.1,12,207,14.8,207z"/>
		<path class="st0" d="M13.6,219.8c2.4,0,3.7,1.9,4.1,6.4c1.1,0,1.9-0.5,1.9-1.9c0-1-0.5-2-1.1-3.1l1.9-1.1c0.8,1.3,1.5,2.9,1.5,4.7
			c0,2.8-1.7,4.3-4.9,4.3h-6.5v-2.4l1.2-0.2v-0.1c-0.8-1-1.5-2.1-1.5-3.4C10.3,221.2,11.7,219.8,13.6,219.8z M13.7,226.3H16
			c-0.4-2.7-1.1-3.6-2.1-3.6c-0.9,0-1.3,0.6-1.3,1.5C12.6,225,13,225.6,13.7,226.3z"/>
		<path class="st0" d="M21.8,232.7v2.4l-1.5,0.2v0.1c1,1,1.8,2.1,1.8,3.6c0,2.4-1.7,3.5-4.5,3.5h-7v-2.9h6.6c1.7,0,2.3-0.5,2.3-1.6
			c0-0.9-0.4-1.5-1.3-2.3h-7.7v-2.9h11.3V232.7z"/>
		<path class="st0" d="M10.6,259.4l5.6-3v-2.1h-5.6v-3h14.8v5.2c0,3.1-1.1,5.6-4.5,5.6c-2.2,0-3.6-1.1-4.3-2.8l-6.1,3.5L10.6,259.4
			L10.6,259.4z M18.5,254.3v1.9c0,1.9,0.8,2.9,2.4,2.9s2.1-1,2.1-2.9v-1.9L18.5,254.3L18.5,254.3z"/>
		<path class="st0" d="M16.2,264.3c3.7,0,5.9,2.6,5.9,5.4s-2.2,5.4-5.9,5.4s-5.9-2.6-5.9-5.4C10.3,266.9,12.5,264.3,16.2,264.3z
			 M16.2,272c2.1,0,3.5-0.9,3.5-2.4s-1.4-2.4-3.5-2.4s-3.5,0.9-3.5,2.4C12.7,271.2,14.1,272,16.2,272z"/>
		<path class="st0" d="M13.6,277.2c2.4,0,3.7,1.9,4.1,6.4c1.1,0,1.9-0.5,1.9-1.9c0-1-0.5-2-1.1-3.1l1.9-1.1c0.8,1.3,1.5,2.9,1.5,4.7
			c0,2.8-1.7,4.3-4.9,4.3h-6.5v-2.4l1.2-0.2v-0.1c-0.8-1-1.5-2.1-1.5-3.4C10.3,278.5,11.7,277.2,13.6,277.2z M13.7,283.6H16
			c-0.4-2.7-1.1-3.6-2.1-3.6c-0.9,0-1.3,0.6-1.3,1.5C12.6,282.3,13,282.9,13.7,283.6z"/>
		<path class="st0" d="M16.2,289.4c3.7,0,5.9,2.3,5.9,4.7c0,1.3-0.5,2-1.2,2.8l1.8-0.1h3.9v2.9h-16v-2.4l1.2-0.2V297
			c-0.8-0.8-1.4-1.9-1.4-3.1C10.3,291.2,12.5,289.4,16.2,289.4z M13.9,296.8h4.9c0.6-0.7,0.8-1.4,0.8-2.1c0-1.3-1.2-2.3-3.4-2.3
			c-2.3,0-3.5,0.8-3.5,2.3C12.7,295.5,13.1,296.2,13.9,296.8z"/>
	</g>
	<g>
		<g>
			<path class="st0" d="M12,38.3l-0.2-0.2C12,38.2,12,38.3,12,38.3z"/>
			<path class="st0" d="M13.1,39.5L13.1,39.5C13.1,39.5,13,39.4,13.1,39.5z"/>
			<path class="st0" d="M20.9,43.8c0.1-0.1,0.2-0.2,0.3-0.3L20.9,43.8z"/>
			<path class="st0" d="M6.1,32.1L5.9,32C6.2,32.3,6.1,32.1,6.1,32.1z"/>
			<path class="st0" d="M7.8,4.6C7.9,4.6,7.9,4.5,7.8,4.6C7.9,4.5,7.9,4.5,7.8,4.6z"/>
			<path class="st0" d="M36.5,22.3L36.5,22.3L36.5,22.3z"/>
			<path class="st0" d="M0.7,19.1L0.7,19.1C0.7,18.8,0.7,18.9,0.7,19.1z"/>
			<path class="st0" d="M28.4,35.2L28.4,35.2L28.4,35.2L28.4,35.2z"/>
			<path class="st0" d="M27.9,35.8c0.2-0.3,0.3-0.4,0.5-0.5l-0.2,0.1L27.9,35.8z"/>
			<path class="st0" d="M36.9,18.9c0-0.2,0-0.5-0.1-0.7c0,0.1,0,0.9,0,1.3c0,0,0-0.1-0.1-0.2c0-0.1,0-0.2,0-0.3
				c0-1.1-0.1-2.2-0.3-3.3c0-0.2-0.1-0.4-0.1-0.5s-0.1-0.2-0.1-0.3c0-0.2-0.1-0.4-0.2-0.6c0,0,0,0,0-0.1c0-0.2-0.1-0.3-0.1-0.5
				s-0.1-0.3-0.1-0.4c0-0.1-0.1-0.2-0.1-0.2c-0.5-1.4-1.1-2.6-1.9-3.8c0,0,0.1,0.1,0,0c0,0,0,0-0.1-0.1c-3.2-4.9-8.8-8.1-15.1-8.1
				c-0.4,0-0.8,0-1.2,0c-0.2,0-0.3,0-0.3-0.1c-0.3,0-0.6,0.1-1,0.1s-0.8,0.1-1.3,0.2c-0.2,0,0.2-0.1,0.1-0.1c-0.2,0.1-0.5,0.2-1,0.3
				H14c-0.3,0.1-0.6,0.1-0.9,0.3C13,1.9,12.7,2,12.5,2.1S12,2.3,11.7,2.4s-0.6,0.3-0.9,0.4h0.1C10.6,2.9,10.5,3,10.4,3
				c-0.1,0.1,0,0,0.2-0.1c-0.7,0.3-1.8,1-2,1.1C8.1,4.4,8.7,4,8.3,4.3L8.1,4.4L8,4.5C7.8,4.7,7.6,4.8,7.6,4.8c0.1,0,0.2-0.1,0.3-0.2
				C7.7,4.7,7.4,4.9,7.2,5.1C7,5.3,6.8,5.4,6.8,5.5l0.4-0.3C6.6,5.6,6,6.1,5.5,6.8C5.2,7.1,4.9,7.3,4.7,7.6C4.5,7.9,4.3,8.2,4.1,8.5
				l0.1-0.1C4,8.7,3.9,8.8,3.8,8.9C3.7,9.1,3.7,9.2,3.6,9.3c-0.1,0.2-0.3,0.4-0.5,0.9l0,0c-0.1,0-0.1,0.1-0.2,0.3
				c-0.1,0.1-0.1,0.3-0.2,0.4c0.1-0.3-0.3,0.5-0.1,0.1c-0.2,0.5-0.3,0.7-0.3,0.7v0.1c0,0.1-0.1,0.2-0.1,0.4L2,12.4
				c-0.1,0.3-0.1,0.3-0.2,0.8c0.1-0.5-0.2,0.3,0-0.2c-0.1,0.3-0.2,0.5-0.3,0.8c-0.1,0.2-0.1,0.4-0.1,0.6C1.2,14.8,1.2,15,1,15.3
				c-0.1,0.6,0.3-1,0.2-0.7c0.1-0.2-0.1,0.5-0.2,0.8C0.9,15.8,0.8,16,0.6,17c0-0.1,0-0.1,0-0.2c-0.1,0.4,0,0.7-0.1,1.2
				c0,0.3,0,0.6,0,0.7v-0.9c0,0.3,0,0.5,0,0.8c0,0.1,0,0.3,0,0.5s0,0.4,0,0.6c0-0.1,0-0.3-0.1-0.5c0,0.2,0,0.5,0,0.7
				c0,0,0-0.3-0.1-0.6c0-0.3,0-0.7,0-1c0,0.3,0,1-0.1,0.8c0.1,0.4,0,1,0.1,1.6l0,0c0,0.1,0,0.3,0.1,0.5c0-0.1-0.1-0.2-0.1-0.3
				c0.1,0.5,0.1,1,0.2,1.5c-0.1-0.5-0.1-0.6-0.1-0.6s0,0.1,0-0.1c0.2,1.2,0,0.9,0.3,1.9c0-0.2-0.1-0.3,0-0.1
				c0.1,0.3,0.1,0.6,0.2,0.8c0.3,0.9,0-0.2,0.1,0.2c0.1,0.3,0.2,0.5,0.3,0.9l0,0c0.4,1.1,0.2,0.3,0.5,1.2l-0.2-0.4l0.2,0.5l-0.1-0.1
				C1.8,26.9,1.9,27,2,27.2c0.1,0.2,0.2,0.3,0.3,0.6c0-0.1,0.1,0,0.3,0.5C3.3,28.4,3,28,3.4,28.6C3.3,28.5,3.1,28.3,3,28l-0.1-0.1
				c0.1,0.3,0.5,0.8,0.6,1c-0.1-0.1-0.1-0.2-0.1-0.2C3.6,29,3.8,29.3,4,29.5c0.1,0.1,0,0-0.1-0.1c0.1,0.2,0.2,0.3,0.4,0.5
				c-0.1,0-0.1,0-0.4-0.3c0.2,0.3,0.4,0.5,0.6,0.8c0,0.1,0.3,0.4,0.2,0.3c0.3,0.4,0.9,1,1.4,1.5c0,0,0.1,0.1,0.2,0.2
				c0.5,0.5,0.9,0.9,1.4,1.5L8,34.3c0.4,0.4-0.4-0.5,0.4,0.2c0.5,0.5,0.2,0.2,0.3,0.4C9,35,9.5,35.5,9.9,36
				c-0.2-0.2-0.3-0.3-0.4-0.4L9.8,36c-0.5-0.4-0.7-0.8-0.5-0.4c0.1,0,1.4,1.4,1.5,1.4l0.2,0.3c-0.1-0.1-0.1-0.1-0.1-0.2
				c0.4,0.5,0.4,0.3,0.9,0.9c0.2,0.2,0.3,0.4,0.2,0.2l0.5,0.5c0.1,0.1,0.1,0.1,0,0l0.7,0.7l0,0c0.1,0.1,0.3,0.3,0.5,0.4
				c0.2,0.2-0.1-0.1-0.1,0l0.4,0.4c0.1,0.2-0.2-0.1-0.4-0.4c0.3,0.5,0.3,0.3,1,1.2l-0.3-0.4c0.2,0.3,0.4,0.6,0.8,1.1
				c-0.1-0.1-0.7-1-0.3-0.5c0.1,0.1,0.2,0.3,0.5,0.5c0,0,0.2,0.3,0.4,0.6h-0.1c0.3,0.3,0.3,0.3,0.5,0.5c0.3,0.4,0.3,0.5,0.4,0.6
				c0.5,0.6-0.3-0.5,0.3,0.2c0.4,0.5,0.7,0.8,1.2,1.4c0.3,0.4-0.1,0,0,0.1l0.3,0.3c0.1,0.1,0,0.1,0,0.1c0.2,0.3,0.1,0,0.4,0.4
				c0,0,0.1,0.1,0.1,0.2c0.1,0.1,0.2,0.3,0.3,0.4c0.1-0.2,0.3-0.4,0.5-0.6c0.1-0.2,0.2-0.3,0.3-0.5c0.1-0.1,0,0.1,0,0.1
				c0.5-0.7,0.4-0.6,0.8-1.2l0.4-0.5c-0.3,0.3,0-0.2,0.3-0.6c0,0,0,0-0.1,0.1c0-0.1,0.1-0.1,0.1-0.2c0,0,0,0.1-0.1,0.1
				c0,0,0,0,0.1-0.1c0,0,0-0.1,0.1-0.1c0.1-0.1,0.2-0.2,0.3-0.3c0,0,0,0.1-0.1,0.2c-0.1,0.1-0.1,0.1-0.2,0.2
				c-0.1,0.2-0.2,0.3-0.1,0.3c0,0,0.1-0.1,0.2-0.2v0.1c0,0,0.1-0.1,0.1-0.2l0.2-0.1l0,0l0.7-0.8c0.4-0.6,0.8-1.2,1.6-2.1
				c-0.2,0.3,0,0.1,0,0.1c-0.3,0.2-0.6,0.7-1,1.2c0.2-0.2,0.2-0.2,0.1-0.1l0.7-0.9c0,0,0.2-0.2,0.4-0.4c-0.2,0.1,0.5-0.7,0.8-1
				c0,0,0,0.1-0.4,0.5c0.4-0.4,0.4-0.7,0.9-1.1c-0.1,0.1-0.1,0.2-0.2,0.2c0.2-0.3,0.7-0.8,0.6-0.7L26,38c0.6-0.7,1.8-2,1.9-2.2
				c0,0,0,0.1,0,0.2c0.2-0.3,0.4-0.6,0.6-0.9c0.1-0.1,0.2-0.2,0.3-0.4c0.1,0,0.2,0-0.1,0.4c0.2-0.1,0.3-0.3,0.6-0.7
				c-0.1,0.1-0.3,0.2-0.2,0.1c0.4-0.3,0.3-0.3,0.8-0.7c-0.2,0.1-0.1-0.1,0.2-0.3c0,0,0.1,0,0,0.1l0.5-0.7c-0.1,0.2,0,0.1,0.2,0
				c-0.1,0.1,0.5-0.5,0.7-0.7L31,32.5c0.4-0.3,0.5-0.5,0.7-0.7c0.1-0.2,0.3-0.4,0.6-0.7c-0.1,0.1-0.1,0.3,0.2-0.1
				c0.1-0.1,0.2-0.4,0.4-0.7c0.2-0.3,0.4-0.6,0.6-0.8c-0.2,0.4-0.5,0.9-0.7,1.1c0.2-0.3,0.1-0.1,0.4-0.5c0.1-0.1,0,0.1-0.2,0.3
				c0.1-0.1,0.2-0.3,0.3-0.4c0.1-0.2,0.3-0.3,0.4-0.5c-0.1,0,0.5-0.8,0.4-0.8c-0.1,0.2-0.2,0.4-0.4,0.6c-0.1,0.2-0.2,0.4-0.4,0.6
				c-0.1,0,0.4-0.7,0.8-1.5c0.1-0.2,0,0.2,0,0.2c0-0.1,0.1-0.2,0.2-0.4c0.1-0.2,0.2-0.4,0.2-0.4l0.1,0.2c0.1-0.2,0.2-0.4,0.3-0.6
				s0.2-0.4,0.3-0.7c0.1-0.2,0.3-0.5,0.3-0.6c-0.1,0.2-0.2,0.2-0.3,0.2c0.1-0.2,0.2-0.4,0.3-0.7l0,0v-0.1l0,0
				c0.1-0.2,0.2-0.4,0.3-0.7c0.1-0.1-0.1,0.6,0,0.3c0,0,0-0.2,0.1-0.3c0.1-0.2,0,0.1,0.2-0.4c0-0.1,0.3-0.9,0-0.2
				c0.1-0.4,0.1-0.5,0.3-1c0,0.1,0-0.2,0-0.5c0-0.2,0.1-0.4,0.1-0.6l0,0c0-0.2,0.1-0.4,0.1-0.6s0.1-0.4,0.1-0.6
				c0.1-0.4,0.1-0.7,0.1-1.1c0-0.1,0-0.5,0.1-0.3C36.9,19.4,36.9,19.3,36.9,18.9c0.1-0.4,0,0.7,0.1,0.3
				C36.9,19.3,36.9,19.2,36.9,18.9z M21.7,42.8c0.1-0.1,0.2-0.2,0.3-0.4C21.9,42.5,21.8,42.6,21.7,42.8z M10.9,2.8
				c-0.1,0-0.2,0.1-0.4,0.1C10.8,2.8,11.1,2.7,10.9,2.8z M14.2,40.8c0.1,0.1,0.2,0.2,0.4,0.4C14.5,41.1,14.3,40.9,14.2,40.8z"/>
			<path class="st0" d="M1.1,23.5c0,0.1,0,0.2,0.1,0.3C1.2,23.6,1.2,23.5,1.1,23.5z"/>
			<path class="st0" d="M33.1,30.4L33,30.5L33.1,30.4z"/>
			<path class="st0" d="M21.2,43.5C21.2,43.5,21.1,43.5,21.2,43.5C21.1,43.6,21.1,43.6,21.2,43.5z"/>
			<path class="st0" d="M6.2,32.2L6.2,32.2C6.2,32.1,6.2,32.1,6.2,32.2L6.2,32.2z"/>
			<path class="st0" d="M36,25c-0.1,0.1-0.1,0.2-0.1,0.3C35.9,25.3,35.9,25.2,36,25z"/>
			<path class="st0" d="M36.7,16.5L36.7,16.5v-0.2C36.7,16.4,36.7,16.4,36.7,16.5z"/>
			<path class="st0" d="M36.9,17.9C36.9,17.9,36.8,17.3,36.9,17.9C36.9,17.9,36.9,18.6,36.9,17.9z"/>
			<path class="st0" d="M32,31.5c-0.3,0.3-0.4,0.4-0.2,0.3c0.5-0.4,0.1-0.1,0.5-0.5C32.4,31.2,32,31.6,32,31.5z"/>
			<path class="st0" d="M32,31.5c0,0,0.1-0.1,0.1-0.2C32.1,31.4,32.1,31.5,32,31.5z"/>
			<path class="st0" d="M15.2,42.2L15.2,42.2c0,0-0.1-0.1-0.2-0.3L15.2,42.2z"/>
			<polygon class="st0" points="11.7,38 11.7,38 11.6,37.9 			"/>
			<path class="st0" d="M8.5,34.6c0.1,0.1,0.3,0.3,0.4,0.4C8.6,34.7,8.5,34.5,8.5,34.6z"/>
		</g>
		<g id="XMLID_164_">
			<path id="XMLID_207_" class="st1" d="M22.7,26.3c-0.1,0-0.2-0.3-0.4-0.4c0-0.1,0-0.1,0-0.1c-0.1,0-0.1-0.1-0.1-0.2l0,0l0,0v-0.1
				v0.1l0,0l0,0c0,0,0,0,0.1,0l0,0c0,0,0-0.1-0.1-0.1c-0.1-0.1-0.3-0.2-0.2-0.4L21.8,25c0-0.1-0.1-0.2-0.1-0.3l0,0
				c0-0.1,0-0.1-0.1-0.1l0,0c0-0.1-0.1-0.2-0.1-0.3c0.1,0.1,0,0,0.1,0.1c-0.1-0.1,0-0.2-0.1-0.2c0-0.1,0-0.1,0-0.1l0,0L21.4,24
				c0-0.1-0.2-0.1-0.3-0.2h0.1c0-0.1-0.1,0-0.1-0.1l0,0l0,0l0,0c0,0,0-0.1-0.1-0.1c0,0-0.1-0.1-0.2,0c0-0.1-0.2-0.1-0.1-0.1
				c-0.1,0-0.1,0.1-0.2,0.1s-0.1,0-0.2-0.1h-0.1h0.1c-0.2,0-0.2-0.1-0.4-0.1c0,0,0,0,0-0.1h-0.1c0,0,0.1,0,0.1-0.1l0,0l0,0h-0.1
				h-0.1v-0.1c-0.1,0-0.2,0-0.4-0.1c0,0,0-0.1,0-0.2l0,0l-0.1-0.1c0,0,0,0,0,0.1c0,0,0.1,0.1,0,0l0,0c0,0-0.1-0.1-0.1-0.2
				c0,0,0-0.1-0.1-0.1c0-0.1,0-0.1,0-0.1c0,0.1,0-0.1,0.1-0.1c0-0.1,0.1-0.1,0-0.1c0.1-0.1,0,0.1,0.1,0.1c0.1-0.1,0-0.3,0.1-0.2
				c0-0.1,0,0-0.1,0c0,0.1-0.1,0.1,0,0l0.1-0.1c0.1-0.2,0.3-0.3,0.4-0.5l0,0c0.1,0,0.2-0.2,0.2-0.2l0,0c0.1,0,0.1-0.2,0.1-0.1
				c0,0,0,0,0,0.1c0.1-0.1,0.1-0.1,0.2-0.2l0,0h-0.1c0.1-0.1,0.1,0,0.2-0.1c0,0,0,0,0-0.1c0.2-0.1,0.1-0.1,0.2-0.3l0,0
				c0.1,0,0.1-0.1,0.1-0.1s-0.1,0.1,0,0.1s0.1-0.1,0.1-0.1s-0.1,0.1-0.1,0c0.1-0.2,0.2,0,0.3-0.3c0,0,0.2-0.1,0.2,0
				c0.1-0.1,0.1-0.1,0.2-0.1c0,0,0-0.1,0.1-0.1c0,0,0,0,0,0.1l0,0l0,0c0.1-0.1,0.3-0.1,0.4-0.1l0.1,0.1h-0.1l0,0c0,0,0.1,0,0.1,0.1
				H22c-0.1-0.1,0.1,0.1,0-0.1c0,0.1,0.1,0.1,0.1,0.2c0,0,0,0.1-0.1,0.1l0,0l0.1,0.1c0.1,0.1,0-0.1,0.1-0.1c0,0.1-0.1,0,0,0.1h0.1
				c0,0.2,0.1,0.2,0.1,0.4c-0.1-0.1-0.1-0.1-0.1-0.2c0,0,0,0.1-0.1,0c0,0,0,0,0-0.1v0.1c0,0.1,0.1,0.2,0.1,0.3l0.1,0.2l0,0v0.1v-0.1
				c0.1,0.1,0,0.2,0.1,0.2l0,0c0,0.1,0,0.2,0,0.3c-0.1,0-0.1,0.1-0.1,0.2c0-0.1,0.1,0,0.1,0c0-0.1-0.1-0.1-0.1-0.1s0,0.1,0,0
				c0.1,0.1,0,0.2,0.1,0.3l0,0v0.1c0-0.1,0.1,0,0.1,0l0,0c0.1,0.1,0.1,0.1,0.1,0.1c0.1,0.1,0,0,0,0.1h0.1c0,0.1,0,0,0,0
				c0.1,0,0.1,0,0.2,0v0.1c-0.1,0,0,0-0.1,0.1h-0.1h0.1c0,0,0.1,0,0.2,0c0,0,0.1,0,0-0.1c0.1,0,0.1,0,0.2,0c-0.1,0-0.1,0-0.1-0.1
				l0,0l0,0c0,0,0.2,0.1,0.1,0.1c0.1,0,0.2,0,0.3,0l0,0l0,0l0,0c0,0,0.1,0,0.1,0.1c-0.1,0-0.2-0.1-0.2,0c0.1,0,0.2,0.1,0.4,0.2v-0.1
				c0.1,0.1,0.2,0,0.3,0.1v0.1c0,0,0,0,0.1,0v-0.1l-0.1-0.1c0.1,0,0.1,0.1,0.1,0.1c0.1,0.1,0.2,0.2,0.3,0.3c0,0,0.1,0,0.1-0.1
				c0.1,0,0.1,0.1,0.1,0.1l0,0c0.1,0,0.1,0,0.1,0.1c0-0.1,0.2,0.1,0.2,0.1c0.1,0.1,0.3,0.3,0.5,0.4h-0.1c0.3,0.2,0.7,0.4,0.8,0.6
				l-0.1-0.1c0,0,0.1,0.1,0.1,0.2c-0.1-0.1-0.1,0.1-0.1-0.1c0-0.1-0.1-0.2-0.1-0.2s-0.1,0-0.1,0.1c-0.1-0.1-0.3-0.2-0.3-0.3
				c0,0,0.1,0,0.1,0.1l-0.1-0.1h-0.1c-0.4-0.3-0.9-0.6-1.3-0.8c-0.1,0-0.2-0.1-0.4-0.1l0,0l0,0l0,0c-0.1-0.1-0.3-0.1-0.4-0.1
				c0.8,0.3,2.2,0.9,3.3,2.3c0.1,0.2,0.3,0.4,0.3,0.6c0-0.1,0.1-0.1,0.1-0.1l0.1,0.1c0,0-0.1,0.1-0.1,0.2c-0.1,0,0-0.2-0.1-0.2
				c0,0.1,0,0.2,0,0.2l0,0c0,0,0.1,0.1,0.1,0.2v0.1c0-0.1,0-0.1,0-0.1c0-0.1,0-0.1-0.1-0.1l0,0l0,0l0,0l0,0l0,0l0,0
				c0,0.1,0,0.2,0,0.3v0.1c0,0,0-0.1,0,0v0.1c0,0,0,0,0.1,0v0.1h-0.1c0,0.1,0,0.1,0,0.2c0,0,0-0.1,0-0.2c0,0.1,0,0.1,0,0.2l0,0V27
				c-0.2,0.5-0.5,1-1,1.3c0,0-0.1,0-0.1,0.1c-0.7,0.4-1.5,0.4-2.1,0l0,0l0,0c-0.1,0-0.1-0.1-0.2-0.2l0,0c0,0,0,0,0,0.1
				c0,0-0.1,0-0.1-0.1l0,0c0-0.2-0.2-0.1-0.2-0.3c-0.1-0.1-0.1-0.1-0.2-0.2c0,0,0,0-0.1-0.1L23,27.5l0,0l0,0l0,0
				c-0.1,0-0.2-0.1-0.2-0.2C23.1,26.6,22.8,26.6,22.7,26.3L22.7,26.3c0,0,0-0.1-0.1-0.1C22.7,26.2,22.7,26.3,22.7,26.3z"/>
			<path id="XMLID_206_" class="st1" d="M17,22.9c0,0,0.1-0.1,0.2-0.2C17.1,22.7,16.9,22.9,17,22.9c0.1-0.2-0.1-0.1,0.1-0.3
				c0.1,0,0.3-0.3,0.4-0.2c0.1-0.1,0-0.1-0.1-0.1c0.2-0.2,0.5-0.5,0.7-0.6C18,21.8,18,21.8,18,21.8c0,0.1,0.1-0.1,0.2-0.1l0.1-0.2
				c0.9-0.7,1.6-1.5,2.4-2.2c0.2-0.2,0.4-0.4,0.6-0.6l0,0l0.1-0.1l0,0c0.2-0.2,0.5-0.4,0.7-0.7c-3.4,3.2-7.4,6.9-7.4,6.9
				s0,0.1,0.1,0.1v-0.1h0.1c0,0,0,0,0,0.1L15,25c-0.1,0,0,0.2,0,0.4c0,0-0.1-0.4-0.2-0.4c0.1,0.2,0.2,0.4,0.2,0.6
				c0,0.1,0.1,0.2,0,0.5l-0.1,0.2c0-0.1,0.1-0.1,0.1-0.3c0.1-0.2,0-0.3,0-0.2l0,0l0,0l0,0v0.1v-0.1l0,0c0,0.1-0.1,0.2-0.1,0.3v0.1
				l0,0c0,0,0,0,0-0.1c0,0.1-0.1,0.1-0.1,0.2s0,0.1,0,0.1s0-0.1,0,0c-0.1,0.1-0.1,0.2-0.2,0.3c0.1,0,0,0,0.2,0c0,0,0,0.1-0.1,0.1
				c0,0.1-0.1,0.1-0.1,0.1l0,0c-0.2,0.2-0.1,0.2-0.3,0.3c0-0.1,0.1-0.2,0.2-0.3c-0.1,0.1-0.2,0.2-0.3,0.3c0,0,0,0,0-0.1
				c-0.1,0.1-0.2,0.2-0.2,0.2c-1.6,1.3-2.5,0.3-2.5,0.3l1.3-1.3l-1-1l-1.3,1.3c-0.1-0.2-0.2-0.4-0.3-0.5l0,0c0,0,0,0,0-0.1
				c0-0.2-0.1-0.4,0-0.6v0.1c0-0.1,0-0.2,0-0.3l0,0c0.1-0.2,0.1-0.4,0.3-0.7c0.1-0.2,0.3-0.4,0.4-0.5l0.1-0.1l0.1-0.1
				c0.1-0.1,0.2-0.2,0.3-0.2l0.1-0.1l0,0c0,0,0,0,0.1,0c0.1-0.1,0.4-0.2,0.5-0.3c0.2,0,0.4,0,0.6,0c0.2,0,0.5,0.1,0.7,0.2l0,0
				c0.1,0,0.1,0.1,0.1,0.1c0-0.1,0.1-0.1,0.1-0.2c-0.1,0.1-0.1,0.1-0.2,0.2l0,0l0,0c0,0,0-0.1,0.1-0.1c0.1-0.1,0.1-0.2,0.2-0.2
				c0.2-0.2,0.3-0.4,0.4-0.5c0.1-0.1,0.1,0,0.2-0.2c0-0.1,0.2-0.2,0.3-0.4c0,0,0-0.1,0.1-0.1l0,0l0.2-0.1L14.8,22l0,0
				c0,0,0,0.1-0.1,0.1c0,0,0,0.1-0.1,0.1c0,0,0,0,0.1,0c0.1-0.1,0.1-0.2,0.2-0.2c0.1-0.2,0.3-0.6,0.6-0.7l0.1-0.2
				c0.2-0.1,0.3-0.3,0.5-0.5l0,0c0.1,0,0.2-0.2,0.2-0.3c0,0,0,0,0.1,0c0.2-0.2,0.3-0.4,0.4-0.5c-0.1,0.2,0,0-0.1,0.2
				c0.1-0.2,0.2-0.2,0.3-0.3c0.2-0.2,0.2-0.1,0.3-0.2c-0.1,0,0.1-0.2,0.1-0.3c0.2-0.1,0.3-0.4,0.5-0.6l-0.1,0.1
				c0.1-0.1,0.1-0.1,0.2-0.2l0,0l0.1-0.1c0,0,0,0.1-0.1,0.1c0,0,0.1-0.1,0.2-0.2c0,0,0.3-0.3,0.3-0.4c0.1,0,0.3-0.3,0.4-0.2
				c0.2-0.2,0.2-0.3,0.3-0.4c0.2-0.1,0.2-0.2,0.3-0.2c0.1-0.1,0.1-0.2,0.1-0.2L19.4,17c0.2-0.3,0.4-0.3,0.6-0.6c0,0.1,0.1-0.1,0.1,0
				l0.1-0.2c0,0,0,0.1,0,0.2l0,0l0.1-0.1l0.1-0.1l0.1-0.2l0,0c0.2-0.2,0.2-0.4,0.5-0.6c0,0,0.2-0.1,0.3-0.1c0.1-0.1,0.2-0.2,0.3-0.3
				c0,0,0,0-0.1,0.1s-0.1,0.1-0.1,0.1l0.1-0.1c0.1-0.1,0.2-0.2,0.3-0.2l0.3-0.4c0,0.1,0.2-0.2,0.2-0.1c0.1-0.1,0.2-0.1,0.2-0.2
				c0.1-0.1-0.2,0.2,0,0.1c0.2-0.2,0.3-0.4,0.4-0.4c0.2-0.3-0.5,0.4-0.2,0l0.2-0.1c0.2-0.3,0.6-0.6,0.9-0.9V13
				c0.2-0.1,0.4-0.3,0.5-0.4v0.1c0.1-0.1,0.2-0.3,0.3-0.3c-0.1,0.1-0.1,0.1-0.1,0.1c0.2-0.1,0.2-0.2,0.5-0.4l0.1-0.1
				c0,0-0.1,0-0.2,0c0.3-0.2,0.2-0.1,0.4-0.3l0,0c0,0,0-0.1,0.1-0.1c0.4-0.3,0.2-0.2,0.5-0.5l0,0c0.1-0.1,0.2-0.2,0.3-0.2
				c-0.1,0.1-0.1,0.1-0.1,0.2c0.1-0.1,0.2-0.2,0.3-0.3c0,0-0.2,0.2-0.1-0.1c0,0,0,0,0.1-0.1s0.3-0.1,0.3-0.1c0.1,0,0.1,0.1,0.2,0.1
				c0.1,0.1,0.2,0.1,0.4,0.2c0,0.1,0.2,0.3,0.2,0.3l0.1,0.1c0.1,0.1,0.2,0.2,0.3,0.3c0.1,0,0.1,0,0.2,0.1l0,0l0.1,0.1
				c0,0,0.1,0.1,0.1,0.2c-0.1,0.2-0.2,0.5-0.3,0.6c-0.1,0-0.2,0.2-0.2,0.1c0-0.1,0.1-0.1,0.1-0.1l0,0c0,0.1-0.1,0.1-0.2,0.2
				c0,0.1-0.1,0.1-0.1,0.1c0.2-0.2-0.2,0.2,0.1,0c-0.1,0.1-0.2,0.2-0.3,0.2c0,0-0.1,0-0.1-0.1c0,0,0,0-0.1,0.1
				c0,0.1-0.1,0.2-0.2,0.2c-0.1,0.2,0.2-0.1,0.1,0.1c-0.1,0.1,0-0.1-0.1,0v0.2c-0.3,0.3-0.2,0.3-0.5,0.6c0.1-0.2,0.1-0.2,0.3-0.4
				c-0.1,0-0.1,0.1-0.1,0c0,0,0.1,0,0.1-0.1L26.1,14c-0.1,0.1-0.2,0.2-0.2,0.3c-0.1,0.1-0.1,0.1-0.2,0.2c-0.1,0.1-0.2,0.3-0.2,0.3
				l0,0c-0.1,0.1-0.1,0.1-0.1,0.2l0.1-0.1c-0.1,0.2-0.3,0.3-0.3,0.3l0,0c-0.2,0.2-0.3,0.3-0.5,0.5c-0.1,0-0.3,0.2-0.5,0.3
				c0.2-0.1,0,0.1,0,0.1c0.1-0.1,0.1-0.2,0.3-0.3c0,0-0.1,0.1,0,0.1c-0.3,0.3-0.4,0.4-0.7,0.6l0,0l-0.1,0.1c0.1,0-0.1,0.1-0.1,0.2
				l0,0c-0.1,0.1-0.2,0.2-0.2,0.3c-0.2,0.1,0-0.1-0.1,0l-0.1,0.2c-0.1,0.1,0.1-0.1-0.1,0c-0.1,0.1-0.2,0.2-0.3,0.4c0,0,0-0.1-0.1,0
				c0.2-0.2,0-0.1,0-0.1c0.1-0.1,0.1-0.1,0.2-0.2c-0.2,0.1-0.3,0.3-0.5,0.4c0,0-0.1,0.1,0.1,0c-0.1,0.1-0.2,0.2-0.2,0.3
				c0.1-0.1,0.2-0.2,0.2-0.2l0,0l0,0c-0.1,0.1-0.4,0.3-0.3,0.2c0-0.1-0.2,0.1-0.2,0.2l0,0l-0.1,0.1c0,0,0,0,0-0.1
				c0,0-0.1,0.1-0.2,0.1c0.1-0.1,0.4-0.4,0.2-0.3c-0.2,0.2-0.4,0.3-0.6,0.5h0.1c-0.2,0.1-0.2,0.3-0.4,0.4c0,0,0-0.1-0.1,0
				c0,0,0,0-0.1,0.1c0.1,0,0.1,0,0.1,0C21,19,21.1,19,21.1,19c-0.1,0.1-0.2,0.1-0.2,0.1c-0.2,0.1-0.4,0.3-0.7,0.4
				c0,0.1-0.1,0.2,0,0.1C20.1,20,20.1,19.9,20,20l0,0c-0.1,0.1-0.1,0.1-0.2,0.2c0.1,0-0.4,0.4-0.3,0.4c-0.3,0.2-0.7,0.6-1,0.8v-0.1
				C18,21.9,17.4,22.6,17,22.9z"/>
			<path id="XMLID_205_" class="st1" d="M16.2,23.6c0.1-0.1,0.1-0.1,0.2-0.2c-0.2,0.1,0.2-0.2-0.2,0c-0.1,0.1-0.2,0.3-0.4,0.4v-0.1
				c0,0,0,0,0.1,0l0.2-0.2c0.3-0.3,0.4-0.4,0.6-0.4l-0.1,0.1c0.1-0.1,0.1-0.1,0.1-0.1s0-0.1,0.1-0.1c0,0,0,0.1-0.1,0.1
				C16.6,23.2,16.4,23.5,16.2,23.6z"/>
			<path id="XMLID_204_" class="st1" d="M15.7,23.9c0.1-0.1,0.1-0.1,0.1-0.1C15.9,23.8,15.8,23.8,15.7,23.9z"/>
			<polygon id="XMLID_203_" class="st1" points="15.8,24 15.7,24 15.7,24 			"/>
			<path id="XMLID_202_" class="st1" d="M16.6,23.1l0.1-0.1h0.1L16.6,23.1z"/>
			<path id="XMLID_201_" class="st1" d="M14.9,24.7c-0.1,0-0.1,0.1-0.2,0.2h-0.1L14.9,24.7c0-0.1,0.1-0.2,0.2-0.3
				C15.2,24.4,14.9,24.6,14.9,24.7c0.3-0.2,0.3-0.3,0.4-0.5c-0.1,0.1-0.1,0.1-0.1,0.2l0.4-0.4c-0.1,0.2,0,0.2-0.2,0.4
				c-0.2,0.2-0.5,0.3-0.6,0.4C14.9,24.8,15,24.7,14.9,24.7z"/>
			<path id="XMLID_200_" class="st1" d="M14.4,26.8L14.4,26.8C14.4,26.7,14.4,26.8,14.4,26.8z"/>
			<path id="XMLID_199_" class="st1" d="M10.6,11.7L10.6,11.7C10.7,11.7,10.7,11.7,10.6,11.7L10.6,11.7
				C10.7,11.7,10.7,11.7,10.6,11.7C10.7,11.7,10.7,11.7,10.6,11.7l0.9-0.9c0.1-0.1,0.2-0.1,0.2,0l1.4,1l0,0l0,0l0.2,0.1l0,0h0.1l0,0
				c0,0.1,0.1,0.1,0.2,0.2l0.2,0.1c0,0,0,0,0.1,0l0,0l0.1,0.1l0,0l0,0l0,0l0,0c0,0.1,0.1,0.1,0.1,0.2c-0.1,0.2,0.1,0.3,0,0.5H14v0.1
				l0,0V13c0.1,0,0,0.3,0.2,0.4c0,0-0.1,0.1,0,0.1s0.1,0.1,0.1,0.1l0,0l0,0v0.1c0,0,0,0,0-0.1l0,0l0,0c0,0,0,0-0.1,0l0,0
				c0,0,0,0.1,0.1,0.1s0.3,0.1,0.3,0.2h0.1c0,0.1,0.1,0.1,0.1,0.2l0,0c0,0.1,0.1,0.1,0.1,0.1l0,0c0.1,0.1,0.2,0.1,0.2,0.2
				c-0.1,0,0,0-0.1,0c0.1,0,0.1,0.1,0.1,0.1c0.1,0.1,0,0.1,0,0.1c0-0.1,0.1,0,0.2,0c0,0.1,0.2,0.1,0.2,0.2c0,0,0,0-0.1,0
				c0,0.1,0,0,0.1,0.1l0,0l0,0l0,0c0,0,0,0.1,0.1,0.1c0,0,0.1,0.1,0.2,0.1c0,0,0.1,0.1,0,0.2c0.1,0.1,0.1,0,0.2,0.1
				c0,0.1,0.1,0.1,0,0.1c0,0,0.1,0.1,0.1,0v-0.1c0.1,0.1,0.1,0.2,0.2,0.2l0,0h0.1h-0.1l0,0l0,0l0,0h0.1l0,0c0.1,0,0.2,0.1,0.3,0.1
				v0.1l0.1,0.1c0,0,0,0,0-0.1c0,0-0.1,0,0,0l0,0l0.1,0.1l0.2,0.1c-0.1,0,0.1,0.1,0,0.1c0.1,0,0,0.1,0.1,0.1c0,0.1-0.1-0.1-0.1,0
				s0.2,0.1,0.1,0.1c0.2,0-0.1-0.2,0-0.1v0.1c0.1,0,0.1,0.1,0.2,0.1c0.1,0.1,0.1,0.2,0.1,0.4l0,0c-0.1,0.1-0.2,0.2-0.2,0.2l0,0
				c-0.1,0-0.1,0.2-0.1,0.1c0,0,0,0,0-0.1c-0.1,0-0.1,0.1-0.2,0.2l0,0h0.1c-0.1,0.1-0.1,0-0.2,0.1v0.1c-0.1,0.1-0.2,0-0.2,0
				s-0.1,0-0.2-0.1l0,0c0-0.1-0.1-0.1-0.1-0.1s0,0,0.1,0l-0.1-0.1v0.1c-0.1-0.1,0-0.2-0.2-0.3c0,0,0-0.1,0-0.2l-0.1-0.1H16l0,0h-0.1
				c-0.1,0-0.2-0.1-0.3-0.2c0,0-0.1-0.1,0-0.1c0,0,0,0,0.1,0l0,0l-0.1-0.1h-0.1c0,0.1-0.1-0.1,0,0.1l-0.1-0.1c0,0,0-0.1,0.1-0.1l0,0
				c0,0-0.1,0-0.1-0.1c-0.1,0,0,0.1-0.1,0.1c0-0.1,0.1,0,0-0.1h-0.1c-0.1-0.2-0.1-0.1-0.2-0.2c0.1,0,0.1,0,0.1,0.1
				c0,0,0-0.1,0.1-0.1c0,0,0,0,0,0.1v-0.1L15,15.6c0,0-0.1-0.1-0.1,0l0,0h-0.1v0.1c-0.1,0-0.1-0.1-0.1-0.1l0,0
				c-0.1-0.1-0.1-0.1-0.2-0.2c0-0.1-0.1-0.1-0.1-0.2c0,0.1-0.1,0-0.1,0.1c0.1,0,0.1,0,0.1,0.1c0,0-0.1,0,0,0
				c-0.2-0.1-0.1-0.2-0.2-0.3l0,0V15c0,0.1-0.1,0-0.1,0l0,0L14,14.9c-0.1-0.1,0,0,0-0.1h-0.1c0-0.1,0,0,0,0c-0.1,0-0.1-0.1-0.2-0.1
				c0,0,0.1,0,0-0.1c0.1,0.1,0.1,0,0.1,0s0.1,0,0.1,0.1l0.1,0.5c0,0-0.1,0,0,0.1c0,0-0.1-0.1-0.1,0c0,0,0.1,0.1,0,0.1
				c0,0-0.1-0.1,0-0.1c-0.1,0-0.2-0.1-0.2-0.1l0,0l0,0l0,0v-0.1c0.1,0,0.2,0.1,0.2,0c-0.1-0.1-0.1-0.2-0.2-0.2V15
				c0-0.1-0.1,0-0.2-0.1c0,0,0.1-0.1,0-0.1c0,0,0,0-0.1,0c0,0,0,0,0,0.1V15v-0.1c0-0.1-0.1-0.2-0.2-0.2l0,0c0,0-0.1,0-0.1,0.1
				c-0.1,0,0-0.1-0.1-0.1l0,0h-0.1c0,0.1-0.2,0-0.2,0c-0.1-0.1-0.2-0.1-0.4-0.1h-0.1h0.1c-0.1,0-0.2-0.1-0.2-0.2
				c0-0.1-0.1-0.1-0.1-0.2c-0.1-0.1-0.2-0.2-0.2-0.3c0,0,0,0.1,0.1,0.1c0,0-0.1-0.1,0-0.1c0,0.1,0.1,0,0.1,0.1
				c-0.1,0.1,0.1,0.1,0,0.2h0.1c0,0.1,0.2,0.2,0.2,0.3c0,0,0,0,0-0.1v0.1h0.1c0,0.1,0.1,0.1,0.1,0.1c0.2,0,0.4,0.1,0.5,0.1
				s0.2,0,0.3,0.1l0,0l0,0c0,0,0.1,0,0.1,0.1c0.1,0,0.2,0.1,0.2,0.2l0,0l0,0l0,0c0,0.1,0.2,0.2,0.3,0.2L13.6,15
				c-0.2-0.1-0.3-0.3-0.6-0.3l-0.6-0.1c-0.1,0-0.1,0-0.1-0.1l-1-1.7c0,0.1,0,0.1-0.1,0.1L11,12.6c0,0,0.1-0.1,0-0.2
				c0.1,0,0.1,0.1,0.1,0.1L11,12.4c0,0-0.1,0-0.2-0.1v-0.1c0.1,0,0,0,0.1,0.1c0,0.1,0.1,0.1,0.1,0l0,0l0,0l0,0l0,0l-0.1-0.1l0,0l0,0
				l0,0v-0.1h-0.1c0,0,0.1,0,0,0L10.7,12c0,0,0,0-0.1,0.1l0-0.1l0,0C10.6,11.8,10.5,11.9,10.6,11.7c0,0.1,0,0.2,0,0.2
				C10.6,11.8,10.6,11.8,10.6,11.7z"/>
			<polygon id="XMLID_198_" class="st1" points="14,12.4 14,12.4 14,12.3 			"/>
			<path id="XMLID_197_" class="st1" d="M14,12.3C14.1,12.3,14.1,12.4,14,12.3C14.1,12.4,14,12.3,14,12.3z"/>
			<path id="XMLID_196_" class="st1" d="M27,11.3C27,11.3,27,11.4,27,11.3C27,11.4,27,11.3,27,11.3L27,11.3z"/>
			<path id="XMLID_195_" class="st1" d="M16.2,17.5L16.2,17.5L16.2,17.5z"/>
			<path id="XMLID_194_" class="st1" d="M15.9,17.2L15.9,17.2C15.8,17.2,15.8,17.2,15.9,17.2L15.9,17.2z"/>
			<path id="XMLID_193_" class="st1" d="M15.2,16.5L15.2,16.5L15.2,16.5z"/>
			<polygon id="XMLID_192_" class="st1" points="13.8,15.3 13.8,15.3 13.7,15.2 			"/>
			<path id="XMLID_191_" class="st1" d="M12.8,14.6L12.8,14.6L12.8,14.6z"/>
			<path id="XMLID_190_" class="st1" d="M11.6,13.6c0,0-0.2-0.1-0.2-0.2c0,0.1,0,0.1,0,0.1c0-0.1,0.1,0.1,0.1-0.1
				c0,0-0.2-0.1-0.1-0.1h0.1l0,0l0.1,0.1C11.6,13.5,11.6,13.5,11.6,13.6L11.6,13.6L11.6,13.6z"/>
			<path id="XMLID_189_" class="st1" d="M11.2,13.1c-0.1-0.1-0.1-0.2-0.1-0.3c0,0,0,0,0.1,0c0,0-0.1,0-0.1-0.1v-0.1v0.1
				c0.1,0,0.1,0.1,0.2,0.1c0,0.1-0.1-0.1-0.1,0s0.1,0.1,0.1,0.1C11.3,13,11.2,13,11.2,13.1l0.2,0.1C11.3,13.1,11.2,13.2,11.2,13.1z"
				/>
			<path id="XMLID_188_" class="st1" d="M11.3,13.2L11.3,13.2L11.3,13.2z"/>
			<path id="XMLID_187_" class="st1" d="M11.4,13.2C11.5,13.2,11.5,13.2,11.4,13.2C11.5,13.2,11.5,13.2,11.4,13.2z"/>
			<path id="XMLID_186_" class="st1" d="M11.6,13.5C11.7,13.5,11.7,13.6,11.6,13.5L11.6,13.5L11.6,13.5z"/>
			<path id="XMLID_185_" class="st1" d="M10.8,23.9c0.1-0.1,0.1-0.1,0.2-0.1C11,23.8,10.9,23.9,10.8,23.9z"/>
			<polygon id="XMLID_184_" class="st1" points="10.9,23.9 10.9,23.9 10.8,23.9 			"/>
			<path id="XMLID_183_" class="st1" d="M10.7,12C10.7,12.1,10.7,12,10.7,12L10.7,12z"/>
			<path id="XMLID_182_" class="st1" d="M27.6,25.1L27.6,25.1L27.6,25.1c-0.1-0.1-0.2-0.2-0.2-0.2c0-0.1,0.1,0.1,0.1,0.1
				c0-0.1-0.1-0.1-0.2-0.2h0.1l-0.2-0.2c0.1,0.1,0.2-0.1,0.3,0.1C27.5,24.8,27.5,25,27.6,25.1c0-0.1,0-0.1-0.1-0.1
				C27.5,25.1,27.6,25.1,27.6,25.1z"/>
			<path id="XMLID_181_" class="st1" d="M27.2,24.6v-0.1V24.6z"/>
			<path id="XMLID_180_" class="st1" d="M27.4,12.7C27.4,12.6,27.5,12.6,27.4,12.7l0.1-0.2C27.5,12.5,27.5,12.6,27.4,12.7
				C27.5,12.6,27.4,12.7,27.4,12.7z"/>
			<path id="XMLID_179_" class="st1" d="M27.1,24.5L27.1,24.5L27,24.4c-0.1-0.1-0.2-0.2-0.2-0.3h0.1c0,0,0,0,0-0.1
				c0.1,0,0.2,0.1,0.3,0.3c0-0.1,0-0.1-0.1-0.1c0,0.1-0.1,0,0,0.1C27,24.4,27.1,24.4,27.1,24.5L27.1,24.5z"/>
			<path id="XMLID_178_" class="st1" d="M27.1,24.6L27.1,24.6L27.1,24.6z"/>
			<path id="XMLID_177_" class="st1" d="M26.8,24.2C26.7,24.2,26.7,24.2,26.8,24.2L26.8,24.2L26.8,24.2z"/>
			<polygon id="XMLID_176_" class="st1" points="25.9,14.4 25.8,14.4 25.9,14.3 			"/>
			<path id="XMLID_175_" class="st1" d="M25.3,22.9L25.3,22.9L25.3,22.9z"/>
			<polygon id="XMLID_174_" class="st1" points="23.8,22.2 23.7,22.2 23.7,22.2 			"/>
			<polygon id="XMLID_173_" class="st1" points="22.4,17.9 22.4,17.9 22.2,18.1 			"/>
			<path id="XMLID_172_" class="st1" d="M22,19.7C21.9,19.7,21.9,19.7,22,19.7h-0.1C21.8,19.7,22,19.7,22,19.7z"/>
			<polygon id="XMLID_171_" class="st1" points="21.3,19.8 21.2,19.9 21.2,19.9 			"/>
			<path id="XMLID_170_" class="st1" d="M19.7,20.4C19.8,20.3,19.8,20.4,19.7,20.4L19.7,20.4z"/>
			<polygon id="XMLID_169_" class="st1" points="22.7,20.6 22.7,20.6 22.6,20.5 			"/>
			<polygon id="XMLID_168_" class="st1" points="27.6,26 27.6,26 27.6,25.9 			"/>
			<path id="XMLID_167_" class="st1" d="M27.6,26.2L27.6,26.2C27.6,26.1,27.6,26.2,27.6,26.2z"/>
			<path id="XMLID_166_" class="st1" d="M23.4,27.2L23.4,27.2L23.4,27.2z"/>
			<path id="XMLID_165_" class="st1" d="M23.4,27.2C23.4,27.2,23.4,27.1,23.4,27.2C23.4,27.1,23.4,27.2,23.4,27.2z"/>
		</g>
	</g>
</g>
</svg>
