<?xml version="1.0" encoding="utf-8"?>
<!-- Generator: Adobe Illustrator 22.0.1, SVG Export Plug-In . SVG Version: 6.00 Build 0)  -->
<svg version="1.1" id="圖層_1" xmlns="http://www.w3.org/2000/svg" xmlns:xlink="http://www.w3.org/1999/xlink" x="0px" y="0px"
	 viewBox="0 0 767.8 181.7" style="enable-background:new 0 0 767.8 181.7;" xml:space="preserve">
<style type="text/css">
	.st0{clip-path:url(#SVGID_2_);}
	.st1{fill:#0FAA69;}
</style>
<g>
	<defs>
		<rect id="SVGID_1_" y="-30.7" width="767.5" height="212.4"/>
	</defs>
	<clipPath id="SVGID_2_">
		<use xlink:href="#SVGID_1_"  style="overflow:visible;"/>
	</clipPath>
	<g class="st0">
		<path class="st1" d="M37.8,162.2c2.4-2.7,5.3-4.8,7.6-7.6c1.2-1.5,0.9-1.2,2.2-2.3c0.6-0.6,2.3-1.6,2.7-2.8
			c-2.3,0.1-3.6,2.7-5.2,4c-2.9,2.3-5.7,4.9-8.4,7.5c-2.8,2.6-5.6,5.2-8.4,7.9c-1.9,1.8-6.6,5-6.6,7.9
			C27.6,173.8,33.4,167.2,37.8,162.2z"/>
		<path class="st1" d="M9,190.3c2.6-1.8,4.3-4.5,6.4-6.7c0.9-0.9,1.9-2.7,2.7-3.4c0.8-0.6,2.6-1,2.7-2.6c-2.4,0-3.7,2.8-5,4.1
			c0,0.5,0,0.9,0,1.4c-0.6-0.1-1.1,0-1.6,0.3c-0.7,0.9-1,1.9-1.6,2.5c-0.4,0.4-1.9,0.4-2.5,1C9.1,187.8,9.7,189.6,9,190.3
			c-0.8,0.9-2.8,1-3.9,2.1c-1,1.1-1.6,2.8-2,4.2C5.9,195.5,7.5,192.7,9,190.3z"/>
		<path class="st1" d="M638.1,51.4c2.8,1.4,5.6,2.7,8.4,4c2.2,1,6.1,3.9,8.4,4c5.9,0.4,0.1-2.5-2.1-3.4c-4.9-2-9.7-4.6-14.8-6.2
			c-3-0.9-7.4-4.1-10.5-3.2c2,1.7,4.8,2,6.8,3C635.2,50,636.9,50.8,638.1,51.4z"/>
		<path class="st1" d="M723.7,87c-2.4-1.3-4.5-3.4-7.4-3.1C718.5,85.5,720.6,87.7,723.7,87z"/>
		<path class="st1" d="M673.6,65.2c0.6,1.4,1.9,1.8,3.4,1.8c-0.6-1.6-3.4-2.3-4.7-2.9c-2.2-0.9-4-1.7-6.4-2.1
			C668.1,63.8,670.6,65.2,673.6,65.2z"/>
		<path class="st1" d="M708.5,80.1c-1-1.8-2.5-1.2-3.7-1.3C705.7,80,706.8,80.8,708.5,80.1z"/>
		<path class="st1" d="M682.9,69.7c-0.7-1.5-1.8-1.9-3.4-1.8C680.1,69.4,681.4,69.7,682.9,69.7z"/>
		<path class="st1" d="M698,76c-0.2-1.8-1.3-2-2.9-1.5C696,75.6,696.9,76,698,76z"/>
		<path class="st1" d="M730.6,91.2c1.7-0.3-0.2-2-0.9-1.2C729.7,90.6,730,91,730.6,91.2z"/>
		<path class="st1" d="M679.5,67.9c-0.6-1.1-1.6-0.9-2.5-0.9C677.6,68.1,678.6,67.9,679.5,67.9z"/>
		<path class="st1" d="M727.7,89.1c-0.4-0.1-0.7-0.2-1.1-0.3C726.9,89.2,727.1,89.9,727.7,89.1z"/>
		<path class="st1" d="M725.5,88.4c0.4,0.1,0.7,0.2,1.1,0.3C726.3,88.3,726.1,87.6,725.5,88.4z"/>
		<path class="st1" d="M713.2,82.4c-0.5-0.8-0.9-0.9-1.2-0.3C712.5,82.7,712.9,82.8,713.2,82.4z"/>
		<path class="st1" d="M704.7,78.8c-0.4-0.8-3-2.2-3.5-1.3C702.4,77.7,703.6,78.7,704.7,78.8z"/>
		<path class="st1" d="M699.1,76.4c-0.4-0.1-0.7-0.2-1.1-0.3C698.3,76.5,698.5,77.2,699.1,76.4z"/>
		<path class="st1" d="M690.7,72.8c-0.5-0.6-0.9-0.7-1.2-0.3C690.1,73.3,690.4,73.4,690.7,72.8z"/>
		<path class="st1" d="M453.8,22c-9.5-0.7-18.8,1-28.2,1.9C435.1,24.6,444.4,23.1,453.8,22z"/>
		<path class="st1" d="M486.6,21.8c-9.4,0-18.8,0-28.2,0C467.8,22.9,477.2,22.7,486.6,21.8z"/>
		<path class="st1" d="M418.8,24.7c-1-0.5-1.8-0.5-2.9,0.1C417.1,25.4,417.9,25.4,418.8,24.7z"/>
		<path class="st1" d="M422.3,24.8c-0.4-0.5-0.9-0.5-1.3,0C421.4,25.3,421.9,25.3,422.3,24.8z"/>
		<path class="st1" d="M1010,693.7c-1.7-12.8-5.7-25.6-14-35.6c-3.8-4.5-9.7-7.5-12.6-12.6c-3.3-5.7-1.3-13.1-0.8-19.2
			c1.3-16,1.2-32-0.1-48c-0.6-7.8-2.8-16-2.7-23.8c0.1-8.2,3.4-17,4.6-25.2c4.4-29.2,6-60.3-0.6-89.3c-1.5-6.8-3.6-13.5-6.1-20
			c-2.8-7.2-7-13.7-9.9-20.8c-2.6-6.4-2.7-12.8-3.6-19.6c-1.1-7.7-2.9-15.3-5-22.8c-3.7-13.4-8.8-26.4-15.7-38.6
			c-3.5-6.2-7.4-11.4-9-18.5c-1.8-7.8-3-15.6-5.8-23.1c-5.2-14.3-12.1-28.1-19.6-41.3c-3.3-5.9-7.2-11.5-10.4-17.4
			c-3.5-6.5-5.4-14.1-7.8-21.1c-4.6-13.7-8.9-27.5-19.1-38.2c-8.7-9.2-20.1-14.9-32.3-18.2c-15.1-4.1-30.3-7.5-45.4-11.4
			c-6.7-1.8-13.8-2.7-18.8-7.8c-5.6-5.6-11-11.1-17.3-15.9c-13.6-10.3-27.3-20.6-41.1-30.6C703,64.7,687.4,58.3,672.1,51
			c-15-7.2-29.9-12.3-46.7-12.7c-4.2-0.1-8.5,0.1-12.7,0.5c-1.7,0.2-4.8,1.2-6.4,0.8c-1.6-0.4-3.5-2.3-5-3
			c-3.1-1.5-7.5-3.3-10.9-2.9c-0.5,0.1-0.7,1.1-1.3,1.1c-1.7,0.1-2.9-0.4-4.5-1c1.8-2.3,3.6,0.5,5.6-0.3c-0.4-2.7-9.3-4.1-11.7-4.9
			c-4.4-1.5-8.9-3-13.4-4.3c-4.5-1.2-9-2.2-13.5-3.2c-3.9-0.9-8.1-3.2-12.1-1.4c3.5,0.6,5,2.8,4.8,6.3c-21-5.3-42.1-10.3-64-10.5
			c-10.2-0.1-20.5,0.5-30.7,0.8c-11,0.3-22.1,0.1-33,1.6c-19.9,2.6-39.4,11.3-59.5,11.8c-11.2,0.3-22.4,0.2-33.6,0.4
			c-5.6,0.1-11.2,0-16.8,0.3c-4.7,0.2-9.5,1.3-14.2,0.2c1.3-3.9,8.7-3.6,12-4.4c5-1.2,9.8-2.6,14.8-3.4c10.1-1.7,20.2-3.5,30.3-5.2
			c10.8-1.8,21.6-2.3,32.4-3.7c10.5-1.4,20.8-1.5,31.3-2.3c20.9-1.7,42-1.6,62.9,0.1c10.6,0.8,21.2,1.6,31.8,3.2
			c5.4,0.8,10.9,1.4,16.3,2.3c4.5,0.8,9.2,3.2,13.8,1.7c-0.7-4.5-8.2-2.4-11.5-2.8c-5.4-0.6-10.7-1.9-16-2.8
			c-10.7-1.8-21.2-2.5-32-2.9c-10.8-0.3-21.6-1.4-32.4-1.6c-11-0.2-21.9,1-32.9,1.3c-21.6,0.5-42.7,3.4-64.1,6.1
			c-11,1.4-21.9,3.6-32.8,5.9c-10.1,2.1-20.5,3.8-30.4,6.9c2.2,0.6,4.7-0.4,6.3,1.7c-5.8,1.2-11.7,2-17.7,1.8
			c-6.5-0.3-12.6-2.3-19-3.4c-5.6-1-11.8-2.3-17.5-2c-5.9,0.3-10.8,3.9-15.8,6.7c-10.7,6.1-21.4,12.4-32.6,17.6
			c-11.1,5.2-23.4,5.4-35.3,6.6c-48,5.1-94.7,18.9-135,45.9c-19.5,13.1-35.7,29.4-48.2,49.3c-6.1,9.6-11.3,19.8-16.2,30.1
			c-4.9,10.4-8.2,21.5-13.7,31.7c-2.4,4.4-5.4,8.1-8.4,12c-3,4-5.3,8.5-8.8,12.1c-8.3,8.2-20,14.1-29.5,20.9
			c-19.8,14.1-39,29.1-57.2,45.2c-17.2,15.2-35.8,31.3-47.2,51.5c-11.7,20.8-15.8,45.8-16.5,69.5c-0.7,26,3.5,52.1,4.1,78.1
			c0.6,25.9-1,51.8-1,77.8c0,12.3,3,27.1-2,38.6c-4.8,11.3-10.5,22.2-15.4,33.4c-10.1,23.1-19.8,46.6-24.8,71.4
			c-9.9,49.3-2.1,97.7,20.2,142.6c21.7,43.8,52.5,81.7,84.7,118.1c3.6,4.1,3.1,9.5,4.5,14.6c1.5,5.5,3.8,10.7,6.3,15.9
			c5.3,11.3,10,22.9,15.8,34c11.3,21.7,27.5,39.6,42.7,58.6c7,8.8,10.2,21.5,14.4,31.8c-1.6-6.2-4.9-12.3-6.2-18.5
			c-1.4-7,4.6-0.6,7.1,1.5c10.1,8.7,20.8,16.4,32.3,23.2c10.7,6.4,21.8,12.1,33.2,17.1c5.5,2.4,11.1,4.6,16.7,6.9
			c1.4,0.6,4.1,1.3,4.9,2.8c0.4,0.7-0.7,6.2,0.9,6.4c-0.4-0.7-0.3-3.7-0.1-4.4c0.5-1.9-0.7-1.4,1.4-1.9c1.6-0.5,5.2,1.4,6.8,2
			c2.9,0.9,5.7,1.8,8.6,2.5c10.1,2.5,20.2,5,30.3,7.7c20.7,5.5,41.3,9.6,62.3,13.4c10.5,1.9,20.8,4.6,31.1,7.1
			c10.1,2.4,20.3,4,30.4,6.4c20.6,5,40.3,13.2,61.1,17.8c11.5,2.6,23.1,4.7,34.7,6.6c6.2,1,12.4,1.9,18.6,2.8
			c3.1,0.4,12.8-0.1,14.3,2.9c-8,1.5-16.1,0.9-24.2,0.8c3.8,0.6,7.7,0.8,11.6,0.9c4.1,0.1,10.4-1.6,14.1-0.6c4.1,1.1,2,18.8,2.3,23
			c1.2-7-0.4-14.1-0.1-21.2c0,1.4,0.8-1.5,1.6-2.1c1.7-1.5,4.4-1.1,6.5-1c8.1,0.5,16,1.3,24.2,1.4c15.7,0.1,31.4-1.2,47-2.8
			c15.5-1.6,30.9-4.4,46.4-5.5c15.4-1.1,30.9,0.7,46.3-1.3c-8.8-2.8-19.1,0.5-28.3-0.8c13.9-4.2,28.5-1.5,42.7-2.2
			c-2,0.3-13.3,0.5-13.2,2.9c17.6-1.7,35.2-4,52.8-5.8c18-1.8,34.9-6.8,52.5-10.9c17.4-4.1,35-6.8,52.4-10.7c4.2-1,8.3-2,12.4-3.1
			c3.8-1,8.4-3.3,12.4-3.5c3-0.2,3.3-0.6,0.7,1.5c-1.5,1.2-4.2,2.1-5.9,2.9c-3.9,1.8-7.9,3.5-12,5.2c11-2.2,21-7.7,30.7-13.2
			c9.5-5.4,19.8-9.4,29.4-14.6c9.6-5.3,19.2-11.1,27.9-17.9c7.6-6,14.2-13.2,21.8-19.2c7.7-6.1,16.8-9.8,24.7-15.8
			c8.6-6.6,17.4-11.9,26.6-17.5c19-11.5,36.3-25.3,51.8-41.1c29.5-30.1,54.8-66.1,68.4-106.2c14.2-42.2,14.8-89.2,40.9-126.7
			c6.6-9.5,11.8-19.9,15.5-30.8c3.9-11.6,3.9-23.5,7.3-35.1C1006.5,745.7,1013.5,720.4,1010,693.7z M980.6,622
			c-1.6-10.8-1.5-21.7-1.8-32.6c-0.1-5.4-0.3-10.8-0.9-16.1c-0.4-4.2-2.4-9.3,0.6-12.9C980.1,580.9,982.6,601.5,980.6,622z
			 M952.8,814.4c-3.7,16.4-8,32.6-13.3,48.6c-2.3,7-5.7,13.7-7.6,20.8c-1,3.7-1.8,5.6-4.5,8.4c-0.5,0.6-5.8,6-6.2,5.7
			c-1.2-0.9,7.8-20.5,8.7-22.9c3.4-9.1,6.6-18.2,9.8-27.3c5.8-17.1,10.8-34.7,16.8-51.7c-1.2,3.3-1,6.1-1.4,9.5
			C954.8,808.5,953.5,811.4,952.8,814.4z M934.5,884.3c0.2,0.4-0.1,0.7-0.8,1C932.9,884.1,933.8,884.4,934.5,884.3z M925.1,897.6
			 M913.4,830.4c0.6-24.1,7.6-47.5,10.7-71.3c0.4,13.2,0.5,26.5-0.4,39.7c-0.4,5.6-0.5,11.7-2.6,17
			C919,820.9,915.5,825.3,913.4,830.4z M920.6,830 M920.2,847.1 M838.4,1048.3c1.9-1.5,16.4-21,16.5-20.9c1.6,1.5-6.4,11.9-7.5,13.4
			c-1.8,2.4-3.6,4.7-5.5,7C840.7,1049.2,838.3,1052.4,838.4,1048.3c-1.9,0.5-3.1,1.9-3.3,3.9c-0.1,0.7,2.4,1.3,0.9,2
			c-0.8,0.4-0.6-1.6-2.1-1.1c-1.8,0.5-1.6,3.4-3.6,3.9c-0.8-4.8,3.9-10.5,6.1-14.3c1.1-1.9,7.7-14.1,5.6-14.3c1-2.2,1.8-4.1,2.6-6.2
			c0.8-2.1,2.2-9.2,3.3-4.5c7.1-10.9,10-24.2,15.5-36c-0.4,12.6,0.1,28-6.6,39.1c-2.6,4.3-5.9,8.2-8.8,12.4
			C846.2,1035.5,836.9,1046,838.4,1048.3z M838.4,1051.5c-0.2,0.4-0.5,0.4-0.8,0C837.9,1051.1,838.1,1051.1,838.4,1051.5z
			 M827.6,1053.6c-1.4,3,0.3,6.6-1.2,9.6c-1.7,3.6-6.8,5.4-9.3,8.8c-0.1-5.6,5.2-9.5,7.5-14c0.5-1,1.1-2.1,1.2-3.2
			c0-0.3-1.4-0.7-1.4-1.4c0-2.3,2.9-6.9,4.2-8.6c1.1,2.2-0.1,3.5-1,5.4c-0.3,0.6-1,1.4-0.9,2.1
			C826.8,1052.2,827.4,1054,827.6,1053.6z M826.7,1038.2c-1.8,2.3-1.3,2.4,0.9,2.5c-0.8-0.1-8.6,20.9-10,23.2
			c-2,3.5-5.8,6.1-7.6,9.4c-2.8,5,1.8,0.4,3,0.8c-0.4,2.3-2.8,4.2-3.8,6.2c-1.4,3-2.5,5.8-4.6,8.5c-4.4,5.5-10.1,10.1-15.4,14.7
			c-5.7,4.9-11.6,9.6-17.7,14c-6,4.3-13.1,7.6-18.7,12.3c-1-1.9,9.3-12.4,11.1-14.3c5.3-5.2,11.4-9.5,17.4-13.9
			c6.3-4.7,12.7-9.5,19-14.2c2.6-1.9,6.6-4.1,7.8-6.7c-0.2,0.4,0.1-3,0-2.4c0.1-1.1,2.3-0.9,0.8-2.7c-8.3,7.1-16.4,14-25.4,20.3
			c1.9-3.5,19.6-19.1,17-22.1c-3.5,0.4-5.2,7.1-8.5,8.6c0.4-2.5,3-4.5,4.4-6.5c2.3-3.1,4.2-6.3,6.3-9.6c4.2-6.7,8.2-13.6,11.7-20.7
			c3.8-7.7,7.2-15.6,10.9-23.4c3.2-6.7,5.8-16,11.3-21.2c-1.4,7-2.9,14-4.1,21C831.7,1027.8,830.4,1033.5,826.7,1038.2z M768,1123
			c-0.5,0.5-1.1,0.9-1.7,1.2c0.2-0.3,1.8-2.2,1.9-2C768.6,1122.5,768.5,1122.8,768,1123z M726.9,1152c-10.7,7.3-25.4,15.4-38.7,15.3
			c11.7-5.9,23.5-11.4,35.1-17.6c2.4-1.3,5-2.5,7.4-3.9c1.3-0.8,3.1-3.1,4.3-2.9c2.2,0.3-0.3,2-1.1,2.8
			C731.8,1148,729.5,1150.3,726.9,1152z M729.1,1154.1c-0.9,2.8-2.8,4-5.4,4.2C725.2,1156.4,726.3,1154,729.1,1154.1z M708.8,1165.8
			c-0.5,0.5-0.9,0.5-1.4,0C707.9,1165.4,708.3,1165.4,708.8,1165.8z M702.8,1171.1c-19.4,13.6-41.4,23.2-64.7,27.3
			c10.5-6,20.2-13.6,31.7-17.7c5.9-2.1,12.1-3.2,18-5.3c2-0.7,6.3-1.4,7.8-2.7c2.2-1.9-0.8-0.9-0.1-2.6c0.8-2,9.2-3.9,11.2-4
			c-1.6,2.4-5,1.8-6.8,4C700.6,1171.5,702,1170,702.8,1171.1z M315.4,1214.1c-8.1-2-16.8-2.6-25-3.9c10.8-2.2,21.2,0.3,32,1
			c5.4,0.4,10.9,0.5,16.3,0.4c3.1-0.1,6.2-0.2,9.3-0.5c2.1-0.2,6.1-1.4,8.1-0.1c-1.3,1.9-5.1,1.7-7.1,2.1c-4,0.7-7.9,1.5-11.9,2.4
			C329.1,1217.3,323.1,1216,315.4,1214.1z M319.1,1217.5 M144.6,1195.6c-16-5.8-31.8-12.4-47.5-18.9c-7.1-2.9-14.1-5.9-20.7-9.8
			c-2.6-1.5-16.5-12.5-18.5-10.8c0.3-3.6-12.2-9.9-14.9-11.7c-6.7-4.6-13.5-9.1-20.3-13.4c-13.5-8.5-27.5-16-40.4-25.4
			c-6.1-4.4-11.9-9.1-18.1-13.3c-5.8-4-13-6.9-18.1-11.6c-4.7-4.4-6.4-10-7.9-16.1c-1.9-7.6-3.5-15.3-5.2-22.9c6.4,3,10.5,5.4,15,11
			c4.8,5.8,9.8,11.3,14.9,16.8c4.9,5.1,10.1,10,14.9,15.2c0.6,0.7,3.9,3.6,2.9,4.3c-0.9,0.6-4.3-3-5-3.4c-0.8,3.7,5.7,6.1,8.1,7.6
			c3.8,2.4,7.5,4.8,11.2,7.2c8.1,5.2,16.2,10.3,24.5,15.2c16.1,9.7,32.7,18.2,50.2,25.2c7.6,3,15,6.6,21.7,11.5
			c7.1,5.2,13,11.6,20.5,16.4c15.5,10,32.2,17.8,47.9,27.5C154.7,1196.5,149.5,1197.3,144.6,1195.6z M153.7,1200.8
			c-4.5,0.1-7.7-0.8-10.5-3C146.4,1198.2,149.7,1198.2,153.7,1200.8z M10.7,1149.2c0.3,6.8-12.2-1.7-14.6-3.7
			c-2.8-2.3-2.1-3.8-1.7-7.1c0.6-4.6,0.1-9.3,0.3-13.9c9.5,4.8,17.9,11.4,27.1,16.6c8.6,4.8,17.1,9.9,26,14.3
			c18.7,9.3,36.6,19.3,54.6,29.8c-1.6,2.4-22.1-4.8-25.5-5.7c-10-2.6-19.9-5.3-29.5-8.8c-8.9-3.2-17.8-6.7-26.1-11.1
			c-3.3-1.7-8-3.4-9.1-7.2c-1.1-4,0.3-11.2,1-15.1C10.4,1140.6,10.5,1145,10.7,1149.2z M-132.8,1001.3c4.5,3.1,9,6.2,13.5,9.3
			c1.9,1.3,4.5,2.5,5.7,4.4c1.2,1.9,1.4,5.1,2.1,7.2c3.1,9.3,8.2,17.7,14.5,25.2c6.7,8,14.5,15.3,22.4,22c4.5,3.8,9.2,7.2,14.1,10.5
			c4.3,2.9,4.8,7,8.2,10.4c-0.1-6.5,13,3.1,14.3,3.9c10.1,6.5,19.3,14.2,29.4,20.7c10,6.5,20.5,12.2,30.6,18.6
			c10.6,6.7,20.5,14.6,31.2,21c1.3,0.8,5.6,1.6,4.5,3.2c-0.9,1.4-1.7,0.1-2.9-0.2c-5.5-1.4-11.5-6-16.5-8.7
			c-10.7-5.9-21.2-12.2-31.5-18.8c-10.1-6.5-20-13.2-29.6-20.4c-8.7-6.6-16.6-14.6-25.4-20.9c-0.5,3.3,5.6,7,7.6,8.8
			c1.2,1.1,8.8,6.5,8.6,7.5c-0.2,0.9-7-3.2-8.4-4c-4.1-2.2-7.9-4.6-10.3-8.7c-0.5,4.5-6.8-0.7-8.8-1.8c-4.6-2.6-9.2-5.5-13.5-8.6
			c-8.8-6.3-16.9-13.5-24.2-21.5c-8-8.8-15.6-18.2-22.8-27.7C-126.4,1024-129.1,1011.4-132.8,1001.3z M-127.5,1021.4
			c-0.5,0.6-0.4,0.1-0.5-0.2C-127.8,1021.3-127.7,1021.4-127.5,1021.4z M-183.8,809.8c0.4,3-1.1,6.6-1.6,9.6
			c-0.5,3.1-0.9,6.2-1.2,9.3c-0.7,7-1,14-0.9,21c0.2,13.7,2.3,27.1,4,40.7c1.6,12.9,2.3,25.7,5.8,38.3c3.3,12,7.9,23.6,12.2,35.3
			c-5.3-4.1-8.3-11.1-11.1-17c-3.3-6.9-5.8-14-7.8-21.4c-4.4-16.1-5.8-32.8-6.3-49.4c-0.6-17.7-0.2-35.3-0.4-53
			c-0.1-14.5-2.6-30.6,0.4-44.8c1.5,5.2,3.8,10.1,5.4,15.3C-183.7,799.3-183.9,804.1-183.8,809.8z M-192.3,763.6
			c0-3.2-1.9-2.4-3.3-4.8c-0.9-1.5-1.1-4.2-1.5-5.9c-1.3-5.4-2.9-10.7-4.5-16.2c-0.9-3.3-2-5.2-2.4-8.6c-0.4-3.4-1.1-6.6-1.9-9.9
			c-1.8-7.4-2.6-15-3.7-22.6c-2.4-15.2-5-30.3-7.1-45.6c-1.1-7.8-2-15.6-2.7-23.5c-0.3-3.6-1.2-7.9-0.8-11.5c0.4-3.3,2.6-5.3,4.2-8
			c0.2,13.2,2.8,26.2,6.3,38.9c3.1,11.2,7.2,21.3,8.2,32.9c2.4,26.3,7,52.3,7,78.8c3.3-4.9,1.3-13.1,0.9-18.6
			c-0.5-7.1-1-14.2-1.6-21.3c-0.6-6.7-1.2-13.4-2-20.1c-0.4-3.5-0.8-7.1-1.3-10.6c-0.4-2.8-1.7-6.5-0.6-9.3
			c3.3,8.6,7.2,17.1,8.8,26.2c1.7,9.8,1.4,20,2.4,29.9c1.1,10.1,2.6,20.1,4.2,30.1c1.5,9.4,2.7,18.7,0.2,28.1
			C-186.5,782.7-192.3,773.9-192.3,763.6z M-209.2,571.4c2.7-11.5,5.1-22,7.5-32.6C-199.5,552.4-201.3,560.2-209.2,571.4z
			 M-200.8,561.2 M-201.3,561.3c1.2,3.6-2.6,9.6-3.9,12.9c-2.1,5.5-4.3,10.9-6.6,16.3C-211.6,579.8-206.3,570.5-201.3,561.3z
			 M-210.7,592.9c3.4-7.8,6.3-15.9,9.9-23.6c0,7,0.6,14,0,21c-0.7,7.5-1.6,15-2.2,22.5c-0.5,7.1-0.8,14.3-1,21.4
			c-0.1,7.1-1.6,15.5-0.1,22.4c-0.9-2.1-2.4-4.2-2.4-6.5c-0.1-1.3,0.2-2.5,0.9-3.6c-0.6-1.4-1.1-2.7-1.6-4.1c-2-5.4-3.6-11-4.6-16.7
			C-213.7,615.4-215,602.9-210.7,592.9z M-180.4,452.6c2-5.8,5.7-10.6,9.1-15.6c1,2.3-0.7,6-1.2,8.3c-0.8,3.4-1.6,6.8-2.5,10.1
			c-1.9,7.1-3.9,14.1-5.6,21.2c-3.2,13.2-6.8,26-10.5,39.1c-0.5,1.6-0.8,5.9-2.9,6c-2.8,0.1-2.2-4.8-2-6.7
			c0.7-6.7,2.9-13.6,4.3-20.2C-188.5,480.6-185,466.4-180.4,452.6z M-195.3,501.2c1.5-14.4,4.5-28.5,10.6-41.6
			C-188.6,473.3-191.8,487.3-195.3,501.2z M-161.3,427.5c0.3,1.7-0.5,2.9-1.3,4C-162.4,430.2-162.6,428.7-161.3,427.5z
			 M-162.5,411.8c0.2-0.6,0.4-0.7,0.6-0.2C-162,412.6-162.2,412.6-162.5,411.8z M-157.1,422.3c2.4-6.8,13.5-12,20.3-10.9
			c-12,19-24.4,37.9-34.9,57.8c1.1-3.6,1.1-5.9,2.8-9.2c1.6-3.1,2.1-6.5,3-10C-163.6,440.6-160.4,431.4-157.1,422.3z M-160.6,424.8
			c0.2-0.3,0.4-0.7,0.6-1C-159.3,422.6-161.3,426.8-160.6,424.8z M-134.8,363.6c3.2-3.1,4.3-9.3,6.1-13.5c2-4.7,4.2-9.2,6.5-13.7
			c5.1-9.8,10.8-19.3,16.5-28.7c5.6-9.2,11.1-18.6,17.4-27.3c3.2-4.4,6.4-8.7,9.5-13.1c2.6-3.6,6.1-11.2,10-13.2
			c-0.2,5.7-2.5,11.7-3.8,17.3c-1.4,6.1-2.9,12.2-4.3,18.4c-2.1,9-2.9,16.7-9.6,23.8c-8,8.6-16.3,16.8-24.3,25.4
			c-4.3,4.6-8.5,9.2-12.6,13.9c-2.1,2.3-4.1,4.7-6.2,7.1c-0.9,1-3.7,5.9-5,5.9C-135.2,365.7-134.7,363.8-134.8,363.6z M-134,358.2
			c-0.1,0.2-0.2,0.4-0.2,0.6C-134.7,358.2-134.3,358.2-134,358.2z M-133.9,347.5c1.5-4.7,3.3-9.3,6.2-13.3
			C-129,339.1-131.1,343.5-133.9,347.5z M-132.6,355.7 M-133.2,356.4c-0.1,0.6-0.1,1.3-0.8,1.7C-134,357.3-133.8,356.7-133.2,356.4z
			 M-126.9,332.4 M-119.4,319.7c-0.3,2.6-0.6,5.1-3,6.8C-123,323.2-119.5,322.3-119.4,319.7z M-96,286.3c0.2-0.2,0.4-0.4,0.6-0.7
			C-95.4,286.8-95.6,287.1-96,286.3z M55.6,141.1c-14.2,9-27.1,19.7-40.1,30.3c-6.2,5.1-12.4,10.2-18.8,15c-3.5,2.7-7,5.3-10.6,7.8
			c-3,2.1-6.2,5.3-9.6,6.6c0.4-3,5.9-6.4,8-8.4c3.3-3.2,6.8-6.4,10.2-9.5c7.5-6.7,15.3-13.1,23.4-19.1
			C28.8,155.6,42,144.3,55.6,141.1z M21,157.9c0.6-0.3,1.1-1.2,1.5-0.7C21.8,157.6,21.5,158.5,21,157.9z M105,100.8
			c-4.7,2.4-9.3,4.8-14,7.2c-2.6,1.4-9,6.2-12.2,4.9c19.4-13.4,40-25.2,62.7-31.9c-3.2,4.3-11.3,7.9-16,10.1
			c-3.8,1.8-7.6,3.6-11.5,5.3c-0.9,0.4-7.7,3-3.6,3.6c-25.8,22.1-55.3,39.3-85.5,54.8c4.6-6.4,12.6-11.4,18.8-16.1
			c7-5.2,14.3-10,21.7-14.5c7.4-4.5,15-8.7,22.7-12.8c6-3.2,14.7-5.7,19.3-10.8C106.7,99.4,105.9,100.3,105,100.8z M158.7,78.7
			c4.9-1.7,9.4-4.6,14.5-6c6-1.7,12.5-2.1,18.7-2.7c6.1-0.6,12.2-1.2,18.3-1.8c3.2-0.3,6.3-0.6,9.5-0.8c2-0.2,2.8-0.6,4,0.8
			c0.9,1.1,1,4,1,5.2c-14.2,0-28.4,0.9-42.4,2.8c-6.8,0.9-13.7,2.1-20.4,3.5c-2.7,0.6-16.9,5.8-18.8,4
			C148.1,81,153.2,80.6,158.7,78.7z M144.9,75.3c5.2-3.3,10.7-4.6,16.8-3.9C156.1,72.7,150.5,74,144.9,75.3z M459.8,55.9
			c-10.7,2.1-21.6,2-32.4,2.9c-11.7,1-23.2,4.9-35,4.2c-5.4-0.3-10.8-1.3-16.1-2c-5.7-0.7-11.7-0.2-17.3-1
			c-4.9-0.7-10.1-3.8-14.7-5.7c-5.8-2.4-11.6-4.9-17.4-7.3c19.7-7.3,42.8-7.4,63.5-6.4C413.8,41.8,438.7,45.3,459.8,55.9z
			 M336.5,41.5c0.6-1.4,1.5,0.5,0.8,0.7C337.1,42.3,336.3,42,336.5,41.5z M706.2,106.8c-6.9,0.2-15-4.9-21.2-7.2
			c-7.4-2.7-15.1-4.8-22.7-7.1c-16.4-5-33.1-8.5-50-11.3c-8.4-1.4-16.9-2.6-25.3-3.8c-7.7-1.1-15.4-0.6-23.1-2.5
			c-7.1-1.8-13.9-4.5-20.8-6.9c-8.1-2.8-16.5-4.8-24.7-7.1C583.5,62.6,647.8,77.7,706.2,106.8z M698.9,99.7c0.5,0.2,0.9,0.5,1.4,0.7
			C699.8,100.4,699.2,100.4,698.9,99.7z M735,122.5c3.1,1.2,6.2,2.6,8.3,5.3c-1.1,0-2.2,0-3.3,0c8.3,2.9,16,7.2,23.4,11.7
			c3.6,2.2,7.1,4.5,10.7,6.7c2.2,1.3,7.8,3.4,8.7,6.2c-19.3-7.2-39.1-14.6-55.1-28c0.8,0,1.5-0.1,2.3-0.1c-4.5-2.8-10-3.4-14.4-6.4
			c1-1.2,2.6,0.5,3.4-0.9c-2.6-3.7-9.1-1.7-12-5.4c7.3,1.6,14.6,3.6,21.4,6.6c-1.4,1.2-3.2-0.5-4.4,0.7
			C727.1,121.5,731.4,121,735,122.5z M743.5,127.8c0.3,0.1,0.6,0.1,0.9,0.2C743.9,128.8,743.8,128.2,743.5,127.8z M745.8,118.2
			 M760,133.8c-4.6-1.1-8.4-3.8-12.3-6.6C752.5,127.8,756.3,130.6,760,133.8z M751.9,125.1c6.2,1.1,11.8,3.9,16.9,7.7
			C763.1,130.5,757,129,751.9,125.1z M808.5,168.3c3,1.3,2.7,1.4,3.6,3.2c-0.2,0.3-0.5,0.5-0.7,0.8c0.6,0.6,1.1,1.3,1.6,2
			c0.7,1.2,1.7,2.3,2.5,3.5c3.2,4.7,6.1,9.7,11.1,12.7c0-4.5-5.7-8.7-8.6-12c4.7,1.4,6,4.6,8.4,8.4c0.3,0.5,2.1,2.5,2.1,2.8
			c0.2,2.3,0.3,0.9-1.1,1.7c0.4,2.9,5.9,6.2,5.5,8.8c-0.2,1.6-9.7,6.3-11,5.8c-3.2-1.3-7.5-8.8-9.7-11.3c-3.2-3.6-6.5-7.2-9.8-10.7
			c-6.9-7.2-14-14.2-21.5-20.7c-3.8-3.3-7.8-6.6-11.8-9.6c-2.9-2.2-8.2-4.3-9.4-8c10.3,4.3,21,8.2,30.8,13.3
			c4.3,2.3,8.5,4.9,12.3,7.9c0.9,0.7,3.4,3.8,4.6,3.8C811.1,170.4,807.5,169.8,808.5,168.3z M864,238.4
			c-5.6-7.6-11.3-15.2-16.9-22.8c-2.3-3.2-14.4-14.9-5.6-16.5c7.2-1.3,11.3,11.7,14.4,16.4C860.6,222.7,862.3,230,864,238.4z
			 M856.5,201.9c6.2,0.8,5.7,5.6,6.5,9.4C861,208.4,859,205.5,856.5,201.9z M926.9,314c3.2,11.5,4.9,23,8.8,34.4
			c3.8,11.3,2.4,23.7,2.4,35.4c-4.1-3-5.2-8.9-6.9-13.5c-2.2-6.2-4.3-12.4-6.4-18.6c-4.1-12-8.1-24.1-12.7-35.9
			c-1.9-4.9-5.5-10.4-6.3-15.5c-0.7-4.6,4.6-6.1,7.3-9.1c1.4-1.5,2.2-3.4,4.2-2.5c1.8,0.7,3.3,6.4,4.1,8.2
			C923.6,302.4,925.2,308.2,926.9,314z M923.4,295.5c1.7,1.8,8.2,12.1,4.8,13.5C926.6,304.5,925,300,923.4,295.5z M937.7,348
			c-2.7-3-2.9-7.8-3.8-11.5c-1.2-5-2.6-9.9-2.6-15C934.6,330,937.7,338.8,937.7,348z M932,314.5c0.8-0.3,0.6,0.2,0.3,0.7
			C932.2,315,932.1,314.8,932,314.5z M968.4,462.3c-1.1-6.9-0.3-13.8,0.9-20.6c6.4,33.4,7.9,67.6,7.6,101.5
			c-1.9-5.6-5.5-10.5-6.7-16.3c-1.5-6.9-1.2-14.5-1.5-21.5c-0.3-6.9-0.6-13.9-0.4-20.9C968.6,477.1,969.6,469.7,968.4,462.3z
			 M970,533.8c3.7,8.7,6.5,16.9,4.3,26.5c-2.1,9.3-4.1,18.9-7.4,27.9C966.3,570,969.8,552,970,533.8z M963.7,595.2
			c-0.2,5.3-2.3,10.2-4,15.2c-0.4,1.1-1.2,5.6-2.3,5.6c-1,0-1-5.6-1.1-6.7c-1.1-11.4-2.5-22.7-2.4-34.2c0.1-11.7,1.5-23.4,2.8-35.1
			c0.2-2.1,0.4-4.3,0.9-6.4c0.5-2.1,2.2-4.7,2.1-6.8c-0.1-2.7-1.3-1.4-1.6-3.1c-0.3-1.9,0.6-4.6,0.8-6.5c2.7,1.1-0.2,3.8,1.5,5
			c0.8,0.5,1.1-1.2,1.3-1.1c1.1,0.4,1.7,0.4,2.8,1.9c4.2,5.4,2.8,13.6,2.5,20C966.2,560.4,964.3,577.8,963.7,595.2z M938.2,800.6
			c0,1.9-0.1,3.8-1.9,5.5C936.2,803.6,936.8,801.9,938.2,800.6z M936.9,786.4c0-0.3,0.1-0.5,0.3-0.7c1.1-0.2,0.1,1.3,0.1,1.4
			C937.1,786.8,937,786.6,936.9,786.4z M937.9,744.1c-0.1,0.6,0.2,1.5-0.1,2c-0.4,0.9-1.5,0.7-1.7,1.2c-1,1.9-0.9,2.6-0.7,5.2
			c0.4,6.4,0,12.8-0.7,19.2c-0.6,5.8-1.2,11.8-2.7,17.4c-1.5,5.4-4.3,10.2-6.7,15.3c0.6-15.3,1.1-30.6,1.3-45.9
			c0.1-6.4-0.5-13.3,1.4-19.5c1.9-6.1,5.5-12.2,8.1-18.1C939.3,728.2,938.9,736.3,937.9,744.1z M932.6,814.4
			c0.8-2.2,1.7-4.5,2.5-6.7C935.6,810.3,935.1,812.7,932.6,814.4z M932.5,817c-0.7,1.3-0.4,3.5-1.9,4.2
			C929.5,819.2,932.2,817.7,932.5,817z M930.1,823.8c0.1,0.8-0.3,1.5-1.1,1.8C928.4,824.3,930,822.3,930.1,823.8z M927.4,814.8
			 M920.1,750.4c0.4-9,2.7-16.8,4.5-25.2C926.4,730.9,923.9,745.1,920.1,750.4z M924.4,837.1c-1,0.7,0.1-1.9,0.3-2.4
			C925.1,835.5,925.1,836.5,924.4,837.1z M890.9,880.4c-0.4,0.6-0.9,1.2-1.4,1.7c4.4-23.7,15.5-45.3,22.5-68.2
			c1.2,7.5-1.1,18-3.5,25.1C903.7,853.1,896.4,866.6,890.9,880.4z M905.5,852.3c-0.2,4.1-1.2,7.7-4.2,10.6
			C902,859,903.3,855.5,905.5,852.3z M892.4,891.4c-2.5,3.6-4.3,7.6-6.6,11.3c0.6-3,0.9-6.2,1.9-9.2c1.1-3.2,3.2-4.7,5.1-7.4
			c3.3-4.7,5-11.9,7.4-17.1c1,3.6-1.2,7.1-2.4,10.4C896.3,883.6,894.9,887.8,892.4,891.4z M899.5,890.1 M896.4,896
			c-0.2,0.3-0.4,0.6-0.6,1C895.5,896.1,896.6,895.7,896.4,896z M895,898.8c-0.1,0.4-0.3,0.7-0.4,1.1
			C893.7,899.1,894.9,898.9,895,898.8z M870,950.5c2-7.4,3.2-15,6.7-21.8C875.4,936.3,873.2,943.6,870,950.5z M876,944.6
			c-0.1,0.6-0.5,0.8-1.1,0.7c-0.3-0.6-0.2-1,0.3-1.4C875.5,944,875.7,944.3,876,944.6z M834.9,1024.9c-0.5-21.2,10-35.8,22.8-49.2
			C853.8,993.8,843.5,1008.6,834.9,1024.9z M846.5,1010.4c-0.9-1.5-0.1-2.3,0.8-3.1C847.9,1008.5,847.6,1009.5,846.5,1010.4z
			 M845.8,1011.1c-3,10.8-7.9,20.7-13.8,30.1C833.3,1029.3,840.8,1020.9,845.8,1011.1z M790.6,1083.7 M790.3,1084.9
			c0,0-1-0.9,0.3-1.2C790.8,1084.2,790.7,1084.6,790.3,1084.9z M771.6,1102.1c8.3-16.2,16-32.8,24.8-48.8c4.3-7.9,8.9-15.6,14-23
			c5-7.3,11.4-13.4,17.3-20c-3,17.4-14.6,34.8-23.6,49.6c-5.5,8.9-11.2,17.7-17.6,26.1C782.2,1091.7,777.5,1098.1,771.6,1102.1z
			 M727.3,1144.4c-0.4,1.6-1,2.4-2.3,1C725.7,1145.1,726.5,1144.8,727.3,1144.4z M725.1,1143.5 M721.5,1143.6c2,1.8,3.4-2.3,3.3,1.8
			c-1.8-0.8-2.8,1.6-4.4,1.5c-0.5,0-0.5-1.5-0.6-1.5c-1.1,0-1.5,0.1-2.6,0.3c-4.5,1.2-10.2,5.8-14.3,8.2c-3.8,2.2-6.4,3.9-10.3,5.5
			c-2.6,1.1-9.4,6.6-12.2,5.3c1.7-4.4,10.3-6.7,14.1-8.8c5.9-3.1,11.7-6.5,17.4-10c10.8-6.7,21-13.8,30.6-22.1c4-3.5,8.2-6.6,13-8.8
			c7.7-3.5,2.7,0.8-0.8,3.6C744.1,1127.5,732.7,1135.4,721.5,1143.6z M566.2,1185.1c-12.6,1.5-25.4,0.1-37.7-2.7
			c5.2-1.1,10.3-2.2,15.5-3.3c1.9-0.4,4.7-1.6,6.7-1.4c1.7,0.1,3.6,1.3,5.5,1.5c9.5,0.7,19.8-1.6,29.3-2c10.3-0.5,20.5-1.2,30.8-2
			c5.3-0.5,10.7-0.5,16-1.1c3.3-0.4,10.9-4,13.4-1.5C619.5,1179.2,593.1,1181.9,566.2,1185.1z M592.6,1183.4
			c-4.4,2.2-9,2.8-13.7,2.2C583.5,1184.9,588,1184.2,592.6,1183.4z M460.9,1195.9c-9.8,2.4-19.8,3-29.8,3.9
			c-9.8,0.8-19.5,2.5-29.2,4.1c-9.4,1.6-19,3.7-28.6,3.2c-8.2-0.4-18.6-1.9-25.8-5.8c10.7-1.1,21.2-2.8,31.8-4.4
			c10.4-1.6,20.5-4.3,30.8-6.1c10.4-1.8,21.2-0.5,31.7,0c10.7,0.5,21.4,0.9,32.1,1.9C469.5,1193.7,465.2,1194.8,460.9,1195.9z
			 M467.1,1200.5c-13,1.9-25.9,4.4-39,4.5C441,1201.8,453.8,1198.6,467.1,1200.5z M425.9,1202c-7,1.9-14.1,3.2-21.5,3.1
			C411.7,1203.4,418.7,1202.3,425.9,1202z M402.6,1208.8c-5.2,1.9-10.5,4.4-17.2,1.1C391.9,1209.5,397.2,1209.1,402.6,1208.8z
			 M202.8,1194.3c12.6-6.2,30,0.9,42.9,3.3c15.4,2.9,30.7,5.1,45.8,8.9c-4.3,2.1-11.2,1-15.8,0.8c-9.2-0.5-18.3-1.5-27.4-2.8
			c-9.2-1.3-18.3-2.7-27.4-4.7C215,1198.5,208.1,1197.4,202.8,1194.3z M204.3,1197.6c-2.9-0.1-5.6-0.7-8-2.4
			C199.4,1194.5,201.8,1196.3,204.3,1197.6z M152.6,1166.5c24.7,7.8,51.7,5.4,74.8,20.7C202.1,1181.8,175.7,1181.4,152.6,1166.5z
			 M167.1,1176.6c0,0.5-1.2,0.3-1.2,0C166.3,1176.4,166.7,1176.4,167.1,1176.6z M164.2,1176c-0.6,0.4-0.9,0.2-1.1-0.5
			C163.3,1175.5,165,1175.2,164.2,1176z M122.9,1160.5c14.3,1.1,27.2,6.2,39.1,14.7C148.4,1171.9,135.4,1167,122.9,1160.5z
			 M132.5,1167.7c-0.3,0.3-0.6,0.3-1-0.1C131.8,1167.2,132.1,1167.3,132.5,1167.7z M72.8,1131.1c-0.1-0.3-0.2-0.6-0.3-0.9
			c4.8,2.2,7.7,6.4,11.2,10.1C78.9,1138.8,76.1,1134.4,72.8,1131.1z M80.6,1142.4c-1.3,0.2-2-0.5-2.4-1.5
			C79,1141,80,1140.9,80.6,1142.4z M75.6,1139.5 M59.4,1130.1c-9.8-5.1-19.5-11.2-29.4-16.5c-5.6-3-11.2-6.2-17-9
			c-5.3-2.6-11.2-4.2-16.4-7.1c-9.8-5.3-17.5-14.3-25.2-22.1c-4.2-4.2-8.3-8.5-12.2-12.8c-0.9-1-10.8-10.8-9.9-12.1
			c1.9-3.2,30.2,24,31.1,22.4c-0.7,4.6,12.9,10.3,16.1,12.1c7.9,4.4,16,8.5,23.6,13.5c7.4,4.9,14.4,10.3,21.3,15.9
			c6.4,5.2,13.8,10.3,19.6,16.1C60.3,1131,59.7,1130.9,59.4,1130.1z M60,1133.3c-19.3-7.3-37.3-17.5-54.5-29.4
			C24.7,1111.5,42.3,1122.4,60,1133.3z M4.7,1103.4c-0.3,0.4-0.4,0.4-0.5-0.3C4.4,1102.6,4.6,1102.7,4.7,1103.4z M2.9,1102.3
			 M-9.8,1064.8c-7.3-3-14.6-6-21.9-8.8c-3.1-1.2-6.9-2.2-9.7-4c-1.5-0.9-5-6.2-6.6-5.6c1.2-1-0.3-1.5,1.7-1.5c1.4,0,3.8,1.6,5,2.2
			c3.6,1.7,7.2,3.4,10.8,5.3C-23.4,1056.1-16.4,1060.3-9.8,1064.8z M-40,1040.8c2.6,1.4,5.6,2.5,7.9,4.3c1.5,1.2,3.6,3.4,0.5,3.4
			C-34.4,1048.6-39.5,1043.2-40,1040.8z M-15.7,1054.6c11.4,4.5,21.5,11.4,30.9,19.5C4.9,1067.5-5.5,1061.2-15.7,1054.6z M-7,1065.5
			c-0.4,0-0.8-0.1-1.3-0.1C-8.2,1064.7-7.8,1064.7-7,1065.5z M-42.1,1041.4c-3-1.1-18.4-7.9-17.1-10.8c3.3,1.8,6.5,3.5,9.8,5.3
			C-47.2,1037.1-41.2,1038.9-42.1,1041.4z M-48.1,1046.5c1.3,6.5-11-4.7-12.2-6.9C-55.5,1040.4-51.7,1043.3-48.1,1046.5z
			 M29.9,1103.1c-11.8-9.2-25.1-15.9-38.2-23.1c-10.9-6-20.4-15.3-29.5-23.7c5.3,0.5,10.3,3.2,15.2,5.2c5.6,2.3,11.3,4.4,16.9,6.8
			c10.9,4.6,20.3,10.4,28.9,18.4c9.2,8.6,18.3,17.4,27.4,26.1c4.6,4.3,9.1,8.7,13.7,13c3.2,3.1,7.9,6,9.3,10.4
			C58.5,1125.9,44.3,1114.4,29.9,1103.1z M18.1,1073.6c0.3-0.2,0.5-0.1,0.6,0.3C18.3,1074.1,18.2,1074,18.1,1073.6z M20.5,1075.7
			c-0.3-0.4,1-0.9,0.6,0.4C21,1076,20.8,1075.9,20.5,1075.7z M22.5,1076.9c2.5,0.2,3.6,1.8,5.2,3
			C25.4,1080.1,24.1,1078.9,22.5,1076.9z M46.2,1093.4c-1.1-0.7-0.8-1.1-0.2-1.6c0.3-0.2,2.7,1.3,3.1,1.5c3.2,1.7,6.5,3.1,9.8,4.5
			c6.5,3,13.1,5.8,19.7,8.8c13.7,6.3,26.3,13.7,38.9,21.9c25.4,16.5,53.7,28,79.3,44.1c-15.3-2.5-30.4-5.9-45.6-9.2
			c-6.9-1.5-12.5-3.7-19-6.7c-7-3.2-13.8-4.3-21.1-6.4c-12.9-3.7-23.2-15-32.6-24.1C67.5,1115.8,56.9,1104.5,46.2,1093.4z
			 M132.5,1159.3c-0.7,0.8-8.7-1.5-10-1.8c-4.4-1-8.8-2.5-12.5-5.1C117.3,1153.7,126.4,1154.5,132.5,1159.3z M121.3,1165.9
			c-4.9,0.4-16.1-6.1-17.8-11.4C109.5,1158.3,115.8,1161.5,121.3,1165.9z M118.4,1166.3c1.3,3.2,6.6,1.1,6.8,5.6
			c-1-0.3-8.3-3.8-7.9-4.9C117.6,1166.7,118,1166.5,118.4,1166.3z M493.9,1192.1c-6.6,2-13.3,3-20,3.1
			C480.4,1192.9,486.9,1190.7,493.9,1192.1z M426.3,1187.7c21.8-5.1,50.5-4.7,64.1,0.7C486.1,1190.6,438,1190.2,426.3,1187.7z
			 M487.5,1185c-18.5-5.6-35.9-3.3-54.6-0.4c-18.5,2.8-37.3,2.7-55.9,3c-18.9,0.3-37.9,1-56.8,1.4c-9.3,0.2-18.1,0.4-27.2-1.9
			c-9-2.3-18.1-4.1-27.2-5.7c81.5-22.6,166.4-13.8,248.4,1.3C505.6,1185.9,496.5,1187.7,487.5,1185z M401.9,1190.7
			c-16,2.6-31.9,5.3-47.9,7.6c-7.5,1.1-13.4,2.2-20.8,0.1c-7.4-2.2-15.2-3.8-22.3-6.9c15.6,0.4,31.1-0.5,46.7-1.3
			c7.6-0.4,15.1-0.8,22.7-0.9c4-0.1,8-0.1,11.9-0.1C394.9,1189.1,401.7,1188,401.9,1190.7z M290.1,1189.2c-17.8,0.6-35.6,4-53.2-1.4
			C254.9,1179.3,272.5,1184.7,290.1,1189.2z M215.4,1178.2c11.7,0.2,22.1,2.3,32.9,3.7C237,1187.3,226.5,1185.7,215.4,1178.2z
			 M220.8,1189.6c13.4,0.5,26.8,2.5,38.8,8.8c-6.9-1.3-13.8-2.6-20.7-3.9c-3.1-0.6-6.1-1.2-9.2-1.7
			C227.5,1192.3,220.4,1192.1,220.8,1189.6z M252.2,1192.5c14.1,0.5,28.2-1.2,42.3-1.2c13.3,0,26.1,5.7,38.6,9.5
			c-11.8,5.5-27.9,3.7-40.4,2.3C279.5,1201.6,264,1199.4,252.2,1192.5z M352.8,1207.9c-4.9,2.7-35.4,2.5-42.2-0.3
			C324.5,1206.1,338.3,1208.4,352.8,1207.9z M329.1,1205.8c6.1-3.6,17.8-4.2,24-0.1c2.6,1.7-1,1.3-2.6,1.2c-2.3-0.1-4.5-0.2-6.8-0.3
			C338.9,1206.3,334,1206,329.1,1205.8z M509.1,1192.9c-3.9,2.7-33.4,6.7-39.3,5.5C482.9,1197.1,495.9,1193.5,509.1,1192.9z
			 M503.5,1189c12.2-6.5,24.8-4.7,37.5-1.8C528.5,1187.3,516.1,1190,503.5,1189z M547.7,1189.9c-11,1.6-22.1,3.6-33.2,2
			C525.6,1192,536.5,1187.9,547.7,1189.9z M699.2,1144.1c-0.3,0.1-0.6,0.1-0.9,0.2c1.2-3,5.3-7.1,7.3-3.3
			c8.1-6.5,18.1-9.7,27.6-13.5c-13.7,12.2-29.3,21.9-45.8,29.8c1.8-3.2,4.5-5.6,7.4-7.8c2.5-1.9,6.8-3.4,7.5-6.8
			C701,1142.5,700.4,1143.9,699.2,1144.1z M711.4,1098c0.7-1.8,1.3-3.3,2.4-4.4c1.2-1.1,4-2.3,5.5-3.5c3.5-2.7,6.8-5.6,10.1-8.5
			c1.4-1.2,3.2-2.4,4.4-3.8c1-1.2,1.2-3.1,2-4.1c1.5-1.9,6.1-3.4,8.2-4.5c4-2,6.2-2.1,8.7-5.8c1.2-1.8,4-6.3,6.8-5.7
			c2.4,0.5,0.5,3.4,0.8,5.5c0.2,1.2,0.3,2.2,1.3,2.9c2.3,1.7,3.3-0.4,5-1.4c-2.7,1.7-3,5.4-5.6,7.8c-3,2.7-6.2,5.1-9.7,7.1
			c-2.4,1.4-18.3,11.3-20.6,9.3c0,0,0.1,0.1,0.1,0.1c-0.5,0.9-1.2,1.2-2.1,1c0.4-0.8,0.9-2,2-1.1c-0.3-2.9,4.8-6.1,6.6-7.9
			c3.4-3.4,6.9-6.8,10-10.4c-5.6,4-10.8,8.5-15.8,13.3c-2.4,2.3-4.7,4.6-6.9,7c-2.5,2.7-4,5.7-6.2,8.4c0.9-1,1.5-2.2,1.8-3.5
			C717.1,1095.1,714.3,1097.4,711.4,1098z M732.5,1004.1c20.3,0.2,40.7-0.2,61,0.2C772.9,1010.7,753.2,1009.4,732.5,1004.1z
			 M798,1004.4c2.2,0,4.3-0.1,6.5-0.4c-8.3,3.1-17,4.7-25.8,5.3C785.2,1008.2,791.7,1006.5,798,1004.4z M814.6,1000.2
			c1.2-0.8,5.2-4.6,1.1-3.5c3.9-12.4,8.7-24.5,14.8-36.1c6.7-12.8,15.6-23.4,23.7-35.2c1.2,2.7-2.3,9.2-3.3,11.9
			c-1.6,4.3-3.3,8.7-5,12.9c-3.7,9-7.8,17.9-12.2,26.6c-3.7,7.2-7.5,14.4-11.9,21.2c-2.5,3.9-5.4,9-9.6,11.5
			C812.8,1006.3,813.7,1003.2,814.6,1000.2z M808,1001c-1.4,0.5-2.8,0.8-4.2,1.1c1.6-0.7,3.2-1.4,4.7-2.1
			C808.4,1000.4,808.2,1000.7,808,1001z M803.4,1023c0.2-0.4,0.5-0.8,0.8-1c1.6-0.4-1.1,5.3-1.3,5.8c-1.3,3.3-2.5,6.7-4.1,9.8
			c-1.5,2.9-3.2,5.6-5.4,8c-0.5,0.6-2,1.4-2.2,2.2c-0.5,2.5,1.3,0.9,1.2,1.8c-0.1,2.3-0.8,0.1-0.9,0.1c0.4-0.2-1.4-0.2-1.8-0.1
			c-0.7,0.2-1.1,1.5-1.5,2c-4.8,6.1-9.4,12.3-13.8,18.7c0.4-0.6,0.7-1.3,1-2c-4.7-1.3-23,21.2-26.2,17.1c8.8-8.2,17-16.5,25.3-25.3
			c-2.6-0.5-3.3,3.7-6.1,3.3C779.5,1049.5,790.4,1035.2,803.4,1023z M802.3,1038.4c0,0.7-0.1,1.4-0.8,1.7
			C801.3,1039.3,801.6,1038.8,802.3,1038.4z M801.5,1040.2c0,1-0.6,1.6-1.4,2.4C800,1041.2,800,1040.3,801.5,1040.2z M798.4,1044.9
			c0.2,1.3-0.5,1.9-1.1,2.5C797.3,1046.5,797.3,1045.5,798.4,1044.9z M796.4,1048.4c0,1.4-0.4,2.7-1.6,3.5
			C794.7,1050.4,795.2,1049.3,796.4,1048.4z M794.7,1052c-0.1,0.2-0.2,0.4-0.2,0.6C794.1,1052.1,794.4,1052,794.7,1052z
			 M793.4,1054.3 M793,1054.8c0,0.3-0.1,0.5-0.1,0.8C792.4,1055.4,792.4,1055.2,793,1054.8z M788.6,1057.5
			c-3.5,7.3-8.4,14-12.7,20.8c-1.3,2.1-1.6,3-2.8,4.8c-2.2,3.4-4.6,5.7-6.1,9.6c0-0.2-3,2.4-3.3,2.8c-1.3,1.6-2.2,3.5-2.6,5.5
			c0.2,0,1.8-0.6,1.7,0.2c-0.3,1.3-0.6,2.3-2.2,2.7c-0.8-5.5-6.4,3.2-8.1,5.2c-2.9,3.5-5.7,7-9.4,9.8c-2.3,1.8-20.9,12.5-22.2,10.5
			c-0.7-1.1,15.5-14.6,17.1-16c7.1-6.3,13.7-13,20-20.1c11.9-13.5,21.8-28.6,33.3-42.1C791.3,1053.7,790.1,1055.5,788.6,1057.5z
			 M791,1058.7 M790.4,1059.4c-0.1,0.2-0.1,0.5-0.2,0.7C790,1059.9,790.1,1059.6,790.4,1059.4z M783.7,1073.4
			c-1.8,3.8-3.3,8.1-6.7,10.9c1.9-3.8,3.8-7.7,5.6-11.5C783,1073.1,783.3,1073.2,783.7,1073.4z M773.5,1086.2
			c-0.5,0.4,0.9-3.6,1-4.3C775.8,1082.6,774.1,1085.6,773.5,1086.2z M757.2,1107.9c-0.6-0.7-0.6-0.4,0.3-1.4
			C758.4,1107,758.2,1107.5,757.2,1107.9z M757.7,1111.4c-0.1,0.4-0.3,0.4-0.6,0.2C757.3,1110.9,757.5,1110.9,757.7,1111.4z
			 M755.1,1109.7c-0.2,0.4-0.4,0.4-0.6,0C754.6,1109.3,754.8,1109.3,755.1,1109.7z M753.5,1111.6c-0.2,0.4-0.3,0.4-0.5,0
			C753,1111.2,753.2,1111.2,753.5,1111.6z M751.8,1113.3c-0.2,0.4-0.4,0.3-0.5-0.1C751.5,1112.9,751.7,1112.9,751.8,1113.3z
			 M750.6,1115c-0.4,0.4-0.7,0.4-0.8,0C750.2,1114.5,750.5,1114.5,750.6,1115z M734.9,1126.9c-0.2,0.3-0.4,0.3-0.6,0
			C734.4,1126.5,734.6,1126.5,734.9,1126.9z M769.6,1075.6C769.6,1075.6,769.5,1075.6,769.6,1075.6c0.5,0,0.9-0.3,1.3-1
			C770.4,1075.7,770.2,1075.3,769.6,1075.6z M766.7,1051.4c0.6-2.8,2.9-3.5,4.4-4.9C770,1048.3,770.2,1051.5,766.7,1051.4z
			 M765.3,1044.8c1.3-0.8,2.4-1.9,3.6-2.8C767.7,1042.9,766.6,1044,765.3,1044.8z M726.3,1092.6c0.3-0.9,0.6-1.9,1.4-2.3
			C727,1090.9,726.5,1091.7,726.3,1092.6c3.8,0.9,8.2-2.6,11.4-4.2c4.2-2.1,8.4-4.1,12.7-6.2c-1.3,4-3.1,3.7-6.3,6.1
			c-1.8,1.3-4.3,3.3-4.4,5.7c5.8-3,11.6-6,17-9.6c3.5-2.3,8.5-8.6,12.8-8.8c-7.9,12.9-19.5,24.2-30.5,34.5
			c-10.5,9.8-21.4,22.6-35.5,26.8C713,1123.2,713.4,1104,726.3,1092.6z M671.2,1163c-1.1,1.2-2.3,2.1-3.5,2.9
			C668.9,1165.1,670.2,1164.1,671.2,1163c-2.9-2.2-10,1.5-12.9,2.4c-4.2,1.3-8.5,2.6-12.8,3.7c-10.1,2.5-20.3,3-30.7,3.9
			c-10.4,1-20.7,2.1-31.1,2.3c-4.8,0.1-9.8,0.3-14.6,0.7c-4.9,0.5-9.9,2.2-14.8,0.4c24.2-4.9,48.1-11.1,72.2-16.3
			c23.7-5.1,47.2-9.6,70.2-17.7C690.3,1151.7,680.9,1157.6,671.2,1163z M676.8,1164.6c-4.3,5.6-10.8,5.8-16.7,7.8
			C665.2,1168.5,671.5,1167.8,676.8,1164.6z M649.2,1172.6c0.9,1,2.3-0.2,3.3,0.6c-4.1,2.8-9.1,3.3-13.9,3.7
			C641.8,1174.6,646.5,1175.5,649.2,1172.6z M646.7,1172.5c0.8-0.4,1.7-0.4,2.5,0C648.1,1172.6,648,1172.3,646.7,1172.5z
			 M651.3,1171.2c1.5-0.6,3.2-0.8,4.8-1.2C654.5,1170.4,652.8,1170.5,651.3,1171.2z M637.8,1178.5c-10.8,3.8-21.9,5.2-33.1,5.6
			C615.4,1180.3,626.8,1180.5,637.8,1178.5z M638.9,1181.4c0.4-0.5,0.9-0.6,1.4-0.1c-7.4,4.4-14.6,7.4-23.3,8.3
			C624.1,1186.5,631.1,1182.7,638.9,1181.4z M662,1178.7c1.5,5.3-20.8,8.2-24.3,9.1c-0.4-2.8,8.2-4,10.9-4.9
			C653.1,1181.5,657.6,1180.1,662,1178.7z M641.6,1183.4c7.3-6.4,16.5-6.5,25-9C658.6,1178.6,650.1,1180.9,641.6,1183.4z
			 M690.9,1170.5c-8.2,3.3-16.3,6.5-24.5,9.8C672.6,1171.4,682.1,1172,690.9,1170.5z M687,1165c-0.1-0.9,0.5-0.6,0.8-0.5
			C687.5,1164.7,687.3,1164.9,687,1165z M719.2,1147.2c-0.6,1.5-3.2,3.1-4.5,4c-2.3,1.5-5,2.5-7.3,3.9c-6.2,3.6-12.3,7.4-19.3,9.3
			c3.7-4.5,11.3-6.5,16.2-9.1c2.9-1.5,5.5-3.3,8.4-4.7C714.7,1149.6,717.1,1147.4,719.2,1147.2z M757.6,1111.6c2.3-3.8,6.6-7,8.2-11
			c2.7-6.7-1.7,0.7-2.8-0.4c-0.5-0.6,6.9-11.7,7.9-11.1c2.2,1.3-6.4,7.4-3.9,9.2c4.5-3,5.2-9.7,9.3-12.7c1-0.7-1.3,5.1-1.6,5.7
			c-1.4,3.2-3.1,6.2-4.8,9.2C766.6,1106.3,764,1109.4,757.6,1111.6z M804.5,1030.5 M823.5,1011.5 M825.3,1009.6
			c0.8-2.2,10.1-14.2,9.1-15.6c-1.2-1.7-9.6,12.1-10.8,13.8c-4,6-8,12-12.4,17.7c-0.7,0.9-2.8,4-2.5,1.1c0.2-1.9,3.1-3.1,2.1-5.5
			c-2.7,1.7-3.1,8.3-5.9,9.1c-0.9-2.4,2.9-9.6,4-12c0.9-1.9,5.5-10,6.1-4.3c3.1-5.2,7.1-9.8,11.2-14.3c1.8-2,3.8-3.8,5.4-5.9
			c0.8-1,3.4-5.8,4.8-5.8c1.2,0-0.1,2.6,2.6,0.4c1.2-1,1-3,2.9-3.3C838.6,994.5,833.1,1003.2,825.3,1009.6z M837.4,986.3
			 M837.7,985.7c0-0.6,0.4-1,1-1.2C838.8,984.5,838.8,986,837.7,985.7z M841.9,984.7c-0.3-0.9-0.1-1.2,0.6-0.8
			C842.3,984.2,842.1,984.5,841.9,984.7z M843,990c1.7-4.5,4.7-8.6,7.6-12.4c1.8-2.3,5.5-9.1,8.4-9.9c1.2,2.2-5,8.7-6.3,10.6
			C849.8,982.5,846.8,986.8,843,990z M860.9,981.2c-3.4,11.2-7.3,22.1-12.8,32.4C851.1,1002.3,855.1,991.4,860.9,981.2z
			 M847.2,978.5c3.6-11.4,11.7-19.7,17.9-30.6C864.2,962.7,853.5,969,847.2,978.5z M855.6,957.2 M856.7,956
			c2.2-7.7,5.9-14.7,10-21.5C868,944.2,860,948.8,856.7,956z M862.4,937.6c-4.9,10.7-9.1,22.2-15.4,32.1c-3,4.7-6.4,9.2-10,13.6
			c-3.3,4-6.6,9.3-10.9,12.2c1-4,3.9-8.2,5.7-11.9c2.2-4.4,4.3-8.9,6.5-13.4c4.1-8.6,8-17.3,11.5-26.2c3.4-8.8,6.1-18,10.5-26.4
			c3.8-7.2,9-14,14-20.5c0.9,0.9-1.4,6.6-1.7,8.1c-1,4.2-1.9,8.5-2.8,12.8C868.3,925.4,865.5,930.8,862.4,937.6z M875.9,900.6
			c0.4,2.7,0.2,16.5-3.2,17C870.9,917.9,875.4,902.1,875.9,900.6z M871.4,923.4c0.8-1.8,2.3-3.5,1.6-5.6c3.8,2.7-1.3,14-3.3,17.6
			C868.8,931.4,869.7,927.1,871.4,923.4z M876.6,889.6c-4.1,6.2-8.2,12.4-12.6,18.3c4-14.1,9.7-27.6,15.5-40.9
			c-0.4,3.9-0.9,7.8-1.3,11.6C877.8,881.7,878.3,887,876.6,889.6z M880.2,888.2c-0.3,3.2-0.5,6.6-1.8,9.6
			C876.8,897.3,879.7,888.8,880.2,888.2z M880,878.5c1.2-9.8,3.1-19.7,7.2-28.8c-1,5.2-2.1,10.4-3.1,15.6c-0.4,2.2-0.9,4.5-1.3,6.7
			C882.3,874.1,882.5,878.9,880,878.5z M899.8,719.8c-1.2-23,1-45.9,4.1-68.7c0.8-5.5,1.7-11,2.6-16.5c0.5-3.5,0-8.1,4.5-7.1
			c3.5,0.8,2,2.8,1.3,5.8c-1.3,5.7-2.5,11.5-3.5,17.3c-4,22.3-5,44.5-2,66.9c1.4,10.7,4.1,21.9,3.5,32.8
			c-0.5,10.2-4.6,21.5-7.5,31.2c-1.7-9.7-0.3-20.6-0.9-30.5C901.2,740.6,900.4,730.2,899.8,719.8z M909.4,350.7
			c4.2,10,11.1,19,11.2,30.8C915.8,371.7,912.7,361.2,909.4,350.7z M915.5,380.4 M880.1,265.2c-0.1-0.8-0.2-1.5-0.2-2.3
			c5.7,4.3,8.9,11.4,12.7,17.1c1.9,2.9,11.9,15.5,9,19.2c0.8-1-3.9,1-3.3,0.8c-1,0.4-1.8,2-3,1.9c-2.9-0.1-4.3-7-5.3-9.4
			C886.2,283.6,882.5,274.6,880.1,265.2z M881.4,289.9c-2.1-4.2-2.4-7.5-2.7-10.8C880.3,282,881.1,285.2,881.4,289.9z M878.2,254.4
			c1.6,1.8,15.9,20.1,13.9,21.2c-1.5,0.8-5.6-7.7-5.9-8.2C883.1,263.2,879.3,259.7,878.2,254.4z M893.2,276.4
			c0.7,0.3,0.7,0.7,0.1,1.1C892.5,277.4,892.5,276.1,893.2,276.4z M894.2,278.9 M895.1,280.7 M901.8,321.6c-1.8-4.1-5.6-10.5-5.9-15
			c-0.2-3,5.2-7.7,7.1-6.6c3.1,1.8,3.7,13.9,4.1,17c0.9,6.8,1.3,13.7,2,20.5C906.7,332.2,904.1,326.9,901.8,321.6z M909,341.8
			c-1.5-0.9-2.1-1.9-2.3-3.6C908.3,338.9,908.7,340.1,909,341.8z M887.9,293 M889,301c-0.7,1.3,0.3,3-0.1,4.3c-2-3-3.2-6.5-3.6-10.1
			C887.4,296.5,886.8,299.8,889,301z M889,301c1-2-0.8-3.6-0.6-5.6c2.2,2.5,3.7,5.3,3.4,8.7C890,304.1,891,300.9,889,301z
			 M896.1,323.7c-3-4.4-5.6-9.1-7-14.4C892.6,313.5,894.4,318.6,896.1,323.7z M893.7,311.2c-0.9-2.7-2.4-6.9,1-3
			c2.7,3.1,3.9,10.7,5.4,14.7C896.5,319.9,895.1,315.4,893.7,311.2z M900.7,347.7c-1.6-1.4-2.2-3.3-2.1-5.4
			C900,343.8,900.8,345.5,900.7,347.7z M899.3,324.1c0.3-0.3,0.7-0.5,1-0.8c2.1,4.4,4.2,8.8,6.3,13.1
			C903.2,333,901.5,328.4,899.3,324.1z M901.5,340.2c2-1.1,7.3,15.7,7.6,17.8C907.1,357.1,900.2,340.9,901.5,340.2z M910.3,368.5
			c-3.1-1.9-3-5.3-3.8-8.5C907.8,362.8,909,365.6,910.3,368.5z M909.5,314.1c2.8,2.4,3.7,9.3,4.9,12.7c2,5.6,3.9,11.1,5.8,16.7
			c1,2.7,11.4,27.9,9.6,29.2c-2,1.5-14-23.3-14.9-25.8C911.2,336.4,909.5,325.3,909.5,314.1z M918.3,358.9 M910.4,345.1
			c-0.9-0.6-1.1-1.4-0.7-2.3C910.6,343.4,910.8,344.2,910.4,345.1z M921,396.7c-2.3-4.3-4-8.8-4.7-13.8
			C919,387,920.7,391.6,921,396.7z M918.5,359.2c2.8,2.4,3.9,6.3,5.8,9.3c1.9,3,4.1,5.8,6,8.9c2.8,4.4,8.5,13.5,5.9,19
			c-3.6-6.3-6.9-12.8-9.9-19.4c-1.4-3.1-2.8-6.3-4.2-9.4C920.8,364.8,918.9,362.2,918.5,359.2z M937.1,489.9c0,5.2,0,10.5,0,15.7
			C936.6,503.1,933.7,489.6,937.1,489.9z M935.2,414.9c-0.9-5.7-4.5-10.2-7.4-15c-1.3-2.2-2.5-4.4-3.2-6.8c-1-3.4-0.2-7-1.3-10.3
			C930.3,392.1,934.3,403.2,935.2,414.9z M933.9,423.3c1.3,4.2,1.6,8.5,0,12.9C933.9,431.9,933.9,427.6,933.9,423.3z M934.4,510.7
			c0.9,10.7,1.8,21.4,1.3,32.1c-0.4,8.8-1.3,20.8-6.2,28.4c-3.4-12.2-5.5-24.7-2.7-37.2c1.3-5.9,2.7-11.7,3.8-17.6
			c0.3-1.4,0.4-6.1,1.5-7C933.6,508.3,934.3,508.8,934.4,510.7z M938.6,646.5c1.5,0.3,0.8-1.8,2-2c0.1,2.3-0.2,4.6-1.5,6.6
			C938,649.6,939.6,648,938.6,646.5c-2.9,2.1-1.2,6.5-4,8.7c0.6-4.5,1.1-9,1.7-13.5c0.2-1.9,0.1-9.3,1.8-10.2
			C943.7,628.4,937.8,645,938.6,646.5z M929.9,692.9c0.3-13.2,2.9-25.8,8-37.9C937.7,668.2,932.9,680.3,929.9,692.9z M931.8,699.2
			c-1.1,6-2.3,11.9-3.4,17.9C927.9,710.8,928.6,704.7,931.8,699.2z M926.2,686.4c-5.4,17.9-8.3,36.4-13.6,54.3
			c-3.2-16.5-5.3-33.2-5.5-50c-0.2-16.7,2.3-32.7,5.7-49c0.7-3.2,0.7-7.9,2.1-10.8c1.5-3.2,2.8-2.5,6.4-2c3.4,0.5,9.1,0.1,12.1,1.5
			c2.6,1.3,1.9,2.7,1.6,5.5C933,652.7,931.2,670,926.2,686.4z M940.1,630c-3.6-0.2-2.1-5-1.9-7.2c0.1-1.4,1-11,1.6-10.7
			C941.2,612.6,943.4,630.2,940.1,630z M936.7,617.8c-0.2,4,0.2,9.7-4.4,10.3c-2.9,0.4-13.4-0.3-15.2-3c-1-1.5,0.3-4.4,0.6-5.9
			c1.1-4.2,2.3-8.4,3.5-12.5c2.7-9.2,5.6-18.4,8.7-27.5c2,6.3,4.2,12.5,6.1,18.8C938.1,605.2,937,610.4,936.7,617.8z M928.3,574.2
			c1.3,4.5-3,12.3-4.3,16.6c-1.8,5.8-3.6,11.6-5.3,17.5c-0.8,2.9-1.7,5.9-2.5,8.8c-0.5,1.8-0.8,6.9-2.3,8.1c-2.8,2.3-5.8-0.1-5.7-3
			c0.5-11.2,4.1-23.2,6.4-34.2c2.6-12.1,5.4-24.2,8.1-36.3C924.1,559.4,926.1,566.8,928.3,574.2z M910.2,762.4
			c0.2,16.3-5.4,31-10.8,45.7C901.8,792.6,905.9,777.5,910.2,762.4z M899.5,814.7c0.3,0.3,0.3,0.7-0.1,1.1
			C899.1,815.5,899.1,815.1,899.5,814.7z M903.9,806.3c0,12.8-2.7,25.8-6.2,38.1c-2.9,10.2-6.2,22-13,30.3
			C892.7,852.2,898.2,829.4,903.9,806.3z M886.9,861.6c2.7-15.1,4.6-30.5,12.1-44.1C896.1,832.5,892.2,847.3,886.9,861.6z
			 M888.9,874.2c-3.1,8.5-2.2,18.4-7.9,26.1C881.5,890.8,881.9,881.3,888.9,874.2z M900.6,886.8c0.5,0.3,0.4,0.8-0.3,1.4
			C899.8,887.8,899.9,887.4,900.6,886.8z M902.9,831.2c4-21.8,4.6-43,12.8-63.3C916.1,790.2,912.9,810.8,902.9,831.2z M913.5,766.1
			c0.8-0.6,0.5,0.3,0.2,0.7C913.7,766.6,913.6,766.3,913.5,766.1z M914.5,764.1c0.7-7.8,2.3-15.4,4.5-22.8
			C918.1,749,918.4,757,914.5,764.1z M921.9,753c-1.5,10.4-1.5,21.1-4.9,31.1C918.3,773.7,916.7,762.7,921.9,753z M913.3,755.4
			c-0.9-6.1,10.9-58.3,14.4-65.2C927,713.6,916.6,733.6,913.3,755.4z M927.7,733.1c4.2-18.3,5.7-37.2,10.7-56.5
			C942.6,691.4,937,720.6,927.7,733.1z M942.6,787.9c-0.3,3.8-1.9,7.2-3.5,10.5C939.3,794.5,940.3,790.9,942.6,787.9z M940.3,753
			c1-10.6,2-21.2,3-31.8C943.6,732,943.6,742.7,940.3,753z M941.8,592.9c1.3,8.4,2.1,15.8,1.8,23.4
			C940.8,609.1,938.9,601.8,941.8,592.9z M952.9,628.1c-0.3-13-4.4-26.4-0.5-39.2c0.8,7.3,1.2,14.6,2,21.9
			C955,617.1,956.9,622.6,952.9,628.1z M956.2,628.1c0.4,1.2,2.4,7-0.9,5.8C952.7,633,955.9,629.6,956.2,628.1z M949.2,631.6
			c-2.4-0.4-0.3-18.6-0.2-20.8C949.4,612.9,952,632.1,949.2,631.6z M948.5,639.7c-0.3-0.9-1.7-6.1,0.5-6.1
			C951.6,633.5,948.8,639,948.5,639.7z M947.9,576.6c-2.4-7.2,1.4-12.8,3.1-19.8C953.3,564.6,950.1,570.4,947.9,576.6z M952.3,519
			c-0.6,7.8,0.1,15.6-0.1,23.5c-0.2,7.5-2.9,14.6-5.4,21.6c-2.7-14.1-3.8-28.4-4.5-42.7c-0.2-3.6-2.2-10.5,2.7-10.9
			C949.9,510.2,952.6,514.8,952.3,519z M952.1,510.3c-3.1-0.9-8.9-0.9-10.1-4.5c-0.7-2,0.5-4.9,0.8-6.9c0.4-3,0.5-6.1,0.7-9.1
			c0.9-11.4,2.1-22.9,2.6-34.4c0.1-1.5-0.6-7.4,1.4-7.1c0.4,0.1,1,8.3,1.1,9.1c0.6,5.3,1.2,10.6,1.8,16
			C951.6,485.6,952.4,498,952.1,510.3z M942.1,441.1c-0.1-2.8-0.2-5.5-0.4-8.3C943.7,435.4,943.9,438.2,942.1,441.1z M941.8,564.9
			c1,3.7,2.4,7.3,1.1,11.3C942,572.5,941.2,568.8,941.8,564.9z M944.9,579.6c1.1,9.2,4.1,18.4,1.5,27.7c-1.2-4.4-0.5-9.8-0.8-14.3
			C945.1,587.8,941.9,584.6,944.9,579.6z M946.4,656.5c1.2,9.2,1.3,18.3-0.6,27.4C944.4,674.8,944.7,665.6,946.4,656.5z
			 M948.9,713.5c1.7-17.7,0.6-35.4,1-53.1c0.1-4.4,0.4-8.7,0.9-13.1c0.3-2.2,0.1-8.9,1.9-10.6c6.1-5.9,7.3,11,7.3,13.8
			c0.1,16.9-1,34.4-3.3,51.1c-1.1,8.1-2.6,16.2-4.5,24.2c-0.7,3.1-4.5,22.8-7.1,22.7C947.2,736.9,947.8,725.2,948.9,713.5z
			 M962.5,609.1c1.8,8.1-0.6,17.4-1.7,25.5C957.6,625.1,959.6,618.6,962.5,609.1z M960.3,515c-0.4-10.8,3.1-20.9,4.5-31.5
			C965.5,494.4,963.9,504.8,960.3,515z M966.7,521.4c-6.4-3.8-2.5-13.6,0-18.8C966.7,508.9,966.7,515.1,966.7,521.4z M964.3,465.7
			c-5.5-10.8-4.7-22.1-5.1-33.3C963.3,442.9,967.4,453.4,964.3,465.7z M960.6,463.4c5.7,15-0.9,33.7-3.2,48.8
			c-0.8-8,1.3-16.1,1.9-24.1C959.9,479.9,960.4,471.6,960.6,463.4z M958.2,475.5c-0.7,6.5-0.9,13.1-1.4,19.6
			c-0.4,5-0.4,11.7-2.9,16.1c0.4-29.8-3.6-59.4-8.4-88.7C954.3,438.7,960.1,456.7,958.2,475.5z M956.9,444
			c-2.9-7.8-5.8-15.7-9.4-23.2c-1.6-3.3-8.7-18.3-3.4-20.8C952.5,413.3,959.1,427.9,956.9,444z M949.1,404.6
			c-3.5-5.3-6.2-10.9-6.3-17.3c-0.1-7.5,0.3-14.8-0.8-22.3c12.9,13.7,10.2,32.9,12.4,50C952.7,411.6,951.3,407.9,949.1,404.6z
			 M947.3,368c-4.6-5.8-7.7-12.4-5.6-19.9C942.7,351.1,949.4,366.7,947.3,368z M944,349.6c-0.5-0.5-0.5-0.9,0-1.3
			C944.5,348.7,944.4,349.2,944,349.6z M940.6,335.5c1.6,3.9,2.4,7.6,3.3,11.7C940.9,344.2,939.9,340.5,940.6,335.5z M940.9,370
			c0.4,6.9,0.7,13.8,1.1,20.7C936.5,391,940,372.9,940.9,370z M938.2,598.6c-1.3-4-2.6-8.1-3.9-12.1c-1.1-3.3-3.2-7.2-3.3-10.7
			c-0.1-3.7,2.2-8.6,3.2-12.2c1.2-4.4,2.3-8.8,3.4-13.3C938,566.5,943,582.5,938.2,598.6z M913.7,286.9c-2.1,2-4.6,6.3-7.4,7.3
			c-3.4,1.1-3.2-1.8-4.4-4.9c-3-7.8-7.2-15.1-11.8-22.1c-4.2-6.4-9.8-12.5-12.6-19.8c-2.9-7.5-4.7-15.9-7.2-23.6
			c9.6,8.5,18.9,17.5,26.2,28c3.8,5.4,6.7,11.2,9.8,17C908.2,272.4,917.3,283.3,913.7,286.9z M869.1,237.9c1,1.5,6.9,13.6,3.1,12.3
			c-0.4,2.6,3.4,3.5,2.8,6c-0.9,4.3-3.3,0.3-4-1.2c-0.6-1.2-1-2.1-1-3.5c0-0.9,0.5-1.7,1.4-2.2c-0.3-0.5-0.6-1-0.8-1.5
			C869.9,244.2,868.3,241.9,869.1,237.9z M865,206.6c9.3,9.1,16.2,18.7,21.9,29.4C879.5,227,867.8,221.5,865,206.6z M867.1,250
			c1.9,7.6,3.9,15.3,5.5,22.9c0.2,0.8,0.9,2.5,0.6,3.4c-0.4,1.3-1.5,0.5-1.9,1.8c-0.8,2.6,2.1,5.4,1.3,8.3
			c-0.9-1.7-7.9-13.2-6.8-14.1c0.9-0.8,3.3,5.4,5.5,5.1c-1.4-5.1-5.4-9.1-8-13.6c-2.9-5-5-10.4-6.7-15.9c-1.8-5.6-3.7-11.1-5.9-16.6
			c-0.6-1.6-7.2-14.5-6-15.5c0.3-0.3,11.7,15,12.6,16.3c2.3,3.1,4.8,6.1,6.9,9.3C866.2,244.3,866.2,246.7,867.1,250z M865.2,270.3
			c-0.8,0-0.5-0.5-0.5-0.9C864.8,269.7,865,270,865.2,270.3z M828.7,186.5c2.8,0.8,4.4,4.4,7.3,4.7c1.1-3.4-12.1-12.1-14.5-14.2
			c4.2-0.4,8.7,4.7,11.5,7.2c2.2,2,8.5,6.3,9.2,8.8c0.1,0.4-1.2,3.7-1.7,4.1c-0.9,0.7-2.4,1.5-3.5,1.3
			C834.4,197.9,830.2,188.7,828.7,186.5z M830.7,193.5 M839.3,210c3.2,6.9,6.3,13.8,9.1,20.9c1.3,3.2,2.5,6.4,3.6,9.6
			c0.9,2.5,3.6,7.4,2.6,10.2c-8.5-12.6-17.2-24.9-26.3-37c-1.9-2.5-3.9-4-1.9-6.7c1-1.3,4.3-3.3,5.9-3.6
			C836.5,202.5,837.7,206.6,839.3,210z M820.5,166.5c10.4,3.5,30.4,19.4,35.3,28.2C840.9,188.5,833.5,173.4,820.5,166.5z
			 M828.7,177.1c-6.4-4.1-13-7.8-18-14.1C817.7,166.1,822.9,172.1,828.7,177.1z M817.2,174.4c-0.6,0.3-0.9,0.2-1-0.5
			C816.7,173.6,817,173.8,817.2,174.4z M785.2,149.9c-1.7-1.2-11.1-6.6-6.6-6.2c1.2,0.1,3.2,1.1,4.1,1.8c1.5,1,1.7,3.1,2.8,4
			c0.9,0.7,3.8,0.7,5.1,1.1c2.1,0.7,4,1.8,5.9,3.1c3.3,2.4,6,5.4,8.5,8.6C798,158.8,791,155.2,785.2,149.9z M775.8,138.9
			c3.2-0.7,11.7,4.4,13.8,7.8C784.7,145,780.6,141.9,775.8,138.9z M734.8,131.9 M733,130.8c0.1,1.9-2.7-1.1-2.6-1
			C731.3,129.5,732.9,129.5,733,130.8z M730.1,129.4c-4.7-1.3-9.5-2.5-12.9-8.1C722.8,122.7,726.2,126.5,730.1,129.4z M716.3,122.8
			 M714.7,121.9c-0.2,0.3-0.4,0.3-0.6,0C714.2,121.5,714.4,121.5,714.7,121.9z M709.6,118.4c-0.1,0.6,3.5,1.9,3.9,2.1
			c-1,2-3.7-0.6-3.7,1.8c-8.5-1-17.6-6.7-25.8-9.7c-4.7-1.7-9.4-3.4-14.2-4.8c-3-0.9-11.6-1.5-12.9-4.5c10.6,2.1,20.8,5.2,31.6,6.1
			C692.7,109.7,710.6,112.8,709.6,118.4z M710.6,122.8c-0.3,0.2-0.5,0.1-0.7-0.4C710.1,122.6,710.4,122.7,710.6,122.8z M583.3,84.9
			c1-3.9,40.9,4,46.3,4.8c14.6,2.2,29.3,4.4,43.5,8.7c-6.9,0.5-13.6-2.4-20.5-3c-7.9-0.7-15.8-1.2-23.7-2
			C613.5,91.9,598,89.7,583.3,84.9z M651.4,101.7c-0.1,0.4-0.1,0.8-0.2,1.2c-1.5-0.4-10.9-2.1-10.8-3.1
			C644.1,100.5,647.8,101.1,651.4,101.7z M491.8,76.7c-13.6-2.5-27.5-3.9-41.3-4.7c-6.6-0.4-13.2-0.6-19.8-0.9
			c-3.6-0.1-16.7,1.4-18.8-1.8c19.2-2.9,38.5-0.7,57.7,0.8c9,0.7,18.2,0.3,27.1,2.3c8.6,1.9,16.8,5.3,25.5,6.6
			C511.9,80.4,501.7,78.6,491.8,76.7z M495.1,78.9c-7.3,1.2-14.5,0.6-22.7-0.5C480.8,73.6,487.9,78.5,495.1,78.9z M433.1,72.9
			c11,0.2,21.9,1.2,32.8,3.2C454.9,75.7,444,75,433.1,72.9z M462.3,79.3c-0.5,0.2-0.9,0.1-1.1-0.3C461.2,78.2,463.4,79,462.3,79.3z
			 M579.8,86c-6.5-0.9-13-1.8-19.5-2.7C566.9,82.7,573.6,81.8,579.8,86z M569.1,77.6c27.7,2.9,54.6,7.6,81.8,13.5
			c-0.5,2.5-10-1.1-12.1-1.6c-8-1.7-16.3-2.6-24.4-3.8c-7.8-1.1-15.5-2.2-23.3-3.1C584.9,81.8,573.4,82.8,569.1,77.6z M510.7,73.3
			c19,2.8,38.6,0.3,57.2,6.8C548.5,80.4,529.2,80.3,510.7,73.3z M552.5,74.3c-14.9-1.2-30-1.9-44.9-3.4c-6.3-0.6-12.5-2.3-18.4-4.5
			c-3.6-1.3-14.8-4-15.9-8.1c13.7,0.8,27.3-1.1,40.6,2.9c6.5,2,12.9,4.1,19.4,6.1C536.1,68.2,552.9,72.3,552.5,74.3z M509.4,73
			c-0.5,0.6-1.1,0.6-1.7-0.1C508.3,72.5,508.8,72.5,509.4,73z M471.4,57c-0.2-1.8,4.8-1.7,6.5-1.9c3.3-0.5,6.6-1,9.8-1.7
			c5.9-1.2,9.8,0.4,14.8,3.6C492.1,57,481.8,57,471.4,57z M488.3,68.1c-27.1-0.7-54.2-2.9-81.4-3c0.8-3.1,16.9-2.8,20.2-3.2
			c7.3-0.9,14.6-1.9,21.9-2.6c6.4-0.6,13.7-1.8,19.9,0.4C475.5,62,482,65.4,488.3,68.1z M459.5,78.7c-17.8,0.5-35.6-0.4-53.1-4.1
			C424.2,74.3,441.9,76.3,459.5,78.7z M597.1,92c-4.5,0.7-8.9-0.2-13.3-0.5c-0.3,0-3.4-0.3-3.9-0.2c-1.3,0.5-1.7,1.9-2.5,2.3
			c-2.6,1.1-6.2-0.2-8.8-0.7c-4.7-1.1-9.5-1.8-14.3-2.5c-19.5-2.7-39.8-3.9-59-8.3c16.2-2.9,34.5-0.4,50.7,1.1
			C562.6,84.7,581.5,85.6,597.1,92z M625.3,73.7c-21.3-4.3-42.5-9.1-64.1-11.4c-10.7-1.2-21.5-2.1-32.3-3.2
			c-5.4-0.5-10.8-0.9-16.3-1.3c-5.7-0.4-9.9-3-14.7-5.9c11.7-2.2,23.4-4.9,35.2-5.9c5.5-0.4,11.1-0.5,16.7-0.7
			c5.7-0.1,11.9-1.3,17.4,0.5c10,3.2,20,8.9,29.6,13.2c10.6,4.8,21,10.9,31.9,14.7C627.6,74.7,626.6,74.2,625.3,73.7z M544,44.1
			c-8.6-0.4-17.1,0.7-25.5,2.3c-7.1,1.3-15.3,4.5-22.5,3.4c-6.6-1-12-6.7-17.5-10.2c-6.4-4-13.1-7.6-20.2-10.3
			c33.2,0.3,67.3,0.4,98.3,13.9C552.3,43.5,548.2,44.3,544,44.1z M468,35.8c8.2,4.4,15.8,9.8,23.6,14.7c-4.2,3-12.5,2.6-17.5,3.4
			c-7.1,1.1-11.9,0.5-18.7-1.9c-12.3-4.4-24.6-9.6-37.7-11c-13.7-1.5-27.8-2.1-41.6-2.3c-6.9-0.1-13.8-0.1-20.6,0.7
			c-4.7,0.6-12.4,3.7-16.9,1.4c21-5,42.7-8.2,64.2-9.7c10.9-0.8,21.8-1.1,32.8-1.2C447.5,29.5,457.2,30,468,35.8z M397.8,71.3
			c0.5,2.7-8.4-1.3-8.8-1.6C390.4,69.9,397.5,69.3,397.8,71.3z M383.4,71.2c-9.8,1.3-19.6-0.3-29.5-0.5
			C363.8,68.2,373.6,68,383.4,71.2z M328.8,49.9c7.3,3.3,14.7,6.3,22.1,9.4C332,62,313.2,57.4,294.3,58c-0.5-2.7,13.2-5.8,15.6-6.6
			C317.1,48.9,321.4,46.6,328.8,49.9z M351.1,69.2c-4.2,1.3-8.7,2.3-13.1,2.1c-4.5-0.2-8.3-2.3-12.7-3.1c-9.1-1.7-18.4-1-27.6-1.7
			c3-3,11.3-1.3,15.1-1.3c5.6,0,11.3,0.2,16.9,0.3c1.8,0.1,5.3-0.6,7,0.3c1.3,0.6,1.5,2.2,2.7,2.9C343.1,70.6,347.5,67.2,351.1,69.2
			z M318.1,61.2c-10.5,0.4-21.2-0.1-31.8-1.1C297,59.6,307.6,59.7,318.1,61.2z M296.5,68.3c4.7,0.5,9.5,0.5,14.2,0.6
			c2.9,0.1,8.1-0.8,10.4,1.6c-6.6,0-56.8-1.6-57.2,2.8c12.1-0.4,24.3-0.9,36.4-1c5.9-0.1,11.7-0.1,17.6-0.1c5,0,11.3-0.9,16,1.1
			c-35.4,8.9-70,22-106.4,26.3c4.9-5.5,10-10.8,15.5-15.8c2.4-2.2,5-4.4,7.5-6.5c1.5-1.2,2.7-2.1,4.5-2.8c1.5-0.6,3.6-0.2,4.9-0.8
			c1.5-0.7,1.4-2.8,3.5-3.8c2.5-1.3,6.7-0.8,9.4-1C280.7,68.3,288.6,67.4,296.5,68.3z M-54.2,271.8c4.4-2.4,5.8-7.2,8.5-11.2
			c3.7-5.7,8.4-10.9,12.4-16.5c0.6-0.9,1.6-1.9,2-2.9c0.6-0.6,0.8-1.2,0.7-2c-0.2-0.9,0.3-1.3,1.5-1.2c1.4-1.6,2.6-3.2,3.9-5
			c3.7-5.3,9-9.3,11.5-15.4c-4,0.9-5.9,5.7-8.3,8.6c-3.5,4.1-6.5,9.1-9.8,12.8c-2.6,2.9-4.9,6.3-7.1,9.6c-1.5,2.1-4.2,4.4-5.2,6.6
			c-1.5,3.2,0.2,4-3.9,5.1c19.6-32,39.1-66,68.7-90.1c7.2-5.8,14.8-11.1,22.3-16.6c1.7-1.3,4-3.9,6.1-4.4c1.6-0.4,1.9,0.9,3.6,0.1
			c1-0.5,0.7-1.8,1.3-2.5c1.3-1.6,2.6-2.4,4.5-3.5c8.9-4.9,18.4-8.9,27.7-13c9-4,18.1-8.6,27.5-11.4c9.9-3,20.3-4.2,30.5-5.7
			c11-1.7,21.9-3.4,33.1-3.9c-34.7,18.5-68.7,37.4-100.5,60.7c-31.8,23.3-62.3,48.6-91.8,74.7c-4.4,3.9-47.2,42.9-47.3,42.7
			C-63.1,286.5-55.1,272-54.2,271.8z M-49.1,261.8c-1.8,3.3-3.9,6.4-5.1,10c1.2-3.9,3.5-8,6-11.3c0,0.4,0,0.9,0,1.3
			C-48.5,261.9-48.8,261.8-49.1,261.8z M-1.2,188.4c-0.9-0.9,1.4-1.8,1.4-1.8C0.3,186.4,0.1,189.6-1.2,188.4z M56.3,140.2
			c0.1-0.6,0.3-0.7,0.5-0.3C56.7,140.6,56.6,140.6,56.3,140.2z M62.9,138.6c0.3-1.1,1.5-0.6,1.4-0.5c-0.6,1-1.1,0.2-1.7,1.1
			C62.2,138.8,62.3,138.6,62.9,138.6z M65.1,136.7c4.3-3.7,9.4-6.3,14.7-8.2c2.5-0.9,12.5-5.5,14.6-3.9c-9.9,3.2-19.5,8.8-28.9,13.2
			C65.4,137.5,65.2,137.1,65.1,136.7z M171.2,107.5c-13.9,2.2-27.9,4.2-41.9,6c30.9-11.8,61.7-24.2,93.8-32.7
			c-0.9,2.4-2.2,6.5-4.1,8.3c-1.5,1.4-4.6,2.2-6.3,3c-4.6,2.2-9.1,4.4-13.7,6.6c-4.5,2.2-9.1,4.7-13.8,6.4
			C180.6,106.8,175.9,106.7,171.2,107.5z M237.7,68.3 M229.7,67.4 M198.9,100.4c6.2-3.1,12.4-6.1,18.7-9.1c-2.8,4.6-4.4,9-9.7,11
			c-4.8,1.8-10.1,2.1-15.2,1.7C194.1,101.9,196.7,101.5,198.9,100.4z M263.5,60.6c-14.8,0.2-29.6,0-44.4,0.8
			c-7.3,0.4-14.6,1-21.9,1.9c-3.8,0.4-7.7,0.9-11.5,1.5c-2.5,0.4-6.4,1.8-8.9,0.3c6.1-2.5,11.7-6.7,18.2-8.3c8-2,17.6-0.6,25.7-0.3
			c8.7,0.3,17.5,0.7,26.2,1.1c4.4,0.2,8.7,0.4,13.1,0.5c3.1,0.1,8-0.8,10.6,1C268.4,60.2,266,60.6,263.5,60.6z M178.8,67.7
			c-3.5,0.9-7.1,1.8-10.6,2.7C171.4,67.7,175,67.3,178.8,67.7z M176.3,79.1c15.9-2.5,32.1-3.9,48.2-3.9c-0.5,3.8-2.5,3.5-6,4.6
			c-2.9,0.8-5.8,1.7-8.6,2.6c-6.1,1.9-12.2,3.9-18.2,5.9c-12.5,4.2-24.8,8.8-37.2,13.3c-24.4,8.9-48.9,17.6-74.2,23.6
			c14.5-10.9,28.9-22.7,44.9-31.3C140.9,85.3,158.7,81.8,176.3,79.1z M25.3,155.3c-0.3,1.8-1.7,0.8-2,0.9
			C22,157,25.6,153.9,25.3,155.3z M-3.6,188.8c0.9-0.7,1.8-0.5,2.8,0.1c-26.3,30-46.7,64.5-65.1,99.8c-4.3-19.9,6.1-39.1,16.5-55.2
			c5.6-8.6,11.2-18.3,19-25.1C-22,201.3-12.5,195.2-3.6,188.8z M-50.4,231.4c-7.9,11.1-14.5,23.7-17.2,37.1
			c-0.7,3.5-1.3,7.1-1.5,10.7c-0.1,3.6,1,7,1,10.5c0,5.9-5.6,10.3-9.6,13.9c3.2-15.2,6.3-30.5,10.1-45.6c1.8-7.2,3.9-13,8.8-18.6
			c2.1-2.4,4.5-4.5,6.4-7c1.4-1.9,2.2-4.9,4.8-5.9C-47.9,228.6-49.2,229.9-50.4,231.4z M-73.5,304.2c-1.9,4-3.8,8-6.1,12.6
			C-80.4,310.6-78.6,306.7-73.5,304.2z M-139.7,371.5c0-4.5,2.3-8,4.6-11.6C-134.9,363.2-136.7,369.1-139.7,371.5z M-122.3,354.6
			c6.6-7.8,13.6-15.3,20.7-22.6c3.4-3.5,6.8-7.1,10.2-10.6c1.7-1.8,7.2-9.7,9.7-9.3c0.3,2.3-0.9,3.8-1.3,5.8
			c-0.6,2.7-0.5,5.4-1.5,8.2c-1.7,4.7-4.5,9.1-6.9,13.5c-5.9,10.8-11.8,22.3-18.9,32.3c-5.9,8.2-11.7,17.1-17.3,25.9
			c-2.3,3.6-4.6,9.9-9,11.1c-2.7,0.7-5.4,0.1-8.2,1.1c-3.1,1.1-6,2.8-8.7,4.4c4-11.1,7.3-23,12.2-33.7
			C-136.9,370.6-129.2,362.8-122.3,354.6z M-171.6,510.6c-2.1,4.3-5.4,8-8.3,11.8c-1.8-21.2,4.6-41.9,14.5-60.4
			c4.9-9.1,10.4-18,15.9-26.8c2.9-4.8,5.9-9.5,8.9-14.2c0.6-0.9,4.8-8.6,5.8-8.4c0-1,0.4-2.4,1.9-1c-0.5,1.1-1.4,1.1-2,2.1
			c-0.8,1.3-0.9,2.7-1.4,4.3c-1.4,4.3-3.6,8.5-5.3,12.6c-3.8,9-7.6,18-11.3,27.1C-155.2,462.9-175.4,508.5-171.6,510.6z
			 M-185.3,511.4c1.1-5,0.6-10.4,3.9-14.7C-182.5,501.7-182.3,507.1-185.3,511.4z M-182.2,628.3c-0.2,5.2,0,10.3,0,15.5
			c-5.4-15.5-11.4-32-12.9-48.5c-0.7-8-1.5-16-0.4-24.1c0.5-4.1,1.5-8,2.4-12c0.4-1.7,0.4-6.8,1.4-8.2c1.1-1.5,2.4-0.5,3.9-0.2
			c3,0.6,4.2,0.4,4.7,3.2c0.5,2.4-0.4,5.7-0.3,8.3c0.2,3.9,0.5,7.8,0.7,11.7C-181.4,592-181.5,610.2-182.2,628.3z M-181.2,655.2
			c-3.3-7.6-5.9-15.6-7.7-23.8C-186.2,639.3-182.6,646.8-181.2,655.2z M-188.1,524.5c-0.7,3.5-3.1,2-3.1-0.9
			c-0.1-4.3,2.7-10.6,4.4-14.4c1.7,0.6,1.6,4.9,1.4,6.2C-186,518.5-187.5,521.4-188.1,524.5z M-183.7,519.3c0,1.1,0.9,12.6-2.6,9.7
			C-188,527.7-185,520.6-183.7,519.3z M-191,527.8c3.5,2.3-2.6,14.6-4.7,17.5C-195.7,543.3-193.5,526.2-191,527.8z M-195.1,550.5
			c0.3-1.3,1.4-1.6,2.2-0.5c0.5,0.8-0.6,3.3-0.7,4.2c-0.7,3.8-1.5,7.5-2.2,11.3C-197.3,560.5-196.3,555.4-195.1,550.5z M-183.3,547
			c-0.8,3.1-3.9,3.3-5.9,0.7c-2.2-2.8-0.3-7.4,1.2-10c1-1.8,3.5-7.4,5.1-3.5c0.3,0.9-0.6,4.4-0.5,5.5
			C-183.4,542.1-182.7,544.5-183.3,547z M-181.8,491.5c-0.3-3.6,1-6.1,2.1-8.6C-179.7,485.8-179.7,488.7-181.8,491.5z M-176.4,476.1
			c0-5.3,1.3-10.4,2.8-15.4C-173.4,466.1-174.7,471.2-176.4,476.1z M-168.6,504.2c5.6-16.6,12.1-32.8,18.7-49
			c3.2-7.9,6.5-15.9,9.9-23.8c1.6-3.7,3-7.5,4.9-11c1.5-2.9,3.4-5.6,2.7-9c5.4-0.3,10.8,0.7,15.9,2.6c1.4,0.5,6.1,1.6,6.7,3.2
			c0.4,1.3-1.5,3.9-2,4.9c-5.3,10.3-10.4,20.7-16.4,30.6c-11.6,19.3-25.4,37.2-40.1,54.2C-169.5,506.2-168.9,505.2-168.6,504.2z
			 M-112.8,412.5c-1.9-1.7-6.8-1.7-9.1-2.2c-3.6-0.7-7.1-1.4-10.8-1.5c8.3-11.3,15.7-23.7,23.3-35.5c4.1-6.5,8.1-13,12-19.6
			c1.9-3.3,3.8-6.7,5.7-10c1.2-2.1,3.1-7.9,5.8-8.5c-2.8,15.6-5.4,31.2-10,46.5c-2.1,7.1-4.6,14.1-7.2,20.9
			C-104.6,406.5-106.9,417.8-112.8,412.5z M-164.3,437.1c-0.1,0.2-0.1,0.4-0.2,0.7C-164.9,437.4-164.5,437.3-164.3,437.1z
			 M-164.2,436.9c0.1-1.9-0.1-3.9,1.6-5.2C-162.7,433.6-163.3,435.3-164.2,436.9z M-174.3,436.5c3.4-7.9,6.6-16,11.5-23.1
			C-165.7,421.6-167.3,430.5-174.3,436.5z M-195.4,521.5c2.9,6.6-1.5,12.5-2.7,18.8c-0.8-4.3-0.8-8.6-0.2-12.9
			c0.1-1,0.6-6.1,1.3-6.3C-196.2,520.7-196.4,521.3-195.4,521.5z M-193.2,679.3c-3.8-12.1-9.3-23-9.1-35.9c0.3-13.9,0-28.4,2.4-42.1
			C-198.6,627.3-194.2,653.2-193.2,679.3z M-190.9,690.6c-0.4,0.2-0.8,0.3-1.2,0.5c-2.8-9.6-7.7-18.6-8.7-28.7
			C-197.6,671.8-194.3,681.2-190.9,690.6z M-187.6,711.1c6,16.3,9.4,32,5.8,48.9C-184.1,755.2-188.2,720.9-187.6,711.1z M-189,695.1
			c4.9,9.6,8.1,19.7,8.2,30.8C-183.7,715.6-188,705.9-189,695.1z M-181.1,709.8c-2.2-7-5.7-13.4-7.5-20.5c-2-7.7-2.5-15.6-3.3-23.5
			c-0.9-8.8-1.8-17.6-2.7-26.3c-0.5-4.4-0.9-8.8-1.4-13.2c-0.4-4.3-1.9-9.7-0.4-13.8c8.1,33.7,15.4,67.7,17.6,102.3
			C-180.3,713.3-180.6,711.7-181.1,709.8z M-178.7,819.4c0,5.9,0,11.7,0,18.5C-180.4,831.1-179.4,825.2-178.7,819.4z M-179.8,611.7
			c1-17.4-0.6-35.1-1.3-52.5c-0.1-2.9-1.2-5.5,1.8-5.9c1.7-0.3,6.4,3.3,7.9,4.2c2.7,1.7,5.3,3.5,7.4,5.9c1.8,2,3.3,6.8,5.9,7.4
			c-2.5-7-7.8-12.1-14-16c-5.3-3.3-11-3.8-9.7-11.6c1.1-1.1,2.1-2.4,2.7-3.9c0.7-1.9-0.2-4.1,0.2-5.6c0.4-1.5,1-0.7,1.9-1.9
			c1.3-1.9,0.5-5.8,2.8-7.1c3.1-1.8,12.7,3.6,16,4.8c5.8,2.1,11.8,4,17.6,6.1c10.4,3.7,20.6,7.8,30.9,11.7c3.6,1.4,22.5,11,25.7,6.6
			c-16-4-31.5-11.1-46.9-17.1c-8.4-3.2-16.7-6.4-25.2-9.3c-3.4-1.2-18.7-3.3-18.5-8.2c0.1-2.8,5.5-8.1,7.3-10.3
			c2.8-3.6,5.7-7,8.6-10.5c5.9-7,11.6-14.2,17-21.7c10.4-14.5,19.8-29.9,27.8-45.9c1.2-2.3,3.8-11.3,6.2-12.2c2.6-1,7.6,4.4,9.6,6
			c1.8,1.5,3.6,3,5.3,4.7c0.8,0.7,3,4.2,3.9,4.3c4.4,0.7-1.2-4.3-1.6-5.6c2.3-1.9,13.7,7.2,16,8.6c5.3,3.4,10.5,7.6,16.3,10.1
			c2.8,1.2,5,1.3,8,1.3c2.1,0,10.4,2.1,11.1,1c-5.6-6.5-14.2-3-21.1-6.4c-6-3-11.5-7.5-17.3-10.9c-5.2-3-11.4-8.9-17.1-9.9
			c-1.1,0.8-2.1,0.8-3.1-0.1c-0.9-0.6-1.8-1.2-2.7-1.7c-1.3-0.8-2.9-1.5-3.9-2.6c-2.8-3.1-1-5.7,0.6-9c8.8-17.4,13.2-37.3,16.8-56.4
			c1.8-9.8,2.6-19.9,6.3-29.2c3.6-9,8.4-17.6,12.6-26.4c2.8,8.8,6,18.9,11.7,26.1c2.2,2.7,5.1,8.4,8.3,10.2c0.8,0.6,1.7,0.5,2.5-0.2
			c0.6,0.4,1.2,0.7,1.8,1.1c2.4,0.9,5,3.1,7.1,4.5c16.6,11.1,32.8,23,49.6,33.8c16.6,10.7,32.8,21.9,48.2,34.4
			c7.1,5.8,13.8,12.1,20,19c3.3,3.7,6.5,7.6,9.5,11.5c1.7,2.3,4.5,8.6,8,7.6c-21.9-32-52.7-53.7-84.7-74.7
			c-15.5-10.2-30.8-20.6-46-31.3c-6.8-4.8-14.6-7.7-20.2-14.1c-4.8-5.6-8-12.4-10.3-19.3c-0.9-2.9-3.1-7.5-2.7-10.5
			c0.5-3.7,5.6-6.9,8.2-9.4c6.9-6.6,13.8-13.2,20.8-19.7c14.2-13.3,28.9-26.1,43.8-38.6c29.1-24.4,58.1-48.5,89.6-69.9
			c17.8-12.1,36.1-22.9,55-33.1c9.7-5.2,19.2-10.7,29.1-15.4c8.3-4,18.8-3.6,27.8-4.7c-6.8,10.1-14.5,19.7-20.4,30.5
			c-3.2,6-4.1,12.7-6.4,19.1c-6.3,17.5-3.6,35.7-1.1,53.7c3.5,24.7,7.1,49.6,11.3,74.2c1.2,7.1,2.5,14.2,4,21.2
			c0.9,4.3,1.7,9.3,3.9,13.2c-0.5-15.7-5.2-31.6-7.9-47c-4.8-27.7-9.6-55.8-11-83.9c-0.3-6.3-0.6-12.4,1.1-18.5
			c2.1-7.6,6.9-13.9,10.2-20.8c4.6-9.5,10.9-18,17.5-26.1c3.1-3.8,6.2-7.5,9.4-11.2c1.5-1.8,3-4,4.7-5.5c2.3-2.1,5.1-2,8.2-2.5
			C255.1,97,277,91,298.6,84.7c11.2-3.3,22.3-6.5,33.6-9.5c5-1.3,9.9-3,15.1-2.8c5.3,0.2,10.5,0.8,15.8,0.9
			c11.5,0.3,23.8-0.7,35,1.9c11.1,2.5,22.2,4.2,33.5,5.1c11.4,0.9,22.9,1.1,34.3,1c11.1,0,21.7,1.6,32.6,3.5
			c22.5,3.8,45.3,6.2,67.9,9.4c11.3,1.6,22.6,3.2,34,3.7c11.2,0.5,22.2,0.9,33.3,3.1c21.6,4.3,42.6,10,63,18.5
			c10.1,4.2,20,9.2,30.2,13.1c10.2,3.9,20.1,7.6,29.3,13.6c17.5,11.5,33.3,26.1,47.4,41.6c3.5,3.8,6.9,7.6,10.3,11.5
			c2.2,2.5,7.8,6.3,6,9.8c-1.6,3.2-9.2,6.7-12.2,8.7c-4.6,3-9.2,6-13.9,8.7c-18,10.6-37,18.1-56.2,26.2
			c-17.6,7.4-30.4,20.9-41.5,36.1c-6.5,8.9-12.7,18-18.1,27.6c-5,9-9.5,18.2-17,25.4c-6.8,6.5-14.6,12-22.6,17
			c-8.3,5.1-16.3,10.9-24.7,15.8c-3.5,2.1-7.7,3.3-11,5.7c-1.3,1-1,1-2.5,2.1c-0.9,0.7-5.7,2.2-5.7,3.2c-0.1,1.4,6-1.4,6.1-1.4
			c2.5-1.2,8-5.8,10.7-5.4c-3.1,1.8-5.8,3.3-8.1,5.3c-1.6,1.3-3.5,2.6-0.1,2.5c3-0.1,7.7-3.8,10.3-5.2c3.6-1.9,7.2-3.9,10.8-5.9
			c13.6-7.9,26.3-17.2,37-28.8c24-26,33.5-64.3,63.6-84.8c-7.8,10.7-5.3,27.8-5.6,40.2c-0.4,16.2-0.8,32.3-1.1,48.5
			c-0.5,20.4,2.7,47.2-13.3,62.8c-4.7,4.6-10.7,7.4-16.8,9.5c-3,1.1-6.1,2.1-9.2,2.5c-3.3,0.5-6.5,0.5-9.6,2.1
			c-1.4,0.7-14.8,9.3-14.3,10.5c0.6,1.4,2.4,1,3.6,0.6c1.3-0.4,2-2,3.3-2.6c0.8-0.4,2.4-0.4,3.3-0.7c0.5-0.5,1-1.1,1.6-1.6
			c0.4,0.3,0.9,0.4,1.4,0.3c0.7-0.4,1.8-0.5,2.6-0.9c0.5-0.3,0.8-1.4,1.4-1.7c0.8-0.5,1.9-0.6,2.8-1c2.7-1.3,4.8-2.6,7.9-3.5
			c3.9-1.2,7.9-2.3,11.7-3.8c12-4.8,20.1-13.7,24.1-26c4.3-13.5,4.1-28.4,4.4-42.4c0.4-16,0.5-31.9,0.8-47.9
			c0.3-12.3-1.7-27.6,2.7-39.4c4-10.6,16.3-14.6,25.9-18.5c13.5-5.6,26.5-11.9,39.3-19c6.4-3.6,12.7-7.3,18.8-11.4
			c3-2,5.9-4.6,9-6.5c4-2.4,5.2-0.6,7.7,2.7c9.4,12.1,18.1,24.8,26.4,37.6c4,6.3,6.6,12.6,9.5,19.3c3.2,7.4,7.4,14.4,11.2,21.5
			c6.7,12.6,10.6,25.6,14.9,39.1c2.8,8.6,6.8,16.1,10.1,24.5c3,7.5,5.4,15.3,8.5,22.8c3.2,7.6,6.2,15.4,9.7,22.9
			c1.6,3.5,4.1,6.6,5.1,10.2c0.9,3.4,1.1,6.9,2.1,10.3c2.4,8.1,4.1,14.5,3.2,22.9c-0.3,3.1-1.1,22,2.7,22.3
			c-0.6-7.2-2.2-15.1,0.5-22c1.3,6.3,2.5,12.6,2.8,19c0.2,6.1-0.4,12.1-0.2,18.2c0.3,9.8-3,19.5-5.5,28.8c-3.1,11.7-3.5,23.7-6,35.5
			c-2.9,13.6-6.2,27.2-9.1,40.8c-1.3,6.2-2.6,12.5-3.7,18.8c-0.6,3.1-1.1,6.1-1.7,9.1c-0.4,2.1,0.1,6.3-1.4,7.9
			c-2.5,2.7-9,0.9-12,0.6c-7-0.5-14.1-1-21.1-1.5c-10.6-0.8-21.8-2.9-31.9,1.4c-7.4,3.1-12.2,10.8-15.9,17.6
			c-4.7,8.7-9,18-11.5,27.6c-2.6,10.4-3.6,27.2-16.9,28.8c2.1-6.4,3.3-13,3.1-19.8c0-0.5,0-7.3-1.9-4.1c-1.2,2,0.2,9.2,0,11.7
			c-0.3,2.4-4.4,15.2-3.3,16c3.7,2.6,11.3-5.8,12.7-8.3c2.7-4.6,3.7-10,5-15.2c1.9-7.5,4.2-14.9,7.5-22c4-8.4,8-17.5,14-24.6
			c7.7-9.1,17.7-8.7,28.9-8c7.8,0.5,15.6,1.6,23.4,2c3.2,0.2,6.5,0.2,9.8,0.4c2,0.1,7.4-0.7,9,0.7c2.5,2.2-1.5,15.4-1.9,18.6
			c-1.1,7.6-2.2,15.2-3,22.9c-1.7,15.5-2.6,31-2,46.6c1.2,31.2,5.7,61.7-1,92.7c-6.5,30.1-19.9,58.3-30.7,86.9
			c-2.5,6.6-4.4,13.6-7.4,20c-2.9,6.2-8,11.2-12.2,16.7c-7.9,10.3-14.3,21.3-20.3,32.7c-2.9,5.6-5.8,10.9-8.5,16.6
			c-1.4,3.1-2.9,6.2-4.3,9.3c-2.1,4.4-3,7-7.4,9.1c-7.1,3.3-12.8,3.7-20.6,3.3c-6.5-0.3-12.9-0.7-19.3-0.7c-9.2,0-18.5,0-27.7,0
			c-7.3,0-14.1,0.9-20.1-3.9c-10.7-8.5-19.3-22.8-23.1-35.7c-1.1-3.6-1.8-7.3-2.1-11.1c-0.2-2.2-0.7-7-1.7-2.3
			c-1.1,4.9,1.9,12.7,3.4,17.3c4.1,12.3,11.3,24.8,21.9,32.6c-10.9-5.8-20.1-14.5-26-25.4c-1-1.9-4.8-14.3-7.3-12.4
			c-2.9,2.2,4.6,14.3,6.3,16.9c-1.5,0.4-1.5,1.4-1.1,2.8c-1.4-1.4-8.8-12.6-10.9-9.3c-1.2,1.9,7.9,10.5,9.6,12
			c8.2,7.8,18,12.5,28,17.6c-7.5-0.8-15.1-2.4-21.8-5.9c-7.3-3.8-9.9-8.9-13.6-15.8c-1.2-2.3-2.9-3.4-3.4,0
			c-0.4,2.6,2.8,6.9,4.2,8.9c4.1,5.6,10.4,9.1,16.9,11.3c6.9,2.4,13.9,2.8,21.1,3.9c9.1,1.4,17.7,5.3,27.1,6.5
			c19.6,2.4,41.8,1.8,60.3-5.3c-4.6,7.6-13.8,11.7-20.3,17.2c-7,5.9-15.7,12.7-21.2,20.1c-2.1,2.8-2.8,4.7-5.7,7.1
			c-3.8,3.2-7.5,6.3-11.7,9c-8,5-16.8,8.4-25,13c-16.4,9.1-37.4,6-54-1.7c-18-8.3-33.9-18.4-53.6-22.7c-11-2.4-22.2-3.4-33.4-3.2
			c-5.6,0.1-11.2,0.5-16.8,1.3c-0.6,0.1-11.4,2-10,3.3c1.1,1,6.4-0.6,7.8-0.8c3.4-0.5,6.8-0.8,10.3-1c6.8-0.4,13.7-0.3,20.6,0.3
			c13.3,1.2,26.1,4.4,38.3,9.8c11.2,4.9,21.8,11.2,33,16.1c12.4,5.4,26.1,7.6,39.6,6.2c-26.1,4.3-55.9,4-81.6-2.9
			c-12.4-3.3-24.2-8.6-36.6-12.3c-11.5-3.4-22.5-4-34.3-5c-5.3-0.4-8.1-2.2-12.6-4.4c-2.9-1.4-8.9-0.8-5.1,3.3
			c3.2,3.4,8.6,3.9,12.9,4.4c7.1,0.7,14.2,1.1,21.3,2.2c13.1,2,25.4,6.9,37.9,11.1c12.6,4.3,25.1,7,38.3,8.2
			c14.8,1.4,29.7,1.9,44.6,0.7c14.1-1.1,28.3-4.9,41.3-7.8c-2.6,0.6-5.8,4.4-8.2,6.1c-0.5,0.3-2.9,1.6-3.2,2.2c-0.6,1,0.4,2-0.2,3.2
			c-0.6,1.3-3.9,3.4-5,4.3c-0.1,0.5-0.2,0.9-0.4,1.4c-0.8,0.1-1.5,0.2-2.3,0.5c-1.7,1.5-1,2.2-2.1,3.8c-1.7,2.4-5,3.3-8,4.3
			c-1.8,0.6-3.7,1.2-5.6,1.4c-1.9,0.1-4.3-1.1-5.9-0.9c-1.2,0.2-1.7-1.2-2,1c-0.1,1.2,1.9,2.3,2.8,2.6c3.2,1.1,8.6-1.4,11.6-2.3
			c4-1.2,7.9-2.7,11.8-4c5-1.7,4-0.2,2,3.7c-4,7.6-5.8,16.2-9.2,24.1c-6.9,16-26.7,18.1-41.8,21.6c-37.9,8.8-75.7,17.8-113.8,25.8
			c-7.7,1.6-14.8,4.4-22.7,5.4c-9.7,1.2-19.4-0.5-28.8-2.5c-19.2-4.1-38.4-6.7-57.9-8.4c-38.7-3.3-76.9-6-115.6-1.4
			c-18.6,2.2-37,6-55.4,9.8c-9.1,1.8-16.6,2.1-25.8,1c-9.8-1.1-19.8-2-29.6-3.4c-17.3-2.5-32.5-13.9-47.7-21.9
			c-17-8.9-34-17.8-50.3-27.9c-6.8-4.2-13.5-8.7-20.4-12.7c-8.4-4.9-17.4-8.4-26.2-12.5c-8-3.7-16.7-6.7-24.5-10.9
			c-7.1-3.9-12.6-10.2-19.4-14.5c-17.3-11.2-35.5-20.8-53.8-30.2c-17.2-8.8-37.2-16.4-48.9-32.8c-5.4-7.6-8.6-16.9-12.2-25.5
			c-4-9.7-7.9-19.5-12.2-29.1c-2-4.3-3.8-8.8-6.1-13c-2.2-4.1-5-7.3-5.8-12c-0.7-4.7,0.6-8.9,1.8-13.3c0.8-3.1,1.4-5.5-2.6-6.1
			c1.4,2.2,0.7,4.1-0.1,6.3c-0.2,0.6-1.8,5.2-2.5,5.5c-2.1,1-6.5-8-8-9.7c-7.3-8.6-16.6-14.9-21.7-25.3c-2.6-5.3-4-10.9-4.9-16.7
			c-0.4-2.3-1.4-5.6,0.6-7.4c1.8-1.6,7.5-1.4,9.6-1.8c6.9-1.4,13,0.1,19.3,3.2c-2.6-11-19.3-4.5-26.5-4.5c-6.8,0.1-5.9-11.2-6.6-16
			c-1.8-12.1-3.9-24.2-6.5-36.2c-1.4-6.4-1.3-9.6,3.3-14.7c1.5-1.6,3.5-4.3,5.5-5.3c3-1.4,4.4,0.8,7.4,0.9c-4.1-1.5-6.2-3.3-1.5-5.9
			c0.7-0.4,6.2-2.7,2.7-3.6c-2.2-0.6-7.7,4.9-9.2,6.2c-2,1.8-8,10.2-10.8,9.7c-1.7-7.2-4-14.3-5.4-21.5c-1.5-7.9-1.5-16-1.1-24
			c0.7-15.8,1.4-31.4,0.3-47.2c-1.1-15.8-4.1-31-7.7-46.4C-181.1,643.5-180.8,627.5-179.8,611.7z M-91.9,427
			c0.4-0.2,0.7-0.4,1.1-0.6C-89.9,426.6-90.5,430.1-91.9,427z M-67.5,1068.3c-3.6-5.9-8.4-11.8-11.4-17.7c-3.1-6-5.1-12.9-7.6-19.3
			c3.9,1.6,7.5,3.7,11.1,5.9c4.5,2.7,5.9,3.6,7.3,8.8c2.5,9.5,5,19.1,7.5,28.7C-63.6,1074.9-65.6,1069.2-67.5,1068.3z M-114.5,957.5
			c10.8,13.8,21.7,27.8,28.9,43.9c-7.3-6.8-17.1-10.5-23.7-18.1C-115.6,976.2-117.2,966.6-114.5,957.5z M-114.7,952.8
			c0-5,0-10,0.7-14.9c4.7,7.5,8.8,15.4,12.4,23.4c1.2,2.7,10.4,20.1,8.6,22.2c-3.4-5.3-7.5-10.3-11.3-15.3
			C-107,964.6-114.7,957.4-114.7,952.8z M-86.7,1027.3c1.3,0.6,3.8,2.2,5.2,2.3c0.7,0,0.7,1,1.6,0.6c0.7-0.4-0.7-2,0.2-2.4
			c2-0.8,8.8,8,9.4,9.9c-3.5-2-7.2-3.6-10.6-5.6c-1.6-0.9-3.4-1.8-4.7-3.1C-85.9,1028.7-88.4,1026.7-86.7,1027.3z M-91.3,1018.4
			c4.1,3.3,7.4,5.8,10.6,8.4C-84.8,1025.6-89.7,1025.6-91.3,1018.4z M-101.2,997.6c2.2-0.2,3.8,2,6,1.5c-2.9-3.4-8.6-3.5-9.7-8.5
			c10.2,2.1,23.4,15.7,26.4,25.5c-4.7-1.3-9-5.1-12.7-8.1C-94.6,1005.3-99.4,1001.8-101.2,997.6z M-107.4,989.9c0,0.3,0.1,0.7,0.1,1
			c-2.6-0.8-5.5-3.4-6.8-5.8C-111.1,985.6-108.4,986.8-107.4,989.9z M-115.2,976.9c1.9,2.1,2.7,3.9,3.5,5.8
			C-115.6,982.2-115.6,982.2-115.2,976.9z M-114.8,988.3c4.6,5.3,9.2,10.6,13.7,15.9C-103.5,1002-118.3,991.8-114.8,988.3z
			 M-94.7,1015.8c0.7,0.7,3,5.1,2.5,5.8c-1.5,2.1-14.3-7.4-16.1-8.5c-5.3-3.2-5.1-8.4-5.8-14
			C-107.7,1004.6-101.1,1010.1-94.7,1015.8z M-101.9,1022.7c0.1,0,0.3,0,0.4,0.1c-1.4-0.5,2,6.6,2.2,7.1c1.7,3.1,3.4,6.3,5.1,9.4
			c2.9,5.3,5.4,11.2,9.8,15.4c-0.9-5.3-4.8-10.4-7.4-15.1c-3.1-5.5-6.2-11.1-9.4-16.6c4.9,2.1,10.3,3.7,13.4,8.3
			c3.9,5.8,3.8,13.2,8.5,18.8c0.6,0.2,3.8,8.6,4.8,10c1.1,1.6,2.2,3.5,3.4,5c1.2,1.6,2.5,2,3.6,3.1c-0.9-1,2.1,4.5,1.7,2.7
			c0.2,1-0.1,1.8-1.3,1.3c-1.5-0.6-4.1-3.4-5.5-4.5c-2.1-1.6-4.1-3.3-5.9-5.2c-5.8-6.3-13.2-11.5-18.7-18.7
			c-6.1-8-11.1-17.3-13.3-27.2C-107.3,1018.3-104.3,1020.1-101.9,1022.7z M-68.6,1034.6c0.3-1.4-2.4-2.3-2.1-4.3
			c4.2,2.6,4.9,8.1,8.8,11C-64.5,1039.5-70.2,1041.2-68.6,1034.6z M-116.8,949.1c-3.1-0.7-5.9-6.8-7.4-9.2c-2.7-4-5.1-8.3-7.3-12.6
			c-2.2-4.3-4.2-8.8-6.1-13.3c-1.4-3.4-2.6-10.4-5.5-12.8c-2.3,2,3.4,12.3,4.4,14.6c2.6,6,5.5,12,8.7,17.7c3,5.4,6.4,10.6,10,15.7
			c4,5.6,2.5,11.2,2,17.8c-12.9-22.2-22.8-46.1-28.3-71.1c0.9,1.1,2.7,2.1,3.7,3.1c1.6,1.6,3,3.2,4.5,5c3.7,4.5,8.2,8.2,12,12.5
			c3.6,4,6.9,8.8,8.7,13.9C-115.1,936.6-117.7,942.9-116.8,949.1z M-126.3,964.1c-2-4.7-4-9.3-5.8-14c-1-2.6-2-9.6-5.2-10.5
			c-0.8,4.3,3.6,10.8,5.1,14.7c0.4,1.1,2.4,5.2,0.9,5.5c-1.4,0.3-2.4-3.1-2.9-4.1c-6.2-11.5-12.6-22.9-18-34.9
			c-5.2-11.7-9.8-23.7-13.5-36c-1.2-4.1-4.7-10.5,0.4-13.1c4.3-2.2,5,4.6,7.6,6.8c-0.5-0.2-1-0.4-1.5-0.6c-0.7,4.2,2.6,9.9,3.9,13.8
			c1.7,4.9,3.4,9.8,5.1,14.6c1.6,4.4,3.5,8.7,4.7,13.1c1,3.6,1.6,7.5,4.6,10.2c-1.6-8.7-5.1-16.8-8-25.1c-2.7-7.7-6.9-15.9-7.9-24
			c6.8,7,8.1,15.6,10.4,24.6c2.4,9.4,5.5,18.7,9.1,27.7c3.6,9,7.8,17.7,12.3,26.3c4.1,7.6,7.5,11.9,6.4,20.7
			c-2.1-2.3-3.9-4.9-5.5-7.7c-0.7-1.2-1.2-2.5-1.9-3.6c-0.8-1.3-2.3-2-2.9-3.5c0.5,1.2,1.3,2,2.4,2.6
			C-125.6,966.3-125.6,965.2-126.3,964.1z M-129,963.6c-1.1-1.1-2.5-2.1-1.8-4.1C-129.4,960.5-129,962-129,963.6z M-156.5,880.5
			c-0.5-0.1-0.6-0.4-0.3-0.8C-156.8,880-156.7,880.3-156.5,880.5z M-159.9,871.3c-2-2.9,2.7-4.4,4.5-2.6c2.5,2.7,3.7,10.1,3.8,13.5
			C-155.3,879.3-157.4,875.1-159.9,871.3z M-156.8,860c-3.6-10.4-7.7-20.7-11.9-30.9c-1.9-4.7-4.1-8-2.6-12.9
			c1.4-4.5,4-8.6,6.9-12.3c4.5,19.8,7.8,39.8,10.5,59.9C-155.9,863.1-156.2,861.7-156.8,860z M-173.6,815.8
			c-0.8,1.2-0.9-3.3-0.9-3.5c-0.1-1.9-0.1-3.9,0-5.8c0.1-3.9,0.3-7.7,0.7-11.6c0.6-7.2,1.4-14.4,2.2-21.6c3.3,6.7,5.6,17.1,5.7,24.7
			C-165.9,804.8-170.2,810.4-173.6,815.8z M-171.1,888.5c-2.9-8-4-15.3-4.8-22.7C-173.4,872.8-172.2,880.1-171.1,888.5z
			 M-173.8,823.5c4.2,8.5,8,17.2,11.3,26c1.2,3.2,5.2,10,5,13.4c-0.1,2-2.6,5.2-5.1,3.8c-1-0.6-1.8-4.7-2.3-5.7
			c-1.6-3.8-3.3-7.4-4.7-11.3C-172.6,841.3-174.5,832.5-173.8,823.5z M-151.6,882.5 M-117.1,988.9c-3.8-1.7-5.3-5.1-7.1-8.2
			C-121.5,982.8-117.9,984.1-117.1,988.9z M-177,668.5c0.6,4.2,2.7,7,1.3,10.2C-176.8,675.7-177.4,672.8-177,668.5z M-176.4,877.3
			c2.1,10.1,4.2,20.2,6.2,30.3C-175.2,898.3-176.6,888-176.4,877.3z M-173.2,849.5c2.3-0.3,4.7,9.1,5.8,11.6
			c1.5,3.4,4.8,6.5,1.1,8.7c-4,2.4-3.5-1.4-4.2-5C-171.3,859.7-172.3,854.6-173.2,849.5z M-166,890.4c5,15,10.9,29.6,17.9,43.8
			c3.4,6.9,7,13.6,10.8,20.2c1.8,3.1,3.7,6.3,5.7,9.3c1,1.6,6.1,7.4,5.2,9.2c-6.9-4.7-12.2-12.5-16.7-19.5
			c-4.8-7.5-9.6-15.4-13.3-23.5c-7.6-16.6-10.9-34.7-13.8-52.6C-168,881.6-167.4,886.1-166,890.4z M-125.9,973.2
			c-0.3,0.6-0.4,0.2-0.5-0.1C-126.2,973.2-126,973.2-125.9,973.2z M-129.7,975.5c-2.6,2.3-9.3-10.7-10.6-12.8
			C-136.8,967-133.2,971.2-129.7,975.5z M-145.2,958.7c-2.3-2.4-4.6-4.8-5.7-9.1C-147.6,952.4-146.5,955.6-145.2,958.7z
			 M-138.4,992.1c-4.7-3.1-15-9.7-16.7-15.4c-1.7-5.6,2.1-14.9,3.3-20.4C-145.8,967.7-142.7,980.1-138.4,992.1z M-140.6,979.5
			c2.7,2.2,3.9,6.1,7.1,7.7c-2.8-5.7-6.9-10.7-8.9-16.7c3.6,3.5,7.3,6.9,10.3,10.8c2.5,3.3,4.4,6.8,7.8,9.3c2.9,2.1,6.2,2.9,7.5,6.7
			c1.2,3.4,1.1,8.4,1.7,12c-5.9-4.2-12.5-7.6-17.8-12.6C-137.7,992-138.3,985.5-140.6,979.5z M-33,1105.5c0.2,1.4,8.5,5.3,9.8,6.1
			c4.2,2.7,8.4,5.5,12.5,8.5c1.9,1.4,4.1,2.4,4.5,4.5c0.3,1.7-0.5,4.3-0.6,6.1c-0.2,4.4-0.2,8.9-1.8,13.1
			c-14.9-10.8-26.5-27.2-35.9-42.8C-40.3,1101.4-37.3,1105.3-33,1105.5z M95.9,1178.4c0.4-0.4,0.8-0.4,1.2,0
			C96.8,1178.9,96.3,1178.9,95.9,1178.4z M97.9,1180.1c0.1-0.4,0.3-0.9,0.4-1.3c7.3,2.9,14.5,5.8,21.8,8.7c3.3,1.3,6.5,2.6,9.8,3.9
			c1.4,0.6,10.2,3.4,6.2,4c-5.3,0.8-14.3-4.2-19-6.3C110.6,1186.4,104.3,1183.1,97.9,1180.1z M137.9,1181.2 M139.7,1182
			c7.1,1.6,13.9,4.1,20.3,7.5C152.8,1188.6,146.1,1185.5,139.7,1182z M156.3,1190.9c-0.1,0.3-1.4,1.3-1.4,0.2
			C155.2,1190.7,155.7,1190.7,156.3,1190.9z M157.1,1191.3c5.3,1.1,10.5,2.3,15.8,3.4C167,1197.2,161.7,1196.4,157.1,1191.3z
			 M134.7,1169.6c-2.7-2.5,2-0.6,3.5,0c3.7,1.6,5.4,4.4,8.9,5.9c9.8,4.2,20.4,7,30.3,10.9C162.3,1187.7,146.7,1177.5,134.7,1169.6z
			 M169.7,1181.1c-3.3-1.3-6.9-1.8-9.9-3.9c6.1,1,12.7,4.8,18.8,4.7c-1.1-3.2,4.8-1,6.2-0.7c3.9,0.8,7.9,1.6,11.8,2.4
			c6.7,1.3,16.8,1.5,22.6,5c-4.8,2.8-11.6-0.4-16.5-1.6c-4-1-12.2-4.9-16.3-3.4c2.5,2.6,7.5,2.9,10.8,3.9c3.4,0.9,7.7,2.9,11.1,2.9
			c-4.4,1.2-8.5,3.6-12.9,0.8c2.4-0.2,4.7-0.3,7.1-0.3c-0.3-2.2-12.7-2.1-15-2.7C181.4,1186.3,175.6,1183.4,169.7,1181.1z
			 M192.7,1193.1c-4.9,0.4-9.4-1.3-13.8-3.4C183.8,1189.7,188.6,1189.9,192.7,1193.1z M207.1,1201.7c4.1,1,8.4,1.6,12.2,3.2
			c4.2,1.8,7.7,2.8,12.2,1.5c8.7-2.6,20.8,1,30,2.1c-21.9,4.5-49.3,0.6-68.9-10.2C197.6,1198.3,202.3,1200.5,207.1,1201.7z
			 M314.3,1215.9c-0.2,2.5-5.2,1.1-7.4,1c-3.2-0.2-6.4-0.3-9.7-0.5c-6.4-0.3-12.9-0.7-19.3-1c-12.9-0.7-25.7-1.4-38.6-2
			C264.3,1211.4,289.8,1209.7,314.3,1215.9z M384,1212.4c-14.6,3.9-29.6,4.5-44.6,4.8C354.2,1215.1,368.5,1208.1,384,1212.4z
			 M362.1,1218c5.2-0.6,10.4-1.2,15.5-2.1c5.8-1,10.5-2.9,16.3-1.4c11.2,2.8,22.5,5.8,33.7,8.7c-14.1,2-27.8,6.3-42.2,4.9
			c-14.3-1.4-28.4-5-42.3-8.5C349.4,1218.7,355.8,1218.7,362.1,1218z M398.1,1213.2c22.7-6.6,46.5-7.4,69.7-11.1
			c11.2-1.8,22.7,0,33.9,1.2c6.4,0.7,12.7,1.3,19.1,1.7c5,0.3,12.3-1.2,16.9,0.6c-5.3,2.4-11.5,2.7-17.2,3.6
			c-5.6,0.9-11.1,1.9-16.6,2.8c-11.9,2-23.8,4-35.7,6c-11.1,1.8-24.1,6-35.3,4.1C421.2,1220.1,409.6,1216.2,398.1,1213.2z
			 M487.5,1199.3c10.1-1.5,19.9-4.4,30.2-3.1c9.8,1.2,19.2,4.7,29.1,5.7c-2.9,1.8-7.6,1.6-10.9,1.7c-5.9,0.2-11.8,0-17.7-0.3
			C508.3,1202.7,496.9,1202.6,487.5,1199.3z M526,1195.7c-0.5-0.3-1.1-0.5-1.6-0.8c31.7-5.4,64.4-2.7,95.9-9.6
			c-14,6.6-30.1,11.6-45.3,14.3C558.5,1202.5,542.1,1198.7,526,1195.7z M610.9,1195.3c-10.2,6.8-21.4,8.8-33.2,6.8
			C588.5,1198.2,599.7,1196.9,610.9,1195.3z M612.3,1199c-2.3-4.8,18.7-8.4,21.6-9c1-0.2,2.1-0.4,3.1-0.6c0.8,1.4,0.2,2-1.8,1.9
			c-1.9,1.2-5.1,1.5-7.3,2.2c-1.2,0.4-13.3,4-12.9,4.6c1.5,1.9,12.6-2.9,14.8-3.6c6-1.8,12-3.6,18-5.4
			c-8.8,10.8-29.8,14.1-42.7,13.3C607.1,1200.3,610.5,1201.1,612.3,1199z M734.2,1142.7c-2.3-1.2-4.2,2.2-6.8,1.4
			c4.5-3.4,10.4-9.7,15.8-11.3c-0.9,2.3-2.4,4.3-4.3,6C737.7,1139.8,734,1140.9,734.2,1142.7z M762.4,1126c0.1-0.1,2.4-2.2,2.9-1
			c1.1,2.3-24.4,18.5-27.3,20.2C744,1136.2,753.7,1131.5,762.4,1126z M863.9,1002.9c0.8-9.7,0.8-19.7,2.1-29.3
			c1-7.3,3.6-18.4,8.2-24.3c5.4-6.9,12.7-13,18.7-19.4c3-3.2,6-6.5,9.1-9.6c3-3.1,6.5-7.7,10.4-9.6c-2.4,8.7-7.4,17.3-11.1,25.5
			c-3.9,8.9-7.9,17.7-12,26.4c-7.8,16.4-16,32.7-25.9,47.9C862.5,1007.9,863.9,1005.6,863.9,1002.9z M908.9,849.8
			c0.4-9.7,6.1-16.9,10.1-24.9C916.1,833.4,913.6,842.1,908.9,849.8z M916.7,854.2c0.7-1.8,1.4-3,2.1-4.9c1.6,1.4-3.2,5.3-3.6,6.5
			C915.4,855.2,916,854.7,916.7,854.2z M955.5,740.5c-1.8,7.7-3.2,15.7-5.2,23.5c-1,3.9-2.1,7.8-3.4,11.6c-0.8,2.3-1.7,8.9-3.6,10.3
			c-0.7-2,1-4.5,1.5-6.3c0.5-2,0.8-4.2,1.3-6.2c1.2-4.8,2.9-9.5,4-14.3c1.1-4.6,2.5-9.1,3.7-13.6c1.2-4.4,1.3-9.3,2.2-13.8
			c2.2-9.9,3.7-20,5.2-30c1.6-10.2,1.6-21,4.3-30.9c0.6,11.6-1.8,23.5-3.5,34.9C960.2,717.3,958.1,728.9,955.5,740.5z M962.7,642
			c0-6.1,13,0.7,14.5,4.8c1.1,3.3,0.4,7.6,0.2,10.9c-0.4,7.5-1.5,15-2.9,22.4C969.4,667.8,962.8,655.7,962.7,642z M976.3,642.3
			c-5.1-2.7-13.3-3.5-12.7-10.2c0.7-7.9,1.7-15.7,2-23.6c0.1-3.5-0.3-7.4,0.5-10.7c0.7-3,2.5-5.9,3.4-8.9c2.2-7,3.6-14.3,6.2-21.1
			c1.4,6.9,0.8,13.9,1.2,20.8c0.5,7.6,1.2,15.1,1.5,22.7c0.2,5.7,0.9,11.5,1.7,16.6C980.5,630.6,980.6,644.6,976.3,642.3z
			 M978.3,547.1c0.6-1.1,0.6,1.4,0.3,1.9C978,548.5,977.9,547.8,978.3,547.1z M983,445.7c3,17.1,3.7,34.6,2.7,52
			c-0.5,8.6-1.4,17.3-2.5,25.9c-0.5,3.9-1.1,7.8-1.7,11.7c-0.4,2.3-0.2,9-2.5,10.3c0.1-12.2,0.9-24.1-0.3-36.3
			c-1.2-12.1-1.6-24.2-2.5-36.2c-0.9-11.8-2.7-23.4-5.7-34.9c-3-11.4-1.6-23-3.3-34.5C975.1,416.5,980.3,430.9,983,445.7z
			 M966.7,478.3c-1.6-3.5-1.2-6.9,0-10.4C966.7,471.3,966.7,474.6,966.7,478.3z M966,444.1c-5.9-11.7-10.7-34.2-10-48.1
			C960.7,411.5,968.6,426.3,966,444.1z M964.7,416.6c-3.3-10.5-6.6-21-10.2-32.7C964.7,393.2,965.5,404.6,964.7,416.6z M963,390.4
			c-10.1-10.8-12.1-22.6-15.3-36.5c-3.1-13.7-9.4-26.7-10.1-40.8C952.2,336.5,960.4,363,963,390.4z M937,330.3
			c-1.9-4.3-3.4-8.7-4.3-13.7C935.4,319.2,937.3,325.2,937,330.3z M934.8,313.1c0.4,0.4,0.4,0.7,0,1
			C934.4,313.6,934.4,313.3,934.8,313.1z M933.7,311.6c-0.9-2-1.7-3.9-2.6-5.9c-0.5-1.1-3-5.6-0.3-3.8
			C933.3,303.6,934.3,309.1,933.7,311.6z M931.7,299c-7.4-7.8-9-19.8-12.6-29.6c-3.8-10.6-9.1-20.8-12.4-31.5
			C919.7,254.5,928.6,278.2,931.7,299z M905.2,238.5c3.8,8.4,7.3,17.1,10.4,25.7c1,2.7,9.3,21.1,7.4,22.9c-5.3-7-9.3-15.7-14.3-23.2
			c-5.4-8.1-11.6-15.7-16.7-24.1c-4.8-8-9.4-15.9-15.2-23.2c-5.3-6.7-12.1-11.9-15.4-19.7c10.3,2.2,19.4,7.4,27.3,14.3
			C897.3,218.8,900.5,228.3,905.2,238.5z M792.3,130.4c13.5,3.7,27.3,6.6,40.8,10.2c11,3,21.7,6.4,30.9,13.4
			c7.8,6,13.9,13.9,18,22.8c2.5,5.4,4.2,11.1,6.1,16.8c0.7,2.1,7.2,17,5.7,18.2c0.3-0.2-13.8-10.5-15.3-11.4
			c-3.1-1.8-6.2-3.6-9.7-4.8c-2.5-0.8-6.1-0.7-8.3-1.9c-2.1-1.2-1.7-3.6-3.2-4.9c-1.5-1.3-3-1-4.8-2.2c-2.7-1.8-5.2-5.4-7.6-7.6
			c-3-2.8-6.1-5.4-9.4-7.9c-11.7-9.2-24.7-18.8-38.4-24.9c-1.2-0.5-3.9-1-4.7-2c-1.5-1.8,0.9-3,0.1-4.6c-0.5-1.1-4.6-2.5-5.8-3.9
			c-2.1-2.5-3.3-5.5-5.7-7.8C785.1,127.4,788.5,129.4,792.3,130.4z M784.7,136c-1.3-0.3-7.9-2-4.9-4.3
			C781.8,130.1,784,134.6,784.7,136z M780.2,128.6c-0.1,2.4-1.1,2.8-3,1.3c-1.5-0.5-3-1.1-4.5-1.6c-3-1.1-6-2.2-9-3.3
			c-3-1.1-6-2.2-9-3.3c-1.9-0.7-7-1.4-6.4-3.6C758.8,122,770.5,122.6,780.2,128.6z M738,93.3c-0.4-0.2-0.8-0.5-1.2-0.7
			C737.1,92.8,737.5,93.1,738,93.3z M608.5,41.3c5.7-0.7,11.4,4,17.4,4.3c-3.3-2.8-7.7-3.1-11.5-5c23.7-3,44.2,5.6,65.4,15.2
			c20.7,9.4,39.9,21.4,56.9,36.6c-4.2,1.4,3.9,3.2,2.2,1.4c11.9,10.3,25.6,17.3,35.8,29.7c-16.2-4.3-32.6-8.3-48.7-13
			c-14.8-4.3-28.1-13.7-41.1-21.6c-14-8.6-27.6-17.6-42.3-25c-7.7-3.9-15.6-7.4-23.5-10.9c-3.6-1.6-7.2-3.2-10.8-4.8
			c-2.4-1.1-10-3-11.1-5.5C600.9,41.6,604.7,41.4,608.5,41.3z M605.5,48.6c16,7.8,32.4,14.7,47.9,23.4c8,4.5,15.6,9.6,23.5,14.4
			c3.7,2.2,7.4,4.4,11.1,6.5c3.2,1.8,8.3,3.7,10.7,6.7c-4.3,0.3-10.1-3.7-14-5.2c-5.1-2-10.2-3.9-15.3-6
			c-11.3-4.5-22.5-9.1-33.6-13.9c-22.1-9.4-43.9-19.4-65.6-29.6C582.2,42.8,594.4,43.2,605.5,48.6z M552.4,23c4.7,1.1,9.5,2,14,3.6
			c4.1,1.5,9,2.4,13,4c4.3,1.8,0.4,2.3-2.7,1.5c-2.3-0.6-11.6-3.3-12.6-0.8c2.1,1.4,4.6,2.2,7,2.8c-3.7-1-6.9-2.8-10.5-3.9
			c-4-1.2-9.2-1.8-12.8-3.8c-1.7-0.9-3.1-0.2-1.9-2.9c0.4-0.8,0.8-1.3,1.6-1.6C549.1,21.4,550.9,22.7,552.4,23z M406,21.1
			c15-3.2,30.3-3,45.5-3.3c16.1-0.3,31.5-1.3,47.6,0.8c15.3,2,30.6,5.1,45.5,9.1c7.3,1.9,14.5,4.3,21.6,6.7
			c3.6,1.2,7.1,2.4,10.7,3.6c1.9,0.6,7.1,1.3,8,3.6c-8.8,0.2-17.7,1.9-26.3-0.9c-7.9-2.6-15.2-5.8-23.4-7.6
			c-17.3-3.8-35.3-4.7-53-5.4c-17.7-0.7-35.4-0.4-53.1-0.6c-8.7-0.1-17.3,1.1-25.9,1.8c-7.4,0.6-17.8,2.4-24.7-0.9
			C387.6,25.7,396.7,23.1,406,21.1z M378.1,31.3c-6.7,1.3-13.4,2.4-20.1,3.7C364.2,30.5,371,30.3,378.1,31.3z M283.4,33.1
			c24.7-2.8,50.5-2.1,75.2-1.8c-6.7,3.7-14.3,5.2-21.5,7.6c-7,2.3-14.3,6.4-21.6,3.8c-7.3-2.6-14.6-4.9-22.1-6.6
			c-2.9-0.7-5.7-1.2-8.6-1.7c0.5,0.1-2.7-0.3-2.7-0.3C281.6,32.9,282.5,32.8,283.4,33.1z M285.5,36.5c10.6,1.7,20.9,4.7,30.6,9.4
			c-9.4,2.8-18.7,5.3-28,8.4c-9.1,3.1-18.5,2-27.9,1.7c-19.9-0.8-39.7-2.2-59.6-2.4c13.6-5.2,27.6-9,41.6-12.8
			c7.1-2,14.3-3.9,21.5-5.4C271.4,33.8,278,35.3,285.5,36.5z M227.7,32.4c6.4-3.7,13.6-3.9,20.7-2.9c5.3,0.7,13.5,0.7,17.9,3.9
			c-26.8,5.1-52.6,14.1-78.9,21.2C201.4,48.3,214.4,40,227.7,32.4z M187.9,56.8c-10.2,5.6-20,12.7-32.3,11.9
			C166.4,64.8,175.6,56.2,187.9,56.8z M-39.8,177c9.5-18.5,20.3-36.8,35.2-51.5c14.8-14.7,33.4-26.8,51.9-36.4
			c38.3-19.7,83-28.7,125.7-31.5c-20.3,12.3-43.2,19-65.3,27.1c-21.2,7.8-42.5,15.9-61.9,27.8c-19.6,12-37.9,27.1-54.4,43.1
			c-8.8,8.5-17.1,17.6-25.3,26.6c-3.7,4-6.7,8.3-9.7,12.9c-1.5,2.3-5.8,11-9,10.9C-48.5,196.3-44.7,186.4-39.8,177z M90,94.9
			c-8.9,4-17.8,8.1-26.6,12.3c-8.1,3.9-15.8,8.7-24,12.4c2.2-3.3,6.4-4.7,9.6-6.7c4.3-2.6,8.6-5.1,13.1-7.4
			C71.1,101,80.4,97.5,90,94.9z M39.2,119.7c-0.2,0.3-0.4,0.4-0.7,0.2C38.7,119.9,38.9,119.8,39.2,119.7z M-45.1,208.3
			c20.1-24.6,41.4-47.8,65.3-68.8c11.1-9.7,23.1-16.9,36.3-23.4c6.5-3.2,12.9-6.3,19.6-9c3.7-1.5,7.5-3,11.1-4.8
			c2.9-1.4,5.9-4.2,9.3-3.4c-27.2,18.1-54,37-78.7,58.5c-24.6,21.4-47,45.1-71.7,66.4C-52.5,217.8-48.9,212.9-45.1,208.3z
			 M-52.6,225.8c-3.1,3.5-5.6,7.6-9.2,12C-61,230.6-57.5,227.6-52.6,225.8z M-62.6,227.4c-0.4,1.7-1.2,3.1-3.2,4.6
			C-65.5,229-63.9,228.4-62.6,227.4z M-69.2,243.4c0.5-0.8,3.9-12,5.3-6c1,4.3-5.5,10.8-7.8,13.9c-4,5.4-7.7,10.9-11.4,16.5
			c-2,2.9-3.9,5.9-5.8,8.9c-1.6,2.5-3.5,7.3-6.3,8.8c0.6-6.4,7.6-13.6,10.9-18.8C-79.4,258.8-74.3,251.1-69.2,243.4z M-223.7,444.7
			c-1.5-22.7,0.6-46,7.3-67.7c5.8-18.7,17.3-34.6,31-48.3c15.6-15.7,32.4-30.4,49.8-44c17.7-13.9,36-29,55.6-40.1
			c1.5,1.7-11.4,19.5-13.1,22.2c-5.1,8.2-9.9,16.6-14.7,25c-9.2,16.2-18,32.6-26,49.4c-3.8,8-7.5,16-10.8,24.3
			c-3.6,9-5.9,18.6-10,27.5c-7.4,16.1-17.2,30.8-23.4,47.5c-2.6,7.2-6.9,13.5-9.9,20.5c-3.6,8.3-6,17.1-7.7,26
			c-3.3,17.7-4.4,35.6-8.2,53.3c-4,18.2-8.8,36.4-11.1,54.9c-0.4,3.3-0.8,6.3-2.2,9.4c-0.3,0.7-1.9,4.5-2.7,4.7
			c-2.5,0.6-1.4-3.1-1.4-4.6c0-10,0.1-19.9,0.2-29.9c0.3-21.7,0.9-43.4,1-65.1C-219.8,487.9-222.3,466.3-223.7,444.7z M-157.9,982.8
			c-2.4,2.3-44.4-50.8-48.4-56.7c-14.9-21.9-30.2-44.5-41.1-68.7c-10.9-24.3-18.5-50.4-20.2-77.1c-1.7-26.7,2.7-54,10.7-79.4
			c4.5-14.4,10.6-28.2,16.5-42.1c5.8-13.5,11.6-27.2,18.4-40.2c2.7,25.2,6.2,50.2,10.5,75.2c2.1,12,3.6,24.4,6.5,36.2
			c2.8,11.7,7.1,23.9,9.7,35.9c2.7,12.4,2,25.2,2.2,37.8c0.1,13.6,0.2,27.2,0.3,40.9c0.1,25.5-0.3,51.6,5.4,76.6
			c2.7,11.5,6.8,22.7,12.5,33.1c2.9,5.3,6.3,10.4,10,15.2C-162.9,971.9-154.1,979.2-157.9,982.8z M-183.6,825.2
			c0.3,14,2.5,27.3,2.4,40.8c0-4.1,0-8.2,0-12.4c1.4,0,3,28.9,3.2,32.9c0.7,12,4.8,20.5,9.2,31.4c1.9,4.7,3.1,9.6,4.9,14.4
			c1.8,4.8,4.6,8.6,7.3,12.9c6.1,9.4,1.9,18.9-0.1,29.1c-6.6-7-9.7-18-12.6-27c-4.4-13.9-7.5-28.2-10.1-42.5
			c-2.7-14.9-4.7-29.9-5.6-45C-185.8,848.5-186.5,836.3-183.6,825.2z M-155.5,980.7c5.5,7,12,11.8,18.4,17.6
			c4.9,4.5,7.9,16.1,8.9,22.7c-5.9-7.1-10.8-14.8-16.8-21.9C-149.8,993.4-156.8,988.8-155.5,980.7z M-92.7,1102.8
			c-1.1,1-18.6-22.8-20.3-25.2c-6.4-8.8-13.1-17.3-17.9-27.2c-4.7-9.4-8.4-19.2-13.3-28.6c-2.8-5.3-5.4-10.6-7.5-16.1
			c-0.9-2.5-5-11.6-3.7-14.1c0.2-0.4,18,20.8,19.8,23.2c6.8,8.9,12.3,17.5,16.7,27.9c4.5,10.8,9.3,21.4,14.2,32
			C-103.4,1077.9-90.6,1100.9-92.7,1102.8z M25.8,1175.6c-33.7-10.4-67.4-26.2-94.8-48.7c-6.4-5.2-13.3-10.9-18.3-17.5
			c-4.7-6.3-6.9-14.8-10.1-21.9c-3.8-8.4-7.8-16.7-11.6-25.1c-2-4.6-4-9.1-5.9-13.7c-0.8-1.8-4.7-8.5-3.5-10.6
			c12.8,15.2,25.1,31,41.1,43.1c7.4,5.6,15.7,9.3,23.4,14.3c7.5,4.9,11.3,12.1,16.3,19.3c10,14.4,22.2,27.3,36.3,37.8
			c15.1,11.2,32.3,19.1,49.1,27.5C40.2,1180,32.9,1177.8,25.8,1175.6z M111.4,1195c-21.9-3.6-42.7-7.9-63.2-16.7
			c-17.2-7.4-36-16.8-50.1-28.4c1.1-1.5,1.2-0.1,1.5,0.3c2.8,0,6.1,2.3,8.4,3.7c4.6,2.9,9.1,5.5,14,7.9
			c11.3,5.5,22.9,10.1,34.9,13.8c11.7,3.6,23.6,6.4,35.4,9.7c10.8,3,20.8,4.1,30.7,9.8C119.2,1196.4,115.2,1195.6,111.4,1195z
			 M123.4,1198.8c-0.7-0.9,0.2-0.9,0.7-0.3C123.9,1198.5,123.7,1198.6,123.4,1198.8z M126.2,1198.3c7.8-1.5,14.6,2.9,21.9,4.6
			C140.7,1202.5,133.4,1200.7,126.2,1198.3z M150.8,1203.8c1.7-0.3,3.3-0.1,4.7,1.2C153.7,1205.2,152.1,1205.3,150.8,1203.8z
			 M153.3,1198.3c5.2,0.1,9.9-1,14.7,1.3c2.4,1.1,4.5,2.7,7.1,3.4c1.6,0.4,4.1,0.7,4.7,2.7C172.2,1207.3,159.6,1202.5,153.3,1198.3z
			 M178.2,1203.4c-2.2-2.7-6-2.8-8.7-4.8c7.1-3,14.3-0.8,21.1,1.9c3.5,1.4,7,2.9,10.6,4.1c2.5,0.9,8.7,1.4,9.9,4
			c-5.8-0.8-11.7-0.3-17.6-0.9c-2.8-0.3-5.5-0.8-8.1-1.8C183.5,1205.2,180.3,1202.6,178.2,1203.4z M183.7,1210.4
			c41.8,1.4,83.3,7.4,125.1,8.6C266.4,1225.9,224.9,1220.3,183.7,1210.4z M314.4,1220.8c-1,4.3,2.3,9.1-3.1,11.6
			c2.3,1.2,6.1,5.3,2.8,7.8c-1.5,1.1-11.8-1.4-14-1.6c-10.9-1.4-21.8-2.9-32.6-4.9c-20.1-3.6-41.8-7.5-60.5-16
			c9.7,1.3,19.3,2.6,29,3.8c3.9,0.5,9.6,0.2,13.3,1.8c2.3,1,3.5,2,6.7,2.6c8.8,1.7,17.6,3.2,26.5,4.3c8,1,17.9,3.5,25.9,1.8
			c-9.4-1.3-18.9-2.1-28.3-3.4c-9.2-1.3-19.2-1.9-28-5.2c24.1,1.2,47.5-1.2,71.3-3.8c2.5-0.3,4.9-0.4,7.4-0.2
			c2.4,0.2,3.2,1.2,4.9,1.7c4.6,1.3,10,0.9,14.7,2c5.2,1.2,10.1,2.5,15.4,3.4c5.7,0.9,11.9,1.3,17.4,3c-3.3,1.2-6.7,1.8-10.1,2.2
			c-1.9,0.3-4.3,0.9-6.2,0.9c-1.5,0-1.9-0.5-2.9-0.6c-2-0.3-3.7,0.1-5.3-1.6c-0.6-0.7-1.8-5.7-2.2-5.5c-0.2,3.8,0.6,5.9-3.4,6.8
			c-3.9,0.9-8.7,0.9-12.8,0.8c-2.4,0-4.3,0.3-4.9-2.2c-0.5-2,2.6-7.5,0.3-9.2c-0.6,2.6-0.8,8.8-2.9,10.6c-2.2,1.8-7.7,0.8-10.2,0.6
			c-7.3-0.6-6.7-5-6.6-11.5C315.5,1220.8,314.9,1220.8,314.4,1220.8z M361.2,1234.1c-8.9,1.3-17.7,3.9-26.7,4.8
			c-0.4-5.9,4.1-5.7,8.7-5.5c3.3,0.1,6.6,0,9.9-0.1C356.5,1233.2,357.8,1234.7,361.2,1234.1z M316.1,1240.6c0.1-4.9-1.1-7,4.5-7.1
			c2.2,0,10-0.5,11.7,1.1c1.4,1.3-0.1,4.8,2,4.5C327.8,1239.9,322.8,1241.7,316.1,1240.6z M332.4,1240.9c16-3,32.2-7.4,48.4-8.9
			c16.3-1.5,32.6,0.6,48.6,3.1C397.4,1239.7,364.9,1243.9,332.4,1240.9z M400.6,1229.7c20.2-4.4,40.3-6.9,59.3,1.2
			C440.7,1236.8,420.6,1231.2,400.6,1229.7z M477.6,1228.2c-10.6,1.9-25.2,0-35-4.4c38.8-6.6,77.5-12.8,116.2-19.8
			c-3.1,2.5-7.7,1.4-10.6,4c6,0.3,11.3-2.5,17.1-3.2c5.8-0.6,11.7,0.7,17.5,1.1C547.9,1213.9,512.9,1222,477.6,1228.2z
			 M487.5,1228.7c4.6-2.4,10.2-2.5,15.1-3.6c5.2-1.1,10.5-2.4,15.7-3.6c11.2-2.5,22.4-4.8,33.7-6.6c11-1.7,21.9-4.2,32.6-7.2
			c10.9-3.1,21.6-3.1,32.9-3.1C576.9,1223.4,531.8,1227.6,487.5,1228.7z M608.7,1212.3c-0.4,0-0.2-1.1,0.8-0.3
			C609.2,1212.1,609,1212.2,608.7,1212.3z M669.3,1198.8c-9.9,2.8-19.9,5.1-29.9,7.3c-9.4,2.1-19.2,4.8-28.8,5.6
			c0.8-3.2,10.1-5.4,12.8-6.4c5.5-2.1,11.1-3.7,16.8-4.9c10.1-2.1,19.9-4.5,29.4-8.4c9.4-3.8,18.5-8.6,27.1-14.1
			c4.7-2.9,9.2-6.1,13.7-9.3c1.3-1,10.1-7.6,11.6-6.6c2.5,1.8-19.7,20.6-22.1,22.3C690.6,1190.9,680.2,1195.8,669.3,1198.8z
			 M701,1185.9 M704.1,1184.6c-1.3,1.6-1.6,0.5-1-0.6c1-1.9,5.1-4,6.8-5.6c5-4.5,9.6-9.4,13.8-14.6c4-4.9,8.6-6.2,14.4-8.5
			c2.6-1,14.3-7.4,16.3-4.7C739.7,1164.8,722.6,1176.3,704.1,1184.6z M749.4,1148.8c0.8-1.4,1.9-1.7,3.2-1.6
			C751.8,1148.2,750.8,1148.8,749.4,1148.8z M754.8,1149.9c-0.4-0.4-0.4-0.7,0-0.9C755.2,1149.4,755.2,1149.7,754.8,1149.9z
			 M752.9,1147.1c2.4-2.8,5.8-3.7,9-4.9C759.2,1144.7,756.3,1146.5,752.9,1147.1z M768.2,1139.3c2.3-3.3,3.1-3.8,7.1-4.5
			C773.2,1137.1,771,1138.3,768.2,1139.3z M774.9,1132.2c-0.3,0.1-0.6,0.2-0.9,0.3c-0.5-0.8,7.4-9,8.1-10.6
			c-1.2-1.1-8.3,8.5-9.6,9.7c-4,3.8-8.7,6.9-13.4,9.7c-4.5,2.7-9.2,5.1-13.9,7.5c-3.6,1.8-12.4,8.5-16,5.3
			c13.3-9.3,26.5-18.6,39.2-28.6c6-4.7,11.9-9.6,17.7-14.6c2.9-2.5,5.7-6.3,8.8-8.5c3.4-2.3,0.5,0.2,2.3,0.4
			c9.2-12,19.2-23.6,28.1-35.9C820.9,1096.7,802.7,1120.6,774.9,1132.2z M808.1,1113.2c-0.4,0.3-0.8,0.4-1.2,0.4
			c-0.6-0.5,0.8-2.1,1.4-1.7C808.7,1112.4,808.6,1112.9,808.1,1113.2z M959.9,861.8c-13.9,38.1-16.5,79.4-32.3,116.9
			c-14.7,34.9-38.2,66.3-64.9,93c-7.7,7.7-15.8,14.9-24.5,21.5c-4.7,3.6-9.5,7-14.4,10.3c-4.7,3.1-9.6,7.1-14.9,9
			c-1.6-2.4,7.7-13.3,9-16c3.3-6.3,5.8-13,7.7-19.8c1.8-6.3,2.2-11.6,6.9-16.3c5.3-5.3,10.3-11,14.9-16.9
			c8.7-11.1,12.9-24.7,20.2-36.8c3.6-5.9,7.1-11.7,10.3-17.8c3.5-6.6,6.6-13.7,10.2-20.1c-1.3,2.2-2.2,4.6-3,7
			c2.5-0.8,3.7-2.8,4.5-5.1c1-2.7-0.4-3.7,0.8-6.2c0,4.4,0.8,1.3,1.7-0.3c1.4-2.3,3.4-4.4,4.9-6.7c3.4-5.3,6.2-11,8.5-16.8
			c-4.1,3.2-5.7,8.2-8.1,12.6c-1.1,1.9-2.4,3.6-3.5,5.5c-1.1,2.1-1.2,5.4-3.4,5.4c5.8-12.9,11.5-25.8,17.3-38.6
			c2.5-5.4,4.6-11.1,7.3-16.4c1.2-2.4,2.7-4.6,4.4-6.6c0.6-0.7,5.3-4.4,5.3-4.6c0.7-1,0.2-1.4,1.7-1.4c-0.2,1-0.7,1.4-1.7,1.4
			c0.2,0.8,0.1,1.6-0.2,2.4c-0.8,1.7-1.4,3.6-2.2,5.3c-2.1,4.5-4.1,8.9-6.2,13.3c-1.8,3.9-3.5,8-5.6,11.8c-1.9,3.5-4.6,6.6-5.1,10.7
			c2.6-0.1,4.2-5.4,5.2-7.2c2.1-3.9,4-7.9,5.8-11.9c3.5-7.5,7.7-15.1,10.6-22.9c0.6-1.6,0.5-3.8,1.1-5.2c0.8-1.9,3.5-3.8,4.8-5.3
			c3.2-3.5,6.4-7,9.6-10.5c2.9-3.2,5.9-6.4,8.8-9.7c1.7-1.8,5.7-8.1,8-8.9C961.2,859.2,959.9,861.8,959.9,861.8z M972.2,838.7
			c7.2-16.5,15.3-32.5,21.4-49.6C992.2,802.8,980,831,972.2,838.7z M986.1,802.4c-3.2,8-6.9,15.8-10.6,23.6
			c-3.6,7.7-6.5,15.8-10.4,23.3c-3.2,6.3-9.2,11.7-13.8,17c-5.3,6.1-10.8,12.9-16.8,18c-1.1-2,1.4-6.5,2.1-8.6
			c1.5-3.9,2.9-7.9,4.2-11.8c2.8-8.3,5.3-16.7,7.6-25.1c4.3-15.8,9.4-32.4,10.5-48.7c0.5-7.5,3.9-15.7,5.6-23
			c2.1-9.2,4.4-18.6,5.4-27.9c0.8-7.5,1.6-14.8,2.4-22.4c0.5-4.7,1.2-9.3,1.8-14c0.5-3.2,0.1-8.2,1.9-11c2.6,2.9,3.9,7.8,5.4,11.3
			c2,4.6,3.9,9.2,5.5,14c3.2,9.5,5.6,19.3,7.2,29.3c1.5,9.6,2.7,19.4,0.8,29C993.5,784.8,989.7,793.6,986.1,802.4z M1008.1,722.9
			c-1.1,13.9-4,30.1-9.7,42.9c-0.4-20.4-5.1-41.3-13.1-60c-3.8-9-8.9-17-8-27.1c0.5-5.3,1.8-10.5,2.3-15.8
			c0.5-5.1,0.4-10.3,1.1-15.4C1006.6,662.6,1010.3,695.9,1008.1,722.9z"/>
	</g>
</g>
</svg>
