<?xml version="1.0" encoding="utf-8"?>
<!-- Generator: Adobe Illustrator 22.0.1, SVG Export Plug-In . SVG Version: 6.00 Build 0)  -->
<svg version="1.1" xmlns="http://www.w3.org/2000/svg" xmlns:xlink="http://www.w3.org/1999/xlink" x="0px" y="0px"
	 viewBox="0 0 266.559 376.727" style="enable-background:new 0 0 266.559 376.727;" xml:space="preserve">
<style type="text/css">
	.st0{fill:#BABECC;}
	.st1{clip-path:url(#SVGID_2_);}
	.st2{fill:#FFFFFF;}
	.st3{fill:none;stroke:#FFFFFF;stroke-miterlimit:10;}
	.st4{opacity:0.8;}
	.st5{display:none;}
	.st6{display:inline;}
	.st7{fill:#EEEEEF;}
	.st8{fill:#113272;}
	.st9{opacity:0.2;}
	.st10{fill:#171C61;}
	.st11{fill:#EFEFEF;}
	.st12{opacity:0.4;}
	.st13{fill:#15AF83;}
	.st14{fill:#005E9E;}
	.st15{fill:#17AD7B;}
	.st16{fill:#D67327;}
	.st17{opacity:0.6;}
	.st18{fill:#165987;}
	.st19{opacity:0.2;fill:#171C61;}
	.st20{fill:#D65677;}
	.st21{fill:#D64B3C;}
	.st22{fill:#DD722A;}
</style>
<g id="圖層_3">
</g>
<g id="圖層_2">
</g>
<g id="圖層_5" class="st5">
</g>
<g id="圖層_1">
	<g>
		<g id="XMLID_7289_" class="st17">
			<polygon id="XMLID_7297_" class="st18" points="135.675,169.28 45.082,157.545 42.527,190.671 129.247,222.555 			"/>
			<polygon id="XMLID_7296_" class="st18" points="187.539,331.197 216.444,332.434 217.074,298.726 188.257,297.838 			"/>
			<polygon id="XMLID_7295_" class="st18" points="188.889,268.454 188.338,294.057 188.357,294.011 217.145,294.898 
				217.739,263.141 188.877,262.765 			"/>
			<polygon id="XMLID_7294_" class="st18" points="171.461,237.639 171.321,173.897 141.431,170.026 134.844,224.613 
				170.217,237.619 			"/>
			<polygon id="XMLID_7293_" class="st18" points="226.087,90.556 198.181,87.384 192.991,135.72 220.977,138.867 			"/>
			<polygon id="XMLID_7292_" class="st18" points="220.392,144.402 192.397,141.254 188.687,176.147 188.822,237.92 210.463,238.27 
							"/>
			<polygon id="XMLID_7291_" class="st18" points="71.496,225.885 171.515,262.538 170.054,330.448 69.626,326.147 			"/>
			<polygon id="XMLID_7290_" class="st18" points="171.478,168.354 45.72,152.064 54.211,85.959 64.588,53.272 127.634,79.365 
				180.389,85.362 			"/>
		</g>
	</g>
</g>
<g id="圖層_4">
</g>
<g id="圖層_6">
</g>
</svg>
