<?xml version="1.0" encoding="utf-8"?>
<!-- Generator: Adobe Illustrator 22.0.1, SVG Export Plug-In . SVG Version: 6.00 Build 0)  -->
<svg version="1.1" xmlns="http://www.w3.org/2000/svg" xmlns:xlink="http://www.w3.org/1999/xlink" x="0px" y="0px"
	 viewBox="0 0 266.559 376.727" style="enable-background:new 0 0 266.559 376.727;" xml:space="preserve">
<style type="text/css">
	.st0{fill:#BABECC;}
	.st1{clip-path:url(#SVGID_2_);}
	.st2{fill:#FFFFFF;}
	.st3{fill:none;stroke:#FFFFFF;stroke-miterlimit:10;}
	.st4{opacity:0.8;}
	.st5{display:none;}
	.st6{display:inline;}
	.st7{fill:#EEEEEF;}
	.st8{fill:#113272;}
	.st9{opacity:0.2;}
	.st10{fill:#171C61;}
	.st11{fill:#EFEFEF;}
	.st12{opacity:0.4;}
	.st13{fill:#15AF83;}
	.st14{fill:#005E9E;}
	.st15{fill:#17AD7B;}
	.st16{fill:#D67327;}
	.st17{opacity:0.6;}
	.st18{fill:#165987;}
	.st19{opacity:0.2;fill:#171C61;}
	.st20{fill:#D65677;}
	.st21{fill:#D64B3C;}
	.st22{fill:#DD722A;}
</style>
<g id="圖層_3">
</g>
<g id="圖層_2">
</g>
<g id="圖層_5" class="st5">
</g>
<g id="圖層_1">
	<g>
		<g id="XMLID_781_" class="st17">
			<path id="XMLID_788_" class="st20" d="M183.296,135.682l37.892,4.09l21.37-108.627l-44.617,1.919
				c-1.649,0.071-3.292,0.185-4.93,0.334L183.296,135.682z"/>
			<polygon id="XMLID_787_" class="st20" points="176.514,207.082 170.141,274.178 193.834,278.81 207.323,210.245 			"/>
			<polygon id="XMLID_786_" class="st20" points="150.582,302.748 164.058,290.956 169.857,229.735 119.822,224.858 
				117.562,247.418 107.887,256.418 			"/>
			<polygon id="XMLID_785_" class="st20" points="113.421,244.578 115.437,224.43 37.861,148.39 21.967,163.18 104.567,252.815 			
				"/>
			<polygon id="XMLID_784_" class="st20" points="40.91,145.552 115.968,219.125 170.237,225.722 188.404,33.924 149.007,47.888 
				136.665,56.679 			"/>
			<polygon id="XMLID_783_" class="st20" points="176.912,202.895 182.958,139.243 220.494,143.295 208.139,206.101 			"/>
			<polygon id="XMLID_782_" class="st20" points="169.833,277.425 167.199,295.325 154.213,306.688 167.844,321.48 189.14,302.669 
				193.208,281.995 			"/>
		</g>
	</g>
</g>
<g id="圖層_4">
</g>
<g id="圖層_6">
</g>
</svg>
