<?xml version="1.0" encoding="utf-8"?>
<!-- Generator: Adobe Illustrator 22.0.1, SVG Export Plug-In . SVG Version: 6.00 Build 0)  -->
<svg version="1.1" xmlns="http://www.w3.org/2000/svg" xmlns:xlink="http://www.w3.org/1999/xlink" x="0px" y="0px"
	 viewBox="0 0 266.559 376.727" style="enable-background:new 0 0 266.559 376.727;" xml:space="preserve">
<style type="text/css">
	.st0{fill:#BABECC;}
	.st1{clip-path:url(#SVGID_2_);}
	.st2{fill:#FFFFFF;}
	.st3{fill:none;stroke:#FFFFFF;stroke-miterlimit:10;}
	.st4{opacity:0.8;}
	.st5{display:none;}
	.st6{display:inline;}
	.st7{fill:#EEEEEF;}
	.st8{fill:#113272;}
	.st9{opacity:0.2;}
	.st10{fill:#171C61;}
	.st11{fill:#EFEFEF;}
	.st12{opacity:0.4;}
	.st13{fill:#15AF83;}
	.st14{fill:#005E9E;}
	.st15{fill:#17AD7B;}
	.st16{fill:#D67327;}
	.st17{opacity:0.6;}
	.st18{fill:#165987;}
	.st19{opacity:0.2;fill:#171C61;}
	.st20{fill:#D65677;}
	.st21{fill:#D64B3C;}
	.st22{fill:#DD722A;}
</style>
<g id="圖層_3">
</g>
<g id="圖層_2">
</g>
<g id="圖層_5" class="st5">
</g>
<g id="圖層_1">
	<g>
		<g id="XMLID_43_" class="st17">
			<polygon id="XMLID_780_" class="st22" points="218.547,119.972 225.557,63.892 208.729,51.272 174.694,53.153 171.888,117.405 
							"/>
			<polygon id="XMLID_779_" class="st22" points="171.718,121.3 168.928,185.187 210.227,186.53 218.062,123.85 			"/>
			<polygon id="XMLID_778_" class="st22" points="125.618,195.312 74.406,193.708 47.362,323.823 124.906,327.477 			"/>
			<polygon id="XMLID_777_" class="st22" points="166.6,300.154 179.881,254.108 199.308,257.265 208.729,197.915 132.74,195.535 
				132.186,298.4 			"/>
			<polygon id="XMLID_776_" class="st22" points="192.293,301.463 198.625,261.569 183.018,259.033 171.091,300.382 			"/>
			<polygon id="XMLID_775_" class="st22" points="132.152,304.756 132.028,327.812 187.694,330.434 191.292,307.77 			"/>
			<polygon id="XMLID_81_" class="st22" points="78.613,182.289 83.722,58.183 168.666,53.487 162.923,184.999 			"/>
		</g>
	</g>
</g>
<g id="圖層_4">
</g>
<g id="圖層_6">
</g>
</svg>
